<?xml version="1.0" encoding="UTF-8"?>
<svg xmlns="http://www.w3.org/2000/svg" xmlns:xlink="http://www.w3.org/1999/xlink" width="360pt" height="240pt" viewBox="0 0 360 240" version="1.1">
<defs>
<clipPath id="clip0">
  <rect width="360" height="240"/>
</clipPath>
</defs>
<g id="surface0" clip-path="url(#clip0)">
<path style="fill: none; stroke-width: 0.1; stroke-linecap: butt; stroke-linejoin: miter; stroke: rgb(99.215692%,74.509805%,0.784314%); opacity: 1;stroke-miterlimit: 10;" d="M 0 0 L 360 0 L 360 120 C 239.999451 119.999893 120.000229 119.999893 0 120 L 0 0 Z M 0 0 " transform="matrix(1,0,0,1,0,0)"/>
<path style="stroke: none; fill-rule: nonzero; fill: rgb(99.215692%,74.509805%,0.784314%); opacity: 1;" d="M 0 0 L 360 0 L 360 120 C 239.999451 119.999893 120.000229 119.999893 0 120 L 0 0 Z M 0 0 "/>
<path style="fill: none; stroke-width: 0.1; stroke-linecap: butt; stroke-linejoin: miter; stroke: rgb(100%,100%,100%); opacity: 1;stroke-miterlimit: 10;" d="M 0 120 C 120.000229 119.999893 239.999451 119.999893 360 120 L 360 180 C 239.999451 179.999832 120.000229 179.999832 0 180 L 0 120 Z M 0 120 " transform="matrix(1,0,0,1,0,0)"/>
<path style="stroke: none; fill-rule: nonzero; fill: rgb(100%,100%,100%); opacity: 1;" d="M 0 120 C 120.000229 119.999893 239.999451 119.999893 360 120 L 360 180 C 239.999451 179.999832 120.000229 179.999832 0 180 L 0 120 Z M 0 120 "/>
<path style="fill: none; stroke-width: 0.1; stroke-linecap: butt; stroke-linejoin: miter; stroke: rgb(0%,64.313728%,0%); opacity: 1;stroke-miterlimit: 10;" d="M 0 180 C 120.000229 179.999832 239.999451 179.999832 360 180 L 360 240 L 0 240 L 0 180 Z M 0 180 " transform="matrix(1,0,0,1,0,0)"/>
<path style="stroke: none; fill-rule: nonzero; fill: rgb(0%,64.313728%,0%); opacity: 1;" d="M 0 180 C 120.000229 179.999832 239.999451 179.999832 360 180 L 360 240 L 0 240 L 0 180 Z M 0 180 "/>
</g>
</svg>
