<?xml version="1.0" encoding="UTF-8" standalone="no"?>
<!-- Created with Inkscape (http://www.inkscape.org/) -->

<svg
   xmlns:dc="http://purl.org/dc/elements/1.1/"
   xmlns:cc="http://creativecommons.org/ns#"
   xmlns:rdf="http://www.w3.org/1999/02/22-rdf-syntax-ns#"
   xmlns:svg="http://www.w3.org/2000/svg"
   xmlns="http://www.w3.org/2000/svg"
   xmlns:sodipodi="http://sodipodi.sourceforge.net/DTD/sodipodi-0.dtd"
   xmlns:inkscape="http://www.inkscape.org/namespaces/inkscape"
   width="1000"
   height="500"
   id="svg2"
   version="1.1"
   inkscape:version="0.48.3.1 r9886"
   sodipodi:docname="Flag of Cáceres (Antioquia).svg">
  <defs
     id="defs4">
    <inkscape:perspective
       sodipodi:type="inkscape:persp3d"
       inkscape:vp_x="0 : 526.18109 : 1"
       inkscape:vp_y="0 : 1000 : 0"
       inkscape:vp_z="744.09448 : 526.18109 : 1"
       inkscape:persp3d-origin="372.04724 : 350.78739 : 1"
       id="perspective10" />
  </defs>
  <sodipodi:namedview
     id="base"
     pagecolor="#ffffff"
     bordercolor="#666666"
     borderopacity="1.0"
     inkscape:pageopacity="0.0"
     inkscape:pageshadow="2"
     inkscape:zoom="1"
     inkscape:cx="493.63495"
     inkscape:cy="213.46292"
     inkscape:document-units="px"
     inkscape:current-layer="layer1"
     showgrid="false"
     inkscape:window-width="1280"
     inkscape:window-height="962"
     inkscape:window-x="-8"
     inkscape:window-y="-8"
     inkscape:window-maximized="1" />
  <metadata
     id="metadata7">
    <rdf:RDF>
      <cc:Work
         rdf:about="">
        <dc:format>image/svg+xml</dc:format>
        <dc:type
           rdf:resource="http://purl.org/dc/dcmitype/StillImage" />
        <dc:title></dc:title>
      </cc:Work>
    </rdf:RDF>
  </metadata>
  <g
     inkscape:label="Capa 1"
     inkscape:groupmode="layer"
     id="layer1"
     transform="translate(0,-552.36218)">
    <rect
       style="fill:#ffffff;fill-opacity:1;stroke:none"
       id="rect2816"
       width="999.99481"
       height="100.00049"
       x="0.005208306"
       y="552.36218"
       rx="8.8817842e-016"
       ry="8.8817842e-016" />
    <rect
       style="fill:#078930;fill-opacity:1;stroke:none"
       id="rect2818"
       width="999.99481"
       height="300.00146"
       x="0"
       y="652.35876"
       rx="8.8817842e-016"
       ry="8.8817842e-016" />
    <path
       sodipodi:type="star"
       style="fill:#fcdd09;fill-opacity:1;stroke:none"
       id="path4545"
       sodipodi:sides="26"
       sodipodi:cx="437"
       sodipodi:cy="273"
       sodipodi:r1="156.95221"
       sodipodi:r2="81.416916"
       sodipodi:arg1="1.3459077"
       sodipodi:arg2="1.4667381"
       inkscape:flatsided="false"
       inkscape:rounded="3.469447e-018"
       inkscape:randomized="0"
       d="m 472,425.99999 -26.54318,-72.02347 -11.08915,75.95361 -8.53554,-76.28279 -28.94381,71.09273 9.96816,-76.10884 -45.11637,62.1002 27.89255,-71.51173 -58.66692,49.49863 44.19591,-62.7586 -68.80795,34.02038 57.93077,-50.35818 -74.95013,16.56499 68.29891,-35.03112 -76.73648,-1.8531 74.69777,-17.66818 -74.06318,-20.1635 76.75545,0.72157 -67.0856,-37.30206 74.3524,19.06939 -56.20924,-52.27276 67.62825,36.30895 -42.06622,-64.20556 56.97379,51.43838 -25.47844,-72.40697 43.00822,63.5784 L 402,120.00001 l 26.54318,72.02347 11.08915,-75.95361 8.53554,76.28279 28.94381,-71.09273 -9.96816,76.10884 45.11637,-62.1002 -27.89255,71.51173 58.66692,-49.49863 -44.19591,62.7586 68.80795,-34.02038 -57.93077,50.35818 74.95013,-16.56499 -68.29891,35.03112 76.73648,1.8531 -74.69777,17.66818 74.06318,20.1635 -76.75545,-0.72157 67.0856,37.30206 -74.3524,-19.06939 56.20924,52.27276 -67.62825,-36.30895 42.06622,64.20556 -56.97379,-51.43838 25.47844,72.40697 -43.00822,-63.5784 z"
       transform="matrix(1.6015043,0,0,1.5930656,-199.85739,467.45527)" />
    <rect
       style="fill:#89c5e3;fill-opacity:1;stroke:none"
       id="rect2824"
       width="999.99481"
       height="100.00049"
       x="0"
       y="952.36169"
       rx="8.8817842e-016"
       ry="8.8817842e-016" />
  </g>
</svg>
