<?xml version="1.0" encoding="UTF-8" standalone="no"?>
<!-- Created with Inkscape (http://www.inkscape.org/) -->
<svg
   xmlns:dc="http://purl.org/dc/elements/1.1/"
   xmlns:cc="http://creativecommons.org/ns#"
   xmlns:rdf="http://www.w3.org/1999/02/22-rdf-syntax-ns#"
   xmlns:svg="http://www.w3.org/2000/svg"
   xmlns="http://www.w3.org/2000/svg"
   xmlns:sodipodi="http://sodipodi.sourceforge.net/DTD/sodipodi-0.dtd"
   xmlns:inkscape="http://www.inkscape.org/namespaces/inkscape"
   width="750"
   height="500"
   id="svg2822"
   version="1.1"
   inkscape:version="0.46"
   sodipodi:docname="Flag_of_Albania_(La_Guajira).svg"
   sodipodi:version="0.32"
   inkscape:output_extension="org.inkscape.output.svg.inkscape">
  <defs
     id="defs2824" />
  <sodipodi:namedview
     id="base"
     pagecolor="#ffffff"
     bordercolor="#666666"
     borderopacity="1.0"
     inkscape:pageopacity="0.0"
     inkscape:pageshadow="2"
     inkscape:zoom="1.014"
     inkscape:cx="375"
     inkscape:cy="250"
     inkscape:document-units="px"
     inkscape:current-layer="layer1"
     showgrid="false"
     inkscape:window-width="1024"
     inkscape:window-height="712"
     inkscape:window-x="-4"
     inkscape:window-y="-4"
     inkscape:window-maximized="1" />
  <metadata
     id="metadata2827">
    <rdf:RDF>
      <cc:Work
         rdf:about="">
        <dc:format>image/svg+xml</dc:format>
        <dc:type
           rdf:resource="http://purl.org/dc/dcmitype/StillImage" />
        <dc:title />
      </cc:Work>
    </rdf:RDF>
  </metadata>
  <g
     inkscape:label="Capa 1"
     inkscape:groupmode="layer"
     id="layer1"
     transform="translate(0,-552.36218)">
    <rect
       style="fill:#fcdd09;fill-opacity:1;stroke:none"
       id="rect2834"
       width="750"
       height="166.666"
       x="0"
       y="719.03015" />
    <path
       sodipodi:type="arc"
       style="fill:#ffffff;fill-opacity:1;stroke:none"
       id="path5399"
       sodipodi:cx="95.967743"
       sodipodi:cy="245.96774"
       sodipodi:rx="95.967743"
       sodipodi:ry="245.96774"
       d="M 191.93549,245.96774 A 95.967743,245.96774 0 1 1 0,245.96774 A 95.967743,245.96774 0 1 1 191.93549,245.96774 z"
       transform="matrix(1.4831338,0,0,0.5217473,-39.788128,669.03018)" />
    <rect
       style="fill:#000000;fill-opacity:1;stroke:none"
       id="rect2832"
       width="750"
       height="166.666"
       x="0"
       y="-5.6843419e-14"
       transform="translate(0,552.36218)" />
    <rect
       style="fill:#078930;fill-opacity:1;stroke:none"
       id="rect2836"
       width="750"
       height="166.666"
       x="0"
       y="885.69617" />
    <path
       sodipodi:type="star"
       style="fill:#fcdd09;fill-opacity:1;stroke:none"
       id="path5401"
       sodipodi:sides="10"
       sodipodi:cx="53.225807"
       sodipodi:cy="217.74194"
       sodipodi:r1="107.59921"
       sodipodi:r2="65.921295"
       sodipodi:arg1="0.95291754"
       sodipodi:arg2="1.2596707"
       inkscape:flatsided="false"
       inkscape:rounded="3.469447e-18"
       inkscape:randomized="0"
       d="M 115.55883,305.44704 L 73.406321,280.49833 L 52.102519,325.33529 L 32.664907,280.37473 L -10.924736,304.12654 L -0.22294141,256.32754 L -49.448664,249.92181 L -12.695185,217.54196 L -48.754434,183.42546 L 0.01215044,178.83277 L -9.1072178,130.03684 L 33.045294,154.98556 L 54.349095,110.14859 L 73.786707,155.10915 L 117.37635,131.35735 L 106.67456,179.15634 L 155.90028,185.56208 L 119.1468,217.94192 L 155.20605,252.05843 L 106.43946,256.65112 L 115.55883,305.44704 z"
       transform="matrix(0.730464,0,0,0.6970691,73.869306,649.915)" />
    <path
       transform="matrix(0.6890123,-0.2425689,0.2314793,0.6575125,25.672847,671.43906)"
       d="M 115.55883,305.44704 L 73.406321,280.49833 L 52.102519,325.33529 L 32.664907,280.37473 L -10.924736,304.12654 L -0.22294141,256.32754 L -49.448664,249.92181 L -12.695185,217.54196 L -48.754434,183.42546 L 0.01215044,178.83277 L -9.1072178,130.03684 L 33.045294,154.98556 L 54.349095,110.14859 L 73.786707,155.10915 L 117.37635,131.35735 L 106.67456,179.15634 L 155.90028,185.56208 L 119.1468,217.94192 L 155.20605,252.05843 L 106.43946,256.65112 L 115.55883,305.44704 z"
       inkscape:randomized="0"
       inkscape:rounded="3.469447e-18"
       inkscape:flatsided="false"
       sodipodi:arg2="1.2596707"
       sodipodi:arg1="0.95291754"
       sodipodi:r2="65.921295"
       sodipodi:r1="107.59921"
       sodipodi:cy="217.74194"
       sodipodi:cx="53.225807"
       sodipodi:sides="10"
       id="path3154"
       style="fill:#fcdd09;fill-opacity:1;stroke:none"
       sodipodi:type="star" />
  </g>
</svg>
