<?xml version="1.0" encoding="UTF-8" standalone="no"?>
<!-- Created with Inkscape (http://www.inkscape.org/) -->
<svg
   xmlns:dc="http://purl.org/dc/elements/1.1/"
   xmlns:cc="http://creativecommons.org/ns#"
   xmlns:rdf="http://www.w3.org/1999/02/22-rdf-syntax-ns#"
   xmlns:svg="http://www.w3.org/2000/svg"
   xmlns="http://www.w3.org/2000/svg"
   xmlns:sodipodi="http://sodipodi.sourceforge.net/DTD/sodipodi-0.dtd"
   xmlns:inkscape="http://www.inkscape.org/namespaces/inkscape"
   width="750"
   height="500"
   id="svg2822"
   version="1.1"
   inkscape:version="0.46"
   sodipodi:docname="Flag_of_Algeciras_(Huila).svg"
   sodipodi:version="0.32"
   inkscape:output_extension="org.inkscape.output.svg.inkscape">
  <defs
     id="defs2824" />
  <sodipodi:namedview
     id="base"
     pagecolor="#ffffff"
     bordercolor="#666666"
     borderopacity="1.0"
     inkscape:pageopacity="0.0"
     inkscape:pageshadow="2"
     inkscape:zoom="1.014"
     inkscape:cx="375"
     inkscape:cy="250"
     inkscape:document-units="px"
     inkscape:current-layer="layer1"
     showgrid="false"
     inkscape:window-width="1024"
     inkscape:window-height="712"
     inkscape:window-x="-4"
     inkscape:window-y="-4"
     inkscape:window-maximized="1" />
  <metadata
     id="metadata2827">
    <rdf:RDF>
      <cc:Work
         rdf:about="">
        <dc:format>image/svg+xml</dc:format>
        <dc:type
           rdf:resource="http://purl.org/dc/dcmitype/StillImage" />
        <dc:title />
      </cc:Work>
    </rdf:RDF>
  </metadata>
  <g
     inkscape:label="Capa 1"
     inkscape:groupmode="layer"
     id="layer1"
     transform="translate(0,-552.36218)">
    <rect
       style="fill:#fcdd09;fill-opacity:1;stroke:none"
       id="rect2832"
       width="750"
       height="166.666"
       x="0"
       y="719.02936" />
    <path
       sodipodi:type="star"
       style="fill:#89c5e3;fill-opacity:1;stroke:none"
       id="path2995"
       sodipodi:sides="3"
       sodipodi:cx="340"
       sodipodi:cy="177"
       sodipodi:r1="88.684837"
       sodipodi:r2="44.342419"
       sodipodi:arg1="0.51914611"
       sodipodi:arg2="1.5663437"
       inkscape:flatsided="true"
       inkscape:rounded="0"
       inkscape:randomized="0"
       d="M 417,221 L 263.39488,221.68396 L 339.60512,88.316042 L 417,221 z"
       transform="matrix(1.9743922,4.6040896e-3,-4.4972767e-3,1.2559705,-295.84963,606.18132)"
       inkscape:transform-center-x="-0.190292"
       inkscape:transform-center-y="-27.808608" />
    <rect
       style="fill:#da121a;fill-opacity:1;stroke:none"
       id="rect2834"
       width="750"
       height="166.666"
       x="0"
       y="885.69617" />
    <rect
       style="fill:#078930;fill-opacity:1;stroke:none"
       id="rect2836"
       width="750"
       height="166.666"
       x="0"
       y="-719.02881"
       transform="scale(1,-1)" />
    <g
       inkscape:groupmode="layer"
       inkscape:label="Calque 1"
       id="layer1-4"
       transform="matrix(1.960451,0,0,1.960451,194.63835,621.01125)">
      <g
         transform="matrix(0.754398,0,0,0.754398,-21.1595,-18.7689)"
         style="display:inline"
         id="g2129" />
    </g>
    <g
       transform="translate(149.19355,1493.6525)"
       id="g3326" />
    <g
       id="g3275"
       transform="matrix(0.1387685,0,0,0.1387685,368.68889,696.78995)"
       style="fill:#ffffff;stroke:none">
      <path
         d="M -29.25412,300.56004 L -13.90872,347.3086 L 35.01151,347.2518 L -4.70702,376.29223 L 10.46422,422.80058 L -29.42857,394 L -68.972457,422.80057 L -53.90904,375.9604 L -93.519748,347.25179 L -44.31724,347.10355 L -29.25412,300.56008 L -29.25412,300.56004 z"
         id="path8347"
         style="fill:#ffffff;fill-opacity:1;stroke:none;stroke-width:3.00000190999999990;stroke-miterlimit:4;stroke-dasharray:none;stroke-dashoffset:0;stroke-opacity:1" />
      <g
         id="layer4"
         style="fill:#ffffff;stroke:none" />
    </g>
    <g
       style="fill:#ffffff;stroke:none"
       transform="matrix(0.1387685,0,0,0.1387685,387.69884,696.78995)"
       id="g3292">
      <path
         style="fill:#ffffff;fill-opacity:1;stroke:none;stroke-width:3.00000190999999990;stroke-miterlimit:4;stroke-dasharray:none;stroke-dashoffset:0;stroke-opacity:1"
         id="path3294"
         d="M -29.25412,300.56004 L -13.90872,347.3086 L 35.01151,347.2518 L -4.70702,376.29223 L 10.46422,422.80058 L -29.42857,394 L -68.972457,422.80057 L -53.90904,375.9604 L -93.519748,347.25179 L -44.31724,347.10355 L -29.25412,300.56008 L -29.25412,300.56004 z" />
      <g
         style="fill:#ffffff;stroke:none"
         id="g3296" />
    </g>
    <g
       style="fill:#ffffff;stroke:none"
       transform="matrix(0.1387685,0,0,0.1387685,368.68889,718.78995)"
       id="g3298">
      <path
         style="fill:#ffffff;fill-opacity:1;stroke:none;stroke-width:3.00000190999999990;stroke-miterlimit:4;stroke-dasharray:none;stroke-dashoffset:0;stroke-opacity:1"
         id="path3300"
         d="M -29.25412,300.56004 L -13.90872,347.3086 L 35.01151,347.2518 L -4.70702,376.29223 L 10.46422,422.80058 L -29.42857,394 L -68.972457,422.80057 L -53.90904,375.9604 L -93.519748,347.25179 L -44.31724,347.10355 L -29.25412,300.56008 L -29.25412,300.56004 z" />
      <g
         style="fill:#ffffff;stroke:none"
         id="g3302" />
    </g>
    <g
       id="g3304"
       transform="matrix(0.1387685,0,0,0.1387685,387.69884,718.78995)"
       style="fill:#ffffff;stroke:none">
      <path
         d="M -29.25412,300.56004 L -13.90872,347.3086 L 35.01151,347.2518 L -4.70702,376.29223 L 10.46422,422.80058 L -29.42857,394 L -68.972457,422.80057 L -53.90904,375.9604 L -93.519748,347.25179 L -44.31724,347.10355 L -29.25412,300.56008 L -29.25412,300.56004 z"
         id="path3306"
         style="fill:#ffffff;fill-opacity:1;stroke:none;stroke-width:3.00000190999999990;stroke-miterlimit:4;stroke-dasharray:none;stroke-dashoffset:0;stroke-opacity:1" />
      <g
         id="g3308"
         style="fill:#ffffff;stroke:none" />
    </g>
    <g
       id="g3310"
       transform="matrix(0.1387685,0,0,0.1387685,349.67894,718.78995)"
       style="fill:#ffffff;stroke:none">
      <path
         d="M -29.25412,300.56004 L -13.90872,347.3086 L 35.01151,347.2518 L -4.70702,376.29223 L 10.46422,422.80058 L -29.42857,394 L -68.972457,422.80057 L -53.90904,375.9604 L -93.519748,347.25179 L -44.31724,347.10355 L -29.25412,300.56008 L -29.25412,300.56004 z"
         id="path3312"
         style="fill:#ffffff;fill-opacity:1;stroke:none;stroke-width:3.00000190999999990;stroke-miterlimit:4;stroke-dasharray:none;stroke-dashoffset:0;stroke-opacity:1" />
      <g
         id="g3314"
         style="fill:#ffffff;stroke:none" />
    </g>
    <g
       style="fill:#ffffff;stroke:none"
       transform="matrix(0.1387685,0,0,0.1387685,406.68889,718.78995)"
       id="g3329">
      <path
         style="fill:#ffffff;fill-opacity:1;stroke:none;stroke-width:3.00000190999999990;stroke-miterlimit:4;stroke-dasharray:none;stroke-dashoffset:0;stroke-opacity:1"
         id="path3331"
         d="M -29.25412,300.56004 L -13.90872,347.3086 L 35.01151,347.2518 L -4.70702,376.29223 L 10.46422,422.80058 L -29.42857,394 L -68.972457,422.80057 L -53.90904,375.9604 L -93.519748,347.25179 L -44.31724,347.10355 L -29.25412,300.56008 L -29.25412,300.56004 z" />
      <g
         style="fill:#ffffff;stroke:none"
         id="g3333" />
    </g>
    <g
       id="g3347"
       transform="matrix(0.1387685,0,0,0.1387685,368.68889,738.78995)"
       style="fill:#ffffff;stroke:none">
      <path
         d="M -29.25412,300.56004 L -13.90872,347.3086 L 35.01151,347.2518 L -4.70702,376.29223 L 10.46422,422.80058 L -29.42857,394 L -68.972457,422.80057 L -53.90904,375.9604 L -93.519748,347.25179 L -44.31724,347.10355 L -29.25412,300.56008 L -29.25412,300.56004 z"
         id="path3349"
         style="fill:#ffffff;fill-opacity:1;stroke:none;stroke-width:3.00000190999999990;stroke-miterlimit:4;stroke-dasharray:none;stroke-dashoffset:0;stroke-opacity:1" />
      <g
         id="g3351"
         style="fill:#ffffff;stroke:none" />
    </g>
    <g
       style="fill:#ffffff;stroke:none"
       transform="matrix(0.1387685,0,0,0.1387685,387.69884,738.78995)"
       id="g3353">
      <path
         style="fill:#ffffff;fill-opacity:1;stroke:none;stroke-width:3.00000190999999990;stroke-miterlimit:4;stroke-dasharray:none;stroke-dashoffset:0;stroke-opacity:1"
         id="path3355"
         d="M -29.25412,300.56004 L -13.90872,347.3086 L 35.01151,347.2518 L -4.70702,376.29223 L 10.46422,422.80058 L -29.42857,394 L -68.972457,422.80057 L -53.90904,375.9604 L -93.519748,347.25179 L -44.31724,347.10355 L -29.25412,300.56008 L -29.25412,300.56004 z" />
      <g
         style="fill:#ffffff;stroke:none"
         id="g3357" />
    </g>
    <g
       style="fill:#ffffff;stroke:none"
       transform="matrix(0.1387685,0,0,0.1387685,349.67894,738.78995)"
       id="g3359">
      <path
         style="fill:#ffffff;fill-opacity:1;stroke:none;stroke-width:3.00000190999999990;stroke-miterlimit:4;stroke-dasharray:none;stroke-dashoffset:0;stroke-opacity:1"
         id="path3361"
         d="M -29.25412,300.56004 L -13.90872,347.3086 L 35.01151,347.2518 L -4.70702,376.29223 L 10.46422,422.80058 L -29.42857,394 L -68.972457,422.80057 L -53.90904,375.9604 L -93.519748,347.25179 L -44.31724,347.10355 L -29.25412,300.56008 L -29.25412,300.56004 z" />
      <g
         style="fill:#ffffff;stroke:none"
         id="g3363" />
    </g>
    <g
       id="g3365"
       transform="matrix(0.1387685,0,0,0.1387685,406.68889,738.78995)"
       style="fill:#ffffff;stroke:none">
      <path
         d="M -29.25412,300.56004 L -13.90872,347.3086 L 35.01151,347.2518 L -4.70702,376.29223 L 10.46422,422.80058 L -29.42857,394 L -68.972457,422.80057 L -53.90904,375.9604 L -93.519748,347.25179 L -44.31724,347.10355 L -29.25412,300.56008 L -29.25412,300.56004 z"
         id="path3367"
         style="fill:#ffffff;fill-opacity:1;stroke:none;stroke-width:3.00000190999999990;stroke-miterlimit:4;stroke-dasharray:none;stroke-dashoffset:0;stroke-opacity:1" />
      <g
         id="g3369"
         style="fill:#ffffff;stroke:none" />
    </g>
    <g
       style="fill:#ffffff;stroke:none"
       transform="matrix(0.1387685,0,0,0.1387685,368.68889,758.78995)"
       id="g3395">
      <path
         style="fill:#ffffff;fill-opacity:1;stroke:none;stroke-width:3.00000190999999990;stroke-miterlimit:4;stroke-dasharray:none;stroke-dashoffset:0;stroke-opacity:1"
         id="path3397"
         d="M -29.25412,300.56004 L -13.90872,347.3086 L 35.01151,347.2518 L -4.70702,376.29223 L 10.46422,422.80058 L -29.42857,394 L -68.972457,422.80057 L -53.90904,375.9604 L -93.519748,347.25179 L -44.31724,347.10355 L -29.25412,300.56008 L -29.25412,300.56004 z" />
      <g
         style="fill:#ffffff;stroke:none"
         id="g3399" />
    </g>
    <g
       id="g3401"
       transform="matrix(0.1387685,0,0,0.1387685,387.69884,758.78995)"
       style="fill:#ffffff;stroke:none">
      <path
         d="M -29.25412,300.56004 L -13.90872,347.3086 L 35.01151,347.2518 L -4.70702,376.29223 L 10.46422,422.80058 L -29.42857,394 L -68.972457,422.80057 L -53.90904,375.9604 L -93.519748,347.25179 L -44.31724,347.10355 L -29.25412,300.56008 L -29.25412,300.56004 z"
         id="path3403"
         style="fill:#ffffff;fill-opacity:1;stroke:none;stroke-width:3.00000190999999990;stroke-miterlimit:4;stroke-dasharray:none;stroke-dashoffset:0;stroke-opacity:1" />
      <g
         id="g3405"
         style="fill:#ffffff;stroke:none" />
    </g>
    <g
       id="g3407"
       transform="matrix(0.1387685,0,0,0.1387685,349.67894,758.78995)"
       style="fill:#ffffff;stroke:none">
      <path
         d="M -29.25412,300.56004 L -13.90872,347.3086 L 35.01151,347.2518 L -4.70702,376.29223 L 10.46422,422.80058 L -29.42857,394 L -68.972457,422.80057 L -53.90904,375.9604 L -93.519748,347.25179 L -44.31724,347.10355 L -29.25412,300.56008 L -29.25412,300.56004 z"
         id="path3409"
         style="fill:#ffffff;fill-opacity:1;stroke:none;stroke-width:3.00000190999999990;stroke-miterlimit:4;stroke-dasharray:none;stroke-dashoffset:0;stroke-opacity:1" />
      <g
         id="g3411"
         style="fill:#ffffff;stroke:none" />
    </g>
    <g
       style="fill:#ffffff;stroke:none"
       transform="matrix(0.1387685,0,0,0.1387685,406.68889,758.78995)"
       id="g3413">
      <path
         style="fill:#ffffff;fill-opacity:1;stroke:none;stroke-width:3.00000190999999990;stroke-miterlimit:4;stroke-dasharray:none;stroke-dashoffset:0;stroke-opacity:1"
         id="path3415"
         d="M -29.25412,300.56004 L -13.90872,347.3086 L 35.01151,347.2518 L -4.70702,376.29223 L 10.46422,422.80058 L -29.42857,394 L -68.972457,422.80057 L -53.90904,375.9604 L -93.519748,347.25179 L -44.31724,347.10355 L -29.25412,300.56008 L -29.25412,300.56004 z" />
      <g
         style="fill:#ffffff;stroke:none"
         id="g3417" />
    </g>
    <g
       style="fill:#ffffff;stroke:none"
       transform="matrix(0.1387685,0,0,0.1387685,368.68889,778.78995)"
       id="g3443">
      <path
         style="fill:#ffffff;fill-opacity:1;stroke:none;stroke-width:3.00000190999999990;stroke-miterlimit:4;stroke-dasharray:none;stroke-dashoffset:0;stroke-opacity:1"
         id="path3445"
         d="M -29.25412,300.56004 L -13.90872,347.3086 L 35.01151,347.2518 L -4.70702,376.29223 L 10.46422,422.80058 L -29.42857,394 L -68.972457,422.80057 L -53.90904,375.9604 L -93.519748,347.25179 L -44.31724,347.10355 L -29.25412,300.56008 L -29.25412,300.56004 z" />
      <g
         style="fill:#ffffff;stroke:none"
         id="g3447" />
    </g>
    <g
       id="g3449"
       transform="matrix(0.1387685,0,0,0.1387685,387.69884,778.78995)"
       style="fill:#ffffff;stroke:none">
      <path
         d="M -29.25412,300.56004 L -13.90872,347.3086 L 35.01151,347.2518 L -4.70702,376.29223 L 10.46422,422.80058 L -29.42857,394 L -68.972457,422.80057 L -53.90904,375.9604 L -93.519748,347.25179 L -44.31724,347.10355 L -29.25412,300.56008 L -29.25412,300.56004 z"
         id="path3451"
         style="fill:#ffffff;fill-opacity:1;stroke:none;stroke-width:3.00000190999999990;stroke-miterlimit:4;stroke-dasharray:none;stroke-dashoffset:0;stroke-opacity:1" />
      <g
         id="g3453"
         style="fill:#ffffff;stroke:none" />
    </g>
    <g
       id="g3455"
       transform="matrix(0.1387685,0,0,0.1387685,349.67894,778.78995)"
       style="fill:#ffffff;stroke:none">
      <path
         d="M -29.25412,300.56004 L -13.90872,347.3086 L 35.01151,347.2518 L -4.70702,376.29223 L 10.46422,422.80058 L -29.42857,394 L -68.972457,422.80057 L -53.90904,375.9604 L -93.519748,347.25179 L -44.31724,347.10355 L -29.25412,300.56008 L -29.25412,300.56004 z"
         id="path3457"
         style="fill:#ffffff;fill-opacity:1;stroke:none;stroke-width:3.00000190999999990;stroke-miterlimit:4;stroke-dasharray:none;stroke-dashoffset:0;stroke-opacity:1" />
      <g
         id="g3459"
         style="fill:#ffffff;stroke:none" />
    </g>
    <g
       style="fill:#ffffff;stroke:none"
       transform="matrix(0.1387685,0,0,0.1387685,406.68889,778.78995)"
       id="g3461">
      <path
         style="fill:#ffffff;fill-opacity:1;stroke:none;stroke-width:3.00000190999999990;stroke-miterlimit:4;stroke-dasharray:none;stroke-dashoffset:0;stroke-opacity:1"
         id="path3463"
         d="M -29.25412,300.56004 L -13.90872,347.3086 L 35.01151,347.2518 L -4.70702,376.29223 L 10.46422,422.80058 L -29.42857,394 L -68.972457,422.80057 L -53.90904,375.9604 L -93.519748,347.25179 L -44.31724,347.10355 L -29.25412,300.56008 L -29.25412,300.56004 z" />
      <g
         style="fill:#ffffff;stroke:none"
         id="g3465" />
    </g>
    <g
       id="g3467"
       transform="matrix(0.1387685,0,0,0.1387685,368.68889,798.78995)"
       style="fill:#ffffff;stroke:none">
      <path
         d="M -29.25412,300.56004 L -13.90872,347.3086 L 35.01151,347.2518 L -4.70702,376.29223 L 10.46422,422.80058 L -29.42857,394 L -68.972457,422.80057 L -53.90904,375.9604 L -93.519748,347.25179 L -44.31724,347.10355 L -29.25412,300.56008 L -29.25412,300.56004 z"
         id="path3469"
         style="fill:#ffffff;fill-opacity:1;stroke:none;stroke-width:3.00000190999999990;stroke-miterlimit:4;stroke-dasharray:none;stroke-dashoffset:0;stroke-opacity:1" />
      <g
         id="g3471"
         style="fill:#ffffff;stroke:none" />
    </g>
    <g
       style="fill:#ffffff;stroke:none"
       transform="matrix(0.1387685,0,0,0.1387685,387.69884,798.78995)"
       id="g3473">
      <path
         style="fill:#ffffff;fill-opacity:1;stroke:none;stroke-width:3.00000190999999990;stroke-miterlimit:4;stroke-dasharray:none;stroke-dashoffset:0;stroke-opacity:1"
         id="path3475"
         d="M -29.25412,300.56004 L -13.90872,347.3086 L 35.01151,347.2518 L -4.70702,376.29223 L 10.46422,422.80058 L -29.42857,394 L -68.972457,422.80057 L -53.90904,375.9604 L -93.519748,347.25179 L -44.31724,347.10355 L -29.25412,300.56008 L -29.25412,300.56004 z" />
      <g
         style="fill:#ffffff;stroke:none"
         id="g3477" />
    </g>
    <g
       style="fill:#ffffff;stroke:none"
       transform="matrix(0.1387685,0,0,0.1387685,349.67894,798.78995)"
       id="g3479">
      <path
         style="fill:#ffffff;fill-opacity:1;stroke:none;stroke-width:3.00000190999999990;stroke-miterlimit:4;stroke-dasharray:none;stroke-dashoffset:0;stroke-opacity:1"
         id="path3481"
         d="M -29.25412,300.56004 L -13.90872,347.3086 L 35.01151,347.2518 L -4.70702,376.29223 L 10.46422,422.80058 L -29.42857,394 L -68.972457,422.80057 L -53.90904,375.9604 L -93.519748,347.25179 L -44.31724,347.10355 L -29.25412,300.56008 L -29.25412,300.56004 z" />
      <g
         style="fill:#ffffff;stroke:none"
         id="g3483" />
    </g>
    <g
       id="g3485"
       transform="matrix(0.1387685,0,0,0.1387685,406.68889,798.78995)"
       style="fill:#ffffff;stroke:none">
      <path
         d="M -29.25412,300.56004 L -13.90872,347.3086 L 35.01151,347.2518 L -4.70702,376.29223 L 10.46422,422.80058 L -29.42857,394 L -68.972457,422.80057 L -53.90904,375.9604 L -93.519748,347.25179 L -44.31724,347.10355 L -29.25412,300.56008 L -29.25412,300.56004 z"
         id="path3487"
         style="fill:#ffffff;fill-opacity:1;stroke:none;stroke-width:3.00000190999999990;stroke-miterlimit:4;stroke-dasharray:none;stroke-dashoffset:0;stroke-opacity:1" />
      <g
         id="g3489"
         style="fill:#ffffff;stroke:none" />
    </g>
    <g
       id="g3497"
       transform="matrix(0.1387685,0,0,0.1387685,330.68889,738.78995)"
       style="fill:#ffffff;stroke:none">
      <path
         d="M -29.25412,300.56004 L -13.90872,347.3086 L 35.01151,347.2518 L -4.70702,376.29223 L 10.46422,422.80058 L -29.42857,394 L -68.972457,422.80057 L -53.90904,375.9604 L -93.519748,347.25179 L -44.31724,347.10355 L -29.25412,300.56008 L -29.25412,300.56004 z"
         id="path3499"
         style="fill:#ffffff;fill-opacity:1;stroke:none;stroke-width:3.00000190999999990;stroke-miterlimit:4;stroke-dasharray:none;stroke-dashoffset:0;stroke-opacity:1" />
      <g
         id="g3501"
         style="fill:#ffffff;stroke:none" />
    </g>
    <g
       style="fill:#ffffff;stroke:none"
       transform="matrix(0.1387685,0,0,0.1387685,330.68889,758.78995)"
       id="g3509">
      <path
         style="fill:#ffffff;fill-opacity:1;stroke:none;stroke-width:3.00000190999999990;stroke-miterlimit:4;stroke-dasharray:none;stroke-dashoffset:0;stroke-opacity:1"
         id="path3511"
         d="M -29.25412,300.56004 L -13.90872,347.3086 L 35.01151,347.2518 L -4.70702,376.29223 L 10.46422,422.80058 L -29.42857,394 L -68.972457,422.80057 L -53.90904,375.9604 L -93.519748,347.25179 L -44.31724,347.10355 L -29.25412,300.56008 L -29.25412,300.56004 z" />
      <g
         style="fill:#ffffff;stroke:none"
         id="g3513" />
    </g>
    <g
       style="fill:#ffffff;stroke:none"
       transform="matrix(0.1387685,0,0,0.1387685,330.68889,778.78995)"
       id="g3521">
      <path
         style="fill:#ffffff;fill-opacity:1;stroke:none;stroke-width:3.00000190999999990;stroke-miterlimit:4;stroke-dasharray:none;stroke-dashoffset:0;stroke-opacity:1"
         id="path3523"
         d="M -29.25412,300.56004 L -13.90872,347.3086 L 35.01151,347.2518 L -4.70702,376.29223 L 10.46422,422.80058 L -29.42857,394 L -68.972457,422.80057 L -53.90904,375.9604 L -93.519748,347.25179 L -44.31724,347.10355 L -29.25412,300.56008 L -29.25412,300.56004 z" />
      <g
         style="fill:#ffffff;stroke:none"
         id="g3525" />
    </g>
    <g
       id="g3533"
       transform="matrix(0.1387685,0,0,0.1387685,330.68889,798.78995)"
       style="fill:#ffffff;stroke:none">
      <path
         d="M -29.25412,300.56004 L -13.90872,347.3086 L 35.01151,347.2518 L -4.70702,376.29223 L 10.46422,422.80058 L -29.42857,394 L -68.972457,422.80057 L -53.90904,375.9604 L -93.519748,347.25179 L -44.31724,347.10355 L -29.25412,300.56008 L -29.25412,300.56004 z"
         id="path3535"
         style="fill:#ffffff;fill-opacity:1;stroke:none;stroke-width:3.00000190999999990;stroke-miterlimit:4;stroke-dasharray:none;stroke-dashoffset:0;stroke-opacity:1" />
      <g
         id="g3537"
         style="fill:#ffffff;stroke:none" />
    </g>
    <g
       id="g3557"
       transform="matrix(0.1387685,0,0,0.1387685,311.67894,758.78995)"
       style="fill:#ffffff;stroke:none">
      <path
         d="M -29.25412,300.56004 L -13.90872,347.3086 L 35.01151,347.2518 L -4.70702,376.29223 L 10.46422,422.80058 L -29.42857,394 L -68.972457,422.80057 L -53.90904,375.9604 L -93.519748,347.25179 L -44.31724,347.10355 L -29.25412,300.56008 L -29.25412,300.56004 z"
         id="path3559"
         style="fill:#ffffff;fill-opacity:1;stroke:none;stroke-width:3.00000190999999990;stroke-miterlimit:4;stroke-dasharray:none;stroke-dashoffset:0;stroke-opacity:1" />
      <g
         id="g3561"
         style="fill:#ffffff;stroke:none" />
    </g>
    <g
       id="g3563"
       transform="matrix(0.1387685,0,0,0.1387685,311.67894,778.78995)"
       style="fill:#ffffff;stroke:none">
      <path
         d="M -29.25412,300.56004 L -13.90872,347.3086 L 35.01151,347.2518 L -4.70702,376.29223 L 10.46422,422.80058 L -29.42857,394 L -68.972457,422.80057 L -53.90904,375.9604 L -93.519748,347.25179 L -44.31724,347.10355 L -29.25412,300.56008 L -29.25412,300.56004 z"
         id="path3565"
         style="fill:#ffffff;fill-opacity:1;stroke:none;stroke-width:3.00000190999999990;stroke-miterlimit:4;stroke-dasharray:none;stroke-dashoffset:0;stroke-opacity:1" />
      <g
         id="g3567"
         style="fill:#ffffff;stroke:none" />
    </g>
    <g
       style="fill:#ffffff;stroke:none"
       transform="matrix(0.1387685,0,0,0.1387685,311.67894,798.78995)"
       id="g3569">
      <path
         style="fill:#ffffff;fill-opacity:1;stroke:none;stroke-width:3.00000190999999990;stroke-miterlimit:4;stroke-dasharray:none;stroke-dashoffset:0;stroke-opacity:1"
         id="path3571"
         d="M -29.25412,300.56004 L -13.90872,347.3086 L 35.01151,347.2518 L -4.70702,376.29223 L 10.46422,422.80058 L -29.42857,394 L -68.972457,422.80057 L -53.90904,375.9604 L -93.519748,347.25179 L -44.31724,347.10355 L -29.25412,300.56008 L -29.25412,300.56004 z" />
      <g
         style="fill:#ffffff;stroke:none"
         id="g3573" />
    </g>
    <g
       style="fill:#ffffff;stroke:none"
       transform="matrix(0.1387685,0,0,0.1387685,292.48996,778.78995)"
       id="g3581">
      <path
         style="fill:#ffffff;fill-opacity:1;stroke:none;stroke-width:3.00000190999999990;stroke-miterlimit:4;stroke-dasharray:none;stroke-dashoffset:0;stroke-opacity:1"
         id="path3583"
         d="M -29.25412,300.56004 L -13.90872,347.3086 L 35.01151,347.2518 L -4.70702,376.29223 L 10.46422,422.80058 L -29.42857,394 L -68.972457,422.80057 L -53.90904,375.9604 L -93.519748,347.25179 L -44.31724,347.10355 L -29.25412,300.56008 L -29.25412,300.56004 z" />
      <g
         style="fill:#ffffff;stroke:none"
         id="g3585" />
    </g>
    <g
       style="fill:#ffffff;stroke:none"
       transform="matrix(0.1387685,0,0,0.1387685,292.68889,798.78995)"
       id="g3593">
      <path
         style="fill:#ffffff;fill-opacity:1;stroke:none;stroke-width:3.00000190999999990;stroke-miterlimit:4;stroke-dasharray:none;stroke-dashoffset:0;stroke-opacity:1"
         id="path3595"
         d="M -29.25412,300.56004 L -13.90872,347.3086 L 35.01151,347.2518 L -4.70702,376.29223 L 10.46422,422.80058 L -29.42857,394 L -68.972457,422.80057 L -53.90904,375.9604 L -93.519748,347.25179 L -44.31724,347.10355 L -29.25412,300.56008 L -29.25412,300.56004 z" />
      <g
         style="fill:#ffffff;stroke:none"
         id="g3597" />
    </g>
    <g
       id="g3599"
       transform="matrix(0.1387685,0,0,0.1387685,273.67894,798.78995)"
       style="fill:#ffffff;stroke:none">
      <path
         d="M -29.25412,300.56004 L -13.90872,347.3086 L 35.01151,347.2518 L -4.70702,376.29223 L 10.46422,422.80058 L -29.42857,394 L -68.972457,422.80057 L -53.90904,375.9604 L -93.519748,347.25179 L -44.31724,347.10355 L -29.25412,300.56008 L -29.25412,300.56004 z"
         id="path3601"
         style="fill:#ffffff;fill-opacity:1;stroke:none;stroke-width:3.00000190999999990;stroke-miterlimit:4;stroke-dasharray:none;stroke-dashoffset:0;stroke-opacity:1" />
      <g
         id="g3603"
         style="fill:#ffffff;stroke:none" />
    </g>
    <g
       style="fill:#ffffff;stroke:none"
       transform="matrix(0.1387685,0,0,0.1387685,425.69884,738.78995)"
       id="g3611">
      <path
         style="fill:#ffffff;fill-opacity:1;stroke:none;stroke-width:3.00000190999999990;stroke-miterlimit:4;stroke-dasharray:none;stroke-dashoffset:0;stroke-opacity:1"
         id="path3613"
         d="M -29.25412,300.56004 L -13.90872,347.3086 L 35.01151,347.2518 L -4.70702,376.29223 L 10.46422,422.80058 L -29.42857,394 L -68.972457,422.80057 L -53.90904,375.9604 L -93.519748,347.25179 L -44.31724,347.10355 L -29.25412,300.56008 L -29.25412,300.56004 z" />
      <g
         style="fill:#ffffff;stroke:none"
         id="g3615" />
    </g>
    <g
       id="g3623"
       transform="matrix(0.1387685,0,0,0.1387685,425.69884,758.78995)"
       style="fill:#ffffff;stroke:none">
      <path
         d="M -29.25412,300.56004 L -13.90872,347.3086 L 35.01151,347.2518 L -4.70702,376.29223 L 10.46422,422.80058 L -29.42857,394 L -68.972457,422.80057 L -53.90904,375.9604 L -93.519748,347.25179 L -44.31724,347.10355 L -29.25412,300.56008 L -29.25412,300.56004 z"
         id="path3625"
         style="fill:#ffffff;fill-opacity:1;stroke:none;stroke-width:3.00000190999999990;stroke-miterlimit:4;stroke-dasharray:none;stroke-dashoffset:0;stroke-opacity:1" />
      <g
         id="g3627"
         style="fill:#ffffff;stroke:none" />
    </g>
    <g
       id="g3635"
       transform="matrix(0.1387685,0,0,0.1387685,425.69884,778.78995)"
       style="fill:#ffffff;stroke:none">
      <path
         d="M -29.25412,300.56004 L -13.90872,347.3086 L 35.01151,347.2518 L -4.70702,376.29223 L 10.46422,422.80058 L -29.42857,394 L -68.972457,422.80057 L -53.90904,375.9604 L -93.519748,347.25179 L -44.31724,347.10355 L -29.25412,300.56008 L -29.25412,300.56004 z"
         id="path3637"
         style="fill:#ffffff;fill-opacity:1;stroke:none;stroke-width:3.00000190999999990;stroke-miterlimit:4;stroke-dasharray:none;stroke-dashoffset:0;stroke-opacity:1" />
      <g
         id="g3639"
         style="fill:#ffffff;stroke:none" />
    </g>
    <g
       style="fill:#ffffff;stroke:none"
       transform="matrix(0.1387685,0,0,0.1387685,425.69884,798.78995)"
       id="g3647">
      <path
         style="fill:#ffffff;fill-opacity:1;stroke:none;stroke-width:3.00000190999999990;stroke-miterlimit:4;stroke-dasharray:none;stroke-dashoffset:0;stroke-opacity:1"
         id="path3649"
         d="M -29.25412,300.56004 L -13.90872,347.3086 L 35.01151,347.2518 L -4.70702,376.29223 L 10.46422,422.80058 L -29.42857,394 L -68.972457,422.80057 L -53.90904,375.9604 L -93.519748,347.25179 L -44.31724,347.10355 L -29.25412,300.56008 L -29.25412,300.56004 z" />
      <g
         style="fill:#ffffff;stroke:none"
         id="g3651" />
    </g>
    <g
       style="fill:#ffffff;stroke:none"
       transform="matrix(0.1387685,0,0,0.1387685,444.70879,758.78995)"
       id="g3659">
      <path
         style="fill:#ffffff;fill-opacity:1;stroke:none;stroke-width:3.00000190999999990;stroke-miterlimit:4;stroke-dasharray:none;stroke-dashoffset:0;stroke-opacity:1"
         id="path3661"
         d="M -29.25412,300.56004 L -13.90872,347.3086 L 35.01151,347.2518 L -4.70702,376.29223 L 10.46422,422.80058 L -29.42857,394 L -68.972457,422.80057 L -53.90904,375.9604 L -93.519748,347.25179 L -44.31724,347.10355 L -29.25412,300.56008 L -29.25412,300.56004 z" />
      <g
         style="fill:#ffffff;stroke:none"
         id="g3663" />
    </g>
    <g
       id="g3671"
       transform="matrix(0.1387685,0,0,0.1387685,444.68889,778.78995)"
       style="fill:#ffffff;stroke:none">
      <path
         d="M -29.25412,300.56004 L -13.90872,347.3086 L 35.01151,347.2518 L -4.70702,376.29223 L 10.46422,422.80058 L -29.42857,394 L -68.972457,422.80057 L -53.90904,375.9604 L -93.519748,347.25179 L -44.31724,347.10355 L -29.25412,300.56008 L -29.25412,300.56004 z"
         id="path3673"
         style="fill:#ffffff;fill-opacity:1;stroke:none;stroke-width:3.00000190999999990;stroke-miterlimit:4;stroke-dasharray:none;stroke-dashoffset:0;stroke-opacity:1" />
      <g
         id="g3675"
         style="fill:#ffffff;stroke:none" />
    </g>
    <g
       style="fill:#ffffff;stroke:none"
       transform="matrix(0.1387685,0,0,0.1387685,463.69884,778.78995)"
       id="g3677">
      <path
         style="fill:#ffffff;fill-opacity:1;stroke:none;stroke-width:3.00000190999999990;stroke-miterlimit:4;stroke-dasharray:none;stroke-dashoffset:0;stroke-opacity:1"
         id="path3679"
         d="M -29.25412,300.56004 L -13.90872,347.3086 L 35.01151,347.2518 L -4.70702,376.29223 L 10.46422,422.80058 L -29.42857,394 L -68.972457,422.80057 L -53.90904,375.9604 L -93.519748,347.25179 L -44.31724,347.10355 L -29.25412,300.56008 L -29.25412,300.56004 z" />
      <g
         style="fill:#ffffff;stroke:none"
         id="g3681" />
    </g>
    <g
       style="fill:#ffffff;stroke:none"
       transform="matrix(0.1387685,0,0,0.1387685,444.88782,798.65223)"
       id="g3689">
      <path
         style="fill:#ffffff;fill-opacity:1;stroke:none;stroke-width:3.00000190999999990;stroke-miterlimit:4;stroke-dasharray:none;stroke-dashoffset:0;stroke-opacity:1"
         id="path3691"
         d="M -29.25412,300.56004 L -13.90872,347.3086 L 35.01151,347.2518 L -4.70702,376.29223 L 10.46422,422.80058 L -29.42857,394 L -68.972457,422.80057 L -53.90904,375.9604 L -93.519748,347.25179 L -44.31724,347.10355 L -29.25412,300.56008 L -29.25412,300.56004 z" />
      <g
         style="fill:#ffffff;stroke:none"
         id="g3693" />
    </g>
    <g
       style="fill:#ffffff;stroke:none"
       transform="matrix(0.1387685,0,0,0.1387685,463.87787,798.65223)"
       id="g3695">
      <path
         style="fill:#ffffff;fill-opacity:1;stroke:none;stroke-width:3.00000190999999990;stroke-miterlimit:4;stroke-dasharray:none;stroke-dashoffset:0;stroke-opacity:1"
         id="path3697"
         d="M -29.25412,300.56004 L -13.90872,347.3086 L 35.01151,347.2518 L -4.70702,376.29223 L 10.46422,422.80058 L -29.42857,394 L -68.972457,422.80057 L -53.90904,375.9604 L -93.519748,347.25179 L -44.31724,347.10355 L -29.25412,300.56008 L -29.25412,300.56004 z" />
      <g
         style="fill:#ffffff;stroke:none"
         id="g3699" />
    </g>
    <g
       id="g3701"
       transform="matrix(0.1387685,0,0,0.1387685,482.88782,798.65223)"
       style="fill:#ffffff;stroke:none">
      <path
         d="M -29.25412,300.56004 L -13.90872,347.3086 L 35.01151,347.2518 L -4.70702,376.29223 L 10.46422,422.80058 L -29.42857,394 L -68.972457,422.80057 L -53.90904,375.9604 L -93.519748,347.25179 L -44.31724,347.10355 L -29.25412,300.56008 L -29.25412,300.56004 z"
         id="path3703"
         style="fill:#ffffff;fill-opacity:1;stroke:none;stroke-width:3.00000190999999990;stroke-miterlimit:4;stroke-dasharray:none;stroke-dashoffset:0;stroke-opacity:1" />
      <g
         id="g3705"
         style="fill:#ffffff;stroke:none" />
    </g>
    <g
       style="fill:#ffffff;stroke:none"
       transform="matrix(0.1387685,0,0,0.1387685,368.68889,820.78995)"
       id="g3707">
      <path
         style="fill:#ffffff;fill-opacity:1;stroke:none;stroke-width:3.00000190999999990;stroke-miterlimit:4;stroke-dasharray:none;stroke-dashoffset:0;stroke-opacity:1"
         id="path3709"
         d="M -29.25412,300.56004 L -13.90872,347.3086 L 35.01151,347.2518 L -4.70702,376.29223 L 10.46422,422.80058 L -29.42857,394 L -68.972457,422.80057 L -53.90904,375.9604 L -93.519748,347.25179 L -44.31724,347.10355 L -29.25412,300.56008 L -29.25412,300.56004 z" />
      <g
         style="fill:#ffffff;stroke:none"
         id="g3711" />
    </g>
    <g
       id="g3713"
       transform="matrix(0.1387685,0,0,0.1387685,387.69884,820.78995)"
       style="fill:#ffffff;stroke:none">
      <path
         d="M -29.25412,300.56004 L -13.90872,347.3086 L 35.01151,347.2518 L -4.70702,376.29223 L 10.46422,422.80058 L -29.42857,394 L -68.972457,422.80057 L -53.90904,375.9604 L -93.519748,347.25179 L -44.31724,347.10355 L -29.25412,300.56008 L -29.25412,300.56004 z"
         id="path3715"
         style="fill:#ffffff;fill-opacity:1;stroke:none;stroke-width:3.00000190999999990;stroke-miterlimit:4;stroke-dasharray:none;stroke-dashoffset:0;stroke-opacity:1" />
      <g
         id="g3717"
         style="fill:#ffffff;stroke:none" />
    </g>
    <g
       id="g3719"
       transform="matrix(0.1387685,0,0,0.1387685,349.67894,820.78995)"
       style="fill:#ffffff;stroke:none">
      <path
         d="M -29.25412,300.56004 L -13.90872,347.3086 L 35.01151,347.2518 L -4.70702,376.29223 L 10.46422,422.80058 L -29.42857,394 L -68.972457,422.80057 L -53.90904,375.9604 L -93.519748,347.25179 L -44.31724,347.10355 L -29.25412,300.56008 L -29.25412,300.56004 z"
         id="path3721"
         style="fill:#ffffff;fill-opacity:1;stroke:none;stroke-width:3.00000190999999990;stroke-miterlimit:4;stroke-dasharray:none;stroke-dashoffset:0;stroke-opacity:1" />
      <g
         id="g3723"
         style="fill:#ffffff;stroke:none" />
    </g>
    <g
       style="fill:#ffffff;stroke:none"
       transform="matrix(0.1387685,0,0,0.1387685,406.68889,820.78995)"
       id="g3725">
      <path
         style="fill:#ffffff;fill-opacity:1;stroke:none;stroke-width:3.00000190999999990;stroke-miterlimit:4;stroke-dasharray:none;stroke-dashoffset:0;stroke-opacity:1"
         id="path3727"
         d="M -29.25412,300.56004 L -13.90872,347.3086 L 35.01151,347.2518 L -4.70702,376.29223 L 10.46422,422.80058 L -29.42857,394 L -68.972457,422.80057 L -53.90904,375.9604 L -93.519748,347.25179 L -44.31724,347.10355 L -29.25412,300.56008 L -29.25412,300.56004 z" />
      <g
         style="fill:#ffffff;stroke:none"
         id="g3729" />
    </g>
    <g
       style="fill:#ffffff;stroke:none"
       transform="matrix(0.1387685,0,0,0.1387685,330.68889,820.78995)"
       id="g3731">
      <path
         style="fill:#ffffff;fill-opacity:1;stroke:none;stroke-width:3.00000190999999990;stroke-miterlimit:4;stroke-dasharray:none;stroke-dashoffset:0;stroke-opacity:1"
         id="path3733"
         d="M -29.25412,300.56004 L -13.90872,347.3086 L 35.01151,347.2518 L -4.70702,376.29223 L 10.46422,422.80058 L -29.42857,394 L -68.972457,422.80057 L -53.90904,375.9604 L -93.519748,347.25179 L -44.31724,347.10355 L -29.25412,300.56008 L -29.25412,300.56004 z" />
      <g
         style="fill:#ffffff;stroke:none"
         id="g3735" />
    </g>
    <g
       id="g3737"
       transform="matrix(0.1387685,0,0,0.1387685,311.67894,820.78995)"
       style="fill:#ffffff;stroke:none">
      <path
         d="M -29.25412,300.56004 L -13.90872,347.3086 L 35.01151,347.2518 L -4.70702,376.29223 L 10.46422,422.80058 L -29.42857,394 L -68.972457,422.80057 L -53.90904,375.9604 L -93.519748,347.25179 L -44.31724,347.10355 L -29.25412,300.56008 L -29.25412,300.56004 z"
         id="path3739"
         style="fill:#ffffff;fill-opacity:1;stroke:none;stroke-width:3.00000190999999990;stroke-miterlimit:4;stroke-dasharray:none;stroke-dashoffset:0;stroke-opacity:1" />
      <g
         id="g3741"
         style="fill:#ffffff;stroke:none" />
    </g>
    <g
       id="g3743"
       transform="matrix(0.1387685,0,0,0.1387685,292.68889,820.78995)"
       style="fill:#ffffff;stroke:none">
      <path
         d="M -29.25412,300.56004 L -13.90872,347.3086 L 35.01151,347.2518 L -4.70702,376.29223 L 10.46422,422.80058 L -29.42857,394 L -68.972457,422.80057 L -53.90904,375.9604 L -93.519748,347.25179 L -44.31724,347.10355 L -29.25412,300.56008 L -29.25412,300.56004 z"
         id="path3745"
         style="fill:#ffffff;fill-opacity:1;stroke:none;stroke-width:3.00000190999999990;stroke-miterlimit:4;stroke-dasharray:none;stroke-dashoffset:0;stroke-opacity:1" />
      <g
         id="g3747"
         style="fill:#ffffff;stroke:none" />
    </g>
    <g
       style="fill:#ffffff;stroke:none"
       transform="matrix(0.1387685,0,0,0.1387685,273.67894,820.78995)"
       id="g3749">
      <path
         style="fill:#ffffff;fill-opacity:1;stroke:none;stroke-width:3.00000190999999990;stroke-miterlimit:4;stroke-dasharray:none;stroke-dashoffset:0;stroke-opacity:1"
         id="path3751"
         d="M -29.25412,300.56004 L -13.90872,347.3086 L 35.01151,347.2518 L -4.70702,376.29223 L 10.46422,422.80058 L -29.42857,394 L -68.972457,422.80057 L -53.90904,375.9604 L -93.519748,347.25179 L -44.31724,347.10355 L -29.25412,300.56008 L -29.25412,300.56004 z" />
      <g
         style="fill:#ffffff;stroke:none"
         id="g3753" />
    </g>
    <g
       id="g3755"
       transform="matrix(0.1387685,0,0,0.1387685,425.69884,820.78995)"
       style="fill:#ffffff;stroke:none">
      <path
         d="M -29.25412,300.56004 L -13.90872,347.3086 L 35.01151,347.2518 L -4.70702,376.29223 L 10.46422,422.80058 L -29.42857,394 L -68.972457,422.80057 L -53.90904,375.9604 L -93.519748,347.25179 L -44.31724,347.10355 L -29.25412,300.56008 L -29.25412,300.56004 z"
         id="path3757"
         style="fill:#ffffff;fill-opacity:1;stroke:none;stroke-width:3.00000190999999990;stroke-miterlimit:4;stroke-dasharray:none;stroke-dashoffset:0;stroke-opacity:1" />
      <g
         id="g3759"
         style="fill:#ffffff;stroke:none" />
    </g>
    <g
       id="g3761"
       transform="matrix(0.1387685,0,0,0.1387685,444.88782,820.65223)"
       style="fill:#ffffff;stroke:none">
      <path
         d="M -29.25412,300.56004 L -13.90872,347.3086 L 35.01151,347.2518 L -4.70702,376.29223 L 10.46422,422.80058 L -29.42857,394 L -68.972457,422.80057 L -53.90904,375.9604 L -93.519748,347.25179 L -44.31724,347.10355 L -29.25412,300.56008 L -29.25412,300.56004 z"
         id="path3763"
         style="fill:#ffffff;fill-opacity:1;stroke:none;stroke-width:3.00000190999999990;stroke-miterlimit:4;stroke-dasharray:none;stroke-dashoffset:0;stroke-opacity:1" />
      <g
         id="g3765"
         style="fill:#ffffff;stroke:none" />
    </g>
    <g
       id="g3767"
       transform="matrix(0.1387685,0,0,0.1387685,463.87787,820.65223)"
       style="fill:#ffffff;stroke:none">
      <path
         d="M -29.25412,300.56004 L -13.90872,347.3086 L 35.01151,347.2518 L -4.70702,376.29223 L 10.46422,422.80058 L -29.42857,394 L -68.972457,422.80057 L -53.90904,375.9604 L -93.519748,347.25179 L -44.31724,347.10355 L -29.25412,300.56008 L -29.25412,300.56004 z"
         id="path3769"
         style="fill:#ffffff;fill-opacity:1;stroke:none;stroke-width:3.00000190999999990;stroke-miterlimit:4;stroke-dasharray:none;stroke-dashoffset:0;stroke-opacity:1" />
      <g
         id="g3771"
         style="fill:#ffffff;stroke:none" />
    </g>
    <g
       style="fill:#ffffff;stroke:none"
       transform="matrix(0.1387685,0,0,0.1387685,482.88782,820.65223)"
       id="g3773">
      <path
         style="fill:#ffffff;fill-opacity:1;stroke:none;stroke-width:3.00000190999999990;stroke-miterlimit:4;stroke-dasharray:none;stroke-dashoffset:0;stroke-opacity:1"
         id="path3775"
         d="M -29.25412,300.56004 L -13.90872,347.3086 L 35.01151,347.2518 L -4.70702,376.29223 L 10.46422,422.80058 L -29.42857,394 L -68.972457,422.80057 L -53.90904,375.9604 L -93.519748,347.25179 L -44.31724,347.10355 L -29.25412,300.56008 L -29.25412,300.56004 z" />
      <g
         style="fill:#ffffff;stroke:none"
         id="g3777" />
    </g>
    <g
       id="g3785"
       transform="matrix(0.1387685,0,0,0.1387685,254.68889,820.78995)"
       style="fill:#ffffff;stroke:none">
      <path
         d="M -29.25412,300.56004 L -13.90872,347.3086 L 35.01151,347.2518 L -4.70702,376.29223 L 10.46422,422.80058 L -29.42857,394 L -68.972457,422.80057 L -53.90904,375.9604 L -93.519748,347.25179 L -44.31724,347.10355 L -29.25412,300.56008 L -29.25412,300.56004 z"
         id="path3787"
         style="fill:#ffffff;fill-opacity:1;stroke:none;stroke-width:3.00000190999999990;stroke-miterlimit:4;stroke-dasharray:none;stroke-dashoffset:0;stroke-opacity:1" />
      <g
         id="g3789"
         style="fill:#ffffff;stroke:none" />
    </g>
    <g
       id="g3797"
       transform="matrix(0.1387685,0,0,0.1387685,501.89777,820.65223)"
       style="fill:#ffffff;stroke:none">
      <path
         d="M -29.25412,300.56004 L -13.90872,347.3086 L 35.01151,347.2518 L -4.70702,376.29223 L 10.46422,422.80058 L -29.42857,394 L -68.972457,422.80057 L -53.90904,375.9604 L -93.519748,347.25179 L -44.31724,347.10355 L -29.25412,300.56008 L -29.25412,300.56004 z"
         id="path3799"
         style="fill:#ffffff;fill-opacity:1;stroke:none;stroke-width:3.00000190999999990;stroke-miterlimit:4;stroke-dasharray:none;stroke-dashoffset:0;stroke-opacity:1" />
      <g
         id="g3801"
         style="fill:#ffffff;stroke:none" />
    </g>
  </g>
</svg>
