<?xml version="1.0" encoding="UTF-8" standalone="no"?>
<!-- Created with Inkscape (http://www.inkscape.org/) -->

<svg
   width="750"
   height="500"
   id="svg2822"
   version="1.1"
   inkscape:version="1.1 (c68e22c387, 2021-05-23)"
   sodipodi:docname="Flag_of_Altamira_(Huila).svg"
   sodipodi:version="0.32"
   inkscape:output_extension="org.inkscape.output.svg.inkscape"
   xmlns:inkscape="http://www.inkscape.org/namespaces/inkscape"
   xmlns:sodipodi="http://sodipodi.sourceforge.net/DTD/sodipodi-0.dtd"
   xmlns="http://www.w3.org/2000/svg"
   xmlns:svg="http://www.w3.org/2000/svg"
   xmlns:rdf="http://www.w3.org/1999/02/22-rdf-syntax-ns#"
   xmlns:cc="http://creativecommons.org/ns#"
   xmlns:dc="http://purl.org/dc/elements/1.1/">
  <defs
     id="defs2824" />
  <sodipodi:namedview
     id="base"
     pagecolor="#ffffff"
     bordercolor="#666666"
     borderopacity="1.0"
     inkscape:pageopacity="0.0"
     inkscape:pageshadow="2"
     inkscape:zoom="0.507"
     inkscape:cx="373.76726"
     inkscape:cy="178.50099"
     inkscape:document-units="px"
     inkscape:current-layer="layer1"
     showgrid="false"
     inkscape:window-width="1366"
     inkscape:window-height="705"
     inkscape:window-x="-8"
     inkscape:window-y="-8"
     inkscape:window-maximized="1"
     inkscape:pagecheckerboard="0" />
  <metadata
     id="metadata2827">
    <rdf:RDF>
      <cc:Work
         rdf:about="">
        <dc:format>image/svg+xml</dc:format>
        <dc:type
           rdf:resource="http://purl.org/dc/dcmitype/StillImage" />
      </cc:Work>
    </rdf:RDF>
  </metadata>
  <g
     inkscape:label="Capa 1"
     inkscape:groupmode="layer"
     id="layer1"
     transform="translate(0,-552.36218)">
    <rect
       style="fill:#009775;fill-opacity:1;stroke:none;stroke-width:1.73205"
       id="rect2836"
       width="750"
       height="499.99939"
       x="0"
       y="-1052.3622"
       transform="scale(1,-1)"
       inkscape:export-filename="C:\Users\Jose Collazos\Downloads\rect2836.png"
       inkscape:export-xdpi="96"
       inkscape:export-ydpi="96" />
    <rect
       style="fill:#da291c;fill-opacity:1;stroke:none;stroke-width:1.41422"
       id="rect2834"
       width="750"
       height="333.33282"
       x="0"
       y="-1052.3622"
       transform="scale(1,-1)"
       inkscape:export-filename="C:\Users\Jose Collazos\Downloads\rect2836.png"
       inkscape:export-xdpi="96"
       inkscape:export-ydpi="96" />
    <rect
       style="fill:#f2cd00;fill-opacity:1;stroke:none"
       id="rect2832"
       width="750"
       height="166.666"
       x="0"
       y="-1052.3622"
       transform="scale(1,-1)"
       inkscape:export-filename="C:\Users\Jose Collazos\Downloads\rect2836.png"
       inkscape:export-xdpi="96"
       inkscape:export-ydpi="96" />
    <path
       sodipodi:type="star"
       style="fill:#8abadd;fill-opacity:1;stroke:none"
       id="path2995"
       sodipodi:sides="3"
       sodipodi:cx="340"
       sodipodi:cy="177"
       sodipodi:r1="88.684837"
       sodipodi:r2="44.342419"
       sodipodi:arg1="0.51914611"
       sodipodi:arg2="1.5663437"
       inkscape:flatsided="true"
       inkscape:rounded="0"
       inkscape:randomized="0"
       d="M 417,221 L 263.39488,221.68396 L 339.60512,88.316042 L 417,221 z"
       transform="matrix(1.776953,4.1436806e-3,-4.047549e-3,1.1303735,-228.78086,624.80149)"
       inkscape:transform-center-x="-0.17126576"
       inkscape:transform-center-y="-25.027735"
       inkscape:export-filename="C:\Users\Jose Collazos\Downloads\rect2836.png"
       inkscape:export-xdpi="96"
       inkscape:export-ydpi="96" />
    <g
       inkscape:groupmode="layer"
       inkscape:label="Calque 1"
       id="layer1-4"
       transform="matrix(1.960451,0,0,1.960451,194.63835,621.01125)">
      <g
         transform="matrix(0.754398,0,0,0.754398,-21.1595,-18.7689)"
         style="display:inline"
         id="g2129" />
    </g>
    <g
       transform="translate(149.19355,1493.6525)"
       id="g3326" />
    <g
       id="g3275"
       transform="matrix(0.2529057,0,0,0.2529057,381.96293,669.61339)"
       style="fill:#ffffff;stroke:none"
       inkscape:export-filename="C:\Users\Jose Collazos\Downloads\rect2836.png"
       inkscape:export-xdpi="96"
       inkscape:export-ydpi="96">
      <path
         d="M -29.25412,300.56004 L -13.90872,347.3086 L 35.01151,347.2518 L -4.70702,376.29223 L 10.46422,422.80058 L -29.42857,394 L -68.972457,422.80057 L -53.90904,375.9604 L -93.519748,347.25179 L -44.31724,347.10355 L -29.25412,300.56008 L -29.25412,300.56004 z"
         id="path8347"
         style="fill:#ffffff;fill-opacity:1;stroke:none;stroke-width:3.00000191;stroke-miterlimit:4;stroke-dasharray:none;stroke-dashoffset:0;stroke-opacity:1" />
      <g
         id="layer4"
         style="fill:#ffffff;stroke:none" />
    </g>
    <g
       id="g2555"
       transform="matrix(0.2529057,0,0,0.2529057,301.17117,759.91106)"
       style="fill:#ffffff;stroke:none"
       inkscape:export-filename="C:\Users\Jose Collazos\Downloads\rect2836.png"
       inkscape:export-xdpi="96"
       inkscape:export-ydpi="96">
      <path
         d="M -29.25412,300.56004 L -13.90872,347.3086 L 35.01151,347.2518 L -4.70702,376.29223 L 10.46422,422.80058 L -29.42857,394 L -68.972457,422.80057 L -53.90904,375.9604 L -93.519748,347.25179 L -44.31724,347.10355 L -29.25412,300.56008 L -29.25412,300.56004 z"
         id="path2557"
         style="fill:#ffffff;fill-opacity:1;stroke:none;stroke-width:3.00000191;stroke-miterlimit:4;stroke-dasharray:none;stroke-dashoffset:0;stroke-opacity:1" />
      <g
         id="g2559"
         style="fill:#ffffff;stroke:none" />
    </g>
    <g
       style="fill:#ffffff;stroke:none"
       transform="matrix(0.2529057,0,0,0.2529057,463.17117,759.91106)"
       id="g2561"
       inkscape:export-filename="C:\Users\Jose Collazos\Downloads\rect2836.png"
       inkscape:export-xdpi="96"
       inkscape:export-ydpi="96">
      <path
         style="fill:#ffffff;fill-opacity:1;stroke:none;stroke-width:3.00000191;stroke-miterlimit:4;stroke-dasharray:none;stroke-dashoffset:0;stroke-opacity:1"
         id="path2563"
         d="M -29.25412,300.56004 L -13.90872,347.3086 L 35.01151,347.2518 L -4.70702,376.29223 L 10.46422,422.80058 L -29.42857,394 L -68.972457,422.80057 L -53.90904,375.9604 L -93.519748,347.25179 L -44.31724,347.10355 L -29.25412,300.56008 L -29.25412,300.56004 z" />
      <g
         style="fill:#ffffff;stroke:none"
         id="g2565" />
    </g>
    <g
       id="g2567"
       transform="matrix(0.2529057,0,0,0.2529057,356.12423,700.64027)"
       style="fill:#ffffff;stroke:none"
       inkscape:export-filename="C:\Users\Jose Collazos\Downloads\rect2836.png"
       inkscape:export-xdpi="96"
       inkscape:export-ydpi="96">
      <path
         d="M -29.25412,300.56004 L -13.90872,347.3086 L 35.01151,347.2518 L -4.70702,376.29223 L 10.46422,422.80058 L -29.42857,394 L -68.972457,422.80057 L -53.90904,375.9604 L -93.519748,347.25179 L -44.31724,347.10355 L -29.25412,300.56008 L -29.25412,300.56004 z"
         id="path2569"
         style="fill:#ffffff;fill-opacity:1;stroke:none;stroke-width:3.00000191;stroke-miterlimit:4;stroke-dasharray:none;stroke-dashoffset:0;stroke-opacity:1" />
      <g
         id="g2571"
         style="fill:#ffffff;stroke:none" />
    </g>
    <g
       style="fill:#ffffff;stroke:none"
       transform="matrix(0.2529057,0,0,0.2529057,407.96423,700.64027)"
       id="g2573"
       inkscape:export-filename="C:\Users\Jose Collazos\Downloads\rect2836.png"
       inkscape:export-xdpi="96"
       inkscape:export-ydpi="96">
      <path
         style="fill:#ffffff;fill-opacity:1;stroke:none;stroke-width:3.00000191;stroke-miterlimit:4;stroke-dasharray:none;stroke-dashoffset:0;stroke-opacity:1"
         id="path2575"
         d="M -29.25412,300.56004 L -13.90872,347.3086 L 35.01151,347.2518 L -4.70702,376.29223 L 10.46422,422.80058 L -29.42857,394 L -68.972457,422.80057 L -53.90904,375.9604 L -93.519748,347.25179 L -44.31724,347.10355 L -29.25412,300.56008 L -29.25412,300.56004 z" />
      <g
         style="fill:#ffffff;stroke:none"
         id="g2577" />
    </g>
    <g
       id="g2579"
       transform="matrix(0.2529057,0,0,0.2529057,327.45658,733.21958)"
       style="fill:#ffffff;stroke:none"
       inkscape:export-filename="C:\Users\Jose Collazos\Downloads\rect2836.png"
       inkscape:export-xdpi="96"
       inkscape:export-ydpi="96">
      <path
         d="M -29.25412,300.56004 L -13.90872,347.3086 L 35.01151,347.2518 L -4.70702,376.29223 L 10.46422,422.80058 L -29.42857,394 L -68.972457,422.80057 L -53.90904,375.9604 L -93.519748,347.25179 L -44.31724,347.10355 L -29.25412,300.56008 L -29.25412,300.56004 z"
         id="path2581"
         style="fill:#ffffff;fill-opacity:1;stroke:none;stroke-width:3.00000191;stroke-miterlimit:4;stroke-dasharray:none;stroke-dashoffset:0;stroke-opacity:1" />
      <g
         id="g2583"
         style="fill:#ffffff;stroke:none" />
    </g>
    <g
       style="fill:#ffffff;stroke:none"
       transform="matrix(0.2529057,0,0,0.2529057,379.29658,733.21958)"
       id="g2585"
       inkscape:export-filename="C:\Users\Jose Collazos\Downloads\rect2836.png"
       inkscape:export-xdpi="96"
       inkscape:export-ydpi="96">
      <path
         style="fill:#ffffff;fill-opacity:1;stroke:none;stroke-width:3.00000191;stroke-miterlimit:4;stroke-dasharray:none;stroke-dashoffset:0;stroke-opacity:1"
         id="path2587"
         d="M -29.25412,300.56004 L -13.90872,347.3086 L 35.01151,347.2518 L -4.70702,376.29223 L 10.46422,422.80058 L -29.42857,394 L -68.972457,422.80057 L -53.90904,375.9604 L -93.519748,347.25179 L -44.31724,347.10355 L -29.25412,300.56008 L -29.25412,300.56004 z" />
      <g
         style="fill:#ffffff;stroke:none"
         id="g2589" />
    </g>
    <g
       id="g2591"
       transform="matrix(0.2529057,0,0,0.2529057,432.75658,733.21958)"
       style="fill:#ffffff;stroke:none"
       inkscape:export-filename="C:\Users\Jose Collazos\Downloads\rect2836.png"
       inkscape:export-xdpi="96"
       inkscape:export-ydpi="96">
      <path
         d="M -29.25412,300.56004 L -13.90872,347.3086 L 35.01151,347.2518 L -4.70702,376.29223 L 10.46422,422.80058 L -29.42857,394 L -68.972457,422.80057 L -53.90904,375.9604 L -93.519748,347.25179 L -44.31724,347.10355 L -29.25412,300.56008 L -29.25412,300.56004 z"
         id="path2593"
         style="fill:#ffffff;fill-opacity:1;stroke:none;stroke-width:3.00000191;stroke-miterlimit:4;stroke-dasharray:none;stroke-dashoffset:0;stroke-opacity:1" />
      <g
         id="g2595"
         style="fill:#ffffff;stroke:none" />
    </g>
    <g
       style="fill:#ffffff;stroke:none"
       transform="matrix(0.2529057,0,0,0.2529057,356.12423,762.20027)"
       id="g2597"
       inkscape:export-filename="C:\Users\Jose Collazos\Downloads\rect2836.png"
       inkscape:export-xdpi="96"
       inkscape:export-ydpi="96">
      <path
         style="fill:#ffffff;fill-opacity:1;stroke:none;stroke-width:3.00000191;stroke-miterlimit:4;stroke-dasharray:none;stroke-dashoffset:0;stroke-opacity:1"
         id="path2599"
         d="M -29.25412,300.56004 L -13.90872,347.3086 L 35.01151,347.2518 L -4.70702,376.29223 L 10.46422,422.80058 L -29.42857,394 L -68.972457,422.80057 L -53.90904,375.9604 L -93.519748,347.25179 L -44.31724,347.10355 L -29.25412,300.56008 L -29.25412,300.56004 z" />
      <g
         style="fill:#ffffff;stroke:none"
         id="g2601" />
    </g>
    <g
       id="g2603"
       transform="matrix(0.2529057,0,0,0.2529057,407.96423,762.20027)"
       style="fill:#ffffff;stroke:none"
       inkscape:export-filename="C:\Users\Jose Collazos\Downloads\rect2836.png"
       inkscape:export-xdpi="96"
       inkscape:export-ydpi="96">
      <path
         d="M -29.25412,300.56004 L -13.90872,347.3086 L 35.01151,347.2518 L -4.70702,376.29223 L 10.46422,422.80058 L -29.42857,394 L -68.972457,422.80057 L -53.90904,375.9604 L -93.519748,347.25179 L -44.31724,347.10355 L -29.25412,300.56008 L -29.25412,300.56004 z"
         id="path2605"
         style="fill:#ffffff;fill-opacity:1;stroke:none;stroke-width:3.00000191;stroke-miterlimit:4;stroke-dasharray:none;stroke-dashoffset:0;stroke-opacity:1" />
      <g
         id="g2607"
         style="fill:#ffffff;stroke:none" />
    </g>
  </g>
</svg>
