<?xml version="1.0" encoding="UTF-8" standalone="no"?>
<!-- Created with Inkscape (http://www.inkscape.org/) -->
<svg
   xmlns:dc="http://purl.org/dc/elements/1.1/"
   xmlns:cc="http://creativecommons.org/ns#"
   xmlns:rdf="http://www.w3.org/1999/02/22-rdf-syntax-ns#"
   xmlns:svg="http://www.w3.org/2000/svg"
   xmlns="http://www.w3.org/2000/svg"
   xmlns:sodipodi="http://sodipodi.sourceforge.net/DTD/sodipodi-0.dtd"
   xmlns:inkscape="http://www.inkscape.org/namespaces/inkscape"
   width="900"
   height="500"
   id="svg2882"
   version="1.0"
   inkscape:version="0.46"
   sodipodi:docname="Flag_of_Arboleda_(Nariño).svg"
   sodipodi:version="0.32"
   inkscape:output_extension="org.inkscape.output.svg.inkscape">
  <defs
     id="defs2884" />
  <sodipodi:namedview
     id="base"
     pagecolor="#ffffff"
     bordercolor="#666666"
     borderopacity="1.0"
     inkscape:pageopacity="0.0"
     inkscape:pageshadow="2"
     inkscape:zoom="1.014"
     inkscape:cx="450"
     inkscape:cy="250"
     inkscape:document-units="px"
     inkscape:current-layer="layer1"
     showgrid="false"
     inkscape:window-width="1024"
     inkscape:window-height="712"
     inkscape:window-x="-4"
     inkscape:window-y="-4"
     inkscape:window-maximized="1" />
  <metadata
     id="metadata2887">
    <rdf:RDF>
      <cc:Work
         rdf:about="">
        <dc:format>image/svg+xml</dc:format>
        <dc:type
           rdf:resource="http://purl.org/dc/dcmitype/StillImage" />
        <dc:title />
      </cc:Work>
    </rdf:RDF>
  </metadata>
  <g
     inkscape:label="Capa 1"
     inkscape:groupmode="layer"
     id="layer1"
     transform="translate(0,-552.36218)">
    <rect
       style="fill:#da121a;fill-opacity:1;stroke:none"
       id="rect2894"
       width="900.88757"
       height="249.73051"
       x="0"
       y="552.90112"
       rx="1.0668652e-15"
       ry="1.3308359e-15" />
    <rect
       style="fill:#07892f;fill-opacity:1;stroke:none"
       id="rect2896"
       width="900.88757"
       height="249.73051"
       x="0"
       y="802.63165"
       rx="1.0668652e-15"
       ry="1.3308359e-15" />
    <path
       style="fill:#ffffff;fill-opacity:1;stroke:#fcdd09;stroke-width:1px;stroke-linecap:butt;stroke-linejoin:miter;stroke-opacity:1"
       d="M 0,0 L 290,250.00954 L 0,500"
       id="path2898"
       transform="translate(0,552.36218)"
       sodipodi:nodetypes="ccc" />
    <path
       sodipodi:type="arc"
       style="opacity:1;fill:#fcdd09;fill-opacity:1;stroke:none;stroke-width:0.40000001;stroke-linejoin:round;stroke-miterlimit:4;stroke-dasharray:none;stroke-dashoffset:0;stroke-opacity:1"
       id="path2383"
       sodipodi:cx="213.51085"
       sodipodi:cy="247.04143"
       sodipodi:rx="122.78107"
       sodipodi:ry="122.78107"
       d="M 336.29192,247.04143 A 122.78107,122.78107 0 1 1 90.729782,247.04143 A 122.78107,122.78107 0 1 1 336.29192,247.04143 z"
       transform="translate(49.696253,554.33457)" />
    <rect
       style="opacity:1;fill:#000000;fill-opacity:1;stroke:none;stroke-width:0.40000001;stroke-linejoin:round;stroke-miterlimit:4;stroke-dasharray:none;stroke-dashoffset:0;stroke-opacity:1"
       id="rect3168"
       width="21.813738"
       height="81.934525"
       x="225.06508"
       y="764.1286"
       rx="2.0942784e-15"
       ry="3.1380413e-15" />
    <rect
       style="opacity:1;fill:#000000;fill-opacity:1;stroke:none;stroke-width:0.40000001;stroke-linejoin:round;stroke-miterlimit:4;stroke-dasharray:none;stroke-dashoffset:0;stroke-opacity:1"
       id="rect3170"
       width="27.666204"
       height="13.301062"
       x="251.13515"
       y="832.76215"
       rx="2.0942784e-15"
       ry="3.1380413e-15" />
    <path
       sodipodi:type="arc"
       style="opacity:1;fill:#000000;fill-opacity:1;stroke:none;stroke-width:0.40000001;stroke-linejoin:round;stroke-miterlimit:4;stroke-dasharray:none;stroke-dashoffset:0;stroke-opacity:1"
       id="path3172"
       sodipodi:cx="242.33511"
       sodipodi:cy="235.55237"
       sodipodi:rx="8.1229649"
       sodipodi:ry="8.1229649"
       d="M 250.45808,235.55237 A 8.1229649,8.1229649 0 1 1 234.21215,235.55237 A 8.1229649,8.1229649 0 1 1 250.45808,235.55237 z"
       transform="matrix(2.3579477,0,0,2.3579477,-339.43194,185.29859)" />
    <path
       id="path3174"
       style="fill:#000000;fill-rule:evenodd;stroke:none;stroke-width:1px;stroke-linecap:butt;stroke-linejoin:miter;stroke-opacity:1"
       d="M 240.22825,849.25539 L 240.49429,883.30612 L 206.9756,883.83817 L 206.9756,867.07886 L 230.65149,861.49238 L 230.73022,849.29475 L 240.22825,849.25539 z M 213.77411,878.25647 L 230.38548,877.80313 L 230.38548,868.40893 L 213.84806,871.86721 L 213.77411,878.25647 z"
       sodipodi:nodetypes="cccccccccccc" />
    <rect
       ry="3.1380413e-15"
       rx="2.0942784e-15"
       transform="scale(-1,-1)"
       y="-841.27478"
       x="-303.15488"
       height="81.934525"
       width="21.813738"
       id="rect3179"
       style="opacity:1;fill:#000000;fill-opacity:1;stroke:none;stroke-width:0.40000001;stroke-linejoin:round;stroke-miterlimit:4;stroke-dasharray:none;stroke-dashoffset:0;stroke-opacity:1" />
    <rect
       ry="3.1380413e-15"
       rx="2.0942784e-15"
       transform="scale(-1,-1)"
       y="-772.64142"
       x="-277.08484"
       height="13.301062"
       width="27.666204"
       id="rect3181"
       style="opacity:1;fill:#000000;fill-opacity:1;stroke:none;stroke-width:0.40000001;stroke-linejoin:round;stroke-miterlimit:4;stroke-dasharray:none;stroke-dashoffset:0;stroke-opacity:1" />
    <path
       transform="matrix(-2.3579477,0,0,-2.3579477,867.65195,1420.1049)"
       d="M 250.45808,235.55237 A 8.1229649,8.1229649 0 1 1 234.21215,235.55237 A 8.1229649,8.1229649 0 1 1 250.45808,235.55237 z"
       sodipodi:ry="8.1229649"
       sodipodi:rx="8.1229649"
       sodipodi:cy="235.55237"
       sodipodi:cx="242.33511"
       id="path3183"
       style="opacity:1;fill:#000000;fill-opacity:1;stroke:none;stroke-width:0.40000001;stroke-linejoin:round;stroke-miterlimit:4;stroke-dasharray:none;stroke-dashoffset:0;stroke-opacity:1"
       sodipodi:type="arc" />
    <path
       sodipodi:nodetypes="cccccccccccc"
       d="M 287.99176,756.14801 L 287.72572,722.09727 L 321.24441,721.56523 L 321.24441,738.32455 L 297.56852,743.91101 L 297.48979,756.10863 L 287.99176,756.14801 z M 314.4459,727.14693 L 297.83453,727.60027 L 297.83453,736.99447 L 314.37195,733.53619 L 314.4459,727.14693 z"
       style="fill:#000000;fill-rule:evenodd;stroke:none;stroke-width:1px;stroke-linecap:butt;stroke-linejoin:miter;stroke-opacity:1"
       id="path3185" />
  </g>
</svg>
