<?xml version="1.0" encoding="UTF-8" standalone="no"?>
<!-- Created with Inkscape (http://www.inkscape.org/) -->
<svg
   xmlns:dc="http://purl.org/dc/elements/1.1/"
   xmlns:cc="http://creativecommons.org/ns#"
   xmlns:rdf="http://www.w3.org/1999/02/22-rdf-syntax-ns#"
   xmlns:svg="http://www.w3.org/2000/svg"
   xmlns="http://www.w3.org/2000/svg"
   xmlns:sodipodi="http://sodipodi.sourceforge.net/DTD/sodipodi-0.dtd"
   xmlns:inkscape="http://www.inkscape.org/namespaces/inkscape"
   width="900"
   height="500"
   id="svg2820"
   version="1.0"
   inkscape:version="0.46"
   sodipodi:docname="Flag_of_Ariguaní_(Magdalena).svg"
   sodipodi:version="0.32"
   inkscape:output_extension="org.inkscape.output.svg.inkscape">
  <defs
     id="defs2822" />
  <sodipodi:namedview
     id="base"
     pagecolor="#ffffff"
     bordercolor="#666666"
     borderopacity="1.0"
     inkscape:pageopacity="0.0"
     inkscape:pageshadow="2"
     inkscape:zoom="1.014"
     inkscape:cx="450"
     inkscape:cy="250"
     inkscape:document-units="px"
     inkscape:current-layer="layer1"
     showgrid="false"
     inkscape:window-width="1024"
     inkscape:window-height="712"
     inkscape:window-x="-4"
     inkscape:window-y="-4"
     inkscape:window-maximized="1" />
  <metadata
     id="metadata2825">
    <rdf:RDF>
      <cc:Work
         rdf:about="">
        <dc:format>image/svg+xml</dc:format>
        <dc:type
           rdf:resource="http://purl.org/dc/dcmitype/StillImage" />
        <dc:title />
      </cc:Work>
    </rdf:RDF>
  </metadata>
  <g
     inkscape:label="Capa 1"
     inkscape:groupmode="layer"
     id="layer1"
     transform="translate(0,-552.36218)">
    <rect
       style="fill:#ffffff;fill-opacity:1;stroke:none"
       id="rect2832"
       width="900.59479"
       height="250.1479"
       x="0"
       y="552.36218" />
    <rect
       style="fill:#078930;fill-opacity:1;stroke:none"
       id="rect2834"
       width="900.59479"
       height="124.92505"
       x="0"
       y="-927.43707"
       transform="scale(1,-1)" />
    <rect
       style="fill:#da121a;fill-opacity:1;stroke:none"
       id="rect2836"
       width="900.59479"
       height="124.92505"
       x="0"
       y="-1052.3622"
       transform="scale(1,-1)" />
    <path
       style="fill:#fcdd09;stroke:none;stroke-width:1px;stroke-linecap:butt;stroke-linejoin:miter;stroke-opacity:1;fill-opacity:1"
       d="M 0,0 L 374.99586,249.9996 L 0,500"
       id="path2838"
       transform="translate(0,552.36218)" />
    <path
       sodipodi:type="star"
       style="fill:#ffffff;fill-opacity:1;stroke:none"
       id="path3100"
       sodipodi:sides="5"
       sodipodi:cx="34.374901"
       sodipodi:cy="49.852501"
       sodipodi:r1="60.896198"
       sodipodi:r2="22.836075"
       sodipodi:arg1="2.2035452"
       sodipodi:arg2="2.8318637"
       inkscape:flatsided="false"
       inkscape:rounded="3.469447e-18"
       inkscape:randomized="0"
       d="M -1.6369,98.959498 L 12.625453,56.812948 L -23.456887,30.77814 L 21.034173,31.318443 L 34.644691,-11.0431 L 47.879326,31.437376 L 92.373428,31.291311 L 56.061822,57.005386 L 69.950172,99.276655 L 34.27373,72.688352 L -1.6369,98.959498 z"
       transform="matrix(0.6474989,0,0,0.679842,16.688308,590.86974)" />
    <path
       sodipodi:type="star"
       style="fill:#ffffff;fill-opacity:1;stroke:none"
       id="path3100-1"
       sodipodi:sides="5"
       sodipodi:cx="34.374901"
       sodipodi:cy="49.852501"
       sodipodi:r1="60.896198"
       sodipodi:r2="22.836075"
       sodipodi:arg1="2.2035452"
       sodipodi:arg2="2.8318637"
       inkscape:flatsided="false"
       inkscape:rounded="3.469447e-18"
       inkscape:randomized="0"
       d="M -1.6369,98.959498 L 12.625453,56.812948 L -23.456887,30.77814 L 21.034173,31.318443 L 34.644691,-11.0431 L 47.879326,31.437376 L 92.373428,31.291311 L 56.061822,57.005386 L 69.950172,99.276655 L 34.27373,72.688352 L -1.6369,98.959498 z"
       transform="matrix(0.6474989,0,0,0.679842,119.21592,869.86974)" />
    <path
       sodipodi:type="star"
       style="fill:#ffffff;fill-opacity:1;stroke:none"
       id="path3100-8"
       sodipodi:sides="5"
       sodipodi:cx="34.374901"
       sodipodi:cy="49.852501"
       sodipodi:r1="60.896198"
       sodipodi:r2="22.836075"
       sodipodi:arg1="2.2035452"
       sodipodi:arg2="2.8318637"
       inkscape:flatsided="false"
       inkscape:rounded="3.469447e-18"
       inkscape:randomized="0"
       d="M -1.6369,98.959498 L 12.625453,56.812948 L -23.456887,30.77814 L 21.034173,31.318443 L 34.644691,-11.0431 L 47.879326,31.437376 L 92.373428,31.291311 L 56.061822,57.005386 L 69.950172,99.276655 L 34.27373,72.688352 L -1.6369,98.959498 z"
       transform="matrix(0.6474989,0,0,0.679842,16.688308,938.86974)" />
    <path
       sodipodi:type="star"
       style="fill:#ffffff;fill-opacity:1;stroke:none"
       id="path3100-52"
       sodipodi:sides="5"
       sodipodi:cx="34.374901"
       sodipodi:cy="49.852501"
       sodipodi:r1="60.896198"
       sodipodi:r2="22.836075"
       sodipodi:arg1="2.2035452"
       sodipodi:arg2="2.8318637"
       inkscape:flatsided="false"
       inkscape:rounded="3.469447e-18"
       inkscape:randomized="0"
       d="M -1.6369,98.959498 L 12.625453,56.812948 L -23.456887,30.77814 L 21.034173,31.318443 L 34.644691,-11.0431 L 47.879326,31.437376 L 92.373428,31.291311 L 56.061822,57.005386 L 69.950172,99.276655 L 34.27373,72.688352 L -1.6369,98.959498 z"
       transform="matrix(0.6474989,0,0,0.679842,115.27115,656.96638)" />
    <path
       sodipodi:type="star"
       style="fill:#ffffff;fill-opacity:1;stroke:none"
       id="path3179"
       sodipodi:sides="5"
       sodipodi:cx="34.374901"
       sodipodi:cy="49.852501"
       sodipodi:r1="60.896198"
       sodipodi:r2="22.836075"
       sodipodi:arg1="2.2035452"
       sodipodi:arg2="2.8318637"
       inkscape:flatsided="false"
       inkscape:rounded="3.469447e-18"
       inkscape:randomized="0"
       d="M -1.6369,98.959498 L 12.625453,56.812948 L -23.456887,30.77814 L 21.034173,31.318443 L 34.644691,-11.0431 L 47.879326,31.437376 L 92.373428,31.291311 L 56.061822,57.005386 L 69.950172,99.276655 L 34.27373,72.688352 L -1.6369,98.959498 z"
       transform="matrix(0.6474989,0,0,0.679842,214.35645,810.35494)" />
    <path
       sodipodi:type="star"
       style="fill:#ffffff;fill-opacity:1;stroke:none"
       id="path3185"
       sodipodi:sides="5"
       sodipodi:cx="34.374901"
       sodipodi:cy="49.852501"
       sodipodi:r1="60.896198"
       sodipodi:r2="22.836075"
       sodipodi:arg1="2.2035452"
       sodipodi:arg2="2.8318637"
       inkscape:flatsided="false"
       inkscape:rounded="3.469447e-18"
       inkscape:randomized="0"
       d="M -1.6369,98.959498 L 12.625453,56.812948 L -23.456887,30.77814 L 21.034173,31.318443 L 34.644691,-11.0431 L 47.879326,31.437376 L 92.373428,31.291311 L 56.061822,57.005386 L 69.950172,99.276655 L 34.27373,72.688352 L -1.6369,98.959498 z"
       transform="matrix(0.6474989,0,0,0.679842,214.35646,723.07092)" />
  </g>
</svg>
