<?xml version="1.0" encoding="UTF-8" standalone="no"?>
<svg
   xmlns:dc="http://purl.org/dc/elements/1.1/"
   xmlns:cc="http://creativecommons.org/ns#"
   xmlns:rdf="http://www.w3.org/1999/02/22-rdf-syntax-ns#"
   xmlns:svg="http://www.w3.org/2000/svg"
   xmlns="http://www.w3.org/2000/svg"
   xmlns:sodipodi="http://sodipodi.sourceforge.net/DTD/sodipodi-0.dtd"
   xmlns:inkscape="http://www.inkscape.org/namespaces/inkscape"
   width="1000"
   height="500"
   viewBox="0 0 346 173"
   version="1.0"
   id="svg2"
   sodipodi:version="0.32"
   inkscape:version="0.46"
   sodipodi:docname="Flag_of_Barranca_de_Upia,_Meta.svg"
   inkscape:output_extension="org.inkscape.output.svg.inkscape">
  <metadata
     id="metadata23">
    <rdf:RDF>
      <cc:Work
         rdf:about="">
        <dc:format>image/svg+xml</dc:format>
        <dc:type
           rdf:resource="http://purl.org/dc/dcmitype/StillImage" />
      </cc:Work>
    </rdf:RDF>
  </metadata>
  <sodipodi:namedview
     inkscape:window-height="712"
     inkscape:window-width="1024"
     inkscape:pageshadow="2"
     inkscape:pageopacity="0.0"
     guidetolerance="10.0"
     gridtolerance="10.0"
     objecttolerance="10.0"
     borderopacity="1.0"
     bordercolor="#666666"
     pagecolor="#ffffff"
     id="base"
     showgrid="false"
     inkscape:zoom="0.928"
     inkscape:cx="500"
     inkscape:cy="250"
     inkscape:window-x="-4"
     inkscape:window-y="-4"
     inkscape:current-layer="svg2" />
  <defs
     id="defs4">
    <clipPath
       id="clip0">
      <rect
         width="346"
         height="173"
         id="rect7"
         x="0"
         y="0" />
    </clipPath>
  </defs>
  <g
     id="surface0"
     clip-path="url(#clip0)">
    <path
       style="opacity:1;fill:none;stroke:#ffff00;stroke-width:0.1;stroke-linecap:butt;stroke-linejoin:miter;stroke-miterlimit:10"
       d="M 0,0 L 1.453247,0 C 6.628891,2.944336 11.627686,6.184143 16.756714,9.206787 C 51.670853,28.766571 86.033112,49.289108 120.81494,69.079422 C 130.80852,74.531601 140.61116,80.33139 150.34203,86.238525 C 139.47612,94.112 127.39163,100.06329 115.79861,106.75626 C 77.759735,129.03317 39.300934,150.59134 1.343948,173 L 0,173 L 0,0 z"
       id="path10" />
    <path
       style="opacity:1;fill:#fcdd09;fill-rule:nonzero;stroke:none;fill-opacity:1"
       d="M 0,1.2878587e-14 L 1.453247,1.2878587e-14 L 150.34203,86.238525 L 1.343948,173 L 0,173 L 0,1.2878587e-14 z"
       id="path12"
       sodipodi:nodetypes="cccccc" />
    <path
       style="opacity:1;fill:none;stroke:#ffffff;stroke-width:0.1;stroke-linecap:butt;stroke-linejoin:miter;stroke-miterlimit:10"
       d="M 1.453247,0 L 346,0 L 346,86 C 280.7805,86.164261 215.55736,85.672638 150.34203,86.238525 C 140.61116,80.33139 130.80852,74.531601 120.81494,69.079422 C 86.033112,49.289108 51.670853,28.766571 16.756714,9.206787 C 11.627686,6.184143 6.628891,2.944336 1.453247,0 z"
       id="path14" />
    <path
       style="opacity:1;fill:#ffffff;fill-rule:nonzero;stroke:none"
       d="M 1.453247,0 L 346,0 L 346,86 C 280.7805,86.164261 215.55736,85.672638 150.34203,86.238525 C 140.61116,80.33139 130.80852,74.531601 120.81494,69.079422 C 86.033112,49.289108 51.670853,28.766571 16.756714,9.206787 C 11.627686,6.184143 6.628891,2.944336 1.453247,0 z"
       id="path16" />
    <path
       style="opacity:1;fill:none;stroke:#00ff00;stroke-width:0.1;stroke-linecap:butt;stroke-linejoin:miter;stroke-miterlimit:10"
       d="M 150.34203,86.238525 C 215.55736,85.672638 280.7805,86.164261 346,86 L 346,173 L 1.343948,173 C 39.300934,150.59134 77.759735,129.03317 115.79861,106.75626 C 127.39163,100.06329 139.47612,94.112 150.34203,86.238525 z"
       id="path18" />
    <path
       style="opacity:1;fill:#07a530;fill-rule:nonzero;stroke:none;fill-opacity:1"
       d="M 150.34203,86.238525 L 346,86 L 346,173 L 1.343948,173 L 150.34203,86.238525 z"
       id="path20"
       sodipodi:nodetypes="ccccc" />
  </g>
</svg>
