<?xml version="1.0" encoding="UTF-8" standalone="no"?>
<svg
   xmlns:dc="http://purl.org/dc/elements/1.1/"
   xmlns:cc="http://creativecommons.org/ns#"
   xmlns:rdf="http://www.w3.org/1999/02/22-rdf-syntax-ns#"
   xmlns:svg="http://www.w3.org/2000/svg"
   xmlns="http://www.w3.org/2000/svg"
   xmlns:sodipodi="http://sodipodi.sourceforge.net/DTD/sodipodi-0.dtd"
   xmlns:inkscape="http://www.inkscape.org/namespaces/inkscape"
   width="750"
   height="500"
   id="svg2"
   sodipodi:version="0.32"
   inkscape:version="0.46"
   sodipodi:docname="Flag_of_Bituima_(Cundinamarca).svg"
   inkscape:output_extension="org.inkscape.output.svg.inkscape">
  <defs
     id="defs13" />
  <sodipodi:namedview
     inkscape:window-height="712"
     inkscape:window-width="1024"
     inkscape:pageshadow="2"
     inkscape:pageopacity="0.0"
     guidetolerance="10.0"
     gridtolerance="10.0"
     objecttolerance="10.0"
     borderopacity="1.0"
     bordercolor="#666666"
     pagecolor="#ffffff"
     id="base"
     showgrid="false"
     inkscape:zoom="1.014"
     inkscape:cx="375"
     inkscape:cy="250"
     inkscape:window-x="-4"
     inkscape:window-y="-4"
     inkscape:current-layer="svg2" />
  <metadata
     id="metadata4">
    <rdf:RDF>
      <cc:Work
         rdf:about="">
        <dc:format>image/svg+xml</dc:format>
        <dc:type
           rdf:resource="http://purl.org/dc/dcmitype/StillImage" />
      </cc:Work>
    </rdf:RDF>
  </metadata>
  <rect
     style="fill:#078930"
     width="750"
     height="500"
     id="rect6"
     x="0"
     y="-500"
     transform="scale(1,-1)" />
  <rect
     style="fill:#fcdd09"
     width="375"
     height="500"
     id="rect8"
     x="0"
     y="-500"
     transform="scale(1,-1)" />
  <path
     style="fill:#ffffff"
     d="M 0,500 L 375,0 L 750,500 L 0,500 z"
     id="path10" />
  <path
     sodipodi:type="star"
     style="opacity:1;fill:#da121a;fill-opacity:1;stroke:none;stroke-width:1;stroke-linejoin:round;stroke-miterlimit:4;stroke-dasharray:none;stroke-dashoffset:0;stroke-opacity:1"
     id="path2388"
     sodipodi:sides="6"
     sodipodi:cx="318.47427"
     sodipodi:cy="200.82721"
     sodipodi:r1="122.17439"
     sodipodi:r2="68.946129"
     sodipodi:arg1="0.85727413"
     sodipodi:arg2="1.3915692"
     inkscape:flatsided="false"
     inkscape:rounded="0"
     inkscape:randomized="0"
     d="M 398.43751,293.19854 L 330.76524,268.66894 L 278.45998,316.26307 L 265.86709,245.39237 L 198.49674,223.89174 L 253.57613,177.55063 L 238.51103,108.45588 L 306.18331,132.98548 L 358.48857,85.391347 L 371.08146,156.26205 L 438.45181,177.76268 L 383.37242,224.10379 L 398.43751,293.19854 z"
     transform="matrix(0.6201536,-0.2141886,0.2141886,0.6201536,133.18324,106.03553)" />
  <path
     transform="matrix(0.6201536,-0.2141886,0.2141886,0.6201536,133.18324,106.03553)"
     style="fill:#0f47af;fill-opacity:1;stroke:none;stroke-width:1;stroke-linejoin:round;stroke-miterlimit:4;stroke-dashoffset:0;stroke-opacity:1"
     d="M 398.43751,293.19854 L 330.76524,268.66894 L 278.45998,316.26307 L 265.86709,245.39237 L 198.49674,223.89174 L 253.57613,177.55063 L 383.37242,224.10379 L 398.43751,293.19854 z"
     id="path3160"
     sodipodi:nodetypes="cccccccc" />
  <path
     style="fill:none;fill-rule:evenodd;stroke:#fcdd09;stroke-width:5;stroke-linecap:butt;stroke-linejoin:miter;stroke-opacity:1;stroke-miterlimit:4;stroke-dasharray:none"
     d="M 188.36292,246.54832 C 313.96036,304.79978 436.85912,309.23629 557.19921,246.54832"
     id="path3177"
     sodipodi:nodetypes="cc" />
  <path
     style="fill:none;fill-rule:evenodd;stroke:#fcdd09;stroke-width:5;stroke-linecap:butt;stroke-linejoin:miter;stroke-opacity:1;stroke-miterlimit:4;stroke-dasharray:none"
     d="M 211.98064,256.90412 L 103.15762,412.78879"
     id="path3229"
     sodipodi:nodetypes="cc" />
  <path
     style="fill:none;fill-rule:evenodd;stroke:#fcdd09;stroke-width:5;stroke-linecap:butt;stroke-linejoin:miter;stroke-opacity:1;stroke-miterlimit:4;stroke-dasharray:none"
     d="M 232.83686,265.14986 L 137.28721,420.7617"
     id="path3231"
     sodipodi:nodetypes="cc" />
  <path
     sodipodi:nodetypes="cc"
     style="fill:none;fill-rule:evenodd;stroke:#fcdd09;stroke-width:5;stroke-linecap:butt;stroke-linejoin:miter;stroke-opacity:1;stroke-miterlimit:4;stroke-dasharray:none"
     d="M 254.34018,272.48058 L 170.44518,428.36848"
     id="path3233" />
  <path
     style="fill:none;fill-rule:evenodd;stroke:#fcdd09;stroke-width:5;stroke-linecap:butt;stroke-linejoin:miter;stroke-opacity:1;stroke-miterlimit:4;stroke-dasharray:none"
     d="M 276.53562,278.61374 L 205.24822,434.78103"
     id="path3235"
     sodipodi:nodetypes="cc" />
  <path
     style="fill:none;fill-rule:evenodd;stroke:#fcdd09;stroke-width:5;stroke-linecap:butt;stroke-linejoin:miter;stroke-opacity:1;stroke-miterlimit:4;stroke-dasharray:none"
     d="M 300.14452,283.28297 L 238.85443,440.30598"
     id="path3237"
     sodipodi:nodetypes="cc" />
  <path
     style="fill:none;fill-rule:evenodd;stroke:#fcdd09;stroke-width:5;stroke-linecap:butt;stroke-linejoin:miter;stroke-opacity:1;stroke-miterlimit:4;stroke-dasharray:none"
     d="M 321.57406,287.31712 L 275.07528,442.456"
     id="path3239"
     sodipodi:nodetypes="cc" />
  <path
     style="fill:none;fill-rule:evenodd;stroke:#fcdd09;stroke-width:5;stroke-linecap:butt;stroke-linejoin:miter;stroke-opacity:1;stroke-miterlimit:4;stroke-dasharray:none"
     d="M 342.63932,290.32234 L 310.86296,448.19188"
     id="path3241"
     sodipodi:nodetypes="cc" />
  <path
     style="fill:none;fill-rule:evenodd;stroke:#fcdd09;stroke-width:5;stroke-linecap:butt;stroke-linejoin:miter;stroke-opacity:1;stroke-miterlimit:4;stroke-dasharray:none"
     d="M 363.35329,291.71635 L 347.63185,448.21339"
     id="path3243"
     sodipodi:nodetypes="cc" />
  <path
     sodipodi:type="star"
     style="opacity:1;fill:#fcdd09;fill-opacity:1;stroke:none;stroke-width:1;stroke-linejoin:round;stroke-miterlimit:4;stroke-dasharray:none;stroke-dashoffset:0;stroke-opacity:1"
     id="path3245"
     sodipodi:sides="6"
     sodipodi:cx="318.47427"
     sodipodi:cy="200.82721"
     sodipodi:r1="122.17439"
     sodipodi:r2="68.946129"
     sodipodi:arg1="0.85727413"
     sodipodi:arg2="1.3915692"
     inkscape:flatsided="false"
     inkscape:rounded="0"
     inkscape:randomized="0"
     d="M 398.43751,293.19854 L 330.76524,268.66894 L 278.45998,316.26307 L 265.86709,245.39237 L 198.49674,223.89174 L 253.57613,177.55063 L 238.51103,108.45588 L 306.18331,132.98548 L 358.48857,85.391347 L 371.08146,156.26205 L 438.45181,177.76268 L 383.37242,224.10379 L 398.43751,293.19854 z"
     transform="matrix(0.1149156,-3.9689563e-2,3.9689563e-2,0.1149156,57.57903,401.7907)" />
  <path
     sodipodi:type="star"
     style="opacity:1;fill:#fcdd09;fill-opacity:1;stroke:none;stroke-width:1;stroke-linejoin:round;stroke-miterlimit:4;stroke-dasharray:none;stroke-dashoffset:0;stroke-opacity:1"
     id="path3247"
     sodipodi:sides="6"
     sodipodi:cx="318.47427"
     sodipodi:cy="200.82721"
     sodipodi:r1="122.17439"
     sodipodi:r2="68.946129"
     sodipodi:arg1="0.85727413"
     sodipodi:arg2="1.3915692"
     inkscape:flatsided="false"
     inkscape:rounded="0"
     inkscape:randomized="0"
     d="M 398.43751,293.19854 L 330.76524,268.66894 L 278.45998,316.26307 L 265.86709,245.39237 L 198.49674,223.89174 L 253.57613,177.55063 L 238.51103,108.45588 L 306.18331,132.98548 L 358.48857,85.391347 L 371.08146,156.26205 L 438.45181,177.76268 L 383.37242,224.10379 L 398.43751,293.19854 z"
     transform="matrix(0.1149156,-3.9689563e-2,3.9689563e-2,0.1149156,93.230051,410.55333)" />
  <path
     sodipodi:type="star"
     style="opacity:1;fill:#fcdd09;fill-opacity:1;stroke:none;stroke-width:1;stroke-linejoin:round;stroke-miterlimit:4;stroke-dasharray:none;stroke-dashoffset:0;stroke-opacity:1"
     id="path3249"
     sodipodi:sides="6"
     sodipodi:cx="318.47427"
     sodipodi:cy="200.82721"
     sodipodi:r1="122.17439"
     sodipodi:r2="68.946129"
     sodipodi:arg1="0.85727413"
     sodipodi:arg2="1.3915692"
     inkscape:flatsided="false"
     inkscape:rounded="0"
     inkscape:randomized="0"
     d="M 398.43751,293.19854 L 330.76524,268.66894 L 278.45998,316.26307 L 265.86709,245.39237 L 198.49674,223.89174 L 253.57613,177.55063 L 238.51103,108.45588 L 306.18331,132.98548 L 358.48857,85.391347 L 371.08146,156.26205 L 438.45181,177.76268 L 383.37242,224.10379 L 398.43751,293.19854 z"
     transform="matrix(0.1149156,-3.9689563e-2,3.9689563e-2,0.1149156,126.5132,417.08554)" />
  <path
     sodipodi:type="star"
     style="opacity:1;fill:#fcdd09;fill-opacity:1;stroke:none;stroke-width:1;stroke-linejoin:round;stroke-miterlimit:4;stroke-dasharray:none;stroke-dashoffset:0;stroke-opacity:1"
     id="path3251"
     sodipodi:sides="6"
     sodipodi:cx="318.47427"
     sodipodi:cy="200.82721"
     sodipodi:r1="122.17439"
     sodipodi:r2="68.946129"
     sodipodi:arg1="0.85727413"
     sodipodi:arg2="1.3915692"
     inkscape:flatsided="false"
     inkscape:rounded="0"
     inkscape:randomized="0"
     d="M 398.43751,293.19854 L 330.76524,268.66894 L 278.45998,316.26307 L 265.86709,245.39237 L 198.49674,223.89174 L 253.57613,177.55063 L 238.51103,108.45588 L 306.18331,132.98548 L 358.48857,85.391347 L 371.08146,156.26205 L 438.45181,177.76268 L 383.37242,224.10379 L 398.43751,293.19854 z"
     transform="matrix(0.1149156,-3.9689563e-2,3.9689563e-2,0.1149156,161.35164,423.30668)" />
  <path
     sodipodi:type="star"
     style="opacity:1;fill:#fcdd09;fill-opacity:1;stroke:none;stroke-width:1;stroke-linejoin:round;stroke-miterlimit:4;stroke-dasharray:none;stroke-dashoffset:0;stroke-opacity:1"
     id="path3253"
     sodipodi:sides="6"
     sodipodi:cx="318.47427"
     sodipodi:cy="200.82721"
     sodipodi:r1="122.17439"
     sodipodi:r2="68.946129"
     sodipodi:arg1="0.85727413"
     sodipodi:arg2="1.3915692"
     inkscape:flatsided="false"
     inkscape:rounded="0"
     inkscape:randomized="0"
     d="M 398.43751,293.19854 L 330.76524,268.66894 L 278.45998,316.26307 L 265.86709,245.39237 L 198.49674,223.89174 L 253.57613,177.55063 L 238.51103,108.45588 L 306.18331,132.98548 L 358.48857,85.391347 L 371.08146,156.26205 L 438.45181,177.76268 L 383.37242,224.10379 L 398.43751,293.19854 z"
     transform="matrix(0.1149156,-3.9689563e-2,3.9689563e-2,0.1149156,195.56796,429.21678)" />
  <path
     sodipodi:type="star"
     style="opacity:1;fill:#fcdd09;fill-opacity:1;stroke:none;stroke-width:1;stroke-linejoin:round;stroke-miterlimit:4;stroke-dasharray:none;stroke-dashoffset:0;stroke-opacity:1"
     id="path3255"
     sodipodi:sides="6"
     sodipodi:cx="318.47427"
     sodipodi:cy="200.82721"
     sodipodi:r1="122.17439"
     sodipodi:r2="68.946129"
     sodipodi:arg1="0.85727413"
     sodipodi:arg2="1.3915692"
     inkscape:flatsided="false"
     inkscape:rounded="0"
     inkscape:randomized="0"
     d="M 398.43751,293.19854 L 330.76524,268.66894 L 278.45998,316.26307 L 265.86709,245.39237 L 198.49674,223.89174 L 253.57613,177.55063 L 238.51103,108.45588 L 306.18331,132.98548 L 358.48857,85.391347 L 371.08146,156.26205 L 438.45181,177.76268 L 383.37242,224.10379 L 398.43751,293.19854 z"
     transform="matrix(0.1149156,-3.9689563e-2,3.9689563e-2,0.1149156,230.4064,432.32736)" />
  <path
     sodipodi:type="star"
     style="opacity:1;fill:#fcdd09;fill-opacity:1;stroke:none;stroke-width:1;stroke-linejoin:round;stroke-miterlimit:4;stroke-dasharray:none;stroke-dashoffset:0;stroke-opacity:1"
     id="path3257"
     sodipodi:sides="6"
     sodipodi:cx="318.47427"
     sodipodi:cy="200.82721"
     sodipodi:r1="122.17439"
     sodipodi:r2="68.946129"
     sodipodi:arg1="0.85727413"
     sodipodi:arg2="1.3915692"
     inkscape:flatsided="false"
     inkscape:rounded="0"
     inkscape:randomized="0"
     d="M 398.43751,293.19854 L 330.76524,268.66894 L 278.45998,316.26307 L 265.86709,245.39237 L 198.49674,223.89174 L 253.57613,177.55063 L 238.51103,108.45588 L 306.18331,132.98548 L 358.48857,85.391347 L 371.08146,156.26205 L 438.45181,177.76268 L 383.37242,224.10379 L 398.43751,293.19854 z"
     transform="matrix(0.1149156,-3.9689563e-2,3.9689563e-2,0.1149156,265.55588,436.99321)" />
  <path
     sodipodi:type="star"
     style="opacity:1;fill:#fcdd09;fill-opacity:1;stroke:none;stroke-width:1;stroke-linejoin:round;stroke-miterlimit:4;stroke-dasharray:none;stroke-dashoffset:0;stroke-opacity:1"
     id="path3259"
     sodipodi:sides="6"
     sodipodi:cx="318.47427"
     sodipodi:cy="200.82721"
     sodipodi:r1="122.17439"
     sodipodi:r2="68.946129"
     sodipodi:arg1="0.85727413"
     sodipodi:arg2="1.3915692"
     inkscape:flatsided="false"
     inkscape:rounded="0"
     inkscape:randomized="0"
     d="M 398.43751,293.19854 L 330.76524,268.66894 L 278.45998,316.26307 L 265.86709,245.39237 L 198.49674,223.89174 L 253.57613,177.55063 L 238.51103,108.45588 L 306.18331,132.98548 L 358.48857,85.391347 L 371.08146,156.26205 L 438.45181,177.76268 L 383.37242,224.10379 L 398.43751,293.19854 z"
     transform="matrix(0.1149156,-3.9689563e-2,3.9689563e-2,0.1149156,302.57173,437.30428)" />
  <path
     sodipodi:nodetypes="cc"
     id="path3279"
     d="M 536.99414,256.90412 L 645.81716,412.78879"
     style="fill:none;fill-rule:evenodd;stroke:#fcdd09;stroke-width:5;stroke-linecap:butt;stroke-linejoin:miter;stroke-miterlimit:4;stroke-dasharray:none;stroke-opacity:1" />
  <path
     sodipodi:nodetypes="cc"
     id="path3281"
     d="M 516.13792,265.14986 L 611.68757,420.7617"
     style="fill:none;fill-rule:evenodd;stroke:#fcdd09;stroke-width:5;stroke-linecap:butt;stroke-linejoin:miter;stroke-miterlimit:4;stroke-dasharray:none;stroke-opacity:1" />
  <path
     id="path3283"
     d="M 494.6346,272.48058 L 578.5296,428.36848"
     style="fill:none;fill-rule:evenodd;stroke:#fcdd09;stroke-width:5;stroke-linecap:butt;stroke-linejoin:miter;stroke-miterlimit:4;stroke-dasharray:none;stroke-opacity:1"
     sodipodi:nodetypes="cc" />
  <path
     sodipodi:nodetypes="cc"
     id="path3285"
     d="M 472.43916,278.61374 L 543.72656,434.78103"
     style="fill:none;fill-rule:evenodd;stroke:#fcdd09;stroke-width:5;stroke-linecap:butt;stroke-linejoin:miter;stroke-miterlimit:4;stroke-dasharray:none;stroke-opacity:1" />
  <path
     sodipodi:nodetypes="cc"
     id="path3287"
     d="M 448.83026,283.28297 L 510.12035,440.30598"
     style="fill:none;fill-rule:evenodd;stroke:#fcdd09;stroke-width:5;stroke-linecap:butt;stroke-linejoin:miter;stroke-miterlimit:4;stroke-dasharray:none;stroke-opacity:1" />
  <path
     sodipodi:nodetypes="cc"
     id="path3289"
     d="M 427.40072,287.31712 L 473.8995,442.456"
     style="fill:none;fill-rule:evenodd;stroke:#fcdd09;stroke-width:5;stroke-linecap:butt;stroke-linejoin:miter;stroke-miterlimit:4;stroke-dasharray:none;stroke-opacity:1" />
  <path
     sodipodi:nodetypes="cc"
     id="path3291"
     d="M 406.33546,290.32234 L 438.11182,448.19188"
     style="fill:none;fill-rule:evenodd;stroke:#fcdd09;stroke-width:5;stroke-linecap:butt;stroke-linejoin:miter;stroke-miterlimit:4;stroke-dasharray:none;stroke-opacity:1" />
  <path
     sodipodi:nodetypes="cc"
     id="path3293"
     d="M 385.62149,291.71635 L 401.34293,448.21339"
     style="fill:none;fill-rule:evenodd;stroke:#fcdd09;stroke-width:5;stroke-linecap:butt;stroke-linejoin:miter;stroke-miterlimit:4;stroke-dasharray:none;stroke-opacity:1" />
  <path
     transform="matrix(-0.1149156,-3.9689563e-2,-3.9689563e-2,0.1149156,691.39575,401.7907)"
     d="M 398.43751,293.19854 L 330.76524,268.66894 L 278.45998,316.26307 L 265.86709,245.39237 L 198.49674,223.89174 L 253.57613,177.55063 L 238.51103,108.45588 L 306.18331,132.98548 L 358.48857,85.391347 L 371.08146,156.26205 L 438.45181,177.76268 L 383.37242,224.10379 L 398.43751,293.19854 z"
     inkscape:randomized="0"
     inkscape:rounded="0"
     inkscape:flatsided="false"
     sodipodi:arg2="1.3915692"
     sodipodi:arg1="0.85727413"
     sodipodi:r2="68.946129"
     sodipodi:r1="122.17439"
     sodipodi:cy="200.82721"
     sodipodi:cx="318.47427"
     sodipodi:sides="6"
     id="path3295"
     style="opacity:1;fill:#fcdd09;fill-opacity:1;stroke:none;stroke-width:1;stroke-linejoin:round;stroke-miterlimit:4;stroke-dasharray:none;stroke-dashoffset:0;stroke-opacity:1"
     sodipodi:type="star" />
  <path
     transform="matrix(-0.1149156,-3.9689563e-2,-3.9689563e-2,0.1149156,655.74473,410.55333)"
     d="M 398.43751,293.19854 L 330.76524,268.66894 L 278.45998,316.26307 L 265.86709,245.39237 L 198.49674,223.89174 L 253.57613,177.55063 L 238.51103,108.45588 L 306.18331,132.98548 L 358.48857,85.391347 L 371.08146,156.26205 L 438.45181,177.76268 L 383.37242,224.10379 L 398.43751,293.19854 z"
     inkscape:randomized="0"
     inkscape:rounded="0"
     inkscape:flatsided="false"
     sodipodi:arg2="1.3915692"
     sodipodi:arg1="0.85727413"
     sodipodi:r2="68.946129"
     sodipodi:r1="122.17439"
     sodipodi:cy="200.82721"
     sodipodi:cx="318.47427"
     sodipodi:sides="6"
     id="path3297"
     style="opacity:1;fill:#fcdd09;fill-opacity:1;stroke:none;stroke-width:1;stroke-linejoin:round;stroke-miterlimit:4;stroke-dasharray:none;stroke-dashoffset:0;stroke-opacity:1"
     sodipodi:type="star" />
  <path
     transform="matrix(-0.1149156,-3.9689563e-2,-3.9689563e-2,0.1149156,622.46158,417.08554)"
     d="M 398.43751,293.19854 L 330.76524,268.66894 L 278.45998,316.26307 L 265.86709,245.39237 L 198.49674,223.89174 L 253.57613,177.55063 L 238.51103,108.45588 L 306.18331,132.98548 L 358.48857,85.391347 L 371.08146,156.26205 L 438.45181,177.76268 L 383.37242,224.10379 L 398.43751,293.19854 z"
     inkscape:randomized="0"
     inkscape:rounded="0"
     inkscape:flatsided="false"
     sodipodi:arg2="1.3915692"
     sodipodi:arg1="0.85727413"
     sodipodi:r2="68.946129"
     sodipodi:r1="122.17439"
     sodipodi:cy="200.82721"
     sodipodi:cx="318.47427"
     sodipodi:sides="6"
     id="path3299"
     style="opacity:1;fill:#fcdd09;fill-opacity:1;stroke:none;stroke-width:1;stroke-linejoin:round;stroke-miterlimit:4;stroke-dasharray:none;stroke-dashoffset:0;stroke-opacity:1"
     sodipodi:type="star" />
  <path
     transform="matrix(-0.1149156,-3.9689563e-2,-3.9689563e-2,0.1149156,587.62314,423.30668)"
     d="M 398.43751,293.19854 L 330.76524,268.66894 L 278.45998,316.26307 L 265.86709,245.39237 L 198.49674,223.89174 L 253.57613,177.55063 L 238.51103,108.45588 L 306.18331,132.98548 L 358.48857,85.391347 L 371.08146,156.26205 L 438.45181,177.76268 L 383.37242,224.10379 L 398.43751,293.19854 z"
     inkscape:randomized="0"
     inkscape:rounded="0"
     inkscape:flatsided="false"
     sodipodi:arg2="1.3915692"
     sodipodi:arg1="0.85727413"
     sodipodi:r2="68.946129"
     sodipodi:r1="122.17439"
     sodipodi:cy="200.82721"
     sodipodi:cx="318.47427"
     sodipodi:sides="6"
     id="path3301"
     style="opacity:1;fill:#fcdd09;fill-opacity:1;stroke:none;stroke-width:1;stroke-linejoin:round;stroke-miterlimit:4;stroke-dasharray:none;stroke-dashoffset:0;stroke-opacity:1"
     sodipodi:type="star" />
  <path
     transform="matrix(-0.1149156,-3.9689563e-2,-3.9689563e-2,0.1149156,553.40682,429.21678)"
     d="M 398.43751,293.19854 L 330.76524,268.66894 L 278.45998,316.26307 L 265.86709,245.39237 L 198.49674,223.89174 L 253.57613,177.55063 L 238.51103,108.45588 L 306.18331,132.98548 L 358.48857,85.391347 L 371.08146,156.26205 L 438.45181,177.76268 L 383.37242,224.10379 L 398.43751,293.19854 z"
     inkscape:randomized="0"
     inkscape:rounded="0"
     inkscape:flatsided="false"
     sodipodi:arg2="1.3915692"
     sodipodi:arg1="0.85727413"
     sodipodi:r2="68.946129"
     sodipodi:r1="122.17439"
     sodipodi:cy="200.82721"
     sodipodi:cx="318.47427"
     sodipodi:sides="6"
     id="path3303"
     style="opacity:1;fill:#fcdd09;fill-opacity:1;stroke:none;stroke-width:1;stroke-linejoin:round;stroke-miterlimit:4;stroke-dasharray:none;stroke-dashoffset:0;stroke-opacity:1"
     sodipodi:type="star" />
  <path
     transform="matrix(-0.1149156,-3.9689563e-2,-3.9689563e-2,0.1149156,518.56838,432.32736)"
     d="M 398.43751,293.19854 L 330.76524,268.66894 L 278.45998,316.26307 L 265.86709,245.39237 L 198.49674,223.89174 L 253.57613,177.55063 L 238.51103,108.45588 L 306.18331,132.98548 L 358.48857,85.391347 L 371.08146,156.26205 L 438.45181,177.76268 L 383.37242,224.10379 L 398.43751,293.19854 z"
     inkscape:randomized="0"
     inkscape:rounded="0"
     inkscape:flatsided="false"
     sodipodi:arg2="1.3915692"
     sodipodi:arg1="0.85727413"
     sodipodi:r2="68.946129"
     sodipodi:r1="122.17439"
     sodipodi:cy="200.82721"
     sodipodi:cx="318.47427"
     sodipodi:sides="6"
     id="path3305"
     style="opacity:1;fill:#fcdd09;fill-opacity:1;stroke:none;stroke-width:1;stroke-linejoin:round;stroke-miterlimit:4;stroke-dasharray:none;stroke-dashoffset:0;stroke-opacity:1"
     sodipodi:type="star" />
  <path
     transform="matrix(-0.1149156,-3.9689563e-2,-3.9689563e-2,0.1149156,483.4189,436.99321)"
     d="M 398.43751,293.19854 L 330.76524,268.66894 L 278.45998,316.26307 L 265.86709,245.39237 L 198.49674,223.89174 L 253.57613,177.55063 L 238.51103,108.45588 L 306.18331,132.98548 L 358.48857,85.391347 L 371.08146,156.26205 L 438.45181,177.76268 L 383.37242,224.10379 L 398.43751,293.19854 z"
     inkscape:randomized="0"
     inkscape:rounded="0"
     inkscape:flatsided="false"
     sodipodi:arg2="1.3915692"
     sodipodi:arg1="0.85727413"
     sodipodi:r2="68.946129"
     sodipodi:r1="122.17439"
     sodipodi:cy="200.82721"
     sodipodi:cx="318.47427"
     sodipodi:sides="6"
     id="path3307"
     style="opacity:1;fill:#fcdd09;fill-opacity:1;stroke:none;stroke-width:1;stroke-linejoin:round;stroke-miterlimit:4;stroke-dasharray:none;stroke-dashoffset:0;stroke-opacity:1"
     sodipodi:type="star" />
  <path
     transform="matrix(-0.1149156,-3.9689563e-2,-3.9689563e-2,0.1149156,446.40305,437.30428)"
     d="M 398.43751,293.19854 L 330.76524,268.66894 L 278.45998,316.26307 L 265.86709,245.39237 L 198.49674,223.89174 L 253.57613,177.55063 L 238.51103,108.45588 L 306.18331,132.98548 L 358.48857,85.391347 L 371.08146,156.26205 L 438.45181,177.76268 L 383.37242,224.10379 L 398.43751,293.19854 z"
     inkscape:randomized="0"
     inkscape:rounded="0"
     inkscape:flatsided="false"
     sodipodi:arg2="1.3915692"
     sodipodi:arg1="0.85727413"
     sodipodi:r2="68.946129"
     sodipodi:r1="122.17439"
     sodipodi:cy="200.82721"
     sodipodi:cx="318.47427"
     sodipodi:sides="6"
     id="path3309"
     style="opacity:1;fill:#fcdd09;fill-opacity:1;stroke:none;stroke-width:1;stroke-linejoin:round;stroke-miterlimit:4;stroke-dasharray:none;stroke-dashoffset:0;stroke-opacity:1"
     sodipodi:type="star" />
</svg>
