<?xml version="1.0" encoding="UTF-8" standalone="no"?>
<svg xmlns="http://www.w3.org/2000/svg" width="750" height="500" version="1.0">
  <path fill="#1147af" d="M667.89688 0 0 445.64275V0h667.89688z"/>
  <path fill="#fff" d="M749.91931 0v54.728057L304.65472 349.21713c-5.98177-.83435-9.71965 4.13457-11.71749 7.81829-72.83885 48.55161-143.64177 95.04439-213.844178 143.33539H0v-54.72806L667.89688 0h82.02243z"/>
  <path d="M749.91931 54.728057V500.37081H79.093052L749.91931 54.728057z"/>
  <path fill="#fcdd09" d="m390.58949603 274.59030306-15.82725083-12.27398352-15.81608756 12.28987704 6.21275612-19.61766473-16.0054639-12.01585211 19.66694578.14960054 5.92416712-19.71608296 5.9420854 19.71012397 19.66680064-.1693569-15.99453647 12.0319242 6.2305837 19.61141447zm45.04394-30.63889-15.82725083-12.27398352-15.81608756 12.28987704 6.21275612-19.61766473-16.0054639-12.01585211 19.66694578.14960054 5.92416712-19.71608296 5.9420854 19.71012397 19.66680064-.1693569-15.99453647 12.0319242 6.2305837 19.61141447zm45.04394-32.154546-15.82725083-12.27398352-15.81608756 12.28987704 6.21275612-19.61766473-16.0054639-12.01585211 19.66694578.14960054 5.92416712-19.71608296 5.9420854 19.71012397 19.66680064-.1693569-15.99453647 12.0319242 6.2305837 19.61141447zm45.04394-28.63889-15.82725083-12.27398352-15.81608756 12.28987704 6.21275612-19.61766473-16.0054639-12.01585211 19.66694578.14960054 5.92416712-19.71608296 5.9420854 19.71012397 19.66680064-.1693569-15.99453647 12.0319242 6.2305837 19.61141447zm45.04394-30.154546-15.82725083-12.27398352-15.81608756 12.28987704 6.21275612-19.61766473-16.0054639-12.01585211 19.66694578.14960054 5.92416712-19.71608296 5.9420854 19.71012397 19.66680064-.1693569-15.99453647 12.0319242 6.2305837 19.61141447zm45.52829-29.123237-15.82725083-12.27398352-15.81608756 12.28987704 6.21275612-19.61766473-16.0054639-12.01585211 19.66694578.14960054 5.92416712-19.71608296 5.9420854 19.71012397 19.66680064-.1693569-15.99453647 12.0319242 6.2305837 19.61141447zm45.04394-30.15454L645.5102352 81.45167054l-15.81608756 12.28987704 6.21275612-19.61766473-16.0054639-12.01585211 19.66694578.14960054 5.92416712-19.71608296 5.9420854 19.71012397 19.66680064-.1693569-15.99453647 12.0319242 6.2305837 19.61141447zm-541.434709 362.30572-15.82725083-12.27398352-15.81608756 12.28987704 6.21275612-19.61766473-16.0054639-12.01585211 19.66694578.14960054 5.92416712-19.71608296 5.9420854 19.71012397 19.66680064-.1693569-15.99453647 12.0319242 6.2305837 19.61141447zm45.04394-30.63889-15.82725083-12.27398352-15.81608756 12.28987704 6.21275612-19.61766473-16.0054639-12.01585211 19.66694578.14960054 5.92416712-19.71608296 5.9420854 19.71012397 19.66680064-.1693569-15.99453647 12.0319242 6.2305837 19.61141447zm45.043939-32.15455-15.82725083-12.27398352-15.81608756 12.28987704 6.21275612-19.61766473-16.0054639-12.01585211 19.66694578.14960054 5.92416712-19.71608296 5.9420854 19.71012397 19.66680064-.1693569-15.99453647 12.0319242 6.2305837 19.61141447zm45.04394-28.63889-15.82725083-12.27398352-15.81608756 12.28987704 6.21275612-19.61766473-16.0054639-12.01585211 19.66694578.14960054 5.92416712-19.71608296 5.9420854 19.71012397 19.66680064-.1693569-15.99453647 12.0319242 6.2305837 19.61141447zm45.04394-30.15455-15.82725083-12.27398352-15.81608756 12.28987704 6.21275612-19.61766473-16.0054639-12.01585211 19.66694578.14960054 5.92416712-19.71608296 5.9420854 19.71012397 19.66680064-.1693569-15.99453647 12.0319242 6.2305837 19.61141447zm45.52829-29.123234-15.82725083-12.27398352-15.81608756 12.28987704 6.21275612-19.61766473-16.0054639-12.01585211 19.66694578.14960054 5.92416712-19.71608296 5.9420854 19.71012397 19.66680064-.1693569-15.99453647 12.0319242 6.2305837 19.61141447z"/>
</svg>