<?xml version="1.0" encoding="UTF-8" standalone="no"?>
<!-- Created with Inkscape (http://www.inkscape.org/) -->
<svg
   xmlns:dc="http://purl.org/dc/elements/1.1/"
   xmlns:cc="http://creativecommons.org/ns#"
   xmlns:rdf="http://www.w3.org/1999/02/22-rdf-syntax-ns#"
   xmlns:svg="http://www.w3.org/2000/svg"
   xmlns="http://www.w3.org/2000/svg"
   xmlns:sodipodi="http://sodipodi.sourceforge.net/DTD/sodipodi-0.dtd"
   xmlns:inkscape="http://www.inkscape.org/namespaces/inkscape"
   width="750"
   height="500"
   id="svg2"
   version="1.1"
   inkscape:version="0.46"
   sodipodi:docname="Flag_of_Montelíbano_(Córdoba).svg"
   sodipodi:version="0.32"
   inkscape:output_extension="org.inkscape.output.svg.inkscape">
  <defs
     id="defs4" />
  <sodipodi:namedview
     id="base"
     pagecolor="#ffffff"
     bordercolor="#666666"
     borderopacity="1.0"
     inkscape:pageopacity="0.0"
     inkscape:pageshadow="2"
     inkscape:zoom="1.014"
     inkscape:cx="375"
     inkscape:cy="250"
     inkscape:document-units="px"
     inkscape:current-layer="layer1"
     showgrid="false"
     inkscape:window-width="1024"
     inkscape:window-height="712"
     inkscape:window-x="-4"
     inkscape:window-y="-4"
     inkscape:window-maximized="1" />
  <metadata
     id="metadata7">
    <rdf:RDF>
      <cc:Work
         rdf:about="">
        <dc:format>image/svg+xml</dc:format>
        <dc:type
           rdf:resource="http://purl.org/dc/dcmitype/StillImage" />
        <dc:title />
      </cc:Work>
    </rdf:RDF>
  </metadata>
  <g
     inkscape:label="Capa 1"
     inkscape:groupmode="layer"
     id="layer1"
     transform="translate(0,-552.36218)">
    <rect
       style="fill:#078930;fill-opacity:1;stroke:none"
       id="rect2890"
       width="750"
       height="250"
       x="0"
       y="-1052.3622"
       transform="scale(1,-1)" />
    <rect
       style="fill:#ffffff;fill-opacity:1;stroke:none"
       id="rect2892"
       width="750"
       height="250"
       x="0"
       y="-802.36218"
       transform="scale(1,-1)" />
    <g
       transform="matrix(1.2166529,0,0,1.2166529,54.550511,309.47944)"
       style="stroke:#000000;stroke-width:0.57534898;stroke-miterlimit:4;stroke-dasharray:none;stroke-opacity:1;display:inline"
       inkscape:label="Muebles"
       id="layer5">
      <g
         transform="translate(-25.10455,-19.94805)"
         id="g26399"
         style="stroke:#000000;stroke-width:0.57534898;stroke-miterlimit:4;stroke-dasharray:none;stroke-opacity:1">
        <g
           transform="matrix(0.8110806,-1.930099e-2,0.2224092,0.9229661,276.51534,477.22684)"
           id="g16132"
           style="fill:#e3e4e5;stroke:#000000;stroke-width:0.66307832;stroke-linecap:round;stroke-linejoin:round;stroke-miterlimit:4;stroke-dasharray:none;stroke-opacity:1">
          <g
             id="g16134"
             transform="matrix(0.2782127,6.7424829e-4,6.7424829e-4,0.2766642,188.50404,-246.10263)"
             style="fill:#e3e4e5;stroke:#000000;stroke-width:2.39001788;stroke-linecap:round;stroke-linejoin:round;stroke-miterlimit:4;stroke-dasharray:none;stroke-opacity:1">
            <path
               inkscape:connector-curvature="0"
               id="path16136"
               style="fill:#e3e4e5;fill-opacity:1;fill-rule:evenodd;stroke:#000000;stroke-width:2.39001788;stroke-linecap:round;stroke-linejoin:round;stroke-miterlimit:4;stroke-dasharray:none;stroke-opacity:1"
               d="M 3.3889725,3.6364617 C 11.708649,-3.4940348 101.66071,44.190034 137.40615,56.010214 C 173.12624,67.822013 230.22748,81.162875 260.56213,99.47329 C 290.37395,117.4681 301.98491,137.68271 311.06469,158.43305 C 319.80833,178.41521 324.62992,182.23547 321.60149,208.67719 C 316.03057,257.3178 332.19187,269.00135 332.19187,269.00135 C 332.19187,269.00135 331.55957,290.3836 320.03066,295.38674 L 277.99536,365.76795 C 276.86255,379.41851 251.73061,368.83188 242.82809,345.46874 C 233.61778,361.36353 213.33279,340.27743 213.11601,318.16896 C 203.34374,330.26304 187.49575,317.78969 194.07765,284.11478 C 176.58906,295.69683 176.88268,265.13744 187.84983,247.57739 C 167.02856,254.37546 175.50502,219.69069 182.5597,207.20756 C 148.94582,200.33133 142.05331,180.36849 150.04109,171.28668 C 114.60412,151.55726 95.67689,141.62724 104.31401,125.72628 C 56.419857,96.091637 48.067881,84.337485 53.068963,74.535632 C 30.699694,59.65976 15.8408,37.260874 21.101078,29.228445 C 3.0963198,19.719022 -4.8627972,10.708758 3.3889725,3.6364617 z"
               sodipodi:nodetypes="cssssccccccccccccc" />
            <path
               inkscape:connector-curvature="0"
               sodipodi:nodetypes="csssc"
               id="path16138"
               style="fill:#e3e4e5;stroke:#000000;stroke-width:2.39001788;stroke-linecap:round;stroke-linejoin:round;stroke-miterlimit:4;stroke-dasharray:none;stroke-opacity:1"
               d="M 313.30298,163.85084 C 315.29746,169.07298 308.35275,183.86306 295.42625,181.07994 C 282.49976,178.29682 265.17966,161.96768 254.40325,149.26103 C 243.79789,136.75607 232.78895,121.33376 221.08524,112.38882 C 209.14678,103.26446 150.05979,66.731507 150.05979,66.731507" />
            <path
               inkscape:connector-curvature="0"
               sodipodi:nodetypes="csc"
               id="path16140"
               style="fill:#e3e4e5;stroke:#000000;stroke-width:2.39001788;stroke-linecap:round;stroke-linejoin:round;stroke-miterlimit:4;stroke-dasharray:none;stroke-opacity:1"
               d="M 182.12271,207.09499 C 192.18076,208.81211 198.48247,206.03108 210.63951,201.54802 C 222.79656,197.06497 230.62051,189.2847 230.62051,189.2847" />
            <path
               inkscape:connector-curvature="0"
               sodipodi:nodetypes="csc"
               id="path16142"
               style="fill:#e3e4e5;stroke:#000000;stroke-width:2.39001788;stroke-linecap:round;stroke-linejoin:round;stroke-miterlimit:4;stroke-dasharray:none;stroke-opacity:1"
               d="M 187.82814,247.76399 C 198.29154,242.41239 211.434,231.99108 215.18162,230.12636 C 219.02341,228.21477 237.87653,212.94876 241.79279,205.00088" />
            <path
               inkscape:connector-curvature="0"
               id="path16144"
               style="fill:#e3e4e5;stroke:#000000;stroke-width:2.39001788;stroke-linecap:round;stroke-linejoin:round;stroke-miterlimit:4;stroke-dasharray:none;stroke-opacity:1"
               d="M 192.64932,284.71843 C 213.70716,273.17553 230.7747,247.74931 233.97144,243.07377 C 237.08319,238.52255 252.15761,213.72846 252.15761,213.72846"
               sodipodi:nodetypes="csc" />
            <path
               inkscape:connector-curvature="0"
               id="path16146"
               style="fill:#e3e4e5;stroke:#000000;stroke-width:2.39001788;stroke-linecap:round;stroke-linejoin:round;stroke-miterlimit:4;stroke-dasharray:none;stroke-opacity:1"
               d="M 212.5146,318.9297 C 217.76259,314.8331 244.59521,270.64616 247.15602,265.3342 C 249.66886,260.12175 264.27205,233.71474 264.27205,233.71474"
               sodipodi:nodetypes="csc" />
            <path
               inkscape:connector-curvature="0"
               id="path16148"
               style="fill:#e3e4e5;stroke:#000000;stroke-width:2.39001788;stroke-linecap:round;stroke-linejoin:round;stroke-miterlimit:4;stroke-dasharray:none;stroke-opacity:1"
               d="M 241.86898,346.5461 C 247.1648,339.48479 258.52584,306.07094 260.81353,298.76915 C 263.16273,291.25182 280.43646,238.32866 280.43646,238.32866"
               sodipodi:nodetypes="csc" />
            <path
               inkscape:connector-curvature="0"
               sodipodi:nodetypes="csc"
               id="path16150"
               style="fill:#e3e4e5;stroke:#000000;stroke-width:2.39001788;stroke-linecap:round;stroke-linejoin:round;stroke-miterlimit:4;stroke-dasharray:none;stroke-opacity:1"
               d="M 149.79633,171.14321 C 169.51988,180.92193 181.71187,179.36357 192.80027,179.51357 C 203.94516,179.66434 215.76622,175.81219 215.76622,175.81219" />
            <path
               inkscape:connector-curvature="0"
               sodipodi:nodetypes="cc"
               id="path16152"
               style="fill:#e3e4e5;stroke:#000000;stroke-width:2.39001788;stroke-linecap:round;stroke-linejoin:round;stroke-miterlimit:4;stroke-dasharray:none;stroke-opacity:1"
               d="M 103.56881,125.18655 C 135.21681,142.26224 153.50658,145.68634 193.87092,155.34295" />
            <path
               inkscape:connector-curvature="0"
               sodipodi:nodetypes="cc"
               id="path16154"
               style="fill:#e3e4e5;stroke:#000000;stroke-width:2.39001788;stroke-linecap:round;stroke-linejoin:round;stroke-miterlimit:4;stroke-dasharray:none;stroke-opacity:1"
               d="M 52.425196,74.028328 C 73.857057,88.770725 118.86149,111.08802 181.48786,131.76117" />
            <path
               inkscape:connector-curvature="0"
               sodipodi:nodetypes="cssc"
               id="path16156"
               style="fill:#e3e4e5;stroke:#000000;stroke-width:2.39001788;stroke-linecap:round;stroke-linejoin:round;stroke-miterlimit:4;stroke-dasharray:none;stroke-opacity:1"
               d="M 21.23644,29.187782 C 21.23644,29.187782 33.852509,34.845931 45.342328,43.980399 C 69.221472,62.964447 96.783052,70.490878 122.93924,82.066708 C 140.30096,89.750408 155.8818,99.048251 174.80025,102.47402" />
            <path
               inkscape:connector-curvature="0"
               id="path16158"
               style="fill:#e3e4e5;stroke:#000000;stroke-width:2.39001788;stroke-linecap:round;stroke-linejoin:round;stroke-miterlimit:4;stroke-dasharray:none;stroke-opacity:1"
               d="M 305.08212,222.90114 C 304.95164,223.35839 299.76795,233.5818 292.95984,234.77032 C 286.15174,235.95884 279.85389,232.47167 277.84971,227.6552 C 275.84553,222.83872 284.94314,215.50442 284.94314,215.50442" />
            <path
               inkscape:connector-curvature="0"
               id="path16160"
               style="fill:#e3e4e5;stroke:#000000;stroke-width:2.39001788;stroke-linecap:round;stroke-linejoin:round;stroke-miterlimit:4;stroke-dasharray:none;stroke-opacity:1"
               d="M 280.18785,220.32826 C 280.18785,220.32826 268.04063,230.62443 260.5648,228.16089 C 253.08895,225.69734 251.53652,214.17502 252.19996,209.53736 C 252.86261,204.90518 255.24066,203.93565 259.58281,200.84823" />
            <path
               inkscape:connector-curvature="0"
               id="path16162"
               style="fill:#e3e4e5;stroke:#000000;stroke-width:2.39001788;stroke-linecap:round;stroke-linejoin:round;stroke-miterlimit:4;stroke-dasharray:none;stroke-opacity:1"
               d="M 268.84957,195.0869 C 258.7281,199.94494 252.60785,208.54116 245.21099,206.30621 C 237.96653,204.11475 233.57321,197.7218 233.08147,192.78928 C 232.57514,187.71048 235.7347,183.49189 235.7347,183.49189" />
            <path
               inkscape:connector-curvature="0"
               id="path16164"
               style="fill:#e3e4e5;stroke:#000000;stroke-width:2.39001788;stroke-linecap:round;stroke-linejoin:round;stroke-miterlimit:4;stroke-dasharray:none;stroke-opacity:1"
               d="M 258.18877,179.02224 C 257.84047,179.08764 243.26519,185.72513 232.78466,182.56743 C 222.38878,179.43523 217.52767,166.22103 219.43347,160.04814 C 221.29577,154.02765 227.47548,153.52513 229.9245,153.3176" />
            <path
               inkscape:connector-curvature="0"
               id="path16166"
               style="fill:#e3e4e5;stroke:#000000;stroke-width:2.39001788;stroke-linecap:round;stroke-linejoin:round;stroke-miterlimit:4;stroke-dasharray:none;stroke-opacity:1"
               d="M 249.85483,154.22634 C 249.15823,154.35717 235.00746,156.50303 226.16879,151.7511 C 217.34531,147.00732 213.30921,135.28076 213.07875,128.89426 C 212.84286,122.35729 217.57107,118.06143 220.95608,117.46173" />
          </g>
        </g>
        <g
           style="fill:#e3e4e5;stroke:#000000;stroke-width:0.66307832;stroke-linecap:round;stroke-linejoin:round;stroke-miterlimit:4;stroke-dasharray:none;stroke-opacity:1"
           id="g11171"
           transform="matrix(-0.8110806,-1.930099e-2,-0.2224092,0.9229661,672.98457,477.22684)">
          <g
             style="fill:#e3e4e5;stroke:#000000;stroke-width:2.39001788;stroke-linecap:round;stroke-linejoin:round;stroke-miterlimit:4;stroke-dasharray:none;stroke-opacity:1"
             transform="matrix(0.2782127,6.7424829e-4,6.7424829e-4,0.2766642,188.50404,-246.10263)"
             id="g11173">
            <path
               sodipodi:nodetypes="cssssccccccccccccc"
               d="M 3.3889725,3.6364617 C 11.708649,-3.4940348 101.66071,44.190034 137.40615,56.010214 C 173.12624,67.822013 230.22748,81.162875 260.56213,99.47329 C 290.37395,117.4681 301.98491,137.68271 311.06469,158.43305 C 319.80833,178.41521 324.62992,182.23547 321.60149,208.67719 C 316.03057,257.3178 332.19187,269.00135 332.19187,269.00135 C 332.19187,269.00135 331.55957,290.3836 320.03066,295.38674 L 277.99536,365.76795 C 276.86255,379.41851 251.73061,368.83188 242.82809,345.46874 C 233.61778,361.36353 213.33279,340.27743 213.11601,318.16896 C 203.34374,330.26304 187.49575,317.78969 194.07765,284.11478 C 176.58906,295.69683 176.88268,265.13744 187.84983,247.57739 C 167.02856,254.37546 175.50502,219.69069 182.5597,207.20756 C 148.94582,200.33133 142.05331,180.36849 150.04109,171.28668 C 114.60412,151.55726 95.67689,141.62724 104.31401,125.72628 C 56.419857,96.091637 48.067881,84.337485 53.068963,74.535632 C 30.699694,59.65976 15.8408,37.260874 21.101078,29.228445 C 3.0963198,19.719022 -4.8627972,10.708758 3.3889725,3.6364617 z"
               style="fill:#e3e4e5;fill-opacity:1;fill-rule:evenodd;stroke:#000000;stroke-width:2.39001788;stroke-linecap:round;stroke-linejoin:round;stroke-miterlimit:4;stroke-dasharray:none;stroke-opacity:1"
               id="path11175"
               inkscape:connector-curvature="0" />
            <path
               d="M 313.30298,163.85084 C 315.29746,169.07298 308.35275,183.86306 295.42625,181.07994 C 282.49976,178.29682 265.17966,161.96768 254.40325,149.26103 C 243.79789,136.75607 232.78895,121.33376 221.08524,112.38882 C 209.14678,103.26446 150.05979,66.731507 150.05979,66.731507"
               style="fill:#e3e4e5;stroke:#000000;stroke-width:2.39001788;stroke-linecap:round;stroke-linejoin:round;stroke-miterlimit:4;stroke-dasharray:none;stroke-opacity:1"
               id="path11177"
               sodipodi:nodetypes="csssc"
               inkscape:connector-curvature="0" />
            <path
               d="M 182.12271,207.09499 C 192.18076,208.81211 198.48247,206.03108 210.63951,201.54802 C 222.79656,197.06497 230.62051,189.2847 230.62051,189.2847"
               style="fill:#e3e4e5;stroke:#000000;stroke-width:2.39001788;stroke-linecap:round;stroke-linejoin:round;stroke-miterlimit:4;stroke-dasharray:none;stroke-opacity:1"
               id="path11179"
               sodipodi:nodetypes="csc"
               inkscape:connector-curvature="0" />
            <path
               d="M 187.82814,247.76399 C 198.29154,242.41239 211.434,231.99108 215.18162,230.12636 C 219.02341,228.21477 237.87653,212.94876 241.79279,205.00088"
               style="fill:#e3e4e5;stroke:#000000;stroke-width:2.39001788;stroke-linecap:round;stroke-linejoin:round;stroke-miterlimit:4;stroke-dasharray:none;stroke-opacity:1"
               id="path11181"
               sodipodi:nodetypes="csc"
               inkscape:connector-curvature="0" />
            <path
               sodipodi:nodetypes="csc"
               d="M 192.64932,284.71843 C 213.70716,273.17553 230.7747,247.74931 233.97144,243.07377 C 237.08319,238.52255 252.15761,213.72846 252.15761,213.72846"
               style="fill:#e3e4e5;stroke:#000000;stroke-width:2.39001788;stroke-linecap:round;stroke-linejoin:round;stroke-miterlimit:4;stroke-dasharray:none;stroke-opacity:1"
               id="path11183"
               inkscape:connector-curvature="0" />
            <path
               sodipodi:nodetypes="csc"
               d="M 212.5146,318.9297 C 217.76259,314.8331 244.59521,270.64616 247.15602,265.3342 C 249.66886,260.12175 264.27205,233.71474 264.27205,233.71474"
               style="fill:#e3e4e5;stroke:#000000;stroke-width:2.39001788;stroke-linecap:round;stroke-linejoin:round;stroke-miterlimit:4;stroke-dasharray:none;stroke-opacity:1"
               id="path11185"
               inkscape:connector-curvature="0" />
            <path
               sodipodi:nodetypes="csc"
               d="M 241.86898,346.5461 C 247.1648,339.48479 258.52584,306.07094 260.81353,298.76915 C 263.16273,291.25182 280.43646,238.32866 280.43646,238.32866"
               style="fill:#e3e4e5;stroke:#000000;stroke-width:2.39001788;stroke-linecap:round;stroke-linejoin:round;stroke-miterlimit:4;stroke-dasharray:none;stroke-opacity:1"
               id="path11187"
               inkscape:connector-curvature="0" />
            <path
               d="M 149.79633,171.14321 C 169.51988,180.92193 181.71187,179.36357 192.80027,179.51357 C 203.94516,179.66434 215.76622,175.81219 215.76622,175.81219"
               style="fill:#e3e4e5;stroke:#000000;stroke-width:2.39001788;stroke-linecap:round;stroke-linejoin:round;stroke-miterlimit:4;stroke-dasharray:none;stroke-opacity:1"
               id="path11189"
               sodipodi:nodetypes="csc"
               inkscape:connector-curvature="0" />
            <path
               d="M 103.56881,125.18655 C 135.21681,142.26224 153.50658,145.68634 193.87092,155.34295"
               style="fill:#e3e4e5;stroke:#000000;stroke-width:2.39001788;stroke-linecap:round;stroke-linejoin:round;stroke-miterlimit:4;stroke-dasharray:none;stroke-opacity:1"
               id="path11191"
               sodipodi:nodetypes="cc"
               inkscape:connector-curvature="0" />
            <path
               d="M 52.425196,74.028328 C 73.857057,88.770725 118.86149,111.08802 181.48786,131.76117"
               style="fill:#e3e4e5;stroke:#000000;stroke-width:2.39001788;stroke-linecap:round;stroke-linejoin:round;stroke-miterlimit:4;stroke-dasharray:none;stroke-opacity:1"
               id="path11193"
               sodipodi:nodetypes="cc"
               inkscape:connector-curvature="0" />
            <path
               d="M 21.23644,29.187782 C 21.23644,29.187782 33.852509,34.845931 45.342328,43.980399 C 69.221472,62.964447 96.783052,70.490878 122.93924,82.066708 C 140.30096,89.750408 155.8818,99.048251 174.80025,102.47402"
               style="fill:#e3e4e5;stroke:#000000;stroke-width:2.39001788;stroke-linecap:round;stroke-linejoin:round;stroke-miterlimit:4;stroke-dasharray:none;stroke-opacity:1"
               id="path11195"
               sodipodi:nodetypes="cssc"
               inkscape:connector-curvature="0" />
            <path
               d="M 305.08212,222.90114 C 304.95164,223.35839 299.76795,233.5818 292.95984,234.77032 C 286.15174,235.95884 279.85389,232.47167 277.84971,227.6552 C 275.84553,222.83872 284.94314,215.50442 284.94314,215.50442"
               style="fill:#e3e4e5;stroke:#000000;stroke-width:2.39001788;stroke-linecap:round;stroke-linejoin:round;stroke-miterlimit:4;stroke-dasharray:none;stroke-opacity:1"
               id="path11197"
               inkscape:connector-curvature="0" />
            <path
               d="M 280.18785,220.32826 C 280.18785,220.32826 268.04063,230.62443 260.5648,228.16089 C 253.08895,225.69734 251.53652,214.17502 252.19996,209.53736 C 252.86261,204.90518 255.24066,203.93565 259.58281,200.84823"
               style="fill:#e3e4e5;stroke:#000000;stroke-width:2.39001788;stroke-linecap:round;stroke-linejoin:round;stroke-miterlimit:4;stroke-dasharray:none;stroke-opacity:1"
               id="path11199"
               inkscape:connector-curvature="0" />
            <path
               d="M 268.84957,195.0869 C 258.7281,199.94494 252.60785,208.54116 245.21099,206.30621 C 237.96653,204.11475 233.57321,197.7218 233.08147,192.78928 C 232.57514,187.71048 235.7347,183.49189 235.7347,183.49189"
               style="fill:#e3e4e5;stroke:#000000;stroke-width:2.39001788;stroke-linecap:round;stroke-linejoin:round;stroke-miterlimit:4;stroke-dasharray:none;stroke-opacity:1"
               id="path11201"
               inkscape:connector-curvature="0" />
            <path
               d="M 258.18877,179.02224 C 257.84047,179.08764 243.26519,185.72513 232.78466,182.56743 C 222.38878,179.43523 217.52767,166.22103 219.43347,160.04814 C 221.29577,154.02765 227.47548,153.52513 229.9245,153.3176"
               style="fill:#e3e4e5;stroke:#000000;stroke-width:2.39001788;stroke-linecap:round;stroke-linejoin:round;stroke-miterlimit:4;stroke-dasharray:none;stroke-opacity:1"
               id="path11203"
               inkscape:connector-curvature="0" />
            <path
               d="M 249.85483,154.22634 C 249.15823,154.35717 235.00746,156.50303 226.16879,151.7511 C 217.34531,147.00732 213.30921,135.28076 213.07875,128.89426 C 212.84286,122.35729 217.57107,118.06143 220.95608,117.46173"
               style="fill:#e3e4e5;stroke:#000000;stroke-width:2.39001788;stroke-linecap:round;stroke-linejoin:round;stroke-miterlimit:4;stroke-dasharray:none;stroke-opacity:1"
               id="path11205"
               inkscape:connector-curvature="0" />
          </g>
        </g>
        <path
           inkscape:connector-curvature="0"
           style="fill:#e3e4e5;fill-opacity:1;stroke:#000000;stroke-width:0.57534898;stroke-linecap:round;stroke-linejoin:round;stroke-miterlimit:4;stroke-dasharray:none;stroke-opacity:1"
           d="M 474.68812,290.60346 C 472.62714,290.60346 471.37459,291.23228 469.97858,292.48877 C 467.25713,294.93824 467.17025,300.33502 466.66184,304.06495 C 465.36181,313.60253 462.56114,316.47893 461.11426,321.45325 C 458.38769,330.8272 458.22253,343.11504 462.90837,352.66331 C 454.02193,361.19687 446.0902,368.63352 442.40595,372.69346 C 439.20263,376.26296 442.46675,384.33447 448.72075,380.73911 C 447.70593,385.54043 452.18266,387.1561 455.35423,384.822 C 454.31441,389.64629 458.53622,392.25024 461.9405,389.93765 C 462.09219,394.00701 466.51958,397.55303 470.4153,392.42339 C 471.05697,394.6077 472.75383,396.158 474.68812,396.158 C 476.62241,396.158 478.31927,394.6077 478.96093,392.42339 C 482.85666,397.55303 487.28404,394.00701 487.43574,389.93765 C 490.84001,392.25024 495.05003,389.64629 494.0102,384.822 C 497.18178,387.1561 501.6703,385.54043 500.65549,380.73911 C 506.90946,384.33447 510.17361,376.26296 506.97028,372.69346 C 503.28603,368.63352 495.3425,361.19687 486.45606,352.66331 C 491.1419,343.11504 490.98855,330.8272 488.26197,321.45325 C 486.8151,316.47893 484.00262,313.60253 482.70259,304.06495 C 482.19418,300.33502 482.11911,294.93824 479.39765,292.48877 C 478.00164,291.23228 476.74909,290.60346 474.68812,290.60346 L 474.68812,290.60346 z"
           id="path6060" />
        <path
           sodipodi:nodetypes="cssc"
           inkscape:connector-curvature="0"
           style="fill:#e3e4e5;fill-opacity:1;fill-rule:nonzero;stroke:#000000;stroke-width:0.57534898;stroke-linecap:round;stroke-linejoin:round;stroke-miterlimit:4;stroke-dasharray:none;stroke-opacity:1"
           d="M 482.19419,341.49645 C 482.35596,341.22116 482.27749,340.26309 482.30293,339.634 C 482.35873,338.25093 479.78399,337.7525 479.56157,339.35944 C 479.47427,339.99015 479.405,340.64833 479.3731,341.21786"
           id="path11302" />
        <path
           inkscape:connector-curvature="0"
           style="fill:#e3e4e5;fill-opacity:1;stroke:#000000;stroke-width:0.57534898;stroke-linecap:round;stroke-linejoin:round;stroke-miterlimit:4;stroke-dasharray:none;stroke-opacity:1"
           d="M 479.0608,341.60708 C 479.90306,340.58412 481.24944,340.57489 481.88423,341.9215 C 482.47308,340.80918 484.05682,340.77487 484.51723,342.12216 C 484.23319,343.55042 483.89546,344.97403 482.5993,346.31449 C 482.42304,344.57712 481.77138,344.23546 481.88423,341.9215 C 481.78336,343.70159 481.12357,345.43128 480.05186,346.42389 C 479.67048,345.10907 479.14434,344.234 479.0608,341.60708 C 478.71895,343.35748 478.39083,345.18619 477.62189,346.04922 C 476.56256,343.96905 475.82567,343.58993 476.37931,341.3884 C 476.66416,340.25568 478.59456,340.46853 479.0608,341.60708 L 479.0608,341.60708 z"
           id="path11304"
           sodipodi:nodetypes="ccccccccsc" />
        <path
           id="path6070"
           d="M 467.18205,341.49645 C 467.02028,341.22116 467.09875,340.26309 467.07331,339.634 C 467.01751,338.25093 469.59225,337.7525 469.81467,339.35944 C 469.90197,339.99015 469.97124,340.64833 470.00314,341.21786"
           style="fill:#e3e4e5;fill-opacity:1;fill-rule:nonzero;stroke:#000000;stroke-width:0.57534898;stroke-linecap:round;stroke-linejoin:round;stroke-miterlimit:4;stroke-dasharray:none;stroke-opacity:1"
           inkscape:connector-curvature="0"
           sodipodi:nodetypes="cssc" />
        <path
           sodipodi:nodetypes="ccccccccsc"
           id="path6072"
           d="M 470.31544,341.60708 C 469.47318,340.58412 468.1268,340.57489 467.49201,341.9215 C 466.90316,340.80918 465.31942,340.77487 464.85901,342.12216 C 465.14305,343.55042 465.48078,344.97403 466.77694,346.31449 C 466.9532,344.57712 467.60486,344.23546 467.49201,341.9215 C 467.59288,343.70159 468.25267,345.43128 469.32438,346.42389 C 469.70576,345.10907 470.2319,344.234 470.31544,341.60708 C 470.65729,343.35748 470.98541,345.18619 471.75435,346.04922 C 472.81368,343.96905 473.55057,343.58993 472.99693,341.3884 C 472.71208,340.25568 470.78168,340.46853 470.31544,341.60708 L 470.31544,341.60708 z"
           style="fill:#e3e4e5;fill-opacity:1;stroke:#000000;stroke-width:0.57534898;stroke-linecap:round;stroke-linejoin:round;stroke-miterlimit:4;stroke-dasharray:none;stroke-opacity:1"
           inkscape:connector-curvature="0" />
        <path
           inkscape:connector-curvature="0"
           sodipodi:nodetypes="cccc"
           id="path6074"
           d="M 468.39655,294.86849 C 468.88065,299.82025 470.14343,304.36649 472.93253,303.90129 C 474.34886,303.07972 475.08628,303.05309 476.63247,303.81759 C 478.75868,304.1916 481.01136,300.16135 480.9473,294.86862"
           style="fill:#e3e4e5;fill-opacity:1;stroke:#000000;stroke-width:0.57534898;stroke-linecap:round;stroke-linejoin:round;stroke-miterlimit:4;stroke-dasharray:none;stroke-opacity:1" />
        <path
           inkscape:connector-curvature="0"
           sodipodi:nodetypes="ccc"
           id="path6080"
           d="M 472.93253,303.90129 C 473.25523,306.16261 473.15531,308.4996 474.62905,310.25903 C 475.98198,308.8788 476.27434,306.16254 476.63247,303.81756"
           style="fill:none;stroke:#000000;stroke-width:0.57534898;stroke-linecap:round;stroke-linejoin:round;stroke-miterlimit:4;stroke-dasharray:none;stroke-opacity:1" />
        <path
           inkscape:connector-curvature="0"
           sodipodi:nodetypes="cc"
           id="path6088"
           d="M 472.80882,362.65591 L 470.41036,392.42454"
           style="fill:#e3e4e5;fill-opacity:1;stroke:#000000;stroke-width:0.57534898;stroke-linecap:round;stroke-linejoin:round;stroke-miterlimit:4;stroke-dasharray:none;stroke-opacity:1" />
        <path
           inkscape:connector-curvature="0"
           sodipodi:nodetypes="cc"
           id="path6090"
           d="M 469.83833,360.55359 L 461.93656,389.933"
           style="fill:#e3e4e5;fill-opacity:1;stroke:#000000;stroke-width:0.57534898;stroke-linecap:round;stroke-linejoin:round;stroke-miterlimit:4;stroke-dasharray:none;stroke-opacity:1" />
        <path
           inkscape:connector-curvature="0"
           sodipodi:nodetypes="cc"
           id="path6092"
           d="M 467.19414,358.21565 L 455.35797,384.82692"
           style="fill:#e3e4e5;fill-opacity:1;stroke:#000000;stroke-width:0.57534898;stroke-linecap:round;stroke-linejoin:round;stroke-miterlimit:4;stroke-dasharray:none;stroke-opacity:1" />
        <path
           inkscape:connector-curvature="0"
           sodipodi:nodetypes="cc"
           id="path6094"
           d="M 465.08638,355.90422 L 448.71762,380.73635"
           style="fill:#e3e4e5;fill-opacity:1;stroke:#000000;stroke-width:0.57534898;stroke-linecap:round;stroke-linejoin:round;stroke-miterlimit:4;stroke-dasharray:none;stroke-opacity:1" />
        <path
           inkscape:connector-curvature="0"
           sodipodi:nodetypes="cc"
           id="path6096"
           d="M 474.67716,363.88112 C 468.2592,359.70417 465.11112,356.57923 462.91206,352.66039"
           style="fill:#e3e4e5;fill-opacity:1;stroke:#000000;stroke-width:0.57534898;stroke-linecap:round;stroke-linejoin:round;stroke-miterlimit:4;stroke-dasharray:none;stroke-opacity:1" />
        <path
           inkscape:connector-curvature="0"
           id="path6076"
           d="M 469.86622,302.26487 C 469.86622,302.81226 469.54766,303.25606 469.15477,303.25606 C 468.76178,303.25606 468.44322,302.81226 468.44322,302.26487 C 468.44322,301.71743 468.76178,301.27364 469.15477,301.27364 C 469.54766,301.27364 469.86622,301.71743 469.86622,302.26487 z"
           style="fill:#000000;fill-opacity:1;fill-rule:evenodd;stroke:#000000;stroke-width:0.57534898;stroke-linecap:round;stroke-linejoin:round;stroke-miterlimit:4;stroke-dasharray:none;stroke-opacity:1" />
        <path
           style="fill:#000000;fill-opacity:1;fill-rule:evenodd;stroke:#000000;stroke-width:0.57534898;stroke-linecap:round;stroke-linejoin:round;stroke-miterlimit:4;stroke-dasharray:none;stroke-opacity:1"
           d="M 480.93302,302.26487 C 480.93302,302.81226 480.61446,303.25606 480.22157,303.25606 C 479.82858,303.25606 479.51002,302.81226 479.51002,302.26487 C 479.51002,301.71743 479.82858,301.27364 480.22157,301.27364 C 480.61446,301.27364 480.93302,301.71743 480.93302,302.26487 z"
           id="path11263"
           inkscape:connector-curvature="0" />
        <path
           style="fill:#e3e4e5;fill-opacity:1;stroke:#000000;stroke-width:0.57534898;stroke-linecap:round;stroke-linejoin:round;stroke-miterlimit:4;stroke-dasharray:none;stroke-opacity:1"
           d="M 476.56114,362.65591 L 478.9596,392.42454"
           id="path11267"
           sodipodi:nodetypes="cc"
           inkscape:connector-curvature="0" />
        <path
           style="fill:#e3e4e5;fill-opacity:1;stroke:#000000;stroke-width:0.57534898;stroke-linecap:round;stroke-linejoin:round;stroke-miterlimit:4;stroke-dasharray:none;stroke-opacity:1"
           d="M 479.53164,360.55359 L 487.43341,389.933"
           id="path11269"
           sodipodi:nodetypes="cc"
           inkscape:connector-curvature="0" />
        <path
           style="fill:#e3e4e5;fill-opacity:1;stroke:#000000;stroke-width:0.57534898;stroke-linecap:round;stroke-linejoin:round;stroke-miterlimit:4;stroke-dasharray:none;stroke-opacity:1"
           d="M 482.17582,358.21565 L 494.012,384.82692"
           id="path11271"
           sodipodi:nodetypes="cc"
           inkscape:connector-curvature="0" />
        <path
           style="fill:#e3e4e5;fill-opacity:1;stroke:#000000;stroke-width:0.57534898;stroke-linecap:round;stroke-linejoin:round;stroke-miterlimit:4;stroke-dasharray:none;stroke-opacity:1"
           d="M 484.28358,355.90422 L 500.65235,380.73635"
           id="path11273"
           sodipodi:nodetypes="cc"
           inkscape:connector-curvature="0" />
        <path
           style="fill:#e3e4e5;fill-opacity:1;stroke:#000000;stroke-width:0.57534898;stroke-linecap:round;stroke-linejoin:round;stroke-miterlimit:4;stroke-dasharray:none;stroke-opacity:1"
           d="M 474.6928,363.88112 C 481.11076,359.70417 484.25885,356.57923 486.4579,352.66039"
           id="path11275"
           sodipodi:nodetypes="cc"
           inkscape:connector-curvature="0" />
      </g>
    </g>
    <g
       id="g3283"
       inkscape:label="Calque 1"
       transform="matrix(1.124864,0,0,1.124864,22.318799,574.11327)"
       style="fill:#fcdd09;fill-opacity:1;stroke:#eb7711;stroke-opacity:1">
      <g
         transform="matrix(0.754398,0,0,0.754398,-21.15954,-18.76888)"
         id="g2129"
         style="opacity:1;fill:#fcdd09;fill-opacity:1;stroke:#eb7711;stroke-width:1.32556020999999990;stroke-miterlimit:4;stroke-dasharray:none;stroke-opacity:1;display:inline">
        <path
           sodipodi:nodetypes="ccccccccccccccccccccccccc"
           style="opacity:1;fill:#fcdd09;fill-opacity:1;fill-rule:nonzero;stroke:#eb7711;stroke-width:1.17841822999999990;stroke-linecap:butt;stroke-linejoin:miter;marker:none;marker-start:none;marker-mid:none;marker-end:none;stroke-miterlimit:4;stroke-dasharray:none;stroke-dashoffset:0;stroke-opacity:1;visibility:visible;display:inline;overflow:visible"
           d="M 112.40794,94.6676 L 67.059747,64.546843 L 97.504217,109.39474 C 92.289386,117.72604 88.427443,127.17058 86.065649,136.7041 L 19.432106,147.52829 L 85.945309,157.71304 C 88.624203,167.18503 91.480709,176.93736 97.151712,185.09206 L 67.0468,230.47849 L 111.91709,199.97994 C 120.46642,204.84215 129.42373,209.66419 139.18822,211.43434 L 150.01242,278.06791 L 160.19716,211.55468 C 169.63203,209.02032 179.47645,205.98651 187.57619,200.34828 L 232.9626,230.45321 L 202.50229,185.56708 C 207.32691,176.99499 212.1736,168.07956 213.91847,158.31178 L 280.56786,147.52582 L 214.03881,137.30284 C 211.50444,127.86796 208.47063,118.02358 202.83241,109.92383 L 232.95317,64.575626 L 188.05121,94.997716 C 179.60983,90.139081 170.47944,85.357146 160.79592,83.581529 L 150.00993,16.932147 L 139.78695,83.461188 C 130.21017,85.657159 120.809,89.587464 112.40794,94.6676 z"
           id="path2140" />
      </g>
    </g>
  </g>
</svg>
