<?xml version="1.0" encoding="UTF-8" standalone="no"?>
<svg
   xmlns:dc="http://purl.org/dc/elements/1.1/"
   xmlns:cc="http://creativecommons.org/ns#"
   xmlns:rdf="http://www.w3.org/1999/02/22-rdf-syntax-ns#"
   xmlns:svg="http://www.w3.org/2000/svg"
   xmlns="http://www.w3.org/2000/svg"
   xmlns:sodipodi="http://sodipodi.sourceforge.net/DTD/sodipodi-0.dtd"
   xmlns:inkscape="http://www.inkscape.org/namespaces/inkscape"
   width="750"
   height="500"
   version="1.1"
   id="svg2"
   sodipodi:version="0.32"
   inkscape:version="0.46"
   sodipodi:docname="Bandera_de_Busbanzá.svg"
   inkscape:output_extension="org.inkscape.output.svg.inkscape">
  <metadata
     id="metadata13">
    <rdf:RDF>
      <cc:Work
         rdf:about="">
        <dc:format>image/svg+xml</dc:format>
        <dc:type
           rdf:resource="http://purl.org/dc/dcmitype/StillImage" />
      </cc:Work>
    </rdf:RDF>
  </metadata>
  <defs
     id="defs11" />
  <sodipodi:namedview
     inkscape:window-height="712"
     inkscape:window-width="1024"
     inkscape:pageshadow="2"
     inkscape:pageopacity="0.0"
     guidetolerance="10.0"
     gridtolerance="10.0"
     objecttolerance="10.0"
     borderopacity="1.0"
     bordercolor="#666666"
     pagecolor="#ffffff"
     id="base"
     showgrid="false"
     inkscape:zoom="1.0197031"
     inkscape:cx="374.45603"
     inkscape:cy="250.16946"
     inkscape:window-x="-4"
     inkscape:window-y="-4"
     inkscape:current-layer="svg2" />
  <rect
     width="750"
     height="500"
     id="rect4"
     x="-750"
     y="0"
     transform="scale(-1,1)"
     style="fill:#078930" />
  <rect
     width="375"
     height="250"
     id="rect6"
     x="-750"
     y="0"
     transform="scale(-1,1)"
     style="fill:#ffffff" />
  <rect
     width="375"
     height="250"
     transform="scale(-1,1)"
     id="rect8"
     x="-375"
     y="250"
     style="fill:#ffffff" />
  <g
     style="fill-rule:evenodd"
     id="g2435"
     transform="matrix(3.375,0,0,3.375,-8.8552335,-98.264517)">
    <g
       transform="translate(-5.8184,-64.583071)"
       id="Capa_x0020_1">
  <metadata
   id="CorelCorpID_2Corel-Layer" />

  <sodipodi:namedview
   width="549.99969px"
   height="975px"
   inkscape:guide-bbox="true"
   showgrid="false"
   showguides="true"
   inkscape:window-y="-4"
   inkscape:window-x="-4"
   inkscape:window-height="753"
   inkscape:window-width="1280"
   inkscape:current-layer="layer6"
   inkscape:document-units="px"
   inkscape:cy="286.86274"
   inkscape:cx="529.77215"
   inkscape:zoom="0.45254834"
   inkscape:pageshadow="2"
   inkscape:pageopacity="0.0"
   objecttolerance="10"
   guidetolerance="10"
   gridtolerance="10000"
   borderopacity="1.0"
   bordercolor="#666666"
   pagecolor="#ffffff"
   id="namedview2439" />

  <g
   inkscape:label="Timbre"
   inkscape:groupmode="layer"
   id="layer3">
  </g>

  <g
   inkscape:groupmode="layer"
   inkscape:label="Escudo"
   id="layer1_11">
  </g>

  <g
   inkscape:label="Piezas"
   inkscape:groupmode="layer"
   id="layer4">
  </g>

  <g
   inkscape:label="Muebles"
   inkscape:groupmode="layer"
   id="layer5">
  </g>

  <g
   inkscape:label="Ornamento"
   inkscape:groupmode="layer"
   id="layer2">
  </g>

 </g>
    <path
       id="path6555"
       d="M 57.129722,103.36082 L 113.63061,29.772973 L 169.67584,103.13299 L 113.85843,176.72084 L 57.129722,103.36082 z"
       style="fill:#eac102;fill-rule:evenodd;stroke:none;stroke-width:0.36525102999999998;stroke-linecap:butt;stroke-linejoin:round;stroke-miterlimit:4;stroke-dasharray:none;stroke-opacity:1" />
    <g
       id="g6524"
       inkscape:label="Muebles"
       style="stroke:#000000;stroke-width:0.79830074;stroke-miterlimit:4;stroke-dasharray:none;stroke-opacity:1;display:inline"
       transform="matrix(0.2287678,0,0,0.2287678,50.044988,-51.831526)">
      <g
         style="stroke:#000000;stroke-width:1.26011324;stroke-miterlimit:4;stroke-dasharray:none;stroke-opacity:1"
         id="g33521"
         inkscape:label="Meubles"
         sodipodi:insensitive="true"
         transform="matrix(-0.6335151,0,0,0.6335151,532.93805,1217.4823)" />
      <g
         style="stroke:#000000;stroke-width:0.79830074;stroke-miterlimit:4;stroke-dasharray:none;stroke-opacity:1;display:inline"
         id="g36679"
         transform="translate(0,-16.047794)">
        <g
           id="g30104"
           style="stroke:#000000;stroke-width:0.79830074;stroke-miterlimit:4;stroke-dasharray:none;stroke-opacity:1;display:inline"
           transform="translate(-484.79905,-561.22081)">
          <path
             inkscape:connector-curvature="0"
             style="fill:#008f4c;fill-rule:nonzero;stroke:#000000;stroke-width:0.79830074;stroke-linecap:round;stroke-linejoin:round;stroke-miterlimit:4;stroke-dasharray:none;stroke-opacity:1"
             d="M 762.99388,1387.2878 C 742.34837,1381.9133 731.78973,1381.1093 719.48917,1370.1458 C 709.65633,1361.3816 694.82389,1336.1195 690.90362,1312.7446 C 694.09409,1313.7656 697.30263,1315.3381 700.49302,1313.8525 C 691.53838,1299.4237 693.45781,1292.1255 690.92816,1281.9197 C 694.66869,1282.388 698.43748,1283.3367 702.17793,1281.8078 C 699.15553,1274.2981 689.09384,1260.9515 686.32771,1250.2913 L 698.73532,1250.9343 C 698.26212,1243.1197 685.61954,1223.8627 686.32771,1216.9279 C 691.87394,1221.2312 696.38212,1220.5789 699.55803,1222.9247 C 697.05664,1206.1852 693.49006,1207.3553 693.05328,1187.4347 C 698.38864,1193.7307 706.08115,1187.8908 709.79941,1191.2645 C 704.46595,1179.1071 703.53001,1166.5067 703.49405,1157.3674 C 708.74779,1163.8027 714.41153,1168.6805 720.21614,1173.0233 C 708.05478,1159.0977 706.4421,1147.4483 706.30568,1136.1173 C 711.37433,1139.2656 710.8814,1130.6855 718.67613,1132.281 C 717.11856,1121.7431 715.44867,1113.9736 714.31222,1098.5964 C 718.73144,1101.8328 723.31647,1106.1281 727.2179,1106.4144 C 725.56663,1097.6027 724.98339,1085.1956 724.9835,1074.816 C 728.81376,1077.4237 732.88398,1081.6653 736.71413,1082.1719 C 734.80482,1073.8315 732.84177,1065.5289 732.01202,1053.6008 L 743.72203,1060.859 C 741.24618,1053.6747 738.47993,1047.3351 739.74974,1033.5461 L 749.73646,1043.8286 C 749.17478,1034.849 746.73638,1027.2862 746.72326,1015.4327 C 749.79557,1019.6589 750.73944,1021.807 753.81153,1022.3568 C 755.00012,1013.0547 756.80103,1004.9724 759.09297,996.72082 C 761.35043,1004.8796 764.03356,1010.8004 764.57069,1017.8432 L 772.65625,1012.7954 L 770.92027,1027.9174 L 775.71798,1020.67 L 775.79728,1036.4128 L 774.08584,1046.5446 L 780.89523,1038.871 L 779.83101,1059.0785 L 784.97698,1058.777 C 785.62442,1066.3281 784.41754,1069.7699 783.65704,1075.2918 L 791.65154,1070.5916 L 791.39466,1096.0312 C 793.36869,1095.042 795.18409,1094.0313 798.11786,1092.3408 L 793.41163,1119.8926 L 802.88511,1116.202 L 798.36755,1143.8019 L 809.16817,1141.4444 L 807.66443,1159.9554 L 819.21601,1157.646 L 812.13841,1186.7528 L 825.12002,1181.8205 L 812.96935,1215.9897 L 828.43283,1213.6318 L 820.04735,1241.5202 L 833.29907,1233.8373 L 822.24728,1257.9656 L 833.29907,1259.5162 L 821.12278,1286.3994 L 833.29907,1284.1713 L 818.69018,1313.3361 L 825.20569,1319.4293 L 818.3965,1334.2265 L 824.40004,1337.2793 C 814.45372,1352.7355 806.32259,1379.4842 762.99334,1387.2878 L 762.99388,1387.2878 z"
             id="path3263-1"
             sodipodi:nodetypes="cscccccccccccccccccccccccccccccccccccccccccccccccccccccccccccc" />
          <path
             inkscape:connector-curvature="0"
             style="fill:none;stroke:#000000;stroke-width:0.79830074;stroke-linecap:round;stroke-linejoin:round;stroke-miterlimit:4;stroke-dasharray:none;stroke-opacity:1"
             d="M 762.31334,1032.5406 C 765.92755,1044.6238 765.41726,1053.7701 766.13387,1063.7901"
             id="path3265-7"
             sodipodi:nodetypes="cc" />
          <path
             inkscape:connector-curvature="0"
             style="fill:none;stroke:#000000;stroke-width:0.79830074;stroke-linecap:round;stroke-linejoin:round;stroke-miterlimit:4;stroke-dasharray:none;stroke-opacity:1"
             d="M 743.72203,1060.859 C 746.79888,1068.6992 751.38296,1074.8458 755.26039,1081.9259"
             id="path3267-4"
             sodipodi:nodetypes="cc" />
          <path
             inkscape:connector-curvature="0"
             style="fill:none;stroke:#000000;stroke-width:0.79830074;stroke-linecap:round;stroke-linejoin:round;stroke-miterlimit:4;stroke-dasharray:none;stroke-opacity:1"
             d="M 769.0724,1090.0171 L 775.53766,1083.0419 L 775.24387,1098.6666 L 782.29672,1095.0393 L 777.88861,1109.2691 L 786.41093,1107.874 C 786.05739,1112.7103 784.53377,1117.5465 782.00282,1122.3827"
             id="path3269-0"
             sodipodi:nodetypes="ccccccc" />
          <path
             inkscape:connector-curvature="0"
             style="fill:none;stroke:#000000;stroke-width:0.79830074;stroke-linecap:round;stroke-linejoin:round;stroke-miterlimit:4;stroke-dasharray:none;stroke-opacity:1"
             d="M 736.71413,1082.1719 L 741.44859,1101.4568"
             id="path3271-9"
             sodipodi:nodetypes="cc" />
          <path
             inkscape:connector-curvature="0"
             style="fill:none;stroke:#000000;stroke-width:0.79830074;stroke-linecap:round;stroke-linejoin:round;stroke-miterlimit:4;stroke-dasharray:none;stroke-opacity:1"
             d="M 727.2179,1106.4144 C 728.8458,1115.1547 734.65824,1119.9388 738.50986,1126.5679"
             id="path3273-4"
             sodipodi:nodetypes="cc" />
          <path
             inkscape:connector-curvature="0"
             style="fill:none;stroke:#000000;stroke-width:0.79830074;stroke-linecap:round;stroke-linejoin:round;stroke-miterlimit:4;stroke-dasharray:none;stroke-opacity:1"
             d="M 747.61976,1131.8691 C 747.71806,1123.4048 746.76599,1115.1378 749.38302,1106.2 L 754.08502,1112.0593 L 757.02377,1090.5752 L 762.60734,1103.9679 L 767.01545,1103.6889 C 768.75714,1112.6172 768.26855,1121.5456 767.89702,1130.474"
             id="path3275-8"
             sodipodi:nodetypes="ccccccc" />
          <path
             inkscape:connector-curvature="0"
             style="fill:none;stroke:#000000;stroke-width:0.79830074;stroke-linecap:round;stroke-linejoin:round;stroke-miterlimit:4;stroke-dasharray:none;stroke-opacity:1"
             d="M 798.36788,1143.8019 L 788.70541,1146.4111 L 785.23546,1135.7752 L 775.24387,1150.563 L 773.77461,1157.8173"
             id="path3277-8"
             sodipodi:nodetypes="ccccc" />
          <path
             inkscape:connector-curvature="0"
             style="fill:none;stroke:#000000;stroke-width:0.79830074;stroke-linecap:round;stroke-linejoin:round;stroke-miterlimit:4;stroke-dasharray:none;stroke-opacity:1"
             d="M 754.9666,1163.9556 C 751.17548,1157.3204 745.47937,1151.1028 737.33428,1144.9827 C 742.2681,1156.2363 744.4436,1167.4898 746.1505,1178.7433 L 732.92628,1169.2569 L 735.86491,1187.1138 L 738.80375,1192.694"
             id="path3279-2"
             sodipodi:nodetypes="cccccc" />
          <path
             inkscape:connector-curvature="0"
             style="fill:none;stroke:#000000;stroke-width:0.79830074;stroke-linecap:round;stroke-linejoin:round;stroke-miterlimit:4;stroke-dasharray:none;stroke-opacity:1"
             d="M 773.48061,1184.6027 L 781.70904,1170.6519 L 783.4722,1189.0668 L 797.28409,1163.3975 C 798.53962,1175.8602 799.53415,1188.3227 797.57809,1200.7853"
             id="path3281-4"
             sodipodi:nodetypes="ccccc" />
          <path
             inkscape:connector-curvature="0"
             style="fill:none;stroke:#000000;stroke-width:0.79830074;stroke-linecap:round;stroke-linejoin:round;stroke-miterlimit:4;stroke-dasharray:none;stroke-opacity:1"
             d="M 764.66429,1246.8224 C 764.98971,1234.3599 765.29132,1221.8973 763.48893,1209.4347 L 756.43597,1214.736 L 757.02377,1194.3681 L 749.38313,1209.4347"
             id="path3283-5"
             sodipodi:nodetypes="ccccc" />
          <path
             inkscape:connector-curvature="0"
             style="fill:none;stroke:#000000;stroke-width:0.79830074;stroke-linecap:round;stroke-linejoin:round;stroke-miterlimit:4;stroke-dasharray:none;stroke-opacity:1"
             d="M 732.92628,1231.4768 C 732.84908,1223.1589 731.54712,1214.8744 728.22428,1206.6446 L 723.52238,1212.7829 L 718.82038,1195.484 L 714.41226,1204.6915"
             id="path3285-5"
             sodipodi:nodetypes="ccccc" />
          <path
             inkscape:connector-curvature="0"
             style="fill:none;stroke:#000000;stroke-width:0.79830074;stroke-linecap:round;stroke-linejoin:round;stroke-miterlimit:4;stroke-dasharray:none;stroke-opacity:1"
             d="M 707.94721,1248.2175 L 709.71027,1233.1509 L 716.46943,1247.6595 L 721.46522,1243.7533 L 724.40406,1257.4249"
             id="path3287-1"
             sodipodi:nodetypes="ccccc" />
          <path
             inkscape:connector-curvature="0"
             style="fill:none;stroke:#000000;stroke-width:0.79830074;stroke-linecap:round;stroke-linejoin:round;stroke-miterlimit:4;stroke-dasharray:none;stroke-opacity:1"
             d="M 738.21586,1272.2126 C 738.98057,1265.1546 740.67489,1258.0178 742.53439,1250.867 C 744.47257,1257.3219 746.07139,1263.8566 745.8565,1270.8176"
             id="path3289-7"
             sodipodi:nodetypes="ccc" />
          <path
             inkscape:connector-curvature="0"
             style="fill:none;stroke:#000000;stroke-width:0.79830074;stroke-linecap:round;stroke-linejoin:round;stroke-miterlimit:4;stroke-dasharray:none;stroke-opacity:1"
             d="M 777.59471,1224.7805 L 784.64777,1209.4347 C 784.64777,1209.4347 787.05202,1222.3648 789.64356,1228.4076 C 790.15616,1229.6029 791.70062,1231.7557 791.70062,1231.7557"
             id="path3291-1"
             sodipodi:nodetypes="ccsc" />
          <path
             inkscape:connector-curvature="0"
             style="fill:none;stroke:#000000;stroke-width:0.79830074;stroke-linecap:round;stroke-linejoin:round;stroke-miterlimit:4;stroke-dasharray:none;stroke-opacity:1"
             d="M 779.65198,1267.1904 L 785.52935,1250.7286 L 787.88019,1258.5409 L 798.45977,1240.6842 L 799.34136,1248.7755 L 812.27178,1228.9657 C 811.55265,1237.5364 811.0116,1245.4391 808.74525,1255.1928 C 806.18787,1266.1987 802.31912,1278.1401 798.16577,1289.7904 L 793.75767,1300.3929"
             id="path3293-1"
             sodipodi:nodetypes="ccccccscc" />
          <path
             inkscape:connector-curvature="0"
             style="fill:none;stroke:#000000;stroke-width:0.79830074;stroke-linecap:round;stroke-linejoin:round;stroke-miterlimit:4;stroke-dasharray:none;stroke-opacity:1"
             d="M 781.70892,1279.1879 L 778.77029,1297.8818 L 780.53345,1305.1361"
             id="path3295-5"
             sodipodi:nodetypes="ccc" />
          <path
             inkscape:connector-curvature="0"
             style="fill:none;stroke:#000000;stroke-width:0.79830074;stroke-linecap:round;stroke-linejoin:round;stroke-miterlimit:4;stroke-dasharray:none;stroke-opacity:1"
             d="M 812.96987,1215.9897 C 811.52071,1220.3051 807.78753,1223.382 805.21883,1227.0126"
             id="path3297-2"
             sodipodi:nodetypes="cc" />
          <path
             inkscape:connector-curvature="0"
             style="fill:none;stroke:#000000;stroke-width:0.79830074;stroke-linecap:round;stroke-linejoin:round;stroke-miterlimit:4;stroke-dasharray:none;stroke-opacity:1"
             d="M 766.72145,1311.2746 C 764.95839,1304.8572 765.54608,1290.6275 765.54608,1290.6275 C 757.32696,1298.7869 750.39912,1307.3508 743.79955,1316.0177 L 734.39574,1299.5558 L 728.22428,1308.7633"
             id="path3299-7"
             sodipodi:nodetypes="ccccc" />
          <path
             inkscape:connector-curvature="0"
             style="fill:none;stroke:#000000;stroke-width:0.79830074;stroke-linecap:round;stroke-linejoin:round;stroke-miterlimit:4;stroke-dasharray:none;stroke-opacity:1"
             d="M 702.17793,1281.8078 C 706.52935,1291.0918 711.90374,1298.4911 716.76343,1306.8102"
             id="path3301-6"
             sodipodi:nodetypes="cc" />
          <path
             inkscape:connector-curvature="0"
             style="fill:none;stroke:#000000;stroke-width:0.79830074;stroke-linecap:round;stroke-linejoin:round;stroke-miterlimit:4;stroke-dasharray:none;stroke-opacity:1"
             d="M 700.49302,1313.8525 C 705.6061,1321.6596 713.4996,1327.397 719.99595,1334.1534"
             id="path3303-1"
             sodipodi:nodetypes="cc" />
          <path
             inkscape:connector-curvature="0"
             style="fill:none;stroke:#000000;stroke-width:0.79830074;stroke-linecap:round;stroke-linejoin:round;stroke-miterlimit:4;stroke-dasharray:none;stroke-opacity:1"
             d="M 791.40682,1314.0645 C 798.16577,1306.6907 804.92483,1300.2442 811.68399,1295.9288 C 809.5675,1304.02 807.67289,1312.1115 806.10031,1320.2028"
             id="path3305-4"
             sodipodi:nodetypes="ccc" />
          <path
             inkscape:connector-curvature="0"
             style="fill:none;stroke:#000000;stroke-width:0.79830074;stroke-linecap:round;stroke-linejoin:round;stroke-miterlimit:4;stroke-dasharray:none;stroke-opacity:1"
             d="M 731.62019,1354.6805 L 739.55472,1329.8484 L 741.90556,1354.1225 L 749.5463,1335.1497 L 751.30967,1349.1003"
             id="path3307-2"
             sodipodi:nodetypes="ccccc" />
          <path
             inkscape:connector-curvature="0"
             style="fill:none;stroke:#000000;stroke-width:0.79830074;stroke-linecap:round;stroke-linejoin:round;stroke-miterlimit:4;stroke-dasharray:none;stroke-opacity:1"
             d="M 768.19081,1354.5214 C 772.76126,1348.3074 776.37663,1340.9716 778.77029,1332.2004 C 781.74002,1339.1756 784.13814,1346.1511 784.94156,1353.1264 L 791.70062,1345.0349 L 794.93325,1352.2893"
             id="path3309-3"
             sodipodi:nodetypes="ccccc" />
          <path
             style="fill:#c87137;fill-rule:nonzero;stroke:#000000;stroke-width:0.79830074;stroke-linecap:round;stroke-linejoin:round;stroke-miterlimit:4;stroke-dasharray:none;stroke-opacity:1"
             d="M 739.8125,1365.9062 C 747.42351,1375.6605 749.99216,1390.0159 750.75,1405.6562 C 751.52276,1421.6035 750.8759,1438.8926 750.96875,1454 C 751.02775,1463.6052 751.47147,1465.9221 737.62682,1470.721 L 751.00422,1470.721 L 756.54555,1468.8739 L 757.62303,1470.721 L 765.62717,1470.721 L 769.01193,1469.0279 C 770.3723,1469.9968 773.03983,1470.721 775.47843,1470.721 L 783.875,1470.721 C 775.83614,1467.2048 770.48876,1462.6883 770.3125,1455.375 C 769.9468,1440.2014 767.99855,1421.6065 768.03125,1405.9062 C 768.06385,1390.7815 770.12903,1378.3387 778,1374.1875 C 775.6629,1371.848 775.0752,1368.9577 774.3125,1366.125 C 769.5942,1369.8853 764.67386,1373.3845 758.34375,1375.125 C 752.82839,1370.8196 746.40573,1368.1858 739.8125,1365.9062 z"
             transform="translate(0,5)"
             id="path3311-2"
             inkscape:connector-curvature="0"
             sodipodi:nodetypes="cssccccccscsccccc" />
        </g>
      </g>
    </g>
  </g>
</svg>
