<?xml version="1.0" encoding="UTF-8" standalone="no"?>
<svg
   xmlns:dc="http://purl.org/dc/elements/1.1/"
   xmlns:cc="http://creativecommons.org/ns#"
   xmlns:rdf="http://www.w3.org/1999/02/22-rdf-syntax-ns#"
   xmlns:svg="http://www.w3.org/2000/svg"
   xmlns="http://www.w3.org/2000/svg"
   xmlns:sodipodi="http://sodipodi.sourceforge.net/DTD/sodipodi-0.dtd"
   xmlns:inkscape="http://www.inkscape.org/namespaces/inkscape"
   width="770"
   height="500"
   version="1.0"
   id="svg2"
   sodipodi:version="0.32"
   inkscape:version="0.46"
   sodipodi:docname="Flag of_Cabrera_(Santander).svg"
   inkscape:output_extension="org.inkscape.output.svg.inkscape">
  <metadata
     id="metadata13">
    <rdf:RDF>
      <cc:Work
         rdf:about="">
        <dc:format>image/svg+xml</dc:format>
        <dc:type
           rdf:resource="http://purl.org/dc/dcmitype/StillImage" />
      </cc:Work>
    </rdf:RDF>
  </metadata>
  <defs
     id="defs11" />
  <sodipodi:namedview
     inkscape:window-height="712"
     inkscape:window-width="1024"
     inkscape:pageshadow="2"
     inkscape:pageopacity="0.0"
     guidetolerance="10.0"
     gridtolerance="10.0"
     objecttolerance="10.0"
     borderopacity="1.0"
     bordercolor="#666666"
     pagecolor="#ffffff"
     id="base"
     showgrid="false"
     inkscape:zoom="1.014"
     inkscape:cx="385"
     inkscape:cy="250"
     inkscape:window-x="-4"
     inkscape:window-y="-4"
     inkscape:current-layer="svg2" />
  <rect
     width="769.72388"
     height="500"
     id="rect4"
     x="0"
     y="0"
     style="fill:#078930" />
  <rect
     width="769.72388"
     height="101.38503"
     y="97.591911"
     id="rect6"
     x="0"
     style="fill:#fcdd09" />
  <rect
     style="fill:#704d25;fill-opacity:1"
     x="0"
     id="rect2403"
     y="197.57642"
     height="102.6181"
     width="769.72388" />
  <rect
     style="fill:#fcdd09"
     x="-769.72388"
     id="rect2405"
     y="-401.41211"
     height="101.38503"
     width="769.72388"
     transform="scale(-1,-1)" />
  <path
     sodipodi:type="star"
     style="opacity:1;fill:#ffffff;fill-opacity:1;stroke:none;stroke-width:0.5;stroke-linejoin:round;stroke-miterlimit:4;stroke-dasharray:none;stroke-dashoffset:0;stroke-opacity:1"
     id="path3179"
     sodipodi:sides="5"
     sodipodi:cx="2.857183"
     sodipodi:cy="214.91663"
     sodipodi:r1="22.733669"
     sodipodi:r2="8.4059725"
     sodipodi:arg1="0.94405343"
     sodipodi:arg2="1.572372"
     inkscape:flatsided="false"
     inkscape:rounded="0"
     inkscape:randomized="0"
     d="M 16.190703,233.32958 L 2.8439379,223.32259 L -10.534295,233.28747 L -5.1414549,217.50161 L -18.752726,207.85748 L -2.0730021,208.10827 L 2.8930029,192.18298 L 7.808799,208.12385 L 24.489229,207.92561 L 10.847635,217.52681 L 16.190703,233.32958 z"
     transform="translate(29.524225,10.158873)" />
  <path
     sodipodi:type="star"
     style="opacity:1;fill:#ffffff;fill-opacity:1;stroke:none;stroke-width:0.5;stroke-linejoin:round;stroke-miterlimit:4;stroke-dasharray:none;stroke-dashoffset:0;stroke-opacity:1"
     id="path3181"
     sodipodi:sides="5"
     sodipodi:cx="2.857183"
     sodipodi:cy="214.91663"
     sodipodi:r1="22.733669"
     sodipodi:r2="8.4059725"
     sodipodi:arg1="0.94405343"
     sodipodi:arg2="1.572372"
     inkscape:flatsided="false"
     inkscape:rounded="0"
     inkscape:randomized="0"
     d="M 16.190703,233.32958 L 2.8439379,223.32259 L -10.534295,233.28747 L -5.1414549,217.50161 L -18.752726,207.85748 L -2.0730021,208.10827 L 2.8930029,192.18298 L 7.808799,208.12385 L 24.489229,207.92561 L 10.847635,217.52681 L 16.190703,233.32958 z"
     transform="translate(93.958506,62.796117)" />
  <path
     transform="matrix(-1,0,0,1,163.69501,10.158873)"
     d="M 16.190703,233.32958 L 2.8439379,223.32259 L -10.534295,233.28747 L -5.1414549,217.50161 L -18.752726,207.85748 L -2.0730021,208.10827 L 2.8930029,192.18298 L 7.808799,208.12385 L 24.489229,207.92561 L 10.847635,217.52681 L 16.190703,233.32958 z"
     inkscape:randomized="0"
     inkscape:rounded="0"
     inkscape:flatsided="false"
     sodipodi:arg2="1.572372"
     sodipodi:arg1="0.94405343"
     sodipodi:r2="8.4059725"
     sodipodi:r1="22.733669"
     sodipodi:cy="214.91663"
     sodipodi:cx="2.857183"
     sodipodi:sides="5"
     id="path3183"
     style="opacity:1;fill:#ffffff;fill-opacity:1;stroke:none;stroke-width:0.5;stroke-linejoin:round;stroke-miterlimit:4;stroke-dasharray:none;stroke-dashoffset:0;stroke-opacity:1"
     sodipodi:type="star" />
  <path
     transform="translate(221.95851,62.796117)"
     d="M 16.190703,233.32958 L 2.8439379,223.32259 L -10.534295,233.28747 L -5.1414549,217.50161 L -18.752726,207.85748 L -2.0730021,208.10827 L 2.8930029,192.18298 L 7.808799,208.12385 L 24.489229,207.92561 L 10.847635,217.52681 L 16.190703,233.32958 z"
     inkscape:randomized="0"
     inkscape:rounded="0"
     inkscape:flatsided="false"
     sodipodi:arg2="1.572372"
     sodipodi:arg1="0.94405343"
     sodipodi:r2="8.4059725"
     sodipodi:r1="22.733669"
     sodipodi:cy="214.91663"
     sodipodi:cx="2.857183"
     sodipodi:sides="5"
     id="path3189"
     style="opacity:1;fill:#ffffff;fill-opacity:1;stroke:none;stroke-width:0.5;stroke-linejoin:round;stroke-miterlimit:4;stroke-dasharray:none;stroke-dashoffset:0;stroke-opacity:1"
     sodipodi:type="star" />
  <path
     sodipodi:type="star"
     style="opacity:1;fill:#ffffff;fill-opacity:1;stroke:none;stroke-width:0.5;stroke-linejoin:round;stroke-miterlimit:4;stroke-dasharray:none;stroke-dashoffset:0;stroke-opacity:1"
     id="path3191"
     sodipodi:sides="5"
     sodipodi:cx="2.857183"
     sodipodi:cy="214.91663"
     sodipodi:r1="22.733669"
     sodipodi:r2="8.4059725"
     sodipodi:arg1="0.94405343"
     sodipodi:arg2="1.572372"
     inkscape:flatsided="false"
     inkscape:rounded="0"
     inkscape:randomized="0"
     d="M 16.190703,233.32958 L 2.8439379,223.32259 L -10.534295,233.28747 L -5.1414549,217.50161 L -18.752726,207.85748 L -2.0730021,208.10827 L 2.8930029,192.18298 L 7.808799,208.12385 L 24.489229,207.92561 L 10.847635,217.52681 L 16.190703,233.32958 z"
     transform="matrix(-1,0,0,1,291.69501,10.158873)" />
  <path
     transform="translate(349.95851,62.796117)"
     d="M 16.190703,233.32958 L 2.8439379,223.32259 L -10.534295,233.28747 L -5.1414549,217.50161 L -18.752726,207.85748 L -2.0730021,208.10827 L 2.8930029,192.18298 L 7.808799,208.12385 L 24.489229,207.92561 L 10.847635,217.52681 L 16.190703,233.32958 z"
     inkscape:randomized="0"
     inkscape:rounded="0"
     inkscape:flatsided="false"
     sodipodi:arg2="1.572372"
     sodipodi:arg1="0.94405343"
     sodipodi:r2="8.4059725"
     sodipodi:r1="22.733669"
     sodipodi:cy="214.91663"
     sodipodi:cx="2.857183"
     sodipodi:sides="5"
     id="path3195"
     style="opacity:1;fill:#ffffff;fill-opacity:1;stroke:none;stroke-width:0.5;stroke-linejoin:round;stroke-miterlimit:4;stroke-dasharray:none;stroke-dashoffset:0;stroke-opacity:1"
     sodipodi:type="star" />
  <path
     sodipodi:type="star"
     style="opacity:1;fill:#ffffff;fill-opacity:1;stroke:none;stroke-width:0.5;stroke-linejoin:round;stroke-miterlimit:4;stroke-dasharray:none;stroke-dashoffset:0;stroke-opacity:1"
     id="path3197"
     sodipodi:sides="5"
     sodipodi:cx="2.857183"
     sodipodi:cy="214.91663"
     sodipodi:r1="22.733669"
     sodipodi:r2="8.4059725"
     sodipodi:arg1="0.94405343"
     sodipodi:arg2="1.572372"
     inkscape:flatsided="false"
     inkscape:rounded="0"
     inkscape:randomized="0"
     d="M 16.190703,233.32958 L 2.8439379,223.32259 L -10.534295,233.28747 L -5.1414549,217.50161 L -18.752726,207.85748 L -2.0730021,208.10827 L 2.8930029,192.18298 L 7.808799,208.12385 L 24.489229,207.92561 L 10.847635,217.52681 L 16.190703,233.32958 z"
     transform="matrix(-1,0,0,1,419.69501,10.158873)" />
  <path
     sodipodi:type="star"
     style="opacity:1;fill:#ffffff;fill-opacity:1;stroke:none;stroke-width:0.5;stroke-linejoin:round;stroke-miterlimit:4;stroke-dasharray:none;stroke-dashoffset:0;stroke-opacity:1"
     id="path3199"
     sodipodi:sides="5"
     sodipodi:cx="2.857183"
     sodipodi:cy="214.91663"
     sodipodi:r1="22.733669"
     sodipodi:r2="8.4059725"
     sodipodi:arg1="0.94405343"
     sodipodi:arg2="1.572372"
     inkscape:flatsided="false"
     inkscape:rounded="0"
     inkscape:randomized="0"
     d="M 16.190703,233.32958 L 2.8439379,223.32259 L -10.534295,233.28747 L -5.1414549,217.50161 L -18.752726,207.85748 L -2.0730021,208.10827 L 2.8930029,192.18298 L 7.808799,208.12385 L 24.489229,207.92561 L 10.847635,217.52681 L 16.190703,233.32958 z"
     transform="translate(477.95851,62.796117)" />
  <path
     transform="matrix(-1,0,0,1,547.69501,10.158873)"
     d="M 16.190703,233.32958 L 2.8439379,223.32259 L -10.534295,233.28747 L -5.1414549,217.50161 L -18.752726,207.85748 L -2.0730021,208.10827 L 2.8930029,192.18298 L 7.808799,208.12385 L 24.489229,207.92561 L 10.847635,217.52681 L 16.190703,233.32958 z"
     inkscape:randomized="0"
     inkscape:rounded="0"
     inkscape:flatsided="false"
     sodipodi:arg2="1.572372"
     sodipodi:arg1="0.94405343"
     sodipodi:r2="8.4059725"
     sodipodi:r1="22.733669"
     sodipodi:cy="214.91663"
     sodipodi:cx="2.857183"
     sodipodi:sides="5"
     id="path3201"
     style="opacity:1;fill:#ffffff;fill-opacity:1;stroke:none;stroke-width:0.5;stroke-linejoin:round;stroke-miterlimit:4;stroke-dasharray:none;stroke-dashoffset:0;stroke-opacity:1"
     sodipodi:type="star" />
  <path
     transform="translate(605.95851,62.796117)"
     d="M 16.190703,233.32958 L 2.8439379,223.32259 L -10.534295,233.28747 L -5.1414549,217.50161 L -18.752726,207.85748 L -2.0730021,208.10827 L 2.8930029,192.18298 L 7.808799,208.12385 L 24.489229,207.92561 L 10.847635,217.52681 L 16.190703,233.32958 z"
     inkscape:randomized="0"
     inkscape:rounded="0"
     inkscape:flatsided="false"
     sodipodi:arg2="1.572372"
     sodipodi:arg1="0.94405343"
     sodipodi:r2="8.4059725"
     sodipodi:r1="22.733669"
     sodipodi:cy="214.91663"
     sodipodi:cx="2.857183"
     sodipodi:sides="5"
     id="path3205"
     style="opacity:1;fill:#ffffff;fill-opacity:1;stroke:none;stroke-width:0.5;stroke-linejoin:round;stroke-miterlimit:4;stroke-dasharray:none;stroke-dashoffset:0;stroke-opacity:1"
     sodipodi:type="star" />
  <path
     sodipodi:type="star"
     style="opacity:1;fill:#ffffff;fill-opacity:1;stroke:none;stroke-width:0.5;stroke-linejoin:round;stroke-miterlimit:4;stroke-dasharray:none;stroke-dashoffset:0;stroke-opacity:1"
     id="path3207"
     sodipodi:sides="5"
     sodipodi:cx="2.857183"
     sodipodi:cy="214.91663"
     sodipodi:r1="22.733669"
     sodipodi:r2="8.4059725"
     sodipodi:arg1="0.94405343"
     sodipodi:arg2="1.572372"
     inkscape:flatsided="false"
     inkscape:rounded="0"
     inkscape:randomized="0"
     d="M 16.190703,233.32958 L 2.8439379,223.32259 L -10.534295,233.28747 L -5.1414549,217.50161 L -18.752726,207.85748 L -2.0730021,208.10827 L 2.8930029,192.18298 L 7.808799,208.12385 L 24.489229,207.92561 L 10.847635,217.52681 L 16.190703,233.32958 z"
     transform="matrix(-1,0,0,1,675.69501,10.158873)" />
  <path
     sodipodi:type="star"
     style="opacity:1;fill:#ffffff;fill-opacity:1;stroke:none;stroke-width:0.5;stroke-linejoin:round;stroke-miterlimit:4;stroke-dasharray:none;stroke-dashoffset:0;stroke-opacity:1"
     id="path3211"
     sodipodi:sides="5"
     sodipodi:cx="2.857183"
     sodipodi:cy="214.91663"
     sodipodi:r1="22.733669"
     sodipodi:r2="8.4059725"
     sodipodi:arg1="0.94405343"
     sodipodi:arg2="1.572372"
     inkscape:flatsided="false"
     inkscape:rounded="0"
     inkscape:randomized="0"
     d="M 16.190703,233.32958 L 2.8439379,223.32259 L -10.534295,233.28747 L -5.1414549,217.50161 L -18.752726,207.85748 L -2.0730021,208.10827 L 2.8930029,192.18298 L 7.808799,208.12385 L 24.489229,207.92561 L 10.847635,217.52681 L 16.190703,233.32958 z"
     transform="translate(733.95851,62.796117)" />
</svg>
