<?xml version="1.0" encoding="UTF-8" standalone="no"?>
<!-- Created with Inkscape (http://www.inkscape.org/) -->
<svg
   xmlns:dc="http://purl.org/dc/elements/1.1/"
   xmlns:cc="http://creativecommons.org/ns#"
   xmlns:rdf="http://www.w3.org/1999/02/22-rdf-syntax-ns#"
   xmlns:svg="http://www.w3.org/2000/svg"
   xmlns="http://www.w3.org/2000/svg"
   xmlns:sodipodi="http://sodipodi.sourceforge.net/DTD/sodipodi-0.dtd"
   xmlns:inkscape="http://www.inkscape.org/namespaces/inkscape"
   width="750"
   height="500"
   id="svg2"
   version="1.0"
   inkscape:version="0.46"
   sodipodi:docname="Flag_of_Carcasí (Santander).svg"
   sodipodi:version="0.32"
   inkscape:output_extension="org.inkscape.output.svg.inkscape">
  <defs
     id="defs4" />
  <sodipodi:namedview
     id="base"
     pagecolor="#ffffff"
     bordercolor="#666666"
     borderopacity="1.0"
     inkscape:pageopacity="0.0"
     inkscape:pageshadow="2"
     inkscape:zoom="1.014"
     inkscape:cx="375"
     inkscape:cy="250"
     inkscape:document-units="px"
     inkscape:current-layer="layer1"
     showgrid="false"
     inkscape:window-width="1024"
     inkscape:window-height="712"
     inkscape:window-x="-4"
     inkscape:window-y="-4"
     inkscape:window-maximized="1" />
  <metadata
     id="metadata7">
    <rdf:RDF>
      <cc:Work
         rdf:about="">
        <dc:format>image/svg+xml</dc:format>
        <dc:type
           rdf:resource="http://purl.org/dc/dcmitype/StillImage" />
        <dc:title />
      </cc:Work>
    </rdf:RDF>
  </metadata>
  <g
     inkscape:label="Capa 1"
     inkscape:groupmode="layer"
     id="layer1"
     transform="translate(0,-552.36218)">
    <path
       style="fill:#ffffff;fill-opacity:1;stroke:none;stroke-width:1px;stroke-linecap:butt;stroke-linejoin:miter;stroke-opacity:1"
       d="M 0.00014382079,552.36202 L 749.99985,1054.3623 L 749.99985,552.36202 L 0.00014382079,552.36202 z"
       id="path2820"
       sodipodi:nodetypes="cccc" />
    <path
       style="fill:#078930;fill-opacity:1;stroke:#fcdd09;stroke-width:1.00214922px;stroke-linecap:butt;stroke-linejoin:miter;stroke-opacity:1"
       d="M 0.0010746384,552.36326 L 0.0010746384,1054.5163 L 749.99892,1054.5163 L 0.0010746384,552.36326 z"
       id="path3594" />
    <g
       id="g2445"
       transform="matrix(0.8638186,0.8473,-0.8473,0.8638186,357.19772,7.326826)"
       style="stroke:#000000;stroke-width:0.57851243;stroke-miterlimit:4;stroke-dasharray:none;stroke-opacity:1">
      <g
         transform="translate(18.435061,5.8981827)"
         inkscape:label="Timbre"
         id="layer3"
         style="stroke:#000000;stroke-width:0.57851243;stroke-miterlimit:4;stroke-dasharray:none;stroke-opacity:1" />
      <g
         sodipodi:insensitive="true"
         style="stroke:#000000;stroke-width:0.57851243;stroke-miterlimit:4;stroke-dasharray:none;stroke-opacity:1;display:inline"
         transform="translate(18.435061,5.8981827)"
         id="g2448"
         inkscape:label="Escudo">
        <g
           style="stroke:#000000;stroke-width:0.57851243;stroke-miterlimit:4;stroke-dasharray:none;stroke-opacity:1;display:inline"
           transform="translate(-1004.0249,-238.73308)"
           id="g19953"
           inkscape:label="Escudo" />
        <g
           transform="translate(-947.59614,-315.37342)"
           style="stroke:#000000;stroke-width:0.57851243;stroke-miterlimit:4;stroke-dasharray:none;stroke-opacity:1;display:inline"
           inkscape:label="Piezas"
           id="g19955" />
        <g
           transform="translate(-947.59614,-315.37342)"
           inkscape:label="Ornamento"
           id="layer2"
           style="stroke:#000000;stroke-width:0.57851243;stroke-miterlimit:4;stroke-dasharray:none;stroke-opacity:1" />
        <g
           transform="translate(-947.59614,-315.37342)"
           style="stroke:#000000;stroke-width:0.57851243;stroke-miterlimit:4;stroke-dasharray:none;stroke-opacity:1;display:inline"
           inkscape:label="Borde 3px"
           id="g20155" />
      </g>
      <g
         transform="translate(74.863783,-70.742163)"
         inkscape:label="Piezas"
         id="layer4"
         style="stroke:#000000;stroke-width:0.57851243;stroke-miterlimit:4;stroke-dasharray:none;stroke-opacity:1" />
      <g
         transform="translate(74.863783,-70.742163)"
         inkscape:label="Muebles"
         id="layer5"
         style="stroke:#000000;stroke-width:0.57851243;stroke-miterlimit:4;stroke-dasharray:none;stroke-opacity:1" />
      <g
         transform="translate(74.863783,-70.742163)"
         inkscape:label="Ornamentos"
         id="layer6"
         style="stroke:#000000;stroke-width:0.57851243;stroke-miterlimit:4;stroke-dasharray:none;stroke-opacity:1" />
      <g
         transform="translate(74.863783,-70.742163)"
         inkscape:label="fondo borde a 3px"
         id="layer7"
         style="stroke:#000000;stroke-width:0.57851243;stroke-miterlimit:4;stroke-dasharray:none;stroke-opacity:1">
        <g
           transform="matrix(0.4370209,0,0,0.4370209,-984.82396,486.74642)"
           style="stroke:#000000;stroke-width:1.32376373;stroke-miterlimit:4;stroke-dasharray:none;stroke-opacity:1;display:inline"
           inkscape:label="Reflet final"
           id="g6810" />
        <g
           id="g3043"
           style="fill:#eac102;fill-opacity:1;stroke:#000000;stroke-width:0.9243781;stroke-miterlimit:4;stroke-dasharray:none;stroke-opacity:1;display:inline"
           transform="matrix(-0.6258396,0,0,0.6258396,1094.1138,339.67079)">
          <g
             id="g3045"
             transform="matrix(0.857122,-0.757829,0.757829,0.857122,-60.66785,913.1328)"
             style="fill:#eac102;fill-opacity:1;stroke:#000000;stroke-width:0.80795276;stroke-miterlimit:4;stroke-dasharray:none;stroke-opacity:1">
            <path
               style="fill:#eac102;fill-opacity:1;fill-rule:evenodd;stroke:#000000;stroke-width:0.80795276;stroke-linecap:butt;stroke-linejoin:miter;stroke-miterlimit:4;stroke-dasharray:none;stroke-opacity:1"
               d="M 1017.4603,390.15873 C 1056.0119,334.82077 1062.5408,305.8837 1073.0159,271.11111 C 1035.3341,287.38109 1020.1301,321.0632 993.6508,358.4127 C 1012.3942,311.45317 1037.9204,252.96986 1077.7778,231.42857 C 1088.6813,232.63749 1094.916,239.21563 1101.5873,248.88889 C 1100.5292,270.38107 1079.6297,314.74206 1057.9365,346.1111 L 1115.0794,283.01587 L 1117.8571,285.39682 L 1057.9365,352.85714 C 1078.5526,339.87539 1100.2835,328.00835 1123.0159,317.14286 C 1134.7878,321.82551 1140.0671,327.80668 1141.2698,334.60317 C 1102.7534,396.08874 1078.0938,392.30171 1042.0635,415.55555 C 1064.3118,393.31475 1092.1154,382.18411 1108.7302,344.92063 C 1068.9978,356.75843 1048.7892,374.46874 1019.0476,394.92063 L 1017.4603,390.15873 z"
               id="path3047"
               sodipodi:nodetypes="ccccccccccccccc" />
            <g
               style="fill:#eac102;fill-opacity:1;stroke:#000000;stroke-width:0.80795276;stroke-miterlimit:4;stroke-dasharray:none;stroke-opacity:1"
               id="g3049">
              <path
                 sodipodi:nodetypes="ccc"
                 id="path3051"
                 d="M 1236.4899,151.03623 C 1216.9981,173.12165 1225.1614,189.52267 1202.9382,188.39062 C 1201.3873,165.87634 1217.3157,172.36623 1236.4899,151.03623 z"
                 style="fill:#eac102;fill-opacity:1;fill-rule:evenodd;stroke:#000000;stroke-width:0.80795276;stroke-linecap:butt;stroke-linejoin:miter;stroke-miterlimit:4;stroke-dasharray:none;stroke-opacity:1;display:inline" />
              <g
                 style="fill:#eac102;fill-opacity:1;stroke:#000000;stroke-width:0.80795276;stroke-miterlimit:4;stroke-dasharray:none;stroke-opacity:1"
                 id="g3053">
                <path
                   style="fill:#eac102;fill-opacity:1;fill-rule:evenodd;stroke:#000000;stroke-width:0.80795276;stroke-linecap:butt;stroke-linejoin:miter;stroke-miterlimit:4;stroke-dasharray:none;stroke-opacity:1;display:inline"
                   d="M 1210.4388,152.46032 C 1197.1937,179.70899 1215.8935,177.59259 1188.2165,204.04761 C 1187.0827,200.67077 1191.1316,194.46122 1190.7673,191.70645 C 1190.9047,170.54669 1203.8155,166.49048 1210.4388,152.46032 z"
                   id="path3055"
                   sodipodi:nodetypes="cccc" />
                <path
                   style="fill:#eac102;fill-opacity:1;fill-rule:evenodd;stroke:#000000;stroke-width:0.80795276;stroke-linecap:butt;stroke-linejoin:miter;stroke-miterlimit:4;stroke-dasharray:none;stroke-opacity:1;display:inline"
                   d="M 1185.0419,167.53968 C 1182.511,183.67724 1200.8142,194.65608 1175.5181,217.93651 C 1176.4283,213.84166 1177.9298,207.93979 1176.9791,205.8197 C 1174.1911,194.47551 1184.7181,181.95933 1185.0419,167.53968 z"
                   id="path3057"
                   sodipodi:nodetypes="cccc" />
                <path
                   style="fill:#eac102;fill-opacity:1;fill-rule:evenodd;stroke:#000000;stroke-width:0.80795276;stroke-linecap:butt;stroke-linejoin:miter;stroke-miterlimit:4;stroke-dasharray:none;stroke-opacity:1;display:inline"
                   d="M 1172.578,181.23016 C 1170.0471,197.36772 1188.3503,208.34656 1163.0542,231.62699 C 1163.9644,227.53214 1165.4659,221.63027 1164.5152,219.51018 C 1161.7272,208.16599 1172.2542,195.64981 1172.578,181.23016 z"
                   id="path3059"
                   sodipodi:nodetypes="cccc" />
                <path
                   style="fill:#eac102;fill-opacity:1;fill-rule:evenodd;stroke:#000000;stroke-width:0.80795276;stroke-linecap:butt;stroke-linejoin:miter;stroke-miterlimit:4;stroke-dasharray:none;stroke-opacity:1;display:inline"
                   d="M 1160.6732,194.72222 C 1158.1423,210.85978 1176.4455,221.83862 1151.1494,245.11905 C 1152.0596,241.0242 1153.5611,235.12233 1152.6104,233.00224 C 1149.8224,221.65805 1160.3494,209.14187 1160.6732,194.72222 z"
                   id="path3061"
                   sodipodi:nodetypes="cccc" />
                <path
                   style="fill:#eac102;fill-opacity:1;fill-rule:evenodd;stroke:#000000;stroke-width:0.80795276;stroke-linecap:butt;stroke-linejoin:miter;stroke-miterlimit:4;stroke-dasharray:none;stroke-opacity:1;display:inline"
                   d="M 1148.3716,208.21427 C 1145.8407,224.35183 1164.1439,235.33067 1138.8478,258.6111 C 1139.758,254.51625 1141.2595,248.61438 1140.3088,246.49429 C 1137.5208,235.1501 1148.0478,222.63392 1148.3716,208.21427 z"
                   id="path3063"
                   sodipodi:nodetypes="cccc" />
                <path
                   style="fill:#eac102;fill-opacity:1;fill-rule:evenodd;stroke:#000000;stroke-width:0.80795276;stroke-linecap:butt;stroke-linejoin:miter;stroke-miterlimit:4;stroke-dasharray:none;stroke-opacity:1;display:inline"
                   d="M 1136.4669,221.70634 C 1133.936,237.8439 1152.2392,248.82274 1126.9431,272.10317 C 1127.8533,268.00832 1129.3548,262.10645 1128.4041,259.98636 C 1125.6161,248.64217 1136.1431,236.12599 1136.4669,221.70634 z"
                   id="path3065"
                   sodipodi:nodetypes="cccc" />
                <path
                   style="fill:#eac102;fill-opacity:1;fill-rule:evenodd;stroke:#000000;stroke-width:0.80795276;stroke-linecap:butt;stroke-linejoin:miter;stroke-miterlimit:4;stroke-dasharray:none;stroke-opacity:1;display:inline"
                   d="M 1124.1653,235.19841 C 1121.6344,251.33597 1139.9376,262.31481 1114.6415,285.59524 C 1115.5517,281.50039 1117.0532,275.59852 1116.1025,273.47843 C 1113.3145,262.13424 1123.8415,249.61806 1124.1653,235.19841 z"
                   id="path3067"
                   sodipodi:nodetypes="cccc" />
              </g>
              <g
                 transform="matrix(-0.104529,-0.994523,-0.994523,0.104529,1516.331,1364.704)"
                 id="g3069"
                 style="fill:#eac102;fill-opacity:1;stroke:#000000;stroke-width:0.80795181;stroke-miterlimit:4;stroke-dasharray:none;stroke-opacity:1;display:inline">
                <path
                   style="fill:#eac102;fill-opacity:1;fill-rule:evenodd;stroke:#000000;stroke-width:0.80795181;stroke-linecap:butt;stroke-linejoin:miter;stroke-miterlimit:4;stroke-dasharray:none;stroke-opacity:1;display:inline"
                   d="M 1210.4388,152.46032 C 1197.1937,179.70899 1215.8935,177.59259 1188.2165,204.04761 C 1187.0827,200.67077 1191.1316,194.46122 1190.7673,191.70645 C 1190.9047,170.54669 1203.8155,166.49048 1210.4388,152.46032 z"
                   id="path3071"
                   sodipodi:nodetypes="cccc" />
                <path
                   style="fill:#eac102;fill-opacity:1;fill-rule:evenodd;stroke:#000000;stroke-width:0.80795181;stroke-linecap:butt;stroke-linejoin:miter;stroke-miterlimit:4;stroke-dasharray:none;stroke-opacity:1;display:inline"
                   d="M 1185.0419,167.53968 C 1182.511,183.67724 1200.8142,194.65608 1175.5181,217.93651 C 1176.4283,213.84166 1177.9298,207.93979 1176.9791,205.8197 C 1174.1911,194.47551 1184.7181,181.95933 1185.0419,167.53968 z"
                   id="path3073"
                   sodipodi:nodetypes="cccc" />
                <path
                   style="fill:#eac102;fill-opacity:1;fill-rule:evenodd;stroke:#000000;stroke-width:0.80795181;stroke-linecap:butt;stroke-linejoin:miter;stroke-miterlimit:4;stroke-dasharray:none;stroke-opacity:1;display:inline"
                   d="M 1172.578,181.23016 C 1170.0471,197.36772 1188.3503,208.34656 1163.0542,231.62699 C 1163.9644,227.53214 1165.4659,221.63027 1164.5152,219.51018 C 1161.7272,208.16599 1172.2542,195.64981 1172.578,181.23016 z"
                   id="path3075"
                   sodipodi:nodetypes="cccc" />
                <path
                   style="fill:#eac102;fill-opacity:1;fill-rule:evenodd;stroke:#000000;stroke-width:0.80795181;stroke-linecap:butt;stroke-linejoin:miter;stroke-miterlimit:4;stroke-dasharray:none;stroke-opacity:1;display:inline"
                   d="M 1160.6732,194.72222 C 1158.1423,210.85978 1176.4455,221.83862 1151.1494,245.11905 C 1152.0596,241.0242 1153.5611,235.12233 1152.6104,233.00224 C 1149.8224,221.65805 1160.3494,209.14187 1160.6732,194.72222 z"
                   id="path3077"
                   sodipodi:nodetypes="cccc" />
                <path
                   style="fill:#eac102;fill-opacity:1;fill-rule:evenodd;stroke:#000000;stroke-width:0.80795181;stroke-linecap:butt;stroke-linejoin:miter;stroke-miterlimit:4;stroke-dasharray:none;stroke-opacity:1;display:inline"
                   d="M 1148.3716,208.21427 C 1145.8407,224.35183 1164.1439,235.33067 1138.8478,258.6111 C 1139.758,254.51625 1141.2595,248.61438 1140.3088,246.49429 C 1137.5208,235.1501 1148.0478,222.63392 1148.3716,208.21427 z"
                   id="path3079"
                   sodipodi:nodetypes="cccc" />
                <path
                   style="fill:#eac102;fill-opacity:1;fill-rule:evenodd;stroke:#000000;stroke-width:0.80795181;stroke-linecap:butt;stroke-linejoin:miter;stroke-miterlimit:4;stroke-dasharray:none;stroke-opacity:1;display:inline"
                   d="M 1136.4669,221.70634 C 1133.936,237.8439 1152.2392,248.82274 1126.9431,272.10317 C 1127.8533,268.00832 1129.3548,262.10645 1128.4041,259.98636 C 1125.6161,248.64217 1136.1431,236.12599 1136.4669,221.70634 z"
                   id="path3081"
                   sodipodi:nodetypes="cccc" />
                <path
                   style="fill:#eac102;fill-opacity:1;fill-rule:evenodd;stroke:#000000;stroke-width:0.80795181;stroke-linecap:butt;stroke-linejoin:miter;stroke-miterlimit:4;stroke-dasharray:none;stroke-opacity:1;display:inline"
                   d="M 1124.1653,235.19841 C 1121.6344,251.33597 1139.9376,262.31481 1114.6415,285.59524 C 1115.5517,281.50039 1117.0532,275.59852 1116.1025,273.47843 C 1113.3145,262.13424 1123.8415,249.61806 1124.1653,235.19841 z"
                   id="path3083"
                   sodipodi:nodetypes="cccc" />
              </g>
            </g>
            <path
               style="fill:#eac102;fill-opacity:1;fill-rule:evenodd;stroke:#000000;stroke-width:0.80795276;stroke-linecap:butt;stroke-linejoin:miter;stroke-miterlimit:4;stroke-dasharray:none;stroke-opacity:1"
               d="M 1072.2222,271.90476 C 1076.271,257.50403 1077.2639,244.78329 1078.1746,231.42857"
               id="path3085"
               sodipodi:nodetypes="cc" />
            <path
               style="fill:#eac102;fill-opacity:1;fill-rule:evenodd;stroke:#000000;stroke-width:0.80795276;stroke-linecap:butt;stroke-linejoin:miter;stroke-miterlimit:4;stroke-dasharray:none;stroke-opacity:1"
               d="M 1076.1905,248.88889 C 1062.7023,258.14815 1053.0652,267.40741 1044.8413,276.66667"
               id="path3087"
               sodipodi:nodetypes="cc" />
            <path
               style="fill:#eac102;fill-opacity:1;fill-rule:evenodd;stroke:#000000;stroke-width:0.80795276;stroke-linecap:butt;stroke-linejoin:miter;stroke-miterlimit:4;stroke-dasharray:none;stroke-opacity:1"
               d="M 1078.9683,284.60317 C 1067.9904,321.25852 1050.0228,349.92154 1026.5873,379.84126"
               id="path3089"
               sodipodi:nodetypes="cc" />
            <path
               style="fill:#eac102;fill-opacity:1;fill-rule:evenodd;stroke:#000000;stroke-width:0.80795276;stroke-linecap:butt;stroke-linejoin:miter;stroke-miterlimit:4;stroke-dasharray:none;stroke-opacity:1"
               d="M 1060.3175,350.87301 L 1017.4603,390.15873 L 1017.4603,390.15873"
               id="path3091" />
            <path
               style="fill:#eac102;fill-opacity:1;fill-rule:evenodd;stroke:#000000;stroke-width:0.80795276;stroke-linecap:butt;stroke-linejoin:miter;stroke-miterlimit:4;stroke-dasharray:none;stroke-opacity:1"
               d="M 1059.5238,344.12698 L 1027.7777,381.42857"
               id="path3093"
               sodipodi:nodetypes="cc" />
            <path
               style="fill:#eac102;fill-opacity:1;fill-rule:evenodd;stroke:#000000;stroke-width:0.80795276;stroke-linecap:butt;stroke-linejoin:miter;stroke-miterlimit:4;stroke-dasharray:none;stroke-opacity:1"
               d="M 1095.6349,340.15873 C 1054.806,358.01587 1042.1517,374.68254 1018.6508,392.53968"
               id="path3095"
               sodipodi:nodetypes="cc" />
            <path
               style="fill:#eac102;fill-opacity:1;fill-rule:evenodd;stroke:#000000;stroke-width:0.80795276;stroke-linecap:butt;stroke-linejoin:miter;stroke-miterlimit:4;stroke-dasharray:none;stroke-opacity:1"
               d="M 1107.1428,345.71428 C 1115.9854,341.55686 1126.3642,337.70672 1140.4761,334.60317"
               id="path3097"
               sodipodi:nodetypes="cc" />
            <path
               style="fill:#eac102;fill-opacity:1;fill-rule:evenodd;stroke:#000000;stroke-width:0.80795276;stroke-linecap:butt;stroke-linejoin:miter;stroke-miterlimit:4;stroke-dasharray:none;stroke-opacity:1"
               d="M 1127.381,337.77778 C 1120.2661,349.66205 1112.9268,360.64889 1104.7619,368.33333"
               id="path3099"
               sodipodi:nodetypes="cc" />
          </g>
        </g>
      </g>
    </g>
  </g>
</svg>
