<?xml version="1.0" encoding="UTF-8" standalone="no"?>
<!-- Created with Inkscape (http://www.inkscape.org/) -->

<svg
   xmlns:dc="http://purl.org/dc/elements/1.1/"
   xmlns:cc="http://creativecommons.org/ns#"
   xmlns:rdf="http://www.w3.org/1999/02/22-rdf-syntax-ns#"
   xmlns:svg="http://www.w3.org/2000/svg"
   xmlns="http://www.w3.org/2000/svg"
   xmlns:sodipodi="http://sodipodi.sourceforge.net/DTD/sodipodi-0.dtd"
   xmlns:inkscape="http://www.inkscape.org/namespaces/inkscape"
   width="1000"
   height="500"
   id="svg2"
   version="1.1"
   inkscape:version="0.48.3.1 r9886"
   sodipodi:docname="Flag of Miraflores (Guaviare).svg">
  <defs
     id="defs4">
    <inkscape:perspective
       sodipodi:type="inkscape:persp3d"
       inkscape:vp_x="0 : 526.18109 : 1"
       inkscape:vp_y="0 : 1000 : 0"
       inkscape:vp_z="744.09448 : 526.18109 : 1"
       inkscape:persp3d-origin="372.04724 : 350.78739 : 1"
       id="perspective10" />
    <inkscape:perspective
       id="perspective2828"
       inkscape:persp3d-origin="0.5 : 0.33333333 : 1"
       inkscape:vp_z="1 : 0.5 : 1"
       inkscape:vp_y="0 : 1000 : 0"
       inkscape:vp_x="0 : 0.5 : 1"
       sodipodi:type="inkscape:persp3d" />
  </defs>
  <sodipodi:namedview
     id="base"
     pagecolor="#ffffff"
     bordercolor="#666666"
     borderopacity="1.0"
     inkscape:pageopacity="0.0"
     inkscape:pageshadow="2"
     inkscape:zoom="0.62"
     inkscape:cx="475.3408"
     inkscape:cy="252.95834"
     inkscape:document-units="px"
     inkscape:current-layer="layer1"
     showgrid="false"
     inkscape:window-width="1280"
     inkscape:window-height="962"
     inkscape:window-x="-8"
     inkscape:window-y="-8"
     inkscape:window-maximized="1" />
  <metadata
     id="metadata7">
    <rdf:RDF>
      <cc:Work
         rdf:about="">
        <dc:format>image/svg+xml</dc:format>
        <dc:type
           rdf:resource="http://purl.org/dc/dcmitype/StillImage" />
        <dc:title></dc:title>
      </cc:Work>
    </rdf:RDF>
  </metadata>
  <g
     inkscape:label="Capa 1"
     inkscape:groupmode="layer"
     id="layer1"
     transform="translate(0,-552.36218)">
    <rect
       style="fill:#fcdd09;fill-opacity:1;stroke:none"
       id="rect2816"
       width="1000"
       height="166.666"
       x="0"
       y="552.36218" />
    <rect
       style="fill:#078930;fill-opacity:1;stroke:none"
       id="rect2818"
       width="1000"
       height="166.666"
       x="0"
       y="719.03015" />
    <rect
       style="fill:#fcdd09;fill-opacity:1;stroke:none"
       id="rect2816-1"
       width="1000"
       height="166.666"
       x="0"
       y="885.69617" />
    <path
       style="fill:#ffffff;stroke:none"
       d="m 0,552.36218 400,250 L 0,1052.3622"
       id="path2836"
       inkscape:connector-curvature="0" />
    <path
       sodipodi:type="star"
       style="fill:#fcdd09;fill-opacity:1;stroke:none"
       id="path6314"
       sodipodi:sides="26"
       sodipodi:cx="83.870972"
       sodipodi:cy="201.6129"
       sodipodi:r1="109.64184"
       sodipodi:r2="57.897057"
       sodipodi:arg1="1.1137276"
       sodipodi:arg2="1.2345581"
       inkscape:flatsided="false"
       inkscape:rounded="3.469447e-018"
       inkscape:randomized="0"
       d="m 132.25807,300 -29.28464,-43.73213 4.33302,52.45297 L 89.338557,259.25121 80.992851,311.21696 75.385928,258.88482 54.846517,307.34328 61.92642,255.19 30.386978,297.32494 49.742249,248.38147 9.0357345,281.74417 39.541515,238.85493 -7.9663569,261.50645 31.917049,227.16401 l -51.548246,10.62393 46.943152,-23.79979 -52.592821,-2.02108 51.274732,-11.87398 -50.580894,-14.54864 52.626412,0.7419 -45.629389,-26.23067 50.919636,13.31466 -38.0260701,-36.38829 46.2535961,25.11364 -28.212814,-44.43115 38.899465,35.45309 -16.759932,-49.89183 29.284639,43.73213 -4.333023,-52.452971 17.967895,49.469631 8.345705,-51.965746 5.606923,52.332136 20.539415,-48.458462 -7.07991,52.153282 31.53945,-42.13494 -19.35528,48.94347 40.70652,-33.3627 -30.50578,42.88924 47.50787,-22.65152 -39.88341,34.34244 51.54825,-10.62393 -46.94315,23.79979 52.59282,2.02108 -51.27473,11.87398 50.58089,14.54863 -52.62641,-0.74189 45.62939,26.23067 -50.91964,-13.31466 38.02607,36.38829 -46.25359,-25.11364 28.21281,44.43115 -38.89946,-35.45309 z"
       transform="matrix(1.1451937,0,0,1.1404687,18.951489,572.42898)" />
  </g>
</svg>
