<?xml version="1.0" encoding="UTF-8" standalone="no"?>
<!-- Created with Inkscape (http://www.inkscape.org/) -->
<svg
   xmlns:dc="http://purl.org/dc/elements/1.1/"
   xmlns:cc="http://creativecommons.org/ns#"
   xmlns:rdf="http://www.w3.org/1999/02/22-rdf-syntax-ns#"
   xmlns:svg="http://www.w3.org/2000/svg"
   xmlns="http://www.w3.org/2000/svg"
   xmlns:sodipodi="http://sodipodi.sourceforge.net/DTD/sodipodi-0.dtd"
   xmlns:inkscape="http://www.inkscape.org/namespaces/inkscape"
   width="1000"
   height="500"
   id="svg2"
   version="1.1"
   inkscape:version="0.46"
   sodipodi:docname="Flag_of_Cerro de San Antonio_(Magdalena).svg"
   sodipodi:version="0.32"
   inkscape:output_extension="org.inkscape.output.svg.inkscape">
  <defs
     id="defs4" />
  <sodipodi:namedview
     id="base"
     pagecolor="#ffffff"
     bordercolor="#666666"
     borderopacity="1.0"
     inkscape:pageopacity="0.0"
     inkscape:pageshadow="2"
     inkscape:zoom="0.928"
     inkscape:cx="500"
     inkscape:cy="250"
     inkscape:document-units="px"
     inkscape:current-layer="layer1"
     showgrid="false"
     inkscape:window-width="1024"
     inkscape:window-height="712"
     inkscape:window-x="-4"
     inkscape:window-y="-4"
     inkscape:window-maximized="1" />
  <metadata
     id="metadata7">
    <rdf:RDF>
      <cc:Work
         rdf:about="">
        <dc:format>image/svg+xml</dc:format>
        <dc:type
           rdf:resource="http://purl.org/dc/dcmitype/StillImage" />
        <dc:title />
      </cc:Work>
    </rdf:RDF>
  </metadata>
  <g
     inkscape:label="Capa 1"
     inkscape:groupmode="layer"
     id="layer1"
     transform="translate(0,-552.36218)">
    <rect
       style="fill:#da121a;fill-opacity:1;stroke:none"
       id="rect2830"
       width="1000"
       height="166.66663"
       x="0"
       y="552.36182"
       rx="8.8817842e-16"
       ry="1.1842376e-15" />
    <rect
       style="fill:#fcdd09;fill-opacity:1;stroke:none"
       id="rect2832"
       width="1000"
       height="166.66663"
       x="0"
       y="719.02893"
       rx="8.8817842e-16"
       ry="1.1842376e-15" />
    <rect
       style="fill:#078930;fill-opacity:1;stroke:none"
       id="rect2834"
       width="1000"
       height="166.66663"
       x="0"
       y="885.69556"
       rx="8.8817842e-16"
       ry="1.1842376e-15" />
    <g
       transform="matrix(1.331,0,0,1.331,32.142728,-194.264)"
       id="g2392"
       inkscape:label="Capa 1"
       style="fill:#ffffff">
      <path
         transform="matrix(0.6474989,0,0,0.679842,16.688308,590.86974)"
         d="M -1.6369,98.959498 L 12.625453,56.812948 L -23.456887,30.77814 L 21.034173,31.318443 L 34.644691,-11.0431 L 47.879326,31.437376 L 92.373428,31.291311 L 56.061822,57.005386 L 69.950172,99.276655 L 34.27373,72.688352 L -1.6369,98.959498 z"
         inkscape:randomized="0"
         inkscape:rounded="3.469447e-18"
         inkscape:flatsided="false"
         sodipodi:arg2="2.8318637"
         sodipodi:arg1="2.2035452"
         sodipodi:r2="22.836075"
         sodipodi:r1="60.896198"
         sodipodi:cy="49.852501"
         sodipodi:cx="34.374901"
         sodipodi:sides="5"
         id="path3100"
         style="fill:#ffffff;fill-opacity:1;stroke:none"
         sodipodi:type="star" />
    </g>
    <g
       style="fill:#ffffff"
       inkscape:label="Capa 1"
       id="g2395"
       transform="matrix(1.331,0,0,1.331,32.142728,141.736)">
      <path
         sodipodi:type="star"
         style="fill:#ffffff;fill-opacity:1;stroke:none"
         id="path2397"
         sodipodi:sides="5"
         sodipodi:cx="34.374901"
         sodipodi:cy="49.852501"
         sodipodi:r1="60.896198"
         sodipodi:r2="22.836075"
         sodipodi:arg1="2.2035452"
         sodipodi:arg2="2.8318637"
         inkscape:flatsided="false"
         inkscape:rounded="3.469447e-18"
         inkscape:randomized="0"
         d="M -1.6369,98.959498 L 12.625453,56.812948 L -23.456887,30.77814 L 21.034173,31.318443 L 34.644691,-11.0431 L 47.879326,31.437376 L 92.373428,31.291311 L 56.061822,57.005386 L 69.950172,99.276655 L 34.27373,72.688352 L -1.6369,98.959498 z"
         transform="matrix(0.6474989,0,0,0.679842,16.688308,590.86974)" />
    </g>
    <g
       style="fill:#ffffff"
       inkscape:label="Capa 1"
       id="g2399"
       transform="matrix(1.331,0,0,1.331,864.14273,-194.264)">
      <path
         sodipodi:type="star"
         style="fill:#ffffff;fill-opacity:1;stroke:none"
         id="path2401"
         sodipodi:sides="5"
         sodipodi:cx="34.374901"
         sodipodi:cy="49.852501"
         sodipodi:r1="60.896198"
         sodipodi:r2="22.836075"
         sodipodi:arg1="2.2035452"
         sodipodi:arg2="2.8318637"
         inkscape:flatsided="false"
         inkscape:rounded="3.469447e-18"
         inkscape:randomized="0"
         d="M -1.6369,98.959498 L 12.625453,56.812948 L -23.456887,30.77814 L 21.034173,31.318443 L 34.644691,-11.0431 L 47.879326,31.437376 L 92.373428,31.291311 L 56.061822,57.005386 L 69.950172,99.276655 L 34.27373,72.688352 L -1.6369,98.959498 z"
         transform="matrix(0.6474989,0,0,0.679842,16.688308,590.86974)" />
    </g>
    <g
       transform="matrix(1.331,0,0,1.331,864.14273,141.736)"
       id="g2403"
       inkscape:label="Capa 1"
       style="fill:#ffffff">
      <path
         transform="matrix(0.6474989,0,0,0.679842,16.688308,590.86974)"
         d="M -1.6369,98.959498 L 12.625453,56.812948 L -23.456887,30.77814 L 21.034173,31.318443 L 34.644691,-11.0431 L 47.879326,31.437376 L 92.373428,31.291311 L 56.061822,57.005386 L 69.950172,99.276655 L 34.27373,72.688352 L -1.6369,98.959498 z"
         inkscape:randomized="0"
         inkscape:rounded="3.469447e-18"
         inkscape:flatsided="false"
         sodipodi:arg2="2.8318637"
         sodipodi:arg1="2.2035452"
         sodipodi:r2="22.836075"
         sodipodi:r1="60.896198"
         sodipodi:cy="49.852501"
         sodipodi:cx="34.374901"
         sodipodi:sides="5"
         id="path2405"
         style="fill:#ffffff;fill-opacity:1;stroke:none"
         sodipodi:type="star" />
    </g>
  </g>
</svg>
