<?xml version="1.0" encoding="UTF-8" standalone="no"?>
<!-- Created with Inkscape (http://www.inkscape.org/) -->
<svg
   xmlns:dc="http://purl.org/dc/elements/1.1/"
   xmlns:cc="http://creativecommons.org/ns#"
   xmlns:rdf="http://www.w3.org/1999/02/22-rdf-syntax-ns#"
   xmlns:svg="http://www.w3.org/2000/svg"
   xmlns="http://www.w3.org/2000/svg"
   xmlns:sodipodi="http://sodipodi.sourceforge.net/DTD/sodipodi-0.dtd"
   xmlns:inkscape="http://www.inkscape.org/namespaces/inkscape"
   width="750"
   height="500"
   id="svg2"
   version="1.1"
   inkscape:version="0.46"
   sodipodi:docname="Flag_of_Chimichagua (Cesar).svg"
   sodipodi:version="0.32"
   inkscape:output_extension="org.inkscape.output.svg.inkscape">
  <defs
     id="defs4">
    <inkscape:perspective
       sodipodi:type="inkscape:persp3d"
       inkscape:vp_x="0 : 526.18109 : 1"
       inkscape:vp_y="0 : 1000 : 0"
       inkscape:vp_z="744.09448 : 526.18109 : 1"
       inkscape:persp3d-origin="372.04724 : 350.78739 : 1"
       id="perspective10" />
  </defs>
  <sodipodi:namedview
     id="base"
     pagecolor="#ffffff"
     bordercolor="#666666"
     borderopacity="1.0"
     inkscape:pageopacity="0.0"
     inkscape:pageshadow="2"
     inkscape:zoom="1.014"
     inkscape:cx="375"
     inkscape:cy="250"
     inkscape:document-units="px"
     inkscape:current-layer="layer1"
     showgrid="false"
     inkscape:window-width="1024"
     inkscape:window-height="712"
     inkscape:window-x="-4"
     inkscape:window-y="-4"
     inkscape:window-maximized="1" />
  <metadata
     id="metadata7">
    <rdf:RDF>
      <cc:Work
         rdf:about="">
        <dc:format>image/svg+xml</dc:format>
        <dc:type
           rdf:resource="http://purl.org/dc/dcmitype/StillImage" />
        <dc:title />
      </cc:Work>
    </rdf:RDF>
  </metadata>
  <g
     inkscape:label="Capa 1"
     inkscape:groupmode="layer"
     id="layer1"
     transform="translate(0,-552.36218)">
    <path
       style="fill:#da121a;fill-opacity:1;stroke:none"
       d="M 750,1052.3622 L 3e-05,552.3622 L 3e-05,1052.3622 L 750,1052.3622 L 750,1052.3622 z"
       id="path2820"
       inkscape:connector-curvature="0"
       sodipodi:nodetypes="ccccc" />
    <path
       style="fill:#0f47af;fill-opacity:1;stroke:none"
       d="M 750,1052.3622 L 750,552.36218 L 0,552.36218 L 750,1052.3622 z"
       id="path3594"
       inkscape:connector-curvature="0"
       sodipodi:nodetypes="cccc" />
    <g
       id="g2889"
       transform="matrix(0.93532379,0,0,0.87813853,263.49114,563.24238)" />
    <path
       sodipodi:type="arc"
       style="opacity:1;fill:#ffffff;fill-opacity:1;stroke:none;stroke-width:2.50000000000000000;stroke-linejoin:round;stroke-miterlimit:4;stroke-dasharray:none;stroke-dashoffset:0;stroke-opacity:1"
       id="path2407"
       sodipodi:cx="238.90942"
       sodipodi:cy="240.75786"
       sodipodi:rx="190.85028"
       sodipodi:ry="190.85028"
       d="M 429.7597,240.75786 A 190.85028,190.85028 0 1 1 48.059143,240.75786 A 190.85028,190.85028 0 1 1 429.7597,240.75786 z"
       transform="matrix(0.8,0,0,0.8,187.64814,605.84292)" />
    <path
       style="font-size:35px;font-style:normal;font-variant:normal;font-weight:bold;font-stretch:normal;text-align:center;line-height:125%;writing-mode:lr-tb;text-anchor:middle;fill:#000000;fill-opacity:1;stroke:none;stroke-width:1px;stroke-linecap:butt;stroke-linejoin:miter;stroke-opacity:1;font-family:Century Gothic;-inkscape-font-specification:Century Gothic Bold"
       d="M 351.02475,721.50305 L 356.10043,721.50305 C 358.84619,721.50308 360.82576,721.75658 362.03915,722.26355 C 363.25252,722.77057 364.20955,723.59088 364.91025,724.72449 C 365.61091,725.85813 365.96126,727.21678 365.96127,728.80042 C 365.96126,730.55499 365.50268,732.01332 364.58554,733.17542 C 363.66837,734.33754 362.42366,735.14646 360.85141,735.60217 C 359.92855,735.86423 358.24805,735.99525 355.80991,735.99524 L 355.80991,746.64221 L 351.02475,746.64221 L 351.02475,721.50305 z M 355.80991,731.32971 L 357.3309,731.32971 C 358.52718,731.32973 359.35889,731.24428 359.82602,731.07336 C 360.29313,730.90248 360.66056,730.6205 360.92831,730.22742 C 361.19604,729.83437 361.32991,729.3587 361.32993,728.80042 C 361.32991,727.83201 360.95394,727.12563 360.202,726.68127 C 359.65511,726.35089 358.64111,726.18569 357.16,726.18567 L 355.80991,726.18567 L 355.80991,731.32971 z M 378.31723,721.50305 L 383.17075,721.50305 L 392.8436,746.64221 L 387.87045,746.64221 L 385.90512,741.46399 L 375.65121,741.46399 L 373.60043,746.64221 L 368.62729,746.64221 L 378.31723,721.50305 z M 380.77817,728.16809 L 377.42856,736.79846 L 384.11069,736.79846 L 380.77817,728.16809 z M 395.23618,721.50305 L 410.44614,721.50305 L 401.47397,742.04504 L 409.86508,742.04504 L 409.86508,746.64221 L 394.50131,746.64221 L 403.4393,726.23694 L 395.23618,726.23694 L 395.23618,721.50305 z M 325.68051,765.25305 L 330.48276,765.25305 L 330.48276,781.52258 C 330.48275,782.92396 330.60523,783.91517 330.85019,784.49622 C 331.09514,785.07728 331.49959,785.54155 332.06357,785.88904 C 332.62752,786.23654 333.30827,786.41028 334.1058,786.41028 C 334.94889,786.41028 335.67521,786.2166 336.28476,785.82922 C 336.89428,785.44186 337.31583,784.9491 337.54941,784.35095 C 337.78295,783.75281 337.89973,782.61064 337.89975,780.92444 L 337.89975,765.25305 L 342.702,765.25305 L 342.702,780.24084 C 342.70198,782.77015 342.55956,784.5247 342.27475,785.50452 C 341.9899,786.48434 341.44587,787.42998 340.64267,788.34143 C 339.83943,789.25289 338.91373,789.92794 337.86557,790.36658 C 336.81738,790.80522 335.5983,791.02454 334.20834,791.02454 C 332.38542,791.02454 330.79891,790.60583 329.44882,789.76843 C 328.09872,788.93103 327.13314,787.88286 326.55209,786.6239 C 325.97104,785.36495 325.68051,783.23727 325.68051,780.24084 L 325.68051,765.25305 z M 348.29037,765.25305 L 352.87045,765.25305 L 363.65414,781.79602 L 363.65414,765.25305 L 368.4393,765.25305 L 368.4393,790.39221 L 363.84213,790.39221 L 353.07553,773.90051 L 353.07553,790.39221 L 348.29037,790.39221 L 348.29037,765.25305 z M 373.83969,765.25305 L 378.59067,765.25305 L 378.59067,790.39221 L 373.83969,790.39221 L 373.83969,765.25305 z M 395.83432,764.62073 C 399.38899,764.62075 402.44522,765.90819 405.00302,768.48303 C 407.56077,771.05792 408.83966,774.19675 408.83969,777.89954 C 408.83966,781.56816 407.57786,784.67282 405.05429,787.2135 C 402.53067,789.75419 399.46874,791.02454 395.8685,791.02454 C 392.09733,791.02454 388.9642,789.72001 386.46909,787.11096 C 383.97397,784.50192 382.72641,781.40296 382.72641,777.81409 C 382.72641,775.41013 383.30746,773.19985 384.46957,771.18323 C 385.63168,769.16665 387.22958,767.56875 389.26328,766.38953 C 391.29696,765.21035 393.4873,764.62075 395.83432,764.62073 L 395.83432,764.62073 z M 395.78305,769.30334 C 393.45882,769.30337 391.50488,770.11228 389.92123,771.7301 C 388.33757,773.34796 387.54574,775.40443 387.54575,777.89954 C 387.54574,780.67949 388.54265,782.87838 390.53647,784.49622 C 392.08594,785.76087 393.86328,786.39319 395.8685,786.39319 C 398.13574,786.39319 400.06689,785.57288 401.66196,783.93225 C 403.25699,782.29163 404.05451,780.26934 404.05453,777.86536 C 404.05451,775.47279 403.25129,773.44765 401.64487,771.78992 C 400.0384,770.13222 398.08447,769.30337 395.78305,769.30334 L 395.78305,769.30334 z M 413.3685,765.25305 L 417.94858,765.25305 L 428.73227,781.79602 L 428.73227,765.25305 L 433.51743,765.25305 L 433.51743,790.39221 L 428.92026,790.39221 L 418.15366,773.90051 L 418.15366,790.39221 L 413.3685,790.39221 L 413.3685,765.25305 z M 369.89194,809.00305 L 375.03598,809.00305 L 379.7186,818.02649 L 384.36703,809.00305 L 389.44272,809.00305 L 382.09409,823.25598 L 382.09409,834.14221 L 377.27475,834.14221 L 377.27475,823.25598 L 369.89194,809.00305 z M 303.41245,852.75305 L 317.30649,852.75305 L 317.30649,857.46985 L 312.72641,857.46985 L 312.72641,877.89221 L 307.87289,877.89221 L 307.87289,857.46985 L 303.41245,857.46985 L 303.41245,852.75305 z M 320.91245,852.75305 L 325.98813,852.75305 C 328.76807,852.75308 330.74764,853.00088 331.92685,853.49646 C 333.10603,853.99209 334.05452,854.81525 334.77231,855.96594 C 335.49006,857.11668 335.84895,858.47817 335.84897,860.05042 C 335.84895,861.70245 335.45304,863.08388 334.66122,864.1947 C 333.86938,865.30555 332.67594,866.1458 331.0809,866.71545 L 337.02817,877.89221 L 331.79868,877.89221 L 326.14194,867.24524 L 325.6976,867.24524 L 325.6976,877.89221 L 320.91245,877.89221 L 320.91245,852.75305 z M 325.6976,862.57971 L 327.20151,862.57971 C 328.72819,862.57973 329.77921,862.38035 330.35458,861.98157 C 330.92993,861.58282 331.21761,860.92201 331.21762,859.99915 C 331.21761,859.45229 331.07519,858.97662 330.79037,858.57214 C 330.50553,858.1677 330.12386,857.87718 329.64536,857.70056 C 329.16683,857.52399 328.28955,857.43569 327.01352,857.43567 L 325.6976,857.43567 L 325.6976,862.57971 z M 348.54672,852.75305 L 353.40024,852.75305 L 363.07309,877.89221 L 358.09995,877.89221 L 356.13461,872.71399 L 345.88071,872.71399 L 343.82993,877.89221 L 338.85678,877.89221 L 348.54672,852.75305 z M 351.00766,859.41809 L 347.65805,868.04846 L 354.34018,868.04846 L 351.00766,859.41809 z M 366.79868,877.89221 L 366.79868,852.75305 L 370.74643,852.75305 C 373.03646,852.75308 374.71126,852.90119 375.77084,853.19739 C 377.27474,853.59618 378.47102,854.33673 379.35971,855.41907 C 380.24837,856.50145 380.6927,857.77749 380.69272,859.24719 C 380.6927,860.20424 380.49047,861.07297 380.08603,861.85339 C 379.68155,862.63385 379.0236,863.36586 378.11215,864.04944 C 379.63883,864.76723 380.75536,865.66444 381.46176,866.74109 C 382.16812,867.81776 382.52131,869.09095 382.52133,870.56067 C 382.52131,871.97344 382.15673,873.26087 381.42758,874.42297 C 380.6984,875.58509 379.75846,876.45382 378.60776,877.02917 C 377.45703,877.60453 375.86767,877.89221 373.83969,877.89221 L 366.79868,877.89221 z M 371.58383,857.31604 L 371.58383,862.61389 L 372.62631,862.61389 C 373.78841,862.61391 374.65145,862.36895 375.21542,861.87903 C 375.77938,861.38914 376.06136,860.72263 376.06137,859.87952 C 376.06136,859.0934 375.79362,858.46962 375.25815,858.00818 C 374.72266,857.54677 373.90804,857.31606 372.8143,857.31604 L 371.58383,857.31604 z M 371.58383,866.88635 L 371.58383,873.32922 L 372.78012,873.32922 C 374.76253,873.32923 376.09839,873.07858 376.78769,872.57727 C 377.47697,872.07597 377.82161,871.34681 377.82162,870.38977 C 377.82161,869.30742 377.41715,868.45293 376.60825,867.82629 C 375.79931,867.19968 374.45492,866.88636 372.57504,866.88635 L 371.58383,866.88635 z M 394.75766,852.75305 L 399.61118,852.75305 L 409.28403,877.89221 L 404.31088,877.89221 L 402.34555,872.71399 L 392.09164,872.71399 L 390.04086,877.89221 L 385.06772,877.89221 L 394.75766,852.75305 z M 397.2186,859.41809 L 393.86899,868.04846 L 400.55112,868.04846 L 397.2186,859.41809 z M 419.2645,852.75305 L 424.06674,852.75305 L 424.06674,869.43274 C 424.06673,872.08737 423.85595,873.95016 423.43442,875.02112 C 423.01286,876.09208 422.31787,876.94373 421.34946,877.57605 C 420.38102,878.20837 419.21891,878.52454 417.86313,878.52454 C 415.09457,878.52454 412.73617,877.31116 410.78793,874.8844 L 414.24008,871.65442 C 415.00342,872.52031 415.65284,873.10136 416.18832,873.39758 C 416.7238,873.69381 417.24219,873.84192 417.7435,873.84192 C 418.25619,873.84192 418.63786,873.62545 418.88852,873.1925 C 419.13916,872.75957 419.26449,871.80823 419.2645,870.3385 L 419.2645,852.75305 z M 441.70346,852.12073 C 445.25813,852.12075 448.31436,853.40819 450.87216,855.98303 C 453.42992,858.55792 454.7088,861.69675 454.70883,865.39954 C 454.7088,869.06816 453.44701,872.17282 450.92343,874.7135 C 448.39981,877.25419 445.33788,878.52454 441.73764,878.52454 C 437.96647,878.52454 434.83334,877.22001 432.33823,874.61096 C 429.84311,872.00192 428.59555,868.90296 428.59555,865.31409 C 428.59555,862.91013 429.1766,860.69985 430.33871,858.68323 C 431.50082,856.66665 433.09872,855.06875 435.13242,853.88953 C 437.1661,852.71035 439.35644,852.12075 441.70346,852.12073 L 441.70346,852.12073 z M 441.65219,856.80334 C 439.32796,856.80337 437.37402,857.61228 435.79037,859.2301 C 434.20671,860.84796 433.41488,862.90443 433.41489,865.39954 C 433.41488,868.17949 434.41179,870.37838 436.40561,871.99622 C 437.95508,873.26087 439.73242,873.89319 441.73764,873.89319 C 444.00488,873.89319 445.93603,873.07288 447.5311,871.43225 C 449.12613,869.79163 449.92365,867.76934 449.92368,865.36536 C 449.92365,862.97279 449.12043,860.94765 447.51401,859.28992 C 445.90754,857.63222 443.95361,856.80337 441.65219,856.80334 L 441.65219,856.80334 z"
       id="text3183" />
  </g>
</svg>
