<?xml version="1.0" encoding="UTF-8" standalone="no"?>
<!-- Created with Inkscape (http://www.inkscape.org/) -->
<svg
   xmlns:dc="http://purl.org/dc/elements/1.1/"
   xmlns:cc="http://creativecommons.org/ns#"
   xmlns:rdf="http://www.w3.org/1999/02/22-rdf-syntax-ns#"
   xmlns:svg="http://www.w3.org/2000/svg"
   xmlns="http://www.w3.org/2000/svg"
   xmlns:sodipodi="http://sodipodi.sourceforge.net/DTD/sodipodi-0.dtd"
   xmlns:inkscape="http://www.inkscape.org/namespaces/inkscape"
   width="750"
   height="500"
   id="svg2"
   version="1.1"
   inkscape:version="0.46"
   sodipodi:docname="Flag_of_Chipatá_(Santander).svg"
   sodipodi:version="0.32"
   inkscape:output_extension="org.inkscape.output.svg.inkscape">
  <defs
     id="defs4" />
  <sodipodi:namedview
     id="base"
     pagecolor="#ffffff"
     bordercolor="#666666"
     borderopacity="1.0"
     inkscape:pageopacity="0.0"
     inkscape:pageshadow="2"
     inkscape:zoom="1.014"
     inkscape:cx="375"
     inkscape:cy="250"
     inkscape:document-units="px"
     inkscape:current-layer="layer1"
     showgrid="false"
     inkscape:window-width="1024"
     inkscape:window-height="712"
     inkscape:window-x="-4"
     inkscape:window-y="-4"
     inkscape:window-maximized="1" />
  <metadata
     id="metadata7">
    <rdf:RDF>
      <cc:Work
         rdf:about="">
        <dc:format>image/svg+xml</dc:format>
        <dc:type
           rdf:resource="http://purl.org/dc/dcmitype/StillImage" />
        <dc:title />
      </cc:Work>
    </rdf:RDF>
  </metadata>
  <g
     inkscape:label="Capa 1"
     inkscape:groupmode="layer"
     id="layer1"
     transform="translate(0,-552.36218)">
    <rect
       style="fill:#078930;fill-opacity:1;stroke:none"
       id="rect2816"
       width="750.98621"
       height="501.72415"
       x="0"
       y="552.36218"
       rx="8.8934627e-16"
       ry="1.7824813e-15" />
    <rect
       style="fill:#da121a;fill-opacity:1;stroke:none"
       id="rect2818"
       width="750"
       height="116.30118"
       x="0"
       y="746.71155"
       rx="8.8817842e-16"
       ry="8.2636894e-16" />
    <path
       id="path2439"
       style="fill:#fcdd09;fill-rule:evenodd;stroke:none;stroke-width:0.94119202999999996px;stroke-linecap:butt;stroke-linejoin:miter;stroke-opacity:1;fill-opacity:1"
       d="M 374.63127,933.33608 L 392.82796,869.79379 L 440.85402,917.39571 L 424.90993,852.09475 L 488.86276,868.96609 L 444.08313,820.16171 L 505.3371,802.98568 L 444.22878,784.09984 L 491.01867,736.47569 L 425.31417,752.01296 L 442.59069,688.06176 L 393.78957,732.03102 L 375.69013,671.17851 L 357.09971,731.88283 L 308.65537,687.52079 L 325.41474,751.60946 L 259.83789,735.54195 L 306.24155,783.5425 L 244.98266,801.9341 L 306.09589,819.60438 L 260.92348,868.04544 L 325.01051,851.69126 L 308.53944,916.86129 L 356.94847,869.64887 L 374.63127,933.33608 z"
       sodipodi:nodetypes="ccccccccccccccccccccccccc" />
    <g
       id="g3230"
       transform="matrix(1.5513282,0,0,1.5513282,86.206867,434.59544)"
       style="stroke:#000000;stroke-width:0.38676536000000000;stroke-miterlimit:4;stroke-dasharray:none;stroke-opacity:1;fill:#078930;fill-opacity:1">
      <path
         d=""
         id="path783"
         style="fill:#078930;stroke:#000000;stroke-width:0.38676536000000000;stroke-miterlimit:4;stroke-dasharray:none;stroke-opacity:1;fill-opacity:1" />
      <path
         d=""
         id="path1607"
         style="fill:#078930;stroke:#000000;stroke-width:0.38676536000000000;stroke-miterlimit:4;stroke-dasharray:none;stroke-opacity:1;fill-opacity:1" />
      <path
         d=""
         id="path1609"
         style="stroke:#000000;stroke-width:0.38676536000000000;stroke-miterlimit:4;stroke-dasharray:none;stroke-opacity:1;fill:#078930;fill-opacity:1" />
      <path
         d=""
         id="path1613"
         style="fill:#078930;stroke:#000000;stroke-width:0.38676536000000000;stroke-miterlimit:4;stroke-dasharray:none;stroke-opacity:1;fill-opacity:1" />
      <path
         d=""
         id="path1737"
         style="fill:#078930;stroke:#000000;stroke-width:0.38676536000000000;stroke-miterlimit:4;stroke-dasharray:none;stroke-opacity:1;fill-opacity:1" />
      <path
         d=""
         id="path1739"
         style="stroke:#000000;stroke-width:0.38676536000000000;stroke-miterlimit:4;stroke-dasharray:none;stroke-opacity:1;fill:#078930;fill-opacity:1" />
      <path
         d=""
         id="path1741"
         style="fill:#078930;stroke:#000000;stroke-width:0.38676536000000000;stroke-miterlimit:4;stroke-dasharray:none;stroke-opacity:1;fill-opacity:1" />
      <g
         id="g4585"
         style="stroke:#000000;stroke-width:0.38676536000000000;stroke-miterlimit:4;stroke-dasharray:none;stroke-opacity:1;fill:#078930;fill-opacity:1">
        <path
           style="fill:#078930;stroke:#000000;stroke-width:0.38676536000000000;stroke-miterlimit:4;stroke-dasharray:none;stroke-opacity:1;fill-opacity:1"
           inkscape:connector-curvature="0"
           id="path1745"
           d="M 192.88006,228.68024 C 192.88006,228.68024 199.47506,234.80524 197.75106,240.14524 C 197.75106,240.14524 201.99006,231.03524 197.43806,228.36424 C 192.88006,225.69524 192.72406,227.74124 192.88006,228.68024 L 192.88006,228.68024 z" />
        <g
           transform="translate(23.989162,-1.2157753)"
           id="g1749"
           style="stroke:#000000;stroke-width:0.38676536000000000;stroke-miterlimit:4;stroke-dasharray:none;stroke-opacity:1;fill:#078930;fill-opacity:1">
          <path
             style="fill:#078930;stroke:#000000;stroke-width:0.38676536000000000;stroke-miterlimit:4;stroke-dasharray:none;stroke-opacity:1;fill-opacity:1"
             inkscape:connector-curvature="0"
             id="path1751"
             d="M 160.566,235.861 C 160.566,235.861 158.841,238.222 160.723,239.949 C 160.723,239.949 158.683,242.928 160.256,245.445 C 160.256,245.445 158.997,248.114 159.312,250.942 C 159.312,250.942 158.211,255.338 160.566,257.383 C 160.566,257.383 163.081,258.64 164.182,257.54 C 164.182,257.54 166.379,254.243 164.964,250.783 C 164.964,250.783 166.535,247.958 164.808,244.345 C 164.808,244.345 165.28,242.303 163.866,239.95 C 163.866,239.95 164.808,238.377 164.021,237.122 C 164.021,237.122 160.882,233.821 160.566,235.861 L 160.566,235.861 z" />
          <path
             style="fill:#078930;stroke:#000000;stroke-width:0.38676536000000000;stroke-miterlimit:4;stroke-dasharray:none;stroke-opacity:1;fill-opacity:1"
             inkscape:connector-curvature="0"
             id="path1761"
             d="M 162.452,228.168 C 162.452,228.168 154.6,213.093 149.102,212.461 C 143.604,211.832 143.292,206.494 143.292,206.494 C 143.292,206.494 143.919,209.007 148.318,209.007 C 152.716,209.007 161.198,215.131 162.139,219.843 C 163.08,224.554 164.025,223.928 164.025,223.928 L 162.452,228.168 L 162.452,228.168 z" />
          <path
             style="fill:#078930;stroke:#000000;stroke-width:0.38676536000000000;stroke-miterlimit:4;stroke-dasharray:none;stroke-opacity:1;fill-opacity:1"
             inkscape:connector-curvature="0"
             id="path1765"
             d="M 162.452,227.07 C 162.452,227.07 165.28,208.066 177.69,207.75 C 190.094,207.434 186.014,208.692 188.996,206.649 C 188.996,206.649 180.675,211.05 175.489,211.676 C 170.308,212.304 166.066,222.353 166.223,224.242 C 166.379,226.125 163.397,229.739 161.983,228.484 C 160.569,227.227 162.452,227.07 162.452,227.07 z" />
          <path
             style="fill:#078930;stroke:#000000;stroke-width:0.38676536000000000;stroke-miterlimit:4;stroke-dasharray:none;stroke-opacity:1;fill-opacity:1"
             inkscape:connector-curvature="0"
             id="path1769"
             d="M 165.28,234.137 C 165.28,234.137 168.106,226.598 172.976,229.113 C 172.976,229.113 169.204,221.885 162.452,228.168 C 162.452,228.168 165.437,232.251 165.28,234.137 z" />
          <path
             style="fill:#078930;stroke:#000000;stroke-width:0.38676536000000000;stroke-miterlimit:4;stroke-dasharray:none;stroke-opacity:1;fill-opacity:1"
             inkscape:connector-curvature="0"
             id="path1773"
             d="M 155.855,226.595 C 155.855,226.595 159.94,243.403 153.656,248.584 C 153.656,248.584 153.812,239.95 150.043,234.766 C 146.276,229.58 153.812,223.93 155.855,226.595 z" />
          <path
             style="fill:#078930;stroke:#000000;stroke-width:0.38676536000000000;stroke-miterlimit:4;stroke-dasharray:none;stroke-opacity:1;fill-opacity:1"
             inkscape:connector-curvature="0"
             id="path1777"
             d="M 156.326,229.58 C 156.326,229.58 163.71,236.65 164.182,239.005 C 164.654,241.361 166.379,231.938 162.925,229.27 C 159.469,226.596 155.7,226.126 155.7,226.126 L 156.326,229.58 L 156.326,229.58 z" />
        </g>
        <path
           style="fill:#078930;stroke:#000000;stroke-width:0.38676536000000000;stroke-miterlimit:4;stroke-dasharray:none;stroke-opacity:1;fill-opacity:1"
           inkscape:connector-curvature="0"
           id="path1781"
           d="M 166.69606,246.89324 C 166.69606,246.89324 167.36506,249.86024 169.18606,250.43424 C 169.18606,250.43424 169.28006,252.63924 170.90906,253.30824 C 170.90906,253.30824 170.04506,255.12824 171.48506,256.27524 C 171.48506,256.27524 171.19506,259.91424 172.53706,260.68224 C 172.53706,260.68224 175.79606,260.49124 176.94106,259.53224 C 176.94106,259.53224 177.61306,257.14224 175.79606,254.74324 C 175.79606,254.74324 176.08006,252.44524 174.26006,251.20224 C 174.26006,251.20224 174.83506,248.13424 172.53606,246.98724 C 172.53606,246.98724 172.15506,244.49524 170.71606,243.25224 C 170.71706,243.25124 167.94106,247.17724 166.69606,246.89324 L 166.69606,246.89324 z" />
        <path
           style="fill:#078930;stroke:#000000;stroke-width:0.38676536000000000;stroke-miterlimit:4;stroke-dasharray:none;stroke-opacity:1;fill-opacity:1"
           inkscape:connector-curvature="0"
           id="path1791"
           d="M 170.33506,243.25124 C 170.33506,243.25124 160.66306,239.70824 155.30006,244.78424 C 155.30006,244.78424 163.53406,245.93424 164.58906,247.56224 C 165.64206,249.18724 170.71606,244.88224 170.33506,243.25124 L 170.33506,243.25124 z" />
        <path
           style="fill:#078930;stroke:#000000;stroke-width:0.38676536000000000;stroke-miterlimit:4;stroke-dasharray:none;stroke-opacity:1;fill-opacity:1"
           inkscape:connector-curvature="0"
           id="path1795"
           d="M 167.36406,249.28324 C 167.36406,249.28324 166.59906,248.61424 165.64206,247.94224 C 164.68406,247.27324 156.54506,245.07024 155.39306,252.92224 C 155.39306,252.92224 152.42306,245.16624 156.73306,244.11124 C 161.04606,243.05624 164.49306,245.54824 167.36406,249.28324" />
        <path
           style="fill:#078930;stroke:#000000;stroke-width:0.38676536000000000;stroke-miterlimit:4;stroke-dasharray:none;stroke-opacity:1;fill-opacity:1"
           inkscape:connector-curvature="0"
           id="path1799"
           d="M 160.99906,233.23424 C 160.99906,233.23424 163.98006,239.67224 165.08206,239.99124 C 166.18106,240.30124 166.96506,239.20624 166.96506,239.20624 C 166.96506,239.20624 163.04006,233.39424 160.99906,233.23424 z" />
        <path
           style="fill:#078930;stroke:#000000;stroke-width:0.38676536000000000;stroke-miterlimit:4;stroke-dasharray:none;stroke-opacity:1;fill-opacity:1"
           inkscape:connector-curvature="0"
           id="path1803"
           d="M 158.80006,223.34024 C 158.80006,223.34024 156.28506,215.01724 153.30306,217.21524 C 150.31906,219.41424 151.10406,225.38024 151.10406,225.38024 C 151.10406,225.38024 145.13506,219.25824 148.58906,214.38724 C 152.04906,209.51924 158.80006,214.85924 158.80006,223.34024 z" />
        <path
           style="fill:#078930;stroke:#000000;stroke-width:0.38676536000000000;stroke-miterlimit:4;stroke-dasharray:none;stroke-opacity:1;fill-opacity:1"
           inkscape:connector-curvature="0"
           id="path1807"
           d="M 165.55406,240.46024 C 165.55406,240.46024 165.55406,242.03124 166.65406,242.50024 C 167.75406,242.97224 169.79506,243.75424 169.79506,242.81624 C 169.79506,241.87424 168.22606,238.26124 167.59406,238.73324 C 166.96506,239.20624 165.87006,239.20024 165.55406,240.46024 z" />
        <path
           style="fill:#078930;stroke:#000000;stroke-width:0.38676536000000000;stroke-miterlimit:4;stroke-dasharray:none;stroke-opacity:1;fill-opacity:1"
           inkscape:connector-curvature="0"
           id="path1811"
           d="M 163.67106,230.72224 C 163.67106,230.72224 163.35706,223.49924 168.06606,220.82524 C 168.06606,220.82524 169.01106,220.98724 169.48306,219.57424 C 169.48306,219.57424 165.70906,228.68024 166.81006,233.23524 L 166.65406,233.86424" />
        <path
           style="fill:#078930;stroke:#000000;stroke-width:0.38676536000000000;stroke-miterlimit:4;stroke-dasharray:none;stroke-opacity:1;fill-opacity:1"
           inkscape:connector-curvature="0"
           id="path1815"
           d="M 164.61206,221.92924 C 164.61206,221.92924 173.09306,204.33624 183.46006,210.46124 C 183.46006,210.46124 172.62306,212.66124 168.69806,220.35824 L 164.76906,226.16424 L 164.61206,221.92924 z" />
        <path
           style="fill:#078930;stroke:#000000;stroke-width:0.38676536000000000;stroke-miterlimit:4;stroke-dasharray:none;stroke-opacity:1;fill-opacity:1"
           inkscape:connector-curvature="0"
           id="path1819"
           d="M 160.05706,228.36424 C 160.05706,228.36424 157.54306,216.58624 155.97306,215.01724 C 154.40106,213.44524 151.73106,211.71824 148.58906,214.38724 C 148.58906,214.38724 154.08806,209.51624 159.89906,213.60224 C 165.70806,217.68624 164.45206,224.12524 164.45206,224.12524 L 163.82606,232.29324 L 159.89906,228.68024" />
        <path
           style="fill:#078930;stroke:#000000;stroke-width:0.38676536000000000;stroke-miterlimit:4;stroke-dasharray:none;stroke-opacity:1;fill-opacity:1"
           inkscape:connector-curvature="0"
           id="path1823"
           d="M 169.16706,242.34124 C 169.16706,242.34124 158.80006,222.71424 152.04906,236.69124 C 152.04906,236.69124 150.78906,240.30124 152.20206,241.71224 C 152.20206,241.71224 148.43206,238.88724 150.16106,231.97724 C 151.88606,225.06924 163.35106,228.20724 166.65306,233.86324 C 169.95006,239.51624 170.89506,242.34624 170.42306,242.65624 C 169.95006,242.97224 169.16706,242.34124 169.16706,242.34124 L 169.16706,242.34124 z" />
        <path
           style="fill:#078930;stroke:#000000;stroke-width:0.38676536000000000;stroke-miterlimit:4;stroke-dasharray:none;stroke-opacity:1;fill-opacity:1"
           inkscape:connector-curvature="0"
           id="path1827"
           d="M 198.38006,247.99924 C 198.38006,247.99924 205.92206,232.44924 210.31706,239.51624 C 210.31706,239.51624 211.57206,242.97024 209.68606,244.38724 C 209.68606,244.38724 206.70506,240.77424 204.03606,245.17224 C 201.36506,249.56824 202.46506,249.25724 202.46506,249.25724 C 202.46506,249.25724 199.63706,250.04224 198.38006,247.99924 z" />
        <path
           style="fill:#078930;stroke:#000000;stroke-width:0.38676536000000000;stroke-miterlimit:4;stroke-dasharray:none;stroke-opacity:1;fill-opacity:1"
           inkscape:connector-curvature="0"
           id="path1831"
           d="M 209.68506,244.38724 C 209.68506,244.38724 213.76806,246.58324 212.35906,250.98124 C 212.35906,250.98124 217.85206,240.46024 210.31606,239.51624 C 210.31706,239.51624 211.73106,242.81624 209.68506,244.38724 z" />
        <path
           style="fill:#078930;stroke:#000000;stroke-width:0.38676536000000000;stroke-miterlimit:4;stroke-dasharray:none;stroke-opacity:1;fill-opacity:1"
           inkscape:connector-curvature="0"
           id="path1835"
           d="M 210.15706,233.70624 C 210.15706,233.70624 220.05406,236.53124 220.36706,240.77624 C 220.36706,240.77624 222.09706,232.60524 216.44106,230.09324 C 216.44206,230.09424 209.68506,231.19524 210.15706,233.70624 L 210.15706,233.70624 z" />
        <path
           style="fill:#078930;stroke:#000000;stroke-width:0.38676536000000000;stroke-miterlimit:4;stroke-dasharray:none;stroke-opacity:1;fill-opacity:1"
           inkscape:connector-curvature="0"
           id="path1839"
           d="M 214.55606,220.67024 C 218.79806,212.34624 224.13806,223.34024 224.13806,223.34024 C 224.13806,223.34024 226.02106,214.70324 220.68406,213.13024 C 215.34106,211.56024 211.88706,231.50524 211.88706,231.50524 L 205.60306,232.91924 C 205.60306,232.91924 207.33206,215.48824 216.75506,213.91524 L 217.85306,214.07424" />
        <path
           style="fill:#078930;stroke:#000000;stroke-width:0.38676536000000000;stroke-miterlimit:4;stroke-dasharray:none;stroke-opacity:1;fill-opacity:1"
           inkscape:connector-curvature="0"
           id="path1843"
           d="M 207.01706,225.69524 C 207.01706,225.69524 201.05106,213.44524 196.96606,212.19024 C 192.88106,210.93324 199.16806,209.04824 201.68006,211.40324 C 204.18906,213.75724 208.90106,216.74324 208.43106,223.02624 L 207.01706,225.69524 L 207.01706,225.69524 z" />
        <path
           style="fill:#078930;stroke:#000000;stroke-width:0.38676536000000000;stroke-miterlimit:4;stroke-dasharray:none;stroke-opacity:1;fill-opacity:1"
           inkscape:connector-curvature="0"
           id="path1847"
           d="M 200.89406,242.50024 C 200.89406,242.50024 202.62106,234.17924 207.33206,231.66424 C 212.04306,229.14924 216.44206,230.09424 216.44206,230.09424 C 216.44206,230.09424 210.78606,231.34824 209.84706,234.17924 C 208.90306,237.00424 207.33206,237.16024 207.33206,237.16024 L 200.89406,242.50024 z" />
        <path
           style="fill:#078930;stroke:#000000;stroke-width:0.38676536000000000;stroke-miterlimit:4;stroke-dasharray:none;stroke-opacity:1;fill-opacity:1"
           inkscape:connector-curvature="0"
           id="path1851"
           d="M 198.38006,247.99924 C 198.38006,247.99924 195.71106,253.02624 196.33706,253.80924 C 196.33706,253.80924 193.51206,257.89224 194.61006,259.93424 C 194.61006,259.93424 197.43806,262.13324 198.69506,261.18924 C 198.69506,261.18924 201.98906,256.63724 201.04806,254.12224 C 201.04806,254.12224 203.24706,251.14124 202.46506,249.25724 C 202.46506,249.25724 199.16806,249.41324 198.38006,247.99924 L 198.38006,247.99924 z" />
      </g>
      <path
         d=""
         id="path2057"
         style="stroke:#000000;stroke-width:0.38676536000000000;stroke-miterlimit:4;stroke-dasharray:none;stroke-opacity:1;fill:#078930;fill-opacity:1" />
      <path
         d=""
         id="path2117"
         style="fill:#078930;stroke:#000000;stroke-width:0.38676536000000000;stroke-miterlimit:4;stroke-dasharray:none;stroke-opacity:1;fill-opacity:1" />
    </g>
    <path
       style="fill:#078930;fill-rule:evenodd;stroke:#000000;stroke-width:0.7;stroke-linecap:butt;stroke-linejoin:miter;stroke-opacity:1;fill-opacity:1;stroke-miterlimit:4;stroke-dasharray:none"
       d="M 348.29655,843.89309 C 366.7713,850.52751 383.36924,849.23299 400.69808,844.13834 C 394.72145,834.82125 369.39115,821.1401 348.29655,843.89309 z"
       id="path3214"
       sodipodi:nodetypes="ccc" />
  </g>
</svg>
