<?xml version="1.0" encoding="UTF-8" standalone="no"?>
<!-- Created with Inkscape (http://www.inkscape.org/) -->

<svg
   xmlns:dc="http://purl.org/dc/elements/1.1/"
   xmlns:cc="http://creativecommons.org/ns#"
   xmlns:rdf="http://www.w3.org/1999/02/22-rdf-syntax-ns#"
   xmlns:svg="http://www.w3.org/2000/svg"
   xmlns="http://www.w3.org/2000/svg"
   xmlns:sodipodi="http://sodipodi.sourceforge.net/DTD/sodipodi-0.dtd"
   xmlns:inkscape="http://www.inkscape.org/namespaces/inkscape"
   width="750"
   height="500"
   id="svg2"
   version="1.1"
   inkscape:version="0.47 r22583"
   sodipodi:docname="Flag of Algarrobo (Magdalena).svg">
  <defs
     id="defs4">
    <inkscape:perspective
       sodipodi:type="inkscape:persp3d"
       inkscape:vp_x="0 : 526.18109 : 1"
       inkscape:vp_y="0 : 1000 : 0"
       inkscape:vp_z="744.09448 : 526.18109 : 1"
       inkscape:persp3d-origin="372.04724 : 350.78739 : 1"
       id="perspective10" />
  </defs>
  <sodipodi:namedview
     id="base"
     pagecolor="#ffffff"
     bordercolor="#666666"
     borderopacity="1.0"
     inkscape:pageopacity="0.0"
     inkscape:pageshadow="2"
     inkscape:zoom="0.62"
     inkscape:cx="350"
     inkscape:cy="252.95834"
     inkscape:document-units="px"
     inkscape:current-layer="layer1"
     showgrid="false"
     inkscape:window-width="1024"
     inkscape:window-height="538"
     inkscape:window-x="-8"
     inkscape:window-y="-8"
     inkscape:window-maximized="1" />
  <metadata
     id="metadata7">
    <rdf:RDF>
      <cc:Work
         rdf:about="">
        <dc:format>image/svg+xml</dc:format>
        <dc:type
           rdf:resource="http://purl.org/dc/dcmitype/StillImage" />
        <dc:title></dc:title>
      </cc:Work>
    </rdf:RDF>
  </metadata>
  <g
     inkscape:label="Capa 1"
     inkscape:groupmode="layer"
     id="layer1"
     transform="translate(0,-552.36218)">
    <rect
       style="fill:#078930;fill-opacity:1;stroke:none"
       id="rect5682"
       width="750"
       height="500"
       x="0"
       y="-5.6843419e-14"
       transform="translate(0,552.36218)"
       rx="8.8817842e-16"
       ry="8.8817784e-16" />
    <rect
       style="fill:#fcdd09;fill-opacity:1;stroke:none"
       id="rect2826"
       width="375"
       height="250"
       x="375"
       y="802.36218"
       rx="8.8817842e-16"
       ry="8.8817784e-16" />
    <path
       sodipodi:type="star"
       style="fill:#fcdd09;fill-opacity:1;stroke:none"
       id="path5684"
       sodipodi:sides="16"
       sodipodi:cx="53.225807"
       sodipodi:cy="79.032257"
       sodipodi:r1="114.96942"
       sodipodi:r2="67.561974"
       sodipodi:arg1="1.1656137"
       sodipodi:arg2="1.3619632"
       inkscape:flatsided="false"
       inkscape:rounded="0"
       inkscape:randomized="0"
       d="m 98.545213,184.69265 -31.312557,-39.5663 -12.57166,48.86637 -13.787661,-48.5373 -30.315051,40.33568 5.836283,-50.11893 -43.443251,25.66424 24.5717049,-44.0704 -49.9576099,7.08565 L -12.868281,93.039105 -61.734656,80.467446 -13.197357,66.679785 -53.533035,36.364734 -3.4141081,42.201017 -29.078348,-1.2422343 14.992054,23.329471 7.9064011,-26.628139 39.218959,12.938169 51.790619,-35.928206 65.578279,12.609093 95.89333,-27.726585 90.057048,22.392342 133.5003,-3.2718976 108.92859,40.798504 l 49.95761,-7.085653 -39.5663,31.312558 48.86637,12.571659 -48.5373,13.787661 40.33568,30.315051 -50.11893,-5.83628 25.66424,43.44325 -44.0704,-24.57171 7.085653,49.95761 z"
       transform="matrix(1.0873303,0,0,1.0873303,107.12596,631.42802)" />
  </g>
</svg>
