<?xml version="1.0" encoding="UTF-8" standalone="no"?>
<!-- Created with Inkscape (http://www.inkscape.org/) -->
<svg
   xmlns:dc="http://purl.org/dc/elements/1.1/"
   xmlns:cc="http://creativecommons.org/ns#"
   xmlns:rdf="http://www.w3.org/1999/02/22-rdf-syntax-ns#"
   xmlns:svg="http://www.w3.org/2000/svg"
   xmlns="http://www.w3.org/2000/svg"
   xmlns:sodipodi="http://sodipodi.sourceforge.net/DTD/sodipodi-0.dtd"
   xmlns:inkscape="http://www.inkscape.org/namespaces/inkscape"
   width="1000"
   height="500"
   id="svg2"
   version="1.1"
   inkscape:version="0.46"
   sodipodi:docname="Flag_of_Cimitarra_(Santander).svg"
   sodipodi:version="0.32"
   inkscape:output_extension="org.inkscape.output.svg.inkscape">
  <defs
     id="defs4" />
  <sodipodi:namedview
     id="base"
     pagecolor="#ffffff"
     bordercolor="#666666"
     borderopacity="1.0"
     inkscape:pageopacity="0.0"
     inkscape:pageshadow="2"
     inkscape:zoom="0.928"
     inkscape:cx="500"
     inkscape:cy="250"
     inkscape:document-units="px"
     inkscape:current-layer="layer1"
     showgrid="false"
     inkscape:window-width="1024"
     inkscape:window-height="712"
     inkscape:window-x="-4"
     inkscape:window-y="-4"
     inkscape:window-maximized="1" />
  <metadata
     id="metadata7">
    <rdf:RDF>
      <cc:Work
         rdf:about="">
        <dc:format>image/svg+xml</dc:format>
        <dc:type
           rdf:resource="http://purl.org/dc/dcmitype/StillImage" />
        <dc:title />
      </cc:Work>
    </rdf:RDF>
  </metadata>
  <g
     inkscape:label="Capa 1"
     inkscape:groupmode="layer"
     id="layer1"
     transform="translate(0,-552.36218)">
    <rect
       style="fill:#fcdd09;fill-opacity:1;stroke:none"
       id="rect2816"
       width="1000"
       height="166.666"
       x="0"
       y="-5.6843419e-14"
       transform="translate(0,552.36218)" />
    <rect
       style="fill:#ffffff;fill-opacity:1;stroke:none"
       id="rect2818"
       width="1000"
       height="166.666"
       x="0"
       y="719.03015" />
    <rect
       style="fill:#078930;fill-opacity:1;stroke:none"
       id="rect2816-1"
       width="1000"
       height="166.666"
       x="0"
       y="885.69617" />
    <path
       style="fill:#0f47af;stroke:#da121a;fill-opacity:1;stroke-opacity:1;stroke-width:10;stroke-miterlimit:4;stroke-dasharray:none"
       d="M 0,552.36218 L 336,802.36218 L 0,1052.3622"
       id="path2836"
       sodipodi:nodetypes="ccc" />
    <path
       style="fill:#ffffff"
       d="M 47.338067,678.41856 L 40.058009,651.68444 L 13.323899,644.40439 L 40.058009,637.12434 L 47.338067,610.39022 L 54.618123,637.12434 L 81.352233,644.40439 L 54.618123,651.68444 L 47.338067,678.41856 z"
       id="polygon14"
       sodipodi:nodetypes="ccccccccc" />
    <path
       sodipodi:nodetypes="ccccccccc"
       id="path3176"
       d="M 47.338067,758.41856 L 40.058009,731.68444 L 13.323899,724.40439 L 40.058009,717.12434 L 47.338067,690.39022 L 54.618123,717.12434 L 81.352233,724.40439 L 54.618123,731.68444 L 47.338067,758.41856 z"
       style="fill:#ffffff" />
    <path
       style="fill:#ffffff"
       d="M 47.338067,838.41856 L 40.058009,811.68444 L 13.323899,804.40439 L 40.058009,797.12434 L 47.338067,770.39022 L 54.618123,797.12434 L 81.352233,804.40439 L 54.618123,811.68444 L 47.338067,838.41856 z"
       id="path3180"
       sodipodi:nodetypes="ccccccccc" />
    <path
       style="fill:#ffffff"
       d="M 47.338067,918.41856 L 40.058009,891.68444 L 13.323899,884.40439 L 40.058009,877.12434 L 47.338067,850.39022 L 54.618123,877.12434 L 81.352233,884.40439 L 54.618123,891.68444 L 47.338067,918.41856 z"
       id="path3184"
       sodipodi:nodetypes="ccccccccc" />
    <path
       sodipodi:nodetypes="ccccccccc"
       id="path3186"
       d="M 47.338067,998.4186 L 40.058009,971.68444 L 13.323899,964.40439 L 40.058009,957.12434 L 47.338067,930.39022 L 54.618123,957.12434 L 81.352233,964.40439 L 54.618123,971.68444 L 47.338067,998.4186 z"
       style="fill:#ffffff" />
    <path
       style="fill:#ffffff"
       d="M 131.33807,758.41856 L 124.05801,731.68444 L 97.323899,724.40439 L 124.05801,717.12434 L 131.33807,690.39022 L 138.61812,717.12434 L 165.35223,724.40439 L 138.61812,731.68444 L 131.33807,758.41856 z"
       id="path3188"
       sodipodi:nodetypes="ccccccccc" />
    <path
       sodipodi:nodetypes="ccccccccc"
       id="path3190"
       d="M 131.33807,838.41856 L 124.05801,811.68444 L 97.323899,804.40439 L 124.05801,797.12434 L 131.33807,770.39022 L 138.61812,797.12434 L 165.35223,804.40439 L 138.61812,811.68444 L 131.33807,838.41856 z"
       style="fill:#ffffff" />
    <path
       sodipodi:nodetypes="ccccccccc"
       id="path3192"
       d="M 131.33807,918.41856 L 124.05801,891.68444 L 97.323899,884.40439 L 124.05801,877.12434 L 131.33807,850.39022 L 138.61812,877.12434 L 165.35223,884.40439 L 138.61812,891.68444 L 131.33807,918.41856 z"
       style="fill:#ffffff" />
    <path
       style="fill:#ffffff"
       d="M 204.33756,796.00228 L 197.0575,769.26816 L 170.32338,761.98811 L 197.0575,754.70806 L 204.33756,727.97394 L 211.61761,754.70806 L 238.35172,761.98811 L 211.61761,769.26816 L 204.33756,796.00228 z"
       id="path3194"
       sodipodi:nodetypes="ccccccccc" />
    <path
       sodipodi:nodetypes="ccccccccc"
       id="path3196"
       d="M 204.33756,876.00228 L 197.0575,849.26816 L 170.32338,841.98811 L 197.0575,834.70806 L 204.33756,807.97394 L 211.61761,834.70806 L 238.35172,841.98811 L 211.61761,849.26816 L 204.33756,876.00228 z"
       style="fill:#ffffff" />
    <path
       style="fill:#ffffff"
       d="M 267.3349,835.57754 L 260.05484,808.84342 L 233.32073,801.56337 L 260.05484,794.28332 L 267.3349,767.5492 L 274.61495,794.28332 L 301.34906,801.56337 L 274.61495,808.84342 L 267.3349,835.57754 z"
       id="path3198"
       sodipodi:nodetypes="ccccccccc" />
  </g>
</svg>
