<?xml version="1.0" encoding="UTF-8" standalone="no"?>
<!-- Created with Inkscape (http://www.inkscape.org/) -->
<svg
   xmlns:dc="http://purl.org/dc/elements/1.1/"
   xmlns:cc="http://creativecommons.org/ns#"
   xmlns:rdf="http://www.w3.org/1999/02/22-rdf-syntax-ns#"
   xmlns:svg="http://www.w3.org/2000/svg"
   xmlns="http://www.w3.org/2000/svg"
   xmlns:sodipodi="http://sodipodi.sourceforge.net/DTD/sodipodi-0.dtd"
   xmlns:inkscape="http://www.inkscape.org/namespaces/inkscape"
   width="750"
   height="500"
   id="svg2"
   version="1.0"
   inkscape:version="0.46"
   sodipodi:docname="Flag_of_Ciénega.svg"
   sodipodi:version="0.32"
   inkscape:output_extension="org.inkscape.output.svg.inkscape">
  <defs
     id="defs4" />
  <sodipodi:namedview
     id="base"
     pagecolor="#ffffff"
     bordercolor="#666666"
     borderopacity="1.0"
     inkscape:pageopacity="0.0"
     inkscape:pageshadow="2"
     inkscape:zoom="1.014"
     inkscape:cx="375"
     inkscape:cy="250"
     inkscape:document-units="px"
     inkscape:current-layer="layer1"
     showgrid="false"
     inkscape:window-width="1024"
     inkscape:window-height="712"
     inkscape:window-x="-4"
     inkscape:window-y="-4"
     inkscape:window-maximized="0"
     showguides="true"
     inkscape:guide-bbox="true" />
  <metadata
     id="metadata7">
    <rdf:RDF>
      <cc:Work
         rdf:about="">
        <dc:format>image/svg+xml</dc:format>
        <dc:type
           rdf:resource="http://purl.org/dc/dcmitype/StillImage" />
        <dc:title />
      </cc:Work>
    </rdf:RDF>
  </metadata>
  <g
     inkscape:label="Capa 1"
     inkscape:groupmode="layer"
     id="layer1"
     transform="translate(-41.926407,-250.81122)">
    <rect
       style="fill:#89c5e3;fill-rule:evenodd;stroke:none;stroke-width:1.25781381000000000px;stroke-linecap:butt;stroke-linejoin:miter;stroke-opacity:1;fill-opacity:1"
       id="rect2816"
       width="749.73444"
       height="499.81705"
       x="42.103477"
       y="250.98828" />
    <rect
       style="fill:#ffffff;stroke:none"
       id="rect2818"
       width="750.29712"
       height="168.61682"
       x="41.822121"
       y="413.57166"
       ry="1.2130706" />
    <rect
       style="fill:#078930;stroke:none;fill-opacity:1"
       id="rect2818-1"
       width="750.46771"
       height="168.67529"
       x="41.905987"
       y="581.96777"
       ry="1.2134913" />
    <path
       sodipodi:type="star"
       style="fill:#da121a;fill-opacity:1"
       id="path2848"
       sodipodi:sides="5"
       sodipodi:cx="286.88333"
       sodipodi:cy="395.76303"
       sodipodi:r1="9.3131466"
       sodipodi:r2="3.6372657"
       sodipodi:arg1="0.86217005"
       sodipodi:arg2="1.4943339"
       inkscape:flatsided="false"
       inkscape:rounded="0"
       inkscape:randomized="0"
       d="M 292.94425,402.8341 L 287.16117,399.38967 L 282.03127,403.71238 L 283.52005,397.14797 L 277.82368,393.60493 L 284.52687,392.99233 L 286.13622,386.4799 L 288.79024,392.66571 L 295.48124,392.18384 L 290.41833,396.61948 L 292.94425,402.8341 z"
       transform="matrix(0.9462679,8.6265191e-2,-8.9238743e-2,0.9788857,177.31832,20.738281)" />
    <path
       sodipodi:type="star"
       style="fill:#da121a;fill-opacity:1"
       id="path3165"
       sodipodi:sides="5"
       sodipodi:cx="286.88333"
       sodipodi:cy="395.76303"
       sodipodi:r1="9.3131466"
       sodipodi:r2="3.6372657"
       sodipodi:arg1="0.86217005"
       sodipodi:arg2="1.4943339"
       inkscape:flatsided="false"
       inkscape:rounded="0"
       inkscape:randomized="0"
       d="M 292.94425,402.8341 L 287.16117,399.38967 L 282.03127,403.71238 L 283.52005,397.14797 L 277.82368,393.60493 L 284.52687,392.99233 L 286.13622,386.4799 L 288.79024,392.66571 L 295.48124,392.18384 L 290.41833,396.61948 L 292.94425,402.8341 z"
       transform="matrix(0.9462679,8.6265191e-2,-8.9238743e-2,0.9788857,147.13573,27.162821)" />
    <path
       sodipodi:type="star"
       style="fill:#da121a;fill-opacity:1"
       id="path3167"
       sodipodi:sides="5"
       sodipodi:cx="286.88333"
       sodipodi:cy="395.76303"
       sodipodi:r1="9.3131466"
       sodipodi:r2="3.6372657"
       sodipodi:arg1="0.86217005"
       sodipodi:arg2="1.4943339"
       inkscape:flatsided="false"
       inkscape:rounded="0"
       inkscape:randomized="0"
       d="M 292.94425,402.8341 L 287.16117,399.38967 L 282.03127,403.71238 L 283.52005,397.14797 L 277.82368,393.60493 L 284.52687,392.99233 L 286.13622,386.4799 L 288.79024,392.66571 L 295.48124,392.18384 L 290.41833,396.61948 L 292.94425,402.8341 z"
       transform="matrix(0.9462679,8.6265191e-2,-8.9238743e-2,0.9788857,121.09012,51.004578)" />
    <path
       sodipodi:type="star"
       style="fill:#da121a;fill-opacity:1"
       id="path3169"
       sodipodi:sides="5"
       sodipodi:cx="286.88333"
       sodipodi:cy="395.76303"
       sodipodi:r1="9.3131466"
       sodipodi:r2="3.6372657"
       sodipodi:arg1="0.86217005"
       sodipodi:arg2="1.4943339"
       inkscape:flatsided="false"
       inkscape:rounded="0"
       inkscape:randomized="0"
       d="M 292.94425,402.8341 L 287.16117,399.38967 L 282.03127,403.71238 L 283.52005,397.14797 L 277.82368,393.60493 L 284.52687,392.99233 L 286.13622,386.4799 L 288.79024,392.66571 L 295.48124,392.18384 L 290.41833,396.61948 L 292.94425,402.8341 z"
       transform="matrix(0.9462679,8.6265191e-2,-8.9238743e-2,0.9788857,112.47503,84.26283)" />
    <path
       sodipodi:type="star"
       style="fill:#da121a;fill-opacity:1"
       id="path3171"
       sodipodi:sides="5"
       sodipodi:cx="286.88333"
       sodipodi:cy="395.76303"
       sodipodi:r1="9.3131466"
       sodipodi:r2="3.6372657"
       sodipodi:arg1="0.86217005"
       sodipodi:arg2="1.4943339"
       inkscape:flatsided="false"
       inkscape:rounded="0"
       inkscape:randomized="0"
       d="M 292.94425,402.8341 L 287.16117,399.38967 L 282.03127,403.71238 L 283.52005,397.14797 L 277.82368,393.60493 L 284.52687,392.99233 L 286.13622,386.4799 L 288.79024,392.66571 L 295.48124,392.18384 L 290.41833,396.61948 L 292.94425,402.8341 z"
       transform="matrix(0.9462679,8.6265191e-2,-8.9238743e-2,0.9788857,123.09011,119.12037)" />
    <path
       sodipodi:type="star"
       style="fill:#da121a;fill-opacity:1"
       id="path3173"
       sodipodi:sides="5"
       sodipodi:cx="286.88333"
       sodipodi:cy="395.76303"
       sodipodi:r1="9.3131466"
       sodipodi:r2="3.6372657"
       sodipodi:arg1="0.86217005"
       sodipodi:arg2="1.4943339"
       inkscape:flatsided="false"
       inkscape:rounded="0"
       inkscape:randomized="0"
       d="M 292.94425,402.8341 L 287.16117,399.38967 L 282.03127,403.71238 L 283.52005,397.14797 L 277.82368,393.60493 L 284.52687,392.99233 L 286.13622,386.4799 L 288.79024,392.66571 L 295.48124,392.18384 L 290.41833,396.61948 L 292.94425,402.8341 z"
       transform="matrix(0.9462679,8.6265191e-2,-8.9238743e-2,0.9788857,144.52766,140.75827)" />
    <path
       sodipodi:type="star"
       style="fill:#da121a;fill-opacity:1"
       id="path3175"
       sodipodi:sides="5"
       sodipodi:cx="286.88333"
       sodipodi:cy="395.76303"
       sodipodi:r1="9.3131466"
       sodipodi:r2="3.6372657"
       sodipodi:arg1="0.86217005"
       sodipodi:arg2="1.4943339"
       inkscape:flatsided="false"
       inkscape:rounded="0"
       inkscape:randomized="0"
       d="M 292.94425,402.8341 L 287.16117,399.38967 L 282.03127,403.71238 L 283.52005,397.14797 L 277.82368,393.60493 L 284.52687,392.99233 L 286.13622,386.4799 L 288.79024,392.66571 L 295.48124,392.18384 L 290.41833,396.61948 L 292.94425,402.8341 z"
       transform="matrix(0.9462679,8.6265191e-2,-8.9238743e-2,0.9788857,179.18135,149.17652)" />
    <path
       transform="matrix(-0.9462679,8.6265191e-2,8.9238743e-2,0.9788857,649.6642,20.738281)"
       d="M 292.94425,402.8341 L 287.16117,399.38967 L 282.03127,403.71238 L 283.52005,397.14797 L 277.82368,393.60493 L 284.52687,392.99233 L 286.13622,386.4799 L 288.79024,392.66571 L 295.48124,392.18384 L 290.41833,396.61948 L 292.94425,402.8341 z"
       inkscape:randomized="0"
       inkscape:rounded="0"
       inkscape:flatsided="false"
       sodipodi:arg2="1.4943339"
       sodipodi:arg1="0.86217005"
       sodipodi:r2="3.6372657"
       sodipodi:r1="9.3131466"
       sodipodi:cy="395.76303"
       sodipodi:cx="286.88333"
       sodipodi:sides="5"
       id="path3177"
       style="fill:#da121a;fill-opacity:1"
       sodipodi:type="star" />
    <path
       transform="matrix(-0.9462679,8.6265191e-2,8.9238743e-2,0.9788857,679.84679,27.162821)"
       d="M 292.94425,402.8341 L 287.16117,399.38967 L 282.03127,403.71238 L 283.52005,397.14797 L 277.82368,393.60493 L 284.52687,392.99233 L 286.13622,386.4799 L 288.79024,392.66571 L 295.48124,392.18384 L 290.41833,396.61948 L 292.94425,402.8341 z"
       inkscape:randomized="0"
       inkscape:rounded="0"
       inkscape:flatsided="false"
       sodipodi:arg2="1.4943339"
       sodipodi:arg1="0.86217005"
       sodipodi:r2="3.6372657"
       sodipodi:r1="9.3131466"
       sodipodi:cy="395.76303"
       sodipodi:cx="286.88333"
       sodipodi:sides="5"
       id="path3179"
       style="fill:#da121a;fill-opacity:1"
       sodipodi:type="star" />
    <path
       transform="matrix(-0.9462679,8.6265191e-2,8.9238743e-2,0.9788857,705.8924,51.004578)"
       d="M 292.94425,402.8341 L 287.16117,399.38967 L 282.03127,403.71238 L 283.52005,397.14797 L 277.82368,393.60493 L 284.52687,392.99233 L 286.13622,386.4799 L 288.79024,392.66571 L 295.48124,392.18384 L 290.41833,396.61948 L 292.94425,402.8341 z"
       inkscape:randomized="0"
       inkscape:rounded="0"
       inkscape:flatsided="false"
       sodipodi:arg2="1.4943339"
       sodipodi:arg1="0.86217005"
       sodipodi:r2="3.6372657"
       sodipodi:r1="9.3131466"
       sodipodi:cy="395.76303"
       sodipodi:cx="286.88333"
       sodipodi:sides="5"
       id="path3181"
       style="fill:#da121a;fill-opacity:1"
       sodipodi:type="star" />
    <path
       transform="matrix(-0.9462679,8.6265191e-2,8.9238743e-2,0.9788857,714.50749,84.26283)"
       d="M 292.94425,402.8341 L 287.16117,399.38967 L 282.03127,403.71238 L 283.52005,397.14797 L 277.82368,393.60493 L 284.52687,392.99233 L 286.13622,386.4799 L 288.79024,392.66571 L 295.48124,392.18384 L 290.41833,396.61948 L 292.94425,402.8341 z"
       inkscape:randomized="0"
       inkscape:rounded="0"
       inkscape:flatsided="false"
       sodipodi:arg2="1.4943339"
       sodipodi:arg1="0.86217005"
       sodipodi:r2="3.6372657"
       sodipodi:r1="9.3131466"
       sodipodi:cy="395.76303"
       sodipodi:cx="286.88333"
       sodipodi:sides="5"
       id="path3183"
       style="fill:#da121a;fill-opacity:1"
       sodipodi:type="star" />
    <path
       transform="matrix(-0.9462679,8.6265191e-2,8.9238743e-2,0.9788857,703.89241,119.12037)"
       d="M 292.94425,402.8341 L 287.16117,399.38967 L 282.03127,403.71238 L 283.52005,397.14797 L 277.82368,393.60493 L 284.52687,392.99233 L 286.13622,386.4799 L 288.79024,392.66571 L 295.48124,392.18384 L 290.41833,396.61948 L 292.94425,402.8341 z"
       inkscape:randomized="0"
       inkscape:rounded="0"
       inkscape:flatsided="false"
       sodipodi:arg2="1.4943339"
       sodipodi:arg1="0.86217005"
       sodipodi:r2="3.6372657"
       sodipodi:r1="9.3131466"
       sodipodi:cy="395.76303"
       sodipodi:cx="286.88333"
       sodipodi:sides="5"
       id="path3185"
       style="fill:#da121a;fill-opacity:1"
       sodipodi:type="star" />
    <path
       transform="matrix(-0.9462679,8.6265191e-2,8.9238743e-2,0.9788857,682.45486,140.75827)"
       d="M 292.94425,402.8341 L 287.16117,399.38967 L 282.03127,403.71238 L 283.52005,397.14797 L 277.82368,393.60493 L 284.52687,392.99233 L 286.13622,386.4799 L 288.79024,392.66571 L 295.48124,392.18384 L 290.41833,396.61948 L 292.94425,402.8341 z"
       inkscape:randomized="0"
       inkscape:rounded="0"
       inkscape:flatsided="false"
       sodipodi:arg2="1.4943339"
       sodipodi:arg1="0.86217005"
       sodipodi:r2="3.6372657"
       sodipodi:r1="9.3131466"
       sodipodi:cy="395.76303"
       sodipodi:cx="286.88333"
       sodipodi:sides="5"
       id="path3187"
       style="fill:#da121a;fill-opacity:1"
       sodipodi:type="star" />
  </g>
</svg>
