<?xml version="1.0" encoding="UTF-8" standalone="no"?>
<svg xmlns="http://www.w3.org/2000/svg"
   xmlns:dc="http://purl.org/dc/elements/1.1/"
   xmlns:cc="http://creativecommons.org/ns#"
   xmlns:rdf="http://www.w3.org/1999/02/22-rdf-syntax-ns#"
   xmlns:xlink="http://www.w3.org/1999/xlink"
   width="1000" height="500" viewBox="0 0 28 14">
  <metadata><rdf:RDF><cc:Work rdf:about="">
    <dc:format>image/svg+xml</dc:format>
    <dc:type rdf:resource="http://purl.org/dc/dcmitype/StillImage"/>
    <dc:title>Flag of Clemencia (Bolívar)</dc:title>
  </cc:Work></rdf:RDF></metadata>
  <rect width="28" height="14" style="fill:#078930"/>
  <rect id="white-stripe" width="28" height="2" y="2" style="fill:#ffffff"/>
  <use xlink:href="#white-stripe" y="4"/>
  <use xlink:href="#white-stripe" y="8"/>
  <rect width="8.15" height="7" style="fill:#ffffff"/>
  <g style="fill:#fcdd09" transform="translate(-0.6477507,-1.9474644)scale(0.015625,0.015625)">
    <path
       d="M145.43419,197.09388C234.4398,251.15571 161.49606,304.10834 265.19241,361.85407L265.07989,361.84446C151.33874,392.13944 164.85201,303.51622 61.22958,359.7254C162.40416,335.0138 148.26323,424.03771 262.45904,391.51674L262.33687,391.61966C203.33151,493.4686 150.2301,421.2478 116.70388,534.26582C170.76568,445.26019 223.71833,518.20394 281.46408,414.50758L281.45446,414.62012C311.74944,528.36126 223.12622,514.848 279.3354,618.47042C254.6238,517.29584 343.64771,531.43677 311.12675,417.24097L311.25538,417.39366C413.10433,476.39904 340.8578,529.46991 453.87581,562.99612C364.8702,508.93434 437.81394,455.98167 334.11759,398.23593L334.28638,398.25034C448.02758,367.95537 434.45802,456.57381 538.08042,400.3646C436.90584,425.0762 451.04677,336.05229 336.85096,368.57327L337.00366,368.44462C396.00905,266.59569 449.0799,338.84221 482.60612,225.82421C428.54433,314.82981 375.59166,241.88606 317.84592,345.58242L317.86033,345.41362C287.56537,231.67243 376.18382,245.24199 319.9746,141.61958C344.6862,242.79416 255.66229,228.65325 288.18326,342.84904L288.08034,342.72688C186.23141,283.72151 258.45221,230.62009 145.43419,197.09388 z"/>
    <path
       d="M230.81652,213.97178C282.26035,272.92151 217.98676,294.25523 279.11283,359.18313L279.03444,359.15066C190.69798,354.9836 220.52453,294.59425 133.54195,311.28464C211.61019,316.59265 181.24308,377.12624 270.41122,379.80266L270.30035,379.84859C204.89049,439.36534 183.28586,375.57562 133.58178,448.88349C192.5315,397.43965 213.86523,461.71324 278.79313,400.58717L278.76066,400.66557C274.5936,489.00202 214.20425,459.17548 230.89464,546.15805C236.20265,468.08981 296.73624,498.45692 299.41266,409.28879L299.47007,409.42737C358.98683,474.83725 295.18561,496.41415 368.49348,546.11822C317.04965,487.16851 381.32324,465.83477 320.19717,400.90687L320.31476,400.95557C408.65124,405.12265 378.78548,465.49577 465.76805,448.80536C387.69981,443.49735 418.06692,382.96376 328.89878,380.28734L329.03737,380.22993C394.44725,320.71318 416.02414,384.51438 465.72822,311.20652C406.7785,362.65035 385.44477,298.37676 320.51687,359.50283L320.56557,359.38524C324.73264,271.04877 385.10578,300.91452 368.41536,213.93195C363.10735,292.00019 302.57376,261.63309 299.89734,350.80122L299.85141,350.69035C240.33467,285.28049 304.12439,263.67585 230.81652,213.97178 z"/>
    <circle cx="300" cy="380" r="90.0277"/>
  </g>
</svg>
