<?xml version="1.0" encoding="UTF-8" standalone="no"?>
<!-- Created with Inkscape (http://www.inkscape.org/) -->

<svg
   xmlns:dc="http://purl.org/dc/elements/1.1/"
   xmlns:cc="http://creativecommons.org/ns#"
   xmlns:rdf="http://www.w3.org/1999/02/22-rdf-syntax-ns#"
   xmlns:svg="http://www.w3.org/2000/svg"
   xmlns="http://www.w3.org/2000/svg"
   xmlns:xlink="http://www.w3.org/1999/xlink"
   xmlns:sodipodi="http://sodipodi.sourceforge.net/DTD/sodipodi-0.dtd"
   xmlns:inkscape="http://www.inkscape.org/namespaces/inkscape"
   width="750"
   height="500"
   id="svg2844"
   version="1.1"
   inkscape:version="0.47 r22583"
   sodipodi:docname="Flag of Cogua (Cundinamarca).svg">
  <defs
     id="defs2846">
    <inkscape:perspective
       sodipodi:type="inkscape:persp3d"
       inkscape:vp_x="0 : 526.18109 : 1"
       inkscape:vp_y="0 : 1000 : 0"
       inkscape:vp_z="744.09448 : 526.18109 : 1"
       inkscape:persp3d-origin="372.04724 : 350.78739 : 1"
       id="perspective2852" />
    <inkscape:perspective
       id="perspective3233"
       inkscape:persp3d-origin="0.5 : 0.33333333 : 1"
       inkscape:vp_z="1 : 0.5 : 1"
       inkscape:vp_y="0 : 1000 : 0"
       inkscape:vp_x="0 : 0.5 : 1"
       sodipodi:type="inkscape:persp3d" />
    <inkscape:perspective
       id="perspective2850"
       inkscape:persp3d-origin="0.5 : 0.33333333 : 1"
       inkscape:vp_z="1 : 0.5 : 1"
       inkscape:vp_y="0 : 1000 : 0"
       inkscape:vp_x="0 : 0.5 : 1"
       sodipodi:type="inkscape:persp3d" />
  </defs>
  <sodipodi:namedview
     id="base"
     pagecolor="#ffffff"
     bordercolor="#666666"
     borderopacity="1.0"
     inkscape:pageopacity="0.0"
     inkscape:pageshadow="2"
     inkscape:zoom="0.62"
     inkscape:cx="374.19355"
     inkscape:cy="241.12498"
     inkscape:document-units="px"
     inkscape:current-layer="layer1"
     showgrid="false"
     inkscape:window-width="1024"
     inkscape:window-height="538"
     inkscape:window-x="-8"
     inkscape:window-y="-8"
     inkscape:window-maximized="1" />
  <metadata
     id="metadata2849">
    <rdf:RDF>
      <cc:Work
         rdf:about="">
        <dc:format>image/svg+xml</dc:format>
        <dc:type
           rdf:resource="http://purl.org/dc/dcmitype/StillImage" />
        <dc:title />
      </cc:Work>
    </rdf:RDF>
  </metadata>
  <g
     inkscape:label="Capa 1"
     inkscape:groupmode="layer"
     id="layer1"
     transform="translate(0,-552.36218)">
    <rect
       style="fill:#0f47af;fill-opacity:1;stroke:none"
       id="rect2860"
       width="750"
       height="250"
       x="0"
       y="-5.6843419e-14"
       transform="translate(0,552.36218)"
       rx="8.8817842e-16"
       ry="8.8817784e-16" />
    <rect
       style="fill:#078930;fill-opacity:1;stroke:none"
       id="rect2862"
       width="750"
       height="250"
       x="0"
       y="250"
       transform="translate(0,552.36218)"
       rx="8.8817842e-16"
       ry="8.8817784e-16" />
    <path
       style="fill:#ffffff;stroke:none;stroke-width:1px;stroke-linecap:butt;stroke-linejoin:miter;stroke-opacity:1"
       d="M 0,0 250,250 0,500"
       id="path2864"
       transform="translate(0,552.36218)" />
    <image
       xlink:href="file:///C:/Users/Michael/Videos/Pictures/tree.png"
       width="175"
       height="175"
       id="image2840"
       x="5"
       y="722.36218" />
    <path
       style="fill:#078930;fill-opacity:1;stroke:none"
       d="m 83.671785,791.85939 c -2.031163,-1.50615 -2.708245,-5.41603 -1.261331,-7.28372 0.995792,-1.28537 1.824197,-1.42487 5.54946,-0.93454 3.757618,0.49459 4.455559,0.86853 4.918942,2.63545 0.297002,1.13248 0.193103,3.0088 -0.230895,4.16958 -0.63613,1.74156 -1.359121,2.14524 -4.13555,2.30911 -1.850557,0.10922 -4.028836,-0.29392 -4.840626,-0.89588 z"
       id="path2865" />
    <path
       style="fill:#078930;fill-opacity:1;stroke:none"
       d="m 79.175302,781.57471 c -1.919389,-2.02413 -1.413351,-3.4142 2.11138,-5.79984 4.651075,-3.148 8.275992,-2.98382 12.193713,0.55226 3.352513,3.02593 3.530211,3.49954 1.992773,5.31126 -1.505199,1.77374 -14.604071,1.72256 -16.297866,-0.0637 z"
       id="path2867" />
    <path
       style="fill:#078930;fill-opacity:1;stroke:none"
       d="m 55.781092,839.39991 c -0.348596,-0.33494 -0.633814,-2.01578 -0.633814,-3.73521 0,-1.71942 -0.551025,-4.38834 -1.224503,-5.93092 -1.159406,-2.65559 -1.440192,-2.80316 -5.281777,-2.77589 -7.394871,0.0525 -15.223418,2.4034 -17.318844,5.20078 -0.351598,0.46938 -1.989294,0.0642 -4.101455,-1.01476 -5.774974,-2.95001 -9.297692,-3.1167 -13.69911,-0.64815 l -3.7909928,2.12618 -0.534965,-2.55988 c -0.479112,-2.29259 -0.103685,-2.95561 3.5956318,-6.35004 2.526612,-2.31837 4.363965,-4.80699 4.731554,-6.40868 0.431098,-1.87841 1.778425,-3.42809 4.766901,-5.48282 4.778584,-3.28551 5.814872,-4.78234 5.814872,-8.3991 0,-3.25946 2.527875,-7.21983 6.42337,-10.06336 2.60903,-1.90447 4.006531,-2.25267 10.339163,-2.57606 10.0472,-0.51308 9.907708,-0.43533 7.657015,-4.26778 -4.878676,-8.30735 -10.121602,-9.71756 -16.391249,-4.40883 -4.333682,3.66948 -8.117994,5.19434 -12.890988,5.19434 -3.977666,0 -8.930622,-2.2567 -9.819748,-4.47414 -0.746731,-1.86232 0.980509,-4.69788 3.807445,-6.25059 2.283174,-1.25404 2.495028,-1.68855 1.967126,-4.03453 -1.105204,-4.9115 -2.903229,-7.1727 -7.137794,-8.97655 -3.2649868,-1.39083 -4.1579798,-2.20113 -4.4479348,-4.03607 -0.385152,-2.43734 1.146266,-4.57861 3.2745698,-4.57861 0.688656,0 2.651208,0.90985 4.361231,2.0219 3.58805,2.33336 6.597148,2.5676 9.342579,0.72727 2.822504,-1.89199 7.075591,-1.74969 9.837059,0.32912 2.789374,2.09982 6.893486,2.2938 9.635987,0.45544 2.06577,-1.38474 4.684572,-6.36519 3.947256,-7.50691 -0.236884,-0.36681 -2.055349,-0.91614 -4.041033,-1.22073 l -3.610333,-0.5538 4.380658,-3.79843 c 6.684162,-5.79579 6.727833,-5.82034 10.351444,-5.82034 2.277191,0 5.210165,0.93804 8.909051,2.84936 l 5.514245,2.84937 0,-5.96373 c 0,-10.02248 2.312164,-14.29273 7.738929,-14.29273 2.721109,0 3.749774,0.52776 6.305491,3.23505 3.781703,4.00598 6.312959,4.19468 9.70142,0.72323 1.348475,-1.3815 2.451766,-2.83727 2.451766,-3.23505 0,-1.66872 2.759132,-0.50897 5.868445,2.46671 2.0894,1.99959 3.54455,4.26811 3.89959,6.07926 0.31151,1.58913 1.62616,3.97506 2.92144,5.30206 1.95348,2.00133 3.01777,2.41275 6.24143,2.41275 2.1375,0 3.88636,-0.30328 3.88636,-0.67397 0,-0.37068 1.07617,-1.70388 2.39148,-2.96266 2.62428,-2.51149 8.16966,-4.4196 12.89986,-4.43871 2.04648,-0.008 3.83881,-0.68931 5.49305,-2.08721 6.10761,-5.16117 9.63998,-6.95618 13.69614,-6.95982 3.6567,-0.004 4.2549,0.29613 7.5624,3.78508 1.97539,2.08374 3.59019,4.39032 3.58845,5.12572 -0.005,2.2332 -2.97541,6.17069 -7.08671,9.39479 -3.15282,2.47246 -3.89622,3.54861 -3.89622,5.64015 0,4.26848 -1.66919,12.00766 -3.19918,14.83295 -0.7894,1.45773 -2.86439,3.74953 -4.6111,5.09288 -5.1362,3.95017 -4.41647,6.67183 4.04771,15.30644 2.423,2.47178 3.75905,4.67536 4.16435,6.86832 0.83157,4.4995 1.09445,4.69665 3.80215,2.85147 1.46998,-1.00173 3.7393,-1.63217 5.87514,-1.63217 2.89868,0 4.10697,0.55305 7.23282,3.31052 3.4454,3.03936 7.19555,9.91345 7.19555,13.18957 0,1.84484 -7.27125,3.96881 -11.69566,3.41637 -2.16612,-0.27047 -5.06833,-0.19866 -6.44934,0.15958 l -2.51095,0.65134 2.49669,1.96993 c 1.37319,1.08347 4.11933,3.5427 6.10256,5.46494 3.32692,3.22464 3.60586,3.82494 3.60586,7.76009 0,4.92762 -1.07758,6.23628 -6.69761,8.13392 -5.53737,1.86973 -12.37411,1.57026 -18.70595,-0.81937 -8.54619,-3.22534 -11.78,-3.39125 -16.83121,-0.86357 -6.54651,3.27596 -8.43255,1.28913 -8.46097,-8.9131 -0.0105,-3.75998 -1.76923,-8.38348 -3.8037,-9.99937 -0.74624,-0.5927 -2.95486,-1.01969 -4.90806,-0.94885 -3.87546,0.14055 -5.66398,1.63607 -5.66398,4.73612 0,1.062 -0.5106,1.86733 -1.18391,1.86733 -0.65115,0 -1.88592,1.62434 -2.74393,3.60964 -2.042108,4.72515 -3.973479,5.70429 -8.822666,4.4728 -2.673242,-0.67889 -4.865023,-2.09744 -7.743438,-5.01166 l -4.014814,-4.06474 -2.301355,1.44309 c -6.688745,4.19427 -11.218668,9.78025 -11.218668,13.83408 0,0.82662 -0.743964,1.94759 -1.653257,2.49105 -2.105292,1.25827 -7.866695,2.15761 -8.69902,1.3579 l 0,0 z m 97.607208,-5.5442 c 2.14387,-0.44957 2.32398,-0.78984 2.32398,-4.39039 0,-2.93325 0.43931,-4.28355 1.76805,-5.43435 1.36188,-1.17952 1.66242,-2.15418 1.30827,-4.24275 -0.4592,-2.70811 -3.24639,-5.79933 -5.22896,-5.79933 -0.57692,0 -2.23003,-1.05587 -3.67357,-2.34639 -2.2636,-2.02364 -2.62463,-2.13715 -2.62463,-0.8252 0,0.95622 -1.23471,2.12402 -3.32449,3.14433 -3.32147,1.62165 -5.97143,4.37787 -5.97143,6.21088 0,0.53412 0.95072,2.05244 2.11271,3.37403 1.32433,1.50624 2.11753,3.41563 2.12564,5.11683 0.007,1.49265 0.33826,3.20518 0.73585,3.80562 0.70851,1.07 5.61174,2.46649 7.27952,2.07329 0.46479,-0.10957 1.89087,-0.41853 3.16906,-0.68657 z M 55.516009,819.52653 c 2.254535,-0.98308 3.606253,-4.89162 2.761223,-7.98413 -0.287571,-1.05242 0.102218,-1.89736 1.114456,-2.41581 4.142743,-2.12184 1.320663,-8.54221 -4.665264,-10.61372 -1.623901,-0.56198 -3.169884,-1.67708 -3.435507,-2.47802 -0.651278,-1.9638 -2.369133,-1.86899 -1.830825,0.10104 0.314822,1.15212 -0.2182,1.81247 -2.048731,2.53811 -4.52319,1.79304 -6.630509,3.91833 -6.630509,6.68704 0,1.70152 0.574377,2.92071 1.690164,3.58758 1.195931,0.71478 1.693953,1.89502 1.703112,4.03617 0.01588,3.7119 0.824433,5.01534 3.924977,6.32724 3.102719,1.31283 4.786408,1.36152 7.416904,0.2145 z m 76.425421,-8.2432 c 0.51895,-0.59842 1.17605,-2.20059 1.46023,-3.56039 0.45574,-2.1808 0.94315,-2.53356 4.13311,-2.99137 8.13314,-1.16721 7.96075,-6.08268 -0.41042,-11.70234 -2.70629,-1.81677 -5.52559,-3.30321 -6.2651,-3.30321 -2.20787,0 -1.52394,1.95544 1.06794,3.05342 1.32689,0.56209 4.05882,2.47652 6.07097,4.25429 4.24374,3.74941 3.86207,4.78461 -1.99709,5.41664 -3.69938,0.39905 -3.8274,0.50815 -4.76129,4.05756 l -0.95969,3.64747 -2.00137,-1.79938 c -1.10076,-0.98966 -2.23094,-2.67473 -2.51152,-3.74459 -0.28058,-1.06987 -1.11402,-1.94522 -1.85208,-1.94522 -0.87649,0 -1.16403,0.44374 -0.82899,1.27929 0.28213,0.70361 0.51296,1.76745 0.51296,2.36408 0,1.39083 4.85425,6.06178 6.29966,6.06178 0.60453,0 1.52374,-0.48961 2.04268,-1.08803 l 0,0 z m -45.926494,-2.51827 c 2.754012,-2.7946 2.75889,-2.7959 4.636862,-1.23716 4.186136,3.47459 8.222841,3.01843 11.270322,-1.27357 1.83654,-2.58656 2.15882,-2.74154 3.3435,-1.60777 0.79556,0.76136 2.80377,1.25471 5.10736,1.25471 3.27975,0 4.24885,-0.42878 7.12211,-3.15121 1.82919,-1.73316 3.52858,-3.89332 3.77643,-4.80034 0.64463,-2.35911 -1.75983,-3.01383 -2.67065,-0.7272 -0.39527,0.99235 -1.76596,2.80511 -3.04598,4.02836 -3.345,3.19668 -7.26738,3.04557 -10.49631,-0.40438 l -2.46007,-2.62848 -0.90992,2.42629 c -2.853184,7.6079 -5.559093,8.54911 -10.625238,3.69588 -1.859187,-1.78107 -3.618017,-3.25026 -3.908517,-3.2649 -0.290495,-0.0146 -0.753972,1.05385 -1.029943,2.37441 -1.056073,5.05341 -5.291025,6.89776 -10.206063,4.44482 -3.593001,-1.79317 -4.587483,-0.16482 -1.17602,1.92559 4.30075,2.63533 7.974173,2.29151 11.272127,-1.05505 z m 6.319152,-14.99523 c 1.19516,0 2.742553,-4.85668 2.269142,-7.12199 -0.351226,-1.68064 -0.05316,-2.51017 1.163006,-3.23706 2.539789,-1.51795 2.099864,-5.24712 -0.96501,-8.18027 -1.430143,-1.36868 -3.299866,-2.4885 -4.15494,-2.4885 -0.855069,0 -2.358645,-1.00084 -3.34127,-2.2241 l -1.786598,-2.22409 0.237214,2.0219 c 0.179249,1.52783 -0.195848,2.0811 -1.534997,2.26414 -2.352167,0.32151 -6.836663,4.1519 -7.51233,6.41659 -0.385242,1.29125 0.04066,2.3609 1.493756,3.75153 1.469313,1.40617 1.933781,2.58995 1.675913,4.2714 -0.235889,1.53815 0.244114,3.05713 1.417012,4.48414 1.931366,2.3498 4.204585,3.08783 7.972562,2.58837 1.336287,-0.17714 2.716236,-0.32206 3.06654,-0.32206 z m -23.31204,-1.29967 c 0.73521,-0.27 1.336744,-1.03734 1.336744,-1.7052 0,-0.90594 -0.561724,-1.07937 -2.212084,-0.68296 -2.640221,0.63418 -5.386186,-1.35542 -5.40827,-3.91857 -0.008,-0.9319 -0.958754,-2.55144 -2.112712,-3.59897 -1.549012,-1.40615 -2.098108,-2.74667 -2.098108,-5.12216 0,-3.73203 -1.937606,-3.97939 -2.388881,-0.30498 -0.287603,2.34173 1.285605,6.92736 2.376594,6.92736 0.345258,0 1.280665,1.63617 2.078681,3.63593 1.873914,4.69589 4.532222,6.20026 8.428036,4.76955 z M 133.2832,770.84415 c 1.09836,-0.76861 1.58107,-2.19648 1.64042,-4.85237 0.0462,-2.0698 0.28733,-3.76337 0.53571,-3.76348 0.24838,-1.1e-4 1.13585,-1.10874 1.97214,-2.46363 1.50142,-2.43246 1.49369,-2.49711 -0.61517,-5.14314 -1.17465,-1.47384 -3.53417,-3.3148 -5.24337,-4.09101 -1.70922,-0.77621 -3.29618,-2.10123 -3.5266,-2.94448 -0.23043,-0.84326 -0.79611,-1.53319 -1.25708,-1.53319 -0.47203,0 -0.60652,0.8832 -0.30788,2.02191 0.38448,1.46607 0.19063,2.02191 -0.70517,2.02191 -2.07835,0 -6.89616,3.11729 -8.07457,5.22452 -0.99894,1.78633 -0.88304,2.28116 1.12422,4.79971 1.40994,1.76907 2.23798,3.82897 2.23798,5.56732 0,2.69002 1.50902,4.71539 4.22542,5.67126 2.37888,0.8371 6.43498,0.57563 7.99395,-0.51533 l 0,0 z M 92.814609,760.54598 c 1.03195,-1.09129 1.583839,-2.86676 1.571233,-5.05477 -0.01341,-2.32883 0.450237,-3.69972 1.498105,-4.42945 2.213807,-1.5417 1.873804,-4.96889 -0.753281,-7.59313 -1.24895,-1.2476 -2.729885,-2.26835 -3.290969,-2.26835 -0.56108,0 -2.201222,-1.05587 -3.64477,-2.34639 -2.263599,-2.02364 -2.624622,-2.13715 -2.624622,-0.8252 0,0.95955 -1.243496,2.12831 -3.36798,3.16555 -4.567516,2.23003 -6.481281,5.07497 -5.210049,7.74511 0.526708,1.10631 1.445605,2.19067 2.041999,2.40969 0.681163,0.25015 0.992763,1.51976 0.838024,3.41454 -0.37549,4.59793 2.749895,7.39489 8.313548,7.43993 2.027461,0.0164 3.567235,-0.53498 4.628762,-1.65753 l 0,0 z"
       id="path2873" />
    <rect
       style="fill:#078930;fill-opacity:1;stroke:none"
       id="rect2875"
       width="26.197605"
       height="76.023659"
       x="77.288475"
       y="736.26477"
       rx="4.6536292e-16"
       ry="4.453614e-16" />
    <rect
       style="fill:#078930;fill-opacity:1;stroke:none"
       id="rect2877"
       width="30.423025"
       height="42.864407"
       x="57.851547"
       y="770.23279"
       rx="4.6536292e-16"
       ry="4.453614e-16" />
    <rect
       style="fill:#078930;fill-opacity:1;stroke:none"
       id="rect2879"
       width="27.042688"
       height="26.689157"
       x="40.104782"
       y="796.11322"
       rx="4.6536292e-16"
       ry="4.453614e-16" />
    <rect
       style="fill:#078930;fill-opacity:1;stroke:none"
       id="rect2881"
       width="19.436934"
       height="15.366485"
       x="48.555626"
       y="766.99774"
       rx="4.6536292e-16"
       ry="4.453614e-16" />
    <rect
       style="fill:#078930;fill-opacity:1;stroke:none"
       id="rect2883"
       width="21.972183"
       height="37.203068"
       x="118.6976"
       y="746.77869"
       rx="4.6536292e-16"
       ry="4.453614e-16" />
    <rect
       style="fill:#078930;fill-opacity:1;stroke:none"
       id="rect2885"
       width="34.648445"
       height="68.744797"
       x="106.02135"
       y="745.16119"
       rx="4.6536292e-16"
       ry="4.453614e-16" />
    <rect
       style="fill:#078930;fill-opacity:1;stroke:none"
       id="rect2887"
       width="14.366428"
       height="12.940198"
       x="100.10575"
       y="792.87817"
       rx="4.6536292e-16"
       ry="4.453614e-16" />
    <rect
       style="fill:#078930;fill-opacity:1;stroke:none"
       id="rect2889"
       width="13.521344"
       height="19.410297"
       x="135.59927"
       y="790.45184"
       rx="4.6536292e-16"
       ry="4.453614e-16" />
    <rect
       style="fill:#078930;fill-opacity:1;stroke:none"
       id="rect2891"
       width="27.042688"
       height="15.366485"
       x="133.90912"
       y="815.5235"
       rx="4.6536292e-16"
       ry="4.453614e-16" />
    <rect
       style="fill:#078930;fill-opacity:1;stroke:none"
       id="rect2893"
       width="9.2959242"
       height="6.470099"
       x="145.74028"
       y="828.46368"
       rx="4.6536292e-16"
       ry="4.453614e-16" />
    <rect
       style="fill:#078930;fill-opacity:1;stroke:none"
       id="rect2895"
       width="16.056597"
       height="13.74896"
       x="138.97961"
       y="806.62714"
       rx="4.6536292e-16"
       ry="4.453614e-16" />
    <rect
       style="fill:#078930;fill-opacity:1;stroke:none"
       id="rect2897"
       width="7.6057558"
       height="5.6613364"
       x="143.20505"
       y="827.65491"
       rx="4.6536292e-16"
       ry="4.453614e-16" />
    <rect
       style="fill:#078930;fill-opacity:1;stroke:none"
       id="rect2899"
       width="9.2959242"
       height="7.278861"
       x="74.753235"
       y="742.73492"
       rx="4.6536292e-16"
       ry="4.453614e-16" />
    <path
       style="fill:#078930;fill-opacity:1;stroke:none"
       d="m 103.34303,891.5467 c -1.48487,-1.95583 -3.01503,-4.08982 -3.400346,-4.7422 -0.556558,-0.94232 -1.106917,-1.00084 -2.677243,-0.28465 -8.202577,3.74093 -12.540219,4.82541 -12.540219,3.13523 0,-0.65837 -0.85565,-1.97615 -1.901443,-2.9284 -1.698286,-1.54638 -2.589691,-1.68828 -8.343308,-1.32818 -3.543027,0.22175 -7.283405,0.8342 -8.311944,1.361 -3.801624,1.94712 -2.420968,0.18892 2.261786,-2.88028 5.644876,-3.69979 14.2087,-11.83407 16.06568,-15.25984 2.216889,-4.08973 3.6586,-12.58646 3.849057,-22.68438 0.166737,-8.84029 0.01053,-9.9845 -1.75273,-12.83994 -1.064681,-1.72413 -1.709509,-3.35133 -1.432946,-3.616 0.276553,-0.26467 0.76737,-0.0745 1.09069,0.42261 0.899511,1.38298 7.607996,2.85156 10.372016,2.27057 1.352724,-0.28434 2.800534,-1.10019 3.217359,-1.81299 0.691041,-1.18176 0.883061,-1.17618 2.178111,0.0632 0.78113,0.74757 1.61595,1.35921 1.85514,1.35921 0.23919,0 2.41278,-2.00169 4.8302,-4.44819 5.35251,-5.41693 7.62607,-5.88864 6.82161,-1.41534 -0.29999,1.66807 -1.73072,5.21652 -3.1794,7.88544 -2.39849,4.41873 -2.63648,5.53948 -2.66194,12.53581 -0.0288,7.91506 0.90359,12.00493 5.12314,22.47234 3.44946,8.55704 6.42589,12.10766 16.22861,19.35927 1.93395,1.43065 1.92106,1.43807 -2.83586,1.63338 -4.34421,0.17835 -4.99341,-0.0238 -7.14106,-2.2241 -4.00212,-4.10014 -9.24581,-2.51778 -12.93565,3.90353 l -2.07954,3.61896 -2.69977,-3.55606 z"
       id="path2901" />
  </g>
</svg>
