<?xml version="1.0" encoding="UTF-8" standalone="no"?>
<!-- Created with Inkscape (http://www.inkscape.org/) -->
<svg
   xmlns:dc="http://purl.org/dc/elements/1.1/"
   xmlns:cc="http://creativecommons.org/ns#"
   xmlns:rdf="http://www.w3.org/1999/02/22-rdf-syntax-ns#"
   xmlns:svg="http://www.w3.org/2000/svg"
   xmlns="http://www.w3.org/2000/svg"
   xmlns:sodipodi="http://sodipodi.sourceforge.net/DTD/sodipodi-0.dtd"
   xmlns:inkscape="http://www.inkscape.org/namespaces/inkscape"
   id="svg1306"
   sodipodi:version="0.32"
   inkscape:version="0.46"
   width="750"
   height="500"
   version="1.0"
   sodipodi:docbase="D:\MIS DOCUMENTOS\Mis imágenes\Encyclopédie\Banderas antioqueñas"
   sodipodi:docname="Flag.svg"
   inkscape:output_extension="org.inkscape.output.svg.inkscape">
  <metadata
     id="metadata1311">
    <rdf:RDF>
      <cc:Work
         rdf:about="">
        <dc:format>image/svg+xml</dc:format>
        <dc:type
           rdf:resource="http://purl.org/dc/dcmitype/StillImage" />
      </cc:Work>
    </rdf:RDF>
  </metadata>
  <defs
     id="defs1309" />
  <sodipodi:namedview
     inkscape:window-height="712"
     inkscape:window-width="1024"
     inkscape:pageshadow="2"
     inkscape:pageopacity="0.0"
     borderopacity="1.0"
     bordercolor="#666666"
     pagecolor="#ffffff"
     id="base"
     inkscape:zoom="1.014"
     inkscape:cx="375"
     inkscape:cy="250"
     inkscape:window-x="-4"
     inkscape:window-y="-4"
     inkscape:current-layer="svg1306"
     fill="#ffff00"
     showgrid="true" />
  <rect
     style="fill:#da121a;fill-opacity:1;fill-rule:nonzero;stroke:#000000;stroke-width:0.54746026;stroke-linecap:butt;stroke-linejoin:miter;stroke-miterlimit:4;stroke-dasharray:none;stroke-opacity:0"
     id="rect3950"
     width="750.6355"
     height="167.5405"
     x="0.25796825"
     y="165.67453" />
  <rect
     style="fill:#078900;fill-opacity:0.99470903;fill-rule:nonzero;stroke:#008000;stroke-width:0.54746026;stroke-linecap:butt;stroke-linejoin:miter;stroke-miterlimit:4;stroke-dasharray:none;stroke-opacity:1"
     id="rect1312"
     width="750.63544"
     height="167.5405"
     x="-0.12448942"
     y="-166.2027"
     transform="scale(1,-1)" />
  <rect
     style="fill:#fcdd09;fill-opacity:1;fill-rule:nonzero;stroke:#000000;stroke-width:0.54706317000000004;stroke-linecap:butt;stroke-linejoin:miter;stroke-miterlimit:4;stroke-dasharray:none;stroke-opacity:0"
     id="rect1314"
     width="749.53882"
     height="167.54228"
     x="0.73554212"
     y="-499.85071"
     transform="scale(1,-1)" />
  <g
     id="g2421"
     transform="matrix(0.49,0,0,0.49,239.71169,-78.447348)"
     style="fill:#ffffff;stroke:#000000;stroke-opacity:1">
    <path
       style="opacity:0.63999998999999996;fill:#ffffff;fill-opacity:1;stroke:#000000;stroke-opacity:1"
       id="path1887"
       d="" />
    <path
       style="opacity:0.63999998999999996;fill:#ffffff;fill-opacity:1;stroke:#000000;stroke-opacity:1"
       id="path1883"
       d="" />
    <path
       style="opacity:0.63999998999999996;fill:#ffffff;fill-opacity:1;stroke:#000000;stroke-opacity:1"
       id="path1881"
       d="" />
    <g
       id="g5190"
       transform="translate(669.08578,0.258075)"
       style="fill:#ffffff;stroke:#000000;stroke-opacity:1" />
    <g
       id="g5192"
       transform="translate(669.08578,0.258075)"
       style="fill:#ffffff;stroke:#000000;stroke-opacity:1" />
    <g
       id="g5194"
       transform="translate(669.08578,0.258075)"
       style="fill:#ffffff;stroke:#000000;stroke-opacity:1" />
    <g
       id="layer4"
       transform="translate(27.500153,-8.9406967e-8)"
       style="fill:#ffffff;stroke:#000000;stroke-opacity:1" />
    <g
       id="layer5"
       transform="translate(27.500153,-8.9406967e-8)"
       style="fill:#ffffff;stroke:#000000;stroke-opacity:1" />
    <g
       id="layer6"
       transform="translate(27.500153,-8.9406967e-8)"
       style="fill:#ffffff;stroke:#000000;stroke-opacity:1" />
    <g
       style="fill:#ffffff;stroke:#000000;stroke-width:0.29385140999999998;stroke-miterlimit:4;stroke-dasharray:none;stroke-opacity:1"
       id="g4381"
       transform="matrix(3.4030804,0,0,3.4030804,104.8206,460.74735)">
      <g
         style="fill:#ffffff;stroke:#000000;stroke-width:0.29385140999999998;stroke-miterlimit:4;stroke-dasharray:none;stroke-opacity:1;display:inline"
         id="layer3"
         transform="translate(-346.32955,-512.97157)" />
      <g
         style="fill:#ffffff;stroke:#000000;stroke-width:0.29385140999999998;stroke-miterlimit:4;stroke-dasharray:none;stroke-opacity:1;display:inline"
         id="g4384"
         transform="translate(-346.32955,-512.97157)" />
      <g
         style="fill:#ffffff;stroke:#000000;stroke-width:0.29385140999999998;stroke-miterlimit:4;stroke-dasharray:none;stroke-opacity:1;display:inline"
         id="g4386"
         transform="translate(-289.90083,-589.61191)" />
      <g
         style="fill:#ffffff;stroke:#000000;stroke-width:0.29385140999999998;stroke-miterlimit:4;stroke-dasharray:none;stroke-opacity:1;display:inline"
         id="g4388"
         transform="translate(-289.90083,-589.61191)" />
      <g
         style="fill:#ffffff;stroke:#000000;stroke-width:0.29385140999999998;stroke-miterlimit:4;stroke-dasharray:none;stroke-opacity:1"
         id="g4390"
         transform="translate(-289.90083,-589.61191)" />
      <g
         style="fill:#ffffff;stroke:#000000;stroke-width:0.29385140999999998;stroke-miterlimit:4;stroke-dasharray:none;stroke-opacity:1;display:inline"
         id="g4392"
         transform="translate(-289.90083,-589.61191)">
        <g
           style="fill:#ffffff;fill-opacity:1;stroke:#000000;stroke-width:0.45328170000000001;stroke-miterlimit:4;stroke-dasharray:none;stroke-opacity:1;display:inline"
           id="g9081"
           transform="matrix(0.6661114,0,0,0.6309172,8.661349,479.93587)">
          <path
             style="fill:#ffffff;fill-opacity:1;stroke:#000000;stroke-width:0.45328170000000001;stroke-miterlimit:4;stroke-dasharray:none;stroke-opacity:1"
             id="path9083"
             d="M 554.7,298.6 C 562.8,295.3 569.3,289.3 574.2,280.8 C 576.3,275.8 577.099,269.8 576.599,262.7 C 572.499,245.5 562.4,238.7 546.299,242.3 C 517.699,254.4 502.4965,274.8 506.6965,303.4 C 509.8965,303 516.199,302.5 519.598,301.9 C 518.598,299.7 518.399,297.1 518.998,294.1 C 519.898,289.6 524.598,285.4 532.998,281.4 C 537.098,280.1 540.698,280.7 543.898,283.4 C 547.597,287.9 547.698,291.9 544.097,295.3 C 541.997,296.8 540.797,299.3 540.597,302.7 C 540.898,305.5 542.597,307.7 545.597,309.2 C 548.297,310.5 549.597,310 549.797,307.6 C 549.6,303.2 551.1,300.2 554.7,298.6 z" />
          <path
             style="fill:#ffffff;fill-opacity:1;stroke:#000000;stroke-width:0.45328170000000001;stroke-miterlimit:4;stroke-dasharray:none;stroke-opacity:1"
             id="path9085"
             d="M 509.1,187.6 C 505.701,185.2 503.901,182.1 503.8,178.5 C 503.6,175.9 502.2,174.5 499.6,174.2 C 497,174.5 495.7,175.9 495.5,178.5 C 495.4,182.1 493.6,185.2 490.1,187.6 C 482.8,194.1 478.6,204.4 477.6,218.5 C 477.4,234.3 480.9,248.5 488.1,261.1 C 495.2,275.8 494.2975,290.1 491.2975,303.9 C 492.1975,304 496.1,304.1 496.9,304.1 C 497,304.1 497.1,304.1 497.1,304.1 L 502.1,304.1 C 502.201,304.1 502.3,304.1 502.3,304.1 C 503.2,304.1 507.1025,304 508.0025,303.9 C 505.0025,290.1 504.1,275.8 511.2,261.1 C 518.3,248.5 521.8,234.3 521.7,218.5 C 520.6,204.4 516.5,194.1 509.1,187.6 z" />
          <path
             style="fill:#ffffff;fill-opacity:1;stroke:#000000;stroke-width:0.45328170000000001;stroke-miterlimit:4;stroke-dasharray:none;stroke-opacity:1"
             id="path9087"
             d="M 455.1,295.3 C 451.5,291.9 451.6,287.9 455.3,283.4 C 458.5,280.7 462.2,280.1 466.2,281.4 C 474.7,285.4 479.4,289.6 480.3,294.1 C 480.8,297.1 480.6,299.7 479.7,301.9 C 483.1,302.5 486.3,303 489.6,303.4 L 492.6025,303.3 C 496.8025,274.8 481.6,254.5 453,242.3 C 436.8,238.7 426.7,245.5 422.7,262.7 C 422.2,269.8 423,275.8 425.1,280.8 C 430,289.3 436.5,295.3 444.6,298.6 C 448.1,300.2 449.7,303.2 449.4,307.6 C 449.6,310 451,310.5 453.7,309.2 C 456.7,307.7 458.3,305.5 458.7,302.7 C 458.4,299.3 457.3,296.8 455.1,295.3 z" />
          <path
             style="fill:#ffffff;fill-opacity:1;stroke:#000000;stroke-width:0.45328170000000001;stroke-miterlimit:4;stroke-dasharray:none;stroke-opacity:1"
             id="path9089"
             d="M 450.2,323.7 C 449.5,331.2 453.1,335.5 461.1,336.6 C 467.8,337 473.4,335.9 477.9,333.5 C 472.8,332.6 468.9,330.4 466,326.9 C 465,325.6 464.1,324.2 463.4,322.6 C 466,320.8 466.7,319.4 465.4,318.1 C 464,316.4 461.4,315.5 457.8,315.5 C 453.8,316.1 451.3,318.9 450.2,323.7 z" />
          <path
             style="fill:#ffffff;fill-opacity:1;stroke:#000000;stroke-width:0.45328170000000001;stroke-miterlimit:4;stroke-dasharray:none;stroke-opacity:1"
             id="path9091"
             d="M 509.7,303.4 C 508.099,303.6 506.5,303.8 505,303.9 C 504.1,304 503.2,304.1 502.3,304.1 C 502.3,304.1 502.2,304.1 502.1,304.1 L 497.1,304.1 C 497.1,304.1 497,304.1 496.9,304.1 C 496.1,304.1 495.2,304 494.3,303.9 C 492.8,303.8 491.2,303.6 489.6,303.4 C 486.3,303 483.1,302.5 479.7,301.9 C 479.7,301.9 479.7,301.9 479.7,302 L 479.7,301.9 C 479.7,301.9 479.6,301.8 479.4,301.8 C 478.3,301.5 477.2,301.3 476,301.1 C 474.6,301.1 473.7,301.7 473.4,302.7 C 472.9,303.6 473.4,304.5 474.7,305.6 C 482.9,306.9 490.4,307.6 497.3,307.7 C 497.8,307.7 498.4,307.7 499,307.7 L 500.2,307.7 C 500.8,307.7 501.4,307.7 502,307.7 C 508.8,307.6 516.4,306.9 524.6,305.6 C 525.901,304.5 526.3,303.6 525.901,302.7 C 525.6,301.7 524.6,301.1 523.201,301.1 C 522.1,301.3 521.001,301.5 519.901,301.8 C 519.6,301.8 519.6,301.9 519.6,301.9 L 519.6,302 C 519.6,301.9 519.6,301.9 519.6,301.9 C 516.2,302.5 512.9,303 509.7,303.4 z" />
          <path
             style="fill:#ffffff;fill-opacity:1;stroke:#000000;stroke-width:0.45328170000000001;stroke-miterlimit:4;stroke-dasharray:none;stroke-opacity:1"
             id="path9093"
             d="M 532.2,307.4 C 531.599,305.7 530.3,304.9 528.099,304.9 C 526.9,305.2 525.799,305.4 524.599,305.6 C 516.4,306.9 508.799,307.6 501.999,307.7 C 501.399,307.7 500.799,307.7 500.199,307.7 L 499,307.7 C 498.4,307.7 497.8,307.7 497.3,307.7 C 490.4,307.6 482.9,306.9 474.7,305.6 C 473.5,305.4 472.3,305.2 471.2,304.9 C 469,304.9 467.6,305.7 467,307.4 C 466.7,308.9 467.1,309.8 468.3,310.2 C 469.1,310.4 470.9,310.8 473.5,311.4 C 474.9,311.7 476.6,312.1 478.5,312.5 C 483.2,313.5 489.4,314.1 497.3,314.4 C 498,314.4 498.8,314.4 499.6,314.5 C 500.4,314.4 501.2,314.4 502,314.4 C 509.9,314.1 516.1,313.5 520.8,312.5 C 522.6,312.1 524.3,311.7 525.8,311.4 C 528.401,310.8 530.1,310.4 530.901,310.2 C 532.1,309.8 532.6,308.9 532.2,307.4 z" />
          <path
             style="fill:#ffffff;fill-opacity:1;stroke:#000000;stroke-width:0.45328170000000001;stroke-miterlimit:4;stroke-dasharray:none;stroke-opacity:1"
             id="path9095"
             d="M 498.9,319.2 L 500.4,319.2 C 501,319.2 501.5,319.2 502.2,319.1 C 503,319.1 503.9,319 504.9,319 L 505,319 C 506.5,318.8 508.3,318.7 510.2,318.5 C 513.099,318.2 516.4,317.8 520.099,317.3 C 521.599,317 523.299,316.8 524.999,316.6 C 526.599,316.3 527.399,315.5 527.499,314.1 C 527.599,313.2 526.999,312.3 525.799,311.4 C 524.299,311.7 522.599,312.1 520.799,312.5 C 516.099,313.5 509.9,314.1 501.999,314.4 C 501.199,314.4 500.399,314.4 499.599,314.5 C 498.799,314.4 497.999,314.4 497.299,314.4 C 489.399,314.1 483.199,313.5 478.499,312.5 C 476.599,312.1 474.899,311.7 473.499,311.4 C 472.299,312.3 471.699,313.2 471.699,314.1 C 471.799,315.5 472.699,316.3 474.299,316.6 C 475.999,316.8 477.599,317 479.199,317.3 C 482.899,317.8 486.199,318.2 488.999,318.5 C 490.999,318.7 492.799,318.8 494.299,319 C 495.299,319 496.299,319.1 497.099,319.1 C 497.7,319.2 498.3,319.2 498.9,319.2 z" />
          <path
             style="fill:#ffffff;fill-opacity:1;stroke:#000000;stroke-width:0.45328170000000001;stroke-miterlimit:4;stroke-dasharray:none;stroke-opacity:1"
             id="path9097"
             d="M 500.4,319.2 L 498.9,319.2 C 498.3,319.2 497.7,319.2 497.1,319.1 C 496.3,319.1 492.2975,319 491.2975,319 C 488.9975,328.5 485,335.7 473.5,340.5 L 473.5,340.6 C 481.6,345.3 487.6,344.5 491.6,338.1 C 492.5,336.6 493.3,334.8 493.9,332.7 C 494.3,334.7 494,336.4 493.2,337.7 C 493,338.1 492.7,338.4 492.5,338.8 C 491,341.2 490.3,343.7 490.6,346.3 C 491.2,349.5 492.9,351.7 495.8,352.9 C 495.9,357.3 497.1,361 499.5,364.2 L 499.8,364.2 C 502.1,361 503.3,357.3 503.5,352.9 C 506.3,351.7 508.1,349.5 508.7,346.3 C 509,343.7 508.3,341.2 506.8,338.8 C 506.5,338.4 506.3,338.1 506,337.7 C 505.2,336.4 505,334.7 505.3,332.7 C 506,334.8 506.8,336.6 507.7,338.1 C 511.599,344.5 517.599,345.3 525.8,340.6 L 525.8,340.5 C 514.2,335.7 510.3025,328.5 508.0025,319 C 513.66348,318.96914 504.63859,319.05843 502.2,319.1 C 501.5,319.2 501,319.2 500.4,319.2 z" />
          <path
             style="fill:#ffffff;fill-opacity:1;stroke:#000000;stroke-width:0.45328170000000001;stroke-miterlimit:4;stroke-dasharray:none;stroke-opacity:1"
             id="path9099"
             d="M 466,326.9 C 468.9,330.4 472.8,332.6 477.9,333.5 C 483.3,330.6 490.0025,325.6 492.0025,318.5 C 489.2025,318.2 482.9,317.8 479.2,317.3 C 477.6,322 473.3,325.2 466,326.9 z" />
          <path
             style="fill:#ffffff;fill-opacity:1;stroke:#000000;stroke-width:0.45328170000000001;stroke-miterlimit:4;stroke-dasharray:none;stroke-opacity:1"
             id="path9101"
             d="M 473.5,340.5 L 473.4,340.6 C 473.5,340.6 473.5,340.6 473.5,340.6 L 473.5,340.5 z" />
          <path
             style="fill:#ffffff;fill-opacity:1;stroke:#000000;stroke-width:0.45328170000000001;stroke-miterlimit:4;stroke-dasharray:none;stroke-opacity:1"
             id="path9103"
             d="M 541.5,315.5 C 537.8,315.5 535.3,316.4 533.9,318.1 C 532.599,319.4 533.299,320.8 535.9,322.6 C 535.099,324.2 534.299,325.6 533.299,326.9 C 530.4,330.4 526.499,332.6 521.4,333.5 C 525.9,335.9 531.4,337 538.099,336.6 C 546.099,335.5 549.799,331.2 549.099,323.7 C 548,318.9 545.4,316.1 541.5,315.5 z" />
          <path
             style="fill:#ffffff;fill-opacity:1;stroke:#000000;stroke-width:0.45328170000000001;stroke-miterlimit:4;stroke-dasharray:none;stroke-opacity:1"
             id="path9105"
             d="M 520.1,317.3 C 516.401,317.8 510.0975,318.2 507.1985,318.5 C 509.1985,325.6 516.001,330.6 521.401,333.5 C 526.501,332.6 530.401,330.4 533.3,326.9 C 526,325.2 521.6,322 520.1,317.3 z" />
          <path
             style="fill:#ffffff;fill-opacity:1;stroke:#000000;stroke-width:0.45328170000000001;stroke-linecap:round;stroke-linejoin:round;stroke-miterlimit:4;stroke-dasharray:none;stroke-opacity:1"
             id="path9115"
             d="M 509.7,303.4 C 508.099,303.6 506.5,303.8 505,303.9" />
          <path
             style="fill:#ffffff;fill-opacity:1;stroke:#000000;stroke-width:0.45328170000000001;stroke-linecap:round;stroke-linejoin:round;stroke-miterlimit:4;stroke-dasharray:none;stroke-opacity:1"
             id="path9119"
             d="M 509.7,303.4 C 512.9,303 516.2,302.5 519.599,301.9" />
          <path
             style="fill:#ffffff;fill-opacity:1;stroke:#000000;stroke-width:0.45328170000000001;stroke-linecap:round;stroke-linejoin:round;stroke-miterlimit:4;stroke-dasharray:none;stroke-opacity:1"
             id="path9127"
             d="M 505,303.9 C 504.1,304 503.2,304.1 502.3,304.1 C 502.3,304.1 502.2,304.1 502.1,304.1 L 497.1,304.1 C 497.1,304.1 497,304.1 496.9,304.1 C 496.1,304.1 495.2,304 494.3,303.9" />
        </g>
      </g>
    </g>
  </g>
</svg>
