<?xml version="1.0" encoding="UTF-8" standalone="no"?>
<!-- Created with Inkscape (http://www.inkscape.org/) -->
<svg
   xmlns:dc="http://purl.org/dc/elements/1.1/"
   xmlns:cc="http://creativecommons.org/ns#"
   xmlns:rdf="http://www.w3.org/1999/02/22-rdf-syntax-ns#"
   xmlns:svg="http://www.w3.org/2000/svg"
   xmlns="http://www.w3.org/2000/svg"
   xmlns:sodipodi="http://sodipodi.sourceforge.net/DTD/sodipodi-0.dtd"
   xmlns:inkscape="http://www.inkscape.org/namespaces/inkscape"
   id="svg1306"
   sodipodi:version="0.32"
   inkscape:version="0.46"
   width="750"
   height="500"
   version="1.0"
   sodipodi:docbase="D:\MIS DOCUMENTOS\Mis imágenes\Encyclopédie\Banderas antioqueñas"
   sodipodi:docname="Flag.svg"
   inkscape:output_extension="org.inkscape.output.svg.inkscape">
  <metadata
     id="metadata1311">
    <rdf:RDF>
      <cc:Work
         rdf:about="">
        <dc:format>image/svg+xml</dc:format>
        <dc:type
           rdf:resource="http://purl.org/dc/dcmitype/StillImage" />
      </cc:Work>
    </rdf:RDF>
  </metadata>
  <defs
     id="defs1309" />
  <sodipodi:namedview
     inkscape:window-height="712"
     inkscape:window-width="1024"
     inkscape:pageshadow="2"
     inkscape:pageopacity="0.0"
     borderopacity="1.0"
     bordercolor="#666666"
     pagecolor="#ffffff"
     id="base"
     inkscape:zoom="1.010492"
     inkscape:cx="375.38449"
     inkscape:cy="250.74364"
     inkscape:window-x="-4"
     inkscape:window-y="-4"
     inkscape:current-layer="svg1306"
     fill="#ffff00"
     showgrid="true" />
  <rect
     style="fill:#da121a;fill-opacity:1;fill-rule:nonzero;stroke:#000000;stroke-width:0.54746026;stroke-linecap:butt;stroke-linejoin:miter;stroke-miterlimit:4;stroke-dasharray:none;stroke-opacity:0"
     id="rect3950"
     width="750.6355"
     height="167.5405"
     x="0.25796825"
     y="165.67453" />
  <path
     id="path2386"
     style="fill:#ffffff;fill-rule:evenodd;stroke:none;stroke-width:1px;stroke-linecap:butt;stroke-linejoin:miter;stroke-opacity:1"
     d="M 65.356997,308.43787 L 41.356997,258.43787 C 283.6839,164.34661 558.74778,190.39089 715.74359,254.43787 L 695.74359,308.43787 C 538.74778,244.39089 307.6839,214.34661 65.356997,308.43787 z"
     sodipodi:nodetypes="ccccc" />
  <rect
     style="fill:#078900;fill-opacity:0.99470903;fill-rule:nonzero;stroke:#008000;stroke-width:0.54746026;stroke-linecap:butt;stroke-linejoin:miter;stroke-miterlimit:4;stroke-dasharray:none;stroke-opacity:1"
     id="rect1312"
     width="750.63544"
     height="167.5405"
     x="-0.12448942"
     y="-166.2027"
     transform="scale(1,-1)" />
  <rect
     style="fill:#fcdd09;fill-opacity:1;fill-rule:nonzero;stroke:#000000;stroke-width:0.54706317000000004;stroke-linecap:butt;stroke-linejoin:miter;stroke-miterlimit:4;stroke-dasharray:none;stroke-opacity:0"
     id="rect1314"
     width="749.53882"
     height="167.54228"
     x="0.73554212"
     y="-499.85071"
     transform="scale(1,-1)" />
  <path
     style="font-size:55px;font-style:normal;font-variant:normal;font-weight:normal;font-stretch:normal;text-align:start;line-height:100%;writing-mode:lr-tb;text-anchor:start;fill:#fcdd09;fill-opacity:1;stroke:#000000;stroke-width:0.2;stroke-linecap:butt;stroke-linejoin:miter;stroke-opacity:1;font-family:Arial;-inkscape-font-specification:Arial;stroke-miterlimit:4;stroke-dasharray:none"
     d="M 69.277624,298.80733 L 55.776445,261.82457 L 69.726966,256.7317 C 72.182385,255.83535 74.100567,255.2685 75.481517,255.03115 C 77.408362,254.67083 79.140672,254.69121 80.678454,255.09227 C 82.216204,255.49343 83.638643,256.32259 84.945773,257.57977 C 86.252865,258.83703 87.241037,260.38222 87.910277,262.21534 C 89.058377,265.36034 89.029317,268.3871 87.823087,271.29562 C 86.616817,274.2042 83.398497,276.61319 78.168121,278.52261 L 68.682776,281.9854 L 74.171659,297.02068 L 69.277624,298.80733 z M 67.089526,277.62113 L 76.650552,274.13072 C 79.812319,272.97648 81.84263,271.5682 82.741489,269.90588 C 83.640313,268.24362 83.699864,266.34453 82.920142,264.20861 C 82.355273,262.66139 81.480755,261.47973 80.296585,260.66361 C 79.112385,259.84756 77.816743,259.49624 76.409655,259.60964 C 75.505748,259.69189 73.943813,260.13822 71.723847,260.94861 L 62.263729,264.40219 L 67.089526,277.62113 z M 99.730027,287.68428 L 102.16028,245.58079 L 107.50722,243.87384 L 134.83049,276.47878 L 129.17656,278.28375 L 121.17552,268.32131 L 105.49288,273.32785 L 105.00022,286.00182 L 99.730027,287.68428 z M 105.63512,268.8283 L 118.35009,264.76916 L 111.11991,255.63188 C 108.91871,252.85777 107.2042,250.54845 105.97638,248.70392 C 106.26654,251.26125 106.35512,253.86411 106.24213,256.51249 L 105.63512,268.8283 z M 133.84812,263.63166 L 138.47425,261.91808 C 139.21933,263.7559 140.16879,265.17106 141.32263,266.16354 C 142.47647,267.15604 144.01966,267.79119 145.95223,268.069 C 147.88477,268.34682 149.93021,268.18992 152.08857,267.5983 C 154.00516,267.07296 155.61921,266.32423 156.93071,265.35212 C 158.24218,264.38004 159.12013,263.29936 159.56459,262.1101 C 160.00899,260.92086 160.07028,259.73916 159.74847,258.56501 C 159.42188,257.37362 158.79139,256.42796 157.857,255.72802 C 156.92256,255.02812 155.57826,254.59371 153.82409,254.42477 C 152.69648,254.3069 150.27397,254.30726 146.55656,254.42585 C 142.83912,254.54448 140.17935,254.42423 138.57724,254.0651 C 136.50392,253.61241 134.82978,252.8043 133.55481,251.64078 C 132.27985,250.47732 131.40335,249.0236 130.92533,247.27963 C 130.39998,245.36305 130.45284,243.42255 131.08392,241.4581 C 131.715,239.49372 132.95686,237.79351 134.80948,236.35746 C 136.66211,234.92148 138.86616,233.85324 141.42165,233.15273 C 144.23611,232.38131 146.84244,232.15421 149.24064,232.47142 C 151.63881,232.78872 153.65772,233.6694 155.29736,235.11346 C 156.93697,236.55761 158.10522,238.38153 158.80212,240.58523 L 154.08409,242.26831 C 153.1672,239.93927 151.79396,238.36646 149.96437,237.54987 C 148.13474,236.73337 145.7609,236.72503 142.84283,237.52485 C 139.80388,238.35788 137.74206,239.52172 136.65736,241.01639 C 135.57266,242.51113 135.24566,244.04411 135.67635,245.61535 C 136.05025,246.97945 136.84999,247.9669 138.07558,248.5777 C 139.28389,249.19329 142.05644,249.40329 146.39324,249.20771 C 150.73002,249.01217 153.7528,249.05148 155.46161,249.32563 C 157.95097,249.73858 159.93646,250.58201 161.41808,251.85592 C 162.89965,253.12987 163.91969,254.78558 164.4782,256.82303 C 165.03192,258.84326 164.97529,260.90546 164.3083,263.00966 C 163.64126,265.11388 162.36033,266.95939 160.46553,268.5462 C 158.57067,270.13302 156.26781,271.29796 153.55696,272.04102 C 150.12086,272.98287 147.10438,273.27135 144.50751,272.90645 C 141.91062,272.54156 139.67604,271.53435 137.80375,269.88484 C 135.93146,268.23534 134.61292,266.15095 133.84812,263.63166 L 133.84812,263.63166 z M 168.59694,247.41313 C 167.15648,241.03906 167.74017,235.66218 170.34803,231.28248 C 172.95588,226.90284 176.96661,224.1013 182.38023,222.87786 C 185.92526,222.07677 189.31244,222.20153 192.54178,223.25215 C 195.77107,224.30285 198.47464,226.17441 200.65249,228.86682 C 202.83029,231.55931 204.35331,234.82649 205.22157,238.66838 C 206.10159,242.56272 206.10307,246.22423 205.22599,249.65292 C 204.34884,253.08166 202.64814,255.91181 200.12389,258.14339 C 197.59958,260.375 194.6697,261.86768 191.33424,262.62145 C 187.71932,263.43837 184.2913,263.29531 181.05015,262.19225 C 177.80898,261.08921 175.11358,259.19286 172.96393,256.50321 C 170.81427,253.81358 169.35861,250.78356 168.59694,247.41313 L 168.59694,247.41313 z M 173.85368,246.30777 C 174.89949,250.93556 176.96757,254.29982 180.05793,256.40059 C 183.14827,258.50137 186.57075,259.12752 190.32537,258.27902 C 194.1498,257.41475 196.99368,255.35873 198.857,252.11094 C 200.72026,248.86319 201.09349,244.76826 199.97666,239.82613 C 199.27022,236.70023 198.12532,234.09098 196.54196,231.99836 C 194.95856,229.90582 193.0046,228.44763 190.68008,227.62381 C 188.35553,226.80006 185.92718,226.67429 183.39502,227.24649 C 179.79757,228.0595 176.98142,229.99453 174.94656,233.0516 C 172.91169,236.10874 172.54739,240.52746 173.85368,246.30777 L 173.85368,246.30777 z M 231.12323,253.77786 L 224.95165,214.89447 L 238.346,212.76852 C 241.36966,212.28864 243.70667,212.10805 245.35703,212.22675 C 247.66637,212.38596 249.71456,213.01257 251.5016,214.10661 C 253.82776,215.51395 255.71322,217.48519 257.15798,220.02033 C 258.60267,222.55554 259.60008,225.55599 260.15019,229.02169 C 260.61885,231.97466 260.68941,234.64636 260.36188,237.03682 C 260.03428,239.4273 259.44977,241.45521 258.60833,243.12055 C 257.76683,244.78592 256.77317,246.14913 255.62735,247.21018 C 254.48148,248.27126 253.03742,249.16665 251.29517,249.89637 C 249.55287,250.62611 247.50587,251.1776 245.15414,251.55087 L 231.12323,253.77786 z M 235.54049,248.3726 L 243.84233,247.05493 C 246.40624,246.64799 248.37971,246.09003 249.76275,245.38106 C 251.14574,244.67211 252.2017,243.81566 252.93064,242.81169 C 253.95704,241.39797 254.64716,239.60709 255.00099,237.43904 C 255.35477,235.27101 255.29873,232.71937 254.83287,229.78408 C 254.18734,225.71718 253.02378,222.69778 251.34218,220.72588 C 249.66054,218.75405 247.80595,217.54834 245.77841,217.10875 C 244.31497,216.79723 242.05375,216.88421 238.99473,217.36971 L 230.8255,218.66633 L 235.54049,248.3726 z M 270.52048,247.752 L 266.06818,208.63445 L 294.35236,205.41519 L 294.87777,210.03138 L 271.77013,212.66145 L 273.13376,224.64221 L 294.77382,222.17917 L 295.29619,226.76868 L 273.65613,229.23171 L 275.17161,242.54663 L 299.18648,239.81329 L 299.71189,244.42948 L 270.52048,247.752 z M 333.38401,241.99314 L 316.05407,203.4917 L 321.68571,203.19121 L 333.42702,231.20648 C 334.3715,233.45102 335.17429,235.55968 335.83537,237.53246 C 336.32874,235.35465 336.92045,233.17159 337.61052,230.98326 L 346.70627,201.85618 L 352.0161,201.57286 L 338.72066,241.70839 L 333.38401,241.99314 z M 358.95237,240.8138 L 358.5243,201.44601 L 386.98941,201.13649 L 387.03993,205.78221 L 363.78446,206.03508 L 363.91557,218.09247 L 385.69407,217.85566 L 385.74429,222.47453 L 363.9658,222.71134 L 364.1115,236.11143 L 388.28,235.84863 L 388.33051,240.49435 L 358.95237,240.8138 z M 395.5319,240.56789 L 396.84314,201.21962 L 402.18442,201.39761 L 421.82216,232.97982 L 422.85166,202.08632 L 427.844,202.25269 L 426.53276,241.60096 L 421.19149,241.42297 L 401.55464,209.81392 L 400.52425,240.73426 L 395.5319,240.56789 z M 464.40159,230.55284 L 469.49095,232.2773 C 468.06329,236.45633 465.84609,239.55337 462.83933,241.56845 C 459.83252,243.58352 456.2856,244.42868 452.19858,244.10394 C 447.96873,243.76784 444.59707,242.63336 442.08359,240.7005 C 439.57009,238.76764 437.75152,236.11322 436.62787,232.73724 C 435.50421,229.36127 435.09129,225.79931 435.38909,222.05134 C 435.71384,217.96431 436.77793,214.46134 438.58137,211.54242 C 440.3848,208.62356 442.79044,206.48888 445.79831,205.13837 C 448.80615,203.78794 452.04128,203.25027 455.50369,203.52534 C 459.43009,203.83737 462.65244,205.09917 465.17075,207.31076 C 467.68899,209.52242 469.33069,212.48158 470.09585,216.18824 L 464.88685,216.98664 C 464.2035,214.05876 463.048,211.8746 461.42036,210.43416 C 459.79265,208.99377 457.66704,208.16933 455.0435,207.96084 C 452.02727,207.72121 449.44889,208.24372 447.30836,209.52837 C 445.1678,210.81308 443.59025,212.64089 442.57571,215.01179 C 441.56115,217.38275 440.95106,219.86216 440.74544,222.45001 C 440.48024,225.78748 440.73508,228.73971 441.50994,231.3067 C 442.28478,233.8737 443.64951,235.85448 445.60412,237.24903 C 447.55871,238.64358 449.73178,239.43587 452.12335,239.6259 C 455.03245,239.85706 457.56204,239.21393 459.71213,237.69652 C 461.86215,236.17912 463.42531,233.79789 464.40159,230.55284 L 464.40159,230.55284 z M 475.01702,245.46979 L 479.87378,206.40039 L 508.12314,209.9121 L 507.55,214.5226 L 484.47081,211.6536 L 482.9833,223.61961 L 504.59673,226.3064 L 504.0269,230.89025 L 482.41347,228.20347 L 480.76032,241.50199 L 504.74563,244.48363 L 504.17249,249.09414 L 475.01702,245.46979 z M 511.3521,250.142 L 517.94926,211.32856 L 531.31951,213.60111 C 534.33772,214.11416 536.60961,214.691 538.13518,215.33163 C 540.27211,216.22154 542.01203,217.47069 543.35495,219.07911 C 545.10837,221.15689 546.26379,223.62787 546.82122,226.49205 C 547.37857,229.35627 547.36326,232.51812 546.77529,235.9776 C 546.27423,238.92525 545.48604,241.47902 544.4107,243.63892 C 543.33528,245.79884 542.1325,247.53302 540.80235,248.84148 C 539.47213,250.14994 538.09446,251.12345 536.66932,251.76199 C 535.24413,252.40053 533.58946,252.78668 531.70531,252.92044 C 529.82111,253.05419 527.70527,252.92157 525.35777,252.52256 L 511.3521,250.142 z M 517.26691,246.43472 L 525.55382,247.84325 C 528.11312,248.27826 530.16137,248.38124 531.69856,248.15218 C 533.2357,247.92313 534.51022,247.44966 535.52213,246.73179 C 536.94699,245.72091 538.17396,244.24508 539.20304,242.3043 C 540.23206,240.36353 540.99559,237.92815 541.49364,234.99815 C 542.18362,230.93856 542.04757,227.70558 541.08551,225.29922 C 540.12337,222.8929 538.75219,221.15707 536.97197,220.09171 C 535.68521,219.32822 533.51507,218.68696 530.46156,218.16791 L 522.30703,216.78188 L 517.26691,246.43472 z M 553.09641,237.90103 C 554.5044,231.51971 557.32003,226.90195 561.54332,224.04773 C 565.76657,221.19357 570.58809,220.36439 576.00789,221.56018 C 579.55693,222.3433 582.56925,223.89715 585.04486,226.22176 C 587.52039,228.54643 589.17094,231.39032 589.99651,234.75344 C 590.82199,238.1166 590.81043,241.72131 589.96182,245.56758 C 589.10155,249.46633 587.54523,252.78062 585.29286,255.51048 C 583.04042,258.24033 580.29731,260.07812 577.06352,261.02386 C 573.82967,261.96958 570.54312,262.07406 567.20387,261.33727 C 563.58484,260.53876 560.54334,258.95097 558.07935,256.57388 C 555.61535,254.19679 553.98273,251.33394 553.18151,247.98532 C 552.38027,244.63672 552.35191,241.27529 553.09641,237.90103 L 553.09641,237.90103 z M 558.324,239.13696 C 557.30174,243.77001 557.74216,247.69446 559.64524,250.91032 C 561.5483,254.1262 564.37927,256.14882 568.13816,256.97819 C 571.96695,257.82298 575.41531,257.1721 578.48326,255.02554 C 581.55115,252.87898 583.63094,249.33184 584.72266,244.3841 C 585.41312,241.25464 585.48699,238.40621 584.94428,235.83881 C 584.40149,233.27146 583.25349,231.12056 581.50027,229.38613 C 579.74698,227.65174 577.60283,226.50487 575.0678,225.9455 C 571.46625,225.15088 568.09445,225.70406 564.95238,227.60505 C 561.81028,229.5061 559.60082,233.35007 558.324,239.13696 L 558.324,239.13696 z M 592.2904,266.43715 L 602.67731,228.46192 L 619.51489,233.0673 C 622.89964,233.99313 625.37948,235.03799 626.95441,236.2019 C 628.52926,237.36586 629.60725,238.95535 630.18837,240.97039 C 630.76941,242.98547 630.77418,245.0378 630.20269,247.12737 C 629.46579,249.82139 627.97255,251.85377 625.72298,253.22451 C 623.47333,254.59526 620.45812,255.03272 616.67735,254.53686 C 617.83229,255.53955 618.67014,256.4462 619.19089,257.25682 C 620.29032,259.00533 621.21997,261.06933 621.97982,263.44882 L 625.75834,275.59123 L 619.43777,273.86244 L 616.57338,264.5872 C 615.72896,261.90616 614.99718,259.83132 614.37804,258.36267 C 613.75884,256.89403 613.13978,255.81521 612.52085,255.12618 C 611.90186,254.43718 611.2298,253.89142 610.50467,253.48889 C 609.96782,253.21214 609.05181,252.89663 607.75663,252.54236 L 601.92824,250.94819 L 597.31577,267.81168 L 592.2904,266.43715 z M 603.11855,246.59632 L 613.92051,249.55085 C 616.2173,250.17909 618.07826,250.43287 619.50338,250.31221 C 620.92844,250.19158 622.12063,249.70097 623.07993,248.84038 C 624.03917,247.97981 624.68649,246.93647 625.02189,245.71033 C 625.5131,243.91434 625.26504,242.2595 624.27771,240.74581 C 623.29031,239.23217 621.38919,238.09038 618.57432,237.32042 L 606.55487,234.03289 L 603.11855,246.59632 z M 630.59354,277.15729 L 642.77752,239.71992 L 669.84684,248.52962 L 668.40902,252.94754 L 646.29391,245.75018 L 642.56225,257.21633 L 663.27283,263.95658 L 661.84333,268.34896 L 641.13275,261.60871 L 636.98554,274.35171 L 659.96892,281.83165 L 658.53111,286.24957 L 630.59354,277.15729 z M 668.19669,276.22125 L 672.94431,277.562 C 672.46364,279.48598 672.39714,281.18884 672.74479,282.67056 C 673.09242,284.1523 673.96519,285.57467 675.36312,286.93768 C 676.76101,288.30068 678.50624,289.37894 680.59882,290.17244 C 682.45699,290.87706 684.2023,291.22294 685.83475,291.21009 C 687.46715,291.19723 688.81323,290.84123 689.87299,290.1421 C 690.9327,289.44296 691.6784,288.52421 692.11009,287.38586 C 692.54807,286.23077 692.59573,285.0952 692.25306,283.97914 C 691.91033,282.86309 691.08001,281.7201 689.7621,280.55017 C 688.92039,279.79061 686.9627,278.36373 683.88902,276.26951 C 680.8153,274.17532 678.73695,272.51121 677.65395,271.27717 C 676.24532,269.68992 675.36863,268.05065 675.02387,266.35936 C 674.67908,264.66812 674.82727,262.97709 675.46843,261.28628 C 676.17304,259.42811 677.35896,257.89125 679.02621,256.67569 C 680.69342,255.46018 682.69853,254.81796 685.04155,254.74901 C 687.38452,254.68012 689.79481,255.11541 692.27243,256.05488 C 695.0011,257.08963 697.24091,258.44159 698.99186,260.11076 C 700.74274,261.77999 701.85526,263.681 702.32942,265.81382 C 702.8035,267.94669 702.67296,270.10874 701.93782,272.29998 L 697.13392,270.88045 C 697.76514,268.45832 697.5821,266.37841 696.58479,264.64072 C 695.58741,262.90307 693.67417,261.49783 690.84506,260.42499 C 687.89871,259.30777 685.54702,259.03353 683.79,259.60225 C 682.03292,260.17102 680.86556,261.21709 680.28792,262.74045 C 679.78641,264.06297 679.85089,265.33201 680.48137,266.54759 C 681.09507,267.75686 683.21168,269.55994 686.83121,271.95684 C 690.45069,274.35376 692.87006,276.16634 694.08934,277.39457 C 695.85755,279.19481 696.96501,281.04604 697.41173,282.94827 C 697.85837,284.85052 697.70718,286.78932 696.95815,288.7647 C 696.2154,290.72333 694.95473,292.35631 693.17614,293.66364 C 691.39748,294.97096 689.2752,295.70757 686.80929,295.87349 C 684.34333,296.03939 681.79623,295.62402 679.168,294.6274 C 675.83663,293.36414 673.22924,291.82015 671.34584,289.9954 C 669.46242,288.17065 668.25017,286.04033 667.70907,283.60444 C 667.16795,281.16856 667.3305,278.7075 668.19669,276.22125 L 668.19669,276.22125 z"
     id="text2382" />
</svg>
