<?xml version="1.0" encoding="UTF-8" standalone="no"?>
<!-- Created with Inkscape (http://www.inkscape.org/) -->
<svg
   xmlns:dc="http://purl.org/dc/elements/1.1/"
   xmlns:cc="http://creativecommons.org/ns#"
   xmlns:rdf="http://www.w3.org/1999/02/22-rdf-syntax-ns#"
   xmlns:svg="http://www.w3.org/2000/svg"
   xmlns="http://www.w3.org/2000/svg"
   xmlns:sodipodi="http://sodipodi.sourceforge.net/DTD/sodipodi-0.dtd"
   xmlns:inkscape="http://www.inkscape.org/namespaces/inkscape"
   width="750"
   height="500"
   id="svg2"
   version="1.1"
   inkscape:version="0.46"
   sodipodi:docname="Flag_of_Confines_(Santander).svg"
   sodipodi:version="0.32"
   inkscape:output_extension="org.inkscape.output.svg.inkscape">
  <defs
     id="defs4" />
  <sodipodi:namedview
     id="base"
     pagecolor="#ffffff"
     bordercolor="#666666"
     borderopacity="1.0"
     inkscape:pageopacity="0.0"
     inkscape:pageshadow="2"
     inkscape:zoom="1.014"
     inkscape:cx="375"
     inkscape:cy="250"
     inkscape:document-units="px"
     inkscape:current-layer="layer1"
     showgrid="false"
     inkscape:window-width="1024"
     inkscape:window-height="712"
     inkscape:window-x="-4"
     inkscape:window-y="-4"
     inkscape:window-maximized="1" />
  <metadata
     id="metadata7">
    <rdf:RDF>
      <cc:Work
         rdf:about="">
        <dc:format>image/svg+xml</dc:format>
        <dc:type
           rdf:resource="http://purl.org/dc/dcmitype/StillImage" />
        <dc:title />
      </cc:Work>
    </rdf:RDF>
  </metadata>
  <g
     inkscape:label="Capa 1"
     inkscape:groupmode="layer"
     id="layer1"
     transform="translate(0,-552.36218)">
    <rect
       style="fill:#fcdd09;stroke:none"
       id="rect3592"
       width="750"
       height="166.666"
       x="0"
       y="-5.6843419e-14"
       transform="translate(0,552.36218)" />
    <rect
       style="fill:#ffffff;stroke:none"
       id="rect3594"
       width="750"
       height="166.666"
       x="0"
       y="719.03015" />
    <rect
       style="fill:#078930;stroke:none"
       id="rect3596"
       width="750"
       height="166.666"
       x="0"
       y="885.69617" />
    <g
       transform="matrix(0.3003633,0,0,0.3003633,285.30022,719.45907)"
       id="g2466"
       inkscape:label="Layer 1">
      <path
         sodipodi:nodetypes="cccc"
         id="path2383"
         d="M -39.014298,553.04503 L 296.23527,1.1948412 L 634.75217,552.48026 L -39.014298,553.04503 z"
         style="fill:#0071bc;fill-opacity:1;stroke:#000000;stroke-width:3;stroke-linejoin:round;stroke-miterlimit:4;stroke-dasharray:none;stroke-dashoffset:0;stroke-opacity:1" />
      <path
         sodipodi:nodetypes="ccccc"
         id="path3195"
         d="M 340.16819,216.61302 C 299.40395,308.00928 272.62816,435.82495 195.64688,482.02461 L 206.02502,496.38886 C 282.47457,459.68919 313.44228,330.90397 353.66399,230.10888 L 340.16819,216.61302 z"
         style="fill:#785321;fill-opacity:1;fill-rule:evenodd;stroke:#000000;stroke-width:1;stroke-linecap:butt;stroke-linejoin:miter;stroke-miterlimit:4;stroke-dasharray:none;stroke-opacity:1" />
      <path
         style="fill:none;fill-opacity:1;stroke:#000000;stroke-width:1;stroke-linejoin:round;stroke-miterlimit:4;stroke-dasharray:none;stroke-dashoffset:0;stroke-opacity:1"
         d="M 62.050673,500.2675 L 296.72537,113.97237 L 533.6872,499.87216 L 62.050673,500.2675 z"
         id="path2386"
         sodipodi:nodetypes="cccc" />
      <path
         id="text3158"
         d="M 156.6586,529.70697 L 162.96475,531.70648 C 161.99793,535.22211 160.39026,537.83319 158.14175,539.53973 C 155.8932,541.24628 153.04042,542.09955 149.5834,542.09955 C 145.30605,542.09955 141.79043,540.63837 139.03653,537.716 C 136.28262,534.79365 134.90567,530.79829 134.90567,525.72992 C 134.90567,520.36861 136.28994,516.2048 139.0585,513.23846 C 141.82705,510.27219 145.46718,508.78903 149.97891,508.789 C 153.91932,508.78903 157.12,509.95358 159.58096,512.28265 C 161.04578,513.65963 162.14441,515.63717 162.87686,518.21527 L 156.43887,519.75336 C 156.05799,518.08346 155.26331,516.7651 154.05484,515.79828 C 152.84632,514.83151 151.37782,514.34811 149.64932,514.34808 C 147.26161,514.34811 145.32436,515.20504 143.83755,516.91888 C 142.35073,518.63277 141.60732,521.40865 141.60733,525.24652 C 141.60732,529.3188 142.33974,532.21919 143.8046,533.94769 C 145.26943,535.67621 147.17372,536.54047 149.51749,536.54047 C 151.24598,536.54047 152.7328,535.99116 153.97794,534.89252 C 155.22303,533.79389 156.11658,532.06538 156.6586,529.70697 L 156.6586,529.70697 z M 179.72989,525.64203 C 179.72989,522.3608 180.22061,519.60689 181.20206,517.38031 C 181.93447,515.73971 182.93423,514.26754 184.20132,512.96381 C 185.46841,511.66013 186.85634,510.69333 188.36514,510.06342 C 190.37197,509.21384 192.68642,508.78903 195.3085,508.789 C 200.05457,508.78903 203.85218,510.2612 206.70132,513.20551 C 209.55041,516.14987 210.97497,520.2441 210.97501,525.48822 C 210.97497,530.68843 209.5614,534.75703 206.73428,537.69403 C 203.90711,540.63104 200.12782,542.09955 195.39639,542.09955 C 190.60634,542.09955 186.79775,540.63837 183.97061,537.716 C 181.14346,534.79365 179.72989,530.76899 179.72989,525.64203 L 179.72989,525.64203 z M 186.43155,525.4223 C 186.43154,529.06978 187.27382,531.83467 188.9584,533.71698 C 190.64296,535.59931 192.78163,536.54047 195.37442,536.54047 C 197.96717,536.54047 200.09486,535.60663 201.75748,533.73895 C 203.42005,531.87129 204.25135,529.06978 204.25137,525.33441 C 204.25135,521.64303 203.44202,518.88912 201.82339,517.07269 C 200.20472,515.25631 198.05506,514.34811 195.37442,514.34808 C 192.69374,514.34811 190.5331,515.2673 188.89249,517.10565 C 187.25185,518.94405 186.43154,521.71627 186.43155,525.4223 L 186.43155,525.4223 z M 228.5751,541.55023 L 228.5751,509.33832 L 234.90323,509.33832 L 248.08682,530.84955 L 248.08682,509.33832 L 254.1293,509.33832 L 254.1293,541.55023 L 247.60342,541.55023 L 234.61758,520.54437 L 234.61758,541.55023 L 228.5751,541.55023 z M 273.55313,541.55023 L 273.55313,509.33832 L 295.63565,509.33832 L 295.63565,514.78754 L 280.05704,514.78754 L 280.05704,522.41205 L 293.5043,522.41205 L 293.5043,527.86127 L 280.05704,527.86127 L 280.05704,541.55023 L 273.55313,541.55023 z M 313.30167,541.55023 L 313.30167,509.33832 L 319.80557,509.33832 L 319.80557,541.55023 L 313.30167,541.55023 z M 338.52628,541.55023 L 338.52628,509.33832 L 344.8544,509.33832 L 358.03799,530.84955 L 358.03799,509.33832 L 364.08047,509.33832 L 364.08047,541.55023 L 357.5546,541.55023 L 344.56876,520.54437 L 344.56876,541.55023 L 338.52628,541.55023 z M 383.46036,541.55023 L 383.46036,509.33832 L 407.34464,509.33832 L 407.34464,514.78754 L 389.96426,514.78754 L 389.96426,521.92865 L 406.13614,521.92865 L 406.13614,527.3559 L 389.96426,527.3559 L 389.96426,536.12299 L 407.95987,536.12299 L 407.95987,541.55023 L 383.46036,541.55023 z M 424.35147,531.06927 L 430.6796,530.45404 C 431.06045,532.57807 431.83315,534.13813 432.99771,535.13422 C 434.16225,536.13032 435.73329,536.62836 437.71085,536.62836 C 439.80556,536.62836 441.38392,536.18525 442.44595,535.29901 C 443.50794,534.41279 444.03895,533.37641 444.03897,532.18988 C 444.03895,531.42817 443.81556,530.77998 443.3688,530.2453 C 442.92201,529.71064 442.14198,529.24556 441.02872,528.85004 C 440.26698,528.58638 438.53114,528.11763 435.8212,527.44379 C 432.33486,526.57954 429.88857,525.51753 428.48233,524.25775 C 426.50479,522.48531 425.51602,520.32467 425.51602,517.77582 C 425.51602,516.13522 425.98111,514.6008 426.91129,513.17255 C 427.84146,511.74435 429.18179,510.65671 430.93228,509.90961 C 432.68276,509.16257 434.79579,508.78903 437.27139,508.789 C 441.31434,508.78903 444.35755,509.67526 446.40103,511.44769 C 448.44446,513.22018 449.51746,515.5859 449.62003,518.54486 L 443.11612,518.83051 C 442.83778,517.17526 442.24086,515.98507 441.32535,515.25995 C 440.4098,514.53488 439.03651,514.17233 437.20547,514.1723 C 435.31581,514.17233 433.83632,514.56051 432.767,515.33685 C 432.07851,515.83493 431.73427,516.50143 431.73428,517.33636 C 431.73427,518.09811 432.05654,518.74996 432.70108,519.29193 C 433.52138,519.98043 435.51357,520.6982 438.67764,521.44525 C 441.84169,522.19234 444.18177,522.96505 445.69791,523.76337 C 447.214,524.56172 448.40052,525.65303 449.25748,527.03729 C 450.11438,528.42158 450.54285,530.13179 450.54288,532.16791 C 450.54285,534.01362 450.03015,535.74213 449.00479,537.35345 C 447.97938,538.96479 446.52918,540.16229 444.65421,540.94598 C 442.77919,541.72968 440.44276,542.12152 437.64493,542.12152 C 433.57265,542.12152 430.44521,541.18036 428.2626,539.29803 C 426.07998,537.41571 424.77627,534.6728 424.35147,531.06927 L 424.35147,531.06927 z"
         style="font-size:45px;font-style:normal;font-variant:normal;font-weight:bold;font-stretch:normal;text-align:start;line-height:100%;writing-mode:lr-tb;text-anchor:start;fill:#ffffff;fill-opacity:1;stroke:none;stroke-width:1px;stroke-linecap:butt;stroke-linejoin:miter;stroke-opacity:1;font-family:Arial;-inkscape-font-specification:Arial Bold" />
      <path
         id="text3162"
         d="M -366.42178,302.51227 L -366.42178,270.30035 L -356.6879,270.30035 L -350.84317,292.27301 L -345.06436,270.30035 L -335.3085,270.30035 L -335.3085,302.51227 L -341.35098,302.51227 L -341.35098,277.15582 L -347.74503,302.51227 L -354.00723,302.51227 L -360.3793,277.15582 L -360.3793,302.51227 L -366.42178,302.51227 z M -317.64249,286.60406 C -317.64249,283.32283 -317.15177,280.56893 -316.17032,278.34235 C -315.4379,276.70175 -314.43815,275.22958 -313.17105,273.92584 C -311.90397,272.62216 -310.51603,271.65537 -309.00723,271.02545 C -307.00041,270.17587 -304.68596,269.75107 -302.06387,269.75104 C -297.3178,269.75107 -293.5202,271.22324 -290.67105,274.16754 C -287.82196,277.1119 -286.3974,281.20614 -286.39737,286.45026 C -286.3974,291.65046 -287.81098,295.71906 -290.63809,298.65607 C -293.46527,301.59308 -297.24456,303.06158 -301.97598,303.06158 C -306.76603,303.06158 -310.57462,301.6004 -313.40176,298.67804 C -316.22892,295.75568 -317.64249,291.73103 -317.64249,286.60406 L -317.64249,286.60406 z M -310.94083,286.38434 C -310.94084,290.03181 -310.09855,292.7967 -308.41397,294.67902 C -306.72941,296.56135 -304.59074,297.50251 -301.99796,297.5025 C -299.4052,297.50251 -297.27752,296.56867 -295.6149,294.70099 C -293.95233,292.83332 -293.12103,290.03181 -293.121,286.29645 C -293.12103,282.60506 -293.93035,279.85116 -295.54898,278.03473 C -297.16766,276.21835 -299.31731,275.31015 -301.99796,275.31012 C -304.67863,275.31015 -306.83928,276.22934 -308.47989,278.06769 C -310.12052,279.90609 -310.94084,282.6783 -310.94083,286.38434 L -310.94083,286.38434 z M -268.79727,302.51227 L -268.79727,270.30035 L -262.46915,270.30035 L -249.28555,291.81158 L -249.28555,270.30035 L -243.24307,270.30035 L -243.24307,302.51227 L -249.76895,302.51227 L -262.75479,281.50641 L -262.75479,302.51227 L -268.79727,302.51227 z M -223.90714,270.30035 L -217.40323,270.30035 L -217.40323,287.74664 C -217.40324,290.51521 -217.32267,292.30964 -217.16153,293.12994 C -216.88322,294.44831 -216.22038,295.50666 -215.173,296.30499 C -214.12565,297.10334 -212.69377,297.50251 -210.87735,297.5025 C -209.03166,297.50251 -207.64006,297.12531 -206.70255,296.37091 C -205.76507,295.61652 -205.2011,294.69001 -205.01065,293.59137 C -204.82024,292.49275 -204.72503,290.66902 -204.72501,288.12018 L -204.72501,270.30035 L -198.2211,270.30035 L -198.2211,287.2193 C -198.22113,291.0865 -198.39691,293.81843 -198.74844,295.4151 C -199.10003,297.01179 -199.74823,298.35944 -200.69302,299.45807 C -201.63787,300.5567 -202.9013,301.43195 -204.48331,302.0838 C -206.06536,302.73566 -208.13079,303.06158 -210.6796,303.06158 C -213.75578,303.06158 -216.08854,302.70636 -217.67789,301.99591 C -219.26725,301.28546 -220.52335,300.36261 -221.4462,299.22736 C -222.36905,298.09211 -222.97696,296.90192 -223.26993,295.6568 C -223.69474,293.8111 -223.90714,291.0865 -223.90714,287.48297 L -223.90714,270.30035 z M -178.95108,302.51227 L -178.95108,270.30035 L -169.21719,270.30035 L -163.37247,292.27301 L -157.59366,270.30035 L -147.8378,270.30035 L -147.8378,302.51227 L -153.88028,302.51227 L -153.88028,277.15582 L -160.27432,302.51227 L -166.53653,302.51227 L -172.9086,277.15582 L -172.9086,302.51227 L -178.95108,302.51227 z M -128.85342,302.51227 L -128.85342,270.30035 L -104.96915,270.30035 L -104.96915,275.74957 L -122.34952,275.74957 L -122.34952,282.89069 L -106.17764,282.89069 L -106.17764,288.31793 L -122.34952,288.31793 L -122.34952,297.08502 L -104.35391,297.08502 L -104.35391,302.51227 L -128.85342,302.51227 z M -86.248444,302.51227 L -86.248444,270.30035 L -79.920319,270.30035 L -66.736725,291.81158 L -66.736725,270.30035 L -60.694244,270.30035 L -60.694244,302.51227 L -67.220123,302.51227 L -80.205963,281.50641 L -80.205963,302.51227 L -86.248444,302.51227 z M -34.063385,302.51227 L -34.063385,275.74957 L -43.62149,275.74957 L -43.62149,270.30035 L -18.023346,270.30035 L -18.023346,275.74957 L -27.559479,275.74957 L -27.559479,302.51227 L -34.063385,302.51227 z M -2.6424866,286.60406 C -2.6424885,283.32283 -2.1517664,280.56893 -1.1703186,278.34235 C -0.43790089,276.70175 0.56185397,275.22958 1.828949,273.92584 C 3.0960311,272.62216 4.4839692,271.65537 5.9927673,271.02545 C 7.9995907,270.17587 10.314041,269.75107 12.936127,269.75104 C 17.682198,269.75107 21.479802,271.22324 24.328949,274.16754 C 27.178038,277.1119 28.602597,281.20614 28.602631,286.45026 C 28.602597,291.65046 27.189025,295.71906 24.361908,298.65607 C 21.534733,301.59308 17.75544,303.06158 13.024017,303.06158 C 8.2339654,303.06158 4.4253755,301.6004 1.5982361,298.67804 C -1.2289157,295.75568 -2.6424885,291.73103 -2.6424866,286.60406 L -2.6424866,286.60406 z M 4.0591736,286.38434 C 4.0591649,290.03181 4.9014492,292.7967 6.5860291,294.67902 C 8.2705865,296.56135 10.409256,297.50251 13.002045,297.5025 C 15.594798,297.50251 17.722481,296.56867 19.385101,294.70099 C 21.047673,292.83332 21.878971,290.03181 21.878998,286.29645 C 21.878971,282.60506 21.069646,279.85116 19.451019,278.03473 C 17.832345,276.21835 15.682688,275.31015 13.002045,275.31012 C 10.321366,275.31015 8.1607233,276.22934 6.5201111,278.06769 C 4.8794766,279.90609 4.0591649,282.6783 4.0591736,286.38434 L 4.0591736,286.38434 z"
         style="font-size:45px;font-style:normal;font-variant:normal;font-weight:bold;font-stretch:normal;text-align:start;line-height:100%;writing-mode:lr-tb;text-anchor:start;fill:#ffffff;fill-opacity:1;stroke:none;stroke-width:1px;stroke-linecap:butt;stroke-linejoin:miter;stroke-opacity:1;font-family:Arial;-inkscape-font-specification:Arial Bold"
         transform="matrix(0.5227876,-0.852463,0.852463,0.5227876,0,0)" />
      <path
         id="text3166"
         d="M 318.65143,-205.96931 L 318.65143,-238.18123 L 324.97955,-238.18123 L 338.16315,-216.67 L 338.16315,-238.18123 L 344.20563,-238.18123 L 344.20563,-205.96931 L 337.67975,-205.96931 L 324.69391,-226.97517 L 324.69391,-205.96931 L 318.65143,-205.96931 z M 392.63336,-205.96931 L 385.55817,-205.96931 L 382.74567,-213.28621 L 369.86969,-213.28621 L 367.211,-205.96931 L 360.31158,-205.96931 L 372.85797,-238.18123 L 379.73541,-238.18123 L 392.63336,-205.96931 z M 380.65826,-218.71346 L 376.21979,-230.66658 L 371.8692,-218.71346 L 380.65826,-218.71346 z M 429.19586,-217.81258 L 435.50201,-215.81306 C 434.53519,-212.29743 432.92752,-209.68635 430.67902,-207.97981 C 428.43046,-206.27327 425.57768,-205.42 422.12067,-205.42 C 417.84331,-205.42 414.32769,-206.88118 411.57379,-209.80354 C 408.81988,-212.7259 407.44293,-216.72126 407.44293,-221.78963 C 407.44293,-227.15093 408.82721,-231.31475 411.59576,-234.28108 C 414.36431,-237.24736 418.00444,-238.73051 422.51617,-238.73055 C 426.45658,-238.73051 429.65726,-237.56596 432.11823,-235.23689 C 433.58304,-233.85991 434.68167,-231.88237 435.41412,-229.30428 L 428.97614,-227.76619 C 428.59525,-229.43609 427.80058,-230.75445 426.5921,-231.72127 C 425.38359,-232.68804 423.91508,-233.17144 422.18658,-233.17146 C 419.79887,-233.17144 417.86162,-232.3145 416.37482,-230.60066 C 414.88799,-228.88677 414.14458,-226.1109 414.14459,-222.27303 C 414.14458,-218.20075 414.877,-215.30036 416.34186,-213.57185 C 417.80669,-211.84333 419.71098,-210.97908 422.05475,-210.97908 C 423.78325,-210.97908 425.27006,-211.52839 426.5152,-212.62703 C 427.76029,-213.72565 428.65385,-215.45417 429.19586,-217.81258 L 429.19586,-217.81258 z M 453.38776,-205.96931 L 453.38776,-238.18123 L 459.89166,-238.18123 L 459.89166,-205.96931 L 453.38776,-205.96931 z M 477.22809,-221.87752 C 477.22809,-225.15875 477.71881,-227.91265 478.70026,-230.13924 C 479.43267,-231.77984 480.43243,-233.252 481.69952,-234.55574 C 482.96661,-235.85942 484.35454,-236.82622 485.86334,-237.45613 C 487.87017,-238.30571 490.18462,-238.73051 492.8067,-238.73055 C 497.55277,-238.73051 501.35038,-237.25835 504.19952,-234.31404 C 507.04861,-231.36968 508.47317,-227.27545 508.47321,-222.03133 C 508.47317,-216.83112 507.0596,-212.76252 504.23248,-209.82552 C 501.40531,-206.8885 497.62602,-205.42 492.89459,-205.42 C 488.10454,-205.42 484.29595,-206.88118 481.46881,-209.80354 C 478.64166,-212.7259 477.22809,-216.75055 477.22809,-221.87752 L 477.22809,-221.87752 z M 483.92975,-222.09724 C 483.92974,-218.44977 484.77202,-215.68488 486.4566,-213.80257 C 488.14116,-211.92024 490.27983,-210.97908 492.87262,-210.97908 C 495.46537,-210.97908 497.59306,-211.91291 499.25568,-213.78059 C 500.91825,-215.64826 501.74955,-218.44977 501.74957,-222.18513 C 501.74955,-225.87652 500.94022,-228.63042 499.32159,-230.44685 C 497.70292,-232.26323 495.55326,-233.17144 492.87262,-233.17146 C 490.19194,-233.17144 488.0313,-232.25225 486.39069,-230.41389 C 484.75005,-228.57549 483.92974,-225.80328 483.92975,-222.09724 L 483.92975,-222.09724 z M 526.0733,-205.96931 L 526.0733,-238.18123 L 532.40143,-238.18123 L 545.58502,-216.67 L 545.58502,-238.18123 L 551.6275,-238.18123 L 551.6275,-205.96931 L 545.10162,-205.96931 L 532.11578,-226.97517 L 532.11578,-205.96931 L 526.0733,-205.96931 z M 600.05524,-205.96931 L 592.98004,-205.96931 L 590.16754,-213.28621 L 577.29156,-213.28621 L 574.63287,-205.96931 L 567.73346,-205.96931 L 580.27985,-238.18123 L 587.15729,-238.18123 L 600.05524,-205.96931 z M 588.08014,-218.71346 L 583.64166,-230.66658 L 579.29108,-218.71346 L 588.08014,-218.71346 z M 616.18317,-205.96931 L 616.18317,-237.91756 L 622.68707,-237.91756 L 622.68707,-211.39656 L 638.85895,-211.39656 L 638.85895,-205.96931 L 616.18317,-205.96931 z"
         style="font-size:45px;font-style:normal;font-variant:normal;font-weight:bold;font-stretch:normal;text-align:start;line-height:100%;writing-mode:lr-tb;text-anchor:start;fill:#ffffff;fill-opacity:1;stroke:none;stroke-width:1px;stroke-linecap:butt;stroke-linejoin:miter;stroke-opacity:1;font-family:Arial;-inkscape-font-specification:Arial Bold"
         transform="matrix(0.5216466,0.8531617,-0.8531617,0.5216466,0,0)" />
      <g
         style="stroke:#000000;stroke-width:0.5;stroke-miterlimit:4;stroke-dasharray:none;stroke-opacity:1"
         id="g3242">
        <path
           style="fill:#008f4c;fill-rule:evenodd;stroke:#000000;stroke-width:1;stroke-linecap:butt;stroke-linejoin:miter;stroke-miterlimit:4;stroke-dasharray:none;stroke-opacity:1"
           d="M 242.84069,454.59798 C 281.65754,398.16029 255.29624,350.16439 205.34889,305.22348 C 224.32873,342.18233 167.49154,416.87483 242.84069,454.59798 z"
           id="path3189"
           sodipodi:nodetypes="ccc" />
        <path
           style="fill:none;fill-rule:evenodd;stroke:#000000;stroke-width:0.5;stroke-linecap:butt;stroke-linejoin:miter;stroke-miterlimit:4;stroke-dasharray:none;stroke-opacity:1"
           d="M 246.79194,307.15834 C 281.83771,355.47283 278.18627,406.22356 281.26213,450.17298"
           id="path3200"
           transform="translate(-39.514298,0.6948412)"
           sodipodi:nodetypes="cc" />
        <path
           style="fill:none;fill-rule:evenodd;stroke:#000000;stroke-width:0.5;stroke-linecap:butt;stroke-linejoin:miter;stroke-miterlimit:4;stroke-dasharray:none;stroke-opacity:1"
           d="M 251.66035,327.61855 L 261.64454,337.30909"
           id="path3202"
           transform="translate(-39.514298,0.6948412)" />
        <path
           style="fill:none;fill-rule:evenodd;stroke:#000000;stroke-width:0.5;stroke-linecap:butt;stroke-linejoin:miter;stroke-miterlimit:4;stroke-dasharray:none;stroke-opacity:1"
           d="M 254.00957,337.89639 L 266.93029,350.52346"
           id="path3204"
           transform="translate(-39.514298,0.6948412)" />
        <path
           style="fill:none;fill-rule:evenodd;stroke:#000000;stroke-width:0.5;stroke-linecap:butt;stroke-linejoin:miter;stroke-miterlimit:4;stroke-dasharray:none;stroke-opacity:1"
           d="M 254.00957,349.34885 L 268.69221,361.38861"
           id="path3206"
           transform="translate(-39.514298,0.6948412)" />
        <path
           style="fill:none;fill-rule:evenodd;stroke:#000000;stroke-width:0.5;stroke-linecap:butt;stroke-linejoin:miter;stroke-miterlimit:4;stroke-dasharray:none;stroke-opacity:1"
           d="M 254.59688,361.68226 L 272.50969,375.77759"
           id="path3208"
           transform="translate(-39.514298,0.6948412)" />
        <path
           style="fill:none;fill-rule:evenodd;stroke:#000000;stroke-width:0.5;stroke-linecap:butt;stroke-linejoin:miter;stroke-miterlimit:4;stroke-dasharray:none;stroke-opacity:1"
           d="M 252.83496,370.19819 L 273.97796,387.23004"
           id="path3210"
           transform="translate(-39.514298,0.6948412)" />
        <path
           style="fill:none;fill-rule:evenodd;stroke:#000000;stroke-width:0.5;stroke-linecap:butt;stroke-linejoin:miter;stroke-miterlimit:4;stroke-dasharray:none;stroke-opacity:1"
           d="M 253.12862,383.41256 L 274.85891,399.56346"
           id="path3212"
           transform="translate(-39.514298,0.6948412)" />
        <path
           style="fill:none;fill-rule:evenodd;stroke:#000000;stroke-width:0.5;stroke-linecap:butt;stroke-linejoin:miter;stroke-miterlimit:4;stroke-dasharray:none;stroke-opacity:1"
           d="M 253.12862,394.57136 L 275.44622,410.42861"
           id="path3214"
           transform="translate(-39.514298,0.6948412)" />
        <path
           style="fill:none;fill-rule:evenodd;stroke:#000000;stroke-width:0.5;stroke-linecap:butt;stroke-linejoin:miter;stroke-miterlimit:4;stroke-dasharray:none;stroke-opacity:1"
           d="M 253.12862,407.19843 L 275.44622,420.11914"
           id="path3216"
           transform="translate(-39.514298,0.6948412)" />
        <path
           style="fill:none;fill-rule:evenodd;stroke:#000000;stroke-width:0.5;stroke-linecap:butt;stroke-linejoin:miter;stroke-miterlimit:4;stroke-dasharray:none;stroke-opacity:1"
           d="M 256.35879,419.82549 L 276.03352,430.69064"
           id="path3218"
           transform="translate(-39.514298,0.6948412)" />
        <path
           style="fill:none;fill-rule:evenodd;stroke:#000000;stroke-width:0.5;stroke-linecap:butt;stroke-linejoin:miter;stroke-miterlimit:4;stroke-dasharray:none;stroke-opacity:1"
           d="M 263.99376,433.33352 L 278.08909,440.38118"
           id="path3220"
           transform="translate(-39.514298,0.6948412)" />
        <path
           style="fill:none;fill-rule:evenodd;stroke:#000000;stroke-width:0.5;stroke-linecap:butt;stroke-linejoin:miter;stroke-miterlimit:4;stroke-dasharray:none;stroke-opacity:1"
           d="M 266.34299,336.72178 L 266.34299,329.38046"
           id="path3222"
           transform="translate(-39.514298,0.6948412)" />
        <path
           style="fill:none;fill-rule:evenodd;stroke:#000000;stroke-width:0.5;stroke-linecap:butt;stroke-linejoin:miter;stroke-miterlimit:4;stroke-dasharray:none;stroke-opacity:1"
           d="M 270.45412,348.17424 L 271.04143,335.84082"
           id="path3224"
           transform="translate(-39.514298,0.6948412)" />
        <path
           style="fill:none;fill-rule:evenodd;stroke:#000000;stroke-width:0.5;stroke-linecap:butt;stroke-linejoin:miter;stroke-miterlimit:4;stroke-dasharray:none;stroke-opacity:1"
           d="M 275.15257,361.09495 L 276.03352,342.00753"
           id="path3226"
           transform="translate(-39.514298,0.6948412)" />
        <path
           style="fill:none;fill-rule:evenodd;stroke:#000000;stroke-width:0.5;stroke-linecap:butt;stroke-linejoin:miter;stroke-miterlimit:4;stroke-dasharray:none;stroke-opacity:1"
           d="M 276.91448,373.13471 L 281.02562,351.69807"
           id="path3228"
           transform="translate(-39.514298,0.6948412)" />
        <path
           style="fill:none;fill-rule:evenodd;stroke:#000000;stroke-width:0.5;stroke-linecap:butt;stroke-linejoin:miter;stroke-miterlimit:4;stroke-dasharray:none;stroke-opacity:1"
           d="M 279.55736,385.17447 L 286.89867,361.97591"
           id="path3230"
           transform="translate(-39.514298,0.6948412)"
           sodipodi:nodetypes="cc" />
        <path
           style="fill:none;fill-rule:evenodd;stroke:#000000;stroke-width:0.5;stroke-linecap:butt;stroke-linejoin:miter;stroke-miterlimit:4;stroke-dasharray:none;stroke-opacity:1"
           d="M 280.43832,397.21424 L 291.00981,374.30933"
           id="path3232"
           transform="translate(-39.514298,0.6948412)" />
        <path
           style="fill:none;fill-rule:evenodd;stroke:#000000;stroke-width:0.5;stroke-linecap:butt;stroke-linejoin:miter;stroke-miterlimit:4;stroke-dasharray:none;stroke-opacity:1"
           d="M 281.90658,409.254 L 293.65269,387.23004"
           id="path3234"
           transform="translate(-39.514298,0.6948412)" />
        <path
           style="fill:none;fill-rule:evenodd;stroke:#000000;stroke-width:0.5;stroke-linecap:butt;stroke-linejoin:miter;stroke-miterlimit:4;stroke-dasharray:none;stroke-opacity:1"
           d="M 283.96215,419.53184 L 295.12095,402.20633"
           id="path3236"
           transform="translate(-39.514298,0.6948412)" />
        <path
           style="fill:none;fill-rule:evenodd;stroke:#000000;stroke-width:0.5;stroke-linecap:butt;stroke-linejoin:miter;stroke-miterlimit:4;stroke-dasharray:none;stroke-opacity:1"
           d="M 283.37484,430.10334 L 293.65269,416.88897"
           id="path3238"
           transform="translate(-39.514298,0.6948412)" />
        <path
           style="fill:none;fill-rule:evenodd;stroke:#000000;stroke-width:0.5;stroke-linecap:butt;stroke-linejoin:miter;stroke-miterlimit:4;stroke-dasharray:none;stroke-opacity:1"
           d="M 284.2558,439.79387 L 291.59712,430.98429"
           id="path3240"
           transform="translate(-39.514298,0.6948412)" />
      </g>
      <g
         style="stroke:#000000;stroke-width:0.5;stroke-miterlimit:4;stroke-dasharray:none;stroke-opacity:1"
         transform="matrix(-0.9138256,0.4061068,0.4061068,0.9138256,354.93033,-219.99445)"
         id="g3266">
        <path
           style="fill:#008f4c;fill-rule:evenodd;stroke:#000000;stroke-width:1;stroke-linecap:butt;stroke-linejoin:miter;stroke-miterlimit:4;stroke-dasharray:none;stroke-opacity:1"
           d="M 242.84069,454.59798 C 281.65754,398.16029 255.29624,350.16439 205.34889,305.22348 C 224.32873,342.18233 167.49154,416.87483 242.84069,454.59798 z"
           id="path3268"
           sodipodi:nodetypes="ccc" />
        <path
           style="fill:none;fill-rule:evenodd;stroke:#000000;stroke-width:0.5;stroke-linecap:butt;stroke-linejoin:miter;stroke-miterlimit:4;stroke-dasharray:none;stroke-opacity:1"
           d="M 246.79194,307.15834 C 281.83771,355.47283 278.18627,406.22356 281.26213,450.17298"
           id="path3270"
           transform="translate(-39.514298,0.6948412)"
           sodipodi:nodetypes="cc" />
        <path
           style="fill:none;fill-rule:evenodd;stroke:#000000;stroke-width:0.5;stroke-linecap:butt;stroke-linejoin:miter;stroke-miterlimit:4;stroke-dasharray:none;stroke-opacity:1"
           d="M 251.66035,327.61855 L 261.64454,337.30909"
           id="path3272"
           transform="translate(-39.514298,0.6948412)" />
        <path
           style="fill:none;fill-rule:evenodd;stroke:#000000;stroke-width:0.5;stroke-linecap:butt;stroke-linejoin:miter;stroke-miterlimit:4;stroke-dasharray:none;stroke-opacity:1"
           d="M 254.00957,337.89639 L 266.93029,350.52346"
           id="path3274"
           transform="translate(-39.514298,0.6948412)" />
        <path
           style="fill:none;fill-rule:evenodd;stroke:#000000;stroke-width:0.5;stroke-linecap:butt;stroke-linejoin:miter;stroke-miterlimit:4;stroke-dasharray:none;stroke-opacity:1"
           d="M 254.00957,349.34885 L 268.69221,361.38861"
           id="path3276"
           transform="translate(-39.514298,0.6948412)" />
        <path
           style="fill:none;fill-rule:evenodd;stroke:#000000;stroke-width:0.5;stroke-linecap:butt;stroke-linejoin:miter;stroke-miterlimit:4;stroke-dasharray:none;stroke-opacity:1"
           d="M 254.59688,361.68226 L 272.50969,375.77759"
           id="path3278"
           transform="translate(-39.514298,0.6948412)" />
        <path
           style="fill:none;fill-rule:evenodd;stroke:#000000;stroke-width:0.5;stroke-linecap:butt;stroke-linejoin:miter;stroke-miterlimit:4;stroke-dasharray:none;stroke-opacity:1"
           d="M 252.83496,370.19819 L 273.97796,387.23004"
           id="path3280"
           transform="translate(-39.514298,0.6948412)" />
        <path
           style="fill:none;fill-rule:evenodd;stroke:#000000;stroke-width:0.5;stroke-linecap:butt;stroke-linejoin:miter;stroke-miterlimit:4;stroke-dasharray:none;stroke-opacity:1"
           d="M 253.12862,383.41256 L 274.85891,399.56346"
           id="path3282"
           transform="translate(-39.514298,0.6948412)" />
        <path
           style="fill:none;fill-rule:evenodd;stroke:#000000;stroke-width:0.5;stroke-linecap:butt;stroke-linejoin:miter;stroke-miterlimit:4;stroke-dasharray:none;stroke-opacity:1"
           d="M 253.12862,394.57136 L 275.44622,410.42861"
           id="path3284"
           transform="translate(-39.514298,0.6948412)" />
        <path
           style="fill:none;fill-rule:evenodd;stroke:#000000;stroke-width:0.5;stroke-linecap:butt;stroke-linejoin:miter;stroke-miterlimit:4;stroke-dasharray:none;stroke-opacity:1"
           d="M 253.12862,407.19843 L 275.44622,420.11914"
           id="path3286"
           transform="translate(-39.514298,0.6948412)" />
        <path
           style="fill:none;fill-rule:evenodd;stroke:#000000;stroke-width:0.5;stroke-linecap:butt;stroke-linejoin:miter;stroke-miterlimit:4;stroke-dasharray:none;stroke-opacity:1"
           d="M 256.35879,419.82549 L 276.03352,430.69064"
           id="path3288"
           transform="translate(-39.514298,0.6948412)" />
        <path
           style="fill:none;fill-rule:evenodd;stroke:#000000;stroke-width:0.5;stroke-linecap:butt;stroke-linejoin:miter;stroke-miterlimit:4;stroke-dasharray:none;stroke-opacity:1"
           d="M 263.99376,433.33352 L 278.08909,440.38118"
           id="path3290"
           transform="translate(-39.514298,0.6948412)" />
        <path
           style="fill:none;fill-rule:evenodd;stroke:#000000;stroke-width:0.5;stroke-linecap:butt;stroke-linejoin:miter;stroke-miterlimit:4;stroke-dasharray:none;stroke-opacity:1"
           d="M 266.34299,336.72178 L 266.34299,329.38046"
           id="path3292"
           transform="translate(-39.514298,0.6948412)" />
        <path
           style="fill:none;fill-rule:evenodd;stroke:#000000;stroke-width:0.5;stroke-linecap:butt;stroke-linejoin:miter;stroke-miterlimit:4;stroke-dasharray:none;stroke-opacity:1"
           d="M 270.45412,348.17424 L 271.04143,335.84082"
           id="path3294"
           transform="translate(-39.514298,0.6948412)" />
        <path
           style="fill:none;fill-rule:evenodd;stroke:#000000;stroke-width:0.5;stroke-linecap:butt;stroke-linejoin:miter;stroke-miterlimit:4;stroke-dasharray:none;stroke-opacity:1"
           d="M 275.15257,361.09495 L 276.03352,342.00753"
           id="path3296"
           transform="translate(-39.514298,0.6948412)" />
        <path
           style="fill:none;fill-rule:evenodd;stroke:#000000;stroke-width:0.5;stroke-linecap:butt;stroke-linejoin:miter;stroke-miterlimit:4;stroke-dasharray:none;stroke-opacity:1"
           d="M 276.91448,373.13471 L 281.02562,351.69807"
           id="path3298"
           transform="translate(-39.514298,0.6948412)" />
        <path
           style="fill:none;fill-rule:evenodd;stroke:#000000;stroke-width:0.5;stroke-linecap:butt;stroke-linejoin:miter;stroke-miterlimit:4;stroke-dasharray:none;stroke-opacity:1"
           d="M 279.55736,385.17447 L 286.89867,361.97591"
           id="path3300"
           transform="translate(-39.514298,0.6948412)"
           sodipodi:nodetypes="cc" />
        <path
           style="fill:none;fill-rule:evenodd;stroke:#000000;stroke-width:0.5;stroke-linecap:butt;stroke-linejoin:miter;stroke-miterlimit:4;stroke-dasharray:none;stroke-opacity:1"
           d="M 280.43832,397.21424 L 291.00981,374.30933"
           id="path3302"
           transform="translate(-39.514298,0.6948412)" />
        <path
           style="fill:none;fill-rule:evenodd;stroke:#000000;stroke-width:0.5;stroke-linecap:butt;stroke-linejoin:miter;stroke-miterlimit:4;stroke-dasharray:none;stroke-opacity:1"
           d="M 281.90658,409.254 L 293.65269,387.23004"
           id="path3304"
           transform="translate(-39.514298,0.6948412)" />
        <path
           style="fill:none;fill-rule:evenodd;stroke:#000000;stroke-width:0.5;stroke-linecap:butt;stroke-linejoin:miter;stroke-miterlimit:4;stroke-dasharray:none;stroke-opacity:1"
           d="M 283.96215,419.53184 L 295.12095,402.20633"
           id="path3306"
           transform="translate(-39.514298,0.6948412)" />
        <path
           style="fill:none;fill-rule:evenodd;stroke:#000000;stroke-width:0.5;stroke-linecap:butt;stroke-linejoin:miter;stroke-miterlimit:4;stroke-dasharray:none;stroke-opacity:1"
           d="M 283.37484,430.10334 L 293.65269,416.88897"
           id="path3308"
           transform="translate(-39.514298,0.6948412)" />
        <path
           style="fill:none;fill-rule:evenodd;stroke:#000000;stroke-width:0.5;stroke-linecap:butt;stroke-linejoin:miter;stroke-miterlimit:4;stroke-dasharray:none;stroke-opacity:1"
           d="M 284.2558,439.79387 L 291.59712,430.98429"
           id="path3310"
           transform="translate(-39.514298,0.6948412)" />
      </g>
      <g
         style="stroke:#000000;stroke-width:0.5;stroke-miterlimit:4;stroke-dasharray:none;stroke-opacity:1"
         transform="matrix(0.6177174,-0.7864001,-0.7864001,-0.6177174,508.52495,814.69509)"
         id="g3312">
        <path
           style="fill:#008f4c;fill-rule:evenodd;stroke:#000000;stroke-width:1;stroke-linecap:butt;stroke-linejoin:miter;stroke-miterlimit:4;stroke-dasharray:none;stroke-opacity:1"
           d="M 242.84069,454.59798 C 281.65754,398.16029 255.29624,350.16439 205.34889,305.22348 C 224.32873,342.18233 167.49154,416.87483 242.84069,454.59798 z"
           id="path3314"
           sodipodi:nodetypes="ccc" />
        <path
           style="fill:none;fill-rule:evenodd;stroke:#000000;stroke-width:0.5;stroke-linecap:butt;stroke-linejoin:miter;stroke-miterlimit:4;stroke-dasharray:none;stroke-opacity:1"
           d="M 246.79194,307.15834 C 281.83771,355.47283 278.18627,406.22356 281.26213,450.17298"
           id="path3316"
           transform="translate(-39.514298,0.6948412)"
           sodipodi:nodetypes="cc" />
        <path
           style="fill:none;fill-rule:evenodd;stroke:#000000;stroke-width:0.5;stroke-linecap:butt;stroke-linejoin:miter;stroke-miterlimit:4;stroke-dasharray:none;stroke-opacity:1"
           d="M 251.66035,327.61855 L 261.64454,337.30909"
           id="path3318"
           transform="translate(-39.514298,0.6948412)" />
        <path
           style="fill:none;fill-rule:evenodd;stroke:#000000;stroke-width:0.5;stroke-linecap:butt;stroke-linejoin:miter;stroke-miterlimit:4;stroke-dasharray:none;stroke-opacity:1"
           d="M 254.00957,337.89639 L 266.93029,350.52346"
           id="path3320"
           transform="translate(-39.514298,0.6948412)" />
        <path
           style="fill:none;fill-rule:evenodd;stroke:#000000;stroke-width:0.5;stroke-linecap:butt;stroke-linejoin:miter;stroke-miterlimit:4;stroke-dasharray:none;stroke-opacity:1"
           d="M 254.00957,349.34885 L 268.69221,361.38861"
           id="path3322"
           transform="translate(-39.514298,0.6948412)" />
        <path
           style="fill:none;fill-rule:evenodd;stroke:#000000;stroke-width:0.5;stroke-linecap:butt;stroke-linejoin:miter;stroke-miterlimit:4;stroke-dasharray:none;stroke-opacity:1"
           d="M 254.59688,361.68226 L 272.50969,375.77759"
           id="path3324"
           transform="translate(-39.514298,0.6948412)" />
        <path
           style="fill:none;fill-rule:evenodd;stroke:#000000;stroke-width:0.5;stroke-linecap:butt;stroke-linejoin:miter;stroke-miterlimit:4;stroke-dasharray:none;stroke-opacity:1"
           d="M 252.83496,370.19819 L 273.97796,387.23004"
           id="path3326"
           transform="translate(-39.514298,0.6948412)" />
        <path
           style="fill:none;fill-rule:evenodd;stroke:#000000;stroke-width:0.5;stroke-linecap:butt;stroke-linejoin:miter;stroke-miterlimit:4;stroke-dasharray:none;stroke-opacity:1"
           d="M 253.12862,383.41256 L 274.85891,399.56346"
           id="path3328"
           transform="translate(-39.514298,0.6948412)" />
        <path
           style="fill:none;fill-rule:evenodd;stroke:#000000;stroke-width:0.5;stroke-linecap:butt;stroke-linejoin:miter;stroke-miterlimit:4;stroke-dasharray:none;stroke-opacity:1"
           d="M 253.12862,394.57136 L 275.44622,410.42861"
           id="path3330"
           transform="translate(-39.514298,0.6948412)" />
        <path
           style="fill:none;fill-rule:evenodd;stroke:#000000;stroke-width:0.5;stroke-linecap:butt;stroke-linejoin:miter;stroke-miterlimit:4;stroke-dasharray:none;stroke-opacity:1"
           d="M 253.12862,407.19843 L 275.44622,420.11914"
           id="path3332"
           transform="translate(-39.514298,0.6948412)" />
        <path
           style="fill:none;fill-rule:evenodd;stroke:#000000;stroke-width:0.5;stroke-linecap:butt;stroke-linejoin:miter;stroke-miterlimit:4;stroke-dasharray:none;stroke-opacity:1"
           d="M 256.35879,419.82549 L 276.03352,430.69064"
           id="path3334"
           transform="translate(-39.514298,0.6948412)" />
        <path
           style="fill:none;fill-rule:evenodd;stroke:#000000;stroke-width:0.5;stroke-linecap:butt;stroke-linejoin:miter;stroke-miterlimit:4;stroke-dasharray:none;stroke-opacity:1"
           d="M 263.99376,433.33352 L 278.08909,440.38118"
           id="path3336"
           transform="translate(-39.514298,0.6948412)" />
        <path
           style="fill:none;fill-rule:evenodd;stroke:#000000;stroke-width:0.5;stroke-linecap:butt;stroke-linejoin:miter;stroke-miterlimit:4;stroke-dasharray:none;stroke-opacity:1"
           d="M 266.34299,336.72178 L 266.34299,329.38046"
           id="path3338"
           transform="translate(-39.514298,0.6948412)" />
        <path
           style="fill:none;fill-rule:evenodd;stroke:#000000;stroke-width:0.5;stroke-linecap:butt;stroke-linejoin:miter;stroke-miterlimit:4;stroke-dasharray:none;stroke-opacity:1"
           d="M 270.45412,348.17424 L 271.04143,335.84082"
           id="path3340"
           transform="translate(-39.514298,0.6948412)" />
        <path
           style="fill:none;fill-rule:evenodd;stroke:#000000;stroke-width:0.5;stroke-linecap:butt;stroke-linejoin:miter;stroke-miterlimit:4;stroke-dasharray:none;stroke-opacity:1"
           d="M 275.15257,361.09495 L 276.03352,342.00753"
           id="path3342"
           transform="translate(-39.514298,0.6948412)" />
        <path
           style="fill:none;fill-rule:evenodd;stroke:#000000;stroke-width:0.5;stroke-linecap:butt;stroke-linejoin:miter;stroke-miterlimit:4;stroke-dasharray:none;stroke-opacity:1"
           d="M 276.91448,373.13471 L 281.02562,351.69807"
           id="path3344"
           transform="translate(-39.514298,0.6948412)" />
        <path
           style="fill:none;fill-rule:evenodd;stroke:#000000;stroke-width:0.5;stroke-linecap:butt;stroke-linejoin:miter;stroke-miterlimit:4;stroke-dasharray:none;stroke-opacity:1"
           d="M 279.55736,385.17447 L 286.89867,361.97591"
           id="path3346"
           transform="translate(-39.514298,0.6948412)"
           sodipodi:nodetypes="cc" />
        <path
           style="fill:none;fill-rule:evenodd;stroke:#000000;stroke-width:0.5;stroke-linecap:butt;stroke-linejoin:miter;stroke-miterlimit:4;stroke-dasharray:none;stroke-opacity:1"
           d="M 280.43832,397.21424 L 291.00981,374.30933"
           id="path3348"
           transform="translate(-39.514298,0.6948412)" />
        <path
           style="fill:none;fill-rule:evenodd;stroke:#000000;stroke-width:0.5;stroke-linecap:butt;stroke-linejoin:miter;stroke-miterlimit:4;stroke-dasharray:none;stroke-opacity:1"
           d="M 281.90658,409.254 L 293.65269,387.23004"
           id="path3350"
           transform="translate(-39.514298,0.6948412)" />
        <path
           style="fill:none;fill-rule:evenodd;stroke:#000000;stroke-width:0.5;stroke-linecap:butt;stroke-linejoin:miter;stroke-miterlimit:4;stroke-dasharray:none;stroke-opacity:1"
           d="M 283.96215,419.53184 L 295.12095,402.20633"
           id="path3352"
           transform="translate(-39.514298,0.6948412)" />
        <path
           style="fill:none;fill-rule:evenodd;stroke:#000000;stroke-width:0.5;stroke-linecap:butt;stroke-linejoin:miter;stroke-miterlimit:4;stroke-dasharray:none;stroke-opacity:1"
           d="M 283.37484,430.10334 L 293.65269,416.88897"
           id="path3354"
           transform="translate(-39.514298,0.6948412)" />
        <path
           style="fill:none;fill-rule:evenodd;stroke:#000000;stroke-width:0.5;stroke-linecap:butt;stroke-linejoin:miter;stroke-miterlimit:4;stroke-dasharray:none;stroke-opacity:1"
           d="M 284.2558,439.79387 L 291.59712,430.98429"
           id="path3356"
           transform="translate(-39.514298,0.6948412)" />
      </g>
    </g>
  </g>
</svg>
