<?xml version="1.0" encoding="UTF-8" standalone="no"?>
<svg
   xmlns:dc="http://purl.org/dc/elements/1.1/"
   xmlns:cc="http://creativecommons.org/ns#"
   xmlns:rdf="http://www.w3.org/1999/02/22-rdf-syntax-ns#"
   xmlns:svg="http://www.w3.org/2000/svg"
   xmlns="http://www.w3.org/2000/svg"
   xmlns:xlink="http://www.w3.org/1999/xlink"
   xmlns:sodipodi="http://sodipodi.sourceforge.net/DTD/sodipodi-0.dtd"
   xmlns:inkscape="http://www.inkscape.org/namespaces/inkscape"
   width="750"
   height="500"
   id="svg2"
   version="1.1"
   inkscape:version="0.46"
   sodipodi:docname="Flag_of_Coromoro_(Santander).svg"
   inkscape:output_extension="org.inkscape.output.svg.inkscape"
   sodipodi:version="0.32">
  <metadata
     id="metadata45">
    <rdf:RDF>
      <cc:Work
         rdf:about="">
        <dc:format>image/svg+xml</dc:format>
        <dc:type
           rdf:resource="http://purl.org/dc/dcmitype/StillImage" />
      </cc:Work>
    </rdf:RDF>
  </metadata>
  <defs
     id="defs43" />
  <sodipodi:namedview
     pagecolor="#ffffff"
     bordercolor="#666666"
     borderopacity="1"
     objecttolerance="10"
     gridtolerance="10"
     guidetolerance="10"
     inkscape:pageopacity="0"
     inkscape:pageshadow="2"
     inkscape:window-width="1024"
     inkscape:window-height="712"
     id="namedview41"
     showgrid="false"
     inkscape:zoom="1.014"
     inkscape:cx="375"
     inkscape:cy="250"
     inkscape:window-x="-4"
     inkscape:window-y="-4"
     inkscape:window-maximized="1"
     inkscape:current-layer="svg2" />
  <rect
     width="750"
     height="500"
     id="rect4"
     x="0"
     y="0"
     style="fill:#078930;fill-opacity:1" />
  <rect
     style="fill:#0f47af;fill-opacity:1"
     y="252.46548"
     x="0"
     id="rect2414"
     height="247.53452"
     width="750" />
  <rect
     width="750"
     height="187.5"
     y="156.25"
     id="rect6"
     x="0"
     style="fill:#ffffff;fill-opacity:1" />
  <rect
     width="750"
     height="62.5"
     y="218.75"
     id="rect8"
     x="0"
     style="fill:#da121a;fill-opacity:1" />
  <g
     style="fill:#ffffff"
     transform="matrix(29.6875,0,0,29.6875,54.302268,45.056706)"
     id="stl">
    <g
       id="q">
      <polygon
         transform="matrix(0.9510565,0.309017,-0.309017,0.9510565,0,-1)"
         points="0,0 0,1 0.4,1 0,0 "
         id="t" />
      <use
         height="320"
         width="480"
         y="0"
         x="0"
         id="use17"
         transform="scale(-1,1)"
         xlink:href="#t" />
    </g>
    <use
       height="320"
       width="480"
       y="0"
       x="0"
       id="use19"
       transform="matrix(0.309017,0.9510565,-0.9510565,0.309017,0,0)"
       xlink:href="#q" />
    <use
       height="320"
       width="480"
       y="0"
       x="0"
       id="use21"
       transform="matrix(0.309017,-0.9510565,0.9510565,0.309017,0,0)"
       xlink:href="#q" />
    <use
       height="320"
       width="480"
       y="0"
       x="0"
       id="use23"
       transform="matrix(-0.809017,0.5877853,-0.5877853,-0.809017,0,0)"
       xlink:href="#q" />
    <use
       height="320"
       width="480"
       y="0"
       x="0"
       id="use25"
       transform="matrix(-0.809017,-0.5877853,0.5877853,-0.809017,0,0)"
       xlink:href="#q" />
  </g>
  <use
     height="320"
     width="480"
     y="0"
     x="0"
     id="use27"
     transform="translate(-2.4457594e-7,70.5)"
     xlink:href="#stl" />
</svg>
