<?xml version="1.0" encoding="UTF-8" standalone="no"?>
<!-- Created with Inkscape (http://www.inkscape.org/) -->

<svg
   xmlns:dc="http://purl.org/dc/elements/1.1/"
   xmlns:cc="http://creativecommons.org/ns#"
   xmlns:rdf="http://www.w3.org/1999/02/22-rdf-syntax-ns#"
   xmlns:svg="http://www.w3.org/2000/svg"
   xmlns="http://www.w3.org/2000/svg"
   xmlns:sodipodi="http://sodipodi.sourceforge.net/DTD/sodipodi-0.dtd"
   xmlns:inkscape="http://www.inkscape.org/namespaces/inkscape"
   width="1000"
   height="500"
   id="svg2828"
   version="1.1"
   inkscape:version="0.47 r22583"
   sodipodi:docname="Documento nuevo 1">
  <defs
     id="defs2830">
    <inkscape:perspective
       sodipodi:type="inkscape:persp3d"
       inkscape:vp_x="0 : 526.18109 : 1"
       inkscape:vp_y="0 : 1000 : 0"
       inkscape:vp_z="744.09448 : 526.18109 : 1"
       inkscape:persp3d-origin="372.04724 : 350.78739 : 1"
       id="perspective2836" />
    <inkscape:perspective
       id="perspective2879"
       inkscape:persp3d-origin="0.5 : 0.33333333 : 1"
       inkscape:vp_z="1 : 0.5 : 1"
       inkscape:vp_y="0 : 1000 : 0"
       inkscape:vp_x="0 : 0.5 : 1"
       sodipodi:type="inkscape:persp3d" />
  </defs>
  <sodipodi:namedview
     id="base"
     pagecolor="#ffffff"
     bordercolor="#666666"
     borderopacity="1.0"
     inkscape:pageopacity="0.0"
     inkscape:pageshadow="2"
     inkscape:zoom="0.62"
     inkscape:cx="468.57143"
     inkscape:cy="290.72972"
     inkscape:document-units="px"
     inkscape:current-layer="layer1"
     showgrid="false"
     inkscape:window-width="1280"
     inkscape:window-height="962"
     inkscape:window-x="-8"
     inkscape:window-y="-8"
     inkscape:window-maximized="1" />
  <metadata
     id="metadata2833">
    <rdf:RDF>
      <cc:Work
         rdf:about="">
        <dc:format>image/svg+xml</dc:format>
        <dc:type
           rdf:resource="http://purl.org/dc/dcmitype/StillImage" />
        <dc:title></dc:title>
      </cc:Work>
    </rdf:RDF>
  </metadata>
  <g
     inkscape:label="Capa 1"
     inkscape:groupmode="layer"
     id="layer1"
     transform="translate(0,-552.36218)">
    <rect
       style="fill:#0f47af;fill-opacity:1;stroke:none"
       id="rect2851"
       width="1000"
       height="500"
       x="0"
       y="-5.6843419e-14"
       transform="translate(0,552.36218)" />
    <path
       sodipodi:type="star"
       style="fill:#fcdd09;fill-opacity:1;stroke:none"
       id="path2853"
       sodipodi:sides="16"
       sodipodi:cx="50"
       sodipodi:cy="32.258064"
       sodipodi:r1="68.429688"
       sodipodi:r2="17.10742"
       sodipodi:arg1="0.78539816"
       sodipodi:arg2="0.9817477"
       inkscape:flatsided="false"
       inkscape:rounded="0"
       inkscape:randomized="0"
       d="M 98.387096,80.64516 59.504373,46.482364 76.186908,95.478852 53.337492,49.03677 50,100.68775 46.662508,49.03677 23.813093,95.478852 40.495627,46.482364 1.6129041,80.645161 35.7757,41.762438 -13.220788,58.444972 33.221294,35.595556 -18.429687,32.258065 33.221294,28.920572 -13.220788,6.0711568 35.7757,22.753691 1.6129038,-16.129032 40.495627,18.033764 23.813092,-30.962723 46.662508,15.479359 50,-36.171623 53.337492,15.479359 76.186907,-30.962724 59.504373,18.033764 98.387096,-16.129032 64.2243,22.753691 113.22079,6.0711564 66.778706,28.920572 118.42969,32.258064 66.778706,35.595556 113.22079,58.444972 64.2243,41.762438 98.387096,80.64516 z"
       transform="matrix(1.8266925,0,0,1.8266925,43.665372,628.43662)" />
    <rect
       width="1128.5035"
       height="85.599663"
       id="rect8"
       x="-401.48691"
       y="-1017.6122"
       style="fill:#fcdd09"
       transform="matrix(-0.89438547,0.44729703,-0.66427546,-0.74748787,0,0)" />
    <rect
       width="1128.5035"
       height="42.799831"
       id="rect10"
       x="-401.48691"
       y="-1017.6122"
       style="fill:#078930"
       transform="matrix(-0.89438547,0.44729703,-0.66427546,-0.74748787,0,0)" />
  </g>
</svg>
