<?xml version="1.0" encoding="UTF-8" standalone="no"?>
<!-- Created with Inkscape (http://www.inkscape.org/) -->

<svg
   xmlns:dc="http://purl.org/dc/elements/1.1/"
   xmlns:cc="http://creativecommons.org/ns#"
   xmlns:rdf="http://www.w3.org/1999/02/22-rdf-syntax-ns#"
   xmlns:svg="http://www.w3.org/2000/svg"
   xmlns="http://www.w3.org/2000/svg"
   xmlns:sodipodi="http://sodipodi.sourceforge.net/DTD/sodipodi-0.dtd"
   xmlns:inkscape="http://www.inkscape.org/namespaces/inkscape"
   width="1000"
   height="500"
   id="svg2"
   version="1.1"
   inkscape:version="0.48.3.1 r9886"
   sodipodi:docname="Flag of San Pablo (Nariño).svg">
  <defs
     id="defs4">
    <inkscape:perspective
       sodipodi:type="inkscape:persp3d"
       inkscape:vp_x="0 : 526.18109 : 1"
       inkscape:vp_y="0 : 1000 : 0"
       inkscape:vp_z="744.09448 : 526.18109 : 1"
       inkscape:persp3d-origin="372.04724 : 350.78739 : 1"
       id="perspective10" />
  </defs>
  <sodipodi:namedview
     id="base"
     pagecolor="#ffffff"
     bordercolor="#666666"
     borderopacity="1.0"
     inkscape:pageopacity="0.0"
     inkscape:pageshadow="2"
     inkscape:zoom="0.58"
     inkscape:cx="350"
     inkscape:cy="257.98525"
     inkscape:document-units="px"
     inkscape:current-layer="layer1"
     showgrid="false"
     inkscape:window-width="1280"
     inkscape:window-height="962"
     inkscape:window-x="-8"
     inkscape:window-y="-8"
     inkscape:window-maximized="1" />
  <metadata
     id="metadata7">
    <rdf:RDF>
      <cc:Work
         rdf:about="">
        <dc:format>image/svg+xml</dc:format>
        <dc:type
           rdf:resource="http://purl.org/dc/dcmitype/StillImage" />
        <dc:title></dc:title>
      </cc:Work>
    </rdf:RDF>
  </metadata>
  <g
     inkscape:label="Capa 1"
     inkscape:groupmode="layer"
     id="layer1"
     transform="translate(0,-552.36218)">
    <rect
       style="fill:#078930;fill-opacity:1"
       id="rect2816"
       width="1000"
       height="100"
       x="0"
       y="552.36218" />
    <rect
       style="fill:#ffffff;fill-opacity:1"
       id="rect2818"
       width="1000"
       height="100"
       x="0"
       y="652.36218" />
    <rect
       style="fill:#078930;fill-opacity:1"
       id="rect2820"
       width="1000"
       height="100"
       x="0"
       y="752.36218" />
    <rect
       style="fill:#ffffff;fill-opacity:1"
       id="rect2822"
       width="1000"
       height="100"
       x="0"
       y="852.36218" />
    <rect
       style="fill:#078930;fill-opacity:1"
       id="rect2824"
       width="1000"
       height="100"
       x="0"
       y="952.36218" />
    <rect
       style="fill:#fcdd09;fill-opacity:1;stroke:none"
       id="rect5761"
       width="450"
       height="300"
       x="0"
       y="-5.6843419e-014"
       transform="translate(0,552.36218)" />
    <path
       inkscape:connector-curvature="0"
       style="fill:#078930;stroke:none"
       d="m 25,802.36218 65.776507,-100 67.556823,100 -133.33333,0 z"
       id="path5372-8-8" />
    <path
       inkscape:connector-curvature="0"
       style="fill:#078930;stroke:none"
       d="m 158.33333,802.36218 65.77651,-100 67.55683,100 -133.33334,0 z"
       id="path5372-8-8-8" />
    <path
       inkscape:connector-curvature="0"
       style="fill:#078930;stroke:none"
       d="m 291.66667,802.36218 65.7765,-100 67.55683,100 -133.33333,0 z"
       id="path5372-8-8-8-2" />
    <path
       sodipodi:type="star"
       style="fill:#fbbb00;fill-opacity:1;stroke:none"
       id="path5847"
       sodipodi:sides="20"
       sodipodi:cx="113.7931"
       sodipodi:cy="105.17241"
       sodipodi:r1="70.352432"
       sodipodi:r2="35.475693"
       sodipodi:arg1="0.94200004"
       sodipodi:arg2="1.0990796"
       inkscape:flatsided="false"
       inkscape:rounded="0"
       inkscape:randomized="0"
       d="m 155.17241,162.06896 -25.25858,-25.29518 5.65133,35.29737 -16.2057,-31.86247 -5.53275,35.31615 -5.56649,-35.31085 -16.17525,31.87795 5.617607,-35.30276 -25.234404,25.3193 16.251812,-31.83897 -31.823437,16.28222 25.295176,-25.25858 -35.297371,5.65133 31.862473,-16.2057 L 43.440674,105.20602 78.751523,99.639531 46.87358,83.464281 82.176333,89.081887 56.857035,63.847484 88.696012,80.099295 72.413789,48.275858 l 25.25858,25.295177 -5.651331,-35.297371 16.205702,31.862473 5.53275,-35.316152 5.56649,35.310848 16.17525,-31.877942 -5.61761,35.302752 25.2344,-25.319297 -16.25181,31.838977 31.82344,-16.282223 -25.29518,25.25858 35.29737,-5.651332 -31.86247,16.205698 35.31615,5.532754 -35.31085,5.56649 31.87795,16.17525 -35.30276,-5.61761 25.3193,25.2344 -31.83898,-16.25181 z"
       transform="matrix(1.0660613,0,0,1.0660613,29.888875,539.04264)" />
  </g>
</svg>
