<?xml version="1.0" encoding="UTF-8" standalone="no"?>
<!-- Created with Inkscape (http://www.inkscape.org/) -->
<svg
   xmlns:dc="http://purl.org/dc/elements/1.1/"
   xmlns:cc="http://creativecommons.org/ns#"
   xmlns:rdf="http://www.w3.org/1999/02/22-rdf-syntax-ns#"
   xmlns:svg="http://www.w3.org/2000/svg"
   xmlns="http://www.w3.org/2000/svg"
   xmlns:sodipodi="http://sodipodi.sourceforge.net/DTD/sodipodi-0.dtd"
   xmlns:inkscape="http://www.inkscape.org/namespaces/inkscape"
   width="750"
   height="500"
   id="svg2822"
   version="1.1"
   inkscape:version="0.46"
   sodipodi:docname="Flag_of_Curillo_(Caquetá).svg"
   sodipodi:version="0.32"
   inkscape:output_extension="org.inkscape.output.svg.inkscape">
  <defs
     id="defs2824" />
  <sodipodi:namedview
     id="base"
     pagecolor="#ffffff"
     bordercolor="#666666"
     borderopacity="1.0"
     inkscape:pageopacity="0.0"
     inkscape:pageshadow="2"
     inkscape:zoom="1.014"
     inkscape:cx="375"
     inkscape:cy="250"
     inkscape:document-units="px"
     inkscape:current-layer="layer1"
     showgrid="false"
     inkscape:window-width="1024"
     inkscape:window-height="712"
     inkscape:window-x="-4"
     inkscape:window-y="-4"
     inkscape:window-maximized="1" />
  <metadata
     id="metadata2827">
    <rdf:RDF>
      <cc:Work
         rdf:about="">
        <dc:format>image/svg+xml</dc:format>
        <dc:type
           rdf:resource="http://purl.org/dc/dcmitype/StillImage" />
        <dc:title />
      </cc:Work>
    </rdf:RDF>
  </metadata>
  <g
     inkscape:label="Capa 1"
     inkscape:groupmode="layer"
     id="layer1"
     transform="translate(0,-552.36218)">
    <rect
       style="fill:#ffffff;fill-opacity:1;stroke:none"
       id="rect2832"
       width="750"
       height="166.666"
       x="0"
       y="719.03015" />
    <rect
       style="fill:#078930;fill-opacity:1;stroke:none"
       id="rect2834"
       width="750"
       height="166.666"
       x="0"
       y="-1052.3622"
       transform="scale(1,-1)" />
    <rect
       style="fill:#0f47af;fill-opacity:1;stroke:none"
       id="rect2836"
       width="750"
       height="166.666"
       x="0"
       y="-719.0282"
       transform="scale(1,-1)" />
    <path
       style="font-size:150px;font-style:normal;font-variant:normal;font-weight:normal;font-stretch:normal;text-align:start;line-height:125%;writing-mode:lr-tb;text-anchor:start;fill:#000000;fill-opacity:1;stroke:none;stroke-width:1px;stroke-linecap:butt;stroke-linejoin:miter;stroke-opacity:1;font-family:Arial;-inkscape-font-specification:Arial"
       d="M 252.69974,814.7157 L 266.90872,818.30457 C 263.93011,829.97451 258.57123,838.87343 250.83206,845.00134 C 243.09273,851.12927 233.63229,854.19324 222.45071,854.19324 C 210.8784,854.19324 201.46679,851.83728 194.21585,847.12537 C 186.96485,842.41346 181.44728,835.58974 177.66312,826.65417 C 173.87893,817.71866 171.98684,808.12395 171.98685,797.87 C 171.98684,786.68842 174.12307,776.93501 178.39554,768.60974 C 182.66798,760.28464 188.74708,753.9614 196.63284,749.64001 C 204.51855,745.31883 213.19774,743.15819 222.67044,743.15808 C 233.41256,743.15819 242.44575,745.89256 249.77005,751.36121 C 257.09418,756.83005 262.19671,764.52047 265.07767,774.4325 L 251.08841,777.72839 C 248.59809,769.91598 244.98481,764.22751 240.24857,760.66296 C 235.51217,757.09861 229.55514,755.31638 222.37747,755.31628 C 214.12547,755.31638 207.2285,757.29392 201.68655,761.2489 C 196.14453,765.20407 192.25049,770.51412 190.00443,777.17908 C 187.75831,783.84418 186.63526,790.71674 186.63528,797.79675 C 186.63526,806.92766 187.96583,814.89884 190.62698,821.71033 C 193.28809,828.52187 197.42627,833.6122 203.04153,836.98132 C 208.65672,840.35048 214.73582,842.03504 221.27884,842.03503 C 229.23776,842.03504 235.97603,839.74012 241.49368,835.15027 C 247.01118,830.56045 250.74653,823.74893 252.69974,814.7157 L 252.69974,814.7157 z M 286.53763,852.36218 L 286.53763,837.34753 L 301.55228,837.34753 L 301.55228,852.36218 L 286.53763,852.36218 z M 402.69974,814.7157 L 416.90872,818.30457 C 413.93011,829.97451 408.57123,838.87343 400.83206,845.00134 C 393.09273,851.12927 383.63229,854.19324 372.45071,854.19324 C 360.8784,854.19324 351.46679,851.83728 344.21585,847.12537 C 336.96485,842.41346 331.44728,835.58974 327.66312,826.65417 C 323.87893,817.71866 321.98684,808.12395 321.98685,797.87 C 321.98684,786.68842 324.12307,776.93501 328.39554,768.60974 C 332.66798,760.28464 338.74708,753.9614 346.63284,749.64001 C 354.51855,745.31883 363.19774,743.15819 372.67044,743.15808 C 383.41256,743.15819 392.44575,745.89256 399.77005,751.36121 C 407.09418,756.83005 412.19671,764.52047 415.07767,774.4325 L 401.08841,777.72839 C 398.59809,769.91598 394.98481,764.22751 390.24857,760.66296 C 385.51217,757.09861 379.55514,755.31638 372.37747,755.31628 C 364.12547,755.31638 357.2285,757.29392 351.68655,761.2489 C 346.14453,765.20407 342.25049,770.51412 340.00443,777.17908 C 337.75831,783.84418 336.63526,790.71674 336.63528,797.79675 C 336.63526,806.92766 337.96583,814.89884 340.62698,821.71033 C 343.28809,828.52187 347.42627,833.6122 353.04153,836.98132 C 358.65672,840.35048 364.73582,842.03504 371.27884,842.03503 C 379.23776,842.03504 385.97603,839.74012 391.49368,835.15027 C 397.01118,830.56045 400.74653,823.74893 402.69974,814.7157 L 402.69974,814.7157 z M 436.53763,852.36218 L 436.53763,837.34753 L 451.55228,837.34753 L 451.55228,852.36218 L 436.53763,852.36218 z M 552.69974,814.7157 L 566.90872,818.30457 C 563.93011,829.97451 558.57123,838.87343 550.83206,845.00134 C 543.09273,851.12927 533.63229,854.19324 522.45071,854.19324 C 510.8784,854.19324 501.46679,851.83728 494.21585,847.12537 C 486.96485,842.41346 481.44728,835.58974 477.66312,826.65417 C 473.87893,817.71866 471.98684,808.12395 471.98685,797.87 C 471.98684,786.68842 474.12307,776.93501 478.39554,768.60974 C 482.66798,760.28464 488.74708,753.9614 496.63284,749.64001 C 504.51855,745.31883 513.19774,743.15819 522.67044,743.15808 C 533.41256,743.15819 542.44575,745.89256 549.77005,751.36121 C 557.09418,756.83005 562.19671,764.52047 565.07767,774.4325 L 551.08841,777.72839 C 548.59809,769.91598 544.98481,764.22751 540.24857,760.66296 C 535.51217,757.09861 529.55514,755.31638 522.37747,755.31628 C 514.12547,755.31638 507.2285,757.29392 501.68655,761.2489 C 496.14453,765.20407 492.25049,770.51412 490.00443,777.17908 C 487.75831,783.84418 486.63526,790.71674 486.63528,797.79675 C 486.63526,806.92766 487.96583,814.89884 490.62698,821.71033 C 493.28809,828.52187 497.42627,833.6122 503.04153,836.98132 C 508.65672,840.35048 514.73582,842.03504 521.27884,842.03503 C 529.23776,842.03504 535.97603,839.74012 541.49368,835.15027 C 547.01118,830.56045 550.74653,823.74893 552.69974,814.7157 L 552.69974,814.7157 z M 586.53763,852.36218 L 586.53763,837.34753 L 601.55228,837.34753 L 601.55228,852.36218 L 586.53763,852.36218 z"
       id="text2382" />
  </g>
</svg>
