<?xml version="1.0" encoding="UTF-8" standalone="no"?>
<svg
   xmlns:dc="http://purl.org/dc/elements/1.1/"
   xmlns:cc="http://creativecommons.org/ns#"
   xmlns:rdf="http://www.w3.org/1999/02/22-rdf-syntax-ns#"
   xmlns:svg="http://www.w3.org/2000/svg"
   xmlns="http://www.w3.org/2000/svg"
   xmlns:xlink="http://www.w3.org/1999/xlink"
   xmlns:sodipodi="http://sodipodi.sourceforge.net/DTD/sodipodi-0.dtd"
   xmlns:inkscape="http://www.inkscape.org/namespaces/inkscape"
   width="750"
   height="500"
   id="svg2"
   sodipodi:version="0.32"
   inkscape:version="0.46"
   sodipodi:docname="Flag_of_Cácota_(Norte_de_Santander).svg"
   inkscape:output_extension="org.inkscape.output.svg.inkscape">
  <metadata
     id="metadata172">
    <rdf:RDF>
      <cc:Work
         rdf:about="">
        <dc:format>image/svg+xml</dc:format>
        <dc:type
           rdf:resource="http://purl.org/dc/dcmitype/StillImage" />
      </cc:Work>
    </rdf:RDF>
  </metadata>
  <defs
     id="defs170" />
  <sodipodi:namedview
     inkscape:window-height="712"
     inkscape:window-width="1024"
     inkscape:pageshadow="2"
     inkscape:pageopacity="0.0"
     guidetolerance="10.0"
     gridtolerance="10.0"
     objecttolerance="10.0"
     borderopacity="1.0"
     bordercolor="#666666"
     pagecolor="#ffffff"
     id="base"
     showgrid="false"
     inkscape:zoom="1.014"
     inkscape:cx="375"
     inkscape:cy="250"
     inkscape:window-x="-4"
     inkscape:window-y="-4"
     inkscape:current-layer="svg2"
     showguides="true"
     inkscape:guide-bbox="true" />
  <rect
     fill="#078930"
     width="750"
     height="500"
     id="rect4" />
  <rect
     width="750"
     height="171.11104"
     y="166.666"
     id="rect6"
     x="0"
     style="fill:#ffffff" />
  <rect
     fill="#fcdd09"
     width="750"
     height="166.666"
     y="333.333"
     id="rect8" />
  <use
     xlink:href="#espiga"
     transform="matrix(-1,0,0,1,750,0)"
     id="use10"
     style="stroke-width:0.69999999;stroke-miterlimit:4;stroke-dasharray:none"
     x="0"
     y="0"
     width="750"
     height="500" />
  <g
     id="espiga"
     transform="matrix(9.35,0,0,8.5,-851.5,-339)"
     style="fill:#eac102;stroke:#000000;stroke-width:0.08235294;stroke-miterlimit:4;stroke-dasharray:none">
    <path
       d="M 126.8,73.3 C 128.7,74.5 127.3,74.8 132.2,75.9 C 133.7,76.3 135.44,77.1 135.62,78.15 L 136.1,77.57 C 135.36,76.67 134.17,75.99 132.5,75.65 C 127.76,74.69 128.6,74.16 126.85,73.16 L 126.8,73.33 L 126.8,73.33"
       id="path13"
       style="stroke-width:0.08235294;stroke-miterlimit:4;stroke-dasharray:none" />
    <path
       d="M 126.02,61.28 L 126.7,60.21 M 126.02,61.28 L 126.02,61.28 L 126.02,61.28"
       id="path15"
       style="stroke-width:0.08235294;stroke-miterlimit:4;stroke-dasharray:none" />
    <path
       d="M 126.06,61.21 C 125.6,61.7 124.91,61.94 125.4,63.3 C 126.25,62.57 126.13,62.49 126.06,61.21 L 126.06,61.21"
       id="path17"
       style="stroke-width:0.08235294;stroke-miterlimit:4;stroke-dasharray:none" />
    <path
       d="M 126.92,61.19 L 127.74,60.4 M 126.92,61.19 L 126.92,61.19 L 126.92,61.19"
       id="path19"
       style="stroke-width:0.08235294;stroke-miterlimit:4;stroke-dasharray:none" />
    <path
       d="M 125.27,61.76 L 125.28,61.03 M 125.28,61.76 L 125.28,61.76 L 125.28,61.76"
       id="path21"
       style="stroke-width:0.08235294;stroke-miterlimit:4;stroke-dasharray:none" />
    <path
       d="M 125.29,61.65 C 125.56,62.7 125.91,62.87 125.01,63.87 C 124.56,63.03 124.79,62.61 125.29,61.65"
       id="path23"
       style="stroke-width:0.08235294;stroke-miterlimit:4;stroke-dasharray:none" />
    <path
       d="M 126.95,61.94 L 128.04,61.12 M 126.95,61.94 L 126.95,61.94 L 126.95,61.94"
       id="path25"
       style="stroke-width:0.08235294;stroke-miterlimit:4;stroke-dasharray:none" />
    <path
       d="M 127.04,61.87 C 126.42,62.13 125.69,62.07 125.58,63.51 C 126.65,63.19 126.58,63.07 127.04,61.87"
       id="path27"
       style="stroke-width:0.08235294;stroke-miterlimit:4;stroke-dasharray:none" />
    <path
       d="M 127.02,62.8 L 127.69,62.41 M 127.02,62.81 L 127.02,62.8 L 127.02,62.8"
       id="path29"
       style="stroke-width:0.08235294;stroke-miterlimit:4;stroke-dasharray:none" />
    <path
       d="M 127.09,62.77 C 126.37,62.83 125.62,62.59 125.28,63.97 C 126.51,63.87 126.65,63.08 127.09,62.77"
       id="path31"
       style="stroke-width:0.08235294;stroke-miterlimit:4;stroke-dasharray:none" />
    <path
       d="M 127.04,61.07 C 126.68,62.11 126.87,62.46 125.59,62.78 C 125.69,61.79 126.11,61.58 127.04,61.07"
       id="path33"
       style="stroke-width:0.08235294;stroke-miterlimit:4;stroke-dasharray:none" />
    <path
       d="M 126.32,61.92 C 126.04,62.99 126.26,63.32 125.02,63.75 C 125.04,62.75 125.43,62.51 126.32,61.92"
       id="path35"
       style="stroke-width:0.08235294;stroke-miterlimit:4;stroke-dasharray:none" />
    <path
       d="M 126.38,63.58 L 127.02,63.24 M 126.38,63.58 L 126.38,63.58 L 126.38,63.58"
       id="path37"
       style="stroke-width:0.08235294;stroke-miterlimit:4;stroke-dasharray:none" />
    <path
       d="M 126.49,63.51 C 126.18,64.12 126.19,64.85 124.72,64.87 C 125.12,63.83 125.24,63.9 126.49,63.52 L 126.49,63.51"
       id="path39"
       style="stroke-width:0.08235294;stroke-miterlimit:4;stroke-dasharray:none" />
    <path
       d="M 126.05,64.59 L 126.73,63.91 M 126.05,64.59 L 126.05,64.59 L 126.05,64.59"
       id="path41"
       style="stroke-width:0.08235294;stroke-miterlimit:4;stroke-dasharray:none" />
    <path
       d="M 126.11,64.52 C 125.37,64.68 124.81,64.53 124.77,65.83 C 125.51,65.44 125.71,65.59 126.11,64.52"
       id="path43"
       style="stroke-width:0.08235294;stroke-miterlimit:4;stroke-dasharray:none" />
    <path
       d="M 125.79,65.33 L 126.31,64.74 M 125.79,65.33 L 125.79,65.33 L 125.79,65.33"
       id="path45"
       style="stroke-width:0.08235294;stroke-miterlimit:4;stroke-dasharray:none" />
    <path
       d="M 125.83,65.26 C 125.24,65.57 124.51,65.56 124.5,67.01 C 125.54,66.61 125.46,66.49 125.83,65.26"
       id="path47"
       style="stroke-width:0.08235294;stroke-miterlimit:4;stroke-dasharray:none" />
    <path
       d="M 125.67,66.37 L 126.16,65.76 M 125.67,66.37 L 125.67,66.37 L 125.67,66.37"
       id="path49"
       style="stroke-width:0.08235294;stroke-miterlimit:4;stroke-dasharray:none" />
    <path
       d="M 125.72,66.31 C 125.08,66.63 124.29,66.66 124.46,68.07 C 125.57,67.55 125.43,66.75 125.723,66.31"
       id="path51"
       style="stroke-width:0.08235294;stroke-miterlimit:4;stroke-dasharray:none" />
    <path
       d="M 124.75,62.77 L 124.64,61.93 M 124.75,62.77 L 124.75,62.77 L 124.75,62.77"
       id="path53"
       style="stroke-width:0.08235294;stroke-miterlimit:4;stroke-dasharray:none" />
    <path
       d="M 124.74,62.59 C 124.84,63.09 125.52,63.63 124.73,64.79 C 124.28,63.56 124.22,63.66 124.74,62.59"
       id="path55"
       style="stroke-width:0.08235294;stroke-miterlimit:4;stroke-dasharray:none" />
    <path
       d="M 124.19,63.58 L 124.07,62.69 M 124.19,63.58 L 124.19,63.59 L 124.19,63.59"
       id="path57"
       style="stroke-width:0.08235294;stroke-miterlimit:4;stroke-dasharray:none" />
    <path
       d="M 124.18,63.49 C 124.36,63.98 125.16,64.47 124.52,65.6 C 123.87,64.46 123.82,64.56 124.18,63.49 L 124.18,63.49"
       id="path59"
       style="stroke-width:0.08235294;stroke-miterlimit:4;stroke-dasharray:none" />
    <path
       d="M 123.84,64.58 L 123.59,63.76 M 123.84,64.58 L 123.84,64.58 L 123.84,64.58"
       id="path61"
       style="stroke-width:0.08235294;stroke-miterlimit:4;stroke-dasharray:none" />
    <path
       d="M 123.82,64.53 C 124.08,65.01 124.96,65.39 124.47,66.7 C 123.63,65.6 123.59,65.72 123.82,64.53"
       id="path63"
       style="stroke-width:0.08235294;stroke-miterlimit:4;stroke-dasharray:none" />
    <path
       d="M 123.54,65.71 L 123.25,64.8 M 123.54,65.71 L 123.54,65.72 L 123.54,65.71"
       id="path65"
       style="stroke-width:0.08235294;stroke-miterlimit:4;stroke-dasharray:none" />
    <path
       d="M 123.49,65.58 C 123.83,65.92 124.88,66.07 124.24,67.67 C 123.54,67.07 123.56,65.84 123.49,65.58"
       id="path67"
       style="stroke-width:0.08235294;stroke-miterlimit:4;stroke-dasharray:none" />
    <path
       d="M 123.74,67.11 L 123.27,66.39 M 123.74,67.11 L 123.74,67.11 L 123.74,67.11"
       id="path69"
       style="stroke-width:0.08235294;stroke-miterlimit:4;stroke-dasharray:none" />
    <path
       d="M 123.52,66.78 C 124.18,67.22 124.58,67.24 124.5,68.86 C 123.58,67.96 123.58,68.09 123.53,66.78"
       id="path71"
       style="stroke-width:0.08235294;stroke-miterlimit:4;stroke-dasharray:none" />
    <path
       d="M 125.65,67.03 C 125.08,67.41 124.24,67.55 124.56,68.88 C 125.37,68.32 125.47,68.23 125.65,67.03"
       id="path73"
       style="stroke-width:0.08235294;stroke-miterlimit:4;stroke-dasharray:none" />
    <path
       d="M 125.63,67.06 L 125.91,66.41 M 125.63,67.06 L 125.63,67.06 L 125.63,67.06"
       id="path75"
       style="stroke-width:0.08235294;stroke-miterlimit:4;stroke-dasharray:none" />
    <path
       d="M 125.57,68.04 L 125.79,67.29 M 125.57,68.04 L 125.57,68.04 L 125.57,68.04"
       id="path77"
       style="stroke-width:0.08235294;stroke-miterlimit:4;stroke-dasharray:none" />
    <path
       d="M 125.62,67.87 C 125.17,68.32 124.51,68.55 124.94,69.84 C 125.76,69.16 125.65,69.08 125.62,67.87"
       id="path79"
       style="stroke-width:0.08235294;stroke-miterlimit:4;stroke-dasharray:none" />
    <path
       d="M 123.62,68.1 L 123.13,67.28 M 123.62,68.1 L 123.62,68.1 L 123.62,68.1"
       id="path81"
       style="stroke-width:0.08235294;stroke-miterlimit:4;stroke-dasharray:none" />
    <path
       d="M 123.55,67.99 C 123.91,68.41 124.86,68.59 124.65,69.96 C 123.59,69.07 123.59,69.19 123.55,67.99"
       id="path83"
       style="stroke-width:0.08235294;stroke-miterlimit:4;stroke-dasharray:none" />
    <path
       d="M 125.85,62.66 C 125.74,63.76 126.02,64.05 124.85,64.66 C 124.72,63.69 125.07,63.38 125.85,62.66"
       id="path85"
       style="stroke-width:0.08235294;stroke-miterlimit:4;stroke-dasharray:none" />
    <path
       d="M 125.37,63.75 C 125.32,64.87 125.59,65.15 124.46,65.79 C 124.29,64.8 124.63,64.49 125.37,63.75 L 125.37,63.75"
       id="path87"
       style="stroke-width:0.08235294;stroke-miterlimit:4;stroke-dasharray:none" />
    <path
       d="M 124.86,64.77 C 125.02,65.87 125.35,66.1 124.36,66.95 C 124,66.01 124.27,65.64 124.87,64.77"
       id="path89"
       style="stroke-width:0.08235294;stroke-miterlimit:4;stroke-dasharray:none" />
    <path
       d="M 124.69,65.74 C 124.92,66.83 125.27,67.03 124.33,67.94 C 123.92,67.03 124.16,66.64 124.69,65.74"
       id="path91"
       style="stroke-width:0.08235294;stroke-miterlimit:4;stroke-dasharray:none" />
    <path
       d="M 124.47,66.8 C 124.87,67.75 125.22,67.88 124.54,68.88 C 123.99,68.12 124.15,67.72 124.47,66.8"
       id="path93"
       style="stroke-width:0.08235294;stroke-miterlimit:4;stroke-dasharray:none" />
    <path
       d="M 124.4,67.7 C 124.95,68.58 125.33,68.63 124.8,69.73 C 124.15,69.08 124.23,68.66 124.4,67.7"
       id="path95"
       style="stroke-width:0.08235294;stroke-miterlimit:4;stroke-dasharray:none" />
    <path
       d="M 123.72,69.25 L 123.23,68.71 M 123.72,69.25 L 123.72,69.25 L 123.72,69.25"
       id="path97"
       style="stroke-width:0.08235294;stroke-miterlimit:4;stroke-dasharray:none" />
    <path
       d="M 123.66,69.16 C 124.57,69.75 124.94,69.62 124.97,70.97 C 124.06,70.66 123.95,70.2 123.65,69.16"
       id="path99"
       style="stroke-width:0.08235294;stroke-miterlimit:4;stroke-dasharray:none" />
    <path
       d="M 125.71,68.73 L 125.92,67.98 M 125.71,68.73 L 125.71,68.73 L 125.71,68.73"
       id="path101"
       style="stroke-width:0.08235294;stroke-miterlimit:4;stroke-dasharray:none" />
    <path
       d="M 125.73,68.66 C 125.25,69.19 124.54,69.53 125.24,70.77 C 126.07,69.85 125.62,69.18 125.73,68.66"
       id="path103"
       style="stroke-width:0.08235294;stroke-miterlimit:4;stroke-dasharray:none" />
    <path
       d="M 124.53,68.48 C 125.08,69.35 125.45,69.41 124.93,70.51 C 124.27,69.86 124.36,69.44 124.53,68.48"
       id="path105"
       style="stroke-width:0.08235294;stroke-miterlimit:4;stroke-dasharray:none" />
    <path
       d="M 125.85,69.7 L 126.13,69.03 M 125.85,69.7 L 125.85,69.7 L 125.85,69.7"
       id="path107"
       style="stroke-width:0.08235294;stroke-miterlimit:4;stroke-dasharray:none" />
    <path
       d="M 125.89,69.58 C 126.04,70.25 126.5,70.8 125.38,71.76 C 125.03,70.69 125.17,70.68 125.897,69.58"
       id="path109"
       style="stroke-width:0.08235294;stroke-miterlimit:4;stroke-dasharray:none" />
    <path
       d="M 126.24,70.6 L 126.17,69.65 M 126.24,70.6 L 126.24,70.6 L 126.24,70.6"
       id="path111"
       style="stroke-width:0.08235294;stroke-miterlimit:4;stroke-dasharray:none" />
    <path
       d="M 126.22,70.51 C 125.86,71.18 125.38,71.5 126.34,72.39 C 126.53,71.57 126.77,71.52 126.22,70.5"
       id="path113"
       style="stroke-width:0.08235294;stroke-miterlimit:4;stroke-dasharray:none" />
    <path
       d="M 126.63,71.28 L 126.52,70.5 M 126.63,71.28 L 126.63,71.28 L 126.63,71.28"
       id="path115"
       style="stroke-width:0.08235294;stroke-miterlimit:4;stroke-dasharray:none" />
    <path
       d="M 126.61,71.2 C 126.4,71.86 125.96,72.4 127.05,73.35 C 127.43,72.3 127.29,72.29 126.6,71.2"
       id="path117"
       style="stroke-width:0.08235294;stroke-miterlimit:4;stroke-dasharray:none" />
    <path
       d="M 127.3,72.05 L 127.19,71.28 M 127.34,72.05 L 127.34,72.05 L 127.33,72.05"
       id="path119"
       style="stroke-width:0.08235294;stroke-miterlimit:4;stroke-dasharray:none" />
    <path
       d="M 127.32,71.97 C 127.14,72.67 126.65,73.28 127.83,74.08 C 128.16,72.89 127.46,72.48 127.32,71.97"
       id="path121"
       style="stroke-width:0.08235294;stroke-miterlimit:4;stroke-dasharray:none" />
    <path
       d="M 124.02,70.39 L 123.3,69.92 M 124.02,70.39 L 124.02,70.39 L 124.02,70.39"
       id="path123"
       style="stroke-width:0.08235294;stroke-miterlimit:4;stroke-dasharray:none" />
    <path
       d="M 123.87,70.28 C 124.31,70.54 125.17,70.37 125.5,71.7 C 124.3,71.26 124.34,71.37 123.87,70.28"
       id="path125"
       style="stroke-width:0.08235294;stroke-miterlimit:4;stroke-dasharray:none" />
    <path
       d="M 124.26,71.35 L 123.51,70.86 M 124.26,71.35 L 124.26,71.35 L 124.26,71.35"
       id="path127"
       style="stroke-width:0.08235294;stroke-miterlimit:4;stroke-dasharray:none" />
    <path
       d="M 124.19,71.3 C 124.67,71.48 125.56,71.2 126,72.41 C 124.71,72.16 124.76,72.27 124.19,71.3"
       id="path129"
       style="stroke-width:0.08235294;stroke-miterlimit:4;stroke-dasharray:none" />
    <path
       d="M 124.79,72.27 L 124,71.91 M 124.79,72.27 L 124.79,72.27 L 124.79,72.27"
       id="path131"
       style="stroke-width:0.08235294;stroke-miterlimit:4;stroke-dasharray:none" />
    <path
       d="M 124.74,72.25 C 125.27,72.37 126.13,71.95 126.79,73.18 C 125.42,73.09 125.48,73.19 124.73,72.25"
       id="path133"
       style="stroke-width:0.08235294;stroke-miterlimit:4;stroke-dasharray:none" />
    <path
       d="M 125.4,73.2 L 124.6,72.85 M 125.45,73.24 L 125.45,73.24 L 125.45,73.24"
       id="path135"
       style="stroke-width:0.08235294;stroke-miterlimit:4;stroke-dasharray:none" />
    <path
       d="M 125.32,73.18 C 125.79,73.15 126.58,72.45 127.38,73.98 C 126.46,74.12 125.56,73.31 125.32,73.18"
       id="path137"
       style="stroke-width:0.08235294;stroke-miterlimit:4;stroke-dasharray:none" />
    <path
       d="M 126.64,73.99 L 125.6,73.86 M 126.64,73.99 L 126.64,73.99 L 126.64,73.99"
       id="path139"
       style="stroke-width:0.08235294;stroke-miterlimit:4;stroke-dasharray:none" />
    <path
       d="M 126.24,73.94 C 127,73.74 127.28,73.45 128.45,74.57 C 127.17,74.67 127.27,74.76 126.24,73.94"
       id="path141"
       style="stroke-width:0.08235294;stroke-miterlimit:4;stroke-dasharray:none" />
    <path
       d="M 128.05,72.65 C 127.92,73.32 127.42,74.01 128.59,74.72 C 128.76,73.75 128.77,73.61 128.05,72.65"
       id="path143"
       style="stroke-width:0.08235294;stroke-miterlimit:4;stroke-dasharray:none" />
    <path
       d="M 128.06,72.68 L 127.79,72.02 M 128.06,72.68 L 128.06,72.68 L 128.06,72.68"
       id="path145"
       style="stroke-width:0.08235294;stroke-miterlimit:4;stroke-dasharray:none" />
    <path
       d="M 128.61,73.43 L 128.38,72.82 M 128.61,73.43 L 128.61,73.43 L 128.61,73.43"
       id="path147"
       style="stroke-width:0.08235294;stroke-miterlimit:4;stroke-dasharray:none" />
    <path
       d="M 128.54,73.29 C 128.51,73.85 128.22,74.38 129.24,74.95 C 129.37,74.04 129.26,74.05 128.54,73.29"
       id="path149"
       style="stroke-width:0.08235294;stroke-miterlimit:4;stroke-dasharray:none" />
    <path
       d="M 127.41,74.66 L 126.59,74.52 M 127.41,74.66 L 127.41,74.66 L 127.41,74.66"
       id="path151"
       style="stroke-width:0.08235294;stroke-miterlimit:4;stroke-dasharray:none" />
    <path
       d="M 127.3,74.64 C 127.77,74.64 128.42,74.13 129.19,75.03 C 128.03,75.22 128.1,75.29 127.3,74.63"
       id="path153"
       style="stroke-width:0.08235294;stroke-miterlimit:4;stroke-dasharray:none" />
    <path
       d="M 124.64,69.5 C 125.4,70.3 125.79,70.28 125.49,71.56 C 124.67,71.03 124.67,70.56 124.64,69.5"
       id="path155"
       style="stroke-width:0.08235294;stroke-miterlimit:4;stroke-dasharray:none" />
    <path
       d="M 125.16,70.56 C 125.96,71.33 126.36,71.31 126.11,72.58 C 125.25,72.06 125.23,71.6 125.16,70.56"
       id="path157"
       style="stroke-width:0.08235294;stroke-miterlimit:4;stroke-dasharray:none" />
    <path
       d="M 125.6,71.6 C 126.53,72.22 126.92,72.12 126.91,73.42 C 125.97,73.07 125.87,72.63 125.6,71.61"
       id="path159"
       style="stroke-width:0.08235294;stroke-miterlimit:4;stroke-dasharray:none" />
    <path
       d="M 126.22,72.37 C 127.19,72.91 127.57,72.79 127.64,74.09 C 126.68,73.8 126.55,73.37 126.22,72.37"
       id="path161"
       style="stroke-width:0.08235294;stroke-miterlimit:4;stroke-dasharray:none" />
    <path
       d="M 126.87,73.24 C 127.86,73.56 128.18,73.37 128.49,74.54 C 127.57,74.46 127.36,74.09 126.87,73.24 L 126.87,73.24"
       id="path163"
       style="stroke-width:0.08235294;stroke-miterlimit:4;stroke-dasharray:none" />
    <path
       d="M 127.66,73.99 C 128.68,74.14 128.97,73.9 129.46,75.02 C 128.54,75.09 128.28,74.75 127.66,73.99"
       id="path165"
       style="stroke-width:0.08235294;stroke-miterlimit:4;stroke-dasharray:none" />
    <path
       d="M 135.65,77.86 C 135.58,78.09 135.62,78.3 135.74,78.34 C 135.86,78.38 136,78.23 136.09,78 C 136.16,77.78 136.12,77.57 136,77.53 C 135.88,77.49 135.73,77.64 135.65,77.86"
       id="path167"
       style="stroke-width:0.08235294;stroke-miterlimit:4;stroke-dasharray:none" />
  </g>
</svg>
