<?xml version="1.0" encoding="UTF-8" standalone="no"?>
<svg
   xmlns:dc="http://purl.org/dc/elements/1.1/"
   xmlns:cc="http://creativecommons.org/ns#"
   xmlns:rdf="http://www.w3.org/1999/02/22-rdf-syntax-ns#"
   xmlns:svg="http://www.w3.org/2000/svg"
   xmlns="http://www.w3.org/2000/svg"
   xmlns:sodipodi="http://sodipodi.sourceforge.net/DTD/sodipodi-0.dtd"
   xmlns:inkscape="http://www.inkscape.org/namespaces/inkscape"
   width="750"
   height="500"
   id="svg2"
   sodipodi:version="0.32"
   inkscape:version="0.46"
   sodipodi:docname="Flag_of_Córdoba_(Bolívar).svg"
   inkscape:output_extension="org.inkscape.output.svg.inkscape">
  <metadata
     id="metadata11">
    <rdf:RDF>
      <cc:Work
         rdf:about="">
        <dc:format>image/svg+xml</dc:format>
        <dc:type
           rdf:resource="http://purl.org/dc/dcmitype/StillImage" />
      </cc:Work>
    </rdf:RDF>
  </metadata>
  <defs
     id="defs9" />
  <sodipodi:namedview
     inkscape:window-height="712"
     inkscape:window-width="1024"
     inkscape:pageshadow="2"
     inkscape:pageopacity="0.0"
     guidetolerance="10.0"
     gridtolerance="10.0"
     objecttolerance="10.0"
     borderopacity="1.0"
     bordercolor="#666666"
     pagecolor="#ffffff"
     id="base"
     showgrid="false"
     inkscape:zoom="1.014"
     inkscape:cx="375"
     inkscape:cy="250"
     inkscape:window-x="-4"
     inkscape:window-y="-4"
     inkscape:current-layer="svg2" />
  <rect
     width="750"
     height="500"
     id="rect4"
     x="-750"
     y="0"
     transform="scale(-1,1)"
     style="fill:#078930" />
  <path
     d="M 750,0 L 0,0 L 0,500 L 750,0 z"
     id="path6"
     style="fill:#ffffff" />
  <g
     style="fill-rule:evenodd;stroke:#000000;stroke-opacity:1;stroke-width:0.09690335;stroke-miterlimit:4;stroke-dasharray:none"
     id="g2409"
     transform="matrix(-5.1597804,0,0,5.1597804,880.41813,-655.59307)">
    <g
       transform="translate(0,76.091421)"
       id="elemtos"
       style="stroke:#000000;stroke-opacity:1;stroke-width:0.09690335;stroke-miterlimit:4;stroke-dasharray:none">
  <metadata
   id="CorelCorpID_1Corel-Layer" />

  
  
  
  
  
  
  
 </g>
    <rect
       transform="matrix(0.9955832,-9.388359e-2,9.388356e-2,0.9955832,0,0)"
       style="fill:#2b5df2;fill-opacity:1;stroke:#000000;stroke-width:0.09690335;stroke-miterlimit:4;stroke-dasharray:none;stroke-opacity:1"
       id="rect4341"
       width="0"
       height="2.2284932"
       x="244.62346"
       y="42.128498"
       rx="1.343915"
       ry="1.7918874" />
    <g
       transform="matrix(0.2822222,0,0,0.2822222,-51.714525,130.22604)"
       id="contorno_x0020_externo"
       style="stroke:#000000;stroke-opacity:1;stroke-width:0.34335835;stroke-miterlimit:4;stroke-dasharray:none">
  <metadata
   id="CorelCorpID_4Corel-Layer" />

  
 </g>
    <g
       transform="matrix(0.2822222,0,0,0.2822222,-369.38064,-144.85491)"
       id="layer1-2"
       style="display:inline;stroke:#000000;stroke-opacity:1;stroke-width:0.34335835;stroke-miterlimit:4;stroke-dasharray:none"
       inkscape:label="Ornamentos"
       sodipodi:insensitive="true" />
    <g
       transform="matrix(0.2822222,0,0,0.2822222,-369.38064,-144.85491)"
       id="layer2"
       style="display:inline;stroke:#000000;stroke-opacity:1;stroke-width:0.34335835;stroke-miterlimit:4;stroke-dasharray:none"
       inkscape:label="Timbre" />
    <g
       transform="matrix(0.2822222,0,0,0.2822222,-369.38064,-144.85491)"
       id="layer3"
       style="display:inline;stroke:#000000;stroke-opacity:1;stroke-width:0.34335835;stroke-miterlimit:4;stroke-dasharray:none"
       inkscape:label="Escudo" />
    <g
       transform="matrix(0.2822222,0,0,0.2822222,-369.38064,-144.85491)"
       id="layer4"
       style="display:inline;stroke:#000000;stroke-opacity:1;stroke-width:0.34335835;stroke-miterlimit:4;stroke-dasharray:none"
       inkscape:label="Piezas" />
    <g
       transform="matrix(0.2822222,0,0,0.2822222,-369.38064,-144.85491)"
       id="layer5"
       style="display:inline;stroke:#000000;stroke-opacity:1;stroke-width:0.34335835;stroke-miterlimit:4;stroke-dasharray:none"
       inkscape:label="Muebles">
      <g
         transform="matrix(0.9719204,-3.1040108e-2,3.1040108e-2,0.9719204,2032.8448,50.179351)"
         style="stroke:#000000;stroke-width:0.35309823;stroke-linecap:round;stroke-linejoin:round;stroke-miterlimit:4;stroke-dasharray:none;stroke-opacity:1;display:inline"
         id="g2851">
        <path
           sodipodi:nodetypes="ccccccccccccccccccccccc"
           d="M -436.15725,1071.5105 C -438.88962,1070.5676 -440.56687,1068.5667 -443.75179,1065.919 C -448.37214,1063.6989 -455.18848,1063.2928 -453.6566,1055.9902 C -454.82539,1054.3716 -455.04048,1053.1866 -456.77103,1051.1409 C -456.02615,1049.4669 -457.27761,1048.7804 -456.58947,1047.6153 C -457.16688,1045.0589 -458.65555,1043.566 -459.9073,1041.7966 C -460.3431,1038.4741 -457.18259,1039.2867 -455.55534,1038.8243 L -453.33994,1035.8174 C -449.6411,1033.8882 -448.69511,1035.1718 -447.01576,1035.5995 L -444.7649,1033.3939 L -439.13183,1035.2466 C -439.01272,1029.0798 -431.9167,1025.6091 -422.72271,1032.9498 C -419.3955,1033.6498 -415.81377,1032.9238 -414.50756,1036.0024 C -412.66971,1033.5767 -410.20737,1033.7929 -406.6421,1036.0924 C -402.86435,1037.6407 -402.12957,1039.5447 -401.4939,1041.4603 C -397.29014,1043.1787 -394.3253,1046.1203 -394.62964,1048.6176 C -392.25149,1050.2006 -390.37845,1050.9418 -389.65226,1053.3422 C -387.82277,1056.4211 -389.39989,1056.9737 -390.37228,1057.9746 C -389.72122,1060.9101 -387.70622,1064.469 -391.61276,1065.3211 C -395.10821,1065.1397 -397.1632,1065.7026 -398.41055,1067.1885 L -400.34465,1069.9363 L -415.70077,1077.4224 L -436.15725,1071.5103 L -436.15725,1071.5105 z"
           style="fill:#e3e4e5;fill-rule:nonzero;stroke:#000000;stroke-width:0.35309823;stroke-linecap:round;stroke-linejoin:round;stroke-miterlimit:4;stroke-dasharray:none;stroke-opacity:1"
           id="path2853"
           inkscape:connector-curvature="0" />
        <path
           sodipodi:nodetypes="ccccc"
           d="M -439.0956,1035.3503 C -440.88776,1035.7454 -442.73712,1035.7328 -443.07486,1037.2065 C -444.86376,1036.8175 -445.21213,1038.4445 -445.8722,1040.5819 C -446.66365,1042.2747 -443.48764,1044.8485 -443.63711,1047.6643 C -449.80523,1049.2824 -447.92763,1052.9968 -445.29639,1055.355"
           style="fill:#e3e4e5;fill-rule:nonzero;stroke:#000000;stroke-width:0.35309823;stroke-linecap:round;stroke-linejoin:round;stroke-miterlimit:4;stroke-dasharray:none;stroke-opacity:1"
           id="path2855"
           inkscape:connector-curvature="0" />
        <path
           sodipodi:nodetypes="ccc"
           d="M -423.10714,1032.801 L -421.24301,1035.856 C -415.72758,1036.6943 -411.42267,1038.7153 -410.95316,1043.2289"
           style="fill:#e3e4e5;fill-rule:nonzero;stroke:#000000;stroke-width:0.35309823;stroke-linecap:round;stroke-linejoin:round;stroke-miterlimit:4;stroke-dasharray:none;stroke-opacity:1"
           id="path2857"
           inkscape:connector-curvature="0" />
        <path
           sodipodi:nodetypes="cccc"
           d="M -394.58997,1048.6631 C -394.73153,1050.7065 -394.70658,1052.8734 -396.252,1053.8757 C -396.10104,1055.1571 -396.10303,1056.4648 -396.2099,1058.04 C -397.42176,1060.1316 -399.35448,1060.7055 -400.21948,1061.3575"
           style="fill:#e3e4e5;fill-rule:nonzero;stroke:#000000;stroke-width:0.35309823;stroke-linecap:round;stroke-linejoin:round;stroke-miterlimit:4;stroke-dasharray:none;stroke-opacity:1"
           id="path2859"
           inkscape:connector-curvature="0" />
        <path
           sodipodi:nodetypes="cccccccccccccccc"
           d="M -423.20112,1102.6995 L -422.54515,1080.3836 C -426.04978,1078.7271 -428.85752,1078.2447 -429.45533,1076.0095 C -436.09078,1074.3247 -439.57431,1070.4473 -443.76478,1065.7919 C -436.27619,1070.6663 -434.56453,1070.0935 -431.06813,1070.5756 C -433.37863,1068.1955 -435.09792,1064.8223 -436.64941,1057.1519 C -434.62498,1060.3993 -430.54719,1065.2837 -425.88414,1068.6312 C -424.07041,1062.3989 -422.26301,1060.3584 -418.18587,1055.7527 C -419.02839,1061.2303 -419.72967,1066.4789 -418.96096,1070.076 C -415.59009,1065.9582 -407.98176,1063.0651 -406.17826,1061.8932 C -409.40774,1066.7689 -410.63476,1066.0221 -412.29912,1071.5332 C -410.91662,1071.6052 -403.0951,1071.3445 -399.55015,1068.8927 C -401.50828,1073.6732 -406.28274,1075.9288 -410.68881,1076.8284 C -411.95094,1079.3773 -416.17372,1079.3114 -419.21038,1080.0664 L -419.14064,1105.7078 L -423.20112,1102.6995 z"
           style="fill:#008f4c;fill-rule:nonzero;stroke:#000000;stroke-width:0.35309823;stroke-linecap:round;stroke-linejoin:round;stroke-miterlimit:4;stroke-dasharray:none;stroke-opacity:1"
           id="path2861"
           inkscape:connector-curvature="0" />
      </g>
    </g>
    <g
       transform="matrix(0.2822222,0,0,0.2822222,-369.38064,-144.85491)"
       id="layer6"
       style="display:inline;stroke:#000000;stroke-opacity:1;stroke-width:0.34335835;stroke-miterlimit:4;stroke-dasharray:none"
       inkscape:label="Borde 3px" />
  </g>
  <g
     id="g2772"
     transform="matrix(-0.3006559,-1.1617254,-1.1617254,0.3006559,1020.2453,758.73502)"
     style="stroke:#000000;stroke-width:0.41666669;stroke-miterlimit:4;stroke-dasharray:none;stroke-opacity:1">
    <path
       sodipodi:nodetypes="cc"
       id="path4134"
       d="M 526.16992,383.55977 C 531.2522,382.38149 537.9961,370.8965 543.47689,366.11362"
       style="opacity:0.49795915;fill:none;stroke:#000000;stroke-width:0.41666669;stroke-linecap:butt;stroke-linejoin:miter;stroke-miterlimit:4;stroke-dasharray:none;stroke-opacity:1" />
    <path
       sodipodi:nodetypes="cccc"
       id="path4044"
       d="M 568.43991,342.10197 C 557.87841,359.56505 525.67106,398.36027 480.28798,411.43143 C 466.79855,415.19592 451.42686,406.4121 460.52439,378.49209 C 477.04634,340.01059 527.44874,334.15471 568.43991,342.10197 L 568.43991,342.10197 z"
       style="fill:#8e6a4e;fill-opacity:1;stroke:#000000;stroke-width:0.41666669;stroke-linecap:butt;stroke-linejoin:miter;stroke-miterlimit:4;stroke-dasharray:none;stroke-opacity:1" />
    <path
       sodipodi:nodetypes="cccc"
       id="path4046"
       d="M 548.10272,351.09186 C 524.77761,359.99257 491.02672,370.44605 467.47979,399.08917 L 466.53867,393.44243 C 469.1535,389.96355 515.09402,355.83435 548.10272,351.09186 z"
       style="fill:none;fill-opacity:1;stroke:#000000;stroke-width:0.41666669;stroke-linecap:butt;stroke-linejoin:miter;stroke-miterlimit:4;stroke-dasharray:none;stroke-opacity:1" />
    <path
       sodipodi:nodetypes="cc"
       id="path4056"
       d="M 521.81369,358.4867 C 525.26193,355.63639 526.19598,349.01481 527.35931,342.73712"
       style="opacity:0.49795915;fill:none;stroke:#000000;stroke-width:0.41666669;stroke-linecap:butt;stroke-linejoin:miter;stroke-miterlimit:4;stroke-dasharray:none;stroke-opacity:1" />
    <path
       style="opacity:0.49795915;fill:none;stroke:#000000;stroke-width:0.41666669;stroke-linecap:butt;stroke-linejoin:miter;stroke-miterlimit:4;stroke-dasharray:none;stroke-opacity:1"
       d="M 523.36647,360.48312 C 526.81471,363.33343 536.84358,366.40581 538.00691,372.6835"
       id="path4058"
       sodipodi:nodetypes="cc" />
    <path
       style="opacity:0.49795915;fill:none;stroke:#000000;stroke-width:0.41666669;stroke-linecap:butt;stroke-linejoin:miter;stroke-miterlimit:4;stroke-dasharray:none;stroke-opacity:1"
       d="M 502.95857,368.46883 C 506.40681,365.61852 506.89721,352.78583 509.16966,346.50815"
       id="path4060"
       sodipodi:nodetypes="cc" />
    <path
       sodipodi:nodetypes="cc"
       id="path4062"
       d="M 522.01805,359.15286 C 523.18909,354.83509 529.6061,346.5381 526.93313,340.74001"
       style="opacity:0.49795915;fill:none;stroke:#000000;stroke-width:0.41666669;stroke-linecap:butt;stroke-linejoin:miter;stroke-miterlimit:4;stroke-dasharray:none;stroke-opacity:1" />
    <path
       inkscape:transform-center-y="5.0542067"
       inkscape:transform-center-x="-4.2931483"
       style="opacity:0.6343613;fill:none;stroke:#000000;stroke-width:0.41666669;stroke-linecap:butt;stroke-linejoin:miter;stroke-miterlimit:4;stroke-dasharray:none;stroke-opacity:1"
       d="M 526.50439,380.23901 C 522.45608,378.3349 511.18685,368.13266 505.01224,369.75654"
       id="path4064"
       sodipodi:nodetypes="cc" />
    <path
       sodipodi:nodetypes="cc"
       id="path4066"
       d="M 503.82839,367.58221 C 504.99944,363.26444 512.7474,352.7492 510.07443,346.95111"
       style="opacity:0.49795915;fill:none;stroke:#000000;stroke-width:0.41666669;stroke-linecap:butt;stroke-linejoin:miter;stroke-miterlimit:4;stroke-dasharray:none;stroke-opacity:1" />
    <path
       style="opacity:0.49795915;fill:none;stroke:#000000;stroke-width:0.41666669;stroke-linecap:butt;stroke-linejoin:miter;stroke-miterlimit:4;stroke-dasharray:none;stroke-opacity:1"
       d="M 486.0824,379.11711 C 487.25344,374.79934 494.33593,356.96387 491.66296,351.16578"
       id="path4068"
       sodipodi:nodetypes="cc" />
    <path
       sodipodi:nodetypes="cc"
       id="path4070"
       d="M 486.89827,381.60824 C 491.31861,382.29749 510.49232,383.094 514.69886,387.89688"
       style="opacity:0.49795915;fill:none;stroke:#000000;stroke-width:0.41666669;stroke-linecap:butt;stroke-linejoin:miter;stroke-miterlimit:4;stroke-dasharray:none;stroke-opacity:1" />
    <path
       sodipodi:nodetypes="cc"
       id="path4072"
       d="M 469.66735,390.20836 C 470.83839,385.89059 476.36811,371.16067 473.69514,365.36258"
       style="opacity:0.49795915;fill:none;stroke:#000000;stroke-width:0.41666669;stroke-linecap:butt;stroke-linejoin:miter;stroke-miterlimit:4;stroke-dasharray:none;stroke-opacity:1" />
    <path
       style="opacity:0.49795915;fill:none;stroke:#000000;stroke-width:0.41666669;stroke-linecap:butt;stroke-linejoin:miter;stroke-miterlimit:4;stroke-dasharray:none;stroke-opacity:1"
       d="M 472.88043,392.28422 C 477.01741,393.98714 490.93821,401.31923 497.02557,399.39396"
       id="path4074"
       sodipodi:nodetypes="cc" />
    <path
       style="opacity:0.49795915;fill:none;stroke:#000000;stroke-width:0.41666669;stroke-linecap:butt;stroke-linejoin:miter;stroke-miterlimit:4;stroke-dasharray:none;stroke-opacity:1"
       d="M 537.54579,354.05089 C 538.71684,349.73311 542.9156,347.86905 540.24263,342.07096"
       id="path4076"
       sodipodi:nodetypes="cc" />
    <path
       sodipodi:nodetypes="cc"
       id="path4078"
       d="M 538.9463,354.80922 C 543.25825,356.00155 547.00153,353.33843 550.62866,358.59263"
       style="opacity:0.49795915;fill:none;stroke:#000000;stroke-width:0.41666669;stroke-linecap:butt;stroke-linejoin:miter;stroke-miterlimit:4;stroke-dasharray:none;stroke-opacity:1" />
  </g>
  <g
     style="fill:#e7e7e7;stroke:#000000;stroke-width:0.35527433;stroke-miterlimit:4;stroke-dasharray:none;stroke-opacity:1;display:inline"
     id="g19137-1-1-4"
     transform="matrix(1.3404473,-0.6372592,0.572973,1.2052236,361.05337,659.07857)">
    <g
       style="fill:#e7e7e7;stroke:#000000;stroke-width:0.43061649;stroke-miterlimit:4;stroke-dasharray:none;stroke-opacity:1"
       id="g4175-7-1"
       transform="matrix(8.411853e-2,-1.0443982,0.6638946,-0.1507999,276.02796,-255.8344)">
      <path
         style="fill:#e7e7e7;fill-opacity:1;stroke:#000000;stroke-width:0.43061649;stroke-linecap:butt;stroke-linejoin:miter;stroke-miterlimit:4;stroke-dasharray:none;stroke-opacity:1"
         id="path4177-4-1"
         transform="translate(-22.131983,-675.74982)"
         d="M 107.08771,374.17809 C 107.08771,374.17809 104.80038,380.70453 102.47395,383.52702 C 100.40918,386.03206 98.314934,387.59077 95.431904,389.11209 C 92.733315,390.53608 94.80214,384.06149 95.917563,381.46297 C 97.625781,377.48347 103.80951,371.14273 103.80951,371.14273"
         inkscape:connector-curvature="0" />
    </g>
    <g
       style="fill:#e7e7e7;stroke:#000000;stroke-width:0.35527433;stroke-miterlimit:4;stroke-dasharray:none;stroke-opacity:1"
       id="g4204-9-8">
      <path
         style="fill:#e7e7e7;fill-opacity:1;stroke:#000000;stroke-width:0.35527433;stroke-linecap:round;stroke-linejoin:round;stroke-miterlimit:4;stroke-dasharray:none;stroke-opacity:1"
         id="path4181-4-7"
         d="M 55.239902,-287.85366 C 58.931202,-299.70736 61.735342,-304.92024 69.080612,-305.05486 L 65.096172,-292.46008 C 60.733152,-293.02852 57.392222,-289.84129 55.239902,-287.85366 L 55.239902,-287.85366 z"
         inkscape:connector-curvature="0" />
    </g>
    <g
       style="fill:#e7e7e7;stroke:#000000;stroke-width:0.35527433;stroke-miterlimit:4;stroke-dasharray:none;stroke-opacity:1"
       id="g19117-2-8-2">
      <path
         style="fill:#e7e7e7;fill-opacity:1;stroke:#000000;stroke-width:0.35527433;stroke-linecap:butt;stroke-linejoin:miter;stroke-miterlimit:4;stroke-dasharray:none;stroke-opacity:1"
         id="path15129-9-2-7"
         d="M 81.131553,-223.65856 C 79.293054,-222.78264 73.575755,-226.50129 72.169693,-223.07401 C 70.775773,-230.12982 67.090969,-238.56973 66.852042,-245.86768 L 81.131553,-223.65856 z"
         inkscape:connector-curvature="0" />
      <path
         style="fill:#e7e7e7;fill-opacity:1;stroke:#000000;stroke-width:0.35527433;stroke-linecap:butt;stroke-linejoin:miter;stroke-miterlimit:4;stroke-dasharray:none;stroke-opacity:1;display:inline"
         id="path15129-0-9-4-7"
         d="M 88.417652,-225.88506 C 87.895038,-228.62365 86.811903,-233.16892 89.032495,-236.15562 C 86.021981,-241.0937 81.227096,-250.52214 77.776215,-246.06434 L 88.417652,-225.88506 z"
         inkscape:connector-curvature="0" />
      <g
         style="fill:#e7e7e7;stroke:#000000;stroke-width:0.35527432;stroke-miterlimit:4;stroke-dasharray:none;stroke-opacity:1"
         id="g19113-9-5-9"
         transform="matrix(-3.99306e-2,1.111311,0.8984034,3.99306e-2,288.26603,-312.02462)">
        <path
           style="fill:#e7e7e7;fill-opacity:1;stroke:#000000;stroke-width:0.35527432;stroke-linecap:butt;stroke-linejoin:miter;stroke-miterlimit:4;stroke-dasharray:none;stroke-opacity:1"
           id="path15149-7-5-3"
           transform="translate(-22.131983,-675.74982)"
           d="M 107.80517,452.3993 C 107.80517,452.3993 107.71957,456.76829 108.7426,460.25032 C 109.95454,464.37539 112.89004,466.91497 114.71876,472.67135 C 115.71231,475.79881 114.71276,483.4233 114.71276,483.4233 C 114.71276,483.4233 119.87648,480.32153 121.16333,475.01494 C 121.81749,472.3174 122.21795,467.28109 122.21795,467.28109 C 122.21795,467.28109 127.88206,467.94429 131.35796,466.57801 C 135.13336,465.09401 140.38078,460.13314 140.38078,460.13314 C 140.38078,460.13314 132.06083,461.85669 128.19411,460.60186 C 122.96236,458.90404 119.5442,455.93001 116.35898,454.6257 C 112.73402,453.14133 107.80487,452.3993 107.80487,452.3993 L 107.80517,452.3993 z"
           inkscape:connector-curvature="0" />
      </g>
    </g>
    <g
       style="fill:#e7e7e7;stroke:#000000;stroke-width:0.35527433;stroke-miterlimit:4;stroke-dasharray:none;stroke-opacity:1"
       id="g19132-0-7-9">
      <path
         style="fill:#e7e7e7;fill-opacity:1;stroke:#000000;stroke-width:0.91976363;stroke-linecap:butt;stroke-linejoin:miter;stroke-miterlimit:4;stroke-dasharray:none;stroke-opacity:1"
         id="path15106-6-1-8"
         transform="matrix(-0.3662659,0,0,0.4073603,228.60343,-452.38494)"
         d="M 359.875,310.5 C 356.4273,310.77621 362.42199,324.50524 363.28125,331.78125 C 359.5106,326.45061 356.4277,321.11189 354.5625,315.78125 C 347.83147,323.5172 359.46321,340.70056 361.5625,343.84375 C 370.1715,356.75996 382.93717,367.59335 390.40625,381.25 C 399.81946,398.46137 407.5556,416.91859 410.3125,435.9375 C 413.65269,458.98025 412.47457,483.0566 405.90625,505.53125 C 399.74753,526.60439 383.04119,548.00637 373.84375,564.1875 C 370.66098,569.78699 367.1875,582.09375 367.1875,582.09375 C 392.71078,581.27855 404.42232,566.95639 417.875,550.5625 C 432.20868,533.09501 437.66459,521.42612 445.125,500.78125 C 452.12569,481.40855 458.27298,452.177 458.78125,431.8125 C 459.19087,415.40066 458.33794,397.67742 452.8125,382.03125 C 448.15328,368.83794 440.17081,358.52766 429.78125,348.3125 C 419.82291,338.52131 409.51248,330.7062 397.21875,324.09375 C 383.65944,317.56563 372.32106,311.9319 360.21875,310.5 C 360.08741,310.4803 359.98622,310.491 359.875,310.5 z"
         inkscape:connector-curvature="0" />
    </g>
    <g
       style="fill:#e7e7e7;stroke:#000000;stroke-width:0.35527433;stroke-miterlimit:4;stroke-dasharray:none;stroke-opacity:1"
       id="g19103-8-2-0">
      <g
         style="fill:#e7e7e7;stroke:#000000;stroke-width:0.22078761;stroke-miterlimit:4;stroke-dasharray:none;stroke-opacity:1"
         id="g4855-3-2-5-7-8-3-7-9-1-6-2-2-8-0-6-7-2"
         transform="matrix(1.2539273,-0.9854577,1.0044563,1.2755336,-535.50851,612.36856)">
        <path
           style="fill:#e7e7e7;fill-opacity:1;stroke:#000000;stroke-width:0.1926774;stroke-miterlimit:4;stroke-dasharray:none;stroke-opacity:1"
           id="path4045-9-52-54-4-4-6-8-9-4-2-5-53-1-2-0-6-8"
           transform="matrix(1.1428571,0,0,1.1489362,-398.53239,-883.00507)"
           d="M 932.78865,583.0728 C 932.78865,583.98435 931.74953,584.96782 930.39191,584.96782 C 929.03428,584.96782 928.17953,584.22887 928.17953,583.31732 C 928.17953,582.40577 929.03428,581.91134 930.39191,581.91134 C 931.74953,581.91134 932.78865,582.16125 932.78865,583.0728 L 932.78865,583.0728 z"
           inkscape:connector-curvature="0" />
        <g
           style="fill:#e7e7e7;stroke:#000000;stroke-width:0.692659;stroke-miterlimit:4;stroke-dasharray:none;stroke-opacity:1;display:inline"
           id="g51759-4-0"
           transform="matrix(-0.3103581,-3.913301e-2,-7.150911e-2,0.3183598,1110.15,-395.1163)">
          <path
             style="fill:#e7e7e7;fill-opacity:1;fill-rule:nonzero;stroke:#000000;stroke-width:0.692659;marker:none;stroke-miterlimit:4;stroke-dasharray:none;stroke-opacity:1;visibility:visible;display:inline;overflow:visible;enable-background:accumulate"
             id="path51757-2-2"
             transform="translate(156.53221,47.580051)"
             d="M 1110.8489,680.63422 C 1110.8489,681.54021 1110.5174,682.37978 1109.97,682.83439 C 1109.4226,683.289 1108.7471,683.289 1108.1997,682.83439 C 1107.6523,682.37978 1107.3169,681.54021 1107.3208,680.63422 C 1107.3208,679.72823 1107.6523,678.88866 1108.1997,678.43405 C 1108.7471,677.97944 1109.4226,677.97944 1109.97,678.43405 C 1110.5174,678.88866 1110.8528,679.72823 1110.8489,680.63422 L 1110.8489,680.63422 z"
             inkscape:connector-curvature="0" />
          <path
             style="fill:#e7e7e7;stroke:#000000;stroke-width:0.692659;marker:none;stroke-miterlimit:4;stroke-dasharray:none;stroke-opacity:1;visibility:visible;display:inline;overflow:visible;enable-background:accumulate"
             id="path51730-3-4"
             transform="translate(156.53221,47.580051)"
             d="M 1110.0938,677.5625 C 1108.2453,677.5625 1106.75,679.01473 1106.75,680.8125 C 1106.75,682.61027 1108.2453,684.0625 1110.0938,684.0625 C 1111.9422,684.0625 1113.4375,682.61027 1113.4375,680.8125 C 1113.4375,679.01473 1111.9422,677.5625 1110.0938,677.5625 z M 1109.6515,678.55686 C 1110.3312,678.55686 1109.4062,679.70359 1109.4062,680.66189 C 1109.4062,681.62019 1110.2251,682.4882 1109.6202,682.79818 C 1109.2637,682.98087 1108.6527,682.94984 1108.228,682.42313 C 1107.8428,681.9455 1107.625,681.00363 1107.625,680.5 C 1107.625,680.07045 1107.9291,679.47727 1108.2411,679.12696 C 1108.6931,678.61924 1109.2492,678.44632 1109.6515,678.55686 L 1109.6515,678.55686 L 1109.6515,678.55686 z"
             inkscape:connector-curvature="0" />
        </g>
      </g>
      <g
         style="fill:#e7e7e7;stroke:#000000;stroke-width:0.35527433;stroke-linecap:round;stroke-linejoin:round;stroke-miterlimit:4;stroke-dasharray:none;stroke-opacity:1"
         id="g4423-2-8"
         transform="translate(-37.664596,0)">
        <path
           style="fill:#e7e7e7;stroke:#000000;stroke-width:0.91976363;stroke-linecap:round;stroke-linejoin:round;stroke-miterlimit:4;stroke-dasharray:none;stroke-opacity:1"
           id="path4208-2-6"
           transform="matrix(-0.3662659,0,0,0.4073603,228.60343,-452.38494)"
           d="M 288.8664,372.14575 C 304.535,384.27863 312.25674,378.02522 314.37247,360.60729"
           inkscape:connector-curvature="0" />
        <path
           style="fill:#e7e7e7;stroke:#000000;stroke-width:0.91976363;stroke-linecap:round;stroke-linejoin:round;stroke-miterlimit:4;stroke-dasharray:none;stroke-opacity:1"
           id="path4210-1-5"
           transform="matrix(-0.3662659,0,0,0.4073603,228.60343,-452.38494)"
           d="M 309.31174,515.06073 C 326.56923,471.49219 337.92194,448.29001 322.26721,393.19838"
           inkscape:connector-curvature="0" />
        <path
           style="fill:#e7e7e7;stroke:#000000;stroke-width:0.91976363;stroke-linecap:round;stroke-linejoin:round;stroke-miterlimit:4;stroke-dasharray:none;stroke-opacity:1"
           id="path4212-6-0"
           transform="matrix(-0.3662659,0,0,0.4073603,228.60343,-452.38494)"
           d="M 322.92164,374.58078 C 328.16564,375.42353 330.88057,373.47522 332.08254,369.8572"
           inkscape:connector-curvature="0" />
        <path
           style="fill:#e7e7e7;stroke:#000000;stroke-width:0.35527433;stroke-linecap:round;stroke-linejoin:round;stroke-miterlimit:4;stroke-dasharray:none;stroke-opacity:1"
           id="path4214-8-9"
           d="M 109.41291,-295.85975 C 107.17586,-295.51645 106.0177,-296.31011 105.50495,-297.78395"
           inkscape:connector-curvature="0" />
        <path
           style="fill:#e7e7e7;stroke:#000000;stroke-width:0.35527433;stroke-linecap:round;stroke-linejoin:round;stroke-miterlimit:4;stroke-dasharray:none;stroke-opacity:1;display:inline"
           id="path4212-7-5-0"
           d="M 107.81174,-291.99273 C 105.89104,-291.64943 104.89665,-292.44309 104.45641,-293.91693"
           inkscape:connector-curvature="0" />
        <path
           style="fill:#e7e7e7;stroke:#000000;stroke-width:0.35527433;stroke-linecap:round;stroke-linejoin:round;stroke-miterlimit:4;stroke-dasharray:none;stroke-opacity:1;display:inline"
           id="path4241-7-0"
           d="M 106.29837,-287.82069 C 104.81209,-287.18068 103.66834,-287.93304 102.76338,-289.52222"
           inkscape:connector-curvature="0" />
        <path
           style="fill:#e7e7e7;stroke:#000000;stroke-width:0.35527433;stroke-linecap:round;stroke-linejoin:round;stroke-miterlimit:4;stroke-dasharray:none;stroke-opacity:1;display:inline"
           id="path4241-4-6-6"
           d="M 105.38508,-283.86926 C 103.8988,-283.22925 102.4667,-283.6026 101.40446,-285.07516"
           inkscape:connector-curvature="0" />
        <path
           style="fill:#e7e7e7;stroke:#000000;stroke-width:0.35527433;stroke-linecap:round;stroke-linejoin:round;stroke-miterlimit:4;stroke-dasharray:none;stroke-opacity:1;display:inline"
           id="path4241-4-0-1-1"
           d="M 104.71663,-279.43034 C 102.86025,-278.91387 101.65333,-279.41324 100.9195,-280.28639"
           inkscape:connector-curvature="0" />
        <path
           style="fill:#e7e7e7;stroke:#000000;stroke-width:0.35527433;stroke-linecap:round;stroke-linejoin:round;stroke-miterlimit:4;stroke-dasharray:none;stroke-opacity:1;display:inline"
           id="path4241-4-0-9-8-3"
           d="M 104.60002,-275.4148 C 102.77518,-274.77421 101.54328,-275.19136 100.76324,-276.01346"
           inkscape:connector-curvature="0" />
        <path
           style="fill:#e7e7e7;stroke:#000000;stroke-width:0.35527433;stroke-linecap:round;stroke-linejoin:round;stroke-miterlimit:4;stroke-dasharray:none;stroke-opacity:1;display:inline"
           id="path4241-4-0-9-4-9-8"
           d="M 104.7981,-271.27496 C 102.99498,-269.98052 101.79925,-270.32135 101.0004,-271.18986"
           inkscape:connector-curvature="0" />
        <path
           style="fill:#e7e7e7;stroke:#000000;stroke-width:0.35527433;stroke-linecap:round;stroke-linejoin:round;stroke-miterlimit:4;stroke-dasharray:none;stroke-opacity:1;display:inline"
           id="path4241-4-0-9-4-8-2-9"
           d="M 105.30673,-266.05468 C 104.34244,-264.99348 102.937,-265.276 101.90223,-265.79465"
           inkscape:connector-curvature="0" />
        <path
           style="fill:#e7e7e7;stroke:#000000;stroke-width:0.35527433;stroke-linecap:round;stroke-linejoin:round;stroke-miterlimit:4;stroke-dasharray:none;stroke-opacity:1;display:inline"
           id="path4241-4-0-9-4-8-8-7-3"
           d="M 106.13245,-261.32297 C 105.16816,-260.26177 104.28699,-260.34021 103.25222,-260.85886"
           inkscape:connector-curvature="0" />
        <path
           style="fill:#e7e7e7;stroke:#000000;stroke-width:0.35527433;stroke-linecap:round;stroke-linejoin:round;stroke-miterlimit:4;stroke-dasharray:none;stroke-opacity:1;display:inline"
           id="path4241-4-0-9-4-8-8-2-9-4"
           d="M 107.69054,-256.59569 C 106.83613,-255.44122 105.9678,-255.42989 104.91248,-255.84128"
           inkscape:connector-curvature="0" />
        <path
           style="fill:#e7e7e7;stroke:#000000;stroke-width:0.35527433;stroke-linecap:round;stroke-linejoin:round;stroke-miterlimit:4;stroke-dasharray:none;stroke-opacity:1;display:inline"
           id="path4241-4-0-9-4-8-8-2-4-54-4"
           d="M 108.80757,-251.57879 C 108.6085,-250.74502 107.94987,-250.52961 107.13048,-251.02846"
           inkscape:connector-curvature="0" />
        <path
           style="fill:#e7e7e7;stroke:#000000;stroke-width:0.35527433;stroke-linecap:round;stroke-linejoin:round;stroke-miterlimit:4;stroke-dasharray:none;stroke-opacity:1;display:inline"
           id="path4241-4-0-9-4-8-8-2-4-5-3-6"
           d="M 110.51144,-247.05476 C 110.42974,-246.27586 109.53813,-246.08892 109.09648,-246.50443"
           inkscape:connector-curvature="0" />
        <path
           style="fill:#e7e7e7;stroke:#000000;stroke-width:0.35527433;stroke-linecap:round;stroke-linejoin:round;stroke-miterlimit:4;stroke-dasharray:none;stroke-opacity:1;display:inline"
           id="path4212-5-1-0"
           d="M 111.15655,-304.11982 C 109.3407,-303.95145 109.02786,-305.53228 109.21674,-306.62711"
           inkscape:connector-curvature="0" />
      </g>
    </g>
    <g
       style="fill:#e7e7e7;stroke:#000000;stroke-width:0.41184448;stroke-miterlimit:4;stroke-dasharray:none;stroke-opacity:1"
       id="g19095-8-2-6"
       transform="matrix(0.1873033,-1.0007805,0.7550623,-6.140024e-2,292.05914,-226.8073)">
      <path
         style="fill:#e7e7e7;fill-opacity:1;stroke:#000000;stroke-width:0.41184448;stroke-linecap:butt;stroke-linejoin:miter;stroke-miterlimit:4;stroke-dasharray:none;stroke-opacity:1"
         id="path18204-7-3-6"
         transform="translate(-22.131983,-675.74982)"
         d="M 107.08771,374.17809 C 107.08771,374.17809 104.80038,380.70453 102.47395,383.52702 C 100.40918,386.03206 98.314934,387.59077 95.431904,389.11209 C 92.733315,390.53608 94.80214,384.06149 95.917563,381.46297 C 97.625781,377.48347 103.80951,371.14273 103.80951,371.14273"
         inkscape:connector-curvature="0" />
    </g>
  </g>
</svg>
