<?xml version="1.0" encoding="UTF-8" standalone="no"?>
<svg
   xmlns:dc="http://purl.org/dc/elements/1.1/"
   xmlns:cc="http://creativecommons.org/ns#"
   xmlns:rdf="http://www.w3.org/1999/02/22-rdf-syntax-ns#"
   xmlns:svg="http://www.w3.org/2000/svg"
   xmlns="http://www.w3.org/2000/svg"
   xmlns:sodipodi="http://sodipodi.sourceforge.net/DTD/sodipodi-0.dtd"
   xmlns:inkscape="http://www.inkscape.org/namespaces/inkscape"
   width="750"
   height="500"
   id="svg2"
   sodipodi:version="0.32"
   inkscape:version="0.46"
   sodipodi:docname="Flag_of_Córdoba_(Nariño).svg"
   inkscape:output_extension="org.inkscape.output.svg.inkscape"
   version="1.0">
  <metadata
     id="metadata15">
    <rdf:RDF>
      <cc:Work
         rdf:about="">
        <dc:format>image/svg+xml</dc:format>
        <dc:type
           rdf:resource="http://purl.org/dc/dcmitype/StillImage" />
      </cc:Work>
    </rdf:RDF>
  </metadata>
  <defs
     id="defs13" />
  <sodipodi:namedview
     inkscape:window-height="712"
     inkscape:window-width="1024"
     inkscape:pageshadow="2"
     inkscape:pageopacity="0.0"
     guidetolerance="10.0"
     gridtolerance="10.0"
     objecttolerance="10.0"
     borderopacity="1.0"
     bordercolor="#666666"
     pagecolor="#ffffff"
     id="base"
     showgrid="false"
     inkscape:zoom="1.014"
     inkscape:cx="375"
     inkscape:cy="250"
     inkscape:window-x="-4"
     inkscape:window-y="-4"
     inkscape:current-layer="svg2" />
  <rect
     width="750"
     height="167.35533"
     y="-335.99902"
     id="rect6"
     x="0"
     style="fill:#ffffff"
     transform="scale(1,-1)" />
  <rect
     width="750.98615"
     height="499.1217"
     y="0.35190958"
     id="rect8"
     x="0"
     style="fill:#079630;fill-opacity:1" />
  <rect
     style="fill:#ffffff"
     x="0"
     id="rect2383"
     y="-270.62601"
     height="272.29724"
     width="377.56323"
     transform="scale(1,-1)" />
  <path
     sodipodi:type="star"
     style="opacity:1;fill:#eb7711;fill-opacity:1;stroke:none;stroke-width:0.40000001;stroke-linejoin:round;stroke-miterlimit:4;stroke-dasharray:none;stroke-dashoffset:0;stroke-opacity:1"
     id="path2384"
     sodipodi:sides="5"
     sodipodi:cx="-10.848126"
     sodipodi:cy="166.66667"
     sodipodi:r1="78.307724"
     sodipodi:r2="29.365396"
     sodipodi:arg1="0.93737044"
     sodipodi:arg2="1.565689"
     inkscape:flatsided="false"
     inkscape:rounded="3.469447e-18"
     inkscape:randomized="0"
     d="M 35.50296,229.78304 L -10.698148,196.03169 L -56.55209,230.25321 L -38.729568,175.8836 L -85.445816,142.84894 L -28.229783,142.99803 L -11.24807,88.359969 L 6.2908607,142.82172 L 63.502384,142.0882 L 17.126007,175.59832 L 35.50296,229.78304 z"
     transform="matrix(0.25,0,0,0.25,46.226571,-4.7142787)" />
  <path
     transform="matrix(0.25,0,0,0.25,94.226571,-4.7142787)"
     d="M 35.50296,229.78304 L -10.698148,196.03169 L -56.55209,230.25321 L -38.729568,175.8836 L -85.445816,142.84894 L -28.229783,142.99803 L -11.24807,88.359969 L 6.2908607,142.82172 L 63.502384,142.0882 L 17.126007,175.59832 L 35.50296,229.78304 z"
     inkscape:randomized="0"
     inkscape:rounded="3.469447e-18"
     inkscape:flatsided="false"
     sodipodi:arg2="1.565689"
     sodipodi:arg1="0.93737044"
     sodipodi:r2="29.365396"
     sodipodi:r1="78.307724"
     sodipodi:cy="166.66667"
     sodipodi:cx="-10.848126"
     sodipodi:sides="5"
     id="path3169"
     style="opacity:1;fill:#eb7711;fill-opacity:1;stroke:none;stroke-width:0.40000001;stroke-linejoin:round;stroke-miterlimit:4;stroke-dasharray:none;stroke-dashoffset:0;stroke-opacity:1"
     sodipodi:type="star" />
  <path
     sodipodi:type="star"
     style="opacity:1;fill:#eb7711;fill-opacity:1;stroke:none;stroke-width:0.40000001;stroke-linejoin:round;stroke-miterlimit:4;stroke-dasharray:none;stroke-dashoffset:0;stroke-opacity:1"
     id="path3173"
     sodipodi:sides="5"
     sodipodi:cx="-10.848126"
     sodipodi:cy="166.66667"
     sodipodi:r1="78.307724"
     sodipodi:r2="29.365396"
     sodipodi:arg1="0.93737044"
     sodipodi:arg2="1.565689"
     inkscape:flatsided="false"
     inkscape:rounded="3.469447e-18"
     inkscape:randomized="0"
     d="M 35.50296,229.78304 L -10.698148,196.03169 L -56.55209,230.25321 L -38.729568,175.8836 L -85.445816,142.84894 L -28.229783,142.99803 L -11.24807,88.359969 L 6.2908607,142.82172 L 63.502384,142.0882 L 17.126007,175.59832 L 35.50296,229.78304 z"
     transform="matrix(0.25,0,0,0.25,142.22657,-4.7142787)" />
  <path
     sodipodi:type="star"
     style="opacity:1;fill:#eb7711;fill-opacity:1;stroke:none;stroke-width:0.40000001;stroke-linejoin:round;stroke-miterlimit:4;stroke-dasharray:none;stroke-dashoffset:0;stroke-opacity:1"
     id="path3177"
     sodipodi:sides="5"
     sodipodi:cx="-10.848126"
     sodipodi:cy="166.66667"
     sodipodi:r1="78.307724"
     sodipodi:r2="29.365396"
     sodipodi:arg1="0.93737044"
     sodipodi:arg2="1.565689"
     inkscape:flatsided="false"
     inkscape:rounded="3.469447e-18"
     inkscape:randomized="0"
     d="M 35.50296,229.78304 L -10.698148,196.03169 L -56.55209,230.25321 L -38.729568,175.8836 L -85.445816,142.84894 L -28.229783,142.99803 L -11.24807,88.359969 L 6.2908607,142.82172 L 63.502384,142.0882 L 17.126007,175.59832 L 35.50296,229.78304 z"
     transform="matrix(0.25,0,0,0.25,190.22657,-4.7142787)" />
  <path
     transform="matrix(0.25,0,0,0.25,238.22657,-4.7142787)"
     d="M 35.50296,229.78304 L -10.698148,196.03169 L -56.55209,230.25321 L -38.729568,175.8836 L -85.445816,142.84894 L -28.229783,142.99803 L -11.24807,88.359969 L 6.2908607,142.82172 L 63.502384,142.0882 L 17.126007,175.59832 L 35.50296,229.78304 z"
     inkscape:randomized="0"
     inkscape:rounded="3.469447e-18"
     inkscape:flatsided="false"
     sodipodi:arg2="1.565689"
     sodipodi:arg1="0.93737044"
     sodipodi:r2="29.365396"
     sodipodi:r1="78.307724"
     sodipodi:cy="166.66667"
     sodipodi:cx="-10.848126"
     sodipodi:sides="5"
     id="path3179"
     style="opacity:1;fill:#eb7711;fill-opacity:1;stroke:none;stroke-width:0.40000001;stroke-linejoin:round;stroke-miterlimit:4;stroke-dasharray:none;stroke-dashoffset:0;stroke-opacity:1"
     sodipodi:type="star" />
  <path
     transform="matrix(0.25,0,0,0.25,286.22657,-4.7142787)"
     d="M 35.50296,229.78304 L -10.698148,196.03169 L -56.55209,230.25321 L -38.729568,175.8836 L -85.445816,142.84894 L -28.229783,142.99803 L -11.24807,88.359969 L 6.2908607,142.82172 L 63.502384,142.0882 L 17.126007,175.59832 L 35.50296,229.78304 z"
     inkscape:randomized="0"
     inkscape:rounded="3.469447e-18"
     inkscape:flatsided="false"
     sodipodi:arg2="1.565689"
     sodipodi:arg1="0.93737044"
     sodipodi:r2="29.365396"
     sodipodi:r1="78.307724"
     sodipodi:cy="166.66667"
     sodipodi:cx="-10.848126"
     sodipodi:sides="5"
     id="path3183"
     style="opacity:1;fill:#eb7711;fill-opacity:1;stroke:none;stroke-width:0.40000001;stroke-linejoin:round;stroke-miterlimit:4;stroke-dasharray:none;stroke-dashoffset:0;stroke-opacity:1"
     sodipodi:type="star" />
  <path
     sodipodi:type="star"
     style="opacity:1;fill:#eb7711;fill-opacity:1;stroke:none;stroke-width:0.40000001;stroke-linejoin:round;stroke-miterlimit:4;stroke-dasharray:none;stroke-dashoffset:0;stroke-opacity:1"
     id="path3185"
     sodipodi:sides="5"
     sodipodi:cx="-10.848126"
     sodipodi:cy="166.66667"
     sodipodi:r1="78.307724"
     sodipodi:r2="29.365396"
     sodipodi:arg1="0.93737044"
     sodipodi:arg2="1.565689"
     inkscape:flatsided="false"
     inkscape:rounded="3.469447e-18"
     inkscape:randomized="0"
     d="M 35.50296,229.78304 L -10.698148,196.03169 L -56.55209,230.25321 L -38.729568,175.8836 L -85.445816,142.84894 L -28.229783,142.99803 L -11.24807,88.359969 L 6.2908607,142.82172 L 63.502384,142.0882 L 17.126007,175.59832 L 35.50296,229.78304 z"
     transform="matrix(0.25,0,0,0.25,334.22657,-4.7142787)" />
  <path
     transform="matrix(0.25,0,0,0.25,46.226571,45.285721)"
     d="M 35.50296,229.78304 L -10.698148,196.03169 L -56.55209,230.25321 L -38.729568,175.8836 L -85.445816,142.84894 L -28.229783,142.99803 L -11.24807,88.359969 L 6.2908607,142.82172 L 63.502384,142.0882 L 17.126007,175.59832 L 35.50296,229.78304 z"
     inkscape:randomized="0"
     inkscape:rounded="3.469447e-18"
     inkscape:flatsided="false"
     sodipodi:arg2="1.565689"
     sodipodi:arg1="0.93737044"
     sodipodi:r2="29.365396"
     sodipodi:r1="78.307724"
     sodipodi:cy="166.66667"
     sodipodi:cx="-10.848126"
     sodipodi:sides="5"
     id="path3187"
     style="opacity:1;fill:#eb7711;fill-opacity:1;stroke:none;stroke-width:0.40000001;stroke-linejoin:round;stroke-miterlimit:4;stroke-dasharray:none;stroke-dashoffset:0;stroke-opacity:1"
     sodipodi:type="star" />
  <path
     sodipodi:type="star"
     style="opacity:1;fill:#eb7711;fill-opacity:1;stroke:none;stroke-width:0.40000001;stroke-linejoin:round;stroke-miterlimit:4;stroke-dasharray:none;stroke-dashoffset:0;stroke-opacity:1"
     id="path3189"
     sodipodi:sides="5"
     sodipodi:cx="-10.848126"
     sodipodi:cy="166.66667"
     sodipodi:r1="78.307724"
     sodipodi:r2="29.365396"
     sodipodi:arg1="0.93737044"
     sodipodi:arg2="1.565689"
     inkscape:flatsided="false"
     inkscape:rounded="3.469447e-18"
     inkscape:randomized="0"
     d="M 35.50296,229.78304 L -10.698148,196.03169 L -56.55209,230.25321 L -38.729568,175.8836 L -85.445816,142.84894 L -28.229783,142.99803 L -11.24807,88.359969 L 6.2908607,142.82172 L 63.502384,142.0882 L 17.126007,175.59832 L 35.50296,229.78304 z"
     transform="matrix(0.25,0,0,0.25,94.226571,45.285721)" />
  <path
     transform="matrix(0.25,0,0,0.25,142.22657,45.285721)"
     d="M 35.50296,229.78304 L -10.698148,196.03169 L -56.55209,230.25321 L -38.729568,175.8836 L -85.445816,142.84894 L -28.229783,142.99803 L -11.24807,88.359969 L 6.2908607,142.82172 L 63.502384,142.0882 L 17.126007,175.59832 L 35.50296,229.78304 z"
     inkscape:randomized="0"
     inkscape:rounded="3.469447e-18"
     inkscape:flatsided="false"
     sodipodi:arg2="1.565689"
     sodipodi:arg1="0.93737044"
     sodipodi:r2="29.365396"
     sodipodi:r1="78.307724"
     sodipodi:cy="166.66667"
     sodipodi:cx="-10.848126"
     sodipodi:sides="5"
     id="path3191"
     style="opacity:1;fill:#eb7711;fill-opacity:1;stroke:none;stroke-width:0.40000001;stroke-linejoin:round;stroke-miterlimit:4;stroke-dasharray:none;stroke-dashoffset:0;stroke-opacity:1"
     sodipodi:type="star" />
  <path
     transform="matrix(0.25,0,0,0.25,190.22657,45.285721)"
     d="M 35.50296,229.78304 L -10.698148,196.03169 L -56.55209,230.25321 L -38.729568,175.8836 L -85.445816,142.84894 L -28.229783,142.99803 L -11.24807,88.359969 L 6.2908607,142.82172 L 63.502384,142.0882 L 17.126007,175.59832 L 35.50296,229.78304 z"
     inkscape:randomized="0"
     inkscape:rounded="3.469447e-18"
     inkscape:flatsided="false"
     sodipodi:arg2="1.565689"
     sodipodi:arg1="0.93737044"
     sodipodi:r2="29.365396"
     sodipodi:r1="78.307724"
     sodipodi:cy="166.66667"
     sodipodi:cx="-10.848126"
     sodipodi:sides="5"
     id="path3193"
     style="opacity:1;fill:#eb7711;fill-opacity:1;stroke:none;stroke-width:0.40000001;stroke-linejoin:round;stroke-miterlimit:4;stroke-dasharray:none;stroke-dashoffset:0;stroke-opacity:1"
     sodipodi:type="star" />
  <path
     sodipodi:type="star"
     style="opacity:1;fill:#eb7711;fill-opacity:1;stroke:none;stroke-width:0.40000001;stroke-linejoin:round;stroke-miterlimit:4;stroke-dasharray:none;stroke-dashoffset:0;stroke-opacity:1"
     id="path3195"
     sodipodi:sides="5"
     sodipodi:cx="-10.848126"
     sodipodi:cy="166.66667"
     sodipodi:r1="78.307724"
     sodipodi:r2="29.365396"
     sodipodi:arg1="0.93737044"
     sodipodi:arg2="1.565689"
     inkscape:flatsided="false"
     inkscape:rounded="3.469447e-18"
     inkscape:randomized="0"
     d="M 35.50296,229.78304 L -10.698148,196.03169 L -56.55209,230.25321 L -38.729568,175.8836 L -85.445816,142.84894 L -28.229783,142.99803 L -11.24807,88.359969 L 6.2908607,142.82172 L 63.502384,142.0882 L 17.126007,175.59832 L 35.50296,229.78304 z"
     transform="matrix(0.25,0,0,0.25,238.22657,45.285721)" />
  <path
     sodipodi:type="star"
     style="opacity:1;fill:#eb7711;fill-opacity:1;stroke:none;stroke-width:0.40000001;stroke-linejoin:round;stroke-miterlimit:4;stroke-dasharray:none;stroke-dashoffset:0;stroke-opacity:1"
     id="path3197"
     sodipodi:sides="5"
     sodipodi:cx="-10.848126"
     sodipodi:cy="166.66667"
     sodipodi:r1="78.307724"
     sodipodi:r2="29.365396"
     sodipodi:arg1="0.93737044"
     sodipodi:arg2="1.565689"
     inkscape:flatsided="false"
     inkscape:rounded="3.469447e-18"
     inkscape:randomized="0"
     d="M 35.50296,229.78304 L -10.698148,196.03169 L -56.55209,230.25321 L -38.729568,175.8836 L -85.445816,142.84894 L -28.229783,142.99803 L -11.24807,88.359969 L 6.2908607,142.82172 L 63.502384,142.0882 L 17.126007,175.59832 L 35.50296,229.78304 z"
     transform="matrix(0.25,0,0,0.25,286.22657,45.285721)" />
  <path
     transform="matrix(0.25,0,0,0.25,334.22657,45.285721)"
     d="M 35.50296,229.78304 L -10.698148,196.03169 L -56.55209,230.25321 L -38.729568,175.8836 L -85.445816,142.84894 L -28.229783,142.99803 L -11.24807,88.359969 L 6.2908607,142.82172 L 63.502384,142.0882 L 17.126007,175.59832 L 35.50296,229.78304 z"
     inkscape:randomized="0"
     inkscape:rounded="3.469447e-18"
     inkscape:flatsided="false"
     sodipodi:arg2="1.565689"
     sodipodi:arg1="0.93737044"
     sodipodi:r2="29.365396"
     sodipodi:r1="78.307724"
     sodipodi:cy="166.66667"
     sodipodi:cx="-10.848126"
     sodipodi:sides="5"
     id="path3199"
     style="opacity:1;fill:#eb7711;fill-opacity:1;stroke:none;stroke-width:0.40000001;stroke-linejoin:round;stroke-miterlimit:4;stroke-dasharray:none;stroke-dashoffset:0;stroke-opacity:1"
     sodipodi:type="star" />
  <path
     transform="matrix(0.25,0,0,0.25,94.226571,95.285721)"
     d="M 35.50296,229.78304 L -10.698148,196.03169 L -56.55209,230.25321 L -38.729568,175.8836 L -85.445816,142.84894 L -28.229783,142.99803 L -11.24807,88.359969 L 6.2908607,142.82172 L 63.502384,142.0882 L 17.126007,175.59832 L 35.50296,229.78304 z"
     inkscape:randomized="0"
     inkscape:rounded="3.469447e-18"
     inkscape:flatsided="false"
     sodipodi:arg2="1.565689"
     sodipodi:arg1="0.93737044"
     sodipodi:r2="29.365396"
     sodipodi:r1="78.307724"
     sodipodi:cy="166.66667"
     sodipodi:cx="-10.848126"
     sodipodi:sides="5"
     id="path3217"
     style="opacity:1;fill:#eb7711;fill-opacity:1;stroke:none;stroke-width:0.40000001;stroke-linejoin:round;stroke-miterlimit:4;stroke-dasharray:none;stroke-dashoffset:0;stroke-opacity:1"
     sodipodi:type="star" />
  <path
     sodipodi:type="star"
     style="opacity:1;fill:#eb7711;fill-opacity:1;stroke:none;stroke-width:0.40000001;stroke-linejoin:round;stroke-miterlimit:4;stroke-dasharray:none;stroke-dashoffset:0;stroke-opacity:1"
     id="path3219"
     sodipodi:sides="5"
     sodipodi:cx="-10.848126"
     sodipodi:cy="166.66667"
     sodipodi:r1="78.307724"
     sodipodi:r2="29.365396"
     sodipodi:arg1="0.93737044"
     sodipodi:arg2="1.565689"
     inkscape:flatsided="false"
     inkscape:rounded="3.469447e-18"
     inkscape:randomized="0"
     d="M 35.50296,229.78304 L -10.698148,196.03169 L -56.55209,230.25321 L -38.729568,175.8836 L -85.445816,142.84894 L -28.229783,142.99803 L -11.24807,88.359969 L 6.2908607,142.82172 L 63.502384,142.0882 L 17.126007,175.59832 L 35.50296,229.78304 z"
     transform="matrix(0.25,0,0,0.25,142.22657,95.285721)" />
  <path
     sodipodi:type="star"
     style="opacity:1;fill:#eb7711;fill-opacity:1;stroke:none;stroke-width:0.40000001;stroke-linejoin:round;stroke-miterlimit:4;stroke-dasharray:none;stroke-dashoffset:0;stroke-opacity:1"
     id="path3221"
     sodipodi:sides="5"
     sodipodi:cx="-10.848126"
     sodipodi:cy="166.66667"
     sodipodi:r1="78.307724"
     sodipodi:r2="29.365396"
     sodipodi:arg1="0.93737044"
     sodipodi:arg2="1.565689"
     inkscape:flatsided="false"
     inkscape:rounded="3.469447e-18"
     inkscape:randomized="0"
     d="M 35.50296,229.78304 L -10.698148,196.03169 L -56.55209,230.25321 L -38.729568,175.8836 L -85.445816,142.84894 L -28.229783,142.99803 L -11.24807,88.359969 L 6.2908607,142.82172 L 63.502384,142.0882 L 17.126007,175.59832 L 35.50296,229.78304 z"
     transform="matrix(0.25,0,0,0.25,190.22657,95.285721)" />
  <path
     transform="matrix(0.25,0,0,0.25,238.22657,95.285721)"
     d="M 35.50296,229.78304 L -10.698148,196.03169 L -56.55209,230.25321 L -38.729568,175.8836 L -85.445816,142.84894 L -28.229783,142.99803 L -11.24807,88.359969 L 6.2908607,142.82172 L 63.502384,142.0882 L 17.126007,175.59832 L 35.50296,229.78304 z"
     inkscape:randomized="0"
     inkscape:rounded="3.469447e-18"
     inkscape:flatsided="false"
     sodipodi:arg2="1.565689"
     sodipodi:arg1="0.93737044"
     sodipodi:r2="29.365396"
     sodipodi:r1="78.307724"
     sodipodi:cy="166.66667"
     sodipodi:cx="-10.848126"
     sodipodi:sides="5"
     id="path3223"
     style="opacity:1;fill:#eb7711;fill-opacity:1;stroke:none;stroke-width:0.40000001;stroke-linejoin:round;stroke-miterlimit:4;stroke-dasharray:none;stroke-dashoffset:0;stroke-opacity:1"
     sodipodi:type="star" />
  <path
     transform="matrix(0.25,0,0,0.25,286.22657,95.285721)"
     d="M 35.50296,229.78304 L -10.698148,196.03169 L -56.55209,230.25321 L -38.729568,175.8836 L -85.445816,142.84894 L -28.229783,142.99803 L -11.24807,88.359969 L 6.2908607,142.82172 L 63.502384,142.0882 L 17.126007,175.59832 L 35.50296,229.78304 z"
     inkscape:randomized="0"
     inkscape:rounded="3.469447e-18"
     inkscape:flatsided="false"
     sodipodi:arg2="1.565689"
     sodipodi:arg1="0.93737044"
     sodipodi:r2="29.365396"
     sodipodi:r1="78.307724"
     sodipodi:cy="166.66667"
     sodipodi:cx="-10.848126"
     sodipodi:sides="5"
     id="path3225"
     style="opacity:1;fill:#eb7711;fill-opacity:1;stroke:none;stroke-width:0.40000001;stroke-linejoin:round;stroke-miterlimit:4;stroke-dasharray:none;stroke-dashoffset:0;stroke-opacity:1"
     sodipodi:type="star" />
  <path
     transform="matrix(0.25,0,0,0.25,46.226571,141.28572)"
     d="M 35.50296,229.78304 L -10.698148,196.03169 L -56.55209,230.25321 L -38.729568,175.8836 L -85.445816,142.84894 L -28.229783,142.99803 L -11.24807,88.359969 L 6.2908607,142.82172 L 63.502384,142.0882 L 17.126007,175.59832 L 35.50296,229.78304 z"
     inkscape:randomized="0"
     inkscape:rounded="3.469447e-18"
     inkscape:flatsided="false"
     sodipodi:arg2="1.565689"
     sodipodi:arg1="0.93737044"
     sodipodi:r2="29.365396"
     sodipodi:r1="78.307724"
     sodipodi:cy="166.66667"
     sodipodi:cx="-10.848126"
     sodipodi:sides="5"
     id="path3229"
     style="opacity:1;fill:#eb7711;fill-opacity:1;stroke:none;stroke-width:0.40000001;stroke-linejoin:round;stroke-miterlimit:4;stroke-dasharray:none;stroke-dashoffset:0;stroke-opacity:1"
     sodipodi:type="star" />
  <path
     sodipodi:type="star"
     style="opacity:1;fill:#eb7711;fill-opacity:1;stroke:none;stroke-width:0.40000001;stroke-linejoin:round;stroke-miterlimit:4;stroke-dasharray:none;stroke-dashoffset:0;stroke-opacity:1"
     id="path3231"
     sodipodi:sides="5"
     sodipodi:cx="-10.848126"
     sodipodi:cy="166.66667"
     sodipodi:r1="78.307724"
     sodipodi:r2="29.365396"
     sodipodi:arg1="0.93737044"
     sodipodi:arg2="1.565689"
     inkscape:flatsided="false"
     inkscape:rounded="3.469447e-18"
     inkscape:randomized="0"
     d="M 35.50296,229.78304 L -10.698148,196.03169 L -56.55209,230.25321 L -38.729568,175.8836 L -85.445816,142.84894 L -28.229783,142.99803 L -11.24807,88.359969 L 6.2908607,142.82172 L 63.502384,142.0882 L 17.126007,175.59832 L 35.50296,229.78304 z"
     transform="matrix(0.25,0,0,0.25,94.226571,141.28572)" />
  <path
     transform="matrix(0.25,0,0,0.25,142.22657,141.28572)"
     d="M 35.50296,229.78304 L -10.698148,196.03169 L -56.55209,230.25321 L -38.729568,175.8836 L -85.445816,142.84894 L -28.229783,142.99803 L -11.24807,88.359969 L 6.2908607,142.82172 L 63.502384,142.0882 L 17.126007,175.59832 L 35.50296,229.78304 z"
     inkscape:randomized="0"
     inkscape:rounded="3.469447e-18"
     inkscape:flatsided="false"
     sodipodi:arg2="1.565689"
     sodipodi:arg1="0.93737044"
     sodipodi:r2="29.365396"
     sodipodi:r1="78.307724"
     sodipodi:cy="166.66667"
     sodipodi:cx="-10.848126"
     sodipodi:sides="5"
     id="path3233"
     style="opacity:1;fill:#eb7711;fill-opacity:1;stroke:none;stroke-width:0.40000001;stroke-linejoin:round;stroke-miterlimit:4;stroke-dasharray:none;stroke-dashoffset:0;stroke-opacity:1"
     sodipodi:type="star" />
  <path
     transform="matrix(0.25,0,0,0.25,190.22657,141.28572)"
     d="M 35.50296,229.78304 L -10.698148,196.03169 L -56.55209,230.25321 L -38.729568,175.8836 L -85.445816,142.84894 L -28.229783,142.99803 L -11.24807,88.359969 L 6.2908607,142.82172 L 63.502384,142.0882 L 17.126007,175.59832 L 35.50296,229.78304 z"
     inkscape:randomized="0"
     inkscape:rounded="3.469447e-18"
     inkscape:flatsided="false"
     sodipodi:arg2="1.565689"
     sodipodi:arg1="0.93737044"
     sodipodi:r2="29.365396"
     sodipodi:r1="78.307724"
     sodipodi:cy="166.66667"
     sodipodi:cx="-10.848126"
     sodipodi:sides="5"
     id="path3235"
     style="opacity:1;fill:#eb7711;fill-opacity:1;stroke:none;stroke-width:0.40000001;stroke-linejoin:round;stroke-miterlimit:4;stroke-dasharray:none;stroke-dashoffset:0;stroke-opacity:1"
     sodipodi:type="star" />
  <path
     sodipodi:type="star"
     style="opacity:1;fill:#eb7711;fill-opacity:1;stroke:none;stroke-width:0.40000001;stroke-linejoin:round;stroke-miterlimit:4;stroke-dasharray:none;stroke-dashoffset:0;stroke-opacity:1"
     id="path3237"
     sodipodi:sides="5"
     sodipodi:cx="-10.848126"
     sodipodi:cy="166.66667"
     sodipodi:r1="78.307724"
     sodipodi:r2="29.365396"
     sodipodi:arg1="0.93737044"
     sodipodi:arg2="1.565689"
     inkscape:flatsided="false"
     inkscape:rounded="3.469447e-18"
     inkscape:randomized="0"
     d="M 35.50296,229.78304 L -10.698148,196.03169 L -56.55209,230.25321 L -38.729568,175.8836 L -85.445816,142.84894 L -28.229783,142.99803 L -11.24807,88.359969 L 6.2908607,142.82172 L 63.502384,142.0882 L 17.126007,175.59832 L 35.50296,229.78304 z"
     transform="matrix(0.25,0,0,0.25,238.22657,141.28572)" />
  <path
     sodipodi:type="star"
     style="opacity:1;fill:#eb7711;fill-opacity:1;stroke:none;stroke-width:0.40000001;stroke-linejoin:round;stroke-miterlimit:4;stroke-dasharray:none;stroke-dashoffset:0;stroke-opacity:1"
     id="path3239"
     sodipodi:sides="5"
     sodipodi:cx="-10.848126"
     sodipodi:cy="166.66667"
     sodipodi:r1="78.307724"
     sodipodi:r2="29.365396"
     sodipodi:arg1="0.93737044"
     sodipodi:arg2="1.565689"
     inkscape:flatsided="false"
     inkscape:rounded="3.469447e-18"
     inkscape:randomized="0"
     d="M 35.50296,229.78304 L -10.698148,196.03169 L -56.55209,230.25321 L -38.729568,175.8836 L -85.445816,142.84894 L -28.229783,142.99803 L -11.24807,88.359969 L 6.2908607,142.82172 L 63.502384,142.0882 L 17.126007,175.59832 L 35.50296,229.78304 z"
     transform="matrix(0.25,0,0,0.25,286.22657,141.28572)" />
  <path
     transform="matrix(0.25,0,0,0.25,334.22657,141.28572)"
     d="M 35.50296,229.78304 L -10.698148,196.03169 L -56.55209,230.25321 L -38.729568,175.8836 L -85.445816,142.84894 L -28.229783,142.99803 L -11.24807,88.359969 L 6.2908607,142.82172 L 63.502384,142.0882 L 17.126007,175.59832 L 35.50296,229.78304 z"
     inkscape:randomized="0"
     inkscape:rounded="3.469447e-18"
     inkscape:flatsided="false"
     sodipodi:arg2="1.565689"
     sodipodi:arg1="0.93737044"
     sodipodi:r2="29.365396"
     sodipodi:r1="78.307724"
     sodipodi:cy="166.66667"
     sodipodi:cx="-10.848126"
     sodipodi:sides="5"
     id="path3241"
     style="opacity:1;fill:#eb7711;fill-opacity:1;stroke:none;stroke-width:0.40000001;stroke-linejoin:round;stroke-miterlimit:4;stroke-dasharray:none;stroke-dashoffset:0;stroke-opacity:1"
     sodipodi:type="star" />
  <path
     sodipodi:type="star"
     style="opacity:1;fill:#eb7711;fill-opacity:1;stroke:none;stroke-width:0.40000001;stroke-linejoin:round;stroke-miterlimit:4;stroke-dasharray:none;stroke-dashoffset:0;stroke-opacity:1"
     id="path3243"
     sodipodi:sides="5"
     sodipodi:cx="-10.848126"
     sodipodi:cy="166.66667"
     sodipodi:r1="78.307724"
     sodipodi:r2="29.365396"
     sodipodi:arg1="0.93737044"
     sodipodi:arg2="1.565689"
     inkscape:flatsided="false"
     inkscape:rounded="3.469447e-18"
     inkscape:randomized="0"
     d="M 35.50296,229.78304 L -10.698148,196.03169 L -56.55209,230.25321 L -38.729568,175.8836 L -85.445816,142.84894 L -28.229783,142.99803 L -11.24807,88.359969 L 6.2908607,142.82172 L 63.502384,142.0882 L 17.126007,175.59832 L 35.50296,229.78304 z"
     transform="matrix(0.25,0,0,0.25,46.226571,191.28572)" />
  <path
     transform="matrix(0.25,0,0,0.25,94.226571,191.28572)"
     d="M 35.50296,229.78304 L -10.698148,196.03169 L -56.55209,230.25321 L -38.729568,175.8836 L -85.445816,142.84894 L -28.229783,142.99803 L -11.24807,88.359969 L 6.2908607,142.82172 L 63.502384,142.0882 L 17.126007,175.59832 L 35.50296,229.78304 z"
     inkscape:randomized="0"
     inkscape:rounded="3.469447e-18"
     inkscape:flatsided="false"
     sodipodi:arg2="1.565689"
     sodipodi:arg1="0.93737044"
     sodipodi:r2="29.365396"
     sodipodi:r1="78.307724"
     sodipodi:cy="166.66667"
     sodipodi:cx="-10.848126"
     sodipodi:sides="5"
     id="path3245"
     style="opacity:1;fill:#eb7711;fill-opacity:1;stroke:none;stroke-width:0.40000001;stroke-linejoin:round;stroke-miterlimit:4;stroke-dasharray:none;stroke-dashoffset:0;stroke-opacity:1"
     sodipodi:type="star" />
  <path
     sodipodi:type="star"
     style="opacity:1;fill:#eb7711;fill-opacity:1;stroke:none;stroke-width:0.40000001;stroke-linejoin:round;stroke-miterlimit:4;stroke-dasharray:none;stroke-dashoffset:0;stroke-opacity:1"
     id="path3247"
     sodipodi:sides="5"
     sodipodi:cx="-10.848126"
     sodipodi:cy="166.66667"
     sodipodi:r1="78.307724"
     sodipodi:r2="29.365396"
     sodipodi:arg1="0.93737044"
     sodipodi:arg2="1.565689"
     inkscape:flatsided="false"
     inkscape:rounded="3.469447e-18"
     inkscape:randomized="0"
     d="M 35.50296,229.78304 L -10.698148,196.03169 L -56.55209,230.25321 L -38.729568,175.8836 L -85.445816,142.84894 L -28.229783,142.99803 L -11.24807,88.359969 L 6.2908607,142.82172 L 63.502384,142.0882 L 17.126007,175.59832 L 35.50296,229.78304 z"
     transform="matrix(0.25,0,0,0.25,142.22657,191.28572)" />
  <path
     sodipodi:type="star"
     style="opacity:1;fill:#eb7711;fill-opacity:1;stroke:none;stroke-width:0.40000001;stroke-linejoin:round;stroke-miterlimit:4;stroke-dasharray:none;stroke-dashoffset:0;stroke-opacity:1"
     id="path3249"
     sodipodi:sides="5"
     sodipodi:cx="-10.848126"
     sodipodi:cy="166.66667"
     sodipodi:r1="78.307724"
     sodipodi:r2="29.365396"
     sodipodi:arg1="0.93737044"
     sodipodi:arg2="1.565689"
     inkscape:flatsided="false"
     inkscape:rounded="3.469447e-18"
     inkscape:randomized="0"
     d="M 35.50296,229.78304 L -10.698148,196.03169 L -56.55209,230.25321 L -38.729568,175.8836 L -85.445816,142.84894 L -28.229783,142.99803 L -11.24807,88.359969 L 6.2908607,142.82172 L 63.502384,142.0882 L 17.126007,175.59832 L 35.50296,229.78304 z"
     transform="matrix(0.25,0,0,0.25,190.22657,191.28572)" />
  <path
     transform="matrix(0.25,0,0,0.25,238.22657,191.28572)"
     d="M 35.50296,229.78304 L -10.698148,196.03169 L -56.55209,230.25321 L -38.729568,175.8836 L -85.445816,142.84894 L -28.229783,142.99803 L -11.24807,88.359969 L 6.2908607,142.82172 L 63.502384,142.0882 L 17.126007,175.59832 L 35.50296,229.78304 z"
     inkscape:randomized="0"
     inkscape:rounded="3.469447e-18"
     inkscape:flatsided="false"
     sodipodi:arg2="1.565689"
     sodipodi:arg1="0.93737044"
     sodipodi:r2="29.365396"
     sodipodi:r1="78.307724"
     sodipodi:cy="166.66667"
     sodipodi:cx="-10.848126"
     sodipodi:sides="5"
     id="path3251"
     style="opacity:1;fill:#eb7711;fill-opacity:1;stroke:none;stroke-width:0.40000001;stroke-linejoin:round;stroke-miterlimit:4;stroke-dasharray:none;stroke-dashoffset:0;stroke-opacity:1"
     sodipodi:type="star" />
  <path
     transform="matrix(0.25,0,0,0.25,286.22657,191.28572)"
     d="M 35.50296,229.78304 L -10.698148,196.03169 L -56.55209,230.25321 L -38.729568,175.8836 L -85.445816,142.84894 L -28.229783,142.99803 L -11.24807,88.359969 L 6.2908607,142.82172 L 63.502384,142.0882 L 17.126007,175.59832 L 35.50296,229.78304 z"
     inkscape:randomized="0"
     inkscape:rounded="3.469447e-18"
     inkscape:flatsided="false"
     sodipodi:arg2="1.565689"
     sodipodi:arg1="0.93737044"
     sodipodi:r2="29.365396"
     sodipodi:r1="78.307724"
     sodipodi:cy="166.66667"
     sodipodi:cx="-10.848126"
     sodipodi:sides="5"
     id="path3253"
     style="opacity:1;fill:#eb7711;fill-opacity:1;stroke:none;stroke-width:0.40000001;stroke-linejoin:round;stroke-miterlimit:4;stroke-dasharray:none;stroke-dashoffset:0;stroke-opacity:1"
     sodipodi:type="star" />
  <path
     sodipodi:type="star"
     style="opacity:1;fill:#eb7711;fill-opacity:1;stroke:none;stroke-width:0.40000001;stroke-linejoin:round;stroke-miterlimit:4;stroke-dasharray:none;stroke-dashoffset:0;stroke-opacity:1"
     id="path3255"
     sodipodi:sides="5"
     sodipodi:cx="-10.848126"
     sodipodi:cy="166.66667"
     sodipodi:r1="78.307724"
     sodipodi:r2="29.365396"
     sodipodi:arg1="0.93737044"
     sodipodi:arg2="1.565689"
     inkscape:flatsided="false"
     inkscape:rounded="3.469447e-18"
     inkscape:randomized="0"
     d="M 35.50296,229.78304 L -10.698148,196.03169 L -56.55209,230.25321 L -38.729568,175.8836 L -85.445816,142.84894 L -28.229783,142.99803 L -11.24807,88.359969 L 6.2908607,142.82172 L 63.502384,142.0882 L 17.126007,175.59832 L 35.50296,229.78304 z"
     transform="matrix(0.25,0,0,0.25,334.22657,191.28572)" />
</svg>
