<?xml version="1.0" encoding="UTF-8" standalone="no"?>
<!-- Created with Inkscape (http://www.inkscape.org/) -->
<svg
   xmlns:dc="http://purl.org/dc/elements/1.1/"
   xmlns:cc="http://creativecommons.org/ns#"
   xmlns:rdf="http://www.w3.org/1999/02/22-rdf-syntax-ns#"
   xmlns:svg="http://www.w3.org/2000/svg"
   xmlns="http://www.w3.org/2000/svg"
   xmlns:sodipodi="http://sodipodi.sourceforge.net/DTD/sodipodi-0.dtd"
   xmlns:inkscape="http://www.inkscape.org/namespaces/inkscape"
   width="1000"
   height="500"
   id="svg2"
   version="1.0"
   inkscape:version="0.46"
   sodipodi:docname="Flag_of_Dosquebradas (Risaralda).svg"
   sodipodi:version="0.32"
   inkscape:output_extension="org.inkscape.output.svg.inkscape">
  <defs
     id="defs4" />
  <sodipodi:namedview
     id="base"
     pagecolor="#ffffff"
     bordercolor="#666666"
     borderopacity="1.0"
     inkscape:pageopacity="0.0"
     inkscape:pageshadow="2"
     inkscape:zoom="0.928"
     inkscape:cx="500"
     inkscape:cy="250"
     inkscape:document-units="px"
     inkscape:current-layer="layer1"
     showgrid="false"
     inkscape:window-width="1024"
     inkscape:window-height="712"
     inkscape:window-x="-4"
     inkscape:window-y="-4"
     inkscape:window-maximized="1" />
  <metadata
     id="metadata7">
    <rdf:RDF>
      <cc:Work
         rdf:about="">
        <dc:format>image/svg+xml</dc:format>
        <dc:type
           rdf:resource="http://purl.org/dc/dcmitype/StillImage" />
        <dc:title />
      </cc:Work>
    </rdf:RDF>
  </metadata>
  <g
     inkscape:label="Capa 1"
     inkscape:groupmode="layer"
     id="layer1"
     transform="translate(0,-552.36218)">
    <path
       style="fill:#fcdd09;fill-opacity:1;stroke:none;stroke-width:1px;stroke-linecap:butt;stroke-linejoin:miter;stroke-opacity:1"
       d="M 0.077216525,552.4394 L 999.92278,1054.285 L 999.92278,552.4394 L 0.077216525,552.4394 z"
       id="path2820"
       sodipodi:nodetypes="cccc" />
    <path
       style="fill:#078930;fill-opacity:1;stroke:#fcdd09;stroke-width:1.15691483px;stroke-linecap:butt;stroke-linejoin:miter;stroke-opacity:1"
       d="M 0.078457424,552.44064 L 0.078457424,1054.4389 L 999.92154,1054.4389 L 0.078457424,552.44064 z"
       id="path3594" />
    <g
       id="g2410"
       transform="matrix(0.531441,0,0,0.531441,382.39609,685.93156)"
       style="fill:#000000">
      <path
         d="M 217,53.935863 C 126.94216,53.935863 53.935862,126.94216 53.935862,217 C 53.935862,307.05784 126.94216,380.06413 217,380.06413 C 307.05784,380.06413 380.06414,307.05784 380.06414,217 C 380.06414,126.94216 307.05784,53.935863 217,53.935863 L 217,53.935863 z M 217,116.7625 C 161.64036,116.7625 116.7625,161.64036 116.7625,217 C 116.7625,272.35964 161.64036,317.2375 217,317.2375 C 272.35964,317.2375 317.2375,272.35964 317.2375,217 C 317.2375,161.64036 272.35964,116.7625 217,116.7625 L 217,116.7625 z"
         style="fill:#000000;fill-rule:evenodd"
         id="path2386" />
      <path
         d="M 194.5305,63.280148 L 234.52534,62.638302 L 233.51542,-0.29298412 L 193.52056,0.34886026 L 194.5305,63.280148 z"
         id="path2413"
         sodipodi:nodetypes="ccccc"
         style="fill:#000000;fill-rule:evenodd" />
      <path
         style="fill:#000000;fill-rule:evenodd"
         sodipodi:nodetypes="ccccc"
         id="path2391"
         d="M 62.461044,201.11344 L 71.639994,162.18084 L 10.38015,147.73791 L 1.2012007,186.6705 L 62.461044,201.11344 z" />
      <path
         d="M 84.177014,136.42255 L 109.15397,105.17913 L 59.992934,65.878256 L 35.015971,97.121672 L 84.177014,136.42255 z"
         id="path2393"
         sodipodi:nodetypes="ccccc"
         style="fill:#000000;fill-rule:evenodd" />
      <path
         style="fill:#000000;fill-rule:evenodd"
         sodipodi:nodetypes="ccccc"
         id="path2395"
         d="M 130.56118,87.91475 L 166.38637,70.122733 L 138.3909,13.752345 L 102.56571,31.54436 L 130.56118,87.91475 z" />
      <path
         d="M 106.57777,328.91079 L 81.910053,297.42263 L 33.842905,335.07827 L 58.510614,366.56642 L 106.57777,328.91079 z"
         id="path2410"
         sodipodi:nodetypes="ccccc"
         style="fill:#000000;fill-rule:evenodd" />
      <path
         style="fill:#000000;fill-rule:evenodd"
         sodipodi:nodetypes="ccccc"
         id="path2412"
         d="M 69.379894,271.96622 L 59.13696,233.29993 L -1.7038651,249.41702 L 8.5390724,288.08333 L 69.379894,271.96622 z" />
      <path
         style="fill:#000000;fill-rule:evenodd"
         sodipodi:nodetypes="ccccc"
         id="path2414"
         d="M 168.25221,366.46821 L 132.11036,349.32855 L 105.94641,404.49959 L 142.08824,421.63926 L 168.25221,366.46821 z" />
      <path
         d="M 266.32167,66.739137 L 302.39187,84.029447 L 328.26728,29.627131 L 292.14501,12.446272 L 266.32167,66.739137 z"
         id="path2416"
         sodipodi:nodetypes="ccccc"
         style="fill:#000000;fill-rule:evenodd" />
      <path
         d="M 323.94472,104.31682 L 349.17174,135.3587 L 398.01565,95.664367 L 372.78863,64.6225 L 323.94472,104.31682 z"
         id="path2418"
         sodipodi:nodetypes="ccccc"
         style="fill:#000000;fill-rule:evenodd" />
      <path
         d="M 363.25113,164.60458 L 371.78167,203.68437 L 433.27312,190.26168 L 424.74258,151.1819 L 363.25113,164.60458 z"
         id="path2420"
         sodipodi:nodetypes="ccccc"
         style="fill:#000000;fill-rule:evenodd" />
      <path
         d="M 351.67021,299.70743 L 325.63483,330.07474 L 371.48824,369.14666 L 397.43136,338.70073 L 351.67021,299.70743 z"
         id="path2422"
         sodipodi:nodetypes="ccccc"
         style="fill:#000000;fill-rule:evenodd" />
      <path
         d="M 303.29032,350.11463 L 266.65513,366.17317 L 291.00723,421.27421 L 327.59344,405.1048 L 303.29032,350.11463 z"
         id="path2424"
         sodipodi:nodetypes="ccccc"
         style="fill:#000000;fill-rule:evenodd" />
      <path
         d="M 240.62901,372.43089 L 200.63987,373.36317 L 202.06299,434.40719 L 242.05213,433.47492 L 240.62901,372.43089 z"
         id="path2426"
         sodipodi:nodetypes="ccccc"
         style="fill:#000000;fill-rule:evenodd" />
      <path
         d="M 374.28193,233.53327 L 364.98501,272.43804 L 423.61985,286.2621 L 432.7988,247.3295 L 374.28193,233.53327 z"
         id="path2428"
         sodipodi:nodetypes="ccccc"
         style="fill:#000000;fill-rule:evenodd" />
    </g>
  </g>
</svg>
