<?xml version="1.0" encoding="UTF-8" standalone="no"?>
<svg
   xmlns:dc="http://purl.org/dc/elements/1.1/"
   xmlns:cc="http://creativecommons.org/ns#"
   xmlns:rdf="http://www.w3.org/1999/02/22-rdf-syntax-ns#"
   xmlns:svg="http://www.w3.org/2000/svg"
   xmlns="http://www.w3.org/2000/svg"
   xmlns:xlink="http://www.w3.org/1999/xlink"
   xmlns:sodipodi="http://sodipodi.sourceforge.net/DTD/sodipodi-0.dtd"
   xmlns:inkscape="http://www.inkscape.org/namespaces/inkscape"
   width="750"
   height="500"
   id="svg2"
   sodipodi:version="0.32"
   inkscape:version="0.46"
   sodipodi:docname="Flag_of_El Cocuy_(Boyacá).svg"
   inkscape:output_extension="org.inkscape.output.svg.inkscape">
  <metadata
     id="metadata17">
    <rdf:RDF>
      <cc:Work
         rdf:about="">
        <dc:format>image/svg+xml</dc:format>
        <dc:type
           rdf:resource="http://purl.org/dc/dcmitype/StillImage" />
      </cc:Work>
    </rdf:RDF>
  </metadata>
  <defs
     id="defs15">
    <g
       id="snowflake">
      <g
         id="xfi"
         style="fill:none;stroke:#ffffff;stroke-width:6px;stroke-linejoin:round">
        <path
           id="side"
           d="M 0,-35 L 22,-47.7017 L 0,-35 z M 0,-20 L 8,-24.6188 L 0,-20 z M 0,-61 L 18,-71.3923 L 0,-61 z" />
        <use
           id="use2169"
           transform="scale(-1,1)"
           x="0"
           y="0"
           width="600"
           height="660"
           xlink:href="#side" />
        <path
           id="path2171"
           d="M 0,0 L 0,-80 L 0,0 z" />
      </g>
      <use
         id="use2173"
         transform="matrix(0.5,0.866025,-0.866025,0.5,0,0)"
         x="0"
         y="0"
         width="600"
         height="660"
         xlink:href="#xfi" />
      <use
         id="use2175"
         transform="matrix(-0.5,0.866025,-0.866025,-0.5,0,0)"
         x="0"
         y="0"
         width="600"
         height="660"
         xlink:href="#xfi" />
      <use
         id="use2177"
         transform="scale(-1,-1)"
         x="0"
         y="0"
         width="600"
         height="660"
         xlink:href="#xfi" />
      <use
         id="use2179"
         transform="matrix(-0.5,-0.866025,0.866025,-0.5,0,0)"
         x="0"
         y="0"
         width="600"
         height="660"
         xlink:href="#xfi" />
      <use
         id="use2181"
         transform="matrix(0.5,-0.866025,0.866025,0.5,0,0)"
         x="0"
         y="0"
         width="600"
         height="660"
         xlink:href="#xfi" />
    </g>
  </defs>
  <sodipodi:namedview
     inkscape:window-height="712"
     inkscape:window-width="1024"
     inkscape:pageshadow="2"
     inkscape:pageopacity="0.0"
     guidetolerance="10.0"
     gridtolerance="10.0"
     objecttolerance="10.0"
     borderopacity="1.0"
     bordercolor="#666666"
     pagecolor="#ffffff"
     id="base"
     showgrid="false"
     inkscape:zoom="1.014"
     inkscape:cx="375"
     inkscape:cy="250"
     inkscape:window-x="-4"
     inkscape:window-y="-4"
     inkscape:current-layer="svg2" />
  <rect
     fill="#078930"
     width="750"
     height="500"
     id="rect4"
     style="fill:#ffffff" />
  <g
     transform="matrix(0.8320509,0.5546992,0.5546992,-0.8320509,-23.519842,28.70665)"
     id="g6">
    <rect
       width="910"
       height="76.900002"
       id="rect8"
       x="0"
       y="0"
       style="fill:#fcdd09;fill-opacity:1" />
    <rect
       width="910"
       height="38.450001"
       id="rect10"
       x="0"
       y="0"
       style="fill:#0f47af;fill-opacity:1" />
    <rect
       width="910"
       height="19.225"
       id="rect12"
       x="0"
       y="0"
       style="fill:#da121a" />
  </g>
  <path
     transform="matrix(0.9,0,0,0.9,361.28217,47.173712)"
     style="fill:#da121a;fill-opacity:1;stroke:none;stroke-width:0.55555558000000005;stroke-linejoin:round;stroke-miterlimit:4;stroke-dashoffset:0;stroke-opacity:1"
     d="M 242.64706,223.57536 C 242.64706,349.52573 140.42647,451.74632 14.476103,451.74632 C -111.47427,451.74632 -213.69486,349.52573 -213.69486,223.57536 C -213.69486,97.624994 -111.47427,-4.5955963 14.476103,-4.5955963 C 140.42647,-4.5955963 242.64706,97.624994 242.64706,223.57536 z"
     id="path2392" />
  <path
     transform="matrix(0.72,0,0,0.72,363.88787,87.417278)"
     style="fill:#89c5e3;fill-opacity:1;stroke:#000000;stroke-width:0.69444444;stroke-linejoin:round;stroke-miterlimit:4;stroke-dashoffset:0;stroke-opacity:1;stroke-dasharray:none"
     d="M 242.64706,223.57536 C 242.64706,349.52573 140.42647,451.74632 14.476103,451.74632 C -111.47427,451.74632 -213.69486,349.52573 -213.69486,223.57536 C -213.69486,97.624994 -111.47427,-4.5955963 14.476103,-4.5955963 C 140.42647,-4.5955963 242.64706,97.624994 242.64706,223.57536 z"
     id="path2394" />
  <g
     style="fill-rule:evenodd"
     id="banderas"
     transform="matrix(3.4522714,0,0,3.4522714,148.83622,-318.69808)">
  <metadata
   id="CorelCorpID_0Corel-Layer" />

  
  
  
 </g>
  <g
     id="g10606"
     inkscape:label="Calque 1"
     transform="matrix(0.5903788,0,0,0.5903788,394.42953,189.82976)"
     style="fill:#eac102;fill-rule:evenodd;stroke:#000000;stroke-width:0.33876555;stroke-miterlimit:4;stroke-dasharray:none;stroke-opacity:1">
    <path
       id="path2140"
       d="M -68.02728,-166.23525 C -70.242147,-157.57313 -67.800787,-150.44236 -63.567611,-143.72332 C -60.29421,-138.52766 -58.143451,-132.99072 -58.245778,-127.04172 C -59.734801,-126.20207 -61.154706,-125.29703 -62.525327,-124.32309 L -96.735913,-147.04613 L -73.768666,-113.21296 C -74.181307,-112.64322 -74.583354,-112.05104 -74.970435,-111.46511 C -81.484736,-114.39968 -87.599897,-114.98157 -93.427079,-113.85435 C -101.66463,-112.26088 -108.65825,-113.98611 -115.96111,-118.33862 C -111.40221,-110.64743 -104.60065,-107.3333 -96.85628,-105.57551 C -90.855774,-104.21355 -85.431905,-101.82361 -81.29273,-97.52827 C -81.743114,-95.909731 -82.115069,-94.272673 -82.397899,-92.610839 L -122.66611,-84.445092 L -82.488683,-76.761739 C -82.378252,-76.070509 -82.245187,-75.381299 -82.104043,-74.691229 C -88.787271,-72.162629 -93.538878,-68.259779 -96.863003,-63.341129 C -101.56108,-56.389559 -107.69321,-52.662479 -115.9348,-50.576269 C -107.27268,-48.361379 -100.15386,-50.831599 -93.43482,-55.064779 C -88.239151,-58.338169 -82.702213,-60.488939 -76.753224,-60.386609 C -75.913577,-58.897589 -75.008532,-57.477679 -74.034595,-56.107059 L -96.74568,-21.867629 L -62.895623,-44.875669 C -62.330277,-44.466499 -61.757878,-44.045959 -61.176614,-43.661959 C -64.11117,-37.147649 -64.681125,-31.003659 -63.553911,-25.176469 C -61.960449,-16.938899 -63.697586,-9.9740789 -68.050123,-2.6712589 C -60.358907,-7.2300989 -57.044769,-14.031689 -55.287014,-21.776099 C -53.925046,-27.776619 -51.535098,-33.200489 -47.239767,-37.339659 C -45.617963,-36.887989 -43.987626,-36.517919 -42.322337,-36.234499 L -34.156582,4.0337411 L -26.473235,-36.143709 C -25.781992,-36.254129 -25.092792,-36.387189 -24.402712,-36.528339 C -21.875552,-29.843119 -17.970132,-25.092739 -13.052632,-21.769369 C -6.1010528,-17.071299 -2.3739628,-10.939149 -0.28775282,-2.6975889 C 1.9271372,-11.359679 -0.54308282,-18.478519 -4.7762628,-25.197549 C -8.0560228,-30.403359 -10.182753,-35.923499 -10.069263,-41.891119 C -8.5899828,-42.726509 -7.1808428,-43.629779 -5.8185528,-44.597799 L 28.420868,-21.886699 L 5.4416671,-55.748709 C 5.8454271,-56.307189 6.2473571,-56.881779 6.6265671,-57.455769 C 13.142718,-54.512739 19.281878,-53.950699 25.112038,-55.078479 C 33.349578,-56.672009 40.314408,-54.934739 47.617238,-50.582259 C 43.058348,-58.273459 36.268738,-61.558749 28.524338,-63.316529 C 22.530578,-64.676949 17.112878,-67.112919 12.977698,-71.404569 C 13.426978,-73.020329 13.771688,-74.651159 14.054018,-76.310049 L 54.334178,-84.446955 L 14.144798,-92.159151 C 14.034378,-92.850383 13.901308,-93.539586 13.760158,-94.229672 C 20.449518,-96.75594 25.194528,-100.66046 28.519128,-105.57975 C 33.217198,-112.53132 39.361288,-116.22957 47.602858,-118.31577 C 38.940738,-120.53065 31.809968,-118.08929 25.090948,-113.85613 C 19.885188,-110.57636 14.365028,-108.44962 8.3974071,-108.56312 C 7.5619971,-110.04239 6.6587271,-111.45153 5.6907071,-112.81382 L 28.413758,-147.02441 L -5.4601928,-124.07405 C -6.0186928,-124.47781 -6.5932628,-124.87973 -7.1672528,-125.25893 C -4.2281728,-131.77135 -3.6508128,-137.88841 -4.7780328,-143.71558 C -6.3715228,-151.95314 -4.6462528,-158.94677 -0.29374282,-166.24962 C -7.9849428,-161.69072 -11.270252,-154.90111 -13.028022,-147.15673 C -14.391512,-141.14949 -16.823152,-135.708 -21.132942,-131.56929 C -22.743762,-132.01665 -24.367902,-132.40496 -26.021532,-132.6864 L -34.158461,-172.96656 L -41.870656,-132.77718 C -42.561881,-132.66676 -43.251084,-132.5337 -43.941162,-132.39254 C -46.469316,-139.07754 -50.371869,-143.82685 -55.291254,-147.15151 C -62.242827,-151.84959 -65.941075,-157.99365 -68.02728,-166.23525 z"
       style="opacity:1;fill:#fcdd09;fill-opacity:1;fill-rule:nonzero;stroke:#000000;stroke-width:0.33876555;stroke-linecap:butt;stroke-linejoin:miter;marker:none;marker-start:none;marker-mid:none;marker-end:none;stroke-miterlimit:4;stroke-dasharray:none;stroke-dashoffset:0;stroke-opacity:1;visibility:visible;display:inline;overflow:visible" />
  </g>
  <path
     d="M 376.38518,209.43987 L 373.95577,212.81907"
     style="font-size:40px;font-style:normal;font-weight:normal;line-height:125%;letter-spacing:0px;word-spacing:0px;opacity:0.98000004;fill:none;fill-opacity:1;fill-rule:evenodd;stroke:#000000;stroke-width:0.66931635;stroke-linecap:butt;stroke-linejoin:miter;stroke-miterlimit:4;stroke-dasharray:none;stroke-opacity:1;font-family:Sans;-inkscape-font-specification:Sans"
     id="path4022"
     inkscape:connector-curvature="0" />
  <path
     sodipodi:nodetypes="ccccccccccccccccccccccccccccccccccccccccccccccccccccccccccccccccccccccccccccc"
     style="fill:#c1ac76;fill-opacity:1;fill-rule:evenodd;stroke:#000000;stroke-width:0.5;stroke-linecap:butt;stroke-linejoin:miter;stroke-miterlimit:4;stroke-dasharray:none;stroke-opacity:1"
     d="M 212.06827,273.9578 L 219.10618,268.18313 L 221.61499,260.4286 L 231.87831,254.27061 L 233.24675,256.0952 L 237.58015,255.86713 L 240.54511,257.91978 L 246.93118,274.34111 L 251.03651,277.53415 L 257.1945,276.62185 L 263.35249,269.09542 L 265.8613,262.93741 L 268.82626,262.25321 L 271.79122,264.99009 L 274.07195,273.65688 L 278.63343,275.93763 L 278.8615,270.46384 L 280.91417,262.48128 L 285.70372,257.69172 L 303.72154,222.34029 L 308.73916,220.74377 L 313.98486,221.428 L 317.17789,227.81404 L 317.86212,233.28783 L 320.599,235.11241 L 326.75699,235.11241 L 331.31847,238.53352 L 331.54654,241.49849 L 335.42379,244.23537 L 339.52912,244.23537 L 340.89756,237.84929 L 346.14326,232.14747 L 355.72236,211.16469 L 358.91539,207.97165 L 363.47687,208.42778 L 368.72256,205.46284 L 374.19633,201.3575 L 381.49471,197.25217 L 387.65269,195.19952 L 394.03876,195.42759 L 397.00371,197.9364 L 400.65287,205.46284 L 405.89859,214.12963 L 408.17931,215.72615 L 413.19693,215.95421 L 416.38997,220.05954 L 418.89878,232.37554 L 425.28486,245.83189 L 431.67091,258.60401 L 435.54817,262.48128 L 438.96928,264.76202 L 444.44306,261.79705 L 446.72378,258.37595 L 449.46068,257.23559 L 451.9695,259.7444 L 454.93444,260.65669 L 459.95206,259.97246 L 462.46087,261.34089 L 465.88198,259.06017 L 469.53118,259.06017 L 475.46109,253.81445 L 480.70678,251.53374 L 484.58402,251.7618 L 491.19816,250.62145 L 495.53159,251.53374 L 498.95269,256.0952 L 500.32111,261.79705 L 507.16332,270.23578 L 510.81252,268.86732 L 513.09324,263.1655 L 517.19857,264.53393 L 525.18116,264.0778 L 529.51456,262.25321 L 533.16373,263.1655 L 536.83978,266.81467 C 531.34255,375.67185 424.11438,411.44883 383.49375,412.34595 C 305.69678,418.36144 225.29426,360.198 212.06827,273.9578 z"
     id="path10469" />
  <path
     sodipodi:nodetypes="ccccc"
     style="fill:#483e37;fill-rule:evenodd;stroke:none;stroke-width:0.66931635000000000;stroke-linecap:butt;stroke-linejoin:miter;stroke-miterlimit:4;stroke-dasharray:none;stroke-opacity:1"
     d="M 219.37371,269.39926 L 221.31994,261.31124 L 224.57967,262.09819 L 223.84861,268.49238 L 219.37371,269.39926 z"
     id="path10471" />
  <path
     sodipodi:nodetypes="cccccc"
     style="fill:#ffffff;fill-rule:evenodd;stroke:none;stroke-width:0.66931635000000000;stroke-linecap:butt;stroke-linejoin:miter;stroke-miterlimit:4;stroke-dasharray:none;stroke-opacity:1"
     d="M 261.59504,309.52011 L 257.48971,307.92359 L 259.99853,306.32707 L 267.06881,306.55517 L 267.29689,308.15169 L 261.59504,309.52011 z"
     id="path10473" />
  <path
     style="fill:#ffffff;fill-rule:evenodd;stroke:none;stroke-width:0.66931635000000000;stroke-linecap:butt;stroke-linejoin:miter;stroke-miterlimit:4;stroke-dasharray:none;stroke-opacity:1"
     d="M 234.15904,288.48169 L 229.82565,286.429 L 231.65024,284.83248 L 234.84327,285.74481 L 235.98364,287.11323 L 234.15904,288.48169 z"
     id="path10475" />
  <path
     style="fill:#ffffff;fill-rule:evenodd;stroke:none;stroke-width:0.66931635000000000;stroke-linecap:butt;stroke-linejoin:miter;stroke-miterlimit:4;stroke-dasharray:none;stroke-opacity:1"
     d="M 257.65064,288.93782 L 254.45761,284.60442 L 250.80843,282.55177 L 251.26458,281.18332 L 258.10679,283.0079 L 258.79101,285.06058 L 260.38753,287.3413 L 257.65064,288.93782 z"
     id="path10477" />
  <path
     style="fill:#ffffff;fill-rule:evenodd;stroke:none;stroke-width:0.66931635000000000;stroke-linecap:butt;stroke-linejoin:miter;stroke-miterlimit:4;stroke-dasharray:none;stroke-opacity:1"
     d="M 263.58056,297.14848 L 259.01909,292.58702 L 254.00146,292.58702 L 250.80843,289.16591 L 258.79101,291.21856 L 263.12441,293.49931 L 266.31745,293.49931 L 268.37011,296.23619 L 266.77359,297.8327 L 263.58056,297.14848 z"
     id="path10479" />
  <path
     style="fill:#ffffff;fill-rule:evenodd;stroke:none;stroke-width:0.66931635000000000;stroke-linecap:butt;stroke-linejoin:miter;stroke-miterlimit:4;stroke-dasharray:none;stroke-opacity:1"
     d="M 304.86191,297.37654 L 306.45843,294.86773 L 295.51089,289.39398 L 289.12482,289.39398 L 286.38794,293.72737 L 281.14224,295.78002 L 281.14224,297.8327 L 284.33527,297.60464 L 287.07216,298.06077 L 291.17749,296.92041 L 296.65126,298.745 L 301.66888,299.42922 L 304.86191,297.37654 z"
     id="path10481" />
  <path
     style="fill:#ffffff;fill-rule:evenodd;stroke:none;stroke-width:0.66931635000000000;stroke-linecap:butt;stroke-linejoin:miter;stroke-miterlimit:4;stroke-dasharray:none;stroke-opacity:1"
     d="M 334.05535,277.53415 L 334.05535,280.49909 L 327.44121,277.76221 L 331.31847,276.16569 L 330.1781,269.32348 L 326.30085,266.13045 L 326.98507,260.88476 L 323.79203,257.23559 L 325.38855,254.49868 L 332.91498,254.72678 L 334.5115,256.0952 L 331.54654,257.00749 L 331.54654,258.83208 L 336.33609,261.34089 L 338.8449,264.30586 L 344.31867,268.86732 L 351.16088,270.00771 L 360.51191,274.34111 L 368.03834,276.84992 L 371.9156,277.07798 L 374.19633,275.2534 L 375.79285,277.30605 L 376.249,280.27102 L 378.98588,282.55177 L 384.45965,283.236 L 387.88075,280.27102 L 391.75802,278.90257 L 398.82829,280.72719 L 405.89859,281.18332 L 412.51274,281.18332 L 413.65309,282.32367 L 420.95146,285.51671 L 433.03936,288.48169 L 434.17972,286.6571 L 436.68853,285.28865 L 436.68853,286.88517 L 441.70615,290.30627 L 446.95187,292.13085 L 447.63607,293.49931 L 442.61845,293.95544 L 434.63588,292.35892 L 430.98671,293.49931 L 428.93403,295.32389 L 425.28486,292.58702 L 420.72337,290.9905 L 416.38997,286.6571 L 408.86354,284.60442 L 403.38978,284.60442 L 400.42481,285.97287 L 400.65287,288.48169 L 397.00371,289.62204 L 390.61763,289.85011 L 388.33691,288.48169 L 385.37194,289.85011 L 381.49471,289.85011 L 380.35433,287.79746 L 378.30166,289.16591 L 378.30166,290.9905 L 371.45945,291.44663 L 363.93301,291.44663 L 354.81006,286.20094 L 351.61703,283.46406 L 345.91519,282.55177 L 343.40637,279.81486 L 338.8449,279.81486 L 336.79224,277.99028 L 334.05535,277.53415 z"
     id="path10483" />
  <path
     style="fill:#ffffff;fill-rule:evenodd;stroke:none;stroke-width:0.66931635000000000;stroke-linecap:butt;stroke-linejoin:miter;stroke-miterlimit:4;stroke-dasharray:none;stroke-opacity:1"
     d="M 336.10801,291.44663 L 332.00269,287.11323 L 331.54654,283.92019 L 333.59921,283.236 L 337.47646,285.74481 L 339.7572,287.56939 L 339.7572,289.16591 L 336.10801,291.44663 z"
     id="path10485" />
  <path
     style="fill:#ffffff;fill-rule:evenodd;stroke:none;stroke-width:0.66931635000000000;stroke-linecap:butt;stroke-linejoin:miter;stroke-miterlimit:4;stroke-dasharray:none;stroke-opacity:1"
     d="M 368.26642,258.60401 L 362.3365,256.0952 L 361.19613,249.93722 L 362.10842,246.05995 L 365.98568,246.05995 L 373.51211,247.20034 L 376.93322,249.48106 L 382.407,251.98987 L 382.407,254.49868 L 386.74039,255.63907 L 390.84572,255.63907 L 393.35454,257.46365 L 399.05639,259.97246 L 399.05639,261.56898 L 392.67031,264.53393 L 385.8281,265.21815 L 381.72277,265.21815 L 382.1789,266.35851 L 385.37194,267.95503 L 389.47727,267.95503 L 388.33691,269.32348 L 377.16129,270.69194 L 373.96826,268.18313 L 377.16129,265.44622 L 376.70514,260.20053 L 375.56478,259.97246 L 371.45945,261.11282 L 368.26642,258.60401 z"
     id="path10487" />
  <path
     style="fill:#ffffff;fill-rule:evenodd;stroke:none;stroke-width:0.66931635000000000;stroke-linecap:butt;stroke-linejoin:miter;stroke-miterlimit:4;stroke-dasharray:none;stroke-opacity:1"
     d="M 423.00411,265.90238 L 419.35494,265.90238 L 418.44265,262.93741 L 423.46028,262.93741 L 424.60063,264.76202 L 423.00411,265.90238 z"
     id="path10491" />
  <path
     style="fill:#ffffff;fill-rule:evenodd;stroke:none;stroke-width:0.66931635000000000;stroke-linecap:butt;stroke-linejoin:miter;stroke-miterlimit:4;stroke-dasharray:none;stroke-opacity:1"
     d="M 424.14447,254.95484 L 421.17953,253.58639 L 422.77605,252.21796 L 425.28486,252.6741 L 427.33751,254.04255 L 424.14447,254.95484 z"
     id="path10493" />
  <path
     style="fill:#483e37;fill-rule:evenodd;stroke:none;stroke-width:0.66931635000000000;stroke-linecap:butt;stroke-linejoin:miter;stroke-miterlimit:4;stroke-dasharray:none;stroke-opacity:1"
     d="M 375.3367,201.58557 L 377.38936,205.23477 L 382.1789,202.95402 L 385.8281,198.84869 L 383.54735,195.88372 L 377.84551,199.53292 L 375.3367,201.58557 z"
     id="path10495" />
  <path
     style="fill:#483e37;fill-rule:evenodd;stroke:none;stroke-width:0.66931635000000000;stroke-linecap:butt;stroke-linejoin:miter;stroke-miterlimit:4;stroke-dasharray:none;stroke-opacity:1;fill-opacity:1"
     d="M 339.52912,244.31169 L 343.86252,241.34671 L 347.5117,242.25901 L 344.77482,245.90821 L 345.68711,251.38196 L 347.5117,252.29425 L 353.21355,249.55737 L 355.72236,244.08359 L 363.47687,241.80287 L 368.26642,232.45186 L 368.49449,226.52191 L 375.10863,218.08318 L 371.23137,212.38136 L 367.35412,208.04793 L 360.96806,207.81987 L 356.17851,210.32868 L 348.65207,228.11843 L 341.35371,236.55715 L 339.52912,244.31169 z"
     id="path10499" />
  <path
     style="fill:#ffffff;fill-rule:evenodd;stroke:none;stroke-width:0.66931635000000000;stroke-linecap:butt;stroke-linejoin:miter;stroke-miterlimit:4;stroke-dasharray:none;stroke-opacity:1"
     d="M 498.49653,284.37635 L 494.16313,280.04296 L 485.04018,262.25321 L 485.04018,257.69172 L 487.32092,254.27061 L 489.37357,253.35832 L 492.56661,254.95484 L 493.70697,260.20053 L 495.07542,264.99009 L 498.0404,268.18313 L 499.86498,269.55155 L 501.00534,273.65688 L 501.23341,277.76221 L 500.09305,281.63948 L 498.49653,284.37635 z"
     id="path10501" />
  <path
     style="fill:#483e37;fill-rule:evenodd;stroke:#000000;stroke-width:0.66931635;stroke-linecap:butt;stroke-linejoin:miter;stroke-miterlimit:4;stroke-dasharray:none;stroke-opacity:1"
     d="M 508.75984,270.92 L 511.04059,277.30605 L 514.46169,276.84992 L 517.65473,273.65688 L 514.46169,266.35851 L 512.18094,264.99009 L 511.49675,269.32348 L 508.75984,270.92 z"
     id="path10503" />
  <path
     style="fill:#483e37;fill-rule:evenodd;stroke:none;stroke-width:0.66931635000000000;stroke-linecap:butt;stroke-linejoin:miter;stroke-miterlimit:4;stroke-dasharray:none;stroke-opacity:1"
     d="M 410.91622,276.16569 L 406.58282,271.60423 L 405.44243,260.88476 L 407.03895,257.00749 L 409.3197,260.88476 L 409.54776,266.35851 L 413.42503,273.20075 L 414.10922,274.79724 L 410.91622,276.16569 z"
     id="path10505" />
  <path
     style="fill:#483e37;fill-rule:evenodd;stroke:none;stroke-width:0.66931635000000000;stroke-linecap:butt;stroke-linejoin:miter;stroke-miterlimit:4;stroke-dasharray:none;stroke-opacity:1"
     d="M 399.74058,256.55136 L 398.60022,245.60382 L 398.60022,233.05976 L 400.65287,232.6036 L 400.65287,238.76161 L 402.47749,245.14766 L 405.6705,248.3407 L 402.70556,250.62145 L 402.02133,254.72678 L 402.02133,257.69172 L 399.74058,256.55136 z"
     id="path10507" />
  <path
     style="fill:#ffffff;fill-rule:evenodd;stroke:none;stroke-width:0.66931635000000000;stroke-linecap:butt;stroke-linejoin:miter;stroke-miterlimit:4;stroke-dasharray:none;stroke-opacity:1"
     d="M 460.40822,296.00812 L 458.58361,293.95544 L 464.28546,292.13085 L 468.39079,295.55196 L 468.16272,297.60464 L 464.51355,298.51693 L 460.40822,296.00812 z"
     id="path10509" />
  <path
     sodipodi:nodetypes="cccccccccccccccccccccccccccccccccccccc"
     style="fill:#ffffff;fill-rule:evenodd;stroke:none;stroke-width:0.66931635000000000;stroke-linecap:butt;stroke-linejoin:miter;stroke-miterlimit:4;stroke-dasharray:none;stroke-opacity:1"
     d="M 488.86594,333.19619 L 484.07641,328.86279 L 477.46227,325.44169 L 474.4973,317.00293 L 474.72536,310.61689 L 478.60263,309.70459 L 477.23417,306.73962 L 472.21655,308.7923 L 469.70774,307.19578 L 467.65509,308.10807 L 471.30426,311.75724 L 470.62003,314.95028 L 468.56738,317.91526 L 468.56738,320.8802 L 470.62003,322.93288 L 468.79545,325.21359 L 466.28663,327.03818 L 465.60241,330.45931 L 473.585,333.65232 L 476.77804,336.38923 L 480.42721,335.24884 L 481.79567,332.74003 L 485.21677,335.02077 L 488.40981,334.79271 L 500.72577,336.61729 L 508.70837,335.24884 L 508.25221,330.68738 L 508.02414,327.26627 L 500.95387,321.56442 L 495.93624,321.79249 L 492.74321,318.59945 L 489.3221,317.45909 L 487.72558,315.63451 L 486.58519,319.73984 L 489.77823,324.75746 L 490.46246,329.31892 L 490.69052,332.0558 L 488.86594,333.19619 z"
     id="path10511" />
  <path
     style="fill:#ffffff;fill-rule:evenodd;stroke:none;stroke-width:0.66931635000000000;stroke-linecap:butt;stroke-linejoin:miter;stroke-miterlimit:4;stroke-dasharray:none;stroke-opacity:1"
     d="M 506.70719,295.55196 L 502.1457,288.70975 L 504.42644,287.11323 L 508.53178,290.30627 L 516.05821,291.21856 L 516.05821,294.86773 L 521.07583,297.14848 L 523.35658,298.28884 L 519.70738,299.20116 L 511.95288,298.28884 L 508.98794,298.28884 L 506.70719,295.55196 z"
     id="path10513" />
  <path
     style="fill:#483e37;fill-rule:evenodd;stroke:none;stroke-width:0.66931635000000000;stroke-linecap:butt;stroke-linejoin:miter;stroke-miterlimit:4;stroke-dasharray:none;stroke-opacity:1"
     d="M 276.82736,276.33166 L 279.27828,284.1746 L 280.58543,286.95229 L 284.18011,285.48175 L 289.57213,285.48175 L 290.5525,282.37725 L 291.36947,277.312 L 296.10791,273.88071 L 299.5392,268.48872 L 299.04902,261.13595 L 296.92489,253.61982 L 298.88562,251.98586 L 299.86599,253.9466 L 301.99011,257.54128 L 304.27764,261.13595 L 308.85268,263.75028 L 312.93755,264.89405 L 313.26434,267.83513 L 313.26434,273.71732 L 314.4081,274.37092 L 315.06168,266.03781 L 315.06168,262.4431 L 309.50626,258.52165 L 305.4214,251.49569 L 305.58479,244.46973 L 300.51956,242.3456 L 305.58479,232.54192 L 305.74819,226.33294 L 309.17947,223.882 L 309.17947,221.59447 L 302.97048,221.92129 L 283.85333,259.50202 L 280.74883,263.75028 L 279.27828,270.12265 L 279.11488,274.53431 L 276.82736,276.33166 z"
     id="path10515" />
  <g
     id="g16233"
     inkscape:label="reflet"
     transform="matrix(0.9460964,0,0,0.9460964,234.53958,130.13363)"
     style="font-size:40px;font-style:normal;font-weight:normal;line-height:125%;letter-spacing:0px;word-spacing:0px;opacity:0.98000004;fill:#000000;fill-opacity:1;fill-rule:evenodd;stroke:#000000;stroke-opacity:1;font-family:Sans;-inkscape-font-specification:Sans" />
  <g
     id="layer9"
     inkscape:label="autour"
     transform="matrix(0.9460964,0,0,0.9460964,234.53958,130.13363)"
     style="font-size:40px;font-style:normal;font-weight:normal;line-height:125%;letter-spacing:0px;word-spacing:0px;opacity:0.98000004;fill:#000000;fill-opacity:1;fill-rule:evenodd;stroke:#000000;stroke-opacity:1;font-family:Sans;-inkscape-font-specification:Sans" />
  <g
     id="layer5-2"
     style="font-size:40px;font-style:normal;font-weight:normal;line-height:125%;letter-spacing:0px;word-spacing:0px;opacity:0.95999995;fill:#000000;fill-opacity:1;fill-rule:evenodd;stroke:#000000;stroke-opacity:1;display:inline;font-family:Sans;-inkscape-font-specification:Sans"
     transform="matrix(0.9460964,0,0,0.9460964,1145.667,-121.34555)">
    <use
       style="stroke:#000000;stroke-opacity:1"
       id="use2772"
       transform="translate(-552.549,-87.36)"
       x="0"
       y="0"
       width="600"
       height="660"
       xlink:href="#path2760" />
    <use
       style="stroke:#000000;stroke-opacity:1"
       id="use2776"
       transform="translate(-165.15,-18.1382)"
       x="0"
       y="0"
       width="600"
       height="660"
       xlink:href="#path2760" />
    <use
       style="stroke:#000000;stroke-opacity:1"
       id="use2778"
       transform="translate(-688.564,-291.382)"
       x="0"
       y="0"
       width="600"
       height="660"
       xlink:href="#path2760" />
    <use
       style="stroke:#000000;stroke-opacity:1"
       id="use2780"
       transform="translate(-630.272,-173.584)"
       x="0"
       y="0"
       width="600"
       height="660"
       xlink:href="#path2760" />
  </g>
  <g
     id="layer3-4"
     style="font-size:40px;font-style:normal;font-weight:normal;line-height:125%;letter-spacing:0px;word-spacing:0px;opacity:0.98000004;fill:#000000;fill-opacity:1;fill-rule:evenodd;stroke:#000000;stroke-opacity:1;display:inline;font-family:Sans;-inkscape-font-specification:Sans"
     transform="matrix(0.9460964,0,0,0.9460964,1145.667,-121.34555)" />
  <g
     id="layer4-5"
     style="font-size:40px;font-style:normal;font-weight:normal;line-height:125%;letter-spacing:0px;word-spacing:0px;fill:#000000;fill-opacity:1;fill-rule:evenodd;stroke:#000000;stroke-opacity:1;display:inline;font-family:Sans;-inkscape-font-specification:Sans"
     transform="matrix(0.9460964,0,0,0.9460964,1145.667,-121.34555)" />
  <path
     style="fill:#ffffff;fill-rule:evenodd;stroke:none;stroke-width:1px;stroke-linecap:butt;stroke-linejoin:miter;stroke-opacity:1"
     d="M 359.96055,312.62327 L 336.29191,308.6785 L 323.4714,311.63708 L 338.2643,314.59566 L 343.19527,321.49901 L 355.02959,327.41617 L 363.90533,326.42998 L 378.69822,335.30572 L 392.50493,342.20907 L 395.46351,336.29191 L 383.62919,324.45759 L 375.73964,324.45759 L 359.96055,312.62327 z"
     id="path3346" />
  <path
     style="fill:#483e37;fill-rule:evenodd;stroke:none;stroke-width:1px;stroke-linecap:butt;stroke-linejoin:miter;stroke-opacity:1;fill-opacity:1"
     d="M 283.03748,310.65089 L 275.14793,318.54043 L 274.91616,325.86895 L 271.20316,330.37475 L 277.12032,335.30572 L 278.10651,327.41617 L 284.9594,330.40788 L 289.50024,338.11654 L 290.92702,343.19527 L 301.77515,347.14004 L 301.77515,342.20907 L 291.91321,333.33333 L 289.94083,325.44379 L 285.00986,322.48521 L 281.50845,317.83859 L 283.03748,310.65089 z"
     id="path3348"
     sodipodi:nodetypes="cccccccccccccccc" />
  <path
     style="fill:#ffffff;fill-rule:evenodd;stroke:none;stroke-width:1px;stroke-linecap:butt;stroke-linejoin:miter;stroke-opacity:1"
     d="M 339.25049,379.68442 L 345.16765,388.56016 L 353.0572,393.49112 L 358.97436,392.50493 L 361.93294,397.4359 L 370.80868,398.42209 L 377.71203,402.36686 L 385.60158,402.36686 L 395.46351,399.40828 L 379.68442,396.4497 L 371.79487,389.54635 L 359.96055,382.643 L 351.08481,383.62919 L 342.20907,374.75345 L 336.29191,374.75345 L 339.25049,379.68442 z"
     id="path3350" />
  <path
     style="fill:#483e37;fill-rule:evenodd;stroke:none;stroke-width:1px;stroke-linecap:butt;stroke-linejoin:miter;stroke-opacity:1;fill-opacity:1"
     d="M 422.09073,316.56805 L 423.99776,322.71186 L 429.98028,328.40237 L 432.94488,333.77541 L 433.92505,342.20907 L 438.85602,348.12623 L 441.8146,344.18146 L 436.4747,336.29191 L 435.99498,329.57578 L 433.92505,322.48521 L 428.32058,321.30654 L 422.09073,316.56805 z"
     id="path3352"
     sodipodi:nodetypes="cccccccccccc" />
  <path
     style="fill:#ffffff;fill-rule:evenodd;stroke:none;stroke-width:1px;stroke-linecap:butt;stroke-linejoin:miter;stroke-opacity:1"
     d="M 436.88363,367.8501 L 432.93886,374.75345 L 440.8284,375.73964 L 441.8146,369.82249 L 436.88363,367.8501 z"
     id="path3354" />
</svg>
