<?xml version="1.0" encoding="UTF-8" standalone="no"?>
<!-- Created with Inkscape (http://www.inkscape.org/) -->

<svg
   xmlns:dc="http://purl.org/dc/elements/1.1/"
   xmlns:cc="http://creativecommons.org/ns#"
   xmlns:rdf="http://www.w3.org/1999/02/22-rdf-syntax-ns#"
   xmlns:svg="http://www.w3.org/2000/svg"
   xmlns="http://www.w3.org/2000/svg"
   xmlns:sodipodi="http://sodipodi.sourceforge.net/DTD/sodipodi-0.dtd"
   xmlns:inkscape="http://www.inkscape.org/namespaces/inkscape"
   id="svg2985"
   version="1.1"
   inkscape:version="0.48.3.1 r9886"
   width="750"
   height="500"
   sodipodi:docname="BANDERA.jpg">
  <metadata
     id="metadata2991">
    <rdf:RDF>
      <cc:Work
         rdf:about="">
        <dc:format>image/svg+xml</dc:format>
        <dc:type
           rdf:resource="http://purl.org/dc/dcmitype/StillImage" />
        <dc:title></dc:title>
      </cc:Work>
    </rdf:RDF>
  </metadata>
  <defs
     id="defs2989">
    <inkscape:perspective
       sodipodi:type="inkscape:persp3d"
       inkscape:vp_x="20.491794 : 8.8544146 : 0"
       inkscape:vp_y="-5.9681149e-015 : -131.73027 : 0"
       inkscape:vp_z="-25.015859 : 0 : 0"
       inkscape:persp3d-origin="231.48454 : 109.83623 : 1"
       id="perspective2995" />
  </defs>
  <sodipodi:namedview
     pagecolor="#ffffff"
     bordercolor="#666666"
     borderopacity="1"
     objecttolerance="10"
     gridtolerance="10"
     guidetolerance="10"
     inkscape:pageopacity="0"
     inkscape:pageshadow="2"
     inkscape:window-width="1280"
     inkscape:window-height="961"
     id="namedview2987"
     showgrid="false"
     inkscape:zoom="0.49837466"
     inkscape:cx="194.97421"
     inkscape:cy="223.17775"
     inkscape:window-x="-8"
     inkscape:window-y="-8"
     inkscape:window-maximized="1"
     inkscape:current-layer="svg2985" />
  <rect
     style="fill:#0f47af;fill-opacity:1;fill-rule:nonzero;stroke:none"
     id="rect13219"
     width="750"
     height="250"
     x="0"
     y="0" />
  <rect
     style="fill:#81b31c;fill-opacity:1;fill-rule:nonzero;stroke:none"
     id="rect13221"
     width="750"
     height="250"
     x="0"
     y="250" />
  <g
     id="g13223"
     transform="matrix(1.7437489,0,0,1.4485556,-278.00136,-575.09725)"
     style="fill:#ffffff;stroke:#000000;stroke-width:0.15730064;stroke-miterlimit:4;stroke-dasharray:none">
    <g
       transform="matrix(0.97530864,0,0,0.98072126,126.16086,420.71298)"
       style="fill:#ffffff;stroke:#000000;stroke-width:0.16083723;stroke-miterlimit:4;stroke-dasharray:none"
       id="g3893">
      <path
         sodipodi:type="star"
         style="fill:#ffffff;fill-opacity:1;fill-rule:nonzero;stroke:#000000;stroke-width:0.21932656;stroke-miterlimit:4;stroke-dasharray:none"
         id="path3055"
         sodipodi:sides="3"
         sodipodi:cx="-49.997597"
         sodipodi:cy="0.17265338"
         sodipodi:r1="43.094803"
         sodipodi:r2="21.547401"
         sodipodi:arg1="0.52359878"
         sodipodi:arg2="1.5707963"
         inkscape:flatsided="true"
         inkscape:rounded="0"
         inkscape:randomized="0"
         d="m -12.676403,21.720055 -74.642388,0 37.321194,-64.642204 z"
         inkscape:transform-center-y="-21.622775"
         transform="matrix(0.26794427,0,0,2.0069955,264.48302,189.17048)" />
      <path
         sodipodi:type="arc"
         style="fill:#ffffff;fill-opacity:1;fill-rule:nonzero;stroke:#000000;stroke-width:0.16208687;stroke-miterlimit:4;stroke-dasharray:none"
         id="path3825"
         sodipodi:cx="252.09314"
         sodipodi:cy="105.69389"
         sodipodi:rx="3.1577427"
         sodipodi:ry="2.8945975"
         d="m 255.25088,105.69389 c 0,1.59865 -1.41377,2.8946 -3.15774,2.8946 -1.74397,0 -3.15774,-1.29595 -3.15774,-2.8946 0,-1.59864 1.41377,-2.89459 3.15774,-2.89459 1.74397,0 3.15774,1.29595 3.15774,2.89459 z"
         transform="matrix(0.95004573,0,0,1.0364135,11.382805,-3.9540888)" />
      <path
         style="fill:#ffffff;stroke:#000000;stroke-width:0.16083723;stroke-linecap:butt;stroke-linejoin:miter;stroke-miterlimit:4;stroke-opacity:1;stroke-dasharray:none"
         d="m 238.93588,221.21465 c 12.63449,-0.27823 18.68654,4.47671 22.63049,8.42065 43.19402,-16.19777 -46.95298,-30.98315 -22.63049,-8.42065 z"
         id="path3831"
         inkscape:connector-curvature="0"
         sodipodi:nodetypes="cc" />
      <path
         style="fill:#ffffff;stroke:#000000;stroke-width:0.16083723;stroke-linecap:butt;stroke-linejoin:miter;stroke-miterlimit:4;stroke-opacity:1;stroke-dasharray:none"
         d="m 242.2859,200.72169 c 9.71881,-0.24152 14.37422,3.88614 17.40802,7.3098 33.22608,-14.06095 -36.11758,-26.89584 -17.40802,-7.3098 z"
         id="path3831-1"
         inkscape:connector-curvature="0"
         sodipodi:nodetypes="cc" />
      <path
         style="fill:#ffffff;stroke:#000000;stroke-width:0.16083723;stroke-linecap:butt;stroke-linejoin:miter;stroke-miterlimit:4;stroke-opacity:1;stroke-dasharray:none"
         d="m 242.52435,181.5294 c 8.86126,-0.19748 13.1059,3.17745 15.872,5.97676 30.29434,-11.49677 -32.93069,-21.99106 -15.872,-5.97676 z"
         id="path3831-7"
         inkscape:connector-curvature="0"
         sodipodi:nodetypes="cc" />
      <path
         style="fill:#ffffff;stroke:#000000;stroke-width:0.16083723;stroke-linecap:butt;stroke-linejoin:miter;stroke-miterlimit:4;stroke-opacity:1;stroke-dasharray:none"
         d="m 244.58012,165.27268 c 7.14615,-0.16078 10.56924,2.58688 12.79996,4.8659 24.43084,-9.35994 -26.55693,-17.90374 -12.79996,-4.8659 z"
         id="path3831-4"
         inkscape:connector-curvature="0"
         sodipodi:nodetypes="cc" />
      <path
         style="fill:#ffffff;stroke:#000000;stroke-width:0.16083723;stroke-linecap:butt;stroke-linejoin:miter;stroke-miterlimit:4;stroke-opacity:1;stroke-dasharray:none"
         d="m 245.75602,152.09174 c 5.94558,-0.10939 8.79359,1.76009 10.64954,3.31071 20.32639,-6.3684 -22.0953,-12.1815 -10.64954,-3.31071 z"
         id="path3831-0"
         inkscape:connector-curvature="0"
         sodipodi:nodetypes="cc" />
      <path
         style="fill:#ffffff;stroke:#000000;stroke-width:0.16083723;stroke-linecap:butt;stroke-linejoin:miter;stroke-miterlimit:4;stroke-opacity:1;stroke-dasharray:none"
         d="m 246.40563,139.90511 c 4.74501,-0.0947 7.01792,1.52386 8.49911,2.86637 16.22195,-5.51367 -17.63366,-10.54657 -8.49911,-2.86637 z"
         id="path3831-9"
         inkscape:connector-curvature="0"
         sodipodi:nodetypes="cc" />
      <path
         style="fill:#ffffff;stroke:#000000;stroke-width:0.16083723;stroke-linecap:butt;stroke-linejoin:miter;stroke-miterlimit:4;stroke-opacity:1;stroke-dasharray:none"
         d="m 247.00425,128.99324 c 3.39255,-0.0727 5.01761,1.16951 6.07662,2.19985 11.59824,-4.23158 -12.60757,-8.09418 -6.07662,-2.19985 z"
         id="path3831-48"
         inkscape:connector-curvature="0"
         sodipodi:nodetypes="cc" />
      <path
         style="fill:#ffffff;stroke:#000000;stroke-width:0.16083723;stroke-linecap:butt;stroke-linejoin:miter;stroke-miterlimit:4;stroke-opacity:1;stroke-dasharray:none"
         d="m 247.87754,120.71281 c 2.85839,-0.0507 4.22759,0.81517 5.11986,1.53334 9.77211,-2.94949 -10.62252,-5.64179 -5.11986,-1.53334 z"
         id="path3831-8"
         inkscape:connector-curvature="0"
         sodipodi:nodetypes="cc" />
      <g
         id="g3013"
         style="fill:#ffffff;fill-opacity:1;fill-rule:nonzero;stroke:#000000;stroke-width:0.15416467;stroke-miterlimit:4;stroke-dasharray:none"
         transform="matrix(1.0125,0,0,1.075,-3.1651218,-15.526429)">
        <path
           d="m 215.28349,268.36945 -4.17633,1.80457 0,-38.19542 4.17633,-1.80458 z"
           style="fill:#ffffff;fill-rule:evenodd;stroke:#000000;stroke-width:0.15416467;stroke-miterlimit:4;stroke-dasharray:none"
           id="path3043"
           inkscape:connector-curvature="0" />
        <path
           d="m 291.10716,268.36945 0,-38.19543 -75.82367,0 0,38.19543 z"
           style="fill:#ffffff;fill-rule:evenodd;stroke:#000000;stroke-width:0.15416467;stroke-miterlimit:4;stroke-dasharray:none"
           id="path3045"
           inkscape:connector-curvature="0" />
        <path
           d="m 291.10716,268.36945 -4.17634,1.80457 -75.82366,0 4.17633,-1.80457 z"
           style="fill:#ffffff;fill-rule:evenodd;stroke:#000000;stroke-width:0.15416467;stroke-miterlimit:4;stroke-dasharray:none"
           id="path3047"
           inkscape:connector-curvature="0" />
        <path
           d="m 291.10716,230.17402 -4.17634,1.80458 -75.82366,0 4.17633,-1.80458 z"
           style="fill:#ffffff;fill-rule:evenodd;stroke:#000000;stroke-width:0.15416467;stroke-miterlimit:4;stroke-dasharray:none"
           id="path3049"
           inkscape:connector-curvature="0" />
        <path
           d="m 286.93082,270.17402 0,-38.19542 -75.82366,0 0,38.19542 z"
           style="fill:#ffffff;fill-rule:evenodd;stroke:#000000;stroke-width:0.15416467;stroke-miterlimit:4;stroke-dasharray:none"
           id="path3051"
           inkscape:connector-curvature="0" />
        <path
           d="m 291.10716,268.36945 -4.17634,1.80457 0,-38.19542 4.17634,-1.80458 z"
           style="fill:#ffffff;fill-rule:evenodd;stroke:#000000;stroke-width:0.15416467;stroke-miterlimit:4;stroke-dasharray:none"
           id="path3053"
           inkscape:connector-curvature="0" />
      </g>
    </g>
    <g
       transform="matrix(-0.22953526,0,0,0.23426067,439.61485,388.69975)"
       style="fill:#ffffff;stroke:#000000;stroke-width:0.67835349;stroke-miterlimit:4;stroke-dasharray:none"
       id="g4066">
      <g
         style="fill:#ffffff;stroke:#000000;stroke-width:0.67835349;stroke-miterlimit:4;stroke-opacity:1;stroke-dasharray:none"
         transform="matrix(0.9489423,-0.3154498,0.3154498,0.9489423,-794.85222,-128.80407)"
         id="g3312">
        <path
           inkscape:connector-curvature="0"
           sodipodi:nodetypes="cccccccccc"
           id="path3314"
           d="m 807.62174,1003.8594 -12.13304,7.4431 c -7.48936,9.5259 7.35651,13.0053 12.75621,11.4444 -4.05079,-3.0818 -8.53061,-2.2455 -8.1567,-6.4306 2.41383,-5.817 6.79313,-3.885 10.20451,-7.0344 -0.78848,3.4979 1.92612,6.8259 8.31793,10.9289 -3.63333,-5.4338 -5.15237,-12.4409 -3.36634,-14.8322 l 0.56521,-5.0681 -5.94408,-3.28702 c -0.23675,2.65232 -0.0514,4.35512 -2.2437,6.83592 z"
           style="fill:#ffffff;fill-opacity:1;fill-rule:evenodd;stroke:#000000;stroke-width:0.67835349;stroke-linecap:butt;stroke-linejoin:miter;stroke-miterlimit:4;stroke-opacity:1;stroke-dasharray:none" />
        <path
           inkscape:connector-curvature="0"
           style="fill:#ffffff;fill-opacity:1;fill-rule:evenodd;stroke:#000000;stroke-width:0.67835349;stroke-linecap:butt;stroke-linejoin:miter;stroke-miterlimit:4;stroke-opacity:1;stroke-dasharray:none"
           d="m 799.86077,907.14153 c 1.74364,-0.45674 14.19375,14.85319 18.3723,28.10371 2.38135,7.55144 7.22666,13.96251 5.79284,15.39633 -0.30262,5.95309 -4.40117,8.87572 -5.7713,17.85926 -1.08463,7.11159 -0.61546,25.55117 -2.30992,32.56167 l -6.06092,-4.04057 c 0.43595,-9.58753 0.34002,-28.04573 2.02031,-43.85498 -13.65548,-14.98393 -33.27954,-22.27982 -36.37113,-36.75867"
           id="path3316"
           sodipodi:nodetypes="cscscccc" />
      </g>
      <path
         inkscape:connector-curvature="0"
         style="fill:#ffffff;fill-opacity:1;fill-rule:evenodd;stroke:#000000;stroke-width:0.67835349;stroke-linecap:butt;stroke-linejoin:miter;stroke-miterlimit:4;stroke-opacity:1;stroke-dasharray:none"
         d="m 204.57359,438.83546 c -2.59163,-20.69432 -11.12658,-38.05727 -5.37908,-59.85174 l -2.31427,-19.22164 c -8.94141,-43.66764 30.30106,-61.71152 56.07254,-91.53152 23.89456,-29.31405 17.70356,5.90115 5.5645,18.8407 22.85232,-29.83921 19.72057,2.38173 6.39843,17.55569 21.51773,-27.20844 18.40867,7.70029 6.81004,20.56085 18.48438,-23.72062 18.03804,7.86877 4.6843,18.6565 20.61277,-11.11345 4.05057,19.35883 -2.26381,24.50013 19.78131,-14.94314 9.83548,13.33356 -5.90497,20.74057 20.05714,-12.13927 7.44308,22.36077 -14.64635,24.83893 l -20.51034,9.35167 -18.18625,25.25551"
         id="path3190"
         sodipodi:nodetypes="ccccccccccccc" />
      <path
         inkscape:connector-curvature="0"
         sodipodi:nodetypes="ccssccccccsccsscssscc"
         id="path13446"
         d="m 290.5657,456.89086 c 2.05714,2.856 4.32181,5.37102 17.68221,29.75633 4.93237,3.84832 4.96121,26.00522 40.8101,27.45818 12.94629,0.52472 65.83138,5.28025 78.33221,9.80571 15.07772,5.45831 22.23591,13.80729 -4.2777,13.01004 24.6062,3.25633 18.5273,16.98363 -4.84506,12.63597 22.61311,6.44156 23.21661,18.83178 -5.88453,11.67423 19.45654,8.6001 21.94382,17.90804 -8.73166,7.23707 25.45756,15.30233 7.91675,18.10405 -14.32531,5.00719 12.50274,7.41157 14.53808,23.28583 -14.22008,8.5439 24.79644,17.035 -0.36428,13.90813 -16.56269,3.87642 -26.07912,-16.15079 -40.03759,-44.97438 -59.76996,-62.71037 -26.26438,-12.98328 -59.41702,-8.99293 -88.32515,-18.04911 -14.0623,-4.76768 -24.72485,-3.9463 -46.3996,-42.43862 -21.67475,-38.49231 -8.74734,-32.80734 -36.3998,-51.75839 -4.93361,-3.38113 -17.44866,-6.80746 -17.86363,-7.1172 0.86132,-2.7786 2.4835,-5.29312 2.38791,-7.83775 -0.62296,-16.58547 10.66428,-26.69564 29.01952,-21.46015 6.70915,1.91365 14.59299,7.59553 26.33126,15.56082 9.86162,6.69186 35.04194,5.49376 47.79823,13.83561 25.54177,13.57743 57.89346,25.13723 75.24373,52.97012 z"
         style="fill:#ffffff;fill-opacity:1;fill-rule:evenodd;stroke:#000000;stroke-width:0.67835349;stroke-linecap:butt;stroke-linejoin:miter;stroke-miterlimit:4;stroke-opacity:1;stroke-dasharray:none" />
      <path
         inkscape:connector-curvature="0"
         sodipodi:nodetypes="ccccccccccccc"
         id="path3197"
         d="m 213.81393,432.13435 c -17.61028,-49.63148 29.81234,-88.52754 68.09607,-109.69926 21.62286,-10.68174 52.85311,-48.38741 69.01917,-55.89382 23.47335,-10.3068 16.90618,-0.33721 0.72775,25.93943 32.47844,-29.58916 11.05233,13.79906 -1.16217,24.88639 25.88852,-22.8464 11.10434,16.72012 -0.0308,25.08684 21.76564,-14.97753 10.89374,12.94303 -4.20094,22.91161 24.85104,-17.92178 9.94716,15.31477 -5.73884,24.07547 25.99973,-13.61775 11.93532,12.81449 -10.23431,21.84256 32.10152,-11.75197 8.58571,10.90575 -10.54969,16.0412 33.86333,-9.05376 13.32984,15.1129 -15.4537,15.17227 24.10862,1.32062 22.66633,13.38671 -7.38888,15.88305 -33.13201,13.07682 -35.78915,-38.8071 -67.76704,-16.06378"
         style="fill:#ffffff;fill-opacity:1;fill-rule:evenodd;stroke:#000000;stroke-width:0.67835349;stroke-linecap:butt;stroke-linejoin:miter;stroke-miterlimit:4;stroke-opacity:1;stroke-dasharray:none" />
      <path
         inkscape:connector-curvature="0"
         style="fill:#ffffff;fill-opacity:1;fill-rule:evenodd;stroke:#000000;stroke-width:0.67835349;stroke-linecap:round;stroke-linejoin:round;stroke-miterlimit:4;stroke-opacity:1;stroke-dasharray:none"
         d="m 115.6006,401.44362 0.005,5.89258 c -6.76706,1.16131 -13.7752,4.17034 -18.912609,8.1924 4.929239,-8.50768 11.803079,-11.14742 18.907559,-14.08498 z"
         id="path3199"
         sodipodi:nodetypes="ccccc" />
      <path
         sodipodi:type="arc"
         style="fill:#ffffff;fill-opacity:1;stroke:#000000;stroke-width:1.19593799;stroke-linejoin:miter;stroke-miterlimit:4;stroke-opacity:1;stroke-dasharray:none"
         id="path3201"
         sodipodi:cx="552.21405"
         sodipodi:cy="255.86182"
         sodipodi:rx="7.5871706"
         sodipodi:ry="7.5871706"
         d="m 559.80122,255.86182 c 0,4.19028 -3.39689,7.58717 -7.58717,7.58717 -4.19028,0 -7.58717,-3.39689 -7.58717,-7.58717 0,-4.19028 3.39689,-7.58717 7.58717,-7.58717 4.19028,0 7.58717,3.39689 7.58717,7.58717 z"
         transform="matrix(-0.5869029,0.04117448,0.07454489,0.5429571,432.56529,230.19714)" />
      <path
         inkscape:connector-curvature="0"
         style="fill:#ffffff;fill-opacity:1;fill-rule:evenodd;stroke:#000000;stroke-width:0.67835349;stroke-linecap:round;stroke-linejoin:round;stroke-miterlimit:4;stroke-opacity:1;stroke-dasharray:none"
         d="m 109.72294,397.797 5.87766,3.64662 c -7.10448,2.93756 -13.97832,5.5773 -18.907559,14.08498 0.03855,-10.52991 10.404869,-13.4281 13.029899,-17.7316 z"
         id="path3203"
         sodipodi:nodetypes="ccccc" />
      <g
         style="fill:#ffffff;stroke:#000000;stroke-width:0.67835349;stroke-miterlimit:4;stroke-opacity:1;stroke-dasharray:none"
         transform="matrix(0.9489423,-0.3154498,0.3154498,0.9489423,-783.87078,-127.95169)"
         id="g13436">
        <path
           inkscape:connector-curvature="0"
           sodipodi:nodetypes="cccccccccc"
           id="path3206"
           d="m 807.62174,1003.8594 -12.13304,7.4431 c -7.48936,9.5259 7.35651,13.0053 12.75621,11.4444 -4.05079,-3.0818 -8.53061,-2.2455 -8.1567,-6.4306 2.41383,-5.817 6.79313,-3.885 10.20451,-7.0344 -0.78848,3.4979 1.92612,6.8259 8.31793,10.9289 -3.63333,-5.4338 -5.15237,-12.4409 -3.36634,-14.8322 l 0.56521,-5.0681 -5.94408,-3.28702 c -0.23675,2.65232 -0.0514,4.35512 -2.2437,6.83592 z"
           style="fill:#ffffff;fill-opacity:1;fill-rule:evenodd;stroke:#000000;stroke-width:0.67835349;stroke-linecap:butt;stroke-linejoin:miter;stroke-miterlimit:4;stroke-opacity:1;stroke-dasharray:none" />
        <path
           inkscape:connector-curvature="0"
           style="fill:#ffffff;fill-opacity:1;fill-rule:evenodd;stroke:#000000;stroke-width:0.67835349;stroke-linecap:butt;stroke-linejoin:miter;stroke-miterlimit:4;stroke-opacity:1;stroke-dasharray:none"
           d="m 799.86077,907.14153 c 1.74364,-0.45674 14.19375,14.85319 18.3723,28.10371 2.38135,7.55144 7.22666,13.96251 5.79284,15.39633 -0.30262,5.95309 -4.40117,8.87572 -5.7713,17.85926 -1.08463,7.11159 -0.61546,25.55117 -2.30992,32.56167 l -6.06092,-4.04057 c 0.43595,-9.58753 0.34002,-28.04573 2.02031,-43.85498 -13.65548,-14.98393 -33.27954,-22.27982 -36.37113,-36.75867"
           id="path11472"
           sodipodi:nodetypes="cscscccc" />
      </g>
    </g>
  </g>
</svg>
