<?xml version="1.0" encoding="UTF-8" standalone="no"?>
<svg
   xmlns:dc="http://purl.org/dc/elements/1.1/"
   xmlns:cc="http://creativecommons.org/ns#"
   xmlns:rdf="http://www.w3.org/1999/02/22-rdf-syntax-ns#"
   xmlns:svg="http://www.w3.org/2000/svg"
   xmlns="http://www.w3.org/2000/svg"
   xmlns:sodipodi="http://sodipodi.sourceforge.net/DTD/sodipodi-0.dtd"
   xmlns:inkscape="http://www.inkscape.org/namespaces/inkscape"
   width="1000"
   height="500"
   id="svg2"
   sodipodi:version="0.32"
   inkscape:version="0.46"
   sodipodi:docname="Flag_of_El Carmen del Darién_(Chocó).svg"
   inkscape:output_extension="org.inkscape.output.svg.inkscape">
  <metadata
     id="metadata15">
    <rdf:RDF>
      <cc:Work
         rdf:about="">
        <dc:format>image/svg+xml</dc:format>
        <dc:type
           rdf:resource="http://purl.org/dc/dcmitype/StillImage" />
      </cc:Work>
    </rdf:RDF>
  </metadata>
  <defs
     id="defs13">
    <inkscape:perspective
       sodipodi:type="inkscape:persp3d"
       inkscape:vp_x="0 : 250 : 1"
       inkscape:vp_y="0 : 1000 : 0"
       inkscape:vp_z="1000 : 250 : 1"
       inkscape:persp3d-origin="500 : 166.66667 : 1"
       id="perspective9" />
    <inkscape:perspective
       id="perspective17"
       inkscape:persp3d-origin="500 : 166.66667 : 1"
       inkscape:vp_z="1000 : 250 : 1"
       inkscape:vp_y="0 : 1000 : 0"
       inkscape:vp_x="0 : 250 : 1"
       sodipodi:type="inkscape:persp3d" />
  </defs>
  <sodipodi:namedview
     inkscape:window-height="712"
     inkscape:window-width="1024"
     inkscape:pageshadow="2"
     inkscape:pageopacity="0.0"
     guidetolerance="10.0"
     gridtolerance="10.0"
     objecttolerance="10.0"
     borderopacity="1.0"
     bordercolor="#666666"
     pagecolor="#ffffff"
     id="base"
     showgrid="false"
     inkscape:zoom="0.928"
     inkscape:cx="500"
     inkscape:cy="250"
     inkscape:window-x="-4"
     inkscape:window-y="-4"
     inkscape:current-layer="svg2" />
  <path
     d="M 0,500 L 1000,500 L 1000,0 L 0,0"
     id="path4"
     style="fill:#89c5e3;fill-opacity:1" />
  <path
     d="M 0,500 L 1000,500 L 1000,250.05172 L 0,250.05172"
     id="path6"
     style="fill:#ffffff;fill-opacity:1" />
  <path
     d="M 0,500 L 1000,500 L 1000,375.02586 L 0,375.02586"
     id="path8"
     style="fill:#0d9c30;fill-opacity:1" />
  <path
     d="M 315.77358,110.99128 L 355.15874,172.00102 L 289.31568,146.63211 L 356.78367,127.97547 L 313.32858,183.56814"
     id="path3166"
     style="fill:#ffffff" />
  <path
     d="M 500.00862,87.73793 L 521.70862,157.03793 L 465.00862,115.03793 L 535.00862,115.03793 L 478.30862,157.03793"
     id="path3164"
     style="fill:#ffffff" />
  <path
     d="M 684.41908,111.04028 L 686.48255,183.629 L 643.32028,127.80867 L 710.68927,146.8197 L 644.71378,171.84216"
     id="path10"
     style="fill:#ffffff" />
  <path
     id="path3179"
     d="M 144.07302,178.29954 L 197.27654,227.72387 L 127.21266,219.36068 L 188.00359,184.6553 L 159.58616,249.24121"
     style="fill:#ffffff" />
  <path
     d="M 856.14826,178.29954 L 802.94474,227.72387 L 873.00862,219.36068 L 812.21769,184.6553 L 840.63512,249.24121"
     id="path3191"
     style="fill:#ffffff" />
  <path
     style="font-size:35px;font-style:normal;font-variant:normal;font-weight:normal;font-stretch:normal;text-align:start;line-height:100%;writing-mode:lr-tb;text-anchor:start;fill:#000000;fill-opacity:1;stroke:none;stroke-width:1px;stroke-linecap:butt;stroke-linejoin:miter;stroke-opacity:1;font-family:Arial;-inkscape-font-specification:Arial"
     d="M 493.05202,139.94243 L 493.05202,117.33146 L 503.07734,117.33146 C 505.09268,117.33148 506.62476,117.53456 507.67358,117.94069 C 508.72237,118.34687 509.56037,119.06406 510.18762,120.09228 C 510.81483,121.12054 511.12844,122.25674 511.12846,123.5009 C 511.12844,125.10496 510.60918,126.4571 509.57068,127.55729 C 508.53214,128.65753 506.92808,129.35673 504.75852,129.6549 C 505.55025,130.03537 506.15176,130.41067 506.56308,130.78083 C 507.43707,131.58286 508.2648,132.5854 509.04627,133.78843 L 512.97929,139.94243 L 509.21593,139.94243 L 506.22376,135.23824 C 505.34974,133.88097 504.62998,132.84246 504.06445,132.12267 C 503.49892,131.40292 502.99251,130.89908 502.54524,130.61116 C 502.09794,130.32327 501.64295,130.12276 501.18024,130.00964 C 500.84092,129.93768 500.28567,129.90169 499.5145,129.90168 L 496.0442,129.90168 L 496.0442,139.94243 L 493.05202,139.94243 z M 496.0442,127.31052 L 502.47583,127.31052 C 503.84338,127.31054 504.91274,127.16915 505.68393,126.88637 C 506.4551,126.60362 507.0412,126.15119 507.44222,125.52909 C 507.84322,124.90702 508.04373,124.23096 508.04374,123.5009 C 508.04373,122.43154 507.65556,121.5524 506.87926,120.86346 C 506.10293,120.17456 504.87675,119.8301 503.20074,119.83008 L 496.0442,119.83008 L 496.0442,127.31052 z"
     id="text3193" />
  <path
     style="font-size:35px;font-style:normal;font-variant:normal;font-weight:normal;font-stretch:normal;text-align:start;line-height:100%;writing-mode:lr-tb;text-anchor:start;fill:#000000;fill-opacity:1;stroke:none;stroke-width:1px;stroke-linecap:butt;stroke-linejoin:miter;stroke-opacity:1;font-family:Arial;-inkscape-font-specification:Arial"
     d="M 330.40732,138.5916 L 333.30351,137.83982 L 336.58577,150.48455 C 337.1567,152.68406 337.36128,154.49533 337.19952,155.91832 C 337.03773,157.34134 336.4127,158.62697 335.32446,159.77524 C 334.23619,160.92351 332.63709,161.7715 330.52716,162.31918 C 328.47692,162.85137 326.70821,162.93337 325.22101,162.56517 C 323.73379,162.19697 322.53778,161.41589 321.63297,160.22195 C 320.72815,159.028 319.97478,157.27157 319.37283,154.95261 L 316.09057,142.30789 L 318.98676,141.55611 L 322.26515,154.1859 C 322.75858,156.08684 323.29885,157.44181 323.88598,158.2508 C 324.47309,159.0598 325.2604,159.5964 326.24788,159.86059 C 327.23537,160.12481 328.35114,160.09545 329.59522,159.77252 C 331.72505,159.21967 333.11751,158.343 333.77262,157.14249 C 334.4277,155.942 334.39872,153.96831 333.68571,151.2214 L 330.40732,138.5916 z"
     id="text3197" />
  <path
     style="font-size:35px;font-style:normal;font-variant:normal;font-weight:normal;font-stretch:normal;text-align:start;line-height:100%;writing-mode:lr-tb;text-anchor:start;fill:#000000;fill-opacity:1;stroke:none;stroke-width:1px;stroke-linecap:butt;stroke-linejoin:miter;stroke-opacity:1;font-family:Arial;-inkscape-font-specification:Arial"
     d="M 167.60879,225.21663 L 157.34041,208.12068 L 150.95421,211.95643 L 149.58033,209.66903 L 164.94422,200.441 L 166.3181,202.72839 L 159.90547,206.58002 L 170.17384,223.67598 L 167.60879,225.21663 z"
     id="text3201" />
  <path
     style="font-size:35px;font-style:normal;font-variant:normal;font-weight:normal;font-stretch:normal;text-align:start;line-height:100%;writing-mode:lr-tb;text-anchor:start;fill:#000000;fill-opacity:1;stroke:none;stroke-width:1px;stroke-linecap:butt;stroke-linejoin:miter;stroke-opacity:1;font-family:Arial;-inkscape-font-specification:Arial"
     d="M 661.85999,157.11799 L 669.88169,135.97778 L 685.16725,141.77793 L 684.22062,144.27264 L 671.73261,139.53403 L 669.27576,146.00877 L 680.97065,150.44642 L 680.0295,152.92671 L 668.3346,148.48905 L 665.60416,155.6848 L 678.58246,160.60946 L 677.63583,163.10417 L 661.85999,157.11799 z"
     id="text3205" />
  <path
     style="font-size:35px;font-style:normal;font-variant:normal;font-weight:normal;font-stretch:normal;text-align:start;line-height:100%;writing-mode:lr-tb;text-anchor:start;fill:#000000;fill-opacity:1;stroke:none;stroke-width:1px;stroke-linecap:butt;stroke-linejoin:miter;stroke-opacity:1;font-family:Arial;-inkscape-font-specification:Arial"
     d="M 826.58756,210.64626 L 829.05286,212.04261 C 828.52195,213.05024 828.25228,213.99108 828.24384,214.86513 C 828.23539,215.73918 828.52799,216.65185 829.12165,217.60311 C 829.7153,218.55437 830.5416,219.39423 831.60054,220.12268 C 832.54088,220.76954 833.46724,221.20086 834.37964,221.41665 C 835.29202,221.63242 836.09154,221.61769 836.77821,221.37242 C 837.46484,221.12715 838.00632,220.71648 838.40261,220.14042 C 838.8047,219.55587 838.98636,218.92891 838.94764,218.25953 C 838.90889,217.59014 838.6018,216.83913 838.02641,216.00649 C 837.6606,215.46782 836.7634,214.40447 835.3348,212.81643 C 833.90617,211.22839 832.97407,210.01622 832.53848,209.17991 C 831.96946,208.10208 831.70429,207.0679 831.74298,206.07733 C 831.78162,205.08679 832.09525,204.16371 832.68385,203.30807 C 833.33069,202.36775 834.20215,201.67239 835.29824,201.222 C 836.39429,200.77166 837.60054,200.68726 838.91699,200.9688 C 840.2334,201.25037 841.51851,201.82239 842.77232,202.68486 C 844.15316,203.63476 845.21797,204.69486 845.96676,205.86514 C 846.71549,207.03542 847.07646,208.24784 847.04966,209.50238 C 847.02281,210.75694 846.65472,211.94519 845.94533,213.06715 L 843.45939,211.61916 C 844.14234,210.35421 844.3243,209.16894 844.00529,208.06337 C 843.68623,206.95781 842.81087,205.91261 841.37921,204.92774 C 839.8882,203.90211 838.61378,203.42792 837.55597,203.50521 C 836.49811,203.58251 835.70405,204.00662 835.17375,204.77751 C 834.71336,205.44678 834.576,206.16351 834.76169,206.92772 C 834.93888,207.68612 835.87335,208.98103 837.5651,210.81248 C 839.25683,212.64393 840.35891,213.98549 840.87131,214.83719 C 841.61182,216.08293 841.97677,217.26688 841.96616,218.38905 C 841.9555,219.5112 841.60637,220.57209 840.91873,221.57174 C 840.2369,222.5629 839.3106,223.30167 838.13988,223.78803 C 836.96912,224.27437 835.6846,224.39543 834.28635,224.15119 C 832.88809,223.90694 831.52393,223.32735 830.19391,222.41243 C 828.50807,221.25274 827.26445,220.03532 826.46303,218.76016 C 825.6616,217.48501 825.27631,216.13106 825.30715,214.69831 C 825.33799,213.26557 825.76479,211.91489 826.58756,210.64626 L 826.58756,210.64626 z"
     id="text3209" />
</svg>
