<?xml version="1.0" encoding="UTF-8" standalone="no"?>
<!-- Created with Inkscape (http://www.inkscape.org/) -->
<svg
   xmlns:dc="http://purl.org/dc/elements/1.1/"
   xmlns:cc="http://creativecommons.org/ns#"
   xmlns:rdf="http://www.w3.org/1999/02/22-rdf-syntax-ns#"
   xmlns:svg="http://www.w3.org/2000/svg"
   xmlns="http://www.w3.org/2000/svg"
   xmlns:xlink="http://www.w3.org/1999/xlink"
   xmlns:sodipodi="http://sodipodi.sourceforge.net/DTD/sodipodi-0.dtd"
   xmlns:inkscape="http://www.inkscape.org/namespaces/inkscape"
   width="750"
   height="500"
   id="svg2822"
   version="1.1"
   inkscape:version="0.46"
   sodipodi:docname="Flag_of_El_Molino_(La_Guajira).svg"
   sodipodi:version="0.32"
   inkscape:output_extension="org.inkscape.output.svg.inkscape">
  <defs
     id="defs2824">
    <g
       id="s">
      <g
         id="c">
        <path
           d="M 0 0 v 1 h 0.5 Z"
           transform="translate(0 -1) rotate(18)"
           id="t" />
        <use
           xlink:href="#t"
           transform="scale(-1 1)"
           id="use11" />
      </g>
      <g
         id="a">
        <use
           xlink:href="#c"
           transform="rotate(72)"
           id="use14" />
        <use
           xlink:href="#c"
           transform="rotate(144)"
           id="use16" />
      </g>
      <use
         xlink:href="#a"
         transform="scale(-1 1)"
         id="use18" />
    </g>
  </defs>
  <sodipodi:namedview
     id="base"
     pagecolor="#ffffff"
     bordercolor="#666666"
     borderopacity="1.0"
     inkscape:pageopacity="0.0"
     inkscape:pageshadow="2"
     inkscape:zoom="1.014"
     inkscape:cx="375"
     inkscape:cy="250"
     inkscape:document-units="px"
     inkscape:current-layer="layer1"
     showgrid="false"
     inkscape:window-width="1024"
     inkscape:window-height="712"
     inkscape:window-x="-4"
     inkscape:window-y="-4"
     inkscape:window-maximized="1" />
  <metadata
     id="metadata2827">
    <rdf:RDF>
      <cc:Work
         rdf:about="">
        <dc:format>image/svg+xml</dc:format>
        <dc:type
           rdf:resource="http://purl.org/dc/dcmitype/StillImage" />
        <dc:title />
      </cc:Work>
    </rdf:RDF>
  </metadata>
  <g
     inkscape:label="Capa 1"
     inkscape:groupmode="layer"
     id="layer1"
     transform="translate(0,-552.36218)">
    <rect
       style="fill:#078930;fill-opacity:1;stroke:none"
       id="rect2832"
       width="750"
       height="250"
       x="0"
       y="552.36218" />
    <rect
       style="fill:#fcdd09;fill-opacity:1;stroke:none"
       id="rect2834"
       width="750"
       height="250"
       x="0"
       y="802.36218" />
    <g
       id="Elementos"
       transform="translate(777.14317,1015.4478)">
      <metadata
         id="CorelCorpID_1Corel-Layer" />
      <g
         id="layer6_12" />
      <g
         id="Capa_x0020_1"
         transform="translate(-216.7271,326.27794)">
        <metadata
           id="CorelCorpID_1Corel-Layer-1" />
        <sodipodi:namedview
           pagecolor="#ffffff"
           bordercolor="#666666"
           borderopacity="1.0"
           gridtolerance="10000"
           guidetolerance="10"
           objecttolerance="10"
           inkscape:pageopacity="0.0"
           inkscape:pageshadow="2"
           inkscape:zoom="0.45254834"
           inkscape:cx="529.77215"
           inkscape:cy="286.86274"
           inkscape:document-units="px"
           inkscape:current-layer="layer6"
           inkscape:window-width="1280"
           inkscape:window-height="753"
           inkscape:window-x="-4"
           inkscape:window-y="-4"
           showguides="true"
           showgrid="false"
           inkscape:guide-bbox="true"
           width="549.99969px"
           height="975px"
           id="base-5" />
        <g
           inkscape:groupmode="layer"
           inkscape:label="Timbre"
           id="layer3" />
        <g
           inkscape:groupmode="layer"
           inkscape:label="Escudo"
           id="layer1-2" />
        <g
           inkscape:groupmode="layer"
           inkscape:label="Piezas"
           id="layer4" />
        <g
           inkscape:groupmode="layer"
           inkscape:label="Muebles"
           id="layer5" />
        <g
           inkscape:groupmode="layer"
           inkscape:label="Ornamento"
           id="layer2" />
        <g
           inkscape:label="Piezas"
           id="g5818" />
        <g
           inkscape:label="Muebles"
           id="g5820" />
        <g
           inkscape:label="Ornamentos"
           id="g5822" />
        <g
           inkscape:label="Escudo"
           id="g5438" />
        <g
           inkscape:label="Piezas"
           id="g5440" />
        <g
           inkscape:label="Ornamento"
           id="g5559" />
        <g
           inkscape:label="Borde 3px"
           id="g5561" />
      </g>
    </g>
    <g
       inkscape:label="Capa 1"
       inkscape:groupmode="layer"
       transform="matrix(0.42811917,0,0,0.43213771,216.20161,509.15854)"
       id="layer1-7" />
    <desc
       id="desc4">European flag</desc>
    <g
       transform="translate(202,999.00102)"
       id="g2538">
      <path
         d="m 378.94,272.596 51.874,0 0,-12.633 -36.848,0 0,-16.749 33.115,0 0,-11.676 -33.115,0 0,-14.643 36.082,0 0,-12.634 -51.108,0 0,68.335 z"
         style="font-size:99.69000244px;font-style:normal;font-variant:normal;font-weight:bold;font-stretch:normal;line-height:125%;writing-mode:lr-tb;text-anchor:start;fill:#ffffff;fill-opacity:1;stroke:none;-inkscape-font-specification:Helvetica 55 Roman Bold"
         id="path3745"
         inkscape:connector-curvature="0" />
      <path
         d="m 433.753,126.333 -15.026,0 0,42.494 c 0.08,5.057 -0.941,8.797 -3.063,11.222 -2.121,2.424 -5.822,3.629 -11.102,3.613 -5.904,-0.152 -9.768,-1.691 -11.592,-4.618 -1.825,-2.927 -2.65,-6.333 -2.477,-10.217 l 0,-42.494 -15.026,0 0,42.494 c 0.064,9.268 2.616,16.167 7.657,20.697 5.04,4.53 12.186,6.787 21.438,6.771 9.214,0.01 16.364,-2.259 21.451,-6.807 5.086,-4.548 7.666,-11.435 7.74,-20.661 l 0,-42.494 z"
         style="font-size:99.69000244px;font-style:normal;font-variant:normal;font-weight:bold;font-stretch:normal;text-align:center;line-height:125%;writing-mode:lr-tb;text-anchor:middle;fill:#ffffff;fill-opacity:1;stroke:none;-inkscape-font-specification:Helvetica 55 Roman Bold"
         id="path3754"
         inkscape:connector-curvature="0" />
      <path
         d="m 404.596,280.401 c -10.654,0.235 -18.888,3.69 -24.72,10.409 -5.832,6.72 -8.772,15.27 -8.85,25.651 0.078,10.105 3.018,18.51 8.85,25.169 5.832,6.66 14.066,10.103 24.72,10.35 10.653,-0.247 18.918,-3.69 24.75,-10.35 5.832,-6.659 8.772,-15.064 8.85,-25.169 -0.078,-10.381 -3.018,-18.931 -8.85,-25.651 -5.832,-6.719 -14.097,-10.174 -24.75,-10.409 z m 0,12.629 c 6.677,0.23 11.455,2.635 14.34,7.23 2.885,4.597 4.3,9.99 4.23,16.201 0.07,5.935 -1.345,11.183 -4.23,15.72 -2.885,4.536 -7.663,6.928 -14.34,7.169 -6.678,-0.241 -11.455,-2.633 -14.34,-7.169 -2.885,-4.537 -4.3,-9.785 -4.23,-15.72 -0.07,-6.211 1.345,-11.604 4.23,-16.201 2.885,-4.595 7.662,-7 14.34,-7.23 z"
         style="font-size:99.69000244px;font-style:normal;font-variant:normal;font-weight:bold;font-stretch:normal;text-align:center;line-height:125%;writing-mode:lr-tb;text-anchor:middle;fill:#ffffff;fill-opacity:1;stroke:none;-inkscape-font-specification:Helvetica 55 Roman Bold"
         id="path3752"
         inkscape:connector-curvature="0" />
      <path
         d="m 366.109,204.261 -13.539,0 -10.286,47.088 -0.176,0 -10.726,-47.088 -12.923,0 -10.902,46.514 -0.176,0 -9.934,-46.514 -13.803,0 16.616,68.335 13.979,0 10.462,-46.513 0.175,0 10.638,46.513 13.715,0 16.88,-68.335 z"
         style="font-size:99.69000244px;font-style:normal;font-variant:normal;font-weight:bold;font-stretch:normal;line-height:125%;writing-mode:lr-tb;text-anchor:start;fill:#ffffff;fill-opacity:1;stroke:none;-inkscape-font-specification:Helvetica 55 Roman Bold"
         id="path2569"
         inkscape:connector-curvature="0" />
      <path
         d="m 507.754,204.295 -15.739,0 0,42.494 c 0.084,5.057 -0.986,8.797 -3.208,11.222 -2.222,2.425 -6.098,3.629 -11.628,3.613 -6.184,-0.152 -10.232,-1.691 -12.143,-4.618 -1.911,-2.927 -2.775,-6.333 -2.594,-10.217 l 0,-42.494 -15.739,0 0,42.494 c 0.067,9.268 2.741,16.167 8.02,20.697 5.28,4.53 12.765,6.787 22.456,6.771 9.65,0.01 17.14,-2.259 22.467,-6.807 5.328,-4.548 8.031,-11.435 8.108,-20.661 l 0,-42.494 z"
         style="font-size:99.69000244px;font-style:normal;font-variant:normal;font-weight:bold;font-stretch:normal;line-height:125%;writing-mode:lr-tb;text-anchor:start;fill:#ffffff;fill-opacity:1;stroke:none;-inkscape-font-specification:Helvetica 55 Roman Bold"
         id="path2571"
         inkscape:connector-curvature="0" />
    </g>
    <path
       inkscape:connector-curvature="0"
       id="path2414"
       style="fill:#ffffff;fill-opacity:1"
       d="M 338.81003,611.65937 L 321.95601,623.15475 L 328.39981,604.56601 L 311.57607,593.07149 L 332.36623,593.07149 L 338.81003,574.48274 L 345.25291,593.07149 L 366.04307,593.07149 L 349.22023,604.56601 L 355.66311,623.15475 L 338.81003,611.65937 L 338.81003,611.65937 z"
       sodipodi:nodetypes="ccccccccccc" />
    <path
       inkscape:connector-curvature="0"
       id="path3221"
       style="fill:#ffffff;fill-opacity:1"
       d="M 270.04493,628.86788 L 253.19093,640.36326 L 259.63472,621.77452 L 242.81098,610.28 L 263.60113,610.28 L 270.04493,591.69125 L 276.48782,610.28 L 297.27797,610.28 L 280.45514,621.77452 L 286.89803,640.36326 L 270.04493,628.86788 L 270.04493,628.86788 z"
       sodipodi:nodetypes="ccccccccccc" />
    <path
       inkscape:connector-curvature="0"
       id="path3223"
       style="fill:#ffffff;fill-opacity:1"
       d="M 208.28951,660.37085 L 191.43551,671.86621 L 197.87931,653.27748 L 181.05555,641.78295 L 201.84572,641.78295 L 208.28951,623.19421 L 214.7324,641.78295 L 235.52256,641.78295 L 218.69972,653.27748 L 225.14261,671.86621 L 208.28951,660.37085 L 208.28951,660.37085 z"
       sodipodi:nodetypes="ccccccccccc" />
    <path
       inkscape:connector-curvature="0"
       id="path3225"
       style="fill:#ffffff;fill-opacity:1"
       d="M 155.72244,702.37479 L 138.86844,713.87015 L 145.31224,695.28142 L 128.48849,683.78689 L 149.27864,683.78689 L 155.72244,665.19815 L 162.16534,683.78689 L 182.95548,683.78689 L 166.13266,695.28142 L 172.57553,713.87015 L 155.72244,702.37479 L 155.72244,702.37479 z"
       sodipodi:nodetypes="ccccccccccc" />
    <path
       inkscape:connector-curvature="0"
       id="path3227"
       style="fill:#ffffff;fill-opacity:1"
       d="M 115.65636,758.63381 L 98.80236,770.12917 L 105.24616,751.54043 L 88.4224,740.04591 L 109.21256,740.04591 L 115.65636,721.45716 L 122.09924,740.04591 L 142.8894,740.04591 L 126.06658,751.54043 L 132.50946,770.12917 L 115.65636,758.63381 L 115.65636,758.63381 z"
       sodipodi:nodetypes="ccccccccccc" />
    <path
       sodipodi:nodetypes="ccccccccccc"
       d="M 408.50344,611.65937 L 425.35746,623.15475 L 418.91366,604.56601 L 435.7374,593.07149 L 414.94724,593.07149 L 408.50344,574.48274 L 402.06056,593.07149 L 381.2704,593.07149 L 398.09324,604.56601 L 391.65036,623.15475 L 408.50344,611.65937 L 408.50344,611.65937 z"
       style="fill:#ffffff;fill-opacity:1"
       id="path3229"
       inkscape:connector-curvature="0" />
    <path
       sodipodi:nodetypes="ccccccccccc"
       d="M 477.26854,628.86788 L 494.12254,640.36326 L 487.67875,621.77452 L 504.50249,610.28 L 483.71234,610.28 L 477.26854,591.69125 L 470.82565,610.28 L 450.0355,610.28 L 466.85833,621.77452 L 460.41544,640.36326 L 477.26854,628.86788 L 477.26854,628.86788 z"
       style="fill:#ffffff;fill-opacity:1"
       id="path3231"
       inkscape:connector-curvature="0" />
    <path
       sodipodi:nodetypes="ccccccccccc"
       d="M 539.02396,660.37085 L 555.87796,671.86621 L 549.43416,653.27748 L 566.25792,641.78295 L 545.46775,641.78295 L 539.02396,623.19421 L 532.58107,641.78295 L 511.79091,641.78295 L 528.61375,653.27748 L 522.17086,671.86621 L 539.02396,660.37085 L 539.02396,660.37085 z"
       style="fill:#ffffff;fill-opacity:1"
       id="path3233"
       inkscape:connector-curvature="0" />
    <path
       sodipodi:nodetypes="ccccccccccc"
       d="M 591.59103,702.37479 L 608.44503,713.87015 L 602.00123,695.28142 L 618.82498,683.78689 L 598.03483,683.78689 L 591.59103,665.19815 L 585.14813,683.78689 L 564.35799,683.78689 L 581.18081,695.28142 L 574.73794,713.87015 L 591.59103,702.37479 L 591.59103,702.37479 z"
       style="fill:#ffffff;fill-opacity:1"
       id="path3235"
       inkscape:connector-curvature="0" />
    <path
       sodipodi:nodetypes="ccccccccccc"
       d="M 631.65711,758.63381 L 648.51111,770.12917 L 642.06731,751.54043 L 658.89107,740.04591 L 638.10091,740.04591 L 631.65711,721.45716 L 625.21423,740.04591 L 604.42407,740.04591 L 621.24689,751.54043 L 614.80401,770.12917 L 631.65711,758.63381 L 631.65711,758.63381 z"
       style="fill:#ffffff;fill-opacity:1"
       id="path3237"
       inkscape:connector-curvature="0" />
  </g>
</svg>
