<?xml version="1.0" encoding="UTF-8" standalone="no"?>
<!-- Created with Inkscape (http://www.inkscape.org/) -->

<svg
   xmlns:dc="http://purl.org/dc/elements/1.1/"
   xmlns:cc="http://creativecommons.org/ns#"
   xmlns:rdf="http://www.w3.org/1999/02/22-rdf-syntax-ns#"
   xmlns:svg="http://www.w3.org/2000/svg"
   xmlns="http://www.w3.org/2000/svg"
   xmlns:xlink="http://www.w3.org/1999/xlink"
   xmlns:sodipodi="http://sodipodi.sourceforge.net/DTD/sodipodi-0.dtd"
   xmlns:inkscape="http://www.inkscape.org/namespaces/inkscape"
   width="750"
   height="500"
   id="svg2844"
   version="1.1"
   inkscape:version="0.48.3.1 r9886"
   sodipodi:docname="Flag of Abejorral (Antioquia).svg">
  <defs
     id="defs2846">
    <inkscape:perspective
       sodipodi:type="inkscape:persp3d"
       inkscape:vp_x="0 : 526.18109 : 1"
       inkscape:vp_y="0 : 1000 : 0"
       inkscape:vp_z="744.09448 : 526.18109 : 1"
       inkscape:persp3d-origin="372.04724 : 350.78739 : 1"
       id="perspective2852" />
    <inkscape:perspective
       inkscape:persp3d-origin="300 : 220 : 1"
       inkscape:vp_z="600 : 330 : 1"
       inkscape:vp_y="0 : 1000 : 0"
       inkscape:vp_x="0 : 330 : 1"
       sodipodi:type="inkscape:persp3d"
       id="perspective23" />
    <linearGradient
       id="linearGradient2893">
      <stop
         offset="0"
         style="stop-color: rgb(255, 255, 255); stop-opacity: 0.313726;"
         id="stop2895" />
      <stop
         offset="0.19"
         style="stop-color: rgb(255, 255, 255); stop-opacity: 0.25098;"
         id="stop2897" />
      <stop
         offset="0.6"
         style="stop-color: rgb(107, 107, 107); stop-opacity: 0.12549;"
         id="stop2901" />
      <stop
         offset="1"
         style="stop-color: rgb(0, 0, 0); stop-opacity: 0.12549;"
         id="stop2899" />
    </linearGradient>
    <radialGradient
       xlink:href="#linearGradient2893"
       fy="226.331"
       fx="221.445"
       r="300"
       cy="226.331"
       cx="221.445"
       gradientTransform="matrix(1.35322 0 0 1.34893 -77.6293 -85.7469)"
       gradientUnits="userSpaceOnUse"
       id="radialGradient3163" />
    <inkscape:perspective
       inkscape:persp3d-origin="0.5 : 0.33333333 : 1"
       inkscape:vp_z="1 : 0.5 : 1"
       inkscape:vp_y="0 : 1000 : 0"
       inkscape:vp_x="0 : 0.5 : 1"
       sodipodi:type="inkscape:persp3d"
       id="perspective3610" />
    <inkscape:perspective
       inkscape:persp3d-origin="0.5 : 0.33333333 : 1"
       inkscape:vp_z="1 : 0.5 : 1"
       inkscape:vp_y="0 : 1000 : 0"
       inkscape:vp_x="0 : 0.5 : 1"
       sodipodi:type="inkscape:persp3d"
       id="perspective3632" />
    <inkscape:perspective
       inkscape:persp3d-origin="125.5 : 101.4 : 1"
       inkscape:vp_z="251 : 152.10001 : 1"
       inkscape:vp_y="0 : 1000 : 0"
       inkscape:vp_x="0 : 152.10001 : 1"
       sodipodi:type="inkscape:persp3d"
       id="perspective4036" />
    <inkscape:perspective
       inkscape:persp3d-origin="0.5 : 0.33333333 : 1"
       inkscape:vp_z="1 : 0.5 : 1"
       inkscape:vp_y="0 : 1000 : 0"
       inkscape:vp_x="0 : 0.5 : 1"
       sodipodi:type="inkscape:persp3d"
       id="perspective4066" />
    <inkscape:perspective
       inkscape:persp3d-origin="0.5 : 0.33333333 : 1"
       inkscape:vp_z="1 : 0.5 : 1"
       inkscape:vp_y="0 : 1000 : 0"
       inkscape:vp_x="0 : 0.5 : 1"
       sodipodi:type="inkscape:persp3d"
       id="perspective4088" />
  </defs>
  <sodipodi:namedview
     id="base"
     pagecolor="#ffffff"
     bordercolor="#666666"
     borderopacity="1.0"
     inkscape:pageopacity="0.0"
     inkscape:pageshadow="2"
     inkscape:zoom="0.62"
     inkscape:cx="350"
     inkscape:cy="56.951567"
     inkscape:document-units="px"
     inkscape:current-layer="layer1"
     showgrid="false"
     inkscape:window-width="1280"
     inkscape:window-height="962"
     inkscape:window-x="-8"
     inkscape:window-y="-8"
     inkscape:window-maximized="1" />
  <metadata
     id="metadata2849">
    <rdf:RDF>
      <cc:Work
         rdf:about="">
        <dc:format>image/svg+xml</dc:format>
        <dc:type
           rdf:resource="http://purl.org/dc/dcmitype/StillImage" />
        <dc:title></dc:title>
      </cc:Work>
    </rdf:RDF>
  </metadata>
  <g
     inkscape:label="Capa 1"
     inkscape:groupmode="layer"
     id="layer1"
     transform="translate(0,-552.36218)">
    <rect
       style="fill:#fcdd09;fill-opacity:1;stroke:none"
       id="rect2860"
       width="750"
       height="250"
       x="0"
       y="-5.6843419e-14"
       transform="translate(0,552.36218)"
       rx="8.8817842e-16"
       ry="8.8817784e-16" />
    <rect
       style="fill:#fcdd09;fill-opacity:1;stroke:none"
       id="rect2862"
       width="750"
       height="250"
       x="0"
       y="250"
       transform="translate(0,552.36218)"
       rx="8.8817842e-16"
       ry="8.8817784e-16" />
    <path
       style="fill:#078930;stroke:none;stroke-width:1px;stroke-linecap:butt;stroke-linejoin:miter;stroke-opacity:1"
       d="M 0,0 250,250 0,500"
       id="path2864"
       transform="translate(0,552.36218)" />
    <desc
       id="desc4">Flag of Canton of Valais (Wallis)</desc>
    <path
       d="m 840.12334,1742.2063 c 0,0 298.49996,-112.32 298.49996,-397.772 0,-285.4521 0,-258.5521 0,-258.5521 l -596.99996,0 0,258.5521 c 0,285.452 298.5,397.772 298.5,397.772 z"
       style="fill:#3d0c13;fill-opacity:0;fill-rule:evenodd;stroke:none"
       id="path2855"
       inkscape:connector-curvature="0" />
    <g
       transform="translate(-455.00366,1141.2587)"
       id="g2766" />
    <path
       d="m 492.2322,710.78226 c 4.22079,-9.41924 11.48168,-10.3676 12.93951,-20.84891 2.46353,2.9787 3.75607,6.85438 3.91195,9.65013 7.93014,-7.93641 15.4046,-16.91181 19.77706,-26.09114 4.24228,3.52035 3.34861,11.98568 3.39347,16.23901 13.60041,-10.04518 22.39554,-20.95565 22.91013,-29.94068 4.65756,3.02177 4.66767,9.0921 4.75473,16.00128 5.40621,-1.68979 9.32785,-9.0327 13.93039,-16.33474 2.71808,-3.19116 5.92744,-6.68113 9.82276,-7.09503 -7.64907,17.74119 3.3647,21.73024 -2.42516,42.92864 4.30792,-2.50998 7.13871,-6.20023 9.70215,-11.38843 4.73908,6.57619 3.36363,21.09126 -3.83106,39.07279 3.70745,0.36462 7.9753,-3.5233 12.39318,-8.12981 1.87105,10.64566 -1.55401,20.88474 -11.60047,29.93645 -3.58979,2.17156 -6.61161,4.7233 -8.26967,8.47505 3.55575,0.12476 6.46385,-2.56685 9.71383,-4.35958 -1.31645,4.49108 -3.08552,9.70035 -6.18249,12.53158 -15.47906,17.6705 -45.65377,6.09184 -63.34857,-3.39647 -9.90586,-5.31474 -36.65732,-25.31087 -27.59161,-47.25 z"
       style="font-style:normal;font-variant:normal;font-weight:normal;font-stretch:normal;letter-spacing:normal;word-spacing:normal;text-anchor:start;fill:#fbbb00;fill-opacity:1;fill-rule:evenodd;stroke:none"
       id="Eld"
       inkscape:connector-curvature="0" />
    <path
       d="m 531.10299,785.01603 c -32.45889,51.49671 -119.86159,172.58495 -130.1002,167.17036 -10.23856,-5.41455 60.54494,-135.29169 93.00384,-186.7884 0,0 37.09636,19.61804 37.09636,19.61804 z"
       style="fill:#000000;fill-opacity:1;fill-rule:nonzero;stroke:none"
       id="Fackla_del_1"
       inkscape:connector-curvature="0" />
    <path
       sodipodi:nodetypes="cccccccccc"
       d="m 497.51809,715.85494 c 3.4658,-7.73444 9.428,-8.51319 10.62504,-17.11982 2.02296,2.44596 3.08427,5.62839 3.21227,7.92412 6.51172,-6.51687 12.64927,-13.88688 16.23966,-21.42439 3.48352,2.89067 2.74965,9.84187 2.78648,13.33441 11.16777,-8.24843 18.3898,-17.20742 18.81235,-24.58539 3.82447,2.48128 3.83279,7.46585 3.90431,13.13921 22.72443,28.26989 -24.2204,34.11933 18.13579,63.45349 10.79355,-5.48761 8.26977,0.5423 2.89972,6.71032 -28.54953,20.77003 -80.30479,-11.14588 -76.6156,-41.43194 z"
       style="font-style:normal;font-variant:normal;font-weight:normal;font-stretch:normal;letter-spacing:normal;word-spacing:normal;text-anchor:start;fill:#da121a;fill-opacity:1;fill-rule:evenodd;stroke:none"
       id="Eld-5"
       inkscape:connector-curvature="0" />
    <path
       d="m 532.3602,789.51209 c 3.74564,0.82983 23.51935,-17.51278 19.9228,-22.6165 -16.9027,-12.72894 -31.55858,-21.22485 -52.20971,-28.01156 -5.32535,0.19068 -11.69638,22.87287 -11.00094,27.5297 14.16358,10.4348 26.68203,16.49101 43.28778,23.09833 z"
       style="fill:#000000;fill-opacity:1;fill-rule:evenodd;stroke:none;display:inline"
       id="Fackla_del_2"
       inkscape:connector-curvature="0" />
  </g>
</svg>
