<?xml version="1.0" encoding="UTF-8" standalone="no"?>
<!-- Created with Inkscape (http://www.inkscape.org/) -->

<svg
   xmlns:dc="http://purl.org/dc/elements/1.1/"
   xmlns:cc="http://creativecommons.org/ns#"
   xmlns:rdf="http://www.w3.org/1999/02/22-rdf-syntax-ns#"
   xmlns:svg="http://www.w3.org/2000/svg"
   xmlns="http://www.w3.org/2000/svg"
   xmlns:sodipodi="http://sodipodi.sourceforge.net/DTD/sodipodi-0.dtd"
   xmlns:inkscape="http://www.inkscape.org/namespaces/inkscape"
   width="750"
   height="500"
   id="svg2"
   version="1.1"
   inkscape:version="0.47 r22583"
   sodipodi:docname="Flag of Girardot (Cundinamarca).svg">
  <defs
     id="defs4">
    <inkscape:perspective
       sodipodi:type="inkscape:persp3d"
       inkscape:vp_x="0 : 526.18109 : 1"
       inkscape:vp_y="0 : 1000 : 0"
       inkscape:vp_z="744.09448 : 526.18109 : 1"
       inkscape:persp3d-origin="372.04724 : 350.78739 : 1"
       id="perspective10" />
  </defs>
  <sodipodi:namedview
     id="base"
     pagecolor="#ffffff"
     bordercolor="#666666"
     borderopacity="1.0"
     inkscape:pageopacity="0.0"
     inkscape:pageshadow="2"
     inkscape:zoom="0.58"
     inkscape:cx="350"
     inkscape:cy="285.72698"
     inkscape:document-units="px"
     inkscape:current-layer="layer1"
     showgrid="false"
     inkscape:window-width="1024"
     inkscape:window-height="538"
     inkscape:window-x="-8"
     inkscape:window-y="-8"
     inkscape:window-maximized="1" />
  <metadata
     id="metadata7">
    <rdf:RDF>
      <cc:Work
         rdf:about="">
        <dc:format>image/svg+xml</dc:format>
        <dc:type
           rdf:resource="http://purl.org/dc/dcmitype/StillImage" />
        <dc:title></dc:title>
      </cc:Work>
    </rdf:RDF>
  </metadata>
  <g
     inkscape:label="Capa 1"
     inkscape:groupmode="layer"
     id="layer1"
     transform="translate(0,-552.36218)">
    <rect
       style="fill:#ffffff;fill-opacity:1;stroke:none"
       id="rect2816"
       width="750"
       height="250"
       x="0"
       y="-5.6843419e-14"
       transform="translate(0,552.36218)"
       rx="8.8817842e-16"
       ry="8.8817794e-16" />
    <rect
       style="fill:#072357;fill-opacity:1;stroke:none"
       id="rect2818"
       width="750"
       height="125"
       x="0"
       y="250"
       transform="translate(0,552.36218)"
       rx="8.8817842e-16"
       ry="8.8817794e-16" />
    <rect
       style="fill:#078930;fill-opacity:1;stroke:none"
       id="rect2820"
       width="750"
       height="125"
       x="0"
       y="927.36237"
       rx="8.8817842e-16"
       ry="8.8817784e-16" />
    <rect
       style="fill:#ffffff;fill-opacity:1;stroke:none"
       id="rect4097"
       width="37.931034"
       height="515.51703"
       x="-39.655174"
       y="-34.482758"
       transform="translate(0,552.36218)"
       rx="8.8817842e-16"
       ry="8.8817794e-16" />
    <rect
       style="fill:#ffffff;fill-opacity:1;stroke:none"
       id="rect4099"
       width="358.6207"
       height="56.896553"
       x="-12.068966"
       y="-56.896553"
       transform="translate(0,552.36218)"
       rx="8.8817842e-16"
       ry="8.8817794e-16" />
    <path
       sodipodi:type="star"
       style="fill:#fcdd09;fill-opacity:1;stroke:#fcdd09;stroke-width:9.21334076;stroke-linecap:round;stroke-linejoin:miter;stroke-miterlimit:4;stroke-opacity:1;stroke-dasharray:none"
       id="path4107"
       sodipodi:sides="18"
       sodipodi:cx="87.93103"
       sodipodi:cy="62.068966"
       sodipodi:r1="135.64691"
       sodipodi:r2="40.338196"
       sodipodi:arg1="0.52009484"
       sodipodi:arg2="0.69462776"
       inkscape:flatsided="false"
       inkscape:rounded="0"
       inkscape:randomized="0"
       d="M 205.64163,129.48039 118.92254,87.889425 175.48675,165.67438 108.22241,96.931983 134.77135,189.37202 95.074837,101.76955 88.406327,197.71504 81.065614,101.81863 41.983972,189.69715 67.884462,97.073325 1.1035101,166.28541 57.121222,88.105974 -29.304271,130.30362 50.0741,75.998175 -45.571745,86.091737 47.593082,62.210308 -45.736814,38.982348 49.977416,48.405393 -29.779569,-5.3424542 56.939516,36.248507 0.37531277,-41.536444 67.63965,27.205949 41.090706,-65.234092 l 39.696518,87.602478 6.668509,-95.945499 7.340713,95.896411 39.081644,-87.878513 -25.90049,92.623822 66.78095,-69.212081 -56.01771,78.179432 86.42549,-42.1976509 -79.37837,54.3054499 95.64585,-10.093562 -93.16483,23.881429 93.32989,23.22796 -95.71423,-9.423046 79.75699,53.747852 z"
       transform="matrix(1.0784984,0,0,1.0923109,-37.727944,515.41311)" />
    <rect
       style="fill:#ffffff;fill-opacity:1;stroke:none"
       id="rect4109"
       width="206.89655"
       height="351.72415"
       x="-206.89655"
       y="-129.31035"
       transform="translate(0,552.36218)"
       rx="8.8817842e-16"
       ry="8.8817794e-16" />
    <rect
       style="fill:#ffffff;fill-opacity:1;stroke:none"
       id="rect4111"
       width="393.10345"
       height="186.20689"
       x="-43.103447"
       y="-186.20689"
       transform="translate(0,552.36218)"
       rx="8.8817842e-16"
       ry="8.8817794e-16" />
  </g>
</svg>
