<?xml version="1.0" encoding="UTF-8" standalone="no"?>
<svg
   xmlns:dc="http://purl.org/dc/elements/1.1/"
   xmlns:cc="http://creativecommons.org/ns#"
   xmlns:rdf="http://www.w3.org/1999/02/22-rdf-syntax-ns#"
   xmlns:svg="http://www.w3.org/2000/svg"
   xmlns="http://www.w3.org/2000/svg"
   xmlns:sodipodi="http://sodipodi.sourceforge.net/DTD/sodipodi-0.dtd"
   xmlns:inkscape="http://www.inkscape.org/namespaces/inkscape"
   viewBox="-350 -300 900 600"
   width="900"
   height="600"
   id="svg2"
   sodipodi:version="0.32"
   inkscape:version="0.46"
   sodipodi:docname="Flag_of_El Tambo_(Nariño).svg"
   inkscape:output_extension="org.inkscape.output.svg.inkscape">
  <metadata
     id="metadata25">
    <rdf:RDF>
      <cc:Work
         rdf:about="">
        <dc:format>image/svg+xml</dc:format>
        <dc:type
           rdf:resource="http://purl.org/dc/dcmitype/StillImage" />
      </cc:Work>
    </rdf:RDF>
  </metadata>
  <defs
     id="defs23" />
  <sodipodi:namedview
     inkscape:window-height="712"
     inkscape:window-width="1024"
     inkscape:pageshadow="2"
     inkscape:pageopacity="0.0"
     guidetolerance="10.0"
     gridtolerance="10.0"
     objecttolerance="10.0"
     borderopacity="1.0"
     bordercolor="#666666"
     pagecolor="#ffffff"
     id="base"
     showgrid="false"
     inkscape:zoom="0.845"
     inkscape:cx="450"
     inkscape:cy="300"
     inkscape:window-x="-4"
     inkscape:window-y="-4"
     inkscape:current-layer="svg2" />
  <rect
     fill="#FFF"
     x="-350"
     y="-300"
     width="900"
     height="600"
     id="rect4"
     style="stroke:none;stroke-opacity:1" />
  <rect
     id="rect2400"
     height="376.36969"
     width="501.22073"
     y="-189"
     x="-350.40308"
     style="fill:#da121a;fill-opacity:1" />
  <path
     transform="translate(-343.2292,187.17533)"
     style="fill:#fcdd09;fill-opacity:1"
     d="M -7.5516279,0 L 493.90472,1.206447 L 493.92363,-48.647232 L -7.5516279,0 z"
     id="p"
     sodipodi:nodetypes="cccc" />
  <path
     style="fill:#fcdd09;fill-opacity:1"
     d="M 6.4462324e-15,-2.4265312e-14 L 514.13629,50.638004 L 558.76091,-54.555728 L 6.4462324e-15,-2.4265312e-14 z"
     id="polygon3237"
     sodipodi:nodetypes="cccc"
     transform="matrix(0.9230219,-0.3847475,0.3847475,0.9230219,-343.2292,187.17533)" />
  <path
     transform="matrix(0.7102392,-0.7039605,0.7039605,0.7102392,-343.2292,187.17533)"
     style="fill:#fcdd09;fill-opacity:1"
     d="M 3.8857806e-15,9.7838404e-16 L 593.72829,58.477132 L 486.21823,-47.888315 L 3.8857806e-15,9.7838404e-16 z"
     id="polygon3243"
     sodipodi:nodetypes="cccc" />
  <path
     transform="matrix(0.3965279,-0.9180227,0.9180227,0.3965279,-343.2292,187.17533)"
     style="fill:#fcdd09;fill-opacity:1"
     d="M -1.5543122e-15,6.1964323e-15 L 428.10527,41.675941 L 393.43977,-38.750435 L -1.5543122e-15,6.1964323e-15 z"
     id="polygon3267"
     sodipodi:nodetypes="cccc" />
  <path
     id="path3290"
     d="M -350.32873,187.06425 L -303.17318,-188.90307 L -350.4585,-188.96975 L -350.32873,187.06425 z"
     style="fill:#fcdd09;fill-opacity:1"
     sodipodi:nodetypes="cccc" />
  <path
     style="fill:#fcdd09;fill-opacity:1"
     d="M -141.5399,187.2786 L -350.69373,187.60266 L -347.24463,-13.917743 C -292.14123,-13.917743 -240.90835,8.443057 -203.4513,44.579707 C -165.99426,80.716357 -141.5399,132.1752 -141.5399,187.2786 z"
     id="circle20"
     sodipodi:nodetypes="cccsc" />
</svg>
