<?xml version="1.0" encoding="UTF-8" standalone="no"?>
<!-- Created with Inkscape (http://www.inkscape.org/) -->
<svg
   xmlns:dc="http://purl.org/dc/elements/1.1/"
   xmlns:cc="http://creativecommons.org/ns#"
   xmlns:rdf="http://www.w3.org/1999/02/22-rdf-syntax-ns#"
   xmlns:svg="http://www.w3.org/2000/svg"
   xmlns="http://www.w3.org/2000/svg"
   xmlns:sodipodi="http://sodipodi.sourceforge.net/DTD/sodipodi-0.dtd"
   xmlns:inkscape="http://www.inkscape.org/namespaces/inkscape"
   width="750"
   height="500"
   id="svg2"
   version="1.1"
   inkscape:version="0.46"
   sodipodi:docname="Flag_of_Filandia_(Quindío).svg"
   sodipodi:version="0.32"
   inkscape:output_extension="org.inkscape.output.svg.inkscape">
  <defs
     id="defs4" />
  <sodipodi:namedview
     id="base"
     pagecolor="#ffffff"
     bordercolor="#666666"
     borderopacity="1.0"
     inkscape:pageopacity="0.0"
     inkscape:pageshadow="2"
     inkscape:zoom="0.58"
     inkscape:cx="350"
     inkscape:cy="223.648"
     inkscape:document-units="px"
     inkscape:current-layer="layer1"
     showgrid="false"
     inkscape:window-width="1024"
     inkscape:window-height="712"
     inkscape:window-x="-4"
     inkscape:window-y="-4"
     inkscape:window-maximized="1" />
  <metadata
     id="metadata7">
    <rdf:RDF>
      <cc:Work
         rdf:about="">
        <dc:format>image/svg+xml</dc:format>
        <dc:type
           rdf:resource="http://purl.org/dc/dcmitype/StillImage" />
        <dc:title />
      </cc:Work>
    </rdf:RDF>
  </metadata>
  <g
     inkscape:label="Capa 1"
     inkscape:groupmode="layer"
     id="layer1"
     transform="translate(0,-552.36218)">
    <rect
       style="fill:#fcdd09;fill-opacity:1;stroke:none"
       id="rect2816"
       width="750"
       height="250"
       x="-750"
       y="552.36218"
       transform="scale(-1,1)" />
    <rect
       style="fill:#fcdd09;fill-opacity:1;stroke:none"
       id="rect2818"
       width="750"
       height="250"
       x="-750"
       y="802.36218"
       transform="scale(-1,1)" />
    <path
       style="fill:#0f47af;fill-opacity:1;stroke:none"
       d="m 749.5,552.8622 -749,249.49998 749,249.50002"
       id="path2820" />
    <g
       transform="translate(339.65517,-1.8626897e-4)"
       id="g2402"
       inkscape:label="Capa 1">
      <g
         style="stroke-width:1.18366003;stroke-miterlimit:4;stroke-dasharray:none;display:inline"
         transform="matrix(0.8837661,0,0,0.9687131,29.058466,-0.1614917)"
         id="g3866">
        <rect
           style="fill:#eac102;fill-opacity:1;fill-rule:nonzero;stroke:#000000;stroke-width:1.08077121;stroke-miterlimit:4;stroke-dasharray:none;stroke-dashoffset:0;stroke-opacity:1"
           id="rect3864"
           width="27.961164"
           height="115.33981"
           x="236.01942"
           y="841.62433" />
        <g
           style="fill:#ed1c24;fill-opacity:1;stroke:#000000;stroke-width:0.70536673;stroke-linejoin:round;stroke-miterlimit:4;stroke-dasharray:none;stroke-opacity:1;display:inline"
           id="g3516"
           transform="matrix(1.5340673,0,0,1.5303583,-434.43284,211.77132)">
          <path
             sodipodi:nodetypes="ccccccccccccc"
             id="path6096"
             d="M 391.20482,398.52625 C 404.8117,401.39317 418.41858,402.72594 432.02546,416.31986 C 452.63561,436.04985 476.0993,415.90785 491.68639,425.74001 C 496.32618,417.61127 499.25454,411.19397 501.10654,405.85302 L 494.82644,403.75966 C 503.00733,356.11869 478.61342,337.06563 450.86575,318.97834 C 434.49133,320.37391 414.31301,330.14296 411.0918,336.77195 L 415.27853,346.1921 L 424.69868,342.00536 C 413.89279,352.13313 404.82047,363.99448 399.57828,379.68595 L 397.48491,383.87269 L 391.20482,398.52625 L 391.20482,398.52625 L 391.20482,398.52625 z"
             style="fill:#ed1c24;fill-opacity:1;fill-rule:evenodd;stroke:#000000;stroke-width:0.70536673;stroke-linecap:butt;stroke-linejoin:round;stroke-miterlimit:4;stroke-dasharray:none;stroke-opacity:1" />
          <path
             sodipodi:nodetypes="cc"
             id="path6983"
             d="M 462.70758,421.57555 C 453.54417,424.42362 442.57349,420.01673 439.18949,416.90134"
             style="fill:#ed1c24;fill-opacity:1;fill-rule:evenodd;stroke:#000000;stroke-width:0.70536673;stroke-linecap:butt;stroke-linejoin:round;stroke-miterlimit:4;stroke-dasharray:none;stroke-opacity:1" />
          <path
             sodipodi:nodetypes="cc"
             id="path6985"
             d="M 423.12865,387.01273 C 414.58074,383.78176 407.07952,382.74501 398.5316,382.30266"
             style="fill:#ed1c24;fill-opacity:1;fill-rule:evenodd;stroke:#000000;stroke-width:0.70536673;stroke-linecap:butt;stroke-linejoin:round;stroke-miterlimit:4;stroke-dasharray:none;stroke-opacity:1" />
          <path
             sodipodi:nodetypes="cc"
             id="path6987"
             d="M 493.77975,403.75966 C 482.61513,398.43975 471.45052,400.94368 460.2859,399.57293"
             style="fill:#ed1c24;fill-opacity:1;fill-rule:evenodd;stroke:#000000;stroke-width:0.70536673;stroke-linecap:butt;stroke-linejoin:round;stroke-miterlimit:4;stroke-dasharray:none;stroke-opacity:1" />
          <path
             sodipodi:nodetypes="cc"
             id="path6989"
             d="M 478.07951,363.9857 C 480.39205,365.61611 481.16995,375.4608 484.35961,392.24615"
             style="fill:#ed1c24;fill-opacity:1;fill-rule:evenodd;stroke:#000000;stroke-width:0.70536673;stroke-linecap:butt;stroke-linejoin:round;stroke-miterlimit:4;stroke-dasharray:none;stroke-opacity:1" />
          <path
             sodipodi:nodetypes="cc"
             id="path6991"
             d="M 443.53898,330.49185 C 436.24185,336.86776 433.64464,334.82972 424.69868,342.00536"
             style="fill:#ed1c24;fill-opacity:1;fill-rule:evenodd;stroke:#000000;stroke-width:0.70536673;stroke-linecap:butt;stroke-linejoin:round;stroke-miterlimit:4;stroke-dasharray:none;stroke-opacity:1" />
          <path
             sodipodi:nodetypes="cc"
             id="path6993"
             d="M 463.42594,335.72527 C 466.71001,341.62603 469.11668,343.50936 470.75273,345.14541"
             style="fill:#ed1c24;fill-opacity:1;fill-rule:evenodd;stroke:#000000;stroke-width:0.70536673;stroke-linecap:butt;stroke-linejoin:round;stroke-miterlimit:4;stroke-dasharray:none;stroke-opacity:1" />
        </g>
      </g>
      <path
         transform="translate(0,552.36218)"
         id="path2882"
         d="M 245.35497,278.40666 C 241.80659,276.69729 234.54852,271.35764 229.22594,266.54078 C 223.90336,261.72392 217.0082,256.27915 213.90336,254.44129 C 208.23334,251.08501 191.67118,245.34651 182.22762,243.46619 L 177.16478,242.45812 L 181.28908,232.06307 L 185.41338,221.66802 L 192.25661,221.66802 C 196.02038,221.66802 203.52286,223.04462 208.92878,224.72713 C 214.33471,226.40964 219.1428,227.16319 219.61344,226.40169 C 220.58775,224.82521 207.17778,220.74812 195.7582,219.14886 C 191.54449,218.55876 188.09728,217.614 188.09772,217.0494 C 188.09972,214.55933 195.14109,197.8341 199.01073,191.12804 C 209.53275,172.89345 221.94753,159.3082 234.8711,151.88677 C 245.23539,145.93502 248.74963,143.07343 247.37846,141.70225 C 246.71997,141.04376 244.65838,141.88314 242.79714,143.56753 C 239.43187,146.61306 231.41312,151.50925 216.66739,159.52217 L 208.94755,163.71718 L 206.48003,157.81159 C 204.07595,152.05781 204.12466,151.78896 208.37488,147.35268 C 213.86719,141.61994 232.68783,132.26646 245.32133,128.99103 L 254.96512,126.49072 L 262.25682,131.62367 C 287.23288,149.20542 303.98894,169.64784 311.71385,191.96134 C 315.63329,203.28271 316.14586,207.14337 316.22897,225.96909 C 316.28057,237.6492 315.81541,247.71296 315.19537,248.333 C 314.57533,248.95304 311.67211,248.58796 308.74376,247.52171 C 305.81541,246.45546 295.43562,245.29813 285.67755,244.94985 C 274.253,244.5421 269.37139,244.82159 271.96788,245.73477 C 274.18562,246.51475 281.08078,247.22297 287.29046,247.30859 C 293.72148,247.39729 303.66004,248.96973 310.38217,250.96214 C 323.88941,254.96563 323.79142,254.59517 315.97473,272.10519 C 312.33236,280.26439 311.40058,281.25982 308.42593,280.1697 C 304.48567,278.72573 294.31673,278.77885 269.54852,280.37282 C 253.87658,281.3814 251.05386,281.152 245.35497,278.40666 L 245.35497,278.40666 z M 272.53599,278.50526 C 272.95315,277.83027 269.18551,277.21757 264.16343,277.14372 C 258.20765,277.05612 252.67101,275.80028 248.24181,273.53227 C 240.5864,269.61225 239.03192,269.26628 240.62006,271.83595 C 243.97363,277.26213 269.94956,282.69019 272.53599,278.50526 z M 299.56497,212.20897 C 297.84455,202.12748 295.55039,193.0549 294.46685,192.04768 C 292.93848,190.62698 292.72804,191.12045 293.52828,194.24864 C 294.09561,196.46638 295.71675,205.53897 297.13081,214.40993 C 298.54488,223.2809 300.10628,231.62767 300.6006,232.95832 C 302.97175,239.3412 302.46604,229.20891 299.56497,212.20897 L 299.56497,212.20897 L 299.56497,212.20897 z M 279.8485,157.55511 C 273.33129,147.91155 273.74993,148.38058 272.64545,149.48506 C 270.99459,151.13593 280.78672,165.2164 283.58566,165.2164 C 284.37789,165.2164 282.69617,161.76882 279.8485,157.55511 L 279.8485,157.55511 z"
         style="fill:#da121a;fill-opacity:1;stroke:none" />
      <path
         transform="translate(0,552.36218)"
         id="path2886"
         d="M 239.70981,326.33416 C 239.70981,282.28217 239.88385,279.45475 242.53239,280.47959 C 244.08481,281.08029 248.80255,282.37131 253.01626,283.34852 L 260.67755,285.12527 L 260.67755,329.20309 L 260.67755,373.28092 L 250.19368,373.28092 L 239.70981,373.28092 L 239.70981,326.33416 z"
         style="fill:#fcdd09;fill-opacity:1;stroke:none" />
    </g>
  </g>
</svg>
