<?xml version="1.0" encoding="UTF-8" standalone="no"?>
<!-- Generator: Adobe Illustrator 14.0.0, SVG Export Plug-In . SVG Version: 6.00 Build 43363)  -->

<svg
   xmlns:dc="http://purl.org/dc/elements/1.1/"
   xmlns:cc="http://creativecommons.org/ns#"
   xmlns:rdf="http://www.w3.org/1999/02/22-rdf-syntax-ns#"
   xmlns:svg="http://www.w3.org/2000/svg"
   xmlns="http://www.w3.org/2000/svg"
   xmlns:sodipodi="http://sodipodi.sourceforge.net/DTD/sodipodi-0.dtd"
   xmlns:inkscape="http://www.inkscape.org/namespaces/inkscape"
   version="1.1"
   id="Capa_1"
   x="0px"
   y="0px"
   width="750.00018"
   height="499.99966"
   viewBox="0 0 750.00018 499.99966"
   enable-background="new 0 0 960 640"
   xml:space="preserve"
   inkscape:version="0.48.2 r9819"
   sodipodi:docname="bandera de floridablanca_proporcion.svg"><title
   id="title4943">Bandera de Floridablanca</title><metadata
   id="metadata4173"><rdf:RDF><cc:Work
       rdf:about=""><dc:format>image/svg+xml</dc:format><dc:type
         rdf:resource="http://purl.org/dc/dcmitype/StillImage" /><dc:title>Bandera de Floridablanca</dc:title><cc:license
         rdf:resource="http://creativecommons.org/licenses/publicdomain/" /><dc:creator><cc:Agent><dc:title>saverco</dc:title></cc:Agent></dc:creator></cc:Work><cc:License
       rdf:about="http://creativecommons.org/licenses/publicdomain/"><cc:permits
         rdf:resource="http://creativecommons.org/ns#Reproduction" /><cc:permits
         rdf:resource="http://creativecommons.org/ns#Distribution" /><cc:permits
         rdf:resource="http://creativecommons.org/ns#DerivativeWorks" /></cc:License></rdf:RDF></metadata><defs
   id="defs4171" /><sodipodi:namedview
   pagecolor="#ffffff"
   bordercolor="#666666"
   borderopacity="1"
   objecttolerance="10"
   gridtolerance="10"
   guidetolerance="10"
   inkscape:pageopacity="0"
   inkscape:pageshadow="2"
   inkscape:window-width="1280"
   inkscape:window-height="974"
   id="namedview4169"
   showgrid="false"
   showborder="false"
   inkscape:showpageshadow="false"
   inkscape:zoom="1"
   inkscape:cx="353.55894"
   inkscape:cy="256.23391"
   inkscape:window-x="-8"
   inkscape:window-y="-8"
   inkscape:window-maximized="1"
   inkscape:current-layer="Capa_1"
   fit-margin-top="0"
   fit-margin-left="0"
   fit-margin-right="0"
   fit-margin-bottom="0" />











<g
   id="XMLID_1_"
   transform="matrix(0.78043726,0,0,0.7800307,0.39021863,0.39002)"
   style="fill:#078930;fill-opacity:1">
	<g
   id="g4139"
   style="fill:#078930;fill-opacity:1">
		<rect
   width="960"
   height="640"
   id="rect4141"
   x="0"
   y="0"
   style="fill:#078930;fill-opacity:1" />
	</g>
	<g
   id="g4143"
   style="fill:#078930;fill-opacity:1">
		<rect
   width="960"
   height="640"
   id="rect4145"
   x="0"
   y="0"
   style="fill:#078930;fill-opacity:1;stroke:#009900" />
	</g>
</g><g
   id="g3766"><circle
     transform="matrix(0.58651026,0,0,0.58651025,93.475073,62.316384)"
     sodipodi:ry="170.5"
     sodipodi:rx="170.5"
     sodipodi:cy="320"
     sodipodi:cx="480"
     style="fill:#fbbb00;fill-opacity:1;stroke:none"
     id="circle4147"
     r="170.5"
     cy="320"
     cx="480"
     d="m 650.5,320 c 0,94.16455 -76.33545,170.5 -170.5,170.5 -94.16455,0 -170.5,-76.33545 -170.5,-170.5 0,-94.16455 76.33545,-170.5 170.5,-170.5 94.16455,0 170.5,76.33545 170.5,170.5 z" /><circle
     transform="matrix(0.58225806,0,0,0.58225806,95.266129,63.927083)"
     sodipodi:ry="155"
     sodipodi:rx="155"
     sodipodi:cy="320"
     sodipodi:cx="480"
     style="fill:#078930;fill-opacity:1;stroke:none"
     id="circle4149"
     r="155"
     cy="320"
     cx="480"
     d="m 635,320 c 0,85.60414 -69.39586,155 -155,155 -85.60414,0 -155,-69.39586 -155,-155 0,-85.60414 69.39586,-155 155,-155 85.60414,0 155,69.39586 155,155 z" /><circle
     transform="matrix(0.5860215,0,0,0.5860215,93.459678,62.722783)"
     sodipodi:ry="139.5"
     sodipodi:rx="139.5"
     sodipodi:cy="320"
     sodipodi:cx="480"
     style="fill:#fbbb00;fill-opacity:1;stroke:none"
     id="circle4151"
     r="139.5"
     cy="320"
     cx="480"
     d="m 619.5,320 c 0,77.04372 -62.45628,139.5 -139.5,139.5 -77.04372,0 -139.5,-62.45628 -139.5,-139.5 0,-77.04372 62.45628,-139.5 139.5,-139.5 77.04372,0 139.5,62.45628 139.5,139.5 z" /><circle
     transform="matrix(0.58266129,0,0,0.58266129,95.07258,63.798049)"
     sodipodi:ry="124"
     sodipodi:rx="124"
     sodipodi:cy="320"
     sodipodi:cx="480"
     style="fill:#078930;fill-opacity:1;stroke:none"
     id="circle4153"
     r="124"
     cy="320"
     cx="480"
     d="m 604,320 c 0,68.48331 -55.51669,124 -124,124 -68.48331,0 -124,-55.51669 -124,-124 0,-68.48331 55.51669,-124 124,-124 68.48331,0 124,55.51669 124,124 z" /><circle
     transform="matrix(0.5875576,0,0,0.5875576,92.72235,62.23123)"
     sodipodi:ry="108.5"
     sodipodi:rx="108.5"
     sodipodi:cy="320"
     sodipodi:cx="480"
     style="fill:#fbbb00;fill-opacity:1;stroke:none"
     id="circle4155"
     r="108.5"
     cy="320"
     cx="480"
     d="m 588.5,320 c 0,59.9229 -48.5771,108.5 -108.5,108.5 -59.9229,0 -108.5,-48.5771 -108.5,-108.5 0,-59.9229 48.5771,-108.5 108.5,-108.5 59.9229,0 108.5,48.5771 108.5,108.5 z" /><circle
     transform="matrix(0.58333333,0,0,0.58333333,94.75,63.582997)"
     sodipodi:ry="93"
     sodipodi:rx="93"
     sodipodi:cy="320"
     sodipodi:cx="480"
     style="fill:#078930;fill-opacity:1;stroke:none"
     id="circle4157"
     r="93"
     cy="320"
     cx="480"
     d="m 573,320 c 0,51.36248 -41.63752,93 -93,93 -51.36248,0 -93,-41.63752 -93,-93 0,-51.36248 41.63752,-93 93,-93 51.36248,0 93,41.63752 93,93 z" /><circle
     transform="matrix(0.59032258,0,0,0.59032258,91.39516,61.346436)"
     sodipodi:ry="77.5"
     sodipodi:rx="77.5"
     sodipodi:cy="320"
     sodipodi:cx="480"
     style="fill:#fbbb00;fill-opacity:1;stroke:none"
     id="circle4159"
     r="77.5"
     cy="320"
     cx="480"
     d="m 557.5,320 c 0,42.80207 -34.69793,77.5 -77.5,77.5 -42.80207,0 -77.5,-34.69793 -77.5,-77.5 0,-42.80207 34.69793,-77.5 77.5,-77.5 42.80207,0 77.5,34.69793 77.5,77.5 z" /><circle
     transform="matrix(0.58467742,0,0,0.58467742,94.104837,63.152888)"
     sodipodi:ry="62"
     sodipodi:rx="62"
     sodipodi:cy="320"
     sodipodi:cx="480"
     style="fill:#078930;fill-opacity:1;stroke:none"
     id="circle4161"
     r="62"
     cy="320"
     cx="480"
     d="m 542,320 c 0,34.24165 -27.75835,62 -62,62 -34.24165,0 -62,-27.75835 -62,-62 0,-34.24165 27.75835,-62 62,-62 34.24165,0 62,27.75835 62,62 z" /><circle
     transform="matrix(0.59677419,0,0,0.59677419,88.298387,59.281921)"
     sodipodi:ry="46.5"
     sodipodi:rx="46.5"
     sodipodi:cy="320"
     sodipodi:cx="480"
     style="fill:#fbbb00;fill-opacity:1;stroke:none"
     id="circle4163"
     r="46.5"
     cy="320"
     cx="480"
     d="m 526.5,320 c 0,25.68124 -20.81876,46.5 -46.5,46.5 -25.68124,0 -46.5,-20.81876 -46.5,-46.5 0,-25.68124 20.81876,-46.5 46.5,-46.5 25.68124,0 46.5,20.81876 46.5,46.5 z" /><circle
     transform="matrix(0.58870967,0,0,0.58870967,92.169357,61.863161)"
     sodipodi:ry="31"
     sodipodi:rx="31"
     sodipodi:cy="319.99899"
     sodipodi:cx="480"
     style="fill:#078930;fill-opacity:1;stroke:none"
     id="circle4165"
     r="31"
     cy="319.99899"
     cx="480"
     d="m 511,319.99899 c 0,17.12083 -13.87917,31 -31,31 -17.12083,0 -31,-13.87917 -31,-31 0,-17.12082 13.87917,-31 31,-31 17.12083,0 31,13.87918 31,31 z" /><circle
     transform="matrix(0.64516129,0,0,0.64516129,65.322579,43.548049)"
     sodipodi:ry="15.5"
     sodipodi:rx="15.5"
     sodipodi:cy="320"
     sodipodi:cx="480"
     style="fill:#fbbb00;fill-opacity:1;stroke:none"
     id="circle4167"
     r="15.5"
     cy="320"
     cx="480"
     d="m 495.5,320 c 0,8.56041 -6.93959,15.5 -15.5,15.5 -8.56041,0 -15.5,-6.93959 -15.5,-15.5 0,-8.56041 6.93959,-15.5 15.5,-15.5 8.56041,0 15.5,6.93959 15.5,15.5 z" /></g>
</svg>