<?xml version="1.0" encoding="UTF-8" standalone="no"?>
<!-- Created with Inkscape (http://www.inkscape.org/) -->
<svg
   xmlns:dc="http://purl.org/dc/elements/1.1/"
   xmlns:cc="http://creativecommons.org/ns#"
   xmlns:rdf="http://www.w3.org/1999/02/22-rdf-syntax-ns#"
   xmlns:svg="http://www.w3.org/2000/svg"
   xmlns="http://www.w3.org/2000/svg"
   xmlns:sodipodi="http://sodipodi.sourceforge.net/DTD/sodipodi-0.dtd"
   xmlns:inkscape="http://www.inkscape.org/namespaces/inkscape"
   width="750"
   height="500"
   id="svg2"
   version="1.1"
   inkscape:version="0.46"
   sodipodi:docname="Flag of Galán (Santander).svg"
   sodipodi:version="0.32"
   inkscape:output_extension="org.inkscape.output.svg.inkscape">
  <defs
     id="defs4" />
  <sodipodi:namedview
     id="base"
     pagecolor="#ffffff"
     bordercolor="#666666"
     borderopacity="1.0"
     inkscape:pageopacity="0.0"
     inkscape:pageshadow="2"
     inkscape:zoom="1.014"
     inkscape:cx="375"
     inkscape:cy="250"
     inkscape:document-units="px"
     inkscape:current-layer="layer1"
     showgrid="false"
     inkscape:window-width="1024"
     inkscape:window-height="712"
     inkscape:window-x="-4"
     inkscape:window-y="-4"
     inkscape:window-maximized="1" />
  <metadata
     id="metadata7">
    <rdf:RDF>
      <cc:Work
         rdf:about="">
        <dc:format>image/svg+xml</dc:format>
        <dc:type
           rdf:resource="http://purl.org/dc/dcmitype/StillImage" />
        <dc:title />
      </cc:Work>
    </rdf:RDF>
  </metadata>
  <g
     inkscape:label="Capa 1"
     inkscape:groupmode="layer"
     id="layer1"
     transform="translate(0,-552.36218)">
    <rect
       style="fill:#fcdd09;stroke:none;fill-opacity:1"
       id="rect3592"
       width="750"
       height="166.666"
       x="0.67549038"
       y="-885.69617"
       transform="scale(1,-1)" />
    <rect
       transform="scale(1,-1)"
       y="-885.69489"
       x="478.20847"
       height="166.666"
       width="272.19482"
       id="rect2384"
       style="fill:#da121a;fill-opacity:1;stroke:none" />
    <rect
       style="fill:#ffffff;fill-opacity:1;stroke:none"
       id="rect3594"
       width="750"
       height="166.666"
       x="0.67549038"
       y="-719.0282"
       transform="scale(1,-1)" />
    <rect
       style="fill:#078930;stroke:none"
       id="rect3596"
       width="750"
       height="166.666"
       x="0.67549038"
       y="885.69617" />
    <rect
       transform="matrix(1.9830259e-3,0.999998,-0.9999998,5.9436271e-4,0,0)"
       y="-203.84772"
       x="551.04974"
       height="204.94048"
       width="504.89838"
       id="rect3153"
       style="fill:#0f47af;fill-opacity:1;stroke:none" />
    <path
       sodipodi:type="star"
       style="opacity:1;fill:#fcdd09;fill-opacity:1;stroke:none;stroke-width:0.69999999000000002;stroke-linejoin:round;stroke-miterlimit:4;stroke-dasharray:none;stroke-dashoffset:0;stroke-opacity:1"
       id="path2401"
       sodipodi:sides="5"
       sodipodi:cx="22.484781"
       sodipodi:cy="21.169149"
       sodipodi:r1="24.005632"
       sodipodi:r2="8.6421814"
       sodipodi:arg1="0.93521062"
       sodipodi:arg2="1.5635292"
       inkscape:flatsided="false"
       inkscape:rounded="0"
       inkscape:randomized="0"
       d="M 36.7357,40.487061 L 22.547585,29.811103 L 8.5161315,40.692141 L 14.285203,23.899389 L -0.39923751,13.91711 L 17.35436,14.214577 L 22.31033,-2.8358491 L 27.513585,14.140748 L 45.260983,13.585284 L 30.723174,23.77993 L 36.7357,40.487061 z"
       transform="translate(15.797141,566.35639)" />
    <path
       transform="translate(145.79714,566.35639)"
       d="M 36.7357,40.487061 L 22.547585,29.811103 L 8.5161315,40.692141 L 14.285203,23.899389 L -0.39923751,13.91711 L 17.35436,14.214577 L 22.31033,-2.8358491 L 27.513585,14.140748 L 45.260983,13.585284 L 30.723174,23.77993 L 36.7357,40.487061 z"
       inkscape:randomized="0"
       inkscape:rounded="0"
       inkscape:flatsided="false"
       sodipodi:arg2="1.5635292"
       sodipodi:arg1="0.93521062"
       sodipodi:r2="8.6421814"
       sodipodi:r1="24.005632"
       sodipodi:cy="21.169149"
       sodipodi:cx="22.484781"
       sodipodi:sides="5"
       id="path2403"
       style="opacity:1;fill:#fcdd09;fill-opacity:1;stroke:none;stroke-width:0.69999999;stroke-linejoin:round;stroke-miterlimit:4;stroke-dasharray:none;stroke-dashoffset:0;stroke-opacity:1"
       sodipodi:type="star" />
    <path
       transform="translate(15.797141,636.35639)"
       d="M 36.7357,40.487061 L 22.547585,29.811103 L 8.5161315,40.692141 L 14.285203,23.899389 L -0.39923751,13.91711 L 17.35436,14.214577 L 22.31033,-2.8358491 L 27.513585,14.140748 L 45.260983,13.585284 L 30.723174,23.77993 L 36.7357,40.487061 z"
       inkscape:randomized="0"
       inkscape:rounded="0"
       inkscape:flatsided="false"
       sodipodi:arg2="1.5635292"
       sodipodi:arg1="0.93521062"
       sodipodi:r2="8.6421814"
       sodipodi:r1="24.005632"
       sodipodi:cy="21.169149"
       sodipodi:cx="22.484781"
       sodipodi:sides="5"
       id="path2405"
       style="opacity:1;fill:#fcdd09;fill-opacity:1;stroke:none;stroke-width:0.69999999000000002;stroke-linejoin:round;stroke-miterlimit:4;stroke-dasharray:none;stroke-dashoffset:0;stroke-opacity:1"
       sodipodi:type="star" />
    <path
       sodipodi:type="star"
       style="opacity:1;fill:#fcdd09;fill-opacity:1;stroke:none;stroke-width:0.69999999;stroke-linejoin:round;stroke-miterlimit:4;stroke-dasharray:none;stroke-dashoffset:0;stroke-opacity:1"
       id="path2407"
       sodipodi:sides="5"
       sodipodi:cx="22.484781"
       sodipodi:cy="21.169149"
       sodipodi:r1="24.005632"
       sodipodi:r2="8.6421814"
       sodipodi:arg1="0.93521062"
       sodipodi:arg2="1.5635292"
       inkscape:flatsided="false"
       inkscape:rounded="0"
       inkscape:randomized="0"
       d="M 36.7357,40.487061 L 22.547585,29.811103 L 8.5161315,40.692141 L 14.285203,23.899389 L -0.39923751,13.91711 L 17.35436,14.214577 L 22.31033,-2.8358491 L 27.513585,14.140748 L 45.260983,13.585284 L 30.723174,23.77993 L 36.7357,40.487061 z"
       transform="translate(145.79714,636.35639)" />
    <path
       sodipodi:type="star"
       style="opacity:1;fill:#fcdd09;fill-opacity:1;stroke:none;stroke-width:0.69999999000000002;stroke-linejoin:round;stroke-miterlimit:4;stroke-dasharray:none;stroke-dashoffset:0;stroke-opacity:1"
       id="path2409"
       sodipodi:sides="5"
       sodipodi:cx="22.484781"
       sodipodi:cy="21.169149"
       sodipodi:r1="24.005632"
       sodipodi:r2="8.6421814"
       sodipodi:arg1="0.93521062"
       sodipodi:arg2="1.5635292"
       inkscape:flatsided="false"
       inkscape:rounded="0"
       inkscape:randomized="0"
       d="M 36.7357,40.487061 L 22.547585,29.811103 L 8.5161315,40.692141 L 14.285203,23.899389 L -0.39923751,13.91711 L 17.35436,14.214577 L 22.31033,-2.8358491 L 27.513585,14.140748 L 45.260983,13.585284 L 30.723174,23.77993 L 36.7357,40.487061 z"
       transform="translate(15.797141,710.35639)" />
    <path
       transform="translate(145.79714,710.35639)"
       d="M 36.7357,40.487061 L 22.547585,29.811103 L 8.5161315,40.692141 L 14.285203,23.899389 L -0.39923751,13.91711 L 17.35436,14.214577 L 22.31033,-2.8358491 L 27.513585,14.140748 L 45.260983,13.585284 L 30.723174,23.77993 L 36.7357,40.487061 z"
       inkscape:randomized="0"
       inkscape:rounded="0"
       inkscape:flatsided="false"
       sodipodi:arg2="1.5635292"
       sodipodi:arg1="0.93521062"
       sodipodi:r2="8.6421814"
       sodipodi:r1="24.005632"
       sodipodi:cy="21.169149"
       sodipodi:cx="22.484781"
       sodipodi:sides="5"
       id="path2411"
       style="opacity:1;fill:#fcdd09;fill-opacity:1;stroke:none;stroke-width:0.69999999;stroke-linejoin:round;stroke-miterlimit:4;stroke-dasharray:none;stroke-dashoffset:0;stroke-opacity:1"
       sodipodi:type="star" />
    <path
       transform="translate(15.797141,852.35639)"
       d="M 36.7357,40.487061 L 22.547585,29.811103 L 8.5161315,40.692141 L 14.285203,23.899389 L -0.39923751,13.91711 L 17.35436,14.214577 L 22.31033,-2.8358491 L 27.513585,14.140748 L 45.260983,13.585284 L 30.723174,23.77993 L 36.7357,40.487061 z"
       inkscape:randomized="0"
       inkscape:rounded="0"
       inkscape:flatsided="false"
       sodipodi:arg2="1.5635292"
       sodipodi:arg1="0.93521062"
       sodipodi:r2="8.6421814"
       sodipodi:r1="24.005632"
       sodipodi:cy="21.169149"
       sodipodi:cx="22.484781"
       sodipodi:sides="5"
       id="path2413"
       style="opacity:1;fill:#fcdd09;fill-opacity:1;stroke:none;stroke-width:0.69999999000000002;stroke-linejoin:round;stroke-miterlimit:4;stroke-dasharray:none;stroke-dashoffset:0;stroke-opacity:1"
       sodipodi:type="star" />
    <path
       sodipodi:type="star"
       style="opacity:1;fill:#fcdd09;fill-opacity:1;stroke:none;stroke-width:0.69999999;stroke-linejoin:round;stroke-miterlimit:4;stroke-dasharray:none;stroke-dashoffset:0;stroke-opacity:1"
       id="path2415"
       sodipodi:sides="5"
       sodipodi:cx="22.484781"
       sodipodi:cy="21.169149"
       sodipodi:r1="24.005632"
       sodipodi:r2="8.6421814"
       sodipodi:arg1="0.93521062"
       sodipodi:arg2="1.5635292"
       inkscape:flatsided="false"
       inkscape:rounded="0"
       inkscape:randomized="0"
       d="M 36.7357,40.487061 L 22.547585,29.811103 L 8.5161315,40.692141 L 14.285203,23.899389 L -0.39923751,13.91711 L 17.35436,14.214577 L 22.31033,-2.8358491 L 27.513585,14.140748 L 45.260983,13.585284 L 30.723174,23.77993 L 36.7357,40.487061 z"
       transform="translate(145.79714,852.35639)" />
    <path
       sodipodi:type="star"
       style="opacity:1;fill:#fcdd09;fill-opacity:1;stroke:none;stroke-width:0.69999999000000002;stroke-linejoin:round;stroke-miterlimit:4;stroke-dasharray:none;stroke-dashoffset:0;stroke-opacity:1"
       id="path2417"
       sodipodi:sides="5"
       sodipodi:cx="22.484781"
       sodipodi:cy="21.169149"
       sodipodi:r1="24.005632"
       sodipodi:r2="8.6421814"
       sodipodi:arg1="0.93521062"
       sodipodi:arg2="1.5635292"
       inkscape:flatsided="false"
       inkscape:rounded="0"
       inkscape:randomized="0"
       d="M 36.7357,40.487061 L 22.547585,29.811103 L 8.5161315,40.692141 L 14.285203,23.899389 L -0.39923751,13.91711 L 17.35436,14.214577 L 22.31033,-2.8358491 L 27.513585,14.140748 L 45.260983,13.585284 L 30.723174,23.77993 L 36.7357,40.487061 z"
       transform="translate(15.797141,922.35639)" />
    <path
       transform="translate(145.79714,922.35639)"
       d="M 36.7357,40.487061 L 22.547585,29.811103 L 8.5161315,40.692141 L 14.285203,23.899389 L -0.39923751,13.91711 L 17.35436,14.214577 L 22.31033,-2.8358491 L 27.513585,14.140748 L 45.260983,13.585284 L 30.723174,23.77993 L 36.7357,40.487061 z"
       inkscape:randomized="0"
       inkscape:rounded="0"
       inkscape:flatsided="false"
       sodipodi:arg2="1.5635292"
       sodipodi:arg1="0.93521062"
       sodipodi:r2="8.6421814"
       sodipodi:r1="24.005632"
       sodipodi:cy="21.169149"
       sodipodi:cx="22.484781"
       sodipodi:sides="5"
       id="path2419"
       style="opacity:1;fill:#fcdd09;fill-opacity:1;stroke:none;stroke-width:0.69999999;stroke-linejoin:round;stroke-miterlimit:4;stroke-dasharray:none;stroke-dashoffset:0;stroke-opacity:1"
       sodipodi:type="star" />
    <path
       transform="translate(15.797141,996.35639)"
       d="M 36.7357,40.487061 L 22.547585,29.811103 L 8.5161315,40.692141 L 14.285203,23.899389 L -0.39923751,13.91711 L 17.35436,14.214577 L 22.31033,-2.8358491 L 27.513585,14.140748 L 45.260983,13.585284 L 30.723174,23.77993 L 36.7357,40.487061 z"
       inkscape:randomized="0"
       inkscape:rounded="0"
       inkscape:flatsided="false"
       sodipodi:arg2="1.5635292"
       sodipodi:arg1="0.93521062"
       sodipodi:r2="8.6421814"
       sodipodi:r1="24.005632"
       sodipodi:cy="21.169149"
       sodipodi:cx="22.484781"
       sodipodi:sides="5"
       id="path2421"
       style="opacity:1;fill:#fcdd09;fill-opacity:1;stroke:none;stroke-width:0.69999999000000002;stroke-linejoin:round;stroke-miterlimit:4;stroke-dasharray:none;stroke-dashoffset:0;stroke-opacity:1"
       sodipodi:type="star" />
    <path
       sodipodi:type="star"
       style="opacity:1;fill:#fcdd09;fill-opacity:1;stroke:none;stroke-width:0.69999999;stroke-linejoin:round;stroke-miterlimit:4;stroke-dasharray:none;stroke-dashoffset:0;stroke-opacity:1"
       id="path2423"
       sodipodi:sides="5"
       sodipodi:cx="22.484781"
       sodipodi:cy="21.169149"
       sodipodi:r1="24.005632"
       sodipodi:r2="8.6421814"
       sodipodi:arg1="0.93521062"
       sodipodi:arg2="1.5635292"
       inkscape:flatsided="false"
       inkscape:rounded="0"
       inkscape:randomized="0"
       d="M 36.7357,40.487061 L 22.547585,29.811103 L 8.5161315,40.692141 L 14.285203,23.899389 L -0.39923751,13.91711 L 17.35436,14.214577 L 22.31033,-2.8358491 L 27.513585,14.140748 L 45.260983,13.585284 L 30.723174,23.77993 L 36.7357,40.487061 z"
       transform="translate(145.79714,996.35639)" />
    <path
       transform="translate(15.797141,780.35639)"
       d="M 36.7357,40.487061 L 22.547585,29.811103 L 8.5161315,40.692141 L 14.285203,23.899389 L -0.39923751,13.91711 L 17.35436,14.214577 L 22.31033,-2.8358491 L 27.513585,14.140748 L 45.260983,13.585284 L 30.723174,23.77993 L 36.7357,40.487061 z"
       inkscape:randomized="0"
       inkscape:rounded="0"
       inkscape:flatsided="false"
       sodipodi:arg2="1.5635292"
       sodipodi:arg1="0.93521062"
       sodipodi:r2="8.6421814"
       sodipodi:r1="24.005632"
       sodipodi:cy="21.169149"
       sodipodi:cx="22.484781"
       sodipodi:sides="5"
       id="path2425"
       style="opacity:1;fill:#fcdd09;fill-opacity:1;stroke:none;stroke-width:0.69999999000000002;stroke-linejoin:round;stroke-miterlimit:4;stroke-dasharray:none;stroke-dashoffset:0;stroke-opacity:1"
       sodipodi:type="star" />
    <path
       sodipodi:type="star"
       style="opacity:1;fill:#fcdd09;fill-opacity:1;stroke:none;stroke-width:0.69999999;stroke-linejoin:round;stroke-miterlimit:4;stroke-dasharray:none;stroke-dashoffset:0;stroke-opacity:1"
       id="path2427"
       sodipodi:sides="5"
       sodipodi:cx="22.484781"
       sodipodi:cy="21.169149"
       sodipodi:r1="24.005632"
       sodipodi:r2="8.6421814"
       sodipodi:arg1="0.93521062"
       sodipodi:arg2="1.5635292"
       inkscape:flatsided="false"
       inkscape:rounded="0"
       inkscape:randomized="0"
       d="M 36.7357,40.487061 L 22.547585,29.811103 L 8.5161315,40.692141 L 14.285203,23.899389 L -0.39923751,13.91711 L 17.35436,14.214577 L 22.31033,-2.8358491 L 27.513585,14.140748 L 45.260983,13.585284 L 30.723174,23.77993 L 36.7357,40.487061 z"
       transform="translate(145.79714,780.35639)" />
    <path
       sodipodi:type="star"
       style="opacity:1;fill:#fcdd09;fill-opacity:1;stroke:none;stroke-width:0.69999999;stroke-linejoin:round;stroke-miterlimit:4;stroke-dasharray:none;stroke-dashoffset:0;stroke-opacity:1"
       id="path2429"
       sodipodi:sides="5"
       sodipodi:cx="22.484781"
       sodipodi:cy="21.169149"
       sodipodi:r1="24.005632"
       sodipodi:r2="8.6421814"
       sodipodi:arg1="0.93521062"
       sodipodi:arg2="1.5635292"
       inkscape:flatsided="false"
       inkscape:rounded="0"
       inkscape:randomized="0"
       d="M 36.7357,40.487061 L 22.547585,29.811103 L 8.5161315,40.692141 L 14.285203,23.899389 L -0.39923751,13.91711 L 17.35436,14.214577 L 22.31033,-2.8358491 L 27.513585,14.140748 L 45.260983,13.585284 L 30.723174,23.77993 L 36.7357,40.487061 z"
       transform="translate(81.797141,780.35639)" />
  </g>
</svg>
