<?xml version="1.0" encoding="UTF-8" standalone="no"?>
<!-- Created with Inkscape (http://www.inkscape.org/) -->

<svg
   xmlns:dc="http://purl.org/dc/elements/1.1/"
   xmlns:cc="http://creativecommons.org/ns#"
   xmlns:rdf="http://www.w3.org/1999/02/22-rdf-syntax-ns#"
   xmlns:svg="http://www.w3.org/2000/svg"
   xmlns="http://www.w3.org/2000/svg"
   xmlns:xlink="http://www.w3.org/1999/xlink"
   xmlns:sodipodi="http://sodipodi.sourceforge.net/DTD/sodipodi-0.dtd"
   xmlns:inkscape="http://www.inkscape.org/namespaces/inkscape"
   width="750"
   height="500"
   id="svg2"
   version="1.1"
   inkscape:version="0.47 r22583"
   sodipodi:docname="Documento nuevo 1">
  <defs
     id="defs4">
    <inkscape:perspective
       sodipodi:type="inkscape:persp3d"
       inkscape:vp_x="0 : 526.18109 : 1"
       inkscape:vp_y="0 : 1000 : 0"
       inkscape:vp_z="744.09448 : 526.18109 : 1"
       inkscape:persp3d-origin="372.04724 : 350.78739 : 1"
       id="perspective10" />
    <inkscape:perspective
       id="perspective2826"
       inkscape:persp3d-origin="0.5 : 0.33333333 : 1"
       inkscape:vp_z="1 : 0.5 : 1"
       inkscape:vp_y="0 : 1000 : 0"
       inkscape:vp_x="0 : 0.5 : 1"
       sodipodi:type="inkscape:persp3d" />
  </defs>
  <sodipodi:namedview
     id="base"
     pagecolor="#ffffff"
     bordercolor="#666666"
     borderopacity="1.0"
     inkscape:pageopacity="0.0"
     inkscape:pageshadow="2"
     inkscape:zoom="0.615"
     inkscape:cx="350"
     inkscape:cy="241.12498"
     inkscape:document-units="px"
     inkscape:current-layer="layer1"
     showgrid="false"
     inkscape:window-width="1024"
     inkscape:window-height="538"
     inkscape:window-x="-8"
     inkscape:window-y="-8"
     inkscape:window-maximized="1" />
  <metadata
     id="metadata7">
    <rdf:RDF>
      <cc:Work
         rdf:about="">
        <dc:format>image/svg+xml</dc:format>
        <dc:type
           rdf:resource="http://purl.org/dc/dcmitype/StillImage" />
        <dc:title></dc:title>
      </cc:Work>
    </rdf:RDF>
  </metadata>
  <g
     inkscape:label="Capa 1"
     inkscape:groupmode="layer"
     id="layer1"
     transform="translate(0,-552.36218)">
    <rect
       style="fill:#078930;fill-opacity:1;stroke:none"
       id="rect2816"
       width="750"
       height="500"
       x="0"
       y="-5.6843419e-14"
       transform="translate(0,552.36218)" />
    <image
       xlink:href="file:///C:/Users/Michael/Videos/Pictures/gRENADE.PNG"
       width="210"
       height="250"
       id="image12"
       x="275"
       y="677.36218" />
    <path
       style="fill:#fcdd09;fill-opacity:1;stroke:none"
       d="m 368.50807,272.11991 c -15.00929,-5.36451 -27.1593,-16.18646 -34.17687,-30.44116 -5.99907,-12.18585 -6.50537,-14.79539 -5.59655,-28.8455 0.7943,-12.27951 2.27012,-17.48359 7.19612,-25.37511 6.16917,-9.8831 23.05315,-25.11888 27.87983,-25.15821 5.19923,-0.0424 5.11027,-4.67925 -0.22395,-11.67277 -6.90528,-9.05328 -6.86836,-9.62448 0.62192,-9.62448 3.94237,0 7.31292,1.70515 9.46287,4.78723 3.25239,4.66249 3.34231,4.67287 3.451,0.39807 0.0614,-2.41404 2.80754,-6.97204 6.10257,-10.12888 l 5.99096,-5.73971 4.64734,4.94686 c 2.55603,2.72077 4.64733,6.66312 4.64733,8.76077 0,2.7978 0.99199,3.40552 3.7234,2.28105 7.32288,-3.01469 11.15719,-3.638 14.49653,-2.35658 2.75723,1.05805 2.16753,2.32939 -3.1597,6.81196 -8.301,6.98483 -8.23432,9.63871 0.3653,14.53715 32.09358,18.28089 39.29789,64.1256 14.21983,90.48812 -8.68933,9.13438 -27.20639,19.19939 -35.38887,19.23573 -4.3809,0.0194 -4.13996,-0.76135 3.77364,-12.22941 11.91637,-17.2687 16.76047,-40.56855 12.99706,-62.5151 -3.02203,-17.62309 -9.04577,-31.05089 -17.61052,-39.25645 l -5.89943,-5.65201 -5.63453,6.07975 c -11.04718,11.92011 -18.42839,33.55682 -18.42839,54.01953 0,20.60867 7.29418,41.13316 19.09272,53.72341 l 5.48313,5.85106 -5.1853,-0.0934 c -2.85191,-0.0514 -8.63326,-1.32573 -12.84744,-2.83193 l 0,-10e-6 z"
       id="path2827"
       transform="translate(0,552.36218)" />
    <path
       style="fill:#da121a;fill-opacity:1;stroke:none"
       d="m 380.67576,219.534 c -3.10155,-3.17284 -3.13775,-6.22789 -0.11483,-9.69018 3.75845,-4.30474 10.23138,-3.4612 12.33065,1.6069 1.40309,3.38736 -0.26858,8.75527 -3.05666,9.8153 -3.69758,1.40582 -6.63477,0.85039 -9.15916,-1.73202 z"
       id="path2829"
       transform="translate(0,552.36218)" />
    <path
       style="fill:#da121a;fill-opacity:1;stroke:none"
       d="m 382.76664,201.90381 c -4.55082,-4.90786 -1.38151,-12.39514 5.24677,-12.39514 2.55396,0 3.7892,0.49917 5.31843,2.14923 3.00764,3.2453 2.9298,6.55916 -0.23757,10.11399 -2.88786,3.24113 -7.39126,3.29866 -10.32763,0.13192 l 0,0 z"
       id="path2831"
       transform="translate(0,552.36218)" />
    <path
       style="fill:#da121a;fill-opacity:1;stroke:none"
       d="m 384.35828,183.96604 c -2.68449,-1.8505 -3.29346,-2.77396 -3.50481,-5.31475 -0.27981,-3.36381 1.55345,-7.01218 3.52353,-7.01218 0.65981,0 1.19965,-0.36551 1.19965,-0.81225 0,-0.44674 1.06843,-0.81225 2.37428,-0.81225 3.6623,0 7.57186,4.32241 7.51682,8.3106 -0.0459,3.32852 -2.45717,6.23038 -5.22064,6.28292 -0.7818,0.0149 -1.42145,0.39253 -1.42145,0.83927 0,1.25866 -0.949,0.94398 -4.46738,-1.48136 z"
       id="path2833"
       transform="translate(0,552.36218)" />
    <path
       style="fill:#da121a;fill-opacity:1;stroke:none"
       d="m 370.4198,191.13482 c -1.62442,-0.6551 -1.68986,-0.96784 -0.88151,-4.21284 0.48024,-1.92786 1.16429,-3.70077 1.52012,-3.9398 0.35582,-0.23902 1.22487,-1.81776 1.93122,-3.5083 1.40039,-3.3516 3.08054,-3.5709 3.53107,-0.46087 0.15673,1.08185 0.55087,2.14976 0.87588,2.37313 0.32501,0.22337 1.18969,1.62562 1.9215,3.11612 1.19442,2.43271 1.20482,2.90189 0.10161,4.5856 -1.7582,2.68334 -5.37952,3.50699 -8.99989,2.04696 l 0,0 z"
       id="path2835"
       transform="translate(0,552.36218)" />
    <path
       style="fill:#da121a;fill-opacity:1;stroke:none"
       d="m 376.64188,173.03822 c 0,-1.1984 1.72688,-3.79845 4.53595,-6.82949 1.07914,-1.16441 1.96207,-2.42924 1.96207,-2.81075 0,-1.36227 3.20753,-0.66435 4.03268,0.87746 1.16226,2.1717 1.07069,2.49016 -0.71599,2.49016 -0.85624,0 -1.67865,0.27413 -1.82756,0.60919 -0.14892,0.33505 -1.36729,1.16643 -2.70751,1.8475 -1.34022,0.68107 -2.79757,2.05175 -3.23856,3.04595 -0.87684,1.97683 -2.04108,2.41603 -2.04108,0.76998 z"
       id="path2837"
       transform="translate(0,552.36218)" />
    <path
       style="fill:#da121a;fill-opacity:1;stroke:none"
       d="m 398.57269,193.59215 c 0,-0.76673 -0.91333,-2.45607 -2.02964,-3.75408 -2.42405,-2.81866 -2.46739,-3.17271 -0.55669,-4.54767 0.81122,-0.58376 1.71353,-1.70102 2.00514,-2.48282 0.95829,-2.56909 2.90972,-1.5687 3.96112,2.03063 0.5546,1.89864 1.24758,3.63483 1.53995,3.8582 0.29236,0.22337 0.76763,1.6916 1.05614,3.26273 l 0.52457,2.8566 -3.25029,0.0852 c -2.56279,0.0672 -3.2503,-0.20964 -3.2503,-1.30882 z"
       id="path2839"
       transform="translate(0,552.36218)" />
    <path
       style="fill:#da121a;fill-opacity:1;stroke:none"
       d="m 398.01223,211.64254 c -1.49315,-1.3091 -3.5008,-4.39872 -3.5008,-5.38745 0,-0.22972 0.91379,-1.40367 2.03063,-2.60877 1.11685,-1.20509 2.03063,-2.82911 2.03063,-3.60893 0,-1.57612 3.31418,-2.75279 5.65812,-2.00885 2.62757,0.83396 3.66224,13.58974 1.1796,14.54242 -2.39994,0.92094 -5.7714,0.49785 -7.39818,-0.92842 z"
       id="path2841"
       transform="translate(0,552.36218)" />
    <path
       style="fill:#da121a;fill-opacity:1;stroke:none"
       d="m 366.69179,209.25507 c -1.55251,-0.40571 -1.72472,-2.07848 -0.91107,-8.84937 0.56976,-4.74136 2.19188,-6.25471 5.90771,-5.51154 1.61528,0.32305 3.11521,1.5309 4.50036,3.62401 2.28265,3.44932 2.48319,4.38274 1.2565,5.84838 -0.4516,0.53957 -1.57467,1.9862 -2.49571,3.21473 -1.65273,2.20449 -4.22887,2.72666 -8.25779,1.67379 z"
       id="path2843"
       transform="translate(0,552.36218)" />
    <path
       style="fill:#da121a;fill-opacity:1;stroke:none"
       d="m 365.78702,227.88759 c -0.22278,-0.78179 -0.52154,-3.98004 -0.66392,-7.10721 l -0.25888,-5.68576 3.94424,-0.25109 c 4.56772,-0.29077 6.56613,1.02184 7.32386,4.8105 0.59729,2.98646 -1.35245,8.0305 -3.10413,8.0305 -0.6929,0 -1.25983,0.36551 -1.25983,0.81225 0,0.44674 -1.25466,0.81225 -2.78814,0.81225 -1.95958,0 -2.90852,-0.42242 -3.1932,-1.42144 z"
       id="path2845"
       transform="translate(0,552.36218)" />
    <path
       style="fill:#da121a;fill-opacity:1;stroke:none"
       d="m 368.96579,240.07138 c -0.8113,-3.46223 -1.8833,-6.5635 -2.38221,-6.89171 -0.52553,-0.34572 -0.12681,-0.60198 0.94783,-0.60919 2.82481,-0.0189 6.67371,4.36861 6.67371,7.60768 0,2.26414 -2.15526,6.18817 -3.39883,6.18817 -0.20097,0 -1.02919,-2.83273 -1.8405,-6.29495 z"
       id="path2847"
       transform="translate(0,552.36218)" />
    <path
       style="fill:#da121a;fill-opacity:1;stroke:none"
       d="m 379.07864,238.24381 c -1.12714,-1.12714 -1.62451,-2.70751 -1.62451,-5.16184 0,-2.98772 0.40294,-3.87114 2.59334,-5.68576 3.50278,-2.90185 6.40806,-2.7691 9.61657,0.4394 2.30881,2.30881 2.54472,2.97044 2.18791,6.1361 -0.49899,4.42703 -2.24999,5.83702 -7.29061,5.87077 -2.79951,0.0188 -4.30396,-0.41993 -5.4827,-1.59867 z"
       id="path2849"
       transform="translate(0,552.36218)" />
    <path
       style="fill:#da121a;fill-opacity:1;stroke:none"
       d="m 378.06332,256.86055 c -0.78179,-0.45535 -1.42144,-1.35802 -1.42144,-2.00593 0,-0.64791 -0.36551,-1.17802 -0.81225,-1.17802 -0.44674,0 -0.81226,-1.29161 -0.81226,-2.87025 0,-3.95089 3.784,-7.68903 7.78337,-7.68903 5.82395,0 8.97276,7.62525 5.15372,12.48038 -1.34692,1.71233 -2.36178,2.13523 -5.07658,2.11547 -1.86621,-0.0136 -4.03277,-0.39726 -4.81456,-0.85262 z"
       id="path2851"
       transform="translate(0,552.36218)" />
    <path
       style="fill:#da121a;fill-opacity:1;stroke:none"
       d="m 398.00636,229.98131 c -1.77025,-0.87513 -3.49493,-4.4486 -3.49493,-7.24137 0,-0.79924 1.04369,-2.59587 2.31932,-3.9925 2.02953,-2.22205 2.76532,-2.5074 5.88883,-2.28382 l 3.56951,0.2555 0.23599,3.65514 c 0.12979,2.01032 -0.0673,5.11719 -0.438,6.90414 -0.61937,2.98573 -0.90177,3.26263 -3.485,3.4171 -1.54605,0.0924 -3.61413,-0.22894 -4.59572,-0.71419 z"
       id="path2853"
       transform="translate(0,552.36218)" />
    <path
       style="fill:#da121a;fill-opacity:1;stroke:none"
       d="m 397.2587,248.06841 c -1.3928,-0.85113 -2.77968,-2.53287 -3.08194,-3.73721 -0.82476,-3.28607 0.84057,-7.4589 3.21455,-8.05473 1.0965,-0.2752 1.99364,-0.85892 1.99364,-1.29715 0,-1.11881 2.72649,-0.99438 3.89881,0.17793 1.08486,1.08487 1.31175,3.61454 0.36182,4.03419 -0.33709,0.14891 -1.34225,2.55534 -2.23369,5.34761 l -1.62082,5.07687 -2.53237,-1.54751 z"
       id="path2855"
       transform="translate(0,552.36218)" />
    <path
       style="fill:#da121a;fill-opacity:1;stroke:none"
       d="m 388.65335,262.47331 c -1.50974,-1.89009 -1.24735,-3.11094 0.66863,-3.11094 0.66698,0 1.59495,-1.09654 2.06215,-2.43676 0.46721,-1.34021 1.17922,-2.43675 1.58226,-2.43675 0.40303,0 0.73279,-0.73103 0.73279,-1.62451 0,-1.69459 1.27777,-2.0771 3.09293,-0.9259 0.85508,0.5423 0.77586,1.28373 -0.40613,3.80081 -0.80763,1.71989 -2.29083,4.02309 -3.29599,5.11821 -1.00516,1.09512 -1.82757,2.30327 -1.82757,2.68477 0,1.2108 -1.17148,0.73084 -2.60907,-1.06893 z"
       id="path2857"
       transform="translate(0,552.36218)" />
    <path
       style="fill:#da121a;fill-opacity:1;stroke:none"
       d="m 384.11439,266.91606 c -2.05891,-2.55879 -2.34306,-5.11693 -0.56837,-5.11693 0.67011,0 1.21838,0.54827 1.21838,1.21838 0,0.67011 0.32289,1.21838 0.71752,1.21838 0.59044,0 1.60396,2.42655 1.6963,4.06126 0.0712,1.25987 -1.51362,0.54549 -3.06383,-1.38109 z"
       id="path2859"
       transform="translate(0,552.36218)" />
    <path
       style="fill:#81b31c;fill-opacity:1;stroke:none"
       d="m 329.53124,320.54303 c -1.11685,-0.18112 -2.76166,-0.65352 -3.65514,-1.04977 -0.89347,-0.39626 -3.63483,-1.34871 -6.09189,-2.11657 -2.45706,-0.76786 -5.33909,-2.07325 -6.40449,-2.90088 -1.06541,-0.82763 -2.38025,-1.50478 -2.92186,-1.50478 -0.91769,0 -8.40546,-6.96824 -12.28522,-11.43281 -0.94126,-1.08315 -2.48947,-3.49799 -3.44047,-5.36632 -0.95099,-1.86833 -2.07314,-3.60961 -2.49368,-3.86951 -0.42053,-0.2599 -1.20974,-1.83813 -1.75381,-3.50718 -0.54407,-1.66905 -1.26948,-3.21901 -1.61203,-3.44436 -0.34255,-0.22536 -1.28911,-2.96671 -2.10346,-6.0919 -0.81435,-3.12519 -1.71006,-5.86492 -1.99047,-6.08829 -0.79459,-0.63297 -3.14318,-14.42081 -3.71128,-21.78779 -0.28167,-3.65257 -0.82346,-6.64104 -1.20399,-6.64104 -0.38052,0 -0.69186,-1.6492 -0.69186,-3.66488 l 0,-3.66488 4.92896,4.88326 c 2.71093,2.68579 5.41318,4.88326 6.00499,4.88326 0.59182,0 1.26433,0.49069 1.49447,1.09043 0.23014,0.59974 1.7313,1.71343 3.33591,2.47487 1.60461,0.76143 2.91748,1.65087 2.91748,1.97653 0,0.32566 1.64134,1.31367 3.64744,2.19558 2.00609,0.88192 3.6509,1.84091 3.65513,2.1311 0.004,0.29019 1.83527,1.1848 4.06896,1.98803 2.23369,0.80322 4.06126,1.6987 4.06126,1.98996 0,0.29125 2.19308,1.40064 4.87352,2.4653 2.68043,1.06467 4.87351,2.16656 4.87351,2.44865 0,0.2821 1.73619,1.17158 3.8582,1.97663 2.12201,0.80504 4.33582,2.134 4.91957,2.95323 0.58376,0.81923 1.57606,1.48951 2.20512,1.48951 0.62906,0 1.53497,0.73103 2.01315,1.6245 0.47817,0.89348 1.31344,1.63086 1.85614,1.63862 1.24474,0.0178 11.95215,10.77774 11.95215,12.01078 0,0.5027 0.73103,1.30523 1.6245,1.7834 0.89348,0.47817 1.62451,1.3359 1.62451,1.90605 0,0.57015 0.65946,1.74521 1.46547,2.61124 1.5925,1.71109 4.2203,8.98204 4.2203,11.67731 0,0.92123 0.36551,1.67495 0.81225,1.67495 0.44674,0 0.81225,1.13991 0.81225,2.53314 l 0,2.53314 -2.59095,-2.53314 c -1.42503,-1.39323 -2.88708,-2.53314 -3.24901,-2.53314 -0.36193,0 -1.29771,-0.55744 -2.0795,-1.23876 -5.05461,-4.405 -6.513,-5.47746 -9.09357,-6.68713 -1.58794,-0.74435 -3.41331,-1.8673 -4.0564,-2.49542 -0.64309,-0.62813 -2.19652,-1.50016 -3.45207,-1.93785 -1.25556,-0.43768 -2.28283,-1.12064 -2.28283,-1.51769 0,-0.39704 -1.35787,-1.28924 -3.01748,-1.98267 -1.65961,-0.69343 -3.21305,-1.56302 -3.45207,-1.93242 -0.23903,-0.3694 -1.98803,-1.45919 -3.88667,-2.42176 -1.89864,-0.96257 -3.45207,-2.04954 -3.45207,-2.41549 0,-0.36595 -0.8224,-1.04757 -1.82757,-1.51471 -2.46187,-1.14413 -5.39866,-3.68959 -11.40887,-9.88861 -7.52672,-7.76319 -9.50663,-9.9147 -9.50663,-10.33061 0,-0.2071 -0.79976,-1.45828 -1.77725,-2.78041 -1.87159,-2.53146 -3.53015,-3.08862 -4.13342,-1.38855 -0.35616,1.00367 2.15776,6.43855 4.04918,8.75401 5.98562,7.32751 16.58904,18.65899 17.46043,18.6593 0.53509,2e-4 2.79497,1.88603 6.82349,5.69408 0.94049,0.88902 2.06262,1.6164 2.49361,1.6164 0.431,0 2.2782,1.2793 4.1049,2.84289 1.8267,1.56358 3.50919,2.84288 3.73886,2.84288 0.22967,0 1.4741,1.00516 2.76538,2.23369 1.29128,1.22853 3.56286,3.14748 5.04794,4.26433 1.48509,1.11685 4.35999,3.58406 6.38866,5.4827 2.02867,1.89864 3.91923,3.45207 4.20124,3.45207 0.28201,0 1.72899,1.18792 3.21551,2.63982 l 2.70277,2.63983 -2.34551,0.51309 c -2.57961,0.56429 -19.0152,0.67863 -22.24569,0.15476 z"
       id="path2863"
       transform="translate(0,552.36218)" />
    <path
       style="fill:#81b31c;fill-opacity:1;stroke:none"
       d="m 364.9567,367.18888 c 0.74391,-1.4519 1.59447,-2.82258 1.89012,-3.04595 0.79671,-0.60192 3.29704,-7.55225 3.29704,-9.16499 0,-0.76686 0.36551,-1.39429 0.81225,-1.39429 0.4693,0 0.81225,-2.57213 0.81225,-6.09189 0,-3.51976 -0.34295,-6.0919 -0.81225,-6.0919 -0.44674,0 -0.81225,-0.72363 -0.81225,-1.60806 0,-1.75992 -2.39873,-8.30051 -3.28281,-8.95122 -0.30348,-0.22337 -1.16044,-1.59404 -1.90435,-3.04594 -0.74392,-1.45191 -1.7087,-2.63982 -2.14397,-2.63982 -0.43527,0 -0.79139,-0.46764 -0.79139,-1.0392 0,-1.199 -7.03074,-8.5753 -12.61679,-13.2369 -2.10067,-1.75303 -4.63969,-3.91836 -5.64226,-4.81184 -1.00258,-0.89347 -2.513,-2.03852 -3.35651,-2.54455 -0.8435,-0.50603 -1.31884,-1.14726 -1.0563,-1.42497 0.62591,-0.66207 5.61456,1.83524 5.61456,2.81064 0,0.41402 0.46062,0.75276 1.02361,0.75276 0.56299,0 1.93366,0.83563 3.04595,1.85696 1.11228,1.02134 2.93611,2.48733 4.05296,3.25777 3.37919,2.33109 10.50656,8.75354 16.78991,15.12936 3.26822,3.31631 6.14672,5.82517 6.39666,5.57523 1.15529,-1.15529 2.92748,-31.03756 2.5067,-42.26743 l -0.44891,-11.98073 5.6535,0 5.6535,0 0,2.79495 c 0,1.53722 0.36551,3.02085 0.81225,3.29695 0.48286,0.29842 0.81225,5.42345 0.81225,12.63785 0,7.54906 -0.30699,12.13585 -0.81225,12.13585 -0.44674,0 -0.82569,1.55343 -0.84211,3.45207 -0.0164,1.89864 -0.50683,5.91623 -1.0898,8.92798 -0.58297,3.01175 -0.90532,5.63053 -0.71633,5.81952 0.35409,0.35408 5.36101,-2.71287 7.52175,-4.60739 3.17876,-2.78711 10.62556,-7.29864 11.16192,-6.76228 0.33122,0.33122 -0.0253,0.95337 -0.79222,1.38257 -2.52113,1.4109 -11.641,11.10073 -13.23693,14.06421 -0.8599,1.59673 -1.81963,2.90314 -2.13274,2.90314 -0.31311,0 -1.01905,2.00974 -1.56875,4.46608 -0.79847,3.56791 -0.79213,5.16059 0.0315,7.91946 0.56704,1.89936 1.41538,3.69435 1.8852,3.98886 0.55183,0.34592 0.37629,1.0134 -0.4959,1.88558 -0.74256,0.74256 -1.35011,1.7021 -1.35011,2.13232 0,1.24076 -10.42932,11.28554 -11.71759,11.28554 -0.63932,0 -1.67531,0.51291 -2.3022,1.1398 -1.21129,1.21129 -7.96094,3.73372 -9.9909,3.73372 -1.04389,0 -1.02435,-0.36399 0.14173,-2.63982 z"
       id="path2865"
       transform="translate(0,552.36218)" />
    <path
       style="fill:#81b31c;fill-opacity:1;stroke:none"
       d="m 409.22287,321.84002 c -3.71394,-0.72946 -5.37128,-1.55872 -3.11521,-1.55872 0.71923,0 1.78531,-0.66243 2.36907,-1.47207 0.58375,-0.80964 2.33082,-2.36307 3.88237,-3.45207 1.55154,-1.089 3.49702,-2.80241 4.32327,-3.80757 0.82626,-1.00516 1.82466,-1.82757 2.21867,-1.82757 0.394,0 1.57631,-0.82241 2.62733,-1.82757 3.85616,-3.68787 9.9763,-8.90413 11.25228,-9.59042 0.72145,-0.38804 3.84019,-2.82079 6.93053,-5.40611 3.09033,-2.58532 6.27811,-5.24886 7.08393,-5.91897 0.80583,-0.67011 7.86265,-7.54057 15.68181,-15.26769 13.56413,-13.40446 15.77667,-16.41015 12.07978,-16.41015 -0.67702,0 -4.51592,3.19824 -8.53089,7.10721 -8.47019,8.24656 -16.66374,15.73452 -18.11378,16.55391 -0.55568,0.314 -3.02064,2.42673 -5.47771,4.69495 -2.45706,2.26822 -4.91142,4.12629 -5.45412,4.12903 -0.54271,0.003 -1.37797,0.73602 -1.85615,1.6295 -0.47817,0.89348 -1.31344,1.62805 -1.85615,1.63239 -0.81057,0.007 -4.76897,2.75572 -9.13037,6.34136 -0.45835,0.37683 -1.9204,1.36129 -3.24901,2.18769 -1.3286,0.8264 -2.78958,1.89364 -3.24661,2.37164 -1.16659,1.22011 -3.78292,2.8597 -5.46399,3.42416 -0.78179,0.2625 -1.42144,0.79077 -1.42144,1.17394 0,0.38316 -1.18792,1.31048 -2.63982,2.06072 -1.4519,0.75023 -3.00533,1.80508 -3.45207,2.34411 -0.44674,0.53903 -1.4519,1.20242 -2.2337,1.47419 -1.25018,0.4346 -1.42144,-0.09 -1.42144,-4.35389 0,-2.69051 0.36148,-4.84802 0.81225,-4.84802 0.44674,0 0.81226,-0.62743 0.81226,-1.39428 0,-2.03902 2.53929,-8.35275 3.35936,-8.35275 0.38604,0 0.7019,-0.48244 0.7019,-1.07208 0,-1.95894 14.11166,-16.79747 15.97464,-16.79747 0.62351,0 1.32638,-0.50227 1.56195,-1.11615 0.23557,-0.61388 1.68615,-1.79354 3.22351,-2.62146 1.53737,-0.82793 2.79522,-1.73221 2.79522,-2.00951 0,-0.2773 1.46205,-1.16347 3.24901,-1.96928 1.78695,-0.8058 3.24901,-1.71262 3.24901,-2.01515 0,-0.30252 1.91894,-1.43109 4.26432,-2.50792 2.34538,-1.07684 4.44708,-2.18486 4.67045,-2.46227 0.22337,-0.27741 1.68543,-1.15466 3.24901,-1.94943 1.56359,-0.79478 3.02564,-1.70567 3.24901,-2.0242 0.22337,-0.31853 2.32507,-1.21069 4.67045,-1.98257 2.34538,-0.77189 4.26433,-1.69988 4.26433,-2.06221 0,-0.36233 1.37067,-1.20887 3.04594,-1.8812 1.67527,-0.67233 4.00144,-2.08269 5.16927,-3.13414 1.16782,-1.05145 3.63504,-3.13373 5.4827,-4.6273 1.84766,-1.49357 3.35939,-3.19065 3.35939,-3.7713 0,-0.58064 0.60369,-1.28737 1.34153,-1.57051 1.22333,-0.46944 1.30045,0.57855 0.87524,11.89382 -0.43506,11.57714 -2.38813,24.87485 -3.79062,25.80883 -0.33703,0.22444 -0.87553,1.47998 -1.19667,2.79008 -0.86389,3.52428 -3.73179,9.06014 -8.23385,15.89367 -2.0181,3.06321 -6.72133,7.9429 -15.03797,15.60216 -0.82876,0.76326 -3.07544,2.18304 -4.99261,3.15506 -1.91718,0.97203 -3.66854,2.03077 -3.8919,2.35276 -0.22337,0.32198 -1.86819,1.04996 -3.65514,1.61772 -1.78696,0.56777 -4.76422,1.709 -6.61615,2.53608 -1.85193,0.82707 -6.60361,1.87457 -10.55928,2.32776 -8.09132,0.92699 -8.26884,0.92644 -13.19314,-0.0408 l 0,4e-5 z"
       id="path2867"
       transform="translate(0,552.36218)" />
  </g>
</svg>
