<?xml version="1.0" encoding="UTF-8"?>
<svg xmlns="http://www.w3.org/2000/svg" xmlns:xlink="http://www.w3.org/1999/xlink" width="386pt" height="258pt" viewBox="0 0 386 258" version="1.1">
<defs>
<clipPath id="clip0">
  <rect width="386" height="258"/>
</clipPath>
</defs>
<g id="surface0" clip-path="url(#clip0)">
<path style="fill: none; stroke-width: 0.1; stroke-linecap: butt; stroke-linejoin: miter; stroke: rgb(0%,50.196081%,0%); opacity: 1;stroke-miterlimit: 10;" d="M 0 0 L 386 0 L 386 84 C 257.332779 83.999924 128.666885 83.999924 0 84 L 0 0 Z M 0 0 " transform="matrix(1,0,0,1,0,0)"/>
<path style="stroke: none; fill-rule: nonzero; fill: rgb(0%,50.196081%,0%); opacity: 1;" d="M 0 0 L 386 0 L 386 84 C 257.332779 83.999924 128.666885 83.999924 0 84 L 0 0 Z M 0 0 "/>
<path style="fill: none; stroke-width: 0.1; stroke-linecap: butt; stroke-linejoin: miter; stroke: rgb(100%,100%,100%); opacity: 1;stroke-miterlimit: 10;" d="M 0 84 C 128.666885 83.999924 257.332779 83.999924 386 84 L 386 170 C 257.332779 169.999847 128.666885 169.999847 0 170 L 0 84 Z M 0 84 " transform="matrix(1,0,0,1,0,0)"/>
<path style="stroke: none; fill-rule: nonzero; fill: rgb(100%,100%,100%); opacity: 1;" d="M 0 84 C 128.666885 83.999924 257.332779 83.999924 386 84 L 386 170 C 257.332779 169.999847 128.666885 169.999847 0 170 L 0 84 Z M 0 84 "/>
<path style="fill: none; stroke-width: 0.1; stroke-linecap: butt; stroke-linejoin: miter; stroke: rgb(100%,0%,0%); opacity: 1;stroke-miterlimit: 10;" d="M 0 170 C 128.666885 169.999847 257.332779 169.999847 386 170 L 386 258 L 0 258 L 0 170 Z M 0 170 " transform="matrix(1,0,0,1,0,0)"/>
<path style="stroke: none; fill-rule: nonzero; fill: rgb(100%,0%,0%); opacity: 1;" d="M 0 170 C 128.666885 169.999847 257.332779 169.999847 386 170 L 386 258 L 0 258 L 0 170 Z M 0 170 "/>
</g>
</svg>
