<?xml version="1.0" encoding="UTF-8" standalone="no"?>
<!-- Created with Inkscape (http://www.inkscape.org/) -->
<svg
   xmlns:dc="http://purl.org/dc/elements/1.1/"
   xmlns:cc="http://creativecommons.org/ns#"
   xmlns:rdf="http://www.w3.org/1999/02/22-rdf-syntax-ns#"
   xmlns:svg="http://www.w3.org/2000/svg"
   xmlns="http://www.w3.org/2000/svg"
   xmlns:sodipodi="http://sodipodi.sourceforge.net/DTD/sodipodi-0.dtd"
   xmlns:inkscape="http://www.inkscape.org/namespaces/inkscape"
   width="750"
   height="500"
   id="svg2822"
   version="1.1"
   inkscape:version="0.46"
   sodipodi:docname="Flag_of_Guachucal_(Nariño).svg"
   sodipodi:version="0.32"
   inkscape:output_extension="org.inkscape.output.svg.inkscape">
  <defs
     id="defs2824" />
  <sodipodi:namedview
     id="base"
     pagecolor="#ffffff"
     bordercolor="#666666"
     borderopacity="1.0"
     inkscape:pageopacity="0.0"
     inkscape:pageshadow="2"
     inkscape:zoom="0.62"
     inkscape:cx="375"
     inkscape:cy="219.6223"
     inkscape:document-units="px"
     inkscape:current-layer="g2129"
     showgrid="false"
     inkscape:window-width="1152"
     inkscape:window-height="802"
     inkscape:window-x="-8"
     inkscape:window-y="-8"
     inkscape:window-maximized="1" />
  <metadata
     id="metadata2827">
    <rdf:RDF>
      <cc:Work
         rdf:about="">
        <dc:format>image/svg+xml</dc:format>
        <dc:type
           rdf:resource="http://purl.org/dc/dcmitype/StillImage" />
        <dc:title />
      </cc:Work>
    </rdf:RDF>
  </metadata>
  <g
     inkscape:label="Capa 1"
     inkscape:groupmode="layer"
     id="layer1"
     transform="translate(0,-552.36218)">
    <rect
       style="fill:#ffffff;fill-opacity:1;stroke:none"
       id="rect2832"
       width="750"
       height="250"
       x="0"
       y="552.36218" />
    <rect
       style="fill:#0ddc54;fill-opacity:1;stroke:none"
       id="rect2836"
       width="750"
       height="250"
       x="0"
       y="802.36218" />
    <g
       inkscape:groupmode="layer"
       inkscape:label="Calque 1"
       id="layer1-4"
       transform="matrix(1.960451,0,0,1.960451,194.63835,621.01125)">
      <g
         transform="matrix(0.754398,0,0,0.754398,-21.1595,-18.7689)"
         style="display:inline"
         id="g2129">
        <path
           d="m 105.115,39.1105 c -2.936,11.4822 0.3,20.9344 5.911,29.8409 4.339,6.8872 7.19,14.2267 7.055,22.1125 -1.974,1.113 -3.856,2.3127 -5.673,3.6037 L 67.0597,64.5468 97.5042,109.395 c -0.547,0.755 -1.0799,1.54 -1.593,2.317 -8.6351,-3.89 -16.7411,-4.662 -24.4654,-3.167 -10.9194,2.112 -20.1898,-0.175 -29.8702,-5.945 6.0431,10.196 15.059,14.589 25.3246,16.919 7.954,1.805 15.1437,4.973 20.6304,10.667 -0.597,2.145 -1.09,4.315 -1.4649,6.518 l -53.378,10.824 53.2576,10.185 c 0.1464,0.916 0.3228,1.83 0.5099,2.745 -8.859,3.351 -15.1576,8.525 -19.5639,15.045 -6.2276,9.215 -14.3561,14.155 -25.2808,16.92 11.4821,2.936 20.9186,-0.338 29.825,-5.949 6.8872,-4.339 14.2268,-7.19 22.1125,-7.055 1.113,1.974 2.3127,3.856 3.6037,5.673 L 67.0468,230.478 111.917,199.98 c 0.749,0.542 1.508,1.1 2.279,1.609 -3.89,8.635 -4.646,16.779 -3.152,24.503 2.113,10.92 -0.19,20.152 -5.96,29.832 10.196,-6.043 14.589,-15.059 16.919,-25.324 1.805,-7.954 4.973,-15.144 10.667,-20.631 2.15,0.599 4.311,1.09 6.518,1.465 l 10.824,53.378 10.185,-53.257 c 0.916,-0.147 1.83,-0.323 2.745,-0.51 3.35,8.861 8.527,15.158 15.045,19.564 9.215,6.227 14.155,14.356 16.921,25.281 2.936,-11.483 -0.339,-20.919 -5.95,-29.826 -4.348,-6.9 -7.167,-14.217 -7.016,-22.128 1.96,-1.107 3.828,-2.305 5.634,-3.588 l 45.387,30.105 -30.461,-44.886 c 0.536,-0.74 1.068,-1.502 1.571,-2.263 8.637,3.901 16.775,4.646 24.504,3.152 10.919,-2.113 20.151,0.19 29.832,5.96 -6.044,-10.196 -15.044,-14.55 -25.309,-16.881 -7.945,-1.803 -15.127,-5.032 -20.608,-10.721 0.595,-2.141 1.052,-4.303 1.426,-6.502 l 53.394,-10.786 -53.273,-10.223 c -0.147,-0.916 -0.323,-1.83 -0.51,-2.745 8.867,-3.348 15.157,-8.524 19.564,-15.045 6.227,-9.215 14.372,-14.117 25.296,-16.882 -11.482,-2.9363 -20.934,0.3 -29.84,5.911 -6.901,4.348 -14.218,7.167 -22.129,7.016 -1.107,-1.96 -2.304,-3.828 -3.588,-5.634 l 30.121,-45.3484 -44.902,30.4221 c -0.74,-0.5352 -1.502,-1.068 -2.263,-1.5706 3.896,-8.6326 4.662,-16.7411 3.167,-24.4654 -2.112,-10.9194 0.175,-20.1899 5.945,-29.8702 -10.196,6.043 -14.55,15.0431 -16.88,25.3087 -1.808,7.963 -5.031,15.176 -10.744,20.6621 -2.135,-0.593 -4.288,-1.1077 -6.48,-1.4808 L 150.01,30.1877 139.787,83.4612 c -0.916,0.1464 -1.83,0.3227 -2.745,0.5099 -3.351,-8.8614 -8.524,-15.1569 -15.045,-19.5639 -9.215,-6.2276 -14.117,-14.372 -16.882,-25.2967 z"
           style="color:#000000;fill:#fcdd09;fill-opacity:1;fill-rule:nonzero;stroke:#000000;stroke-width:0.67615067;stroke-linecap:butt;stroke-linejoin:miter;stroke-miterlimit:4;stroke-opacity:1;stroke-dasharray:none;stroke-dashoffset:0;marker-start:none;marker-mid:none;marker-end:none;visibility:visible;display:inline;overflow:visible"
           id="path2140" />
      </g>
    </g>
  </g>
</svg>
