<?xml version="1.0" encoding="UTF-8" standalone="no"?>
<!-- Created with Inkscape (http://www.inkscape.org/) -->
<svg
   xmlns:dc="http://purl.org/dc/elements/1.1/"
   xmlns:cc="http://creativecommons.org/ns#"
   xmlns:rdf="http://www.w3.org/1999/02/22-rdf-syntax-ns#"
   xmlns:svg="http://www.w3.org/2000/svg"
   xmlns="http://www.w3.org/2000/svg"
   xmlns:sodipodi="http://sodipodi.sourceforge.net/DTD/sodipodi-0.dtd"
   xmlns:inkscape="http://www.inkscape.org/namespaces/inkscape"
   width="750"
   height="500"
   id="svg2822"
   version="1.0"
   inkscape:version="0.46"
   sodipodi:docname="Flag_of_Guapotá_(Santander).svg"
   sodipodi:version="0.32"
   inkscape:output_extension="org.inkscape.output.svg.inkscape">
  <defs
     id="defs2824" />
  <sodipodi:namedview
     id="base"
     pagecolor="#ffffff"
     bordercolor="#666666"
     borderopacity="1.0"
     inkscape:pageopacity="0.0"
     inkscape:pageshadow="2"
     inkscape:zoom="1.014"
     inkscape:cx="375"
     inkscape:cy="250"
     inkscape:document-units="px"
     inkscape:current-layer="layer1"
     showgrid="false"
     inkscape:window-width="1024"
     inkscape:window-height="712"
     inkscape:window-x="-4"
     inkscape:window-y="-4"
     inkscape:window-maximized="1" />
  <metadata
     id="metadata2827">
    <rdf:RDF>
      <cc:Work
         rdf:about="">
        <dc:format>image/svg+xml</dc:format>
        <dc:type
           rdf:resource="http://purl.org/dc/dcmitype/StillImage" />
        <dc:title />
      </cc:Work>
    </rdf:RDF>
  </metadata>
  <g
     inkscape:label="Capa 1"
     inkscape:groupmode="layer"
     id="layer1"
     transform="translate(0,-552.36218)">
    <path
       style="fill:#fcdd09;fill-opacity:1;stroke:none"
       d="M 751.21194,552.36218 L -0.20877922,552.36218 L -0.20877922,1053.0282 L 751.21194,552.36218 z"
       id="rect2832"
       sodipodi:nodetypes="cccc" />
    <path
       style="fill:#078930;fill-opacity:1;stroke:none"
       d="M 751.21194,551.69617 L -0.20877922,1052.3622 L 751.21194,1052.3622 L 751.21194,551.69617 z"
       id="rect2836"
       sodipodi:nodetypes="cccc" />
    <path
       id="path2383"
       d="M 751.98026,552.46126 L 534.48908,552.60404 L -0.76688832,1053.0199 L 222.11914,1052.6831 L 751.98026,552.46126 z"
       style="fill:#ffffff;fill-opacity:1;stroke:none;stroke-width:1px;stroke-linecap:butt;stroke-linejoin:miter;stroke-opacity:1"
       sodipodi:nodetypes="ccccc" />
    <g
       transform="matrix(-0.9223682,0,0,0.9223682,705.84862,61.795754)"
       id="g3175"
       inkscape:label="Capa 1"
       style="stroke:#000000;stroke-width:0.65049944;stroke-miterlimit:4;stroke-dasharray:none;stroke-opacity:1">
      <g
         transform="matrix(1.960451,0,0,1.960451,194.63835,621.01125)"
         id="layer1-4"
         inkscape:label="Calque 1"
         inkscape:groupmode="layer"
         style="stroke:#000000;stroke-width:0.33181112;stroke-miterlimit:4;stroke-dasharray:none;stroke-opacity:1">
        <g
           id="g2129"
           style="stroke:#000000;stroke-width:0.43983563;stroke-miterlimit:4;stroke-dasharray:none;stroke-opacity:1;display:inline"
           transform="matrix(0.754398,0,0,0.754398,-21.1595,-18.7689)" />
      </g>
      <g
         id="g3312"
         transform="matrix(-0.410817,-0.1393763,-0.1365648,0.4192744,835.46875,557.45473)"
         style="stroke:#000000;stroke-width:1.48735056;stroke-miterlimit:4;stroke-dasharray:none;stroke-opacity:1">
        <path
           style="fill:#000000;fill-opacity:1;fill-rule:evenodd;stroke:#000000;stroke-width:1.48735056;stroke-linecap:butt;stroke-linejoin:miter;stroke-miterlimit:4;stroke-dasharray:none;stroke-opacity:1"
           d="M 807.62174,1003.8594 L 795.4887,1011.3025 C 787.99934,1020.8284 802.84521,1024.3078 808.24491,1022.7469 C 804.19412,1019.6651 799.7143,1020.5014 800.08821,1016.3163 C 802.50204,1010.4993 806.88134,1012.4313 810.29272,1009.2819 C 809.50424,1012.7798 812.21884,1016.1078 818.61065,1020.2108 C 814.97732,1014.777 813.45828,1007.7699 815.24431,1005.3786 L 815.80952,1000.3105 L 809.86544,997.02348 C 809.62869,999.6758 809.81404,1001.3786 807.62174,1003.8594 z"
           id="path3314"
           sodipodi:nodetypes="cccccccccc"
           inkscape:connector-curvature="0" />
        <path
           sodipodi:nodetypes="cscscccc"
           id="path3316"
           d="M 799.86077,907.14153 C 801.60441,906.68479 814.05452,921.99472 818.23307,935.24524 C 820.61442,942.79668 825.45973,949.20775 824.02591,950.64157 C 823.72329,956.59466 819.62474,959.51729 818.25461,968.50083 C 817.16998,975.61242 817.63915,994.052 815.94469,1001.0625 L 809.88377,997.02193 C 810.31972,987.4344 810.22379,968.9762 811.90408,953.16695 C 798.2486,938.18302 778.62454,930.88713 775.53295,916.40828"
           style="fill:#e6e6e6;fill-opacity:1;fill-rule:evenodd;stroke:#000000;stroke-width:1.48735056;stroke-linecap:butt;stroke-linejoin:miter;stroke-miterlimit:4;stroke-dasharray:none;stroke-opacity:1"
           inkscape:connector-curvature="0" />
      </g>
      <path
         sodipodi:nodetypes="ccccccccccccc"
         id="path3190"
         d="M 402.79624,808.25691 C 403.91822,799.11339 407.61317,791.44196 405.12497,781.81241 L 406.12686,773.31955 C 409.99778,754.02572 393.0089,746.05335 381.85188,732.87787 C 371.50743,719.92597 374.18763,735.48531 379.44289,741.20236 C 369.54964,728.01847 370.90544,742.25472 376.67287,748.95905 C 367.3574,736.93749 368.70338,752.36133 373.72467,758.04351 C 365.7224,747.56299 365.91562,761.52022 371.69673,766.28661 C 362.77304,761.3763 369.94316,774.84002 372.67679,777.11163 C 364.11304,770.50926 368.4188,783.00281 375.23318,786.27547 C 366.55002,780.91187 372.01091,796.15517 381.57388,797.25015 L 390.45324,801.38206 L 398.32644,812.54076"
         style="fill:#e6e6e6;fill-opacity:1;fill-rule:evenodd;stroke:#000000;stroke-width:0.65049944;stroke-linecap:butt;stroke-linejoin:miter;stroke-miterlimit:4;stroke-dasharray:none;stroke-opacity:1"
         inkscape:connector-curvature="0" />
      <path
         style="fill:#e6e6e6;fill-opacity:1;fill-rule:evenodd;stroke:#000000;stroke-width:0.65049944;stroke-linecap:butt;stroke-linejoin:miter;stroke-miterlimit:4;stroke-dasharray:none;stroke-opacity:1"
         d="M 365.56845,816.23436 C 364.67787,817.49625 363.69745,818.6074 357.91345,829.38163 C 355.77812,831.08197 355.76564,840.87161 340.24591,841.51358 C 334.64119,841.74543 311.7461,843.84666 306.33425,845.84607 C 299.80679,848.25773 296.70785,851.94665 308.18615,851.5944 C 297.53362,853.03321 300.16529,859.09838 310.2837,857.17742 C 300.49402,860.02352 300.23275,865.4979 312.83123,862.33549 C 304.4081,866.13533 303.33129,870.24786 316.61135,865.53304 C 305.59023,872.29417 313.18401,873.53201 322.81308,867.74533 C 317.40036,871.01999 316.51924,878.03381 328.96922,871.52031 C 318.23434,879.04701 329.12694,877.66539 336.13958,873.23307 C 347.42978,866.09711 353.47269,853.36195 362.01525,845.52548 C 373.38564,839.78905 387.73812,841.5522 400.25306,837.55084 C 406.34092,835.44426 410.95697,835.80721 420.34043,818.8001 C 429.72387,801.79285 424.12732,804.30473 436.09866,795.93147 C 438.23453,794.43759 443.65254,792.92367 443.8322,792.78683 C 443.45932,791.55915 442.75703,790.44813 442.79843,789.32389 C 443.06809,781.99589 438.18162,777.52883 430.23527,779.84201 C 427.33072,780.68763 423.91766,783.19805 418.8359,786.71739 C 414.5666,789.674 403.66551,789.14469 398.14305,792.8304 C 387.08548,798.82928 373.07975,803.93684 365.56845,816.23436 L 365.56845,816.23436 z"
         id="path13446"
         sodipodi:nodetypes="ccssccccccsccsscssscc"
         inkscape:connector-curvature="0" />
      <path
         style="fill:#e6e6e6;fill-opacity:1;fill-rule:evenodd;stroke:#000000;stroke-width:0.65049944;stroke-linecap:butt;stroke-linejoin:miter;stroke-miterlimit:4;stroke-dasharray:none;stroke-opacity:1"
         d="M 398.79592,805.29615 C 406.41976,783.36723 385.88952,766.18171 369.31569,756.82732 C 359.9547,752.10769 346.43447,735.44816 339.43584,732.13154 C 329.27373,727.57762 332.11682,731.98254 339.12079,743.59238 C 325.06021,730.519 334.33601,749.68935 339.62391,754.58804 C 328.41624,744.49373 334.81662,761.97564 339.63731,765.67231 C 330.21449,759.0547 334.92118,771.39097 341.45599,775.79535 C 330.69746,767.87697 337.14966,782.56196 343.94045,786.43275 C 332.68461,780.41596 338.77341,792.09462 348.3711,796.08354 C 334.47366,790.89113 344.65417,800.90205 352.93829,803.171 C 338.27814,799.17085 347.16752,809.84847 359.62852,809.87466 C 349.19139,810.45823 349.81579,815.78936 362.82732,816.89236 C 377.17086,822.67009 378.3212,799.746 392.16509,809.79488"
         id="path3197"
         sodipodi:nodetypes="ccccccccccccc"
         inkscape:connector-curvature="0" />
      <path
         transform="matrix(0.2540826,1.819226e-2,-3.227205e-2,0.2398966,304.09385,716.07345)"
         d="M 559.80122,255.86182 A 7.5871706,7.5871706 0 1 1 544.62688,255.86182 A 7.5871706,7.5871706 0 1 1 559.80122,255.86182 z"
         sodipodi:ry="7.5871706"
         sodipodi:rx="7.5871706"
         sodipodi:cy="255.86182"
         sodipodi:cx="552.21405"
         id="path3201"
         style="fill:#000000;fill-opacity:1;stroke:#000000;stroke-width:2.62220039;stroke-linejoin:miter;stroke-miterlimit:4;stroke-dasharray:none;stroke-opacity:1"
         sodipodi:type="arc" />
      <path
         sodipodi:nodetypes="cccc"
         id="path3203"
         d="M 442.91851,789.18417 L 440.75016,793.42897 C 443.82585,794.72681 447.36605,794.20013 449.5,797.95907 C 449.4836,793.30666 444.05493,791.08563 442.91851,789.18417 z"
         style="fill:#000000;fill-opacity:1;fill-rule:evenodd;stroke:#000000;stroke-width:0.65049944;stroke-linecap:round;stroke-linejoin:round;stroke-miterlimit:4;stroke-dasharray:none;stroke-opacity:1"
         inkscape:connector-curvature="0" />
      <g
         id="g13436"
         transform="matrix(-0.410817,-0.1393763,-0.1365648,0.4192744,830.71458,557.83131)"
         style="stroke:#000000;stroke-width:1.48735056;stroke-miterlimit:4;stroke-dasharray:none;stroke-opacity:1">
        <path
           style="fill:#000000;fill-opacity:1;fill-rule:evenodd;stroke:#000000;stroke-width:1.48735056;stroke-linecap:butt;stroke-linejoin:miter;stroke-miterlimit:4;stroke-dasharray:none;stroke-opacity:1"
           d="M 807.62174,1003.8594 L 795.4887,1011.3025 C 787.99934,1020.8284 802.84521,1024.3078 808.24491,1022.7469 C 804.19412,1019.6651 799.7143,1020.5014 800.08821,1016.3163 C 802.50204,1010.4993 806.88134,1012.4313 810.29272,1009.2819 C 809.50424,1012.7798 812.21884,1016.1078 818.61065,1020.2108 C 814.97732,1014.777 813.45828,1007.7699 815.24431,1005.3786 L 815.80952,1000.3105 L 809.86544,997.02348 C 809.62869,999.6758 809.81404,1001.3786 807.62174,1003.8594 z"
           id="path3206"
           sodipodi:nodetypes="cccccccccc"
           inkscape:connector-curvature="0" />
        <path
           sodipodi:nodetypes="cscscccc"
           id="path11472"
           d="M 799.86077,907.14153 C 801.60441,906.68479 814.05452,921.99472 818.23307,935.24524 C 820.61442,942.79668 825.45973,949.20775 824.02591,950.64157 C 823.72329,956.59466 819.62474,959.51729 818.25461,968.50083 C 817.16998,975.61242 817.63915,994.052 815.94469,1001.0625 L 809.88377,997.02193 C 810.31972,987.4344 810.22379,968.9762 811.90408,953.16695 C 798.2486,938.18302 778.62454,930.88713 775.53295,916.40828"
           style="fill:#e6e6e6;fill-opacity:1;fill-rule:evenodd;stroke:#000000;stroke-width:1.48735056;stroke-linecap:butt;stroke-linejoin:miter;stroke-miterlimit:4;stroke-dasharray:none;stroke-opacity:1"
           inkscape:connector-curvature="0" />
      </g>
    </g>
  </g>
</svg>
