<?xml version="1.0" encoding="UTF-8" standalone="no"?>
<!-- Created with Inkscape (http://www.inkscape.org/) -->
<svg
   xmlns:dc="http://purl.org/dc/elements/1.1/"
   xmlns:cc="http://creativecommons.org/ns#"
   xmlns:rdf="http://www.w3.org/1999/02/22-rdf-syntax-ns#"
   xmlns:svg="http://www.w3.org/2000/svg"
   xmlns="http://www.w3.org/2000/svg"
   xmlns:sodipodi="http://sodipodi.sourceforge.net/DTD/sodipodi-0.dtd"
   xmlns:inkscape="http://www.inkscape.org/namespaces/inkscape"
   width="750"
   height="500"
   id="svg2822"
   version="1.1"
   inkscape:version="0.46"
   sodipodi:docname="Flag_of_Guaranda_(Sucre).svg"
   sodipodi:version="0.32"
   inkscape:output_extension="org.inkscape.output.svg.inkscape">
  <defs
     id="defs2824" />
  <sodipodi:namedview
     id="base"
     pagecolor="#ffffff"
     bordercolor="#666666"
     borderopacity="1.0"
     inkscape:pageopacity="0.0"
     inkscape:pageshadow="2"
     inkscape:zoom="1.014"
     inkscape:cx="375"
     inkscape:cy="250"
     inkscape:document-units="px"
     inkscape:current-layer="layer1"
     showgrid="false"
     inkscape:window-width="1024"
     inkscape:window-height="712"
     inkscape:window-x="-4"
     inkscape:window-y="-4"
     inkscape:window-maximized="1" />
  <metadata
     id="metadata2827">
    <rdf:RDF>
      <cc:Work
         rdf:about="">
        <dc:format>image/svg+xml</dc:format>
        <dc:type
           rdf:resource="http://purl.org/dc/dcmitype/StillImage" />
        <dc:title />
      </cc:Work>
    </rdf:RDF>
  </metadata>
  <g
     inkscape:label="Capa 1"
     inkscape:groupmode="layer"
     id="layer1"
     transform="translate(0,-552.36218)">
    <rect
       style="fill:#078930;fill-opacity:1;stroke:none"
       id="rect2832"
       width="750"
       height="250"
       x="0"
       y="-1052.3622"
       transform="scale(1,-1)" />
    <rect
       style="fill:#fcdd09;fill-opacity:1;stroke:none"
       id="rect2834"
       width="750"
       height="125"
       x="0"
       y="-802.36218"
       transform="scale(1,-1)" />
    <rect
       style="fill:#704d25;fill-opacity:1;stroke:none"
       id="rect2836"
       width="750"
       height="125"
       x="0"
       y="-677.36218"
       transform="scale(1,-1)" />
    <g
       inkscape:groupmode="layer"
       inkscape:label="Calque 1"
       id="layer1-4"
       transform="matrix(1.960451,0,0,1.960451,194.63835,621.01125)">
      <g
         transform="matrix(0.754398,0,0,0.754398,-21.1595,-18.7689)"
         style="display:inline"
         id="g2129" />
    </g>
    <path
       sodipodi:type="arc"
       style="opacity:1;fill:none;fill-opacity:1;stroke:#ffffff;stroke-width:25;stroke-linejoin:round;stroke-miterlimit:4;stroke-dasharray:none;stroke-dashoffset:0;stroke-opacity:1"
       id="path2385"
       sodipodi:cx="357.25806"
       sodipodi:cy="260.48386"
       sodipodi:rx="199.19354"
       sodipodi:ry="199.19354"
       d="M 556.4516,260.48386 A 199.19354,199.19354 0 1 1 158.06451,260.48386 A 199.19354,199.19354 0 1 1 556.4516,260.48386 z"
       transform="matrix(0.8,0,0,0.8,89.96774,594.39443)" />
    <g
       id="g3167"
       transform="matrix(-1.2762815,0,0,-1.2762815,501.74785,955.69835)"
       style="stroke:#000000;stroke-opacity:1;stroke-width:0.62682096;stroke-miterlimit:4;stroke-dasharray:none">
      <path
         d="M 17.541381,59.093572 C 46.775187,9.436502 130.23476,3.6113199 165.55411,43.651449 C 203.41532,86.60916 159.91027,139.50048 110.70577,143.02813 C 106.15933,143.35244 105.7869,148.012 106.0606,157.13478 L 98.179187,157.48745 C 98.179187,149.61783 97.932447,139.87984 89.588587,140.06072 C 82.781487,140.20829 83.779767,129.9566 89.837957,130.33215 C 114.71949,131.87456 165.49037,102.51105 138.35981,59.695612 C 111.30047,16.992549 35.110619,46.53801 17.541381,59.093572 z"
         id="path2483"
         style="fill:#ffffff;fill-opacity:1;fill-rule:evenodd;stroke:#000000;stroke-width:0.62682096;stroke-linecap:butt;stroke-linejoin:miter;stroke-opacity:1;stroke-miterlimit:4;stroke-dasharray:none" />
      <path
         d="M 110.32091,214.81736 C 110.32091,219.79085 106.31698,223.79478 101.34349,223.79478 C 96.369997,223.79478 92.366077,219.79085 92.366077,214.81736 L 93.488247,158.39382 L 109.19873,158.39382 L 110.32091,214.81736 z"
         id="rect2489"
         style="fill:#eb7711;fill-opacity:1;fill-rule:evenodd;stroke:#000000;stroke-width:0.62682095999999998;stroke-linecap:butt;stroke-linejoin:miter;marker:none;marker-start:none;marker-mid:none;marker-end:none;stroke-miterlimit:4;stroke-dashoffset:0;stroke-opacity:1;visibility:visible;display:inline;overflow:visible;enable-background:accumulate;stroke-dasharray:none" />
      <rect
         width="24.438528"
         height="10.473633"
         ry="5.2368164"
         x="88.87487"
         y="149.23235"
         id="rect2485"
         style="fill:#eb7711;fill-opacity:1;fill-rule:evenodd;stroke:#000000;stroke-width:0.62682095999999998;stroke-linecap:butt;stroke-linejoin:miter;marker:none;marker-start:none;marker-mid:none;marker-end:none;stroke-miterlimit:4;stroke-dasharray:none;stroke-dashoffset:0;stroke-opacity:1;visibility:visible;display:inline;overflow:visible;enable-background:accumulate" />
    </g>
  </g>
</svg>
