<?xml version="1.0" encoding="UTF-8" standalone="no"?>
<!-- Created with Inkscape (http://www.inkscape.org/) -->
<svg
   xmlns:dc="http://purl.org/dc/elements/1.1/"
   xmlns:cc="http://creativecommons.org/ns#"
   xmlns:rdf="http://www.w3.org/1999/02/22-rdf-syntax-ns#"
   xmlns:svg="http://www.w3.org/2000/svg"
   xmlns="http://www.w3.org/2000/svg"
   xmlns:sodipodi="http://sodipodi.sourceforge.net/DTD/sodipodi-0.dtd"
   xmlns:inkscape="http://www.inkscape.org/namespaces/inkscape"
   width="750"
   height="500"
   id="svg2842"
   version="1.1"
   inkscape:version="0.46"
   sodipodi:docname="Flag_of_Chiquinquirá_(Boyacá).svg"
   sodipodi:version="0.32"
   inkscape:output_extension="org.inkscape.output.svg.inkscape">
  <defs
     id="defs2844" />
  <sodipodi:namedview
     id="base"
     pagecolor="#ffffff"
     bordercolor="#666666"
     borderopacity="1.0"
     inkscape:pageopacity="0.0"
     inkscape:pageshadow="2"
     inkscape:zoom="1.014"
     inkscape:cx="375"
     inkscape:cy="250"
     inkscape:document-units="px"
     inkscape:current-layer="layer1"
     showgrid="false"
     inkscape:window-width="1024"
     inkscape:window-height="712"
     inkscape:window-x="-4"
     inkscape:window-y="-4"
     inkscape:window-maximized="1" />
  <metadata
     id="metadata2847">
    <rdf:RDF>
      <cc:Work
         rdf:about="">
        <dc:format>image/svg+xml</dc:format>
        <dc:type
           rdf:resource="http://purl.org/dc/dcmitype/StillImage" />
        <dc:title />
      </cc:Work>
    </rdf:RDF>
  </metadata>
  <g
     inkscape:label="Capa 1"
     inkscape:groupmode="layer"
     id="layer1"
     transform="translate(0,-552.36218)">
    <rect
       style="fill:#da121a;fill-opacity:1;stroke:none"
       id="rect2852"
       width="750"
       height="250"
       x="0"
       y="-5.6843419e-14"
       transform="translate(0,552.36218)" />
    <rect
       style="fill:#ffffff;fill-opacity:1;stroke:none"
       id="rect2854"
       width="750"
       height="250"
       x="0"
       y="250"
       transform="translate(0,552.36218)" />
    <path
       d="M 427.36534,1025.6703 L 476.72534,1034.6403 L 424.27734,1044.1753 C 457.78134,1057.9423 444.91834,1072.0874 469.11334,1072.9084 C 447.46134,1083.8914 448.27134,1064.5543 418.88134,1064.1053 L 447.43634,1105.3494 L 403.60734,1075.0064 C 417.56434,1108.4304 398.46634,1109.3384 414.99434,1127.0264 C 391.91634,1119.4844 406.16334,1106.3834 385.69934,1085.2834 L 376.71934,1134.6334 L 367.18334,1082.1854 C 353.41734,1115.6894 339.27234,1102.8274 338.45034,1127.0204 C 327.46634,1105.3694 346.80434,1106.1794 347.25334,1076.7904 L 306.01334,1105.3504 L 336.35634,1061.5223 C 302.93134,1075.4794 302.02434,1056.3813 284.33534,1072.9094 C 291.87834,1049.8313 304.97934,1064.0793 326.07934,1043.6153 L 276.72634,1034.6353 L 329.17434,1025.1003 C 295.67034,1011.3333 308.53334,997.1883 284.33934,996.3683 C 305.99134,985.38431 305.18034,1004.7213 334.57134,1005.1703 L 306.01134,963.93031 L 349.83934,994.2733 C 335.88334,960.84731 354.98134,959.94131 338.45334,942.25331 C 361.53134,949.79531 347.28434,962.89631 367.74834,983.99631 L 376.72834,934.64331 L 386.26434,987.0913 C 400.03034,953.58731 414.17634,966.44931 414.99734,942.25631 C 425.98134,963.90731 406.64334,963.09731 406.19434,992.4873 L 447.44034,963.93231 L 417.09734,1007.7603 C 450.52134,993.8033 451.42934,1012.9013 469.11834,996.3743 C 461.55834,1019.4543 448.45834,1005.2043 427.35834,1025.6743 L 427.36534,1025.6703 z"
       id="path6400"
       style="fill:#fbe618" />
    <path
       id="path2382"
       style="fill:#078930;fill-opacity:1;fill-rule:evenodd;stroke:none;stroke-width:1px;stroke-linecap:butt;stroke-linejoin:miter;stroke-opacity:1"
       d="M 70.341255,1052.4013 L 379.01867,1052.4013 L 224.67996,976.65443 L 70.341255,1052.4013 z"
       sodipodi:nodetypes="cccc" />
    <path
       sodipodi:nodetypes="cccc"
       d="M 378.34126,1052.4013 L 687.01867,1052.4013 L 532.67996,976.65443 L 378.34126,1052.4013 z"
       style="fill:#078930;fill-opacity:1;fill-rule:evenodd;stroke:none;stroke-width:1px;stroke-linecap:butt;stroke-linejoin:miter;stroke-opacity:1"
       id="path3157" />
  </g>
</svg>
