<?xml version="1.0" encoding="UTF-8" standalone="no"?>
<!-- Created with Inkscape (http://www.inkscape.org/) -->
<svg
   xmlns:dc="http://purl.org/dc/elements/1.1/"
   xmlns:cc="http://creativecommons.org/ns#"
   xmlns:rdf="http://www.w3.org/1999/02/22-rdf-syntax-ns#"
   xmlns:svg="http://www.w3.org/2000/svg"
   xmlns="http://www.w3.org/2000/svg"
   xmlns:sodipodi="http://sodipodi.sourceforge.net/DTD/sodipodi-0.dtd"
   xmlns:inkscape="http://www.inkscape.org/namespaces/inkscape"
   width="750"
   height="500"
   id="svg2822"
   version="1.1"
   inkscape:version="0.46"
   sodipodi:docname="Flag_of_Güepsa_(Santander).svg"
   sodipodi:version="0.32"
   inkscape:output_extension="org.inkscape.output.svg.inkscape">
  <defs
     id="defs2824" />
  <sodipodi:namedview
     id="base"
     pagecolor="#ffffff"
     bordercolor="#666666"
     borderopacity="1.0"
     inkscape:pageopacity="0.0"
     inkscape:pageshadow="2"
     inkscape:zoom="1.014"
     inkscape:cx="375"
     inkscape:cy="250"
     inkscape:document-units="px"
     inkscape:current-layer="layer1"
     showgrid="false"
     inkscape:window-width="1024"
     inkscape:window-height="712"
     inkscape:window-x="-4"
     inkscape:window-y="-4"
     inkscape:window-maximized="1" />
  <metadata
     id="metadata2827">
    <rdf:RDF>
      <cc:Work
         rdf:about="">
        <dc:format>image/svg+xml</dc:format>
        <dc:type
           rdf:resource="http://purl.org/dc/dcmitype/StillImage" />
        <dc:title />
      </cc:Work>
    </rdf:RDF>
  </metadata>
  <g
     inkscape:label="Capa 1"
     inkscape:groupmode="layer"
     id="layer1"
     transform="translate(0,-552.36218)">
    <rect
       style="fill:#079630;fill-opacity:1;stroke:none"
       id="rect2832"
       width="750"
       height="166.666"
       x="0"
       y="-5.6843419e-14"
       transform="translate(0,552.36218)" />
    <rect
       style="fill:#ffffff;fill-opacity:1;stroke:none"
       id="rect2834"
       width="750"
       height="166.666"
       x="0"
       y="719.03015" />
    <rect
       style="fill:#079630;fill-opacity:1;stroke:none"
       id="rect2836"
       width="750"
       height="166.666"
       x="0"
       y="885.69617" />
    <g
       transform="matrix(1.8875964,0,0,1.865218,-278.98459,-689.80491)"
       id="g2410"
       inkscape:label="Capa 1"
       style="stroke:#000000;stroke-width:0.37305999;stroke-miterlimit:4;stroke-dasharray:none;stroke-opacity:1">
      <path
         d=""
         id="path783"
         style="fill:#078930;fill-opacity:1;stroke:#000000;stroke-width:0.37305999;stroke-miterlimit:4;stroke-dasharray:none;stroke-opacity:1" />
      <path
         d=""
         id="path1607"
         style="fill:#078930;fill-opacity:1;stroke:#000000;stroke-width:0.37305999;stroke-miterlimit:4;stroke-dasharray:none;stroke-opacity:1" />
      <path
         d=""
         id="path1609"
         style="fill:#078930;fill-opacity:1;stroke:#000000;stroke-width:0.37305999;stroke-miterlimit:4;stroke-dasharray:none;stroke-opacity:1" />
      <path
         d=""
         id="path1613"
         style="fill:#078930;fill-opacity:1;stroke:#000000;stroke-width:0.37305999;stroke-miterlimit:4;stroke-dasharray:none;stroke-opacity:1" />
      <path
         d=""
         id="path1737"
         style="fill:#078930;fill-opacity:1;stroke:#000000;stroke-width:0.37305999;stroke-miterlimit:4;stroke-dasharray:none;stroke-opacity:1" />
      <path
         d=""
         id="path1739"
         style="fill:#078930;fill-opacity:1;stroke:#000000;stroke-width:0.37305999;stroke-miterlimit:4;stroke-dasharray:none;stroke-opacity:1" />
      <path
         d=""
         id="path1741"
         style="fill:#078930;fill-opacity:1;stroke:#000000;stroke-width:0.37305999;stroke-miterlimit:4;stroke-dasharray:none;stroke-opacity:1" />
      <path
         d="M 338.4333,817.15231 C 338.4333,817.15231 337.85752,821.83539 340.21649,823.62667 C 340.21649,823.62667 339.19979,826.89602 341.22864,828.72554 C 341.22864,828.72554 339.01438,830.93127 340.51706,833.35996 C 340.51706,833.35996 338.18909,838.52253 339.747,840.34644 C 339.747,840.34644 344.60635,841.77309 346.78039,840.9718 C 346.78039,840.9718 349.01257,837.83318 347.61455,833.37878 C 347.61455,833.37878 349.23195,830.17145 347.22456,827.4037 C 347.22456,827.4037 349.66991,823.22416 346.91276,820.34592 C 346.91276,820.34592 347.66053,816.50725 346.20956,813.93889 C 346.21154,813.93796 340.10285,818.21862 338.4333,817.15231 L 338.4333,817.15231 z"
         id="path1781"
         inkscape:connector-curvature="0"
         style="fill:#078930;fill-opacity:1;stroke:#000000;stroke-width:0.37305999;stroke-miterlimit:4;stroke-dasharray:none;stroke-opacity:1" />
      <path
         d="M 345.65367,813.73804 C 345.65367,813.73804 333.38302,803.50208 322.89447,808.1083 C 322.89447,808.1083 334.31745,814.09698 335.00615,817.02661 C 335.6935,819.95083 345.3565,816.31932 345.65367,813.73804 L 345.65367,813.73804 z"
         id="path1791"
         inkscape:connector-curvature="0"
         style="fill:#078930;fill-opacity:1;stroke:#000000;stroke-width:0.37305999;stroke-miterlimit:4;stroke-dasharray:none;stroke-opacity:1" />
      <path
         d="M 338.15804,820.99222 C 338.15804,820.99222 337.39096,819.61487 336.34506,818.13265 C 335.29612,816.65428 324.56297,809.17754 318.7713,820.0416 C 318.7713,820.0416 318.49302,807.16051 325.33941,807.87542 C 332.19019,808.5919 335.91997,814.03516 338.15804,820.99222"
         id="path1795"
         inkscape:connector-curvature="0"
         style="fill:#078930;fill-opacity:1;stroke:#000000;stroke-width:0.37305999;stroke-miterlimit:4;stroke-dasharray:none;stroke-opacity:1" />
      <path
         d="M 337.26186,794.22339 C 337.26186,794.22339 338.24597,805.18545 339.68836,806.22804 C 341.13109,807.25592 342.84909,806.0671 342.84909,806.0671 C 342.84909,806.0671 340.15877,795.5252 337.26186,794.22339 z"
         id="path1799"
         inkscape:connector-curvature="0"
         style="fill:#078930;fill-opacity:1;stroke:#000000;stroke-width:0.37305999;stroke-miterlimit:4;stroke-dasharray:none;stroke-opacity:1" />
      <path
         d="M 339.22845,778.62349 C 339.22845,778.62349 339.91138,765.15248 334.4062,766.80179 C 328.89756,768.45152 326.92169,777.57501 326.92169,777.57501 C 326.92169,777.57501 321.40857,765.51067 329.00196,760.20477 C 336.60254,754.90638 343.66694,766.23795 339.22845,778.62349 z"
         id="path1803"
         inkscape:connector-curvature="0"
         style="fill:#078930;fill-opacity:1;stroke:#000000;stroke-width:0.37305999;stroke-miterlimit:4;stroke-dasharray:none;stroke-opacity:1" />
      <path
         d="M 340.13222,807.15998 C 340.13222,807.15998 339.31004,809.45425 340.67102,810.71485 C 342.03042,811.97983 344.60181,814.19001 345.09271,812.82016 C 345.5857,811.44448 345.18521,805.34697 344.01523,805.70552 C 342.84909,806.0671 341.25312,805.48527 340.13222,807.15998 z"
         id="path1807"
         inkscape:connector-curvature="0"
         style="fill:#078930;fill-opacity:1;stroke:#000000;stroke-width:0.37305999;stroke-miterlimit:4;stroke-dasharray:none;stroke-opacity:1" />
      <path
         d="M 342.47865,791.95328 C 342.47865,791.95328 345.80022,781.24057 354.07661,779.79994 C 354.07661,779.79994 355.37188,780.53109 356.80068,778.71458 C 356.80068,778.71458 346.52359,790.03775 345.74764,797.26602 L 345.19063,798.10295"
         id="path1811"
         inkscape:connector-curvature="0"
         style="fill:#078930;fill-opacity:1;stroke:#000000;stroke-width:0.37305999;stroke-miterlimit:4;stroke-dasharray:none;stroke-opacity:1" />
      <path
         d="M 348.45466,779.60457 C 348.45466,779.60457 370.04741,758.35048 381.98174,772.72088 C 381.98174,772.72088 365.00418,770.26223 355.24397,779.44869 L 346.46757,785.87147 L 348.45466,779.60457 z"
         id="path1815"
         inkscape:connector-curvature="0"
         style="fill:#078930;fill-opacity:1;stroke:#000000;stroke-width:0.37305999;stroke-miterlimit:4;stroke-dasharray:none;stroke-opacity:1" />
      <path
         d="M 338.43487,786.61832 C 338.43487,786.61832 340.92742,768.10219 339.45574,764.9892 C 337.98272,761.87077 334.9873,757.95135 329.00196,760.20477 C 329.00196,760.20477 339.58184,755.9691 345.92975,764.97741 C 352.27579,773.98173 347.07173,782.72785 347.07173,782.72785 L 341.88283,794.32866 L 338.03875,786.99711"
         id="path1819"
         inkscape:connector-curvature="0"
         style="fill:#078930;fill-opacity:1;stroke:#000000;stroke-width:0.37305999;stroke-miterlimit:4;stroke-dasharray:none;stroke-opacity:1" />
      <path
         d="M 344.42418,811.79782 C 344.42418,811.79782 339.55606,777.70929 322.38219,794.588 C 322.38219,794.588 318.65283,799.20058 319.97791,802.00067 C 319.97791,802.00067 315.95071,795.90207 322.09203,786.71566 C 328.22648,777.53009 343.32754,788.11294 345.1897,798.10097 C 347.04612,808.08201 346.94511,812.70946 346.09358,812.91516 C 345.23743,813.1291 344.42418,811.79782 344.42418,811.79782 L 344.42418,811.79782 z"
         id="path1823"
         inkscape:connector-curvature="0"
         style="fill:#078930;fill-opacity:1;stroke:#000000;stroke-width:0.37305999;stroke-miterlimit:4;stroke-dasharray:none;stroke-opacity:1" />
      <path
         d=""
         id="path2057"
         style="fill:#078930;fill-opacity:1;stroke:#000000;stroke-width:0.37305999;stroke-miterlimit:4;stroke-dasharray:none;stroke-opacity:1" />
      <path
         d=""
         id="path2117"
         style="fill:#078930;fill-opacity:1;stroke:#000000;stroke-width:0.37305999;stroke-miterlimit:4;stroke-dasharray:none;stroke-opacity:1" />
    </g>
  </g>
</svg>
