<?xml version="1.0" encoding="UTF-8" standalone="no"?>
<!-- Created with Inkscape (http://www.inkscape.org/) -->

<svg
   xmlns:dc="http://purl.org/dc/elements/1.1/"
   xmlns:cc="http://creativecommons.org/ns#"
   xmlns:rdf="http://www.w3.org/1999/02/22-rdf-syntax-ns#"
   xmlns:svg="http://www.w3.org/2000/svg"
   xmlns="http://www.w3.org/2000/svg"
   xmlns:sodipodi="http://sodipodi.sourceforge.net/DTD/sodipodi-0.dtd"
   xmlns:inkscape="http://www.inkscape.org/namespaces/inkscape"
   width="1000"
   height="500"
   id="svg2"
   version="1.1"
   inkscape:version="0.48.3.1 r9886"
   sodipodi:docname="Flag of Milán (Caquetá).svg">
  <defs
     id="defs4">
    <inkscape:perspective
       sodipodi:type="inkscape:persp3d"
       inkscape:vp_x="0 : 526.18109 : 1"
       inkscape:vp_y="0 : 1000 : 0"
       inkscape:vp_z="744.09448 : 526.18109 : 1"
       inkscape:persp3d-origin="372.04724 : 350.78739 : 1"
       id="perspective10" />
  </defs>
  <sodipodi:namedview
     id="base"
     pagecolor="#ffffff"
     bordercolor="#666666"
     borderopacity="1.0"
     inkscape:pageopacity="0.0"
     inkscape:pageshadow="2"
     inkscape:zoom="0.62"
     inkscape:cx="525.61477"
     inkscape:cy="245.16534"
     inkscape:document-units="px"
     inkscape:current-layer="layer1"
     showgrid="false"
     inkscape:window-width="952"
     inkscape:window-height="679"
     inkscape:window-x="75"
     inkscape:window-y="75"
     inkscape:window-maximized="0" />
  <metadata
     id="metadata7">
    <rdf:RDF>
      <cc:Work
         rdf:about="">
        <dc:format>image/svg+xml</dc:format>
        <dc:type
           rdf:resource="http://purl.org/dc/dcmitype/StillImage" />
        <dc:title></dc:title>
      </cc:Work>
    </rdf:RDF>
  </metadata>
  <g
     inkscape:label="Capa 1"
     inkscape:groupmode="layer"
     id="layer1"
     transform="translate(0,-552.36218)">
    <rect
       style="fill:#da121a;fill-opacity:1;stroke:none"
       id="rect2984"
       width="1000"
       height="125"
       x="0"
       y="552.36218" />
    <rect
       style="fill:#ffffff;fill-opacity:1;stroke:none"
       id="rect2986"
       width="1000"
       height="150"
       x="0"
       y="677.36218" />
    <path
       inkscape:connector-curvature="0"
       d="m 608.6171,667.05867 c -4.34223,16.98172 0.44369,30.96114 8.74214,44.1335 6.4172,10.1859 10.63372,21.04073 10.43406,32.70351 -2.91947,1.64609 -5.70287,3.42039 -8.39014,5.32973 l -67.06834,-44.54746 45.02621,66.3287 c -0.809,1.11662 -1.59713,2.2776 -2.35599,3.42675 -12.77097,-5.75315 -24.75942,-6.89491 -36.18335,-4.68386 -16.14936,3.12356 -29.85992,-0.25882 -44.17684,-8.79242 8.9375,15.07948 22.27166,21.57655 37.45407,25.02253 11.76365,2.66952 22.39694,7.35487 30.51155,15.77607 -0.88294,3.17237 -1.61207,6.38171 -2.16653,9.63986 L 501.5,827.40385 l 78.76587,15.06321 c 0.21652,1.35472 0.47741,2.70649 0.75412,4.05974 -13.10211,4.956 -22.41749,12.60814 -28.93423,22.25096 -9.21037,13.62862 -21.2321,20.93468 -37.3893,25.02401 16.98157,4.34223 30.93778,-0.49989 44.10999,-8.79834 10.1859,-6.41721 21.04088,-10.63372 32.70351,-10.43406 1.64609,2.91947 3.42039,5.70287 5.32973,8.39014 l -44.52395,67.12409 66.36125,-45.10533 c 1.10774,0.8016 2.23027,1.62686 3.37055,2.37965 -5.75316,12.77082 -6.87125,24.81547 -4.66168,36.23896 3.12504,16.15025 -0.28101,29.80401 -8.81461,44.12035 15.07948,-8.93736 21.57656,-22.27167 25.02253,-37.45319 2.66953,-11.76366 7.35487,-22.39738 15.77607,-30.51243 3.17977,0.88589 6.3758,1.61206 9.63987,2.16667 l 16.00826,78.94392 15.06321,-78.76496 c 1.35473,-0.21741 2.7065,-0.47771 4.05975,-0.75427 4.95452,13.10506 12.61109,22.41808 22.25096,28.93438 13.62862,9.20948 20.93468,21.23195 25.02548,37.38959 4.34223,-16.9829 -0.50136,-30.93837 -8.79981,-44.11147 -6.43052,-10.20482 -10.59971,-21.02638 -10.37639,-32.72643 2.89877,-1.63721 5.66146,-3.40901 8.33247,-5.30651 l 67.12557,44.5241 -45.05061,-66.38461 c 0.79272,-1.09443 1.57953,-2.2214 2.32344,-3.34689 12.77378,5.76942 24.80956,6.87125 36.24045,4.66168 16.14877,-3.12504 29.80253,0.281 44.12034,8.8146 -8.93883,-15.07947 -22.24948,-21.51887 -37.431,-24.96632 -11.75034,-2.66657 -22.37224,-7.44213 -30.47842,-15.85594 0.87998,-3.16645 1.55587,-6.36396 2.109,-9.6162 l 78.9676,-15.95206 -78.78865,-15.11941 c -0.2174,-1.35473 -0.4777,-2.7065 -0.75427,-4.05975 13.11394,-4.95156 22.4166,-12.60666 28.93438,-22.25096 9.20949,-13.62862 21.25562,-20.87848 37.41178,-24.96781 -16.98142,-4.34267 -30.96055,0.44369 -44.13217,8.74214 -10.20631,6.43052 -21.02786,10.59971 -32.72792,10.37638 -1.6372,-2.89876 -3.40752,-5.66146 -5.30651,-8.33246 l 44.54777,-67.06848 -66.40828,44.99308 c -1.09443,-0.79154 -2.2214,-1.57953 -3.34688,-2.32286 5.76202,-12.76727 6.89491,-24.75942 4.68386,-36.18335 -3.12356,-16.14936 0.25882,-29.86006 8.79242,-44.17684 -15.07948,8.93735 -21.51887,22.24814 -24.96485,37.43056 -2.67396,11.77696 -7.44065,22.4447 -15.88995,30.55843 -3.15758,-0.87703 -6.34178,-1.63825 -9.58366,-2.19005 l -15.95207,-78.96731 -15.11941,78.78939 c -1.35473,0.21652 -2.70649,0.47726 -4.05974,0.75412 -4.956,-13.10566 -12.60666,-22.41645 -22.25096,-28.93423 -13.62862,-9.21037 -20.87848,-21.25562 -24.96781,-37.41281 z"
       style="color:#000000;fill:#fcdd09;fill-opacity:1;fill-rule:nonzero;stroke:#000000;stroke-width:2.99999952;stroke-linecap:butt;stroke-linejoin:miter;stroke-miterlimit:4;stroke-opacity:1;stroke-dasharray:none;stroke-dashoffset:0;marker-start:none;marker-mid:none;marker-end:none;visibility:visible;display:inline;overflow:visible"
       id="path2140" />
    <rect
       style="fill:#0f47af;fill-opacity:1;stroke:none"
       id="rect2988"
       width="1000"
       height="100"
       x="0"
       y="829.86218" />
    <rect
       style="fill:#078930;fill-opacity:1;stroke:none"
       id="rect2990"
       width="1000"
       height="125"
       x="0"
       y="927.36218" />
    <path
       sodipodi:nodetypes="ccccccccccccc"
       id="path1959"
       d="m 176.84392,981.80251 7.45638,1.45771 3.31394,2.91539 9.11334,-2.91539 7.45638,4.37306 12.42728,-2.91536 10.77032,3.64426 2.48545,-3.64426 15.74122,0.72885 C 221.46481,907.56831 210.89926,813.57448 215.10921,727.19135 l -20.42286,0.36443 c -2.67487,99.27291 1.15943,153.15469 -12.87152,241.85627 0.79058,6.71401 -0.25268,11.49204 -4.97091,12.39046 z"
       style="fill:#9d5333;fill-opacity:1;fill-rule:evenodd;stroke:#000000;stroke-width:3.00000095;stroke-linecap:butt;stroke-linejoin:miter;stroke-miterlimit:4;stroke-opacity:1;stroke-dasharray:none"
       inkscape:connector-curvature="0" />
    <g
       id="g2872"
       style="fill:#81b31c"
       transform="matrix(0.93532398,0,0,0.82284009,88.491149,578.3003)">
      <path
         style="fill:#81b31c;fill-rule:evenodd;stroke:#000000;stroke-width:3.41966701;stroke-linecap:butt;stroke-linejoin:miter;stroke-miterlimit:4;stroke-opacity:1;stroke-dasharray:none"
         d="m 132.18627,169.74733 c -2.09716,-3.5086 -4.57037,-13.15405 -7.05124,-17.56318 -13.69418,-24.3984 14.22907,-79.568114 37.22924,-101.373345 6.56613,-5.544341 16.1305,-5.359309 23.56357,-2.969071 -4.87433,1.58901 -7.21428,2.682706 -14.33764,4.534567 2.22761,1.675806 5.4622,5.411028 6.32067,6.26895 -3.21042,0.343317 -11.00343,-0.350741 -13.39671,-0.264777 3.26383,4.879833 5.02428,6.609724 6.42738,8.185131 -5.13131,-0.570668 -4.22259,-0.58743 -10.30686,-0.408465 1.85836,2.252692 6.52947,4.936891 8.43091,6.242954 -4.19617,-0.72936 -12.62832,0.252646 -15.35042,1.869692 2.6573,1.405564 8.79975,2.647256 10.03727,3.461662 -4.56549,1.665642 -13.54049,2.914129 -15.53629,3.990005 3.33388,1.108123 8.97258,1.707505 13.66623,3.454268 -3.12763,1.229989 -8.43484,1.358105 -18.18832,4.914735 2.12226,1.110885 11.41366,-1.195548 14.03777,0.651912 -3.26566,2.583395 -8.39756,2.577216 -16.65957,6.577366 2.18627,0.449274 7.57435,2.065878 8.40926,2.257456 -4.05911,3.1673 -7.17524,3.3277 -11.64096,6.21058 2.29141,0.15663 8.22602,1.13561 10.05543,1.20976 -1.61796,1.41181 -6.19143,3.03034 -10.78074,6.28638 1.95614,-0.13267 7.2671,0.21509 9.06354,0.65967 -4.38868,2.64139 -4.4553,3.53862 -9.25355,6.70422 2.50108,-0.17748 4.91913,0.0779 7.22373,-0.13442 -4.89036,3.54775 -8.43032,7.60237 -13.03862,11.43823 5.5562,-0.79927 2.88256,-0.22861 6.79492,-0.33283 -1.07069,0.67194 -4.35824,4.67335 -7.12466,7.36137 3.07105,-0.55494 3.25852,0.13813 6.38873,0.62562 -1.49024,1.00697 -6.30505,5.98349 -7.61711,8.20587 -1.19508,1.86471 1.95212,15.66268 2.62701,17.12951 l 0.007,4.80618 z"
         id="path1929"
         sodipodi:nodetypes="ccccccccccccccccccccccccccccccc"
         inkscape:connector-curvature="0" />
      <path
         style="fill:#81b31c;fill-rule:evenodd;stroke:#000000;stroke-width:3.41966081;stroke-linecap:butt;stroke-linejoin:miter;stroke-miterlimit:4;stroke-opacity:1;stroke-dasharray:none"
         d="m 123.50758,179.91102 c 9.48483,-56.14693 90.21888,-52.23816 153.49507,-43.11922 -1.9648,0.66035 -0.79851,1.58824 -15.9344,5.3636 0.77256,1.73253 1.45805,2.75554 2.32304,3.53076 -4.48462,-1.0544 -8.18815,-1.4691 -11.68503,-2.4432 -0.14309,1.54292 2.12771,1.15771 1.95198,3.90245 -1.67357,-0.49458 -6.34995,-2.23761 -11.80626,-3.98672 0.73708,1.20533 0.60581,2.01235 0.38404,4.95937 -3.68669,-2.41201 -9.13104,-4.46254 -14.605,-5.91337 1.349,2.03813 0.43627,2.66044 1.41787,4.49412 -5.62945,-3.53172 -8.74308,-3.7857 -14.48043,-5.13433 1.93832,3.26527 2.56795,3.94324 4.04804,6.10949 -5.62381,-2.56682 -8.06131,-2.99777 -14.23842,-5.26387 0.90972,1.49725 3.1881,4.3903 5.18116,7.69815 -4.96698,-1.98524 -13.49309,-4.12737 -18.80548,-6.00163 2.06626,3.74282 5.714,7.38134 6.03978,8.43206 -6.12517,-2.49557 -8.10491,-2.59854 -14.17713,-5.72755 0.32418,0.95876 4.92329,6.54986 6.02017,8.63159 -2.60707,-0.89952 -9.45177,-3.74383 -16.01702,-6.77246 1.40757,2.09074 4.44495,8.2188 5.11013,10.49998 -5.75493,-3.19723 -6.79199,-2.69969 -13.39178,-6.01816 1.80846,2.66817 3.0839,5.52023 4.80434,7.9478 -7.08251,-3.1775 -5.86949,-2.36635 -13.08939,-5.0467 4.46635,5.66982 2.11084,3.06006 4.74778,7.34467 -1.43459,-0.76256 -7.98675,-1.86848 -12.74787,-3.23179 2.59406,3.06161 1.94693,3.71181 3.4241,7.50365 -2.0761,-1.01558 -10.69309,-3.19845 -14.00098,-3.24137 -2.83626,-0.14056 -8.23202,10.93181 -8.64759,12.41185 l -5.32072,3.07083 z"
         id="path2861"
         sodipodi:nodetypes="ccccccccccccccccccccccccccccc"
         inkscape:connector-curvature="0" />
      <path
         style="fill:#81b31c;fill-rule:evenodd;stroke:#000000;stroke-width:3.61866999;stroke-linecap:butt;stroke-linejoin:miter;stroke-miterlimit:4;stroke-opacity:1;stroke-dasharray:none"
         d="M 120.20072,176.96848 C 86.253366,133.53694 16.621511,166.68362 -39.455691,199.05437 c 2.160289,-0.21299 0.384859,1.24363 16.44403,-1.49881 0.03534,1.75615 -0.161811,2.88294 -0.639454,3.87147 3.793172,-2.63676 7.12824,-4.43162 10.018513,-6.61514 0.821153,1.23939 -1.507676,1.80291 -0.121797,4.03853 1.370601,-1.06878 5.0401299,-4.35875 9.4481169,-7.95839 -0.165043,1.29986 0.318049,1.92605 1.837525,4.31341 2.43206703,-3.46472 6.694766,-7.3128 11.251974,-10.66884 -0.376738,2.23795 0.766903,2.40386 0.648585,4.3267 3.7807841,-5.16375 6.6267071,-6.59313 11.4795241,-9.96629 -0.39175,3.49843 -0.688935,4.3133 -1.133391,6.7102 4.204015,-4.3516 6.328856,-5.66548 11.192212,-9.98062 -0.199485,1.61234 -1.079795,4.93096 -1.504556,8.48638 3.838092,-3.60663 6.719678,-7.28866 10.935338,-10.93702 -0.301199,3.94927 -2.151618,8.42859 -1.994498,9.43796 4.711968,-4.48754 6.547552,-5.34715 10.927878,-10.34592 0.117697,0.93151 -1.769506,7.4217 -1.887315,9.59779 2.077931,-1.77346 7.318836,-6.83475 12.212265,-11.94171 -0.409034,2.30511 -0.573811,8.63606 -0.192775,10.81091 4.048626,-4.93196 5.254951,-4.91931 10.052586,-10.28299 -0.533563,2.94634 -0.478952,5.83887 -1.035695,8.5488 5.319023,-5.43404 4.526531,-4.2792 10.19683,-9.34944 -1.726233,6.50451 -0.646891,3.39348 -1.249802,8.0204 1.02447,-1.20048 6.759353,-4.68811 10.678133,-7.6923 -1.10522,3.58349 -0.20169,3.87654 0.0786,7.63686 1.52185,-1.66347 8.74054,-6.86175 11.864784,-8.18984 2.6326,-1.2259 12.67701,5.96206 13.72919,7.04224 l 6.41961,0.49977 z"
         id="path1919"
         sodipodi:nodetypes="ccccccccccccccccccccccccccccc"
         inkscape:connector-curvature="0" />
      <path
         style="fill:#81b31c;fill-rule:evenodd;stroke:#000000;stroke-width:3.41966701;stroke-linecap:butt;stroke-linejoin:miter;stroke-miterlimit:4;stroke-opacity:1;stroke-dasharray:none"
         d="m 124.12826,174.89897 c 0.29457,-4.07697 4.90835,-20.48773 5.4051,-25.52244 3.38605,-33.94975 53.60546,-54.124342 95.58572,-66.939723 -1.17095,1.119914 -0.0437,1.389804 -9.49375,9.088221 1.11268,0.970323 1.93162,1.467186 2.79627,1.729026 -3.51156,0.742142 -6.26211,1.678046 -9.04996,2.14912 0.40421,1.140138 1.88129,0.113431 2.65597,2.115438 -1.34344,0.205394 -5.21583,0.523559 -9.64087,1.096318 0.91503,0.60888 1.08662,1.223979 1.89507,3.38447 -3.39268,-0.48411 -7.90793,-0.12871 -12.24772,0.66116 1.6197,0.99543 1.1792,1.73917 2.47256,2.71172 -5.13089,-0.63203 -7.41238,0.22186 -11.90471,1.17155 2.43778,1.6688 3.10421,1.93986 4.85857,2.98246 -4.81101,0.0494 -6.67312,0.55347 -11.77627,0.99945 1.13258,0.75825 3.68851,2.05051 6.17872,3.73129 -4.15685,0.24309 -10.87793,1.55675 -15.24224,1.99318 2.68435,1.96444 6.45123,3.33004 7.02526,3.96586 -5.14172,0.26629 -6.57317,0.8507 -11.88484,0.65079 0.54273,0.57125 5.62066,3.00373 7.07671,4.11378 -2.13513,0.22846 -7.89906,0.48658 -13.52598,0.52147 1.67846,1.01332 5.82948,4.34441 7.04605,5.73899 -5.11004,-0.35354 -5.67925,0.34323 -11.42546,0.18418 2.15056,1.28915 3.98484,2.88529 5.99443,4.03324 -6.04085,0.10114 -4.91886,0.27285 -10.89392,0.77177 5.00983,2.53219 2.49239,1.46613 5.75699,3.62478 -1.26248,-0.0637 -6.25058,1.3284 -10.0585,1.94355 2.83395,1.3069 2.58999,1.98216 4.87451,4.1769 -1.79832,-0.0299 -8.59678,1.28496 -10.94627,2.35285 -2.0485,0.84202 -8.49197,21.04091 -8.78048,22.62957 l -2.75096,3.94103 z"
         id="path2865"
         sodipodi:nodetypes="cccccccccccccccccccccccccccccc"
         inkscape:connector-curvature="0" />
      <path
         sodipodi:type="arc"
         style="fill:#81b31c;stroke-width:3;stroke-miterlimit:4;stroke-dasharray:none"
         id="path2766"
         sodipodi:cx="203.97313"
         sodipodi:cy="154.59691"
         sodipodi:rx="0.9378075"
         sodipodi:ry="0.11722594"
         d="m 204.91094,154.59691 c 0,0.0647 -0.41987,0.11722 -0.93781,0.11722 -0.51794,0 -0.93781,-0.0525 -0.93781,-0.11722 0,-0.0647 0.41987,-0.11723 0.93781,-0.11723 0.51794,0 0.93781,0.0525 0.93781,0.11723 z"
         transform="matrix(-0.766043,-0.642788,0.642788,-0.766043,164.3647,463.656)" />
      <path
         style="fill:#81b31c;fill-rule:evenodd;stroke:#000000;stroke-width:3.41966701;stroke-linecap:butt;stroke-linejoin:miter;stroke-miterlimit:4;stroke-opacity:1;stroke-dasharray:none"
         d="m 124.2947,173.03571 c 0.18134,-10.21882 0.36477,-13.42728 1.54294,-17.57197 9.47149,-33.31984 -31.261474,-69.899898 -66.667223,-96.55675 0.717284,1.45286 -0.43427,1.32094 5.812854,11.787186 -1.377464,0.531252 -2.316936,0.718059 -3.219005,0.668377 3.04595,1.898421 5.310522,3.718616 7.769154,5.1148 -0.7698,0.933125 -1.806652,-0.536863 -3.219326,1.079468 1.192187,0.652491 4.722221,2.275906 8.684484,4.327565 -1.068096,0.259194 -1.439707,0.778508 -2.938332,2.53219 3.353636,0.705459 7.475031,2.583743 11.282961,4.810269 -1.86251,0.381434 -1.702925,1.230969 -3.250911,1.702509 5.037633,1.16098 6.88947,2.743668 10.786071,5.172567 -2.861525,0.73438 -3.580472,0.761166 -5.585622,1.140862 4.503981,1.691873 6.081379,2.802417 10.724242,4.966907 -1.323607,0.32514 -4.167374,0.6653 -7.082283,1.39301 3.823023,1.65015 9.689468,5.18335 13.641336,7.08615 -3.194348,0.92785 -7.201135,0.92273 -7.957994,1.32389 4.740546,2.0088 5.885774,3.04757 10.945514,4.67639 -0.70538,0.35115 -6.309048,0.90022 -8.056939,1.44532 1.928231,0.94495 7.256299,3.1589 12.531929,5.11618 -1.92381,0.37816 -6.9638,2.08863 -8.58399,2.98301 4.92282,1.4155 5.21936,2.26493 10.67345,4.0808 -2.46177,0.47586 -4.73135,1.34841 -7.01239,1.7398 5.64195,2.16114 4.52891,1.93877 9.97299,4.45116 -5.57376,0.66602 -2.84354,0.52526 -6.64956,1.43717 1.20815,0.37192 5.41927,3.38611 8.78717,5.26655 -3.11003,0.2588 -3.11174,0.97678 -6.00914,2.25781 1.70013,0.58696 7.63887,4.14775 9.48143,5.95481 1.19409,5.92074 1.61576,16.8064 1.03035,19.62706 l 2.56584,1.98691 z"
         id="path2863"
         sodipodi:nodetypes="cccccccccccccccccccccccccccccc"
         inkscape:connector-curvature="0" />
      <path
         style="fill:#81b31c;fill-rule:evenodd;stroke:#000000;stroke-width:3.41965771;stroke-linecap:butt;stroke-linejoin:miter;stroke-miterlimit:4;stroke-opacity:1;stroke-dasharray:none"
         d="m 121.53047,179.59696 c -57.804228,-5.47253 -73.328652,71.25706 -81.048332,135.96634 1.169046,-1.76037 4.417558,-4.53566 8.999311,-14.68494 1.502517,1.21767 2.329157,2.16257 2.864377,3.21874 0.145191,-4.69384 0.714224,-8.4499 0.677822,-12.15 1.55745,0.26616 0.578705,2.40048 3.328418,2.9515 -0.04543,-1.77837 -0.527909,-6.84261 -0.810527,-12.67651 0.992686,1.0437 1.822104,1.1273 4.783218,1.68638 -1.402455,-4.26624 -1.985184,-10.16787 -1.969335,-15.94043 1.651335,1.86591 2.505159,1.13144 4.0522,2.58157 -1.992664,-6.47451 -1.420986,-9.60731 -1.23503,-15.61233 2.704565,2.77 3.20599,3.56873 4.949,5.59752 -1.043766,-6.21443 -0.824884,-8.7282 -1.426408,-15.40816 1.234576,1.29072 3.482562,4.29728 6.214537,7.13232 -0.644292,-5.41436 -1.949198,-10.16943 -2.393045,-15.89455 3.141139,3.02184 5.761945,7.57337 6.710862,8.17129 -0.841299,-6.68931 -0.420177,-8.66586 -1.899346,-15.4702 0.858754,0.57216 5.151674,6.57552 6.912554,8.20473 -0.19782,-2.80435 -1.192697,-10.29418 -2.442878,-17.5575 1.687794,1.93754 6.921791,6.54476 8.993002,7.80146 -1.630103,-6.50984 -0.866367,-7.3996 -2.392818,-14.77344 2.150663,2.48454 4.623047,4.49277 6.559966,6.82711 -1.260287,-7.81192 -0.781531,-6.40353 -1.515835,-14.2196 4.405468,5.8935 2.45678,2.8857 5.980809,6.61238 -0.37239,-1.61368 0.267714,-8.35691 0.181634,-13.40446 2.33084,3.3618 3.14195,2.89618 6.486824,5.35091 -0.45231,-2.31213 -0.3279,-11.37251 0.50286,-14.64085 0.61017,-2.82976 12.93985,-5.22173 14.50729,-5.24041 l 4.42887,-4.42887 z"
         id="path1961"
         sodipodi:nodetypes="ccccccccccccccccccccccccccccc"
         inkscape:connector-curvature="0" />
      <path
         style="fill:#81b31c;fill-rule:evenodd;stroke:#000000;stroke-width:3.41966081;stroke-linecap:butt;stroke-linejoin:miter;stroke-miterlimit:4;stroke-opacity:1;stroke-dasharray:none"
         d="M 121.4524,179.94431 C 131.74296,123.93944 54.540897,99.999832 -8.0381152,86.927067 c 1.6204286,1.292551 0.2071342,1.765603 13.1389562,10.490059 -1.3184934,1.363806 -2.3125662,2.090666 -3.3905235,2.523296 4.5747803,0.543018 8.1968273,1.420008 11.8159805,1.700678 -0.39326,1.49879 -2.39536,0.36016 -3.169002,2.99948 1.741806,0.10762 6.732293,0.0691 12.457799,0.29165 -1.104876,0.88057 -1.257528,1.6838 -2.057074,4.52893 4.289287,-1.00559 10.106618,-1.0704 15.746681,-0.56153 -1.964725,1.45382 -1.319904,2.35079 -2.86942,3.73815 6.497816,-1.39335 9.510558,-0.56705 15.363195,0.12792 -2.938257,2.40542 -3.761743,2.82713 -5.893497,4.35653 6.162552,-0.48856 8.600442,-0.0599 15.180073,-0.0766 -1.366923,1.09581 -4.49737,3.03511 -7.501592,5.46184 5.346433,-0.16671 14.09097,0.73644 19.724025,0.79216 -3.221782,2.81041 -7.893981,4.98189 -8.559468,5.85782 6.609326,-0.25017 8.504875,0.3302 15.281079,-0.53328 -0.632524,0.79005 -6.866575,4.47098 -8.609264,6.05205 2.757477,0.0464 10.162199,-0.28542 17.367383,-0.88592 -2.037756,1.48326 -6.98787,6.20288 -8.39314,8.119 6.501387,-1.03613 7.3057,-0.2139 14.642454,-1.07497 -2.611983,1.88875 -4.785938,4.13258 -7.232896,5.82532 7.74216,-0.56352 6.324876,-0.21616 14.026072,-0.2655 -6.136189,3.80027 -3.03017,2.15353 -6.973465,5.27786 1.608851,-0.22589 8.144159,0.97587 13.084409,1.32315 -3.48474,1.98977 -3.09905,2.82208 -5.783994,5.88001 2.298234,-0.24423 11.142114,0.6517 14.265214,1.74273 2.71331,0.83797 3.99672,13.08804 3.88098,14.62099 l 3.94955,4.70541 z"
         id="path2855"
         sodipodi:nodetypes="ccccccccccccccccccccccccccccc"
         inkscape:connector-curvature="0" />
      <path
         style="fill:#81b31c;fill-rule:evenodd;stroke:#000000;stroke-width:3.41965771;stroke-linecap:butt;stroke-linejoin:miter;stroke-miterlimit:4;stroke-opacity:1;stroke-dasharray:none"
         d="m 123.23222,178.13789 c 58.06123,-0.41372 66.83915,77.37692 68.88968,142.51279 -1.01118,-1.85556 -1.2132,-0.26041 -7.68519,-15.41341 -1.60294,1.08209 -2.50879,1.95133 -3.13402,2.95685 0.26447,-4.68864 0.025,-8.48 0.3837,-12.16284 -1.57471,0.12938 -0.7857,2.34089 -3.57299,2.65016 0.20026,-1.76764 1.12228,-6.77055 1.91227,-12.55762 -1.07987,0.9532 -1.91342,0.9642 -4.91199,1.26306 1.76894,-4.12776 2.86382,-9.95614 3.35114,-15.70813 -1.80767,1.7149 -2.59423,0.90879 -4.26177,2.21857 2.54936,-6.27619 2.25291,-9.4469 2.59103,-15.44527 -2.9357,2.52375 -3.50483,3.27573 -5.41802,5.14489 1.58142,-6.0998 1.58246,-8.62309 2.76389,-15.22522 -1.34238,1.17823 -3.84385,3.97741 -6.81252,6.56356 1.11373,-5.33761 2.8281,-9.96085 3.76924,-15.62549 -3.39255,2.73656 -6.40008,7.04235 -7.39749,7.5553 1.4211,-6.59053 1.17384,-8.59627 3.24043,-15.2458 -0.90536,0.49512 -5.70516,6.1015 -7.60134,7.57104 0.44149,-2.77643 2.08536,-10.15104 3.96382,-17.27777 -1.85023,1.78306 -7.46587,5.91658 -9.63873,6.98798 2.19128,-6.34299 1.50799,-7.29595 3.67131,-14.50869 -2.35902,2.28766 -4.99703,4.07277 -7.13002,6.22941 1.93634,-7.67236 1.33666,-6.31105 2.74938,-14.03338 -4.90236,5.48711 -2.69894,2.66059 -6.53435,6.06595 0.5116,-1.57508 0.46166,-8.34845 0.98734,-13.36929 -2.61497,3.14587 -3.38243,2.61135 -6.9285,4.7652 0.65209,-2.26391 1.31783,-11.30066 0.77509,-14.62896 -0.36124,-2.87216 -12.43552,-6.32964 -13.99537,-6.48486 l -4.02602,-4.79803 z"
         id="path2859"
         sodipodi:nodetypes="ccccccccccccccccccccccccccccc"
         inkscape:connector-curvature="0" />
      <path
         style="fill:#81b31c;fill-rule:evenodd;stroke:#000000;stroke-width:3.41966462;stroke-linecap:butt;stroke-linejoin:miter;stroke-miterlimit:4;stroke-opacity:1;stroke-dasharray:none"
         d="m 121.27975,173.11388 c -22.169949,-48.18094 -88.951657,-26.16847 -143.723026,-2.82922 1.929727,0.12317 0.12038,1.28897 14.6676895,1.05854 -0.275165,1.74158 -0.644303,2.82505 -1.235097,3.72861 3.7827896,-2.02078 7.0174818,-3.28 9.93024235,-4.99216 0.50335045,1.35215 -1.635133,1.54945 -0.8106932,3.97369 1.38708455,-0.8449 5.17540455,-3.53047 9.66467125,-6.40816 -0.3711799,1.25953 -0.057103,1.95321 0.8579331,4.5481 2.734664,-3.04953 7.139954,-6.19531 11.717487,-8.8091 -0.720173,2.15426 0.252841,2.49493 -0.185997,4.37756 4.212433,-4.52085 6.954874,-5.4943 11.794384,-8.07944 -0.953058,3.39811 -1.355467,4.15779 -2.162664,6.45868 4.441647,-3.65258 6.532219,-4.62323 11.545151,-8.13791 -0.455815,1.56311 -1.805545,4.70798 -2.797448,8.15727 3.991203,-2.97264 7.15757,-6.16756 11.486838,-9.12316 -0.952304,3.85775 -3.354259,8.00018 -3.392556,9.0223 4.910358,-3.70853 6.668335,-4.27478 11.377258,-8.53991 -0.05927,0.9391 -2.84399,7.06385 -3.326526,9.19693 2.129597,-1.43225 7.603366,-5.6263 12.780679,-9.91919 -0.760164,2.21564 -2.008123,8.44901 -2.053426,10.65798 4.406689,-4.25036 5.461325,-4.05148 10.599468,-8.61297 -0.981059,2.83042 -1.437433,5.69842 -2.397577,8.29144 5.607183,-4.55044 4.711572,-3.53114 10.563105,-7.66777 -2.646184,6.16374 -1.158287,3.25492 -2.493053,7.73601 1.106795,-1.02854 6.739012,-3.59053 10.695901,-5.95516 -1.592929,3.37197 -0.852439,3.80123 -1.262388,7.56201 1.623246,-1.40945 8.853654,-5.43337 11.822244,-6.26369 2.52011,-0.8052 10.06685,7.85243 10.80035,9.0829 l 5.53705,1.48582 z"
         id="path1921"
         sodipodi:nodetypes="ccccccccccccccccccccccccccccc"
         inkscape:connector-curvature="0" />
      <path
         style="fill:#81b31c;fill-rule:evenodd;stroke:#000000;stroke-width:3.59246922;stroke-linecap:butt;stroke-linejoin:miter;stroke-miterlimit:4;stroke-opacity:1;stroke-dasharray:none"
         d="m 121.37135,177.05815 c -59.798559,4.49671 -46.303653,86.90626 -29.556992,155.45957 0.502228,-2.03384 2.697683,-5.48775 3.437712,-16.83357 1.960806,0.99983 3.143506,1.83543 4.077215,2.83791 -1.629003,-4.89964 -2.480276,-8.90012 -3.915061,-12.73588 1.656051,0.002 1.485212,2.39074 4.439658,2.47869 -0.717497,-1.83866 -3.113355,-7.01238 -5.600494,-13.0205 1.385876,0.90896 2.245827,0.8497 5.414453,0.9088 -3.013058,-4.18307 -5.825527,-10.20869 -7.991401,-16.20568 2.354432,1.64675 2.929577,0.73373 5.022702,1.96709 -4.437113,-6.37219 -5.050187,-9.72595 -7.134029,-15.99428 3.748006,2.40007 4.550667,3.14118 7.058212,4.94091 -3.391132,-6.26922 -4.122594,-8.91806 -7.247998,-15.74858 1.720816,1.12288 5.102235,3.849 8.902197,6.3118 -2.689782,-5.5088 -5.790173,-10.21665 -8.397226,-16.08343 4.279206,2.58471 8.616878,6.84948 9.790566,7.30325 -3.368408,-6.79799 -3.69485,-8.92459 -7.743782,-15.72972 1.073904,0.4429 7.630257,5.92078 10.004648,7.30246 -1.25747,-2.87719 -5.081805,-10.47941 -9.075506,-17.80145 2.417908,1.71471 9.386486,5.57712 11.930006,6.51734 -4.08838,-6.47274 -3.6619,-7.53115 -7.973296,-14.91931 3.086939,2.20121 6.315146,3.85115 9.131846,5.93403 -4.21115,-7.88993 -3.20071,-6.51177 -6.888118,-14.49863 6.627258,5.34397 3.544278,2.56385 8.472278,5.81304 -0.98179,-1.61006 -2.89106,-8.72493 -4.88473,-13.95113 3.59843,3.08042 4.23253,2.45409 8.50086,4.41403 -1.3256,-2.32125 -4.62564,-11.75143 -5.03121,-15.29155 -0.46009,-3.04586 10.94977,-7.70094 12.50815,-7.99637 l 2.74934,-5.37884 z"
         id="path1923"
         sodipodi:nodetypes="ccccccccccccccccccccccccccccc"
         inkscape:connector-curvature="0" />
      <path
         style="fill:#81b31c;fill-rule:evenodd;stroke:#000000;stroke-width:3.41966462;stroke-linecap:butt;stroke-linejoin:miter;stroke-miterlimit:4;stroke-opacity:1;stroke-dasharray:none"
         d="M 127.59097,180.62455 C 87.136029,146.3272 35.914124,194.50046 -3.8619994,238.80039 c 1.8009754,-0.70392 0.6538411,1.11732 13.7407933,-5.23949 0.4866411,1.69471 0.6099831,2.83267 0.4564021,3.90125 2.574353,-3.43012 4.973812,-5.9384 6.890078,-8.72113 1.027634,1.01274 -0.827106,2.09531 0.944619,3.944 0.900057,-1.35194 3.198467,-5.38691 6.050961,-9.89223 0.195897,1.29839 0.773704,1.79433 2.699659,3.75939 1.189661,-3.91953 3.852751,-8.63231 6.896764,-12.93577 0.257732,2.25678 1.283553,2.15431 1.681468,4.04602 1.907164,-5.87754 3.981266,-7.91878 7.27482,-12.30699 0.572343,3.48252 0.528692,4.3411 0.769516,6.76753 2.481857,-5.18747 3.966344,-6.95069 7.024236,-12.25463 0.247489,1.60929 0.353297,5.02994 0.912062,8.57525 2.360963,-4.38089 3.880438,-8.61463 6.554996,-13.12294 0.767273,3.89877 0.341029,8.66819 0.73829,9.61075 2.883,-5.43629 4.236959,-6.69245 6.702172,-12.54805 0.343164,0.87617 0.407782,7.60395 0.871935,9.74111 1.324775,-2.19807 4.513212,-8.31248 7.391198,-14.39119 0.247427,2.32931 1.750729,8.50608 2.643223,10.52723 2.197535,-5.71448 3.237412,-5.97994 5.966382,-12.28552 0.307042,2.97983 1.105498,5.772 1.331171,8.52785 3.158736,-6.4938 2.777812,-5.19149 6.332884,-11.41352 0.206653,6.70457 0.325825,3.43947 1.009907,8.06481 0.568417,-1.39992 4.590194,-6.10215 7.177019,-9.91748 -0.01863,3.72924 0.833893,3.80532 2.051734,7.38701 0.8755,-1.96341 5.72789,-8.66602 8.06744,-10.67312 1.94371,-1.79481 12.44224,2.86228 13.62705,3.66746 l 5.64619,-0.99344 z"
         id="path2853"
         sodipodi:nodetypes="ccccccccccccccccccccccccccccc"
         inkscape:connector-curvature="0" />
      <path
         style="fill:#81b31c;fill-rule:evenodd;stroke:#000000;stroke-width:3.41965771;stroke-linecap:butt;stroke-linejoin:miter;stroke-miterlimit:4;stroke-opacity:1;stroke-dasharray:none"
         d="m 125.52641,174.8455 c 37.20023,25.26196 31.62206,89.76085 16.74431,153.20799 -0.49647,-2.05405 -1.10446,-0.56554 -3.43404,-16.87729 -1.82839,0.63034 -2.92834,1.23552 -3.79253,2.04496 1.46899,-4.46043 2.21891,-8.18459 3.51861,-11.6491 -1.55454,-0.28259 -1.36479,2.05777 -4.13715,1.6351 0.65093,-1.65557 2.83639,-6.24938 5.09726,-11.63479 -1.28978,0.64122 -2.09778,0.4361 -5.07152,-0.0513 2.77701,-3.52928 5.34307,-8.87569 7.30252,-14.30556 -2.18993,1.18862 -2.74105,0.20638 -4.69077,1.03995 4.0869,-5.40251 4.62118,-8.54191 6.50028,-14.24838 -3.48887,1.67793 -4.23324,2.257 -6.565,3.5673 3.10627,-5.48266 3.76036,-7.9197 6.61028,-13.99109 -1.60159,0.79065 -4.74229,2.84702 -8.27915,4.57671 2.45725,-4.86748 5.30978,-8.88948 7.68496,-14.11752 -3.98521,1.76526 -8.00469,5.14593 -9.10087,5.38324 3.07843,-5.99815 3.35872,-7.99954 7.07591,-13.88763 -1.00264,0.24394 -7.08994,4.41699 -9.30185,5.3457 1.14503,-2.56756 4.64159,-9.26542 8.30057,-15.66312 -2.24867,1.24341 -8.7428,3.78265 -11.11892,4.25517 3.7583,-5.55972 3.34493,-6.65704 7.30133,-13.06411 -2.87072,1.59915 -5.88087,2.64067 -8.49935,4.17176 3.85611,-6.90977 2.92453,-5.75004 6.28779,-12.84361 -6.15547,4.03132 -3.29558,1.87139 -7.88167,4.16804 0.90183,-1.389 2.60667,-7.9445 4.41392,-12.65819 -3.34008,2.36187 -3.94304,1.64693 -7.92574,2.80959 1.21582,-2.018 4.19775,-10.57452 4.53494,-13.92987 0.39443,-2.8678 -5.05645,-9.33251 -6.52298,-10.64576 l 4.94886,-2.6382 z"
         id="path1925"
         sodipodi:nodetypes="ccccccccccccccccccccccccccccc"
         inkscape:connector-curvature="0" />
      <path
         style="fill:#81b31c;fill-rule:evenodd;stroke:#000000;stroke-width:3.5364182;stroke-linecap:butt;stroke-linejoin:miter;stroke-miterlimit:4;stroke-opacity:1;stroke-dasharray:none"
         d="m 131.4738,169.64192 c 50.85562,-34.28764 105.42871,23.97538 146.45944,75.8593 -2.00748,-0.92095 -2.04319,1.33771 -16.04661,-8.06742 -0.75928,1.81912 -1.03316,3.05717 -0.97791,4.24228 -2.59077,-3.97568 -5.0848,-6.92538 -6.9869,-10.1366 -1.30813,1.02635 0.71817,2.36716 -1.54893,4.24904 -0.88825,-1.55759 -3.08954,-6.17392 -5.87926,-11.35209 -0.3764,1.40831 -1.10354,1.90465 -3.56284,3.90158 -0.92882,-4.39829 -3.47502,-9.78843 -6.51006,-14.761 -0.55831,2.45457 -1.73615,2.25761 -2.41506,4.30011 -1.53576,-6.60557 -3.70609,-9.01618 -7.02085,-14.1022 -1.064,3.77328 -1.11211,4.71894 -1.67049,7.36085 -2.28153,-5.8958 -3.80008,-7.95268 -6.73617,-14.02395 -0.47205,1.74512 -0.98803,5.48904 -2.04363,9.33249 -2.23401,-5.0011 -3.50931,-9.77138 -6.09233,-14.93808 -1.33798,4.21386 -1.3922,9.48149 -1.96116,10.48275 -2.71807,-6.20185 -4.1436,-7.69187 -6.32922,-14.3194 -0.49849,0.93291 -1.34708,8.3085 -2.13104,10.61479 -1.28344,-2.5208 -4.27762,-9.49199 -6.91611,-16.39836 -0.55473,2.53504 -3.00828,9.18732 -4.2757,11.33105 -1.8911,-6.4506 -3.0663,-6.82773 -5.5059,-13.97071 -0.69862,3.2437 -1.94563,6.2411 -2.52423,9.24591 -2.91608,-7.3849 -2.62416,-5.92483 -6.03114,-13.04425 -1.01059,7.33833 -0.77341,3.7464 -2.09853,8.76431 -0.49816,-1.58274 -4.6212,-7.07353 -7.18214,-11.47271 -0.40721,4.09283 -1.40456,4.10601 -3.22871,7.93479 -0.7894,-2.22628 -5.64551,-9.98009 -8.12758,-12.37519 -2.04762,-2.1295 -14.7574,2.11311 -16.22385,2.89871 l -6.43309,-1.556 z"
         id="path1927"
         sodipodi:nodetypes="ccccccccccccccccccccccccccccc"
         inkscape:connector-curvature="0" />
      <path
         style="fill:#81b31c;fill-rule:evenodd;stroke:#000000;stroke-width:3.41965771;stroke-linecap:butt;stroke-linejoin:miter;stroke-miterlimit:4;stroke-opacity:1;stroke-dasharray:none"
         d="m 124.1703,174.19193 c 52.44648,-24.91266 93.27772,41.87984 122.66373,100.04641 -1.70064,-1.2544 -2.10062,0.96172 -13.47913,-10.72139 -0.99543,1.65813 -1.44908,2.82876 -1.59077,4.00431 -1.74182,-4.36111 -3.56119,-7.69603 -4.79248,-11.18545 -1.37249,0.7828 0.27722,2.45363 -2.11823,3.91188 -0.56554,-1.68662 -1.84422,-6.6105 -3.57397,-12.18922 -0.57583,1.32026 -1.32665,1.6825 -3.91798,3.22063 -0.14127,-4.48863 -1.61214,-10.23364 -3.60137,-15.65267 -0.91357,2.31818 -1.96712,1.92001 -2.92488,3.81184 -0.3419,-6.76559 -1.9506,-9.51394 -4.17918,-15.0932 -1.59404,3.52796 -1.79205,4.45003 -2.73608,6.9526 -1.14464,-6.19666 -2.21007,-8.48396 -3.9295,-14.9668 -0.71869,1.63515 -1.8028,5.22924 -3.40036,8.82767 -1.2464,-5.30817 -1.6465,-10.22276 -3.18755,-15.75445 -1.91814,3.91395 -2.8242,9.08734 -3.51139,9.97377 -1.4973,-6.57364 -2.56906,-8.28696 -3.50632,-15.18687 -0.61128,0.83136 -2.59202,7.94096 -3.68949,10.07417 -0.77324,-2.70289 -2.40002,-10.08127 -3.70946,-17.33417 -0.92332,2.39795 -4.26592,8.51747 -5.7824,10.40677 -0.69469,-6.6748 -1.71671,-7.24969 -2.80429,-14.7009 -1.17121,3.07028 -2.80765,5.80303 -3.82935,8.65904 -1.48755,-7.77184 -1.45576,-6.28466 -3.43896,-13.88048 -2.12412,7.04481 -1.32168,3.55191 -3.35857,8.25913 -0.20197,-1.6437 -3.10982,-7.76135 -4.75526,-12.53393 -1.0405,3.95623 -1.96193,3.79614 -4.26551,7.24683 -0.36575,-2.32738 -3.58151,-10.7988 -5.48,-13.58591 -1.54123,-2.45044 -13.9454,-0.48114 -15.42472,0.0374 l -5.67653,-2.64701 z"
         id="path2857"
         sodipodi:nodetypes="ccccccccccccccccccccccccccccc"
         inkscape:connector-curvature="0" />
    </g>
  </g>
</svg>
