<?xml version="1.0" encoding="UTF-8" standalone="no"?>
<!-- Created with Inkscape (http://www.inkscape.org/) -->
<svg
   xmlns:dc="http://purl.org/dc/elements/1.1/"
   xmlns:cc="http://creativecommons.org/ns#"
   xmlns:rdf="http://www.w3.org/1999/02/22-rdf-syntax-ns#"
   xmlns:svg="http://www.w3.org/2000/svg"
   xmlns="http://www.w3.org/2000/svg"
   xmlns:xlink="http://www.w3.org/1999/xlink"
   xmlns:sodipodi="http://sodipodi.sourceforge.net/DTD/sodipodi-0.dtd"
   xmlns:inkscape="http://www.inkscape.org/namespaces/inkscape"
   width="750"
   height="500"
   id="svg2822"
   version="1.1"
   inkscape:version="0.46"
   sodipodi:docname="Flag_of_Hobo_(Huila).svg"
   sodipodi:version="0.32"
   inkscape:output_extension="org.inkscape.output.svg.inkscape">
  <defs
     id="defs2824" />
  <sodipodi:namedview
     id="base"
     pagecolor="#ffffff"
     bordercolor="#666666"
     borderopacity="1.0"
     inkscape:pageopacity="0.0"
     inkscape:pageshadow="2"
     inkscape:zoom="1"
     inkscape:cx="514.89292"
     inkscape:cy="154.33307"
     inkscape:document-units="px"
     inkscape:current-layer="g3326"
     showgrid="false"
     inkscape:window-width="1280"
     inkscape:window-height="962"
     inkscape:window-x="-8"
     inkscape:window-y="-8"
     inkscape:window-maximized="1" />
  <metadata
     id="metadata2827">
    <rdf:RDF>
      <cc:Work
         rdf:about="">
        <dc:format>image/svg+xml</dc:format>
        <dc:type
           rdf:resource="http://purl.org/dc/dcmitype/StillImage" />
        <dc:title />
      </cc:Work>
    </rdf:RDF>
  </metadata>
  <g
     inkscape:label="Capa 1"
     inkscape:groupmode="layer"
     id="layer1"
     transform="translate(0,-552.36218)">
    <rect
       style="fill:#07a030;fill-opacity:1;stroke:none"
       id="rect2832"
       width="750"
       height="166.666"
       x="0"
       y="-1052.3622"
       transform="scale(1,-1)" />
    <rect
       style="fill:#ffffff;fill-opacity:1;stroke:none"
       id="rect2834"
       width="750"
       height="166.666"
       x="0"
       y="-885.69537"
       transform="scale(1,-1)" />
    <rect
       style="fill:#da121a;fill-opacity:1;stroke:none"
       id="rect2836"
       width="750"
       height="166.666"
       x="0"
       y="-719.02881"
       transform="scale(1,-1)" />
    <g
       inkscape:groupmode="layer"
       inkscape:label="Calque 1"
       id="layer1-4"
       transform="matrix(1.960451,0,0,1.960451,194.63835,621.01125)">
      <g
         transform="matrix(0.754398,0,0,0.754398,-21.1595,-18.7689)"
         style="display:inline"
         id="g2129" />
    </g>
    <g
       transform="translate(149.19355,1493.6525)"
       id="g3326">
      <g
         transform="matrix(-42.069948,0,0,41.458978,535.79553,-687.33134)"
         style="fill:#fcdd09"
         id="stl">
        <g
           id="q"
           style="fill:#fcdd09">
          <polygon
             points="0,1 0.4,1 0,0 "
             transform="matrix(0.951057,0.309017,-0.309017,0.951057,0,-1)"
             id="t"
             style="fill:#fcdd09" />
          <use
             xlink:href="#t"
             height="320"
             width="480"
             y="0"
             x="0"
             transform="scale(-1,1)"
             id="use17"
             style="fill:#fcdd09" />
        </g>
        <use
           xlink:href="#q"
           height="320"
           width="480"
           y="0"
           x="0"
           transform="matrix(0.309017,0.951057,-0.951057,0.309017,0,0)"
           id="use19"
           style="fill:#fcdd09" />
        <use
           xlink:href="#q"
           height="320"
           width="480"
           y="0"
           x="0"
           transform="matrix(0.309017,-0.951057,0.951057,0.309017,0,0)"
           id="use21"
           style="fill:#fcdd09" />
        <use
           xlink:href="#q"
           height="320"
           width="480"
           y="0"
           x="0"
           transform="matrix(-0.809017,0.587785,-0.587785,-0.809017,0,0)"
           id="use23"
           style="fill:#fcdd09" />
        <use
           xlink:href="#q"
           height="320"
           width="480"
           y="0"
           x="0"
           transform="matrix(-0.809017,-0.587785,0.587785,-0.809017,0,0)"
           id="use25"
           style="fill:#fcdd09" />
      </g>
      <use
         xlink:href="#stl"
         height="320"
         width="480"
         y="0"
         x="0"
         transform="translate(-88.568305,3.7258066e-6)"
         id="use27"
         style="fill:#fcdd09" />
      <use
         xlink:href="#stl"
         height="320"
         width="480"
         y="0"
         x="0"
         transform="translate(-177.13661,3.7258066e-6)"
         id="use29"
         style="fill:#fcdd09" />
      <use
         xlink:href="#stl"
         height="320"
         width="480"
         y="0"
         x="0"
         transform="translate(-265.70492,3.7258066e-6)"
         id="use31"
         style="fill:#fcdd09" />
      <use
         xlink:href="#stl"
         height="320"
         width="480"
         y="0"
         x="0"
         transform="translate(-354.27322,3.7258066e-6)"
         id="use33"
         style="fill:#fcdd09" />
      <use
         xlink:href="#stl"
         height="320"
         width="480"
         y="0"
         x="0"
         transform="translate(-442.84153,3.7258066e-6)"
         id="use35"
         style="fill:#fcdd09" />
      <use
         xlink:href="#stl"
         height="320"
         width="480"
         y="0"
         x="0"
         transform="translate(-531.40986,3.7258066e-6)"
         id="use37"
         style="fill:#fcdd09" />
      <use
         xlink:href="#stl"
         height="320"
         width="480"
         y="0"
         x="0"
         transform="translate(-619.97816,3.7258066e-6)"
         id="use39"
         style="fill:#fcdd09" />
    </g>
  </g>
</svg>
