<?xml version="1.0" encoding="UTF-8" standalone="no"?>
<!-- Created with Inkscape (http://www.inkscape.org/) -->
<svg
   xmlns:dc="http://purl.org/dc/elements/1.1/"
   xmlns:cc="http://creativecommons.org/ns#"
   xmlns:rdf="http://www.w3.org/1999/02/22-rdf-syntax-ns#"
   xmlns:svg="http://www.w3.org/2000/svg"
   xmlns="http://www.w3.org/2000/svg"
   xmlns:sodipodi="http://sodipodi.sourceforge.net/DTD/sodipodi-0.dtd"
   xmlns:inkscape="http://www.inkscape.org/namespaces/inkscape"
   width="750"
   height="500"
   id="svg2"
   version="1.1"
   inkscape:version="0.46"
   sodipodi:docname="Flag_of_Imués_(Nariño).svg"
   sodipodi:version="0.32"
   inkscape:output_extension="org.inkscape.output.svg.inkscape">
  <defs
     id="defs4" />
  <sodipodi:namedview
     id="base"
     pagecolor="#ffffff"
     bordercolor="#666666"
     borderopacity="1.0"
     inkscape:pageopacity="0.0"
     inkscape:pageshadow="2"
     inkscape:zoom="0.58"
     inkscape:cx="350"
     inkscape:cy="283.78768"
     inkscape:document-units="px"
     inkscape:current-layer="layer1"
     showgrid="false"
     inkscape:window-width="1024"
     inkscape:window-height="712"
     inkscape:window-x="-4"
     inkscape:window-y="-4"
     inkscape:window-maximized="1" />
  <metadata
     id="metadata7">
    <rdf:RDF>
      <cc:Work
         rdf:about="">
        <dc:format>image/svg+xml</dc:format>
        <dc:type
           rdf:resource="http://purl.org/dc/dcmitype/StillImage" />
        <dc:title />
      </cc:Work>
    </rdf:RDF>
  </metadata>
  <g
     inkscape:label="Capa 1"
     inkscape:groupmode="layer"
     id="layer1"
     transform="translate(0,-552.36218)">
    <rect
       style="fill:#ffffff;fill-opacity:1;stroke:none"
       id="rect2818"
       width="750"
       height="250"
       x="0"
       y="552.36218" />
    <rect
       style="fill:#078930;fill-opacity:1;stroke:none"
       id="rect2820"
       width="750"
       height="250"
       x="0"
       y="802.36218" />
    <path
       style="fill:#fcdd09;stroke:none;stroke-width:1px;stroke-linecap:butt;stroke-linejoin:miter;stroke-opacity:1;fill-opacity:1"
       d="M 0.5,552.86219 L 256.39655,551.49885 L 0.5,1051.8622"
       id="path2822"
       sodipodi:nodetypes="ccc" />
    <path
       style="font-size:72px;font-style:normal;font-variant:normal;font-weight:bold;font-stretch:normal;text-align:start;line-height:100%;writing-mode:lr-tb;text-anchor:start;fill:#da121a;fill-opacity:1;stroke:none;stroke-width:1px;stroke-linecap:butt;stroke-linejoin:miter;stroke-opacity:1;font-family:Arial;-inkscape-font-specification:Arial Bold"
       d="M 242.85293,795.46564 L 242.85293,743.92657 L 254.39701,743.92657 L 254.39701,795.46564 L 242.85293,795.46564 z M 287.35223,795.46564 L 287.35223,743.92657 L 304.62933,743.92657 L 315.00341,779.08282 L 325.26047,743.92657 L 342.57659,743.92657 L 342.57659,795.46564 L 331.85152,795.46564 L 331.85152,754.89532 L 320.50245,795.46564 L 309.38737,795.46564 L 298.07729,754.89532 L 298.07729,795.46564 L 287.35223,795.46564 z M 376.19481,743.92657 L 387.73888,743.92657 L 387.73888,771.84064 C 387.73887,776.27034 387.88186,779.14143 388.16789,780.45392 C 388.66188,782.56331 389.83838,784.25666 391.69741,785.534 C 393.5564,786.81135 396.09792,787.45002 399.32196,787.45001 C 402.59796,787.45002 405.06797,786.84651 406.73201,785.63947 C 408.39598,784.43245 409.39699,782.95002 409.73503,781.1922 C 410.07299,779.4344 410.24199,776.51644 410.24203,772.43829 L 410.24203,743.92657 L 421.78611,743.92657 L 421.78611,770.99689 C 421.78605,777.18441 421.47405,781.55549 420.8501,784.11017 C 420.22604,786.66486 419.07555,788.82111 417.39858,790.57892 C 415.72152,792.33673 413.47901,793.73712 410.67104,794.78009 C 407.86298,795.82306 404.19696,796.34454 399.67297,796.34454 C 394.21291,796.34454 390.07238,795.77618 387.25138,794.63947 C 384.43035,793.50275 382.20084,792.02619 380.56283,790.20978 C 378.92482,788.39338 377.84582,786.48908 377.32581,784.49689 C 376.5718,781.54378 376.19481,777.18441 376.19481,771.41876 L 376.19481,743.92657 z M 456.14534,795.46564 L 456.14534,743.92657 L 498.53861,743.92657 L 498.53861,752.64532 L 467.68942,752.64532 L 467.68942,764.07111 L 496.3936,764.07111 L 496.3936,772.7547 L 467.68942,772.7547 L 467.68942,786.78204 L 499.63062,786.78204 L 499.63062,795.46564 L 456.14534,795.46564 z M 470.88743,740.90314 L 476.26947,730.39142 L 488.55455,730.39142 L 477.82948,740.90314 L 470.88743,740.90314 z M 528.72481,778.69611 L 539.95689,777.71173 C 540.63288,781.11018 542.00439,783.60627 544.07141,785.20001 C 546.1384,786.79377 548.92692,787.59065 552.43697,787.59064 C 556.15496,787.59065 558.95648,786.88166 560.84152,785.46368 C 562.72649,784.04573 563.669,782.38753 563.66904,780.48907 C 563.669,779.27034 563.2725,778.23323 562.47953,777.37775 C 561.6865,776.5223 560.30198,775.77816 558.326,775.14532 C 556.97396,774.72347 553.89295,773.97347 549.08295,772.89532 C 542.89489,771.51254 538.55286,769.81332 536.05686,767.79767 C 532.54683,764.96176 530.79182,761.50473 530.79183,757.42657 C 530.79182,754.80162 531.61732,752.34654 533.26834,750.06134 C 534.91934,747.77623 537.29835,746.036 540.40538,744.84064 C 543.51239,743.64538 547.26292,743.04772 551.65696,743.04767 C 558.83297,743.04772 564.23451,744.46569 567.86156,747.30157 C 571.48854,750.13756 573.39306,753.92271 573.5751,758.65704 L 562.03103,759.11407 C 561.53699,756.46568 560.47748,754.56138 558.85251,753.40118 C 557.22747,752.24107 554.78995,751.66099 551.53996,751.66095 C 548.18592,751.66099 545.5599,752.28209 543.66191,753.52423 C 542.43988,754.32115 541.82888,755.38755 541.8289,756.72345 C 541.82888,757.94224 542.40089,758.9852 543.54491,759.85236 C 545.00089,760.95395 548.53692,762.10239 554.15298,763.29767 C 559.76898,764.49301 563.92251,765.72934 566.61356,767.00665 C 569.30454,768.28402 571.41054,770.03012 572.93161,772.24493 C 574.45257,774.4598 575.21306,777.19612 575.21312,780.45392 C 575.21306,783.40706 574.30306,786.17268 572.4831,788.75079 C 570.66304,791.32892 568.08902,793.24494 564.76105,794.49884 C 561.43299,795.75275 557.28596,796.3797 552.31997,796.3797 C 545.0919,796.3797 539.54086,794.87384 535.66686,791.86212 C 531.79283,788.85041 529.47881,784.46174 528.72481,778.69611 L 528.72481,778.69611 z"
       id="text3153" />
  </g>
</svg>
