<?xml version="1.0" encoding="UTF-8" standalone="no"?>
<!-- Created with Inkscape (http://www.inkscape.org/) -->

<svg
   xmlns:dc="http://purl.org/dc/elements/1.1/"
   xmlns:cc="http://creativecommons.org/ns#"
   xmlns:rdf="http://www.w3.org/1999/02/22-rdf-syntax-ns#"
   xmlns:svg="http://www.w3.org/2000/svg"
   xmlns="http://www.w3.org/2000/svg"
   xmlns:sodipodi="http://sodipodi.sourceforge.net/DTD/sodipodi-0.dtd"
   xmlns:inkscape="http://www.inkscape.org/namespaces/inkscape"
   width="750"
   height="500"
   id="svg2"
   version="1.1"
   inkscape:version="0.47 r22583"
   sodipodi:docname="Flag of Puerto Inírida (Guainía).svg">
  <defs
     id="defs4">
    <inkscape:perspective
       sodipodi:type="inkscape:persp3d"
       inkscape:vp_x="0 : 526.18109 : 1"
       inkscape:vp_y="0 : 1000 : 0"
       inkscape:vp_z="744.09448 : 526.18109 : 1"
       inkscape:persp3d-origin="372.04724 : 350.78739 : 1"
       id="perspective10" />
    <inkscape:perspective
       id="perspective2826"
       inkscape:persp3d-origin="0.5 : 0.33333333 : 1"
       inkscape:vp_z="1 : 0.5 : 1"
       inkscape:vp_y="0 : 1000 : 0"
       inkscape:vp_x="0 : 0.5 : 1"
       sodipodi:type="inkscape:persp3d" />
    <inkscape:perspective
       id="perspective2948"
       inkscape:persp3d-origin="0.5 : 0.33333333 : 1"
       inkscape:vp_z="1 : 0.5 : 1"
       inkscape:vp_y="0 : 1000 : 0"
       inkscape:vp_x="0 : 0.5 : 1"
       sodipodi:type="inkscape:persp3d" />
  </defs>
  <sodipodi:namedview
     id="base"
     pagecolor="#ffffff"
     bordercolor="#666666"
     borderopacity="1.0"
     inkscape:pageopacity="0.0"
     inkscape:pageshadow="2"
     inkscape:zoom="0.57"
     inkscape:cx="476.35578"
     inkscape:cy="244.01499"
     inkscape:document-units="px"
     inkscape:current-layer="layer1"
     showgrid="false"
     inkscape:window-width="1024"
     inkscape:window-height="538"
     inkscape:window-x="-8"
     inkscape:window-y="-8"
     inkscape:window-maximized="1" />
  <metadata
     id="metadata7">
    <rdf:RDF>
      <cc:Work
         rdf:about="">
        <dc:format>image/svg+xml</dc:format>
        <dc:type
           rdf:resource="http://purl.org/dc/dcmitype/StillImage" />
        <dc:title></dc:title>
      </cc:Work>
    </rdf:RDF>
  </metadata>
  <g
     inkscape:label="Capa 1"
     inkscape:groupmode="layer"
     id="layer1"
     transform="translate(0,-552.36218)">
    <rect
       style="fill:#034418;fill-opacity:1;stroke:none"
       id="rect2816"
       width="375"
       height="500"
       x="0"
       y="-5.6843419e-14"
       transform="translate(0,552.36218)" />
    <rect
       style="fill:#ffffff;fill-opacity:1;stroke:none"
       id="rect2816-1"
       width="375"
       height="500"
       x="375"
       y="552.36218" />
    <path
       style="fill:#0f47af;stroke:none;stroke-width:1px;stroke-linecap:butt;stroke-linejoin:miter;stroke-opacity:1"
       d="M 475,310 560,380 375,500 0,200 0,60 250,250 475,310 z"
       id="path2918"
       transform="translate(0,552.36218)" />
    <path
       style="fill:#0f47af;stroke:none"
       d="m 275,742.36218 -85,-70 185,-120 375,300 0,140 -250,-190 -225,-60 z"
       id="path2918-7" />
    <path
       sodipodi:type="arc"
       style="fill:#fcdd09;fill-opacity:1;stroke:none"
       id="path2938"
       sodipodi:cx="345"
       sodipodi:cy="200.83333"
       sodipodi:rx="91.666664"
       sodipodi:ry="99.166664"
       d="m 436.66666,200.83333 a 91.666664,99.166664 0 1 1 -183.33332,0 91.666664,99.166664 0 1 1 183.33332,0 z"
       transform="matrix(1.3636364,0,0,1.2605042,-95.454558,554.21093)" />
    <path
       sodipodi:type="star"
       style="fill:#da121a;fill-opacity:1;stroke:none"
       id="path2962"
       sodipodi:sides="25"
       sodipodi:cx="312.2807"
       sodipodi:cy="185.9649"
       sodipodi:r1="76.95742"
       sodipodi:r2="139.92259"
       sodipodi:arg1="1.0454295"
       sodipodi:arg2="1.1710932"
       inkscape:flatsided="false"
       inkscape:rounded="3.469447e-18"
       inkscape:randomized="0"
       d="m 350.87719,252.54385 15.85367,62.31447 -33.62376,-54.80762 -0.14138,64.2994 -18.93731,-61.44762 -16.12754,62.24415 -3.06097,-64.22665 -31.10035,56.27788 13.00772,-62.97008 -44.11902,46.77546 28.25908,-57.75687 -54.36552,34.33397 41.73482,-48.91458 -61.19605,19.73515 52.58821,-36.99882 -64.18139,3.8963 60.13729,-22.75828 -63.13399,-12.18737 63.90772,-7.08775 -58.11964,-27.50527 63.66259,9.02813 -49.45342,-41.0949 59.4173,24.57673 -37.67986,-52.102398 51.43862,38.581098 -23.53874,-59.83611 40.22784,50.16126 -7.91859,-63.810089 26.48942,58.589609 8.19911,-63.77465 11.08656,63.33656 23.80163,-59.732018 -5.01291,64.103848 37.90861,-51.936209 -20.79739,60.843239 49.63365,-40.87704 -35.27511,53.75964 58.24002,-27.24943 -47.53635,43.29812 63.18697,-11.90964 -56.81072,30.11602 64.16364,4.17849 -62.51546,15.04162 61.10867,20.00406 -64.29211,-0.97791 54.21402,34.57271 -62.02906,-16.93598 43.91291,46.96902 -55.8685,-31.82991 30.85258,56.4141 -46.19751,-44.72384 z"
       transform="matrix(0.80581348,0,0,0.80625445,125.02078,656.21126)" />
  </g>
</svg>
