<?xml version="1.0" encoding="UTF-8" standalone="no"?>
<!-- Created with Inkscape (http://www.inkscape.org/) -->

<svg
   width="600"
   height="400"
   id="svg2822"
   version="1.1"
   inkscape:version="1.2.1 (9c6d41e410, 2022-07-14)"
   sodipodi:docname="Flag_of_La_Argentina_(Huila).svg"
   sodipodi:version="0.32"
   inkscape:output_extension="org.inkscape.output.svg.inkscape"
   xml:space="preserve"
   xmlns:inkscape="http://www.inkscape.org/namespaces/inkscape"
   xmlns:sodipodi="http://sodipodi.sourceforge.net/DTD/sodipodi-0.dtd"
   xmlns="http://www.w3.org/2000/svg"
   xmlns:svg="http://www.w3.org/2000/svg"
   xmlns:rdf="http://www.w3.org/1999/02/22-rdf-syntax-ns#"
   xmlns:cc="http://creativecommons.org/ns#"
   xmlns:dc="http://purl.org/dc/elements/1.1/"><defs
     id="defs2824" /><sodipodi:namedview
     id="base"
     pagecolor="#ffffff"
     bordercolor="#666666"
     borderopacity="1.0"
     inkscape:pageopacity="0.0"
     inkscape:pageshadow="2"
     inkscape:zoom="0.5"
     inkscape:cx="525"
     inkscape:cy="189"
     inkscape:document-units="px"
     inkscape:current-layer="layer1"
     showgrid="false"
     inkscape:window-width="1360"
     inkscape:window-height="697"
     inkscape:window-x="-8"
     inkscape:window-y="-8"
     inkscape:window-maximized="1"
     inkscape:showpageshadow="2"
     inkscape:pagecheckerboard="0"
     inkscape:deskcolor="#d1d1d1"
     showguides="true"><sodipodi:guide
       position="569.99994,369.99992"
       orientation="0,-1"
       id="guide6728"
       inkscape:locked="false" /><sodipodi:guide
       position="569.99994,369.99992"
       orientation="1,0"
       id="guide8663"
       inkscape:locked="false" /><sodipodi:guide
       position="27.500003,330"
       orientation="1,0"
       id="guide8747"
       inkscape:locked="false" /></sodipodi:namedview><metadata
     id="metadata2827"><rdf:RDF><cc:Work
         rdf:about=""><dc:format>image/svg+xml</dc:format><dc:type
           rdf:resource="http://purl.org/dc/dcmitype/StillImage" /></cc:Work></rdf:RDF></metadata><g
     inkscape:label="Capa 1"
     inkscape:groupmode="layer"
     id="layer1"
     transform="translate(0,-552.36218)"><g
       inkscape:groupmode="layer"
       inkscape:label="Calque 1"
       id="layer1-4"
       transform="matrix(1.960451,0,0,1.960451,194.63835,621.01125)"><g
         transform="matrix(0.754398,0,0,0.754398,-21.1595,-18.7689)"
         style="display:inline"
         id="g2129" /></g><g
       transform="translate(149.19355,1493.6525)"
       id="g3326" /><rect
       style="fill:#ffffff;fill-opacity:1;stroke:none;stroke-width:0.800791;stroke-opacity:1"
       id="rect2834"
       width="600"
       height="400"
       x="0"
       y="-952.36218"
       transform="scale(1,-1)" /><path
       sodipodi:type="star"
       style="fill:#6b8e23;fill-opacity:1;stroke-width:0.3;stroke-linecap:round;stroke-linejoin:round;stop-color:#000000"
       id="path13957"
       inkscape:flatsided="false"
       sodipodi:sides="6"
       sodipodi:cx="187.23685"
       sodipodi:cy="104.77807"
       sodipodi:r1="31.380478"
       sodipodi:r2="12.552191"
       sodipodi:arg1="0"
       sodipodi:arg2="0.52359878"
       inkscape:rounded="0"
       inkscape:randomized="0"
       d="m 218.61732,104.77807 -20.50996,6.27609 4.81973,20.9002 -15.69024,-14.6241 -15.69024,14.6241 4.81972,-20.9002 -20.50996,-6.27609 20.50996,-6.276097 -4.81972,-20.900196 15.69024,14.624101 15.69024,-14.624101 -4.81973,20.900196 z"
       transform="matrix(0.63733892,0.3679678,-0.3679678,0.63733892,59.221513,528.51838)" /><path
       sodipodi:type="star"
       style="fill:#6b8e23;fill-opacity:1;stroke-width:11.3386;stroke-linecap:round;stroke-linejoin:round;stop-color:#000000"
       id="path572-9-2"
       inkscape:flatsided="false"
       sodipodi:sides="5"
       sodipodi:cx="723.78088"
       sodipodi:cy="69.526627"
       sodipodi:r1="16.395464"
       sodipodi:r2="6.5581851"
       sodipodi:arg1="-1.5707963"
       sodipodi:arg2="-0.9424778"
       inkscape:rounded="0"
       inkscape:randomized="0"
       d="m 723.78088,53.131163 3.85481,11.08978 11.73821,0.239207 -9.35581,7.093067 3.39981,11.237619 -9.63702,-6.706024 -9.63701,6.706023 3.39981,-11.237618 -9.35581,-7.093068 11.73821,-0.239206 z"
       transform="matrix(0.64131288,0,0,0.64131288,-361.67,643.28848)"
       inkscape:transform-center-y="-1.004055"
       inkscape:transform-center-x="5.2305483e-06" /><path
       sodipodi:type="star"
       style="fill:#6b8e23;fill-opacity:1;stroke-width:11.3386;stroke-linecap:round;stroke-linejoin:round;stop-color:#000000"
       id="path572-9-2-5"
       inkscape:flatsided="false"
       sodipodi:sides="5"
       sodipodi:cx="723.78088"
       sodipodi:cy="69.526627"
       sodipodi:r1="16.395464"
       sodipodi:r2="6.5581851"
       sodipodi:arg1="-1.5707963"
       sodipodi:arg2="-0.9424778"
       inkscape:rounded="0"
       inkscape:randomized="0"
       d="m 723.78088,53.131163 3.85481,11.08978 11.73821,0.239207 -9.35581,7.093067 3.39981,11.237619 -9.63702,-6.706024 -9.63701,6.706023 3.39981,-11.237618 -9.35581,-7.093068 11.73821,-0.239206 z"
       transform="matrix(0.64131288,0,0,0.64131288,-399.17,643.28848)"
       inkscape:transform-center-y="-1.004055"
       inkscape:transform-center-x="5.2305483e-06" /><path
       sodipodi:type="star"
       style="fill:#6b8e23;fill-opacity:1;stroke-width:11.3386;stroke-linecap:round;stroke-linejoin:round;stop-color:#000000"
       id="path572-9-2-5-9"
       inkscape:flatsided="false"
       sodipodi:sides="5"
       sodipodi:cx="723.78088"
       sodipodi:cy="69.526627"
       sodipodi:r1="16.395464"
       sodipodi:r2="6.5581851"
       sodipodi:arg1="-1.5707963"
       sodipodi:arg2="-0.9424778"
       inkscape:rounded="0"
       inkscape:randomized="0"
       d="m 723.78088,53.131163 3.85481,11.08978 11.73821,0.239207 -9.35581,7.093067 3.39981,11.237619 -9.63702,-6.706024 -9.63701,6.706023 3.39981,-11.237618 -9.35581,-7.093068 11.73821,-0.239206 z"
       transform="matrix(0.64131288,0,0,0.64131288,-421.67,620.78848)"
       inkscape:transform-center-y="-1.004055"
       inkscape:transform-center-x="5.2305483e-06" /><path
       sodipodi:type="star"
       style="fill:#6b8e23;fill-opacity:1;stroke-width:11.3386;stroke-linecap:round;stroke-linejoin:round;stop-color:#000000"
       id="path572-9-2-5-9-4"
       inkscape:flatsided="false"
       sodipodi:sides="5"
       sodipodi:cx="723.78088"
       sodipodi:cy="69.526627"
       sodipodi:r1="16.395464"
       sodipodi:r2="6.5581851"
       sodipodi:arg1="-1.5707963"
       sodipodi:arg2="-0.9424778"
       inkscape:rounded="0"
       inkscape:randomized="0"
       d="m 723.78088,53.131163 3.85481,11.08978 11.73821,0.239207 -9.35581,7.093067 3.39981,11.237619 -9.63702,-6.706024 -9.63701,6.706023 3.39981,-11.237618 -9.35581,-7.093068 11.73821,-0.239206 z"
       transform="matrix(0.64131288,0,0,0.64131288,-426.67,588.28848)"
       inkscape:transform-center-y="-1.004055"
       inkscape:transform-center-x="5.2305483e-06" /><path
       sodipodi:type="star"
       style="fill:#6b8e23;fill-opacity:1;stroke-width:11.3386;stroke-linecap:round;stroke-linejoin:round;stop-color:#000000"
       id="path572-9-2-5-9-4-8"
       inkscape:flatsided="false"
       sodipodi:sides="5"
       sodipodi:cx="723.78088"
       sodipodi:cy="69.526627"
       sodipodi:r1="16.395464"
       sodipodi:r2="6.5581851"
       sodipodi:arg1="-1.5707963"
       sodipodi:arg2="-0.9424778"
       inkscape:rounded="0"
       inkscape:randomized="0"
       d="m 723.78088,53.131163 3.85481,11.08978 11.73821,0.239207 -9.35581,7.093067 3.39981,11.237619 -9.63702,-6.706024 -9.63701,6.706023 3.39981,-11.237618 -9.35581,-7.093068 11.73821,-0.239206 z"
       transform="matrix(0.64131288,0,0,0.64131288,-413.98589,558.10437)"
       inkscape:transform-center-y="-1.004055"
       inkscape:transform-center-x="5.2305483e-06" /><path
       sodipodi:type="star"
       style="fill:#6b8e23;fill-opacity:1;stroke-width:11.3386;stroke-linecap:round;stroke-linejoin:round;stop-color:#000000"
       id="path572-9-2-5-9-4-8-5"
       inkscape:flatsided="false"
       sodipodi:sides="5"
       sodipodi:cx="723.78088"
       sodipodi:cy="69.526627"
       sodipodi:r1="16.395464"
       sodipodi:r2="6.5581851"
       sodipodi:arg1="-1.5707963"
       sodipodi:arg2="-0.9424778"
       inkscape:rounded="0"
       inkscape:randomized="0"
       d="m 723.78088,53.131163 3.85481,11.08978 11.73821,0.239207 -9.35581,7.093067 3.39981,11.237619 -9.63702,-6.706024 -9.63701,6.706023 3.39981,-11.237618 -9.35581,-7.093068 11.73821,-0.239206 z"
       transform="matrix(0.64131288,0,0,0.64131288,-384.17011,548.2885)"
       inkscape:transform-center-y="-1.004055"
       inkscape:transform-center-x="5.2305483e-06" /><path
       sodipodi:type="star"
       style="fill:#6b8e23;fill-opacity:1;stroke-width:11.3386;stroke-linecap:round;stroke-linejoin:round;stop-color:#000000"
       id="path572-9-2-5-9-4-8-5-0"
       inkscape:flatsided="false"
       sodipodi:sides="5"
       sodipodi:cx="723.78088"
       sodipodi:cy="69.526627"
       sodipodi:r1="16.395464"
       sodipodi:r2="6.5581851"
       sodipodi:arg1="-1.5707963"
       sodipodi:arg2="-0.9424778"
       inkscape:rounded="0"
       inkscape:randomized="0"
       d="m 723.78088,53.131163 3.85481,11.08978 11.73821,0.239207 -9.35581,7.093067 3.39981,11.237619 -9.63702,-6.706024 -9.63701,6.706023 3.39981,-11.237618 -9.35581,-7.093068 11.73821,-0.239206 z"
       transform="matrix(0.64131288,0,0,0.64131288,-354.17011,548.28851)"
       inkscape:transform-center-y="-1.004055"
       inkscape:transform-center-x="5.2305483e-06" /><path
       sodipodi:type="star"
       style="fill:#6b8e23;fill-opacity:1;stroke-width:11.3386;stroke-linecap:round;stroke-linejoin:round;stop-color:#000000"
       id="path572-9-2-5-9-4-8-5-0-9"
       inkscape:flatsided="false"
       sodipodi:sides="5"
       sodipodi:cx="723.78088"
       sodipodi:cy="69.526627"
       sodipodi:r1="16.395464"
       sodipodi:r2="6.5581851"
       sodipodi:arg1="-1.5707963"
       sodipodi:arg2="-0.9424778"
       inkscape:rounded="0"
       inkscape:randomized="0"
       d="m 723.78088,53.131163 3.85481,11.08978 11.73821,0.239207 -9.35581,7.093067 3.39981,11.237619 -9.63702,-6.706024 -9.63701,6.706023 3.39981,-11.237618 -9.35581,-7.093068 11.73821,-0.239206 z"
       transform="matrix(0.64131288,0,0,0.64131288,-324.1701,548.28848)"
       inkscape:transform-center-y="-1.004055"
       inkscape:transform-center-x="5.2305483e-06" /><path
       sodipodi:type="star"
       style="fill:#6b8e23;fill-opacity:1;stroke-width:11.3386;stroke-linecap:round;stroke-linejoin:round;stop-color:#000000"
       id="path572-9-2-5-9-4-8-5-0-3"
       inkscape:flatsided="false"
       sodipodi:sides="5"
       sodipodi:cx="723.78088"
       sodipodi:cy="69.526627"
       sodipodi:r1="16.395464"
       sodipodi:r2="6.5581851"
       sodipodi:arg1="-1.5707963"
       sodipodi:arg2="-0.9424778"
       inkscape:rounded="0"
       inkscape:randomized="0"
       d="m 723.78088,53.131163 3.85481,11.08978 11.73821,0.239207 -9.35581,7.093067 3.39981,11.237619 -9.63702,-6.706024 -9.63701,6.706023 3.39981,-11.237618 -9.35581,-7.093068 11.73821,-0.239206 z"
       transform="matrix(0.64131288,0,0,0.64131288,-294.1701,548.2885)"
       inkscape:transform-center-y="-1.004055"
       inkscape:transform-center-x="5.2305483e-06" /><path
       sodipodi:type="star"
       style="fill:#6b8e23;fill-opacity:1;stroke-width:11.3386;stroke-linecap:round;stroke-linejoin:round;stop-color:#000000"
       id="path572-9-2-5-9-4-8-5-0-8"
       inkscape:flatsided="false"
       sodipodi:sides="5"
       sodipodi:cx="723.78088"
       sodipodi:cy="69.526627"
       sodipodi:r1="16.395464"
       sodipodi:r2="6.5581851"
       sodipodi:arg1="-1.5707963"
       sodipodi:arg2="-0.9424778"
       inkscape:rounded="0"
       inkscape:randomized="0"
       d="m 723.78088,53.131163 3.85481,11.08978 11.73821,0.239207 -9.35581,7.093067 3.39981,11.237619 -9.63702,-6.706024 -9.63701,6.706023 3.39981,-11.237618 -9.35581,-7.093068 11.73821,-0.239206 z"
       transform="matrix(0.64131288,0,0,0.64131288,-264.1701,548.28851)"
       inkscape:transform-center-y="-1.004055"
       inkscape:transform-center-x="5.2305483e-06" /><path
       sodipodi:type="star"
       style="fill:#6b8e23;fill-opacity:1;stroke-width:11.3386;stroke-linecap:round;stroke-linejoin:round;stop-color:#000000"
       id="path572-9-2-5-9-4-8-5-0-5"
       inkscape:flatsided="false"
       sodipodi:sides="5"
       sodipodi:cx="723.78088"
       sodipodi:cy="69.526627"
       sodipodi:r1="16.395464"
       sodipodi:r2="6.5581851"
       sodipodi:arg1="-1.5707963"
       sodipodi:arg2="-0.9424778"
       inkscape:rounded="0"
       inkscape:randomized="0"
       d="m 723.78088,53.131163 3.85481,11.08978 11.73821,0.239207 -9.35581,7.093067 3.39981,11.237619 -9.63702,-6.706024 -9.63701,6.706023 3.39981,-11.237618 -9.35581,-7.093068 11.73821,-0.239206 z"
       transform="matrix(0.64131288,0,0,0.64131288,-234.1701,548.28853)"
       inkscape:transform-center-y="-1.004055"
       inkscape:transform-center-x="5.2305483e-06" /><path
       sodipodi:type="star"
       style="fill:#6b8e23;fill-opacity:1;stroke-width:11.3386;stroke-linecap:round;stroke-linejoin:round;stop-color:#000000"
       id="path572-9-2-5-9-4-8-5-0-38"
       inkscape:flatsided="false"
       sodipodi:sides="5"
       sodipodi:cx="723.78088"
       sodipodi:cy="69.526627"
       sodipodi:r1="16.395464"
       sodipodi:r2="6.5581851"
       sodipodi:arg1="-1.5707963"
       sodipodi:arg2="-0.9424778"
       inkscape:rounded="0"
       inkscape:randomized="0"
       d="m 723.78088,53.131163 3.85481,11.08978 11.73821,0.239207 -9.35581,7.093067 3.39981,11.237619 -9.63702,-6.706024 -9.63701,6.706023 3.39981,-11.237618 -9.35581,-7.093068 11.73821,-0.239206 z"
       transform="matrix(0.64131288,0,0,0.64131288,-204.17009,548.28855)"
       inkscape:transform-center-y="-1.004055"
       inkscape:transform-center-x="5.2305483e-06" /><path
       sodipodi:type="star"
       style="fill:#6b8e23;fill-opacity:1;stroke-width:11.3386;stroke-linecap:round;stroke-linejoin:round;stop-color:#000000"
       id="path572-9-2-5-9-4-8-5-0-58"
       inkscape:flatsided="false"
       sodipodi:sides="5"
       sodipodi:cx="723.78088"
       sodipodi:cy="69.526627"
       sodipodi:r1="16.395464"
       sodipodi:r2="6.5581851"
       sodipodi:arg1="-1.5707963"
       sodipodi:arg2="-0.9424778"
       inkscape:rounded="0"
       inkscape:randomized="0"
       d="m 723.78088,53.131163 3.85481,11.08978 11.73821,0.239207 -9.35581,7.093067 3.39981,11.237619 -9.63702,-6.706024 -9.63701,6.706023 3.39981,-11.237618 -9.35581,-7.093068 11.73821,-0.239206 z"
       transform="matrix(0.64131288,0,0,0.64131288,-174.1701,548.28857)"
       inkscape:transform-center-y="-1.004055"
       inkscape:transform-center-x="5.2305483e-06" /><path
       sodipodi:type="star"
       style="fill:#6b8e23;fill-opacity:1;stroke-width:11.3386;stroke-linecap:round;stroke-linejoin:round;stop-color:#000000"
       id="path572-9-2-5-9-4-8-5-0-4"
       inkscape:flatsided="false"
       sodipodi:sides="5"
       sodipodi:cx="723.78088"
       sodipodi:cy="69.526627"
       sodipodi:r1="16.395464"
       sodipodi:r2="6.5581851"
       sodipodi:arg1="-1.5707963"
       sodipodi:arg2="-0.9424778"
       inkscape:rounded="0"
       inkscape:randomized="0"
       d="m 723.78088,53.131163 3.85481,11.08978 11.73821,0.239207 -9.35581,7.093067 3.39981,11.237619 -9.63702,-6.706024 -9.63701,6.706023 3.39981,-11.237618 -9.35581,-7.093068 11.73821,-0.239206 z"
       transform="matrix(0.64131288,0,0,0.64131288,-144.17006,548.28855)"
       inkscape:transform-center-y="-1.004055"
       inkscape:transform-center-x="5.2305483e-06" /><path
       sodipodi:type="star"
       style="fill:#6b8e23;fill-opacity:1;stroke-width:11.3386;stroke-linecap:round;stroke-linejoin:round;stop-color:#000000"
       id="path572-9-2-5-9-4-8-5-0-37"
       inkscape:flatsided="false"
       sodipodi:sides="5"
       sodipodi:cx="723.78088"
       sodipodi:cy="69.526627"
       sodipodi:r1="16.395464"
       sodipodi:r2="6.5581851"
       sodipodi:arg1="-1.5707963"
       sodipodi:arg2="-0.9424778"
       inkscape:rounded="0"
       inkscape:randomized="0"
       d="m 723.78088,53.131163 3.85481,11.08978 11.73821,0.239207 -9.35581,7.093067 3.39981,11.237619 -9.63702,-6.706024 -9.63701,6.706023 3.39981,-11.237618 -9.35581,-7.093068 11.73821,-0.239206 z"
       transform="matrix(0.64131288,0,0,0.64131288,-114.17007,548.28856)"
       inkscape:transform-center-y="-1.004055"
       inkscape:transform-center-x="5.2305483e-06" /><path
       sodipodi:type="star"
       style="fill:#6b8e23;fill-opacity:1;stroke-width:11.3386;stroke-linecap:round;stroke-linejoin:round;stop-color:#000000"
       id="path572-9-2-5-9-4-8-5-0-51"
       inkscape:flatsided="false"
       sodipodi:sides="5"
       sodipodi:cx="723.78088"
       sodipodi:cy="69.526627"
       sodipodi:r1="16.395464"
       sodipodi:r2="6.5581851"
       sodipodi:arg1="-1.5707963"
       sodipodi:arg2="-0.9424778"
       inkscape:rounded="0"
       inkscape:randomized="0"
       d="m 723.78088,53.131163 3.85481,11.08978 11.73821,0.239207 -9.35581,7.093067 3.39981,11.237619 -9.63702,-6.706024 -9.63701,6.706023 3.39981,-11.237618 -9.35581,-7.093068 11.73821,-0.239206 z"
       transform="matrix(0.64131288,0,0,0.64131288,-84.170085,548.28857)"
       inkscape:transform-center-y="-1.004055"
       inkscape:transform-center-x="5.2305483e-06" /><path
       sodipodi:type="star"
       style="fill:#6b8e23;fill-opacity:1;stroke-width:11.3386;stroke-linecap:round;stroke-linejoin:round;stop-color:#000000"
       id="path572-9-2-5-9-4-8-5-0-6"
       inkscape:flatsided="false"
       sodipodi:sides="5"
       sodipodi:cx="723.78088"
       sodipodi:cy="69.526627"
       sodipodi:r1="16.395464"
       sodipodi:r2="6.5581851"
       sodipodi:arg1="-1.5707963"
       sodipodi:arg2="-0.9424778"
       inkscape:rounded="0"
       inkscape:randomized="0"
       d="m 723.78088,53.131163 3.85481,11.08978 11.73821,0.239207 -9.35581,7.093067 3.39981,11.237619 -9.63702,-6.706024 -9.63701,6.706023 3.39981,-11.237618 -9.35581,-7.093068 11.73821,-0.239206 z"
       transform="matrix(0.64131288,0,0,0.64131288,-54.170095,548.28856)"
       inkscape:transform-center-y="-1.004055"
       inkscape:transform-center-x="5.2305483e-06" /><path
       sodipodi:type="star"
       style="fill:#6b8e23;fill-opacity:1;stroke-width:11.3386;stroke-linecap:round;stroke-linejoin:round;stop-color:#000000"
       id="path572-9-2-5-9-4-8-5-0-40"
       inkscape:flatsided="false"
       sodipodi:sides="5"
       sodipodi:cx="723.78088"
       sodipodi:cy="69.526627"
       sodipodi:r1="16.395464"
       sodipodi:r2="6.5581851"
       sodipodi:arg1="-1.5707963"
       sodipodi:arg2="-0.9424778"
       inkscape:rounded="0"
       inkscape:randomized="0"
       d="m 723.78088,53.131163 3.85481,11.08978 11.73821,0.239207 -9.35581,7.093067 3.39981,11.237619 -9.63702,-6.706024 -9.63701,6.706023 3.39981,-11.237618 -9.35581,-7.093068 11.73821,-0.239206 z"
       transform="matrix(0.64131288,0,0,0.64131288,-24.17008,548.28856)"
       inkscape:transform-center-y="-1.004055"
       inkscape:transform-center-x="5.2305483e-06" /><path
       sodipodi:type="star"
       style="fill:#6b8e23;fill-opacity:1;stroke-width:11.3386;stroke-linecap:round;stroke-linejoin:round;stop-color:#000000"
       id="path572-9-2-5-9-4-8-5-0-89"
       inkscape:flatsided="false"
       sodipodi:sides="5"
       sodipodi:cx="723.78088"
       sodipodi:cy="69.526627"
       sodipodi:r1="16.395464"
       sodipodi:r2="6.5581851"
       sodipodi:arg1="-1.5707963"
       sodipodi:arg2="-0.9424778"
       inkscape:rounded="0"
       inkscape:randomized="0"
       d="m 723.78088,53.131163 3.85481,11.08978 11.73821,0.239207 -9.35581,7.093067 3.39981,11.237619 -9.63702,-6.706024 -9.63701,6.706023 3.39981,-11.237618 -9.35581,-7.093068 11.73821,-0.239206 z"
       transform="matrix(0.64131288,0,0,0.64131288,5.8299338,548.28853)"
       inkscape:transform-center-y="-1.004055"
       inkscape:transform-center-x="5.2305483e-06" /><path
       sodipodi:type="star"
       style="fill:#6b8e23;fill-opacity:1;stroke-width:11.3386;stroke-linecap:round;stroke-linejoin:round;stop-color:#000000"
       id="path572-9-2-5-9-4-8-5-0-98"
       inkscape:flatsided="false"
       sodipodi:sides="5"
       sodipodi:cx="723.78088"
       sodipodi:cy="69.526627"
       sodipodi:r1="16.395464"
       sodipodi:r2="6.5581851"
       sodipodi:arg1="-1.5707963"
       sodipodi:arg2="-0.9424778"
       inkscape:rounded="0"
       inkscape:randomized="0"
       d="m 723.78088,53.131163 3.85481,11.08978 11.73821,0.239207 -9.35581,7.093067 3.39981,11.237619 -9.63702,-6.706024 -9.63701,6.706023 3.39981,-11.237618 -9.35581,-7.093068 11.73821,-0.239206 z"
       transform="matrix(0.64131288,0,0,0.64131288,35.829921,548.28854)"
       inkscape:transform-center-y="-1.004055"
       inkscape:transform-center-x="5.2305483e-06" /><path
       sodipodi:type="star"
       style="fill:#6b8e23;fill-opacity:1;stroke-width:11.3386;stroke-linecap:round;stroke-linejoin:round;stop-color:#000000"
       id="path572-9-2-5-9-4-8-5-0-53"
       inkscape:flatsided="false"
       sodipodi:sides="5"
       sodipodi:cx="723.78088"
       sodipodi:cy="69.526627"
       sodipodi:r1="16.395464"
       sodipodi:r2="6.5581851"
       sodipodi:arg1="-1.5707963"
       sodipodi:arg2="-0.9424778"
       inkscape:rounded="0"
       inkscape:randomized="0"
       d="m 723.78088,53.131163 3.85481,11.08978 11.73821,0.239207 -9.35581,7.093067 3.39981,11.237619 -9.63702,-6.706024 -9.63701,6.706023 3.39981,-11.237618 -9.35581,-7.093068 11.73821,-0.239206 z"
       transform="matrix(0.64131288,0,0,0.64131288,65.829905,548.28854)"
       inkscape:transform-center-y="-1.004055"
       inkscape:transform-center-x="5.2305483e-06" /><path
       sodipodi:type="star"
       style="fill:#6b8e23;fill-opacity:1;stroke-width:11.3386;stroke-linecap:round;stroke-linejoin:round;stop-color:#000000"
       id="path572-9-2-5-9-4-8-5-0-33"
       inkscape:flatsided="false"
       sodipodi:sides="5"
       sodipodi:cx="723.78088"
       sodipodi:cy="69.526627"
       sodipodi:r1="16.395464"
       sodipodi:r2="6.5581851"
       sodipodi:arg1="-1.5707963"
       sodipodi:arg2="-0.9424778"
       inkscape:rounded="0"
       inkscape:randomized="0"
       d="m 723.78088,53.131163 3.85481,11.08978 11.73821,0.239207 -9.35581,7.093067 3.39981,11.237619 -9.63702,-6.706024 -9.63701,6.706023 3.39981,-11.237618 -9.35581,-7.093068 11.73821,-0.239206 z"
       transform="matrix(0.64131288,0,0,0.64131288,95.829937,548.28856)"
       inkscape:transform-center-y="-1.004055"
       inkscape:transform-center-x="5.2305483e-06" /><path
       sodipodi:type="star"
       style="fill:#6b8e23;fill-opacity:1;stroke-width:11.3386;stroke-linecap:round;stroke-linejoin:round;stop-color:#000000"
       id="path572-9-2-5-9-4-8-5-0-33-1"
       inkscape:flatsided="false"
       sodipodi:sides="5"
       sodipodi:cx="723.78088"
       sodipodi:cy="69.526627"
       sodipodi:r1="16.395464"
       sodipodi:r2="6.5581851"
       sodipodi:arg1="-1.5707963"
       sodipodi:arg2="-0.9424778"
       inkscape:rounded="0"
       inkscape:randomized="0"
       d="m 723.78088,53.131163 3.85481,11.08978 11.73821,0.239207 -9.35581,7.093067 3.39981,11.237619 -9.63702,-6.706024 -9.63701,6.706023 3.39981,-11.237618 -9.35581,-7.093068 11.73821,-0.239206 z"
       transform="matrix(0.64131288,0,0,0.64131288,95.829917,580.70722)"
       inkscape:transform-center-y="-1.004055"
       inkscape:transform-center-x="5.2305483e-06" /><path
       sodipodi:type="star"
       style="fill:#6b8e23;fill-opacity:1;stroke-width:11.3386;stroke-linecap:round;stroke-linejoin:round;stop-color:#000000"
       id="path572-9-2-5-9-4-8-5-0-33-1-1"
       inkscape:flatsided="false"
       sodipodi:sides="5"
       sodipodi:cx="723.78088"
       sodipodi:cy="69.526627"
       sodipodi:r1="16.395464"
       sodipodi:r2="6.5581851"
       sodipodi:arg1="-1.5707963"
       sodipodi:arg2="-0.9424778"
       inkscape:rounded="0"
       inkscape:randomized="0"
       d="m 723.78088,53.131163 3.85481,11.08978 11.73821,0.239207 -9.35581,7.093067 3.39981,11.237619 -9.63702,-6.706024 -9.63701,6.706023 3.39981,-11.237618 -9.35581,-7.093068 11.73821,-0.239206 z"
       transform="matrix(0.64131288,0,0,0.64131288,95.829877,613.12593)"
       inkscape:transform-center-y="-1.004055"
       inkscape:transform-center-x="5.2305483e-06" /><path
       sodipodi:type="star"
       style="fill:#6b8e23;fill-opacity:1;stroke-width:11.3386;stroke-linecap:round;stroke-linejoin:round;stop-color:#000000"
       id="path572-9-2-5-9-4-8-5-0-33-1-1-2"
       inkscape:flatsided="false"
       sodipodi:sides="5"
       sodipodi:cx="723.78088"
       sodipodi:cy="69.526627"
       sodipodi:r1="16.395464"
       sodipodi:r2="6.5581851"
       sodipodi:arg1="-1.5707963"
       sodipodi:arg2="-0.9424778"
       inkscape:rounded="0"
       inkscape:randomized="0"
       d="m 723.78088,53.131163 3.85481,11.08978 11.73821,0.239207 -9.35581,7.093067 3.39981,11.237619 -9.63702,-6.706024 -9.63701,6.706023 3.39981,-11.237618 -9.35581,-7.093068 11.73821,-0.239206 z"
       transform="matrix(0.64131288,0,0,0.64131288,95.829867,645.54468)"
       inkscape:transform-center-y="-1.004055"
       inkscape:transform-center-x="5.2305483e-06" /><path
       sodipodi:type="star"
       style="fill:#6b8e23;fill-opacity:1;stroke-width:11.3386;stroke-linecap:round;stroke-linejoin:round;stop-color:#000000"
       id="path572-9-2-5-9-4-8-5-0-33-1-1-3"
       inkscape:flatsided="false"
       sodipodi:sides="5"
       sodipodi:cx="723.78088"
       sodipodi:cy="69.526627"
       sodipodi:r1="16.395464"
       sodipodi:r2="6.5581851"
       sodipodi:arg1="-1.5707963"
       sodipodi:arg2="-0.9424778"
       inkscape:rounded="0"
       inkscape:randomized="0"
       d="m 723.78088,53.131163 3.85481,11.08978 11.73821,0.239207 -9.35581,7.093067 3.39981,11.237619 -9.63702,-6.706024 -9.63701,6.706023 3.39981,-11.237618 -9.35581,-7.093068 11.73821,-0.239206 z"
       transform="matrix(0.64131288,0,0,0.64131288,95.829827,677.96338)"
       inkscape:transform-center-y="-1.004055"
       inkscape:transform-center-x="5.2305483e-06" /><path
       sodipodi:type="star"
       style="fill:#6b8e23;fill-opacity:1;stroke-width:11.3386;stroke-linecap:round;stroke-linejoin:round;stop-color:#000000"
       id="path572-9-2-5-9-4-8-5-0-33-1-1-28"
       inkscape:flatsided="false"
       sodipodi:sides="5"
       sodipodi:cx="723.78088"
       sodipodi:cy="69.526627"
       sodipodi:r1="16.395464"
       sodipodi:r2="6.5581851"
       sodipodi:arg1="-1.5707963"
       sodipodi:arg2="-0.9424778"
       inkscape:rounded="0"
       inkscape:randomized="0"
       d="m 723.78088,53.131163 3.85481,11.08978 11.73821,0.239207 -9.35581,7.093067 3.39981,11.237619 -9.63702,-6.706024 -9.63701,6.706023 3.39981,-11.237618 -9.35581,-7.093068 11.73821,-0.239206 z"
       transform="matrix(0.64131288,0,0,0.64131288,95.829787,710.38208)"
       inkscape:transform-center-y="-1.004055"
       inkscape:transform-center-x="5.2305483e-06" /><path
       sodipodi:type="star"
       style="fill:#6b8e23;fill-opacity:1;stroke-width:11.3386;stroke-linecap:round;stroke-linejoin:round;stop-color:#000000"
       id="path572-9-2-5-9-4-8-5-0-33-1-1-4"
       inkscape:flatsided="false"
       sodipodi:sides="5"
       sodipodi:cx="723.78088"
       sodipodi:cy="69.526627"
       sodipodi:r1="16.395464"
       sodipodi:r2="6.5581851"
       sodipodi:arg1="-1.5707963"
       sodipodi:arg2="-0.9424778"
       inkscape:rounded="0"
       inkscape:randomized="0"
       d="m 723.78088,53.131163 3.85481,11.08978 11.73821,0.239207 -9.35581,7.093067 3.39981,11.237619 -9.63702,-6.706024 -9.63701,6.706023 3.39981,-11.237618 -9.35581,-7.093068 11.73821,-0.239206 z"
       transform="matrix(0.64131288,0,0,0.64131288,95.829747,742.80078)"
       inkscape:transform-center-y="-1.004055"
       inkscape:transform-center-x="5.2305483e-06" /></g></svg>
