<?xml version="1.0" encoding="UTF-8" standalone="no"?>
<!-- Created with Inkscape (http://www.inkscape.org/) -->
<svg
   xmlns:dc="http://purl.org/dc/elements/1.1/"
   xmlns:cc="http://creativecommons.org/ns#"
   xmlns:rdf="http://www.w3.org/1999/02/22-rdf-syntax-ns#"
   xmlns:svg="http://www.w3.org/2000/svg"
   xmlns="http://www.w3.org/2000/svg"
   xmlns:sodipodi="http://sodipodi.sourceforge.net/DTD/sodipodi-0.dtd"
   xmlns:inkscape="http://www.inkscape.org/namespaces/inkscape"
   width="750"
   height="500"
   id="svg2"
   version="1.1"
   inkscape:version="0.46"
   sodipodi:docname="Flag_of_La Esperanza_(Norte_de_Santander).svg"
   sodipodi:version="0.32"
   inkscape:output_extension="org.inkscape.output.svg.inkscape">
  <defs
     id="defs4" />
  <sodipodi:namedview
     id="base"
     pagecolor="#ffffff"
     bordercolor="#666666"
     borderopacity="1.0"
     inkscape:pageopacity="0.0"
     inkscape:pageshadow="2"
     inkscape:zoom="1.014"
     inkscape:cx="375"
     inkscape:cy="250"
     inkscape:document-units="px"
     inkscape:current-layer="layer1"
     showgrid="false"
     inkscape:window-width="1024"
     inkscape:window-height="712"
     inkscape:window-x="-4"
     inkscape:window-y="-4"
     inkscape:window-maximized="1" />
  <metadata
     id="metadata7">
    <rdf:RDF>
      <cc:Work
         rdf:about="">
        <dc:format>image/svg+xml</dc:format>
        <dc:type
           rdf:resource="http://purl.org/dc/dcmitype/StillImage" />
        <dc:title />
      </cc:Work>
    </rdf:RDF>
  </metadata>
  <g
     inkscape:label="Capa 1"
     inkscape:groupmode="layer"
     id="layer1"
     transform="translate(0,-552.36218)">
    <rect
       style="fill:#078930;fill-opacity:1;stroke:none"
       id="rect2816"
       width="749.07581"
       height="250.6723"
       x="0.92421448"
       y="552.36218" />
    <rect
       style="fill:#fcdd09;fill-opacity:1;stroke:none"
       id="rect2818"
       width="750"
       height="250.6723"
       x="0"
       y="802.22687" />
    <path
       style="fill:#ffffff;stroke:none"
       d="M -1,552.36218 L 241,802.36218 L -1,1052.3622"
       id="path2826"
       inkscape:connector-curvature="0"
       sodipodi:nodetypes="ccc" />
    <g
       id="g3169"
       inkscape:label="Layer 1"
       transform="matrix(0.25,0,0,0.25,499.56781,614.15046)"
       style="fill:#ffffff">
      <path
         transform="matrix(1,-2.987995e-4,2.987995e-4,1,-7.6178209e-2,-6.0574183e-2)"
         d="M -60.000008,475.21933 L -202.97108,369.37444 L -346.20586,474.86218 L -289.72188,306.18075 L -434.30866,202.55388 L -256.42857,204.14791 L -202.55334,34.615241 L -149.10138,204.28184 L 28.782129,203.13175 L -116.06283,306.39745 L -60.000008,475.21933 z"
         inkscape:randomized="0"
         inkscape:rounded="0"
         inkscape:flatsided="false"
         sodipodi:arg2="1.5720442"
         sodipodi:arg1="0.94372566"
         sodipodi:r2="91.298035"
         sodipodi:r1="243.46143"
         sodipodi:cy="278.07648"
         sodipodi:cx="-202.85715"
         sodipodi:sides="5"
         id="path2383"
         style="opacity:1;fill:#ffffff;fill-opacity:1;stroke:none;stroke-width:0.69999999;stroke-linejoin:round;stroke-miterlimit:4;stroke-dasharray:none;stroke-dashoffset:0;stroke-opacity:1"
         sodipodi:type="star" />
    </g>
    <g
       id="g3172"
       inkscape:label="Layer 1"
       transform="matrix(0.125,0,0,0.125,381.3015,584.5624)"
       style="fill:#ffffff">
      <path
         transform="matrix(1,-2.987995e-4,2.987995e-4,1,-7.6178209e-2,-6.0574183e-2)"
         d="M -60.000008,475.21933 L -202.97108,369.37444 L -346.20586,474.86218 L -289.72188,306.18075 L -434.30866,202.55388 L -256.42857,204.14791 L -202.55334,34.615241 L -149.10138,204.28184 L 28.782129,203.13175 L -116.06283,306.39745 L -60.000008,475.21933 z"
         inkscape:randomized="0"
         inkscape:rounded="0"
         inkscape:flatsided="false"
         sodipodi:arg2="1.5720442"
         sodipodi:arg1="0.94372566"
         sodipodi:r2="91.298035"
         sodipodi:r1="243.46143"
         sodipodi:cy="278.07648"
         sodipodi:cx="-202.85715"
         sodipodi:sides="5"
         id="path3174"
         style="opacity:1;fill:#ffffff;fill-opacity:1;stroke:none;stroke-width:0.69999999;stroke-linejoin:round;stroke-miterlimit:4;stroke-dasharray:none;stroke-dashoffset:0;stroke-opacity:1"
         sodipodi:type="star" />
    </g>
    <g
       style="fill:#ffffff"
       transform="matrix(0.125,0,0,0.125,381.3015,716.5624)"
       inkscape:label="Layer 1"
       id="g3176">
      <path
         sodipodi:type="star"
         style="opacity:1;fill:#ffffff;fill-opacity:1;stroke:none;stroke-width:0.69999999;stroke-linejoin:round;stroke-miterlimit:4;stroke-dasharray:none;stroke-dashoffset:0;stroke-opacity:1"
         id="path3178"
         sodipodi:sides="5"
         sodipodi:cx="-202.85715"
         sodipodi:cy="278.07648"
         sodipodi:r1="243.46143"
         sodipodi:r2="91.298035"
         sodipodi:arg1="0.94372566"
         sodipodi:arg2="1.5720442"
         inkscape:flatsided="false"
         inkscape:rounded="0"
         inkscape:randomized="0"
         d="M -60.000008,475.21933 L -202.97108,369.37444 L -346.20586,474.86218 L -289.72188,306.18075 L -434.30866,202.55388 L -256.42857,204.14791 L -202.55334,34.615241 L -149.10138,204.28184 L 28.782129,203.13175 L -116.06283,306.39745 L -60.000008,475.21933 z"
         transform="matrix(1,-2.987995e-4,2.987995e-4,1,-7.6178209e-2,-6.0574183e-2)" />
    </g>
    <g
       style="fill:#ffffff"
       transform="matrix(-0.125,0,0,0.125,516.46893,584.5624)"
       inkscape:label="Layer 1"
       id="g3184">
      <path
         sodipodi:type="star"
         style="opacity:1;fill:#ffffff;fill-opacity:1;stroke:none;stroke-width:0.69999999;stroke-linejoin:round;stroke-miterlimit:4;stroke-dasharray:none;stroke-dashoffset:0;stroke-opacity:1"
         id="path3186"
         sodipodi:sides="5"
         sodipodi:cx="-202.85715"
         sodipodi:cy="278.07648"
         sodipodi:r1="243.46143"
         sodipodi:r2="91.298035"
         sodipodi:arg1="0.94372566"
         sodipodi:arg2="1.5720442"
         inkscape:flatsided="false"
         inkscape:rounded="0"
         inkscape:randomized="0"
         d="M -60.000008,475.21933 L -202.97108,369.37444 L -346.20586,474.86218 L -289.72188,306.18075 L -434.30866,202.55388 L -256.42857,204.14791 L -202.55334,34.615241 L -149.10138,204.28184 L 28.782129,203.13175 L -116.06283,306.39745 L -60.000008,475.21933 z"
         transform="matrix(1,-2.987995e-4,2.987995e-4,1,-7.6178209e-2,-6.0574183e-2)" />
    </g>
    <g
       id="g3188"
       inkscape:label="Layer 1"
       transform="matrix(-0.125,0,0,0.125,516.46893,716.5624)"
       style="fill:#ffffff">
      <path
         transform="matrix(1,-2.987995e-4,2.987995e-4,1,-7.6178209e-2,-6.0574183e-2)"
         d="M -60.000008,475.21933 L -202.97108,369.37444 L -346.20586,474.86218 L -289.72188,306.18075 L -434.30866,202.55388 L -256.42857,204.14791 L -202.55334,34.615241 L -149.10138,204.28184 L 28.782129,203.13175 L -116.06283,306.39745 L -60.000008,475.21933 z"
         inkscape:randomized="0"
         inkscape:rounded="0"
         inkscape:flatsided="false"
         sodipodi:arg2="1.5720442"
         sodipodi:arg1="0.94372566"
         sodipodi:r2="91.298035"
         sodipodi:r1="243.46143"
         sodipodi:cy="278.07648"
         sodipodi:cx="-202.85715"
         sodipodi:sides="5"
         id="path3190"
         style="opacity:1;fill:#ffffff;fill-opacity:1;stroke:none;stroke-width:0.69999999;stroke-linejoin:round;stroke-miterlimit:4;stroke-dasharray:none;stroke-dashoffset:0;stroke-opacity:1"
         sodipodi:type="star" />
    </g>
  </g>
</svg>
