<?xml version="1.0" encoding="UTF-8" standalone="no"?>
<!-- Created with Inkscape (http://www.inkscape.org/) -->
<svg
   xmlns:dc="http://purl.org/dc/elements/1.1/"
   xmlns:cc="http://creativecommons.org/ns#"
   xmlns:rdf="http://www.w3.org/1999/02/22-rdf-syntax-ns#"
   xmlns:svg="http://www.w3.org/2000/svg"
   xmlns="http://www.w3.org/2000/svg"
   xmlns:sodipodi="http://sodipodi.sourceforge.net/DTD/sodipodi-0.dtd"
   xmlns:inkscape="http://www.inkscape.org/namespaces/inkscape"
   width="750"
   height="500"
   id="svg2"
   version="1.1"
   inkscape:version="0.46"
   sodipodi:docname="Flag_of_La Florida_(Nariño).svg"
   sodipodi:version="0.32"
   inkscape:output_extension="org.inkscape.output.svg.inkscape">
  <defs
     id="defs4" />
  <sodipodi:namedview
     id="base"
     pagecolor="#ffffff"
     bordercolor="#666666"
     borderopacity="1.0"
     inkscape:pageopacity="0.0"
     inkscape:pageshadow="2"
     inkscape:zoom="1.014"
     inkscape:cx="375"
     inkscape:cy="250"
     inkscape:document-units="px"
     inkscape:current-layer="layer1"
     showgrid="false"
     inkscape:window-width="1024"
     inkscape:window-height="712"
     inkscape:window-x="-4"
     inkscape:window-y="-4"
     inkscape:window-maximized="1" />
  <metadata
     id="metadata7">
    <rdf:RDF>
      <cc:Work
         rdf:about="">
        <dc:format>image/svg+xml</dc:format>
        <dc:type
           rdf:resource="http://purl.org/dc/dcmitype/StillImage" />
        <dc:title />
      </cc:Work>
    </rdf:RDF>
  </metadata>
  <g
     inkscape:label="Capa 1"
     inkscape:groupmode="layer"
     id="layer1"
     transform="translate(0,-552.36218)">
    <rect
       style="fill:#078930;fill-opacity:1"
       id="rect2816"
       width="250"
       height="500"
       x="0"
       y="-1.1368684e-13"
       transform="translate(0,552.36218)" />
    <rect
       style="fill:#fcdd09;fill-opacity:1;stroke:none"
       id="rect2818"
       width="250"
       height="500"
       x="250"
       y="-1.1368684e-13"
       transform="translate(0,552.36218)" />
    <path
       id="path2398"
       style="fill:#da121a;fill-rule:evenodd;stroke:none;stroke-width:1px;stroke-linecap:butt;stroke-linejoin:miter;stroke-opacity:1;fill-opacity:1"
       d="M 374.69058,642.51625 L 487.29085,803.17117 L 374.69058,961.48075 L 262.09031,803.17117 L 374.69058,642.51625 z"
       sodipodi:nodetypes="ccccc" />
    <rect
       style="fill:#078930;fill-opacity:1"
       id="rect2820"
       width="250"
       height="500"
       x="500"
       y="-1.1368684e-13"
       transform="translate(0,552.36218)" />
    <path
       id="path2396"
       style="fill:#ffffff;fill-rule:evenodd;stroke:none;stroke-width:1px;stroke-linecap:butt;stroke-linejoin:miter;stroke-opacity:1;fill-opacity:1"
       d="M 374.69058,876.7529 C 378.80445,876.98299 379.30421,874.29964 379.22047,872.412 L 379.6151,851.89136 C 398.35727,843.5903 401.72304,824.1064 397.37334,799.01126 C 396.96086,781.83778 395.14057,764.72061 420.26174,746.52579 C 409.37218,745.70293 399.35619,749.90305 389.87542,757.18074 C 388.25422,745.19354 378.92606,743.93436 374.69058,735.08159 C 370.4551,743.93436 361.12694,745.19354 359.50574,757.18074 C 350.02497,749.90305 340.00898,745.70293 329.11942,746.52579 C 354.24059,764.72061 352.4203,781.83778 352.00782,799.01126 C 347.65812,824.1064 351.02389,843.5903 369.76606,851.89136 L 370.16069,872.412 C 370.07695,874.29964 370.57671,876.98299 374.69058,876.7529 z"
       sodipodi:nodetypes="ccccccccccccc" />
  </g>
</svg>
