<?xml version="1.0" encoding="UTF-8" standalone="no"?>
<!-- Created with Inkscape (http://www.inkscape.org/) -->
<svg
   xmlns:dc="http://purl.org/dc/elements/1.1/"
   xmlns:cc="http://creativecommons.org/ns#"
   xmlns:rdf="http://www.w3.org/1999/02/22-rdf-syntax-ns#"
   xmlns:svg="http://www.w3.org/2000/svg"
   xmlns="http://www.w3.org/2000/svg"
   xmlns:sodipodi="http://sodipodi.sourceforge.net/DTD/sodipodi-0.dtd"
   xmlns:inkscape="http://www.inkscape.org/namespaces/inkscape"
   width="750"
   height="500"
   id="svg2"
   version="1.1"
   inkscape:version="0.46"
   sodipodi:docname="Flag_of_La Jagua del Pilar_(La_Guajira).svg"
   sodipodi:version="0.32"
   inkscape:output_extension="org.inkscape.output.svg.inkscape">
  <defs
     id="defs4" />
  <sodipodi:namedview
     id="base"
     pagecolor="#ffffff"
     bordercolor="#666666"
     borderopacity="1.0"
     inkscape:pageopacity="0.0"
     inkscape:pageshadow="2"
     inkscape:zoom="1.014"
     inkscape:cx="375"
     inkscape:cy="250"
     inkscape:document-units="px"
     inkscape:current-layer="layer1"
     showgrid="false"
     inkscape:window-width="1024"
     inkscape:window-height="712"
     inkscape:window-x="-4"
     inkscape:window-y="-4"
     inkscape:window-maximized="1" />
  <metadata
     id="metadata7">
    <rdf:RDF>
      <cc:Work
         rdf:about="">
        <dc:format>image/svg+xml</dc:format>
        <dc:type
           rdf:resource="http://purl.org/dc/dcmitype/StillImage" />
        <dc:title />
      </cc:Work>
    </rdf:RDF>
  </metadata>
  <g
     inkscape:label="Capa 1"
     inkscape:groupmode="layer"
     id="layer1"
     transform="translate(0,-552.36218)">
    <rect
       style="fill:#034418;fill-opacity:1;stroke:none"
       id="rect2816"
       width="750"
       height="250"
       x="0"
       y="-5.6843419e-14"
       transform="translate(0,552.36218)"
       rx="8.8817842e-16"
       ry="8.8817794e-16" />
    <path
       sodipodi:type="star"
       style="fill:#fcdd09;fill-opacity:1;stroke:none"
       id="path5915"
       sodipodi:sides="20"
       sodipodi:cx="320.68967"
       sodipodi:cy="153.44827"
       sodipodi:r1="230.11899"
       sodipodi:r2="133.061"
       sodipodi:arg1="1.2589183"
       sodipodi:arg2="1.4159979"
       inkscape:flatsided="false"
       inkscape:rounded="0"
       inkscape:randomized="0"
       d="m 391.3009,372.46609 -50.09576,-87.54787 -21.04043,98.64844 -20.59012,-98.74341 -50.49468,87.3184 10.93103,-100.27327 -75.00617,67.44102 41.38217,-91.98767 -92.17552,40.96204 67.78253,-74.69768 -100.3221,10.47341 87.54787,-50.09576 -98.648443,-21.04042 98.743413,-20.59012 -87.3184,-50.494683 100.27327,10.931025 -67.44102,-75.006163 91.98767,41.382165 -40.96204,-92.17552 74.69768,67.78253 -10.47341,-100.322095 50.09576,87.547869 21.04042,-98.648445 20.59012,98.743413 50.49468,-87.318397 -10.93102,100.273263 75.00616,-67.441016 -41.38216,91.987668 92.17552,-40.962039 -67.78253,74.697678 100.32209,-10.473411 -87.54787,50.095758 98.64845,21.04043 -98.74342,20.59012 87.3184,50.49468 -100.27326,-10.93103 67.44101,75.00617 -91.98766,-41.38217 40.96203,92.17552 -74.69767,-67.78253 10.47341,100.3221 z"
       transform="matrix(0.97775758,0,0,0.97775758,61.443247,652.32697)" />
    <rect
       style="fill:#ffffff;fill-opacity:1;stroke:none"
       id="rect2818"
       width="750"
       height="250.86208"
       x="0"
       y="802.36218"
       rx="8.8817842e-16"
       ry="1.7824813e-15" />
  </g>
</svg>
