<?xml version="1.0" encoding="UTF-8" standalone="no"?>
<!-- Created with Inkscape (http://www.inkscape.org/) -->

<svg
   xmlns:dc="http://purl.org/dc/elements/1.1/"
   xmlns:cc="http://creativecommons.org/ns#"
   xmlns:rdf="http://www.w3.org/1999/02/22-rdf-syntax-ns#"
   xmlns:svg="http://www.w3.org/2000/svg"
   xmlns="http://www.w3.org/2000/svg"
   xmlns:sodipodi="http://sodipodi.sourceforge.net/DTD/sodipodi-0.dtd"
   xmlns:inkscape="http://www.inkscape.org/namespaces/inkscape"
   width="750"
   height="500"
   id="svg2822"
   version="1.1"
   inkscape:version="0.47 r22583"
   sodipodi:docname="Flag of Uribe (Meta).svg">
  <defs
     id="defs2824">
    <inkscape:perspective
       sodipodi:type="inkscape:persp3d"
       inkscape:vp_x="0 : 526.18109 : 1"
       inkscape:vp_y="0 : 1000 : 0"
       inkscape:vp_z="744.09448 : 526.18109 : 1"
       inkscape:persp3d-origin="372.04724 : 350.78739 : 1"
       id="perspective2830" />
    <inkscape:perspective
       id="perspective2868"
       inkscape:persp3d-origin="0.5 : 0.33333333 : 1"
       inkscape:vp_z="1 : 0.5 : 1"
       inkscape:vp_y="0 : 1000 : 0"
       inkscape:vp_x="0 : 0.5 : 1"
       sodipodi:type="inkscape:persp3d" />
  </defs>
  <sodipodi:namedview
     id="base"
     pagecolor="#ffffff"
     bordercolor="#666666"
     borderopacity="1.0"
     inkscape:pageopacity="0.0"
     inkscape:pageshadow="2"
     inkscape:zoom="0.39408631"
     inkscape:cx="419.87265"
     inkscape:cy="281.82259"
     inkscape:document-units="px"
     inkscape:current-layer="layer1"
     showgrid="false"
     inkscape:window-width="1024"
     inkscape:window-height="538"
     inkscape:window-x="-8"
     inkscape:window-y="-8"
     inkscape:window-maximized="1" />
  <metadata
     id="metadata2827">
    <rdf:RDF>
      <cc:Work
         rdf:about="">
        <dc:format>image/svg+xml</dc:format>
        <dc:type
           rdf:resource="http://purl.org/dc/dcmitype/StillImage" />
        <dc:title />
      </cc:Work>
    </rdf:RDF>
  </metadata>
  <g
     inkscape:label="Capa 1"
     inkscape:groupmode="layer"
     id="layer1"
     transform="translate(0,-552.36218)">
    <rect
       style="fill:#509164;fill-opacity:1;stroke:none"
       id="rect2832"
       width="750"
       height="166.666"
       x="0"
       y="-5.6843419e-14"
       transform="translate(0,552.36218)" />
    <rect
       style="fill:#ffffff;fill-opacity:1;stroke:none"
       id="rect2834"
       width="750"
       height="166.666"
       x="0"
       y="719.03015" />
    <rect
       style="fill:#0f47af;fill-opacity:1;stroke:none"
       id="rect2836"
       width="750"
       height="166.666"
       x="0"
       y="885.69617" />
    <g
       transform="matrix(1.517416,0,0,1.517416,-915.42233,136.89112)"
       id="g7924">
      <path
         style="fill:none;stroke:#000000;stroke-width:1;stroke-linecap:butt;stroke-linejoin:miter;stroke-miterlimit:4;stroke-opacity:1;stroke-dasharray:none"
         d="m 845.77451,425.24673 c 2.75752,4.66288 -0.4849,8.30995 -2.3992,10.70125 -7.63396,9.53611 -12.78077,3.35441 -11.503,1.08881 2.42552,-7.43031 4.07463,-15.04843 12.2039,-18.61876 2.13829,-0.48069 4.27657,-0.59378 6.41486,-2.65982 7.77056,-3.1775 14.82172,2.99716 22.21734,4.6938 6.81669,5.78303 46.87669,-18.30066 53.32337,-21.02586 l -0.12692,57.0117 c -12.26875,0.41593 -25.03019,2.80255 -36.14229,-1.40814 -2.73152,2.82311 -5.26269,4.04338 -7.7001,4.51356"
         id="path5738"
         sodipodi:nodetypes="cccccccscc" />
      <path
         style="fill:none;stroke:#000000;stroke-width:1;stroke-linecap:butt;stroke-linejoin:miter;stroke-miterlimit:4;stroke-opacity:1;stroke-dasharray:none"
         d="m 847.76592,417.17044 c -23.23506,2.38503 -40.37347,-6.55231 -57.38746,-15.7207 -6.30616,-3.39822 -14.38644,-4.65669 -21.84759,-3.57081 l 0.0211,56.24327 c 11.69181,1.33455 35.41909,-8.63697 37.3943,-8.18691 5.38873,5.80382 11.62639,8.71835 17.96069,12.82012"
         id="path5740"
         sodipodi:nodetypes="cscccc" />
      <path
         style="fill:none;stroke:#000000;stroke-width:1;stroke-linecap:butt;stroke-linejoin:miter;stroke-miterlimit:4;stroke-opacity:1;stroke-dasharray:none"
         d="m 834.0473,429.94867 c 1.40774,-1.25119 5.0449,-0.47116 5.31821,0.41639 0.67916,2.20549 0.12846,5.72689 -3.10553,7.16204"
         id="path5744"
         sodipodi:nodetypes="csc" />
      <path
         style="fill:none;stroke:#000000;stroke-width:1;stroke-linecap:butt;stroke-linejoin:miter;stroke-miterlimit:4;stroke-opacity:1;stroke-dasharray:none"
         d="m 864.88541,441.4959 c 2.09766,2.87613 7.4108,3.03608 12.82973,2.73806"
         id="path5746"
         sodipodi:nodetypes="cc" />
      <path
         style="fill:none;stroke:#000000;stroke-width:1;stroke-linecap:butt;stroke-linejoin:miter;stroke-miterlimit:4;stroke-opacity:1;stroke-dasharray:none"
         d="m 851.52748,430.22525 c 0.8009,-0.48462 1.46874,-1.03577 1.10634,-2.10204"
         id="path5748"
         sodipodi:nodetypes="cc" />
      <path
         style="fill:none;stroke:#000000;stroke-width:1;stroke-linecap:butt;stroke-linejoin:miter;stroke-miterlimit:4;stroke-opacity:1;stroke-dasharray:none"
         d="m 853.96143,430.88906 c 0.44618,-0.83361 0.94241,-1.46703 1.10634,-3.42966"
         id="path5752"
         sodipodi:nodetypes="cc" />
      <path
         style="fill:none;stroke:#000000;stroke-width:1;stroke-linecap:butt;stroke-linejoin:miter;stroke-miterlimit:4;stroke-opacity:1;stroke-dasharray:none"
         d="m 846.57957,430.77838 c 3.61085,-1.61276 8.02941,-1.11724 11.16287,2.42858 7.56832,8.56432 16.93757,20.95821 25.76172,27.76824 0.94503,5.00311 -4.15019,6.94392 -7.41593,6.97626"
         id="path5754"
         sodipodi:nodetypes="cscc" />
      <path
         style="fill:none;stroke:#000000;stroke-width:1.00001001;stroke-linecap:butt;stroke-linejoin:miter;stroke-miterlimit:4;stroke-opacity:1;stroke-dasharray:none"
         d="m 858.71869,448.36924 c 2.39932,8.51769 13.20322,12.8331 17.59082,20.35666 0.34339,7.08389 -6.03237,5.44341 -9.7358,4.75726"
         id="path5756"
         sodipodi:nodetypes="ccc" />
      <path
         style="fill:none;stroke:#000000;stroke-width:1;stroke-linecap:butt;stroke-linejoin:miter;stroke-miterlimit:4;stroke-opacity:1;stroke-dasharray:none"
         d="m 851.85938,460.42835 c 5.93143,4.34652 10.36272,10.88386 15.5994,13.71862 -0.65368,1.90446 -2.25555,2.47332 -8.53905,2.99347 -0.3411,0.0282 -1.5551,0.0643 -1.94352,-0.14465 -6.2264,-3.07653 -11.42407,-12.37916 -15.40336,-12.42201"
         id="path5758"
         sodipodi:nodetypes="ccscc" />
      <path
         style="fill:none;stroke:#000000;stroke-width:1;stroke-linecap:butt;stroke-linejoin:miter;stroke-miterlimit:4;stroke-opacity:1;stroke-dasharray:none"
         d="m 815.20931,453.23042 c -3.08531,6.75157 3.74116,12.39287 8.68353,5.39787"
         id="path5760"
         sodipodi:nodetypes="cc" />
      <path
         style="fill:none;stroke:#000000;stroke-width:1;stroke-linecap:butt;stroke-linejoin:miter;stroke-miterlimit:4;stroke-opacity:1;stroke-dasharray:none"
         d="m 826.08329,454.09095 c 4.20147,0.0434 7.82489,8.22567 11.65628,7.90124"
         id="path5762"
         sodipodi:nodetypes="cc" />
      <path
         style="fill:none;stroke:#000000;stroke-width:1;stroke-linecap:butt;stroke-linejoin:miter;stroke-miterlimit:4;stroke-opacity:1;stroke-dasharray:none"
         d="m 857.61235,477.13408 c -2.97844,4.32597 -10.97889,-2.7491 -12.11442,-1.6595"
         id="path5764"
         sodipodi:nodetypes="cc" />
      <path
         style="fill:none;stroke:#000000;stroke-width:1;stroke-linecap:butt;stroke-linejoin:miter;stroke-miterlimit:4;stroke-opacity:1;stroke-dasharray:none"
         d="m 848.54036,476.58092 c -4.14014,1.73855 -3.17241,-2.48208 -3.87219,-4.75727 -0.69327,-2.5368 -3.69264,-5.53399 -7.55444,1.90305 0.35127,8.7836 9.1547,3.93378 10.79575,3.1292"
         id="path5766"
         sodipodi:nodetypes="cccc" />
      <path
         style="fill:none;stroke:#000000;stroke-width:1;stroke-linecap:butt;stroke-linejoin:miter;stroke-miterlimit:4;stroke-opacity:1;stroke-dasharray:none"
         d="m 839.07504,473.25406 c 1.28805,1.1173 3.9195,2.43409 3.83529,1.66349 0.15923,-1.42586 0.56715,-3.6431 -0.86255,-3.85393"
         id="path5768"
         sodipodi:nodetypes="ccc" />
      <path
         style="fill:none;stroke:#000000;stroke-width:1;stroke-linecap:butt;stroke-linejoin:miter;stroke-miterlimit:4;stroke-opacity:1;stroke-dasharray:none"
         d="m 841.7293,468.7982 c 0.78574,-5.72781 -2.51287,-9.0189 -7.74477,-5.24141 l -4.85027,5.31964 c -0.80872,0.59179 0.97155,7.47414 7.74478,5.24142"
         id="path5770"
         sodipodi:nodetypes="cccc" />
      <path
         style="fill:none;stroke:#000000;stroke-width:1;stroke-linecap:butt;stroke-linejoin:miter;stroke-miterlimit:4;stroke-opacity:1;stroke-dasharray:none"
         d="m 835.62736,464.33909 c 2.38083,1.11038 3.43293,2.46236 3.52035,3.98973 -3.19443,2.74986 -4.04346,1.04344 -5.24141,0"
         id="path5772"
         sodipodi:nodetypes="ccc" />
      <path
         style="fill:none;stroke:#000000;stroke-width:1;stroke-linecap:butt;stroke-linejoin:miter;stroke-miterlimit:4;stroke-opacity:1;stroke-dasharray:none"
         d="m 823.81461,458.55006 c 8.78014,-5.24123 11.04942,3.96175 9.6223,5.47611"
         id="path5774"
         sodipodi:nodetypes="cc" />
      <path
         style="fill:none;stroke:#000000;stroke-width:1;stroke-linecap:butt;stroke-linejoin:miter;stroke-miterlimit:4;stroke-opacity:1;stroke-dasharray:none"
         d="m 822.11023,460.48127 c -4.97726,8.19633 3.92748,11.93325 7.18049,8.31693"
         id="path5776"
         sodipodi:nodetypes="cc" />
      <path
         style="fill:none;stroke:#000000;stroke-width:1;stroke-linecap:butt;stroke-linejoin:miter;stroke-miterlimit:4;stroke-opacity:1;stroke-dasharray:none"
         d="m 827.51989,459.76454 c 2.16775,0.48747 3.54509,1.76535 4.536,3.42966 -2.68468,4.31772 -4.67061,1.80864 -5.14448,0.60848"
         id="path5778"
         sodipodi:nodetypes="ccc" />
      <path
         style="fill:none;stroke:#000000;stroke-width:1;stroke-linecap:butt;stroke-linejoin:miter;stroke-miterlimit:4;stroke-opacity:1;stroke-dasharray:none"
         d="m 868.2493,445.79856 c 2.3532,1.92522 4.39834,2.15605 6.33664,1.79929"
         id="path5780"
         sodipodi:nodetypes="cc" />
      <path
         style="fill:none;stroke:#000000;stroke-width:1;stroke-linecap:butt;stroke-linejoin:miter;stroke-miterlimit:4;stroke-opacity:1;stroke-dasharray:none"
         d="m 871.44161,449.36494 c 0.88136,0.6822 1.57036,0.88349 2.15736,0.82976"
         id="path5782"
         sodipodi:nodetypes="cc" />
      <path
         style="fill:none;stroke:#000000;stroke-width:1;stroke-linecap:butt;stroke-linejoin:miter;stroke-miterlimit:4;stroke-opacity:1;stroke-dasharray:none"
         d="m 849.02829,469.9684 c 3.24689,2.00501 4.88418,2.2663 5.63256,1.5646"
         id="path5784"
         sodipodi:nodetypes="cc" />
      <path
         style="fill:none;stroke:#000000;stroke-width:1;stroke-linecap:butt;stroke-linejoin:miter;stroke-miterlimit:4;stroke-opacity:1;stroke-dasharray:none"
         d="m 860.07771,468.03163 c 2.20669,1.11146 4.79256,2.60212 5.00673,1.72106"
         id="path5786"
         sodipodi:nodetypes="cc" />
      <path
         style="fill:none;stroke:#000000;stroke-width:1;stroke-linecap:butt;stroke-linejoin:miter;stroke-miterlimit:4;stroke-opacity:1;stroke-dasharray:none"
         d="m 873.86478,465.34876 c 2.46752,1.36023 3.52389,1.45044 3.9115,0.93876"
         id="path5788"
         sodipodi:nodetypes="cc" />
      <path
         style="fill:#ffba8d;fill-opacity:1;stroke:#000000;stroke-width:0.15225908;stroke-miterlimit:4;stroke-opacity:1;stroke-dasharray:none;stroke-dashoffset:0"
         d="m 856.33739,475.96635 c -1.22529,-0.73883 -2.39468,-1.65498 -3.66651,-2.87249 -0.80311,-0.76882 -0.97199,-0.99544 -0.68517,-0.91948 0.83197,0.22035 2.14348,0.25724 2.58876,0.0728 0.54217,-0.22457 0.54045,-0.2155 0.14583,-0.76968 -0.27293,-0.38331 -0.35491,-0.41599 -0.67617,-0.26962 -0.63538,0.2895 -1.63081,-0.0508 -4.24617,-1.45154 -0.40771,-0.21837 -1.47908,-1.10983 -2.38082,-1.98102 -2.51706,-2.43179 -3.85326,-3.38963 -5.10606,-3.6602 -0.3198,-0.0691 -0.55214,-0.26557 -0.75135,-0.63547 -0.35886,-0.66638 -1.319,-1.54665 -1.99506,-1.82913 -0.28116,-0.11748 -0.94163,-0.2166 -1.46771,-0.22028 -0.52608,-0.004 -1.21281,-0.0982 -1.52608,-0.20996 -0.80159,-0.2861 -2.28244,-1.55051 -4.77544,-4.07751 -2.27576,-2.3068 -3.4402,-3.14959 -4.80346,-3.47663 -0.41497,-0.0995 -0.79154,-0.14395 -0.83682,-0.0987 -0.0453,0.0453 -0.093,0.30086 -0.10598,0.56795 -0.0221,0.45475 0.0206,0.49704 0.67228,0.66564 0.78239,0.20241 1.90827,0.81951 2.31485,1.26878 0.26497,0.29278 0.25016,0.29955 -0.83761,0.38259 -1.18971,0.0908 -2.6592,0.53031 -3.78856,1.13307 l -0.70184,0.37459 -4.72671,-2.92985 c -4.1023,-2.41079 -8.21955,-4.88139 -12.92971,-9.72365 -3.75473,0.67787 -7.37875,2.02131 -11.01106,3.16027 -8.47408,2.66655 -15.01266,4.28362 -19.79369,4.8952 -1.8355,0.2348 -5.99945,0.48195 -6.24001,0.31406 -0.40612,-17.75459 0.12361,-35.25237 -0.0678,-54.768 -0.36004,-0.81483 0.84828,-0.82865 1.91632,-0.89735 1.53457,-0.0987 6.39653,0.15145 8.04568,0.37406 4.85322,0.65508 7.59666,1.65288 14.19043,5.16111 5.39915,2.87262 11.1678,5.72514 14.43428,7.13755 11.81918,5.11056 21.79115,7.38621 32.32055,7.37572 l 3.61972,-0.004 -0.87701,0.46133 c -1.39876,0.73579 -3.20394,2.10705 -4.22648,3.21052 -2.57519,2.77903 -4.12596,5.96573 -6.40349,13.15863 -0.99355,3.13782 -1.01427,3.6132 -0.21043,4.82679 0.86594,1.30732 2.53079,2.04016 4.296,1.89102 2.03179,-0.17166 3.81251,-1.19841 6.12008,-3.5288 1.86231,-1.88073 3.35574,-3.84 4.26932,-5.60101 0.67467,-1.30049 0.70519,-1.33306 1.48333,-1.58269 0.49197,-0.15782 1.43223,-0.27099 2.46934,-0.29719 1.87043,-0.0473 3.19899,0.26637 4.59884,1.08566 1.21925,0.7136 2.16056,1.72059 7.67677,8.2124 2.91746,3.43344 5.63983,6.61946 6.0497,7.08004 0.40988,0.46059 1.62199,1.83092 2.69359,3.04519 2.53287,2.8701 8.26021,8.57228 10.1699,10.12522 l 1.49788,1.21808 -0.0677,1.0052 c -0.12362,1.83443 -1.06646,3.09252 -3.04902,4.06853 -0.91622,0.45105 -2.75186,0.9405 -3.52728,0.9405 -0.19493,0 -0.38875,-0.0895 -0.43072,-0.19887 -0.0588,-0.15318 0.12116,-0.18541 0.78307,-0.14028 0.60811,0.0415 0.94842,-0.009 1.1639,-0.17299 0.3031,-0.23051 0.30294,-0.2332 -0.0352,-0.57588 -0.22725,-0.23029 -0.53286,-0.34914 -0.92298,-0.35892 -1.00733,-0.0253 -2.71224,-0.97727 -3.99321,-2.22976 -0.62971,-0.6157 -2.16873,-2.01018 -3.42004,-3.09883 -4.75505,-4.13695 -6.50811,-5.8578 -8.03225,-7.88468 -0.61232,-0.81428 -1.80837,-3.07809 -2.08877,-3.95346 -0.19921,-0.62192 -0.24762,-0.64563 -0.85046,-0.41643 -0.51932,0.19745 -0.46396,0.45798 0.53548,2.5201 1.38137,2.85018 3.32831,5.07158 7.99705,9.12444 4.87408,4.23111 6.688,6.05704 8.1205,8.17429 0.5507,0.81393 0.62415,1.58394 0.26495,2.77746 -0.3341,1.11014 -0.82859,1.72347 -1.76218,2.18569 -0.76634,0.37942 -0.97314,0.41233 -2.43615,0.38771 -0.87929,-0.0148 -2.34056,-0.16471 -3.24726,-0.33314 -1.75488,-0.32599 -2.14149,-0.53777 -3.9568,-2.16752 l -0.63728,-0.57214 0.84204,0.0832 c 0.6725,0.0664 0.88474,0.0317 1.05416,-0.17242 0.18592,-0.22402 0.16265,-0.30147 -0.18829,-0.62689 -0.22023,-0.20421 -0.56456,-0.37128 -0.76518,-0.37128 -0.20062,0 -1.14328,-0.38208 -2.09479,-0.84907 -1.69589,-0.83231 -1.783,-0.90094 -4.41376,-3.47758 -2.58726,-2.53403 -5.40193,-4.96116 -5.75331,-4.96116 -0.24777,0 -0.70416,0.75465 -0.54164,0.89562 0.0752,0.0653 0.68496,0.55788 1.3549,1.09467 0.66994,0.53679 3.13653,2.86089 5.48132,5.16468 4.25058,4.17623 5.76024,5.52283 7.42651,6.62433 l 0.87936,0.58132 -0.34646,0.37098 c -0.462,0.49472 -0.93106,0.72498 -2.08695,1.0245 -1.25882,0.32619 -4.32952,0.68499 -5.87246,0.68617 -1.12754,8.6e-4 -1.28506,-0.0395 -2.11933,-0.54251 l 0,0 z"
         id="path7906"
         sodipodi:nodetypes="cssssssssssssssssssscccccsccsssscccsssssssssssscccssssssssssssssssssscccssssssssscccsscc" />
      <path
         style="fill:#ffba8d;fill-opacity:1;stroke:#000000;stroke-width:0.10766343;stroke-miterlimit:4;stroke-opacity:1;stroke-dasharray:none;stroke-dashoffset:0"
         d="m 880.98159,458.15847 c -0.52527,-0.45132 -2.39638,-2.27633 -4.15802,-4.05558 l -3.20299,-3.235 0,-0.62778 c 0,-0.62758 -10e-5,-0.62778 -0.32728,-0.62778 -0.18,0 -0.50703,-0.0924 -0.72672,-0.20523 -0.43586,-0.22395 -1.61569,-1.50699 -1.26039,-1.37064 0.66143,0.25381 3.19292,0.30203 3.34026,0.0636 0.0273,-0.0442 0.0208,-0.29152 -0.0146,-0.54955 l -0.0643,-0.46912 -1.20275,0.0382 c -1.07734,0.0342 -1.2923,0.008 -2.06152,-0.24974 -1.31226,-0.43997 -1.89308,-0.82399 -2.73592,-1.8089 -0.41297,-0.48258 -0.73748,-0.89079 -0.72113,-0.90714 0.0163,-0.0163 0.54427,0.0865 1.17317,0.22865 1.69448,0.38288 3.63267,0.5274 6.33189,0.47213 1.29666,-0.0265 2.38608,-0.0768 2.42094,-0.11165 0.0349,-0.0349 0.03,-0.28618 -0.0109,-0.55848 l -0.0743,-0.49511 -1.95252,0.0691 c -3.69124,0.13056 -6.79044,-0.28218 -8.51999,-1.13466 -1.09929,-0.54183 -1.54909,-0.98127 -4.14228,-4.04692 -5.23843,-6.19283 -5.98769,-6.97949 -7.4773,-7.85064 l -0.68213,-0.39894 0.21247,-0.55857 c 0.24781,-0.65146 0.53011,-2.14069 0.42568,-2.24563 -0.0395,-0.0397 -0.28571,-0.0881 -0.54721,-0.10767 l -0.47546,-0.0356 -0.13678,0.801 c -0.18498,1.0832 -0.44966,1.76125 -0.65652,1.68187 -0.0879,-0.0337 -0.27941,-0.0914 -0.42548,-0.12801 -0.19369,-0.0486 -0.24546,-0.11406 -0.19127,-0.24179 0.12351,-0.29108 0.16992,-1.24217 0.0679,-1.39216 -0.0763,-0.11223 -0.19506,-0.11532 -0.59192,-0.0154 -0.46506,0.1171 -0.49267,0.14389 -0.43672,0.42364 0.0369,0.18453 -0.007,0.40115 -0.11607,0.56693 -0.16984,0.2592 -0.22589,0.2702 -1.65276,0.32436 -0.95312,0.0362 -1.75381,0.12974 -2.25752,0.26378 l -0.78056,0.20772 -0.004,-0.97682 c -0.004,-0.95939 -0.13941,-1.72751 -0.45954,-2.60223 -0.18677,-0.51033 -0.59647,-1.33532 -0.66312,-1.33532 -0.0342,0 -0.65639,0.33922 -0.89314,0.48694 -0.0153,0.01 0.11855,0.34032 0.29751,0.735 1.29047,2.84609 0.68316,5.22691 -2.26914,8.89555 -2.55875,3.17962 -4.7136,4.86506 -6.81877,5.33342 -1.03796,0.23092 -1.76884,0.1519 -2.64509,-0.28597 -0.65029,-0.32495 -1.23083,-0.91896 -1.48912,-1.52367 -0.15399,-0.36051 -0.16757,-1.04697 -0.0275,-1.38949 0.0556,-0.13602 0.59651,-1.76712 1.20196,-3.62467 l 1.10083,-3.37736 0.37005,-0.15461 c 0.70483,-0.2945 2.34342,-0.19333 3.27539,0.20223 0.47058,0.19973 0.51244,0.25027 0.61906,0.74746 0.34358,1.60205 -0.1543,3.58727 -1.19666,4.77145 -0.23443,0.26632 -0.71363,0.66161 -1.06489,0.87842 -0.35127,0.21681 -0.63866,0.43412 -0.63866,0.48291 0,0.20139 0.37213,0.84966 0.48773,0.84966 0.41571,0 2.01724,-1.33396 2.54475,-2.1196 1.19745,-1.7834 1.44237,-5.28188 0.43291,-6.18383 -0.65187,-0.58245 -2.5839,-1.05264 -3.69653,-0.89962 -0.29141,0.0401 -0.52251,0.029 -0.52251,-0.0251 0,-0.26094 1.4833,-3.05197 2.17015,-4.08345 1.04337,-1.56687 2.87945,-3.41412 4.34349,-4.36991 1.46563,-0.95683 2.35503,-1.33805 3.86752,-1.65772 2.13296,-0.4508 3.34406,-0.9639 4.50824,-1.90996 0.6264,-0.50905 1.1674,-0.7527 2.21657,-0.99832 1.11644,-0.26136 2.42841,-0.34446 3.75921,-0.23812 2.19044,0.17504 4.09465,0.73535 7.86978,2.31566 3.94503,1.65143 5.47846,2.24971 6.84781,2.67172 0.71058,0.21899 1.58265,0.53802 1.93794,0.70896 0.99793,0.48012 1.78612,0.63981 3.15796,0.63981 3.09958,0 7.02472,-1.03787 13.04538,-3.44941 6.54346,-2.62095 13.57045,-6.01146 24.76259,-11.94791 9.99633,-5.30217 11.57315,-6.13407 11.62817,-6.13472 0.0604,-7.2e-4 0.0101,55.32285 -0.0505,55.51006 -0.0241,0.0745 -0.66521,0.14516 -1.74363,0.1921 -0.93802,0.0408 -3.83722,0.21653 -6.44268,0.39046 -10.35278,0.69107 -15.05823,0.6909 -19.75624,-6.9e-4 -2.20545,-0.32467 -4.95547,-0.99102 -6.65131,-1.61167 -0.49023,-0.17941 -0.9686,-0.3262 -1.06304,-0.3262 -0.0944,0 -0.62298,0.43141 -1.17454,0.9587 -1.08995,1.04201 -2.72453,2.19127 -3.82181,2.6871 -0.71519,0.32318 -2.37115,0.87606 -2.62392,0.87606 -0.0786,0 -0.57272,-0.36926 -1.09799,-0.82058 l 0,0 z"
         id="path7908" />
      <path
         style="fill:#ffba8d;fill-opacity:1;stroke:#000000;stroke-width:0.05383172;stroke-miterlimit:4;stroke-opacity:1;stroke-dasharray:none;stroke-dashoffset:0"
         d="m 818.18494,461.239 c -1.46164,-0.33405 -2.58541,-1.51107 -3.0366,-3.18047 -0.15051,-0.55691 -0.20473,-1.78643 -0.10788,-2.44644 0.0676,-0.46102 0.29679,-1.34176 0.36789,-1.41405 0.0208,-0.0211 0.29182,0.12111 0.60229,0.3161 0.31046,0.19499 1.64175,1.00838 2.95842,1.80754 1.31667,0.79916 2.7765,1.69482 3.24406,1.99036 l 0.85011,0.53735 -0.21196,0.25055 c -0.33107,0.39133 -0.91067,0.93579 -1.32364,1.24339 -0.44971,0.33498 -1.22132,0.72356 -1.66878,0.84039 -0.4589,0.11983 -1.27375,0.14674 -1.67391,0.0553 l 0,0 z"
         id="path7910" />
      <path
         style="fill:#ffba8d;fill-opacity:1;stroke:#000000;stroke-width:0.03806477;stroke-miterlimit:4;stroke-opacity:1;stroke-dasharray:none;stroke-dashoffset:0"
         d="m 834.3437,462.43454 c 0,-0.36006 -0.10625,-1.06699 -0.21715,-1.44477 -0.0162,-0.0553 0.0337,-0.0288 0.18307,0.0972 0.33337,0.28111 0.64146,0.50492 0.98017,0.71203 l 0.31802,0.19445 -0.30202,0.15185 c -0.27954,0.14054 -0.53036,0.28082 -0.83838,0.46885 l -0.12371,0.0755 0,-0.25515 z"
         id="path7912" />
      <path
         style="fill:#ffba8d;fill-opacity:1;stroke:#000000;stroke-width:0.03806477;stroke-miterlimit:4;stroke-opacity:1;stroke-dasharray:none;stroke-dashoffset:0"
         d="m 825.17009,469.59264 c -1.50455,-0.25769 -2.76493,-1.10022 -3.44564,-2.30332 -0.65276,-1.15371 -0.73994,-2.59565 -0.25316,-4.18712 0.14903,-0.48722 0.30418,-0.86472 0.60692,-1.4767 l 0.25394,-0.51331 0.68915,-0.68936 c 0.60888,-0.60906 1.27331,-1.39447 1.27331,-1.50515 0,-0.052 0.2955,-0.22179 0.87548,-0.503 1.80628,-0.87579 3.3017,-1.12981 4.66022,-0.7916 0.16898,0.0421 0.51279,0.17787 0.76401,0.30179 0.90034,0.4441 1.57861,1.14486 2.08604,2.15523 0.60845,1.21149 0.80781,2.71982 0.45479,3.44081 -0.0564,0.11515 -0.0987,0.22738 -0.0941,0.24941 0.005,0.022 -0.98081,1.1247 -2.18981,2.45039 -1.209,1.3257 -2.21666,2.44388 -2.23925,2.48486 -0.049,0.0889 -0.45376,0.37814 -0.71988,0.51445 -0.29346,0.15032 -0.76887,0.30383 -1.14418,0.36948 -0.40637,0.0711 -1.1722,0.0726 -1.5778,0.003 l 0,0 z m 4.36351,-3.50214 c 0.70737,-0.13534 1.46946,-0.66529 2.16234,-1.50368 0.22424,-0.27132 0.97291,-1.33855 0.97291,-1.38688 0,-0.0518 -0.73481,-1.12906 -0.96241,-1.41098 -0.28543,-0.35354 -0.92842,-0.98291 -1.28383,-1.25662 -0.37553,-0.2892 -0.97799,-0.63774 -1.43475,-0.83003 -0.49063,-0.20655 -1.3064,-0.45925 -1.34732,-0.41736 -0.0308,0.0316 -0.2741,0.9662 -0.2549,0.97928 0.006,0.004 0.15388,0.045 0.32821,0.0906 1.0158,0.26572 1.9112,0.78006 2.66881,1.53303 0.37726,0.37496 0.79743,0.88564 0.95414,1.15966 l 0.0884,0.15464 -0.1609,0.23693 c -0.76259,1.12296 -1.68099,1.76845 -2.34223,1.64621 -0.54065,-0.0999 -1.09784,-0.59667 -1.44519,-1.28839 -0.0552,-0.10991 -0.11038,-0.19984 -0.12265,-0.19984 -0.0192,0 -0.89445,0.37888 -0.91746,0.39718 -0.0248,0.0197 0.2391,0.51346 0.41219,0.77105 0.48533,0.72228 1.19209,1.22634 1.88089,1.34147 0.2943,0.0492 0.48153,0.0454 0.80371,-0.0162 l 0,0 z"
         id="path7914" />
      <path
         style="fill:#ffba8d;fill-opacity:1;stroke:#000000;stroke-width:0.03806477;stroke-miterlimit:4;stroke-opacity:1;stroke-dasharray:none;stroke-dashoffset:0"
         d="m 833.46723,473.97069 c -1.29529,-0.21834 -2.44625,-0.99219 -3.17872,-2.13722 -0.34621,-0.54122 -0.6521,-1.29039 -0.76253,-1.8676 -0.0824,-0.43038 -0.073,-0.59046 0.0407,-0.69729 0.0524,-0.0492 0.091,-0.10951 0.0856,-0.13394 -0.005,-0.0244 1.04236,-1.19903 2.32813,-2.61021 2.10759,-2.31314 2.36995,-2.58759 2.66454,-2.78735 1.53512,-1.04097 3.05975,-1.47258 4.18028,-1.18341 1.3329,0.34397 2.20205,1.63801 2.44865,3.64566 0.0463,0.37684 0.0284,2.05496 -0.0243,2.27753 -0.0205,0.0865 -0.0634,0.11533 -0.27311,0.18306 -1.22036,0.39426 -2.44414,1.61601 -3.66348,3.65742 -0.21997,0.36829 -0.47703,0.82431 -0.57125,1.0134 -0.11124,0.22327 -0.19797,0.35091 -0.24742,0.36411 -0.53602,0.14308 -0.90423,0.22514 -1.22733,0.27354 -0.46632,0.0698 -1.39211,0.071 -1.7998,0.002 l 0,0 z m 3.21998,-3.67619 c 0.77671,-0.13757 1.53933,-0.5521 2.61949,-1.42383 l 0.37527,-0.30285 -0.0254,-0.32522 c -0.13296,-1.69909 -1.27576,-3.0996 -3.39758,-4.16374 l -0.41645,-0.20885 -0.21649,0.4349 c -0.11906,0.2392 -0.21648,0.4517 -0.21648,0.47221 0,0.0205 0.17418,0.12471 0.38708,0.23154 0.79341,0.39816 1.38768,0.82073 1.88699,1.34181 0.46916,0.48961 0.74585,0.96561 0.86836,1.49386 0.0571,0.24609 0.0567,0.24984 -0.0293,0.32419 -0.24597,0.21265 -0.90212,0.65345 -1.19792,0.80477 -0.47645,0.24373 -0.70053,0.30908 -1.05878,0.30876 -0.49661,-4.5e-4 -0.72563,-0.13236 -1.51206,-0.87082 l -0.50538,-0.47455 -0.35022,0.371 c -0.19263,0.20405 -0.34679,0.37996 -0.34258,0.3909 0.022,0.0574 0.95896,0.9149 1.18973,1.0889 0.59657,0.44982 1.27077,0.62586 1.94174,0.50702 l 0,0 z"
         id="path7916" />
      <path
         style="fill:#ffba8d;fill-opacity:1;stroke:#000000;stroke-width:0.03806477;stroke-miterlimit:4;stroke-opacity:1;stroke-dasharray:none;stroke-dashoffset:0"
         d="m 840.84697,478.36733 c -1.72322,-0.21924 -2.72452,-1.31802 -3.07849,-3.3782 -0.0403,-0.23486 -0.0846,-0.58632 -0.0983,-0.78103 -0.0243,-0.34515 -0.0218,-0.36002 0.0964,-0.59421 0.1735,-0.34372 0.58106,-1.02535 0.89109,-1.49034 0.89779,-1.34653 1.86942,-2.25013 2.68275,-2.49491 0.66404,-0.19984 1.24939,-0.0332 1.79494,0.51092 0.44771,0.44657 0.76084,0.98152 0.98389,1.68085 0.15273,0.47886 0.21222,0.81585 0.34921,1.97799 0.0629,0.53386 0.14055,1.11803 0.17251,1.29816 0.17642,0.99446 0.50824,1.66274 1.00071,2.01538 l 0.20768,0.14872 -0.18586,0.0809 c -1.01199,0.44052 -2.31441,0.83482 -3.19264,0.96655 -0.47837,0.0718 -1.29214,0.10142 -1.62391,0.0592 l 0,0 z m 2.07788,-2.74518 c 0.11006,-0.0277 0.21491,-0.0938 0.31692,-0.19984 l 0.15244,-0.15842 0.0901,-0.76129 c 0.11675,-0.98653 0.12708,-2.1865 0.0221,-2.56938 -0.16442,-0.59979 -0.46602,-1.01759 -0.87661,-1.21438 -0.12948,-0.062 -0.28876,-0.12338 -0.35395,-0.13627 l -0.11853,-0.0234 -0.1202,0.47999 c -0.0661,0.264 -0.11026,0.49609 -0.0981,0.51576 0.0122,0.0197 0.0574,0.0358 0.10046,0.0358 0.0431,0 0.14336,0.065 0.22281,0.14445 0.22489,0.22488 0.2841,0.47234 0.28423,1.18782 1.1e-4,0.56767 -0.0827,1.62464 -0.12951,1.65359 -0.0449,0.0278 -0.83147,-0.31497 -1.25974,-0.54895 -0.53579,-0.29273 -0.98725,-0.58267 -1.38937,-0.89228 -0.16748,-0.12895 -0.32472,-0.24688 -0.34941,-0.26207 -0.0285,-0.0175 -0.15681,0.11451 -0.3521,0.36249 -0.16897,0.21455 -0.3072,0.40096 -0.3072,0.41423 0,0.0391 0.67272,0.53904 1.08484,0.80626 0.5246,0.34016 1.31299,0.75886 1.77682,0.94365 0.63227,0.25189 0.96276,0.30824 1.30397,0.22232 l 0,0 z"
         id="path7918" />
      <path
         style="fill:#ffba8d;fill-opacity:1;stroke:#000000;stroke-width:0.02691586;stroke-miterlimit:4;stroke-opacity:1;stroke-dasharray:none;stroke-dashoffset:0"
         d="m 854.37328,478.01666 c -0.52385,-0.0437 -1.16944,-0.18796 -1.8572,-0.41491 -0.9088,-0.29989 -1.63494,-0.61734 -3.51252,-1.53559 -1.38171,-0.67574 -2.01415,-0.95777 -2.43588,-1.08623 -0.30962,-0.0943 -0.66875,-0.15143 -0.82253,-0.1308 -0.0583,0.008 -0.10607,0.009 -0.10607,0.003 0,-0.006 -0.0176,-0.12909 -0.0391,-0.27332 -0.0215,-0.14424 -0.0644,-0.49844 -0.0953,-0.78712 -0.10631,-0.99229 -0.19103,-1.54212 -0.29859,-1.93794 -0.28122,-1.03487 -0.6945,-1.80035 -1.30262,-2.41273 -0.44648,-0.44961 -0.88233,-0.71167 -1.40663,-0.84576 -0.11243,-0.0288 -0.20786,-0.0557 -0.21207,-0.06 -0.004,-0.004 0.004,-0.11016 0.0178,-0.23545 0.0457,-0.40788 0.0614,-1.4158 0.0285,-1.82928 -0.032,-0.40292 -0.0883,-0.83047 -0.14778,-1.12374 -0.0188,-0.0925 -0.025,-0.16822 -0.0139,-0.16822 0.0111,0 0.12713,0.0376 0.25784,0.0835 0.71443,0.25111 1.57972,0.82603 2.63317,1.74953 0.5096,0.44675 2.19315,2.13439 3.36697,3.37516 1.75106,1.85094 3.26708,3.35707 4.22369,4.19614 1.35169,1.18559 2.61004,2.08898 3.73443,2.68101 l 0.29427,0.15494 -0.17511,0.12495 c -0.38382,0.27389 -0.85671,0.42779 -1.45466,0.47341 -0.19454,0.0148 -0.37188,0.0253 -0.39409,0.0232 -0.0222,-0.002 -0.14938,-0.0129 -0.28261,-0.024 l 0,0 z"
         id="path7920" />
      <path
         style="fill:#ffba8d;fill-opacity:1;stroke:#000000;stroke-width:0.02691586;stroke-miterlimit:4;stroke-opacity:1;stroke-dasharray:none;stroke-dashoffset:0"
         d="m 846.64223,476.45654 c -0.15574,-0.0328 -0.32679,-0.11179 -0.42904,-0.19822 -0.0863,-0.073 -0.25112,-0.30118 -0.25112,-0.34773 0,-0.0658 0.36231,0.0497 0.97873,0.31183 0.42495,0.18073 0.4481,0.19422 0.36337,0.21181 -0.16321,0.0339 -0.54574,0.0467 -0.66194,0.0223 l 0,0 z"
         id="path7922" />
    </g>
  </g>
</svg>
