<?xml version="1.0" encoding="UTF-8" standalone="no"?>
<!-- Created with Inkscape (http://www.inkscape.org/) -->
<svg
   xmlns:dc="http://purl.org/dc/elements/1.1/"
   xmlns:cc="http://creativecommons.org/ns#"
   xmlns:rdf="http://www.w3.org/1999/02/22-rdf-syntax-ns#"
   xmlns:svg="http://www.w3.org/2000/svg"
   xmlns="http://www.w3.org/2000/svg"
   xmlns:sodipodi="http://sodipodi.sourceforge.net/DTD/sodipodi-0.dtd"
   xmlns:inkscape="http://www.inkscape.org/namespaces/inkscape"
   width="750"
   height="500"
   id="svg2822"
   version="1.1"
   inkscape:version="0.46"
   sodipodi:docname="Flag_of_La Unión_(Sucre).svg"
   sodipodi:version="0.32"
   inkscape:output_extension="org.inkscape.output.svg.inkscape">
  <defs
     id="defs2824" />
  <sodipodi:namedview
     id="base"
     pagecolor="#ffffff"
     bordercolor="#666666"
     borderopacity="1.0"
     inkscape:pageopacity="0.0"
     inkscape:pageshadow="2"
     inkscape:zoom="1.014"
     inkscape:cx="375"
     inkscape:cy="250"
     inkscape:document-units="px"
     inkscape:current-layer="layer1"
     showgrid="false"
     inkscape:window-width="1024"
     inkscape:window-height="712"
     inkscape:window-x="-4"
     inkscape:window-y="-4"
     inkscape:window-maximized="1" />
  <metadata
     id="metadata2827">
    <rdf:RDF>
      <cc:Work
         rdf:about="">
        <dc:format>image/svg+xml</dc:format>
        <dc:type
           rdf:resource="http://purl.org/dc/dcmitype/StillImage" />
        <dc:title />
      </cc:Work>
    </rdf:RDF>
  </metadata>
  <g
     inkscape:label="Capa 1"
     inkscape:groupmode="layer"
     id="layer1"
     transform="translate(0,-552.36218)">
    <rect
       style="fill:#fcdd09;fill-opacity:1;stroke:none"
       id="rect2834"
       width="750"
       height="501.72583"
       x="0"
       y="-1053.8414"
       transform="scale(1,-1)" />
    <rect
       transform="scale(1,-1)"
       y="-803.84833"
       x="28.139917"
       height="223.9209"
       width="693.98474"
       id="rect3168"
       style="fill:#ffffff;fill-opacity:1;stroke:none" />
    <rect
       style="fill:#078930;fill-opacity:1;stroke:none"
       id="rect2832"
       width="693.98474"
       height="221.91026"
       x="28.139917"
       y="-1026.2158"
       transform="scale(1,-1)" />
    <g
       inkscape:groupmode="layer"
       inkscape:label="Calque 1"
       id="layer1-4"
       transform="matrix(1.960451,0,0,1.960451,194.63835,621.01125)">
      <g
         transform="matrix(0.754398,0,0,0.754398,-21.1595,-18.7689)"
         style="display:inline"
         id="g2129" />
    </g>
    <path
       id="path2393"
       style="fill:#fcdd09;fill-rule:evenodd;stroke:none;stroke-width:0.86298573000000001px;stroke-linecap:butt;stroke-linejoin:miter;stroke-opacity:1;fill-opacity:1"
       d="M 27.544905,579.90708 L 27.544905,1025.8035 L 278.55165,817.39162 L 724.12848,816.66198 L 724.1837,789.04857 L 278.21123,789.64823 L 27.544905,579.90708 z"
       sodipodi:nodetypes="ccccccc" />
    <path
       style="fill:none;fill-rule:evenodd;stroke:#000000;stroke-width:1;stroke-linecap:butt;stroke-linejoin:miter;stroke-opacity:1;stroke-miterlimit:4;stroke-dasharray:none"
       d="M 56.360975,604.15431 L 56.360975,1001.5988"
       id="path3170"
       sodipodi:nodetypes="cc" />
    <path
       id="path3172"
       d="M 28.597492,580.95968 L 28.597492,1026.7233"
       style="fill:none;fill-rule:evenodd;stroke:#000000;stroke-width:1;stroke-linecap:butt;stroke-linejoin:miter;stroke-opacity:1;stroke-miterlimit:4;stroke-dasharray:none" />
    <path
       id="path3174"
       d="M 84.124458,627.32544 L 84.124458,978.83217"
       style="fill:none;fill-rule:evenodd;stroke:#000000;stroke-width:1;stroke-linecap:butt;stroke-linejoin:miter;stroke-opacity:1;stroke-miterlimit:4;stroke-dasharray:none"
       sodipodi:nodetypes="cc" />
    <path
       id="path3178"
       d="M 111.88794,650.49657 L 111.88794,955.45023"
       style="fill:none;fill-rule:evenodd;stroke:#000000;stroke-width:1;stroke-linecap:butt;stroke-linejoin:miter;stroke-opacity:1;stroke-miterlimit:4;stroke-dasharray:none"
       sodipodi:nodetypes="cc" />
    <path
       style="fill:none;fill-rule:evenodd;stroke:#000000;stroke-width:1;stroke-linecap:butt;stroke-linejoin:miter;stroke-opacity:1;stroke-miterlimit:4;stroke-dasharray:none"
       d="M 139.65143,673.66771 L 139.65143,932.37595"
       id="path3182"
       sodipodi:nodetypes="cc" />
    <path
       id="path3184"
       d="M 167.41491,696.69926 L 167.41491,909.30166"
       style="fill:none;fill-rule:evenodd;stroke:#000000;stroke-width:1;stroke-linecap:butt;stroke-linejoin:miter;stroke-opacity:1;stroke-miterlimit:4;stroke-dasharray:none"
       sodipodi:nodetypes="cc" />
    <path
       style="fill:none;fill-rule:evenodd;stroke:#000000;stroke-width:1;stroke-linecap:butt;stroke-linejoin:miter;stroke-opacity:1;stroke-miterlimit:4;stroke-dasharray:none"
       d="M 195.17839,720.14956 L 195.17839,886.84271"
       id="path3188"
       sodipodi:nodetypes="cc" />
    <path
       style="fill:none;fill-rule:evenodd;stroke:#000000;stroke-width:1;stroke-linecap:butt;stroke-linejoin:miter;stroke-opacity:1;stroke-miterlimit:4;stroke-dasharray:none"
       d="M 222.94188,743.78164 L 222.94188,863.33901"
       id="path3190"
       sodipodi:nodetypes="cc" />
    <path
       id="path3192"
       d="M 250.70536,766.39067 L 250.70536,840.61573"
       style="fill:none;fill-rule:evenodd;stroke:#000000;stroke-width:1;stroke-linecap:butt;stroke-linejoin:miter;stroke-opacity:1;stroke-miterlimit:4;stroke-dasharray:none"
       sodipodi:nodetypes="cc" />
    <path
       id="path3194"
       d="M 278.46884,789.54267 L 278.46884,817.66375"
       style="fill:none;fill-rule:evenodd;stroke:#000000;stroke-width:1;stroke-linecap:butt;stroke-linejoin:miter;stroke-opacity:1;stroke-miterlimit:4;stroke-dasharray:none"
       sodipodi:nodetypes="cc" />
    <path
       style="font-size:120px;font-style:normal;font-variant:normal;font-weight:bold;font-stretch:normal;text-align:start;line-height:100%;writing-mode:lr-tb;text-anchor:start;fill:#000000;fill-opacity:1;stroke:none;stroke-width:1px;stroke-linecap:butt;stroke-linejoin:miter;stroke-opacity:1;font-family:Times New Roman;-inkscape-font-specification:Times New Roman Bold"
       d="M 492.92148,789.75751 L 489.9332,817.64813 L 419.38632,817.64813 L 419.38632,815.48016 L 422.02304,815.48016 C 424.32772,815.48017 426.18319,815.07001 427.58945,814.24969 C 428.60506,813.70282 429.38631,812.76532 429.9332,811.43719 C 430.36287,810.4997 430.57771,808.03877 430.57773,804.05438 L 430.57773,751.78876 C 430.57771,747.72633 430.36287,745.18727 429.9332,744.17157 C 429.5035,743.15602 428.63436,742.26735 427.32578,741.50555 C 426.01717,740.74391 424.2496,740.36305 422.02304,740.36298 L 419.38632,740.36298 L 419.38632,738.19501 L 461.7496,738.19501 L 461.7496,740.36298 L 458.29257,740.36298 C 455.98785,740.36305 454.13238,740.77321 452.72617,741.59344 C 451.71051,742.1404 450.90973,743.07789 450.32382,744.40594 C 449.8941,745.34352 449.67926,747.80445 449.67929,751.78876 L 449.67929,802.41376 C 449.67926,806.47627 449.91363,809.06416 450.38242,810.17743 C 450.85113,811.29072 451.7691,812.12079 453.13632,812.66766 C 454.11285,813.01923 456.47613,813.19501 460.22617,813.19501 L 466.84726,813.19501 C 471.06596,813.19501 474.58158,812.45283 477.39413,810.96844 C 480.20657,809.48408 482.63821,807.14033 484.68906,803.93719 C 486.73977,800.73409 488.68313,796.00753 490.51913,789.75751 L 492.92148,789.75751 z"
       id="text3234" />
    <path
       style="font-size:120px;font-style:normal;font-variant:normal;font-weight:bold;font-stretch:normal;text-align:start;line-height:100%;writing-mode:lr-tb;text-anchor:start;fill:#000000;fill-opacity:1;stroke:none;stroke-width:1px;stroke-linecap:butt;stroke-linejoin:miter;stroke-opacity:1;font-family:Times New Roman;-inkscape-font-specification:Times New Roman Bold"
       d="M 470.2681,789.47711 L 511.28372,789.47711 L 511.28372,791.64508 L 509.23294,791.64508 C 506.14696,791.64516 504.02783,791.96742 502.87552,792.61188 C 501.72314,793.25648 500.90283,794.14516 500.41458,795.27789 C 499.92627,796.41078 499.68213,799.24281 499.68216,803.77399 L 499.68216,842.68024 C 499.68213,849.78963 500.21924,854.49666 501.29349,856.80133 C 502.36767,859.10603 504.13525,861.02009 506.59622,862.54352 C 509.05712,864.06696 512.16258,864.82868 515.91263,864.82867 C 520.20945,864.82868 523.87156,863.86188 526.89896,861.92828 C 529.92624,859.9947 532.19186,857.32869 533.69583,853.93024 C 535.19967,850.53182 535.95162,844.61385 535.95169,836.17633 L 535.95169,803.77399 C 535.95162,800.21937 535.58053,797.68031 534.83841,796.1568 C 534.09616,794.63344 533.15866,793.57875 532.02591,792.99274 C 530.26803,792.09438 527.78757,791.64516 524.5845,791.64508 L 524.5845,789.47711 L 552.06497,789.47711 L 552.06497,791.64508 L 550.42435,791.64508 C 548.1977,791.64516 546.34224,792.09438 544.85794,792.99274 C 543.37349,793.89125 542.29927,795.2389 541.63528,797.03571 C 541.1274,798.28578 540.87349,800.53187 540.87357,803.77399 L 540.87357,833.94977 C 540.87349,843.28573 540.25826,850.02401 539.02786,854.16461 C 537.79732,858.30525 534.79928,862.11384 530.03372,865.59039 C 525.26804,869.06696 518.76414,870.80523 510.522,870.80524 C 503.64697,870.80523 498.33447,869.88727 494.5845,868.05133 C 489.46729,865.55133 485.85402,862.34821 483.74466,858.44196 C 481.63527,854.53572 480.58058,849.28182 480.5806,842.68024 L 480.5806,803.77399 C 480.58058,799.20374 480.32668,796.36195 479.81888,795.2486 C 479.31105,794.13539 478.43215,793.24672 477.18216,792.58258 C 475.93215,791.9186 473.62747,791.6061 470.2681,791.64508 L 470.2681,789.47711 z"
       id="text3238" />
  </g>
</svg>
