<?xml version="1.0" encoding="UTF-8" standalone="no"?>
<svg
   xmlns:dc="http://purl.org/dc/elements/1.1/"
   xmlns:cc="http://creativecommons.org/ns#"
   xmlns:rdf="http://www.w3.org/1999/02/22-rdf-syntax-ns#"
   xmlns:svg="http://www.w3.org/2000/svg"
   xmlns="http://www.w3.org/2000/svg"
   xmlns:sodipodi="http://sodipodi.sourceforge.net/DTD/sodipodi-0.dtd"
   xmlns:inkscape="http://www.inkscape.org/namespaces/inkscape"
   width="750"
   height="500"
   id="svg2"
   sodipodi:version="0.32"
   inkscape:version="0.46"
   sodipodi:docname="Flag_of_Leiva_(Nariño).svg"
   inkscape:output_extension="org.inkscape.output.svg.inkscape">
  <metadata
     id="metadata13">
    <rdf:RDF>
      <cc:Work
         rdf:about="">
        <dc:format>image/svg+xml</dc:format>
        <dc:type
           rdf:resource="http://purl.org/dc/dcmitype/StillImage" />
      </cc:Work>
    </rdf:RDF>
  </metadata>
  <defs
     id="defs11" />
  <sodipodi:namedview
     inkscape:window-height="712"
     inkscape:window-width="1024"
     inkscape:pageshadow="2"
     inkscape:pageopacity="0.0"
     guidetolerance="10.0"
     gridtolerance="10.0"
     objecttolerance="10.0"
     borderopacity="1.0"
     bordercolor="#666666"
     pagecolor="#ffffff"
     id="base"
     showgrid="false"
     inkscape:zoom="1.014"
     inkscape:cx="375"
     inkscape:cy="250"
     inkscape:window-x="-4"
     inkscape:window-y="-4"
     inkscape:current-layer="svg2" />
  <rect
     width="750"
     height="500"
     id="rect4"
     x="0"
     y="-498.62231"
     style="fill:#89c5e3;fill-opacity:1"
     transform="scale(1,-1)" />
  <rect
     width="750"
     height="168.04468"
     y="-500"
     id="rect6"
     x="0"
     style="fill:#07892f;fill-opacity:1"
     transform="scale(1,-1)" />
  <rect
     width="750"
     height="166.666"
     y="165.2903"
     id="rect8"
     x="0"
     style="fill:#da121a" />
  <g
     transform="matrix(-3.4302815e-3,-0.4516172,-0.4516172,3.4302815e-3,476.67922,452.76582)"
     id="g9597"
     style="fill:#e9af96;fill-opacity:1;stroke:#000000;stroke-width:1.54994059;stroke-miterlimit:4;stroke-dasharray:none;stroke-opacity:1">
    <g
       style="fill:#e9af96;fill-opacity:1;stroke:#000000;stroke-width:1.54994059;stroke-miterlimit:4;stroke-dasharray:none;stroke-opacity:1"
       id="g10725">
      <g
         transform="matrix(1.21977,0,0,1.21977,-43.00327,-4.454413)"
         id="g3657"
         style="fill:#e9af96;fill-opacity:1;stroke:#000000;stroke-width:1.27068257;stroke-miterlimit:4;stroke-dasharray:none;stroke-opacity:1">
        <path
           id="path8616"
           style="fill:#e9af96;fill-opacity:1;fill-rule:evenodd;stroke:#000000;stroke-width:1.27068257;stroke-linecap:butt;stroke-linejoin:miter;stroke-miterlimit:4;stroke-dasharray:none;stroke-opacity:1"
           d="M 141.18973,133.9751 C 140.14219,130.61872 136.93903,117.52419 136.07955,115.15262 C 133.8969,109.13008 115.73106,99.891253 110.64393,101.58696 C 105.5568,103.28267 112.33964,118.54404 112.33964,125.32688 C 112.33964,132.10971 103.8611,150.76249 103.8611,159.24104 C 103.8611,167.71958 105.76122,210.04415 105.76122,221.91411 C 105.76122,233.78406 121.0226,242.73177 124.41401,252.90603 C 127.80543,263.08027 137.77526,269.79497 139.47097,283.36063 C 143.00055,300.05543 141.60672,300.72833 138.22918,320.08695 C 139.13798,324.0854 211.62347,336.68055 243.05944,318.29695 C 239.67627,303.68333 239.37313,295.74567 242.02945,276.1013 C 251.48295,257.48135 256.41802,241.75486 261.2142,228.56534 C 266.01039,215.37583 267.4863,172.29196 267.4863,161.50054 C 267.4863,153.9383 268.24339,133.21938 268.23556,115.37228 C 267.77809,101.27194 286.90498,80.27702 269.0755,70.702244 C 235.77663,75.835315 247.34928,119.9384 243.37397,148.36817 C 245.17362,134.90412 243.82711,125.79112 244.22182,111.59152 C 243.52435,101.09116 243.97028,97.030325 243.66222,92.616029 C 240.60765,62.399991 309.97491,27.584029 285.48278,12.866868 C 255.1351,11.818024 210.39944,52.695412 211.45375,97.947953 C 210.83727,111.86398 210.95452,117.98722 210.85423,130.92174 C 210.47975,117.53065 211.84283,106.20156 210.50304,91.661782 C 216.51161,43.53545 268.04078,8.8451174 248.85466,0.35040045 C 202.26938,2.5059348 183.12136,42.255032 178.23164,94.659397 C 178.23164,94.659397 178.30397,112.15065 179.67903,129.74766 C 178.28827,111.61448 179.00859,106.20828 178.44874,94.133321 C 175.51116,68.153307 198.80964,27.883717 185.00286,18.57199 C 172.45931,6.4576778 150.50447,41.137043 149.26797,69.28606 C 144.65569,85.244104 145.58576,112.98598 141.18973,133.9751 z"
           sodipodi:nodetypes="cssssssccccsscccccccccccccccc" />
        <path
           style="fill:#e9af96;fill-opacity:1;fill-rule:evenodd;stroke:#000000;stroke-width:1.27068257;stroke-linecap:butt;stroke-linejoin:miter;stroke-miterlimit:4;stroke-dasharray:none;stroke-opacity:1"
           d="M 206.69676,277.36208 C 206.69676,277.36208 222.17394,279.2142 232.23147,275.12288"
           id="path8618" />
        <path
           style="fill:#e9af96;fill-opacity:1;fill-rule:evenodd;stroke:#000000;stroke-width:1.27068257;stroke-linecap:butt;stroke-linejoin:miter;stroke-miterlimit:4;stroke-dasharray:none;stroke-opacity:1"
           d="M 146.59567,279.8112 C 157.33225,282.44399 176.617,278.06719 181.59502,269.78043"
           id="path8620" />
        <path
           style="fill:#e9af96;fill-opacity:1;fill-rule:evenodd;stroke:#000000;stroke-width:1.27068257;stroke-linecap:butt;stroke-linejoin:miter;stroke-miterlimit:4;stroke-dasharray:none;stroke-opacity:1"
           d="M 148.61704,135.25165 C 158.59488,131.50996 164.83102,130.26274 172.3144,131.50996"
           id="path8644" />
        <path
           style="fill:#e9af96;fill-opacity:1;fill-rule:evenodd;stroke:#000000;stroke-width:1.27068257;stroke-linecap:butt;stroke-linejoin:miter;stroke-miterlimit:4;stroke-dasharray:none;stroke-opacity:1"
           d="M 186.03391,133.79415 C 193.5173,132.54693 196.01175,132.54693 202.2479,133.79415"
           id="path8646" />
        <path
           style="fill:#e9af96;fill-opacity:1;fill-rule:evenodd;stroke:#000000;stroke-width:1.27068257;stroke-linecap:butt;stroke-linejoin:miter;stroke-miterlimit:4;stroke-dasharray:none;stroke-opacity:1"
           d="M 217.21466,136.28861 C 225.94525,137.53583 230.93418,141.27752 235.9231,142.52476"
           id="path8648" />
        <path
           style="fill:#e9af96;fill-opacity:1;fill-rule:evenodd;stroke:#000000;stroke-width:1.27068257;stroke-linecap:butt;stroke-linejoin:miter;stroke-miterlimit:4;stroke-dasharray:none;stroke-opacity:1"
           d="M 248.39539,148.97118 C 254.63153,152.71287 257.12599,153.9601 263.36214,155.20732"
           id="path8650" />
        <path
           style="fill:#e9af96;fill-opacity:1;fill-rule:evenodd;stroke:#000000;stroke-width:1.27068257;stroke-linecap:butt;stroke-linejoin:miter;stroke-miterlimit:4;stroke-dasharray:none;stroke-opacity:1"
           d="M 141.37027,132.0235 C 144.3132,144.24373 137.85538,151.45031 137.85538,158.23315 C 137.85538,165.01597 142.9425,195.53872 142.9425,195.53872 L 141.2468,183.66877 C 141.2468,183.66877 164.98671,185.36448 173.46525,192.1473 C 181.94379,198.93014 192.11803,231.14859 188.72662,253.1928"
           id="path8681"
           sodipodi:nodetypes="csccsc" />
      </g>
    </g>
  </g>
  <path
     sodipodi:type="star"
     style="opacity:1;fill:#ffffff;fill-opacity:1;stroke:none;stroke-width:1;stroke-linejoin:round;stroke-miterlimit:4;stroke-dasharray:none;stroke-dashoffset:0;stroke-opacity:1"
     id="path3218"
     sodipodi:sides="5"
     sodipodi:cx="244.57594"
     sodipodi:cy="142.01183"
     sodipodi:r1="78.307724"
     sodipodi:r2="29.365395"
     sodipodi:arg1="0.93737044"
     sodipodi:arg2="1.565689"
     inkscape:flatsided="false"
     inkscape:rounded="3.469447e-18"
     inkscape:randomized="0"
     d="M 290.92703,205.1282 L 244.72592,171.37684 L 198.87198,205.59836 L 216.6945,151.22875 L 169.97825,118.19409 L 227.19429,118.34319 L 244.176,63.705123 L 261.71493,118.16688 L 318.92645,117.43335 L 272.55007,150.94348 L 290.92703,205.1282 z"
     transform="matrix(0.3383222,0,0,0.3383222,223.0463,201.50137)" />
  <path
     sodipodi:type="star"
     style="opacity:1;fill:#ffffff;fill-opacity:1;stroke:none;stroke-width:1;stroke-linejoin:round;stroke-miterlimit:4;stroke-dasharray:none;stroke-dashoffset:0;stroke-opacity:1"
     id="path3220"
     sodipodi:sides="5"
     sodipodi:cx="244.57594"
     sodipodi:cy="142.01183"
     sodipodi:r1="78.307724"
     sodipodi:r2="29.365395"
     sodipodi:arg1="0.93737044"
     sodipodi:arg2="1.565689"
     inkscape:flatsided="false"
     inkscape:rounded="3.469447e-18"
     inkscape:randomized="0"
     d="M 290.92703,205.1282 L 244.72592,171.37684 L 198.87198,205.59836 L 216.6945,151.22875 L 169.97825,118.19409 L 227.19429,118.34319 L 244.176,63.705123 L 261.71493,118.16688 L 318.92645,117.43335 L 272.55007,150.94348 L 290.92703,205.1282 z"
     transform="matrix(0.3383222,0,0,0.3383222,201.49805,140.53557)" />
  <path
     sodipodi:type="star"
     style="opacity:1;fill:#ffffff;fill-opacity:1;stroke:none;stroke-width:1;stroke-linejoin:round;stroke-miterlimit:4;stroke-dasharray:none;stroke-dashoffset:0;stroke-opacity:1"
     id="path3222"
     sodipodi:sides="5"
     sodipodi:cx="244.57594"
     sodipodi:cy="142.01183"
     sodipodi:r1="78.307724"
     sodipodi:r2="29.365395"
     sodipodi:arg1="0.93737044"
     sodipodi:arg2="1.565689"
     inkscape:flatsided="false"
     inkscape:rounded="3.469447e-18"
     inkscape:randomized="0"
     d="M 290.92703,205.1282 L 244.72592,171.37684 L 198.87198,205.59836 L 216.6945,151.22875 L 169.97825,118.19409 L 227.19429,118.34319 L 244.176,63.705123 L 261.71493,118.16688 L 318.92645,117.43335 L 272.55007,150.94348 L 290.92703,205.1282 z"
     transform="matrix(0.3383222,0,0,0.3383222,230.9298,87.453301)" />
  <path
     sodipodi:type="star"
     style="opacity:1;fill:#ffffff;fill-opacity:1;stroke:none;stroke-width:1;stroke-linejoin:round;stroke-miterlimit:4;stroke-dasharray:none;stroke-dashoffset:0;stroke-opacity:1"
     id="path3214"
     sodipodi:sides="5"
     sodipodi:cx="244.57594"
     sodipodi:cy="142.01183"
     sodipodi:r1="78.307724"
     sodipodi:r2="29.365395"
     sodipodi:arg1="0.93737044"
     sodipodi:arg2="1.565689"
     inkscape:flatsided="false"
     inkscape:rounded="3.469447e-18"
     inkscape:randomized="0"
     d="M 290.92703,205.1282 L 244.72592,171.37684 L 198.87198,205.59836 L 216.6945,151.22875 L 169.97825,118.19409 L 227.19429,118.34319 L 244.176,63.705123 L 261.71493,118.16688 L 318.92645,117.43335 L 272.55007,150.94348 L 290.92703,205.1282 z"
     transform="matrix(0.3383222,0,0,0.3383222,291.97962,63.136879)" />
  <path
     transform="matrix(-0.3383222,0,0,0.3383222,526.3467,201.50137)"
     d="M 290.92703,205.1282 L 244.72592,171.37684 L 198.87198,205.59836 L 216.6945,151.22875 L 169.97825,118.19409 L 227.19429,118.34319 L 244.176,63.705123 L 261.71493,118.16688 L 318.92645,117.43335 L 272.55007,150.94348 L 290.92703,205.1282 z"
     inkscape:randomized="0"
     inkscape:rounded="3.469447e-18"
     inkscape:flatsided="false"
     sodipodi:arg2="1.565689"
     sodipodi:arg1="0.93737044"
     sodipodi:r2="29.365395"
     sodipodi:r1="78.307724"
     sodipodi:cy="142.01183"
     sodipodi:cx="244.57594"
     sodipodi:sides="5"
     id="path3224"
     style="opacity:1;fill:#ffffff;fill-opacity:1;stroke:none;stroke-width:1;stroke-linejoin:round;stroke-miterlimit:4;stroke-dasharray:none;stroke-dashoffset:0;stroke-opacity:1"
     sodipodi:type="star" />
  <path
     transform="matrix(-0.3383222,0,0,0.3383222,547.89496,140.53557)"
     d="M 290.92703,205.1282 L 244.72592,171.37684 L 198.87198,205.59836 L 216.6945,151.22875 L 169.97825,118.19409 L 227.19429,118.34319 L 244.176,63.705123 L 261.71493,118.16688 L 318.92645,117.43335 L 272.55007,150.94348 L 290.92703,205.1282 z"
     inkscape:randomized="0"
     inkscape:rounded="3.469447e-18"
     inkscape:flatsided="false"
     sodipodi:arg2="1.565689"
     sodipodi:arg1="0.93737044"
     sodipodi:r2="29.365395"
     sodipodi:r1="78.307724"
     sodipodi:cy="142.01183"
     sodipodi:cx="244.57594"
     sodipodi:sides="5"
     id="path3226"
     style="opacity:1;fill:#ffffff;fill-opacity:1;stroke:none;stroke-width:1;stroke-linejoin:round;stroke-miterlimit:4;stroke-dasharray:none;stroke-dashoffset:0;stroke-opacity:1"
     sodipodi:type="star" />
  <path
     transform="matrix(-0.3383222,0,0,0.3383222,518.4632,87.453301)"
     d="M 290.92703,205.1282 L 244.72592,171.37684 L 198.87198,205.59836 L 216.6945,151.22875 L 169.97825,118.19409 L 227.19429,118.34319 L 244.176,63.705123 L 261.71493,118.16688 L 318.92645,117.43335 L 272.55007,150.94348 L 290.92703,205.1282 z"
     inkscape:randomized="0"
     inkscape:rounded="3.469447e-18"
     inkscape:flatsided="false"
     sodipodi:arg2="1.565689"
     sodipodi:arg1="0.93737044"
     sodipodi:r2="29.365395"
     sodipodi:r1="78.307724"
     sodipodi:cy="142.01183"
     sodipodi:cx="244.57594"
     sodipodi:sides="5"
     id="path3228"
     style="opacity:1;fill:#ffffff;fill-opacity:1;stroke:none;stroke-width:1;stroke-linejoin:round;stroke-miterlimit:4;stroke-dasharray:none;stroke-dashoffset:0;stroke-opacity:1"
     sodipodi:type="star" />
  <path
     transform="matrix(0.3383222,0,0,0.3383222,291.97962,238.82886)"
     d="M 290.92703,205.1282 L 244.72592,171.37684 L 198.87198,205.59836 L 216.6945,151.22875 L 169.97825,118.19409 L 227.19429,118.34319 L 244.176,63.705123 L 261.71493,118.16688 L 318.92645,117.43335 L 272.55007,150.94348 L 290.92703,205.1282 z"
     inkscape:randomized="0"
     inkscape:rounded="3.469447e-18"
     inkscape:flatsided="false"
     sodipodi:arg2="1.565689"
     sodipodi:arg1="0.93737044"
     sodipodi:r2="29.365395"
     sodipodi:r1="78.307724"
     sodipodi:cy="142.01183"
     sodipodi:cx="244.57594"
     sodipodi:sides="5"
     id="path3232"
     style="opacity:1;fill:#ffffff;fill-opacity:1;stroke:none;stroke-width:1;stroke-linejoin:round;stroke-miterlimit:4;stroke-dasharray:none;stroke-dashoffset:0;stroke-opacity:1"
     sodipodi:type="star" />
  <path
     style="font-size:30px;font-style:normal;font-variant:normal;font-weight:normal;font-stretch:normal;text-align:start;line-height:100%;writing-mode:lr-tb;text-anchor:start;fill:#000000;fill-opacity:1;stroke:none;stroke-width:1px;stroke-linecap:butt;stroke-linejoin:miter;stroke-opacity:1;font-family:Arial;-inkscape-font-specification:Arial"
     d="M 419.35237,327.6982 L 432.49978,322.63272 L 433.17012,324.37256 L 421.57419,328.84027 L 424.06893,335.31533 L 422.51743,335.9131 L 419.35237,327.6982 z"
     id="text3236" />
  <path
     style="font-size:30px;font-style:normal;font-variant:normal;font-weight:normal;font-stretch:normal;text-align:start;line-height:100%;writing-mode:lr-tb;text-anchor:start;fill:#000000;fill-opacity:1;stroke:none;stroke-width:1px;stroke-linecap:butt;stroke-linejoin:miter;stroke-opacity:1;font-family:Arial;-inkscape-font-specification:Arial"
     d="M 429.18915,343.09735 L 441.20311,335.73675 L 446.52524,344.42351 L 445.1075,345.29212 L 440.75942,338.1952 L 437.07983,340.44958 L 441.15176,347.09577 L 439.74221,347.95936 L 435.67028,341.31317 L 431.58094,343.81859 L 436.09972,351.19413 L 434.68198,352.06274 L 429.18915,343.09735 z"
     id="text3240" />
  <path
     style="font-size:30px;font-style:normal;font-variant:normal;font-weight:normal;font-stretch:normal;text-align:start;line-height:100%;writing-mode:lr-tb;text-anchor:start;fill:#000000;fill-opacity:1;stroke:none;stroke-width:1px;stroke-linecap:butt;stroke-linejoin:miter;stroke-opacity:1;font-family:Arial;-inkscape-font-specification:Arial"
     d="M 435.55094,362.3855 L 449.16973,358.77408 L 449.64764,360.57631 L 436.02885,364.18773 L 435.55094,362.3855 z"
     id="text3244" />
  <path
     style="font-size:30px;font-style:normal;font-variant:normal;font-weight:normal;font-stretch:normal;text-align:start;line-height:100%;writing-mode:lr-tb;text-anchor:start;fill:#000000;fill-opacity:1;stroke:none;stroke-width:1px;stroke-linecap:butt;stroke-linejoin:miter;stroke-opacity:1;font-family:Arial;-inkscape-font-specification:Arial"
     d="M 430.14957,380.30127 L 444.31959,375.0549 L 444.28922,377.07295 L 433.99975,380.58027 C 433.17527,380.86263 432.40279,381.09772 431.68227,381.28552 C 432.44777,381.51491 433.21274,381.77954 433.97719,382.07941 L 444.15433,386.03884 L 444.1257,387.94157 L 430.1208,382.21361 L 430.14957,380.30127 z"
     id="text3248" />
  <path
     style="font-size:30px;font-style:normal;font-variant:normal;font-weight:normal;font-stretch:normal;text-align:start;line-height:100%;writing-mode:lr-tb;text-anchor:start;fill:#000000;fill-opacity:1;stroke:none;stroke-width:1px;stroke-linecap:butt;stroke-linejoin:miter;stroke-opacity:1;font-family:Arial;-inkscape-font-specification:Arial"
     d="M 403.63481,396.79818 L 416.60087,404.52298 L 416.25979,406.50248 L 401.39572,409.79274 L 401.75639,407.6996 L 406.24072,406.80462 L 407.24113,400.99873 L 403.29862,398.74924 L 403.63481,396.79818 z M 408.64618,401.78697 L 407.83509,406.49419 L 411.93011,405.70768 C 413.17439,405.46694 414.19071,405.30399 414.9791,405.21879 C 414.11926,404.88856 413.27825,404.48684 412.45608,404.0136 L 408.64618,401.78697 z"
     id="text3252" />
</svg>
