<?xml version="1.0" encoding="UTF-8" standalone="no"?>
<!-- Creator: CorelDRAW -->
<svg
   xmlns:dc="http://purl.org/dc/elements/1.1/"
   xmlns:cc="http://creativecommons.org/ns#"
   xmlns:rdf="http://www.w3.org/1999/02/22-rdf-syntax-ns#"
   xmlns:svg="http://www.w3.org/2000/svg"
   xmlns="http://www.w3.org/2000/svg"
   xmlns:sodipodi="http://sodipodi.sourceforge.net/DTD/sodipodi-0.dtd"
   xmlns:inkscape="http://www.inkscape.org/namespaces/inkscape"
   xml:space="preserve"
   width="900"
   height="600"
   style="fill-rule:evenodd"
   viewBox="0 0 258.346 159.291"
   id="svg2"
   sodipodi:version="0.32"
   inkscape:version="0.46"
   sodipodi:docname="Flag_of_Cotorra_(Córdoba).svg"
   inkscape:output_extension="org.inkscape.output.svg.inkscape"
   version="1.0"><metadata
   id="metadata72"><rdf:RDF><cc:Work
       rdf:about=""><dc:format>image/svg+xml</dc:format><dc:type
         rdf:resource="http://purl.org/dc/dcmitype/StillImage" /></cc:Work></rdf:RDF></metadata><sodipodi:namedview
   inkscape:window-height="712"
   inkscape:window-width="1024"
   inkscape:pageshadow="2"
   inkscape:pageopacity="0.0"
   guidetolerance="10.0"
   gridtolerance="10.0"
   objecttolerance="10.0"
   borderopacity="1.0"
   bordercolor="#666666"
   pagecolor="#ffffff"
   id="base"
   showgrid="false"
   inkscape:zoom="0.845"
   inkscape:cx="450"
   inkscape:cy="300"
   inkscape:window-x="-4"
   inkscape:window-y="-4"
   inkscape:current-layer="svg2" />
 <defs
   id="defs4" />
 <rect
   style="fill:#fcdd09;fill-opacity:1"
   x="0"
   id="rect10"
   height="172.847"
   width="86.153503"
   y="-7.0335522"
   class="fil0" /><rect
   style="fill:#ffffff"
   id="rect12"
   height="172.50729"
   width="86.153503"
   y="-7.0335522"
   x="86.153503"
   class="fil1" /><rect
   style="fill:#89c5e3;fill-opacity:1"
   y="-7.7086544"
   id="rect14"
   height="173.52641"
   width="86.153503"
   x="172.192"
   class="fil2" /><ellipse
   style="fill:#89c5e3;fill-opacity:1;stroke:none;stroke-width:0.610937"
   sodipodi:ry="38.016499"
   sodipodi:rx="38.866299"
   sodipodi:cy="76.896599"
   sodipodi:cx="128.575"
   id="ellipse16"
   ry="38.016499"
   rx="38.866299"
   cy="76.896599"
   cx="128.575"
   class="fil2 str0"
   transform="translate(0.5929734,3.040352)" /><polygon
   style="fill:#fcdd09;fill-opacity:1;stroke:#000000;stroke-width:0.11807883;stroke-opacity:1;stroke-miterlimit:4;stroke-dasharray:none"
   id="polygon18"
   points="120.428,76.0053 133.709,75.6736 140,104.845 136.165,108.267 131.542,75.8298 120.428,76.0053 "
   class="fil3 str1"
   transform="matrix(1.2155062,0,0,1.2155062,-24.926772,-20.646877)" /><polygon
   style="fill:#fcdd09;fill-opacity:1;stroke:#000000;stroke-width:0.11807883;stroke-opacity:1;stroke-miterlimit:4;stroke-dasharray:none"
   id="polygon20"
   points="120.428,76.0053 131.542,75.8298 136.165,108.267 116.656,108.449 120.428,76.0053 "
   class="fil3 str1"
   transform="matrix(1.2155062,0,0,1.2155062,-24.926772,-20.646877)" /><g
   id="_251417720"
   transform="matrix(1.2155062,0,0,1.2155062,-24.926772,-20.646877)"
   style="fill:#fcdd09;fill-opacity:1;stroke:#000000;stroke-opacity:1;stroke-width:0.11807883;stroke-miterlimit:4;stroke-dasharray:none">
   <path
   sodipodi:nodetypes="cccc"
   id="path3302"
   class="fil3 str2"
   d="M 123.56725,59.158684 C 123.56725,59.158684 124.72444,59.857169 125.17058,59.403854 C 125.18205,59.403854 125.20717,60.060842 125.28478,60.183442 C 124.7752,59.995879 123.71506,59.978092 123.56725,59.158684 z"
   style="fill:#fcdd09;fill-opacity:1;stroke:#000000;stroke-width:0.11807883;stroke-miterlimit:4;stroke-dasharray:none;stroke-opacity:1" /><path
   style="fill:#fcdd09;fill-opacity:1;stroke:#000000;stroke-width:0.11807883;stroke-opacity:1;stroke-miterlimit:4;stroke-dasharray:none"
   d="M 129.404,74.2338 C 129.404,74.2338 129.55225,75.44753 129.73782,75.4485 C 129.93886,75.449559 130.91383,75.314746 131.14468,75.533624 C 131.55995,75.955659 131.87145,75.537452 131.93116,75.957614 L 132.08454,76.191725 L 131.86803,76.190584 C 131.86803,76.190584 131.48118,76.235142 131.37357,76.110185 C 131.25041,76.000705 131.06468,76.030845 131.06468,76.030845 C 131.06468,76.030845 130.72533,75.873549 130.60176,75.841781 C 130.49374,75.794535 130.33914,75.793721 130.33914,75.793721 C 130.33914,75.793721 130.64721,76.028646 130.75498,76.106928 C 130.86283,76.185209 131.45047,76.188386 131.09279,76.575231 C 130.75058,76.946599 130.08784,76.52326 130.01127,76.382908 C 129.93478,76.226997 129.73455,76.070434 129.58011,76.022944 C 129.42566,75.991093 129.28727,75.834857 129.28727,75.834857 C 129.28727,75.834857 129.31741,75.990524 129.28588,76.099189 C 129.23888,76.223331 129.20597,76.596328 128.78899,76.485301 C 128.372,76.374273 128.17259,76.077766 128.37412,75.985555 C 128.94791,75.677562 129.13527,75.336415 128.83086,74.417405 C 128.54176,73.513952 129.404,74.233798 129.404,74.233798 L 129.404,74.2338 z"
   class="fil3 str2"
   id="_253378528" />
   
   
   
   
   <path
   style="fill:#fcdd09;fill-opacity:1;stroke:#000000;stroke-width:0.11807883;stroke-opacity:1;stroke-miterlimit:4;stroke-dasharray:none"
   d="M 122.935,75.1171 C 122.935,75.1171 122.90266,75.381269 122.70162,75.38021 C 122.51606,75.379233 121.58947,75.14113 121.34078,75.373042 C 120.92103,75.790678 120.44328,75.477146 120.36377,75.896574 L 120.20786,76.129056 L 120.43985,76.130278 C 120.43985,76.130278 120.81073,76.178827 120.91964,76.05501 C 121.04395,75.946834 121.22935,75.978928 121.22935,75.978928 C 121.22935,75.978928 121.57041,75.825216 121.69423,75.794751 C 121.80273,75.748727 121.95742,75.749542 121.95742,75.749542 C 121.95742,75.749542 121.6469,75.981128 121.53824,76.058269 C 121.41409,76.13541 120.85741,76.132477 121.19554,76.522988 C 121.53375,76.89794 122.21646,76.481689 122.29449,76.342151 C 122.37261,76.187055 122.55907,76.03261 122.69844,75.986667 C 122.85329,75.956364 123.00872,75.801675 123.00872,75.801675 C 123.00872,75.801675 123.20919,75.911644 123.23949,76.036193 C 123.28527,76.145266 123.2368,76.53374 123.65492,76.427111 C 124.07313,76.304924 124.15223,75.963207 123.96732,75.837842 C 123.78232,75.728036 123.42847,75.384038 123.74257,74.468282 C 124.04128,73.552366 122.935,75.117097 122.935,75.117097 L 122.935,75.1171 z"
   class="fil3 str2"
   id="_253378120" />
   
   
   
   <path
   style="fill:#fcdd09;fill-opacity:1;stroke:#000000;stroke-width:0.11807883;stroke-opacity:1;stroke-miterlimit:4;stroke-dasharray:none"
   d="M 129.071,64.0623 C 129.38046,64.032894 130.03164,63.725307 130.26844,62.80915 C 130.48968,61.908385 130.7251,61.25656 131.02054,60.9471 C 131.28479,60.699711 132.01629,59.81719 133.31497,59.87071 C 134.59834,59.908588 137.73668,60.111745 140.60377,61.88395 C 143.57879,63.71904 144.4253,64.4854 145.81139,65.5657 C 145.81139,65.5657 145.88796,65.706052 145.73336,65.705238 C 145.73336,65.705238 147.13428,66.909928 147.31805,67.253028 L 147.05543,67.204968 C 147.05543,67.204968 148.48567,68.705348 148.97801,69.189938 C 148.97801,69.189938 148.36063,68.969023 147.88264,68.702166 C 147.38916,68.435227 146.45069,67.512796 146.18839,67.387026 C 145.91061,67.276732 145.64832,67.166437 145.64832,67.166437 L 146.52497,68.088544 C 146.52497,68.088544 145.87624,67.929619 145.53713,67.725648 C 145.18238,67.537235 143.7936,66.970123 142.67273,65.440258 L 142.67077,65.813499 C 142.67077,65.813499 141.78956,65.76218 141.11182,65.245409 C 140.43425,64.697603 138.96914,63.927989 138.96914,63.927989 C 138.96914,63.927989 140.32436,65.008039 140.24583,65.240849 C 140.24583,65.240849 139.25693,65.080132 138.31666,64.499824 C 138.31666,64.499824 139.02494,65.07891 138.91571,65.264961 C 138.80647,65.451012 137.4023,64.86826 137.03223,64.648567 C 137.03223,64.648567 137.74083,65.181059 137.6316,65.367028 C 137.52236,65.553079 136.76618,65.253638 136.1185,64.908092 C 136.1185,64.908092 136.73368,65.548924 136.60953,65.625983 C 136.50087,65.703205 135.88293,65.591037 135.5435,65.433742 L 135.84962,66.041827 C 135.64817,66.11856 134.98461,65.850645 134.80027,65.616452 C 134.80027,65.616452 134.49098,65.614823 134.87554,66.005578 C 134.87554,66.005578 134.36407,66.220628 133.62516,65.579144 C 133.62516,65.579144 133.54639,65.843069 133.68503,65.952711 C 133.68503,65.952711 133.4976,66.293776 132.89856,65.52864 C 132.89856,65.52864 132.82003,65.761529 132.97342,65.995558 C 132.97342,65.995558 132.27695,66.100721 131.95421,65.710291 C 131.95421,65.710291 131.9538,65.788083 131.79854,65.911656 C 131.64328,66.01967 131.50472,65.910108 131.27338,65.784418 C 131.27338,65.784418 131.14777,66.141449 130.88531,66.062272 C 130.88531,66.062272 130.69559,66.854372 130.46433,66.713205 C 130.46433,66.713205 130.50873,67.086609 130.1688,67.038142 C 130.1688,67.038142 130.01167,67.503839 129.70319,67.346706 C 129.41018,67.189655 129.59526,67.299541 129.59526,67.299541 C 129.59526,67.299541 129.40717,67.764993 129.20695,67.608431 C 129.0222,67.45195 128.63544,64.557661 129.07099,64.062311 L 129.071,64.0623 z"
   class="fil3 str2"
   id="_253377808" />
   <path
   style="fill:#fcdd09;fill-opacity:1;stroke:#000000;stroke-width:0.04723153;stroke-opacity:1;stroke-miterlimit:4;stroke-dasharray:none"
   d="M 145.734,65.7052 C 145.734,65.7052 143.09834,64.02741 141.80478,62.99435"
   class="fil4 str4"
   id="_253377664" />
   <path
   style="fill:#fcdd09;fill-opacity:1;stroke:#000000;stroke-width:0.04723153;stroke-opacity:1;stroke-miterlimit:4;stroke-dasharray:none"
   d="M 147.056,67.205 C 147.056,67.205 142.06481,63.52447 141.32631,62.80528"
   class="fil4 str4"
   id="_253377592" />
   <path
   style="fill:#fcdd09;fill-opacity:1;stroke:#000000;stroke-width:0.04723153;stroke-opacity:1;stroke-miterlimit:4;stroke-dasharray:none"
   d="M 145.649,67.1664 C 145.34109,66.900439 142.55636,64.18006 140.67777,62.64628"
   class="fil4 str4"
   id="_253377520" />
   <path
   style="fill:#fcdd09;fill-opacity:1;stroke:#000000;stroke-width:0.04723153;stroke-opacity:1;stroke-miterlimit:4;stroke-dasharray:none"
   d="M 139.108,64.0064 C 138.69183,63.739869 135.75021,61.43851 135.00935,61.17027"
   class="fil4 str4"
   id="_253377376" />
   <path
   style="fill:#fcdd09;fill-opacity:1;stroke:#000000;stroke-width:0.04723153;stroke-opacity:1;stroke-miterlimit:4;stroke-dasharray:none"
   d="M 138.317,64.4998 C 138.317,64.4998 135.26932,61.77804 134.62246,61.27707"
   class="fil4 str4"
   id="_253377304" />
   <path
   style="fill:#fcdd09;fill-opacity:1;stroke:#000000;stroke-width:0.04723153;stroke-opacity:1;stroke-miterlimit:4;stroke-dasharray:none"
   d="M 137.032,64.6486 C 137.032,64.6486 134.46517,61.66503 133.52368,61.31802"
   class="fil4 str4"
   id="_253377232" />
   <path
   style="fill:#fcdd09;fill-opacity:1;stroke:#000000;stroke-width:0.04723153;stroke-opacity:1;stroke-miterlimit:4;stroke-dasharray:none"
   d="M 136.119,64.9081 C 136.119,64.9081 135.67416,64.206012 135.18174,63.75245 C 134.30444,62.954811 133.15164,61.6114 132.88918,61.53231"
   class="fil4 str4"
   id="_253377160" />
   <path
   style="fill:#fcdd09;fill-opacity:1;stroke:#000000;stroke-width:0.04723153;stroke-opacity:1;stroke-miterlimit:4;stroke-dasharray:none"
   d="M 135.544,65.3249 C 135.46767,65.137953 134.53066,63.93563 134.26934,63.6388 C 134.00802,63.341966 132.4235,61.76306 132.4235,61.76306"
   class="fil4 str4"
   id="_253377088" />
   <path
   style="fill:#fcdd09;fill-opacity:1;stroke:#000000;stroke-width:0.04723153;stroke-opacity:1;stroke-miterlimit:4;stroke-dasharray:none"
   d="M 134.677,65.5847 C 134.49339,65.210562 134.35605,64.852146 134.26401,64.711712 C 133.5128,63.479332 132.29777,62.213392 132.0824,61.994592"
   class="fil4 str4"
   id="_253377016" />
   <path
   style="fill:#fcdd09;fill-opacity:1;stroke:#000000;stroke-width:0.04723153;stroke-opacity:1;stroke-miterlimit:4;stroke-dasharray:none"
   d="M 133.626,65.4236 C 133.54959,65.236653 133.32127,64.551183 133.21447,64.27072 C 133.0922,64.005736 132.2338,62.55513 131.81819,62.17969"
   class="fil4 str4"
   id="_253376944" />
   <path
   style="fill:#fcdd09;fill-opacity:1;stroke:#000000;stroke-width:0.04723153;stroke-opacity:1;stroke-miterlimit:4;stroke-dasharray:none"
   d="M 132.899,65.5286 C 132.86959,65.23307 132.71881,64.50141 132.59638,64.26746 C 132.36651,63.861961 131.89291,62.75543 131.55477,62.36492"
   class="fil4 str4"
   id="_253376872" />
   <path
   style="fill:#fcdd09;fill-opacity:1;stroke:#000000;stroke-width:0.04723153;stroke-opacity:1;stroke-miterlimit:4;stroke-dasharray:none"
   d="M 132.032,65.6019 C 132.03314,65.384162 131.94394,64.699506 131.80669,64.34117 C 131.471,63.46859 131.20927,63.24947 131.20927,63.24947"
   class="fil4 str4"
   id="_253376800" />
   <path
   style="fill:#fcdd09;fill-opacity:1;stroke:#000000;stroke-width:0.04723153;stroke-opacity:1;stroke-miterlimit:4;stroke-dasharray:none"
   d="M 131.274,65.7844 C 131.22846,65.628733 130.92609,64.30536 130.63374,64.03948"
   class="fil4 str4"
   id="_253376728" />
   <path
   style="fill:#fcdd09;fill-opacity:1;stroke:#000000;stroke-width:0.04723153;stroke-opacity:1;stroke-miterlimit:4;stroke-dasharray:none"
   d="M 136.323,61.4416 C 136.323,61.4416 139.23554,63.40067 140.35982,64.2774"
   class="fil4 str4"
   id="_253376368" />
   <path
   style="fill:#fcdd09;fill-opacity:1;stroke:#000000;stroke-width:0.04723153;stroke-opacity:1;stroke-miterlimit:4;stroke-dasharray:none"
   d="M 137.883,61.7919 C 137.883,61.7919 141.42659,64.31409 142.33208,65.62508"
   class="fil4 str4"
   id="_253376296" />
   <path
   style="fill:#fcdd09;fill-opacity:1;stroke:#000000;stroke-width:0.04723153;stroke-opacity:1;stroke-miterlimit:4;stroke-dasharray:none"
   d="M 140.029,62.4407 C 140.029,62.4407 144.2913,66.5062 144.96887,67.054"
   class="fil4 str4"
   id="_253376224" />
   
   <path
   style="fill:#fcdd09;fill-opacity:1;stroke:#000000;stroke-width:0.11807883;stroke-opacity:1;stroke-miterlimit:4;stroke-dasharray:none"
   d="M 124.311,64.4317 C 124.01743,64.383558 123.35403,64.084607 123.1424,63.166 C 122.93069,62.247477 122.7022,61.59312 122.39445,61.29605 C 122.14845,61.030415 121.42632,60.14024 120.12706,60.18007 C 118.84336,60.204426 115.70306,60.389988 112.81749,62.11633 C 109.82325,63.9199 108.96875,64.67738 107.57117,65.75849 C 107.57117,65.75849 107.49313,65.898028 107.64782,65.898842 C 107.64782,65.898842 106.23428,67.073142 106.04692,67.414292 L 106.30995,67.38456 C 106.30995,67.38456 104.86399,68.85415 104.36652,69.34917 C 104.36652,69.34917 104.97086,69.119132 105.4671,68.857407 C 105.96335,68.5956 106.91152,67.683187 107.17495,67.575747 C 107.43847,67.468304 107.70199,67.345302 107.70199,67.345302 L 106.8312,68.258123 C 106.8312,68.258123 107.48148,68.106041 107.82271,67.921212 C 108.16394,67.720906 109.57414,67.168538 110.71114,65.650642 L 110.7091,66.023802 C 110.7091,66.023802 111.59081,65.997409 112.25852,65.472167 C 112.95727,64.93161 114.43036,64.193027 114.43036,64.193027 C 114.43036,64.193027 113.0639,65.243187 113.13998,65.476807 C 113.13998,65.476807 114.11504,65.326517 115.07689,64.756228 C 115.07689,64.756228 114.34703,65.327739 114.46978,65.51493 C 114.5769,65.717679 115.97179,65.149671 116.35961,64.918493 C 116.35961,64.918493 115.62999,65.443328 115.75267,65.646159 C 115.85987,65.833268 116.6193,65.526334 117.25517,65.187549 C 117.25517,65.187549 116.64855,65.837423 116.77188,65.915867 C 116.87973,65.994148 117.4835,65.872938 117.83988,65.734867 L 117.52748,66.324136 C 117.71264,66.402824 118.39453,66.142077 118.58122,65.925398 C 118.58122,65.925398 118.89052,65.927027 118.50188,66.298151 C 118.50188,66.298151 118.99552,66.534054 119.75674,65.884914 C 119.75674,65.884914 119.83266,66.149735 119.69288,66.25783 C 119.69288,66.25783 119.87657,66.616409 120.48376,65.857707 C 120.48376,65.857707 120.55992,66.075771 120.40401,66.308171 C 120.40401,66.308171 121.08386,66.420665 121.42607,66.049215 C 121.42607,66.049215 121.42566,66.127007 121.5797,66.23665 C 121.71834,66.346211 121.87352,66.238198 122.10608,66.130591 C 122.10608,66.130591 122.21255,66.473204 122.4913,66.396959 C 122.4913,66.396959 122.67263,67.206491 122.90535,67.052209 C 122.90535,67.052209 122.85705,67.425206 123.19738,67.395881 C 123.19738,67.395881 123.33423,67.847567 123.64434,67.693692 C 123.95437,67.555376 123.76816,67.663226 123.76816,67.663226 C 123.76816,67.663226 123.95136,68.115156 124.13773,67.96063 C 124.33959,67.806185 124.75698,64.91613 124.311,64.4317 L 124.311,64.4317 z"
   class="fil3 str2"
   id="_253374952" />
   
   <path
   style="fill:#fcdd09;fill-opacity:1;stroke:#000000;stroke-width:0.11807883;stroke-opacity:1;stroke-miterlimit:4;stroke-dasharray:none"
   d="M 128.11368,62.42544 C 126.90212,63.969268 126.06431,61.517677 124.82595,63.116126 C 123.79334,65.44086 123.65071,67.668889 124.29126,70.288278 C 124.29126,70.288278 123.92388,69.571039 123.04104,69.830727 C 122.17359,70.090497 122.50186,72.362527 122.76049,73.172467 C 123.0192,73.966847 122.85987,74.852377 122.51938,74.897267 C 122.51938,74.897267 123.01196,75.335268 123.55716,74.591717 L 123.66379,74.903295 C 123.66379,74.903295 124.3495,73.896145 124.65717,74.208782 C 124.65717,74.208782 124.82188,75.361849 124.66458,75.858579 L 127.84984,75.827275 C 127.84984,75.827275 127.67407,74.638834 127.93857,74.344772 C 128.20306,74.035149 128.69579,73.763533 128.98497,74.651428 C 128.98497,74.651428 129.21818,74.419435 129.14145,74.3102 C 129.14145,74.3102 129.88223,74.594 129.86838,74.282911 C 129.82529,73.660652 129.64445,72.757851 129.87905,72.261441 C 130.11365,71.765116 130.52339,70.321111 130.04661,69.821031 C 129.53888,69.320715 129.0116,69.597836 128.93234,69.970588 C 128.93234,69.970588 129.17427,68.074808 129.13534,66.659558 C 129.13892,65.990949 129.03889,64.435428 128.88901,63.532708 C 128.77047,63.077298 128.43288,62.749668 128.11368,62.42544 z"
   class="fil3 str2"
   id="_253375984"
   sodipodi:nodetypes="cccccccccccccccsccccc" />
   
   
   <path
   style="fill:#fcdd09;fill-opacity:1;stroke:#000000;stroke-width:0.11807883;stroke-opacity:1;stroke-miterlimit:4;stroke-dasharray:none"
   d="M 128.852,70.4522 C 128.852,70.4522 128.46996,72.51831 127.85911,73.99237"
   class="fil4 str6"
   id="_253375192" />
   <path
   style="fill:#fcdd09;fill-opacity:1;stroke:#000000;stroke-width:0.11807883;stroke-opacity:1;stroke-miterlimit:4;stroke-dasharray:none"
   d="M 125.97,60.6085 C 126.83289,61.203959 126.0381,62.36596 126.0381,62.36596 C 126.0381,62.36596 125.92316,64.12367 126.95931,64.12912 C 127.26861,64.130749 128.36797,63.373514 128.21857,62.37752 C 128.21857,62.37752 127.84117,60.61835 127.84403,60.08968 C 127.84688,59.545458 127.55205,58.652731 126.95638,58.32782 C 126.39513,58.021684 126.13334,57.926119 125.30123,58.396897 C 124.97376,58.733254 125.19744,59.794699 125.36737,60.527519 C 125.36737,60.527519 125.73882,60.467321 125.97,60.608488 L 125.97,60.6085 z"
   class="fil3 str2"
   id="_253373128"
   sodipodi:nodetypes="ccscsscccc" />
   <path
   style="fill:#fcdd09;fill-opacity:1;stroke:#000000;stroke-width:0.11807883;stroke-opacity:1;stroke-miterlimit:4;stroke-dasharray:none"
   d="M 126.68808,59.121715 C 126.68808,59.121715 126.50627,58.405453 126.16544,58.512489 C 125.79375,58.619362 126.05523,58.88516 126.20927,58.994803 C 126.34783,59.119923 126.68808,59.121715 126.68808,59.121715 L 126.68808,59.121715 z"
   class="fil3 str6"
   id="_253373056"
   sodipodi:nodetypes="ccccc" />
   <path
   style="fill:#fcdd09;fill-opacity:1;stroke:#000000;stroke-width:0.11807883;stroke-opacity:1;stroke-miterlimit:4;stroke-dasharray:none"
   d="M 126.93862,63.92053 C 128.00507,64.034979 128.23324,62.54177 128.23324,62.54177 C 128.23324,62.54177 128.96678,63.140651 128.91741,63.71575 C 128.88352,64.275368 128.25084,64.74986 127.83231,64.93428 C 127.4137,65.13426 126.65377,65.550023 125.79186,64.768024 C 124.94527,64.017142 124.60779,63.392119 124.82593,63.082329 C 125.05939,62.788102 125.74616,62.177815 126.039,62.365902 C 125.99449,63.152047 126.20679,63.617865 126.93862,63.92053 z"
   class="fil3 str2"
   id="_253372984"
   sodipodi:nodetypes="cccccccc" />
   
   
  <path
   style="fill:#fcdd09;fill-opacity:1;stroke:#000000;stroke-width:0.11807883;stroke-opacity:1;stroke-miterlimit:4;stroke-dasharray:none"
   d="M 123.50937,59.343313 C 123.50937,59.343313 124.76303,59.435851 125.20917,59.889166 C 125.21665,59.896643 125.12798,58.933873 125.24619,58.588661 C 124.5006,58.203059 123.54229,58.244892 123.50937,59.343313 z"
   class="fil3 str2"
   id="_253371040"
   sodipodi:nodetypes="cccc" /><path
   id="path3268"
   class="fil4 str4"
   d="M 107.86742,65.7052 C 107.86742,65.7052 110.50308,64.02741 111.79664,62.99435"
   style="fill:#fcdd09;fill-opacity:1;stroke:#000000;stroke-width:0.04723153;stroke-miterlimit:4;stroke-dasharray:none;stroke-opacity:1" /><path
   id="path3270"
   class="fil4 str4"
   d="M 106.54542,67.205 C 106.54542,67.205 111.53661,63.52447 112.27511,62.80528"
   style="fill:#fcdd09;fill-opacity:1;stroke:#000000;stroke-width:0.04723153;stroke-miterlimit:4;stroke-dasharray:none;stroke-opacity:1" /><path
   id="path3272"
   class="fil4 str4"
   d="M 107.95242,67.1664 C 108.26033,66.900439 111.04506,64.18006 112.92365,62.64628"
   style="fill:#fcdd09;fill-opacity:1;stroke:#000000;stroke-width:0.04723153;stroke-miterlimit:4;stroke-dasharray:none;stroke-opacity:1" /><path
   id="path3274"
   class="fil4 str4"
   d="M 114.49342,64.0064 C 114.90959,63.739869 117.85121,61.43851 118.59207,61.17027"
   style="fill:#fcdd09;fill-opacity:1;stroke:#000000;stroke-width:0.04723153;stroke-miterlimit:4;stroke-dasharray:none;stroke-opacity:1" /><path
   id="path3276"
   class="fil4 str4"
   d="M 115.28442,64.4998 C 115.28442,64.4998 118.3321,61.77804 118.97896,61.27707"
   style="fill:#fcdd09;fill-opacity:1;stroke:#000000;stroke-width:0.04723153;stroke-miterlimit:4;stroke-dasharray:none;stroke-opacity:1" /><path
   id="path3278"
   class="fil4 str4"
   d="M 116.56942,64.6486 C 116.56942,64.6486 119.13625,61.66503 120.07774,61.31802"
   style="fill:#fcdd09;fill-opacity:1;stroke:#000000;stroke-width:0.04723153;stroke-miterlimit:4;stroke-dasharray:none;stroke-opacity:1" /><path
   id="path3280"
   class="fil4 str4"
   d="M 117.48242,64.9081 C 117.48242,64.9081 117.92726,64.206012 118.41968,63.75245 C 119.29698,62.954811 120.44978,61.6114 120.71224,61.53231"
   style="fill:#fcdd09;fill-opacity:1;stroke:#000000;stroke-width:0.04723153;stroke-miterlimit:4;stroke-dasharray:none;stroke-opacity:1" /><path
   id="path3282"
   class="fil4 str4"
   d="M 118.05742,65.3249 C 118.13375,65.137953 119.07076,63.93563 119.33208,63.6388 C 119.5934,63.341966 121.17792,61.76306 121.17792,61.76306"
   style="fill:#fcdd09;fill-opacity:1;stroke:#000000;stroke-width:0.04723153;stroke-miterlimit:4;stroke-dasharray:none;stroke-opacity:1" /><path
   id="path3284"
   class="fil4 str4"
   d="M 118.92442,65.5847 C 119.10803,65.210562 119.24537,64.852146 119.33741,64.711712 C 120.08862,63.479332 121.30365,62.213392 121.51902,61.994592"
   style="fill:#fcdd09;fill-opacity:1;stroke:#000000;stroke-width:0.04723153;stroke-miterlimit:4;stroke-dasharray:none;stroke-opacity:1" /><path
   id="path3286"
   class="fil4 str4"
   d="M 119.97542,65.4236 C 120.05183,65.236653 120.28015,64.551183 120.38695,64.27072 C 120.50922,64.005736 121.36762,62.55513 121.78323,62.17969"
   style="fill:#fcdd09;fill-opacity:1;stroke:#000000;stroke-width:0.04723153;stroke-miterlimit:4;stroke-dasharray:none;stroke-opacity:1" /><path
   id="path3288"
   class="fil4 str4"
   d="M 120.70242,65.5286 C 120.73183,65.23307 120.88261,64.50141 121.00504,64.26746 C 121.23491,63.861961 121.70851,62.75543 122.04665,62.36492"
   style="fill:#fcdd09;fill-opacity:1;stroke:#000000;stroke-width:0.04723153;stroke-miterlimit:4;stroke-dasharray:none;stroke-opacity:1" /><path
   id="path3290"
   class="fil4 str4"
   d="M 121.56942,65.6019 C 121.56828,65.384162 121.65748,64.699506 121.79473,64.34117 C 122.13042,63.46859 122.39215,63.24947 122.39215,63.24947"
   style="fill:#fcdd09;fill-opacity:1;stroke:#000000;stroke-width:0.04723153;stroke-miterlimit:4;stroke-dasharray:none;stroke-opacity:1" /><path
   id="path3292"
   class="fil4 str4"
   d="M 122.32742,65.7844 C 122.37296,65.628733 122.67533,64.30536 122.96768,64.03948"
   style="fill:#fcdd09;fill-opacity:1;stroke:#000000;stroke-width:0.04723153;stroke-miterlimit:4;stroke-dasharray:none;stroke-opacity:1" /><path
   id="path3294"
   class="fil4 str4"
   d="M 117.27842,61.4416 C 117.27842,61.4416 114.36588,63.40067 113.2416,64.2774"
   style="fill:#fcdd09;fill-opacity:1;stroke:#000000;stroke-width:0.04723153;stroke-miterlimit:4;stroke-dasharray:none;stroke-opacity:1" /><path
   id="path3296"
   class="fil4 str4"
   d="M 115.71842,61.7919 C 115.71842,61.7919 112.17483,64.31409 111.26934,65.62508"
   style="fill:#fcdd09;fill-opacity:1;stroke:#000000;stroke-width:0.04723153;stroke-miterlimit:4;stroke-dasharray:none;stroke-opacity:1" /><path
   id="path3298"
   class="fil4 str4"
   d="M 113.57242,62.4407 C 113.57242,62.4407 109.31012,66.5062 108.63255,67.054"
   style="fill:#fcdd09;fill-opacity:1;stroke:#000000;stroke-width:0.04723153;stroke-miterlimit:4;stroke-dasharray:none;stroke-opacity:1" /><path
   id="path3300"
   class="fil4 str6"
   d="M 124.21544,70.418478 C 124.21544,70.418478 124.15909,72.51831 124.76994,73.99237"
   style="fill:#fcdd09;fill-opacity:1;stroke:#000000;stroke-width:0.11807883;stroke-miterlimit:4;stroke-dasharray:none;stroke-opacity:1"
   sodipodi:nodetypes="cc" /></g><polyline
   style="fill:none;fill-opacity:1;stroke:#000000;stroke-width:0.11807883;stroke-opacity:1;stroke-miterlimit:4;stroke-dasharray:none"
   id="polyline61"
   points="117.211,103.674 135.485,103.494 134.984,99.9807 117.622,100.14 118.233,94.8886 134.251,94.8325 133.585,90.1621 118.812,89.9035 119.354,85.2443 132.851,85.0138 132.118,79.8655 120.001,79.6815 "
   class="fil4 str1"
   transform="matrix(1.2155062,0,0,1.2155062,-24.926772,-20.646877)" /><polyline
   style="fill:#fcdd09;fill-opacity:1;stroke:#000000;stroke-width:0.11807883;stroke-opacity:1;stroke-miterlimit:4;stroke-dasharray:none"
   id="polyline63"
   points="126.41,108.358 126.348,103.584 130.397,103.544 130.359,100.023 125.612,100.067 125.589,94.8628 130.586,94.8455 130.675,90.1112 126.199,90.0329 126.103,85.1291 "
   class="fil4 str1"
   transform="matrix(1.2155062,0,0,1.2155062,-24.926772,-20.646877)" /><line
   style="fill:#fcdd09;fill-opacity:1;stroke:#000000;stroke-width:0.14352556;stroke-opacity:1;stroke-miterlimit:4;stroke-dasharray:none"
   id="line65"
   y2="71.631317"
   x2="128.20877"
   y1="76.31842"
   x1="128.29872"
   class="fil4 str1" /><line
   style="fill:#fcdd09;fill-opacity:1;stroke:#000000;stroke-width:0.14352556;stroke-opacity:1;stroke-miterlimit:4;stroke-dasharray:none"
   id="line67"
   y2="94.673294"
   x2="123.82935"
   y1="88.706856"
   x1="123.80257"
   class="fil4 str1" /><polyline
   style="fill:none;fill-opacity:1;stroke:#000000;stroke-width:0.11807883;stroke-opacity:1;stroke-miterlimit:4;stroke-dasharray:none"
   id="polyline69"
   points="135.506,103.467 139.185,100.939 138.523,97.8708 135.005,99.9541 134.272,94.8059 137.564,93.4215 136.735,89.5775 133.606,90.1355 132.872,84.9872 135.63,84.4533 134.439,78.9328 132.139,79.8389 "
   class="fil4 str7"
   transform="matrix(1.2155062,0,0,1.2155062,-24.926772,-20.646877)" />
</svg>