<?xml version="1.0" encoding="UTF-8" standalone="no"?>
<!-- Created with Sodipodi ("http://www.sodipodi.com/") -->
<!-- /Creative Commons Public Domain -->
<!--

-->
<svg
   xmlns:dc="http://purl.org/dc/elements/1.1/"
   xmlns:cc="http://creativecommons.org/ns#"
   xmlns:rdf="http://www.w3.org/1999/02/22-rdf-syntax-ns#"
   xmlns:svg="http://www.w3.org/2000/svg"
   xmlns="http://www.w3.org/2000/svg"
   xmlns:sodipodi="http://sodipodi.sourceforge.net/DTD/sodipodi-0.dtd"
   xmlns:inkscape="http://www.inkscape.org/namespaces/inkscape"
   height="641.70001"
   id="svg378"
   version="1.0"
   width="1071.7"
   x="0"
   y="0"
   sodipodi:version="0.32"
   inkscape:version="0.46"
   sodipodi:docname="Luruaco-flag.svg"
   sodipodi:docbase="I:\Mauricio\WIKIPEDIA\Finales\Otros"
   inkscape:output_extension="org.inkscape.output.svg.inkscape">
  <sodipodi:namedview
     inkscape:window-height="748"
     inkscape:window-width="1024"
     inkscape:pageshadow="2"
     inkscape:pageopacity="0.0"
     borderopacity="1.0"
     bordercolor="#666666"
     pagecolor="#ffffff"
     id="base"
     inkscape:zoom="0.84618979"
     inkscape:cx="535.84998"
     inkscape:cy="320.85001"
     inkscape:window-x="0"
     inkscape:window-y="0"
     inkscape:current-layer="svg378"
     showgrid="false" />
  <metadata
     id="metadata3">
    <rdf:RDF>
      <cc:Work
         rdf:about="">
        <dc:title>Clipart by Philipp Sadleder - germany</dc:title>
        <dc:description />
        <dc:subject>
          <rdf:Bag>
            <rdf:li />
            <rdf:li>europe</rdf:li>
            <rdf:li>united_nations_member</rdf:li>
            <rdf:li>germany</rdf:li>
            <rdf:li>flag</rdf:li>
            <rdf:li>0x91c6b24</rdf:li>
            <rdf:li>sign</rdf:li>
          </rdf:Bag>
        </dc:subject>
        <dc:publisher>
          <cc:Agent
             rdf:about="http://www.openclipart.org">
            <dc:title>Philipp Sadleder</dc:title>
          </cc:Agent>
        </dc:publisher>
        <dc:creator>
          <cc:Agent>
            <dc:title>Philipp Sadleder</dc:title>
          </cc:Agent>
        </dc:creator>
        <dc:rights>
          <cc:Agent>
            <dc:title>Philipp Sadleder</dc:title>
          </cc:Agent>
        </dc:rights>
        <dc:date />
        <dc:format>image/svg+xml</dc:format>
        <dc:type
           rdf:resource="http://purl.org/dc/dcmitype/StillImage" />
        <cc:license
           rdf:resource="http://web.resource.org/cc/PublicDomain" />
        <dc:language>en</dc:language>
      </cc:Work>
      <cc:License
         rdf:about="http://web.resource.org/cc/PublicDomain">
        <cc:permits
           rdf:resource="http://web.resource.org/cc/Reproduction" />
        <cc:permits
           rdf:resource="http://web.resource.org/cc/Distribution" />
        <cc:permits
           rdf:resource="http://web.resource.org/cc/DerivativeWorks" />
      </cc:License>
    </rdf:RDF>
  </metadata>
  <defs
     id="defs380">
    <inkscape:perspective
       sodipodi:type="inkscape:persp3d"
       inkscape:vp_x="0 : 320.85001 : 1"
       inkscape:vp_y="0 : 1000 : 0"
       inkscape:vp_z="1071.7 : 320.85001 : 1"
       inkscape:persp3d-origin="535.84998 : 213.9 : 1"
       id="perspective11" />
  </defs>
  <path
     style="fill:#ffffff"
     d="M 527.93399,408.68898 C 516.87921,407.57989 502.16774,403.3509 493.54549,398.80358 C 477.27644,390.22337 462.63177,374.7249 454.28309,357.25209 C 448.03836,344.18258 445.91753,334.13495 445.91858,317.62441 C 445.91919,308.17761 446.2509,304.13425 447.5138,298.17947 C 454.26996,266.32315 475.70313,241.45524 505.28338,231.15212 C 516.17455,227.3586 522.21401,226.45413 536.33664,226.50158 C 550.97933,226.55076 558.8287,227.86815 570.81555,232.28831 C 582.86383,236.73112 596.54651,245.49777 607.44108,255.75471 L 612.05502,260.09861 L 605.61691,266.43632 L 599.17879,272.77403 L 594.42698,268.35123 C 575.60178,250.82942 554.42449,242.16019 533.04864,243.22511 C 500.961,244.82367 474.15285,266.28726 465.39653,297.38986 C 463.04952,305.72646 462.25344,319.29777 463.59694,328.06845 C 466.61822,347.79208 478.16379,366.79152 493.92614,377.97834 C 506.53537,386.92732 519.07131,391.17967 535.33664,392.0253 C 567.3933,393.6919 593.25786,375.87016 601.32396,346.55733 C 602.35164,342.82265 603.19247,339.28634 603.19247,338.69887 C 603.19247,337.80745 598.84058,337.63074 576.88854,337.63074 L 550.5846,337.63074 L 550.5846,329.16652 L 550.5846,320.7023 L 586.38718,320.7023 L 622.18976,320.7023 L 622.1755,324.35731 C 622.16765,326.36756 621.6948,331.64807 621.12471,336.09179 C 616.57847,371.52894 596.0134,397.08231 565.10322,405.70196 C 554.39711,408.68748 539.69534,409.86895 527.93399,408.68898 z "
     id="path2266" />
  <rect
     y="121.64587"
     x="133.16669"
     height="398.40826"
     width="805.36658"
     id="rect2239"
     style="opacity:1;fill:#89c5e3;fill-opacity:1;fill-rule:evenodd;stroke:none;stroke-width:1.70000005000000010;stroke-miterlimit:4;stroke-dasharray:none;stroke-opacity:1" />
  <rect
     style="opacity:1;fill:#ffffff;fill-opacity:1;fill-rule:evenodd;stroke:none;stroke-width:1.85803604000000000;stroke-miterlimit:4;stroke-dasharray:none;stroke-opacity:1"
     id="rect2234"
     width="976.19879"
     height="81.917496"
     x="-133.19855"
     y="472.9725"
     transform="matrix(0.9102454,-0.4140692,0.4140692,0.9102454,0,0)" />
  <path
     style="opacity:1;fill:#3b9650;fill-opacity:1;fill-rule:evenodd;stroke:none;stroke-width:1.70000005000000010;stroke-miterlimit:4;stroke-dasharray:none;stroke-opacity:1"
     d="M 0.84375 0.84375 L 0.84375 640.84375 L 1070.8438 640.84375 L 1070.8438 0.84375 L 0.84375 0.84375 z M 133.15625 121.65625 L 938.53125 121.65625 L 938.53125 520.0625 L 133.15625 520.0625 L 133.15625 121.65625 z "
     id="rect2230" />
  <path
     sodipodi:type="arc"
     style="opacity:1;fill:#feee00;fill-opacity:1;fill-rule:evenodd;stroke:none;stroke-width:1.70000005000000010;stroke-miterlimit:4;stroke-dasharray:none;stroke-opacity:1"
     id="path2242"
     sodipodi:cx="608.72687"
     sodipodi:cy="439.931"
     sodipodi:rx="104.30432"
     sodipodi:ry="104.30432"
     d="M 713.03119 439.931 A 104.30432 104.30432 0 1 1  504.42255,439.931 A 104.30432 104.30432 0 1 1  713.03119 439.931 z"
     transform="translate(-72.876892,-119.08099)" />
</svg>
