<?xml version="1.0" encoding="UTF-8" standalone="no"?>
<!-- Created with Inkscape (http://www.inkscape.org/) -->
<svg
   xmlns:dc="http://purl.org/dc/elements/1.1/"
   xmlns:cc="http://creativecommons.org/ns#"
   xmlns:rdf="http://www.w3.org/1999/02/22-rdf-syntax-ns#"
   xmlns:svg="http://www.w3.org/2000/svg"
   xmlns="http://www.w3.org/2000/svg"
   xmlns:sodipodi="http://sodipodi.sourceforge.net/DTD/sodipodi-0.dtd"
   xmlns:inkscape="http://www.inkscape.org/namespaces/inkscape"
   width="750"
   height="500"
   id="svg2822"
   version="1.1"
   inkscape:version="0.46"
   sodipodi:docname="Flag_of_Macanal_(Boyacá).svg"
   sodipodi:version="0.32"
   inkscape:output_extension="org.inkscape.output.svg.inkscape">
  <defs
     id="defs2824" />
  <sodipodi:namedview
     id="base"
     pagecolor="#ffffff"
     bordercolor="#666666"
     borderopacity="1.0"
     inkscape:pageopacity="0.0"
     inkscape:pageshadow="2"
     inkscape:zoom="1.014"
     inkscape:cx="375"
     inkscape:cy="250"
     inkscape:document-units="px"
     inkscape:current-layer="layer1-4"
     showgrid="false"
     inkscape:window-width="1024"
     inkscape:window-height="712"
     inkscape:window-x="-4"
     inkscape:window-y="-4"
     inkscape:window-maximized="1" />
  <metadata
     id="metadata2827">
    <rdf:RDF>
      <cc:Work
         rdf:about="">
        <dc:format>image/svg+xml</dc:format>
        <dc:type
           rdf:resource="http://purl.org/dc/dcmitype/StillImage" />
        <dc:title />
      </cc:Work>
    </rdf:RDF>
  </metadata>
  <g
     inkscape:label="Capa 1"
     inkscape:groupmode="layer"
     id="layer1"
     transform="translate(0,-552.36218)">
    <g
       inkscape:label="Capa 1"
       inkscape:groupmode="layer"
       transform="matrix(2.2746232,0,0,2.4838121,-338.8088,-645.13031)"
       id="layer1-4">
      <rect
         style="fill:#ffffff;fill-opacity:1;stroke:none;stroke-opacity:1"
         id="rect3405"
         width="750"
         height="500"
         x="0"
         y="-5.6843419e-14"
         transform="matrix(0.43963325,0,0,0.40260694,148.95162,482.11879)" />
      <g
         id="g3680"
         transform="matrix(0.6229138,-0.1072225,0.1180419,0.5658193,-10.568568,360.74919)"
         style="stroke:#000000;stroke-width:1;stroke-miterlimit:4;stroke-dasharray:none;stroke-opacity:1">
        <path
           sodipodi:nodetypes="ccccc"
           id="path3567"
           d="M 418.61279,471.24984 C 388.97829,481.15201 343.67158,521.80232 366.00026,561.60615 C 369.43151,561.2229 372.86276,560.11745 376.29401,565.60928 C 408.58634,531.25096 428.08821,525.76154 432.90968,472.67953 L 418.61279,471.24984 z"
           style="fill:#de87cd;fill-rule:evenodd;stroke:#000000;stroke-width:0.69626091;stroke-linecap:butt;stroke-linejoin:miter;stroke-miterlimit:4;stroke-dasharray:none;stroke-opacity:1" />
        <path
           sodipodi:nodetypes="cc"
           id="path3609"
           d="M 385.70631,549.71041 C 393.65667,536.77126 404.56037,523.73694 418.42619,514.49495"
           style="fill:none;fill-rule:evenodd;stroke:#000000;stroke-width:0.30000001;stroke-linecap:butt;stroke-linejoin:miter;stroke-miterlimit:4;stroke-dasharray:none;stroke-opacity:1" />
        <path
           sodipodi:nodetypes="cc"
           id="path3573"
           d="M 378.90123,554.01991 C 384.34088,535.15476 398.6959,523.3361 414.28421,510.75158"
           style="fill:none;fill-rule:evenodd;stroke:#000000;stroke-width:0.30000001;stroke-linecap:butt;stroke-linejoin:miter;stroke-miterlimit:4;stroke-dasharray:none;stroke-opacity:1" />
        <path
           sodipodi:nodetypes="cc"
           id="path3569"
           d="M 371.42025,559.27681 C 370.02083,527.37896 410.62998,501.1871 426.8199,485.88239"
           style="fill:none;fill-rule:evenodd;stroke:#000000;stroke-width:0.30000001;stroke-linecap:butt;stroke-linejoin:miter;stroke-miterlimit:4;stroke-dasharray:none;stroke-opacity:1" />
        <path
           sodipodi:nodetypes="cc"
           id="path3607"
           d="M 377.94228,544.16466 C 387.45344,525.4035 408.31897,506.80168 423.97193,494.80757"
           style="fill:none;fill-rule:evenodd;stroke:#000000;stroke-width:0.30000001;stroke-linecap:butt;stroke-linejoin:miter;stroke-miterlimit:4;stroke-dasharray:none;stroke-opacity:1" />
        <path
           sodipodi:nodetypes="cc"
           id="path3605"
           d="M 371.28738,538.89621 C 377.76757,517.41169 396.67333,504.3625 412.14913,491.98853"
           style="fill:none;fill-rule:evenodd;stroke:#000000;stroke-width:0.30000001;stroke-linecap:butt;stroke-linejoin:miter;stroke-miterlimit:4;stroke-dasharray:none;stroke-opacity:1" />
        <path
           sodipodi:nodetypes="cc"
           id="path3571"
           d="M 396.60708,496.34602 C 385.17244,505.04039 366.01587,526.09343 366.10937,549.77396"
           style="fill:none;fill-rule:evenodd;stroke:#000000;stroke-width:0.30000001;stroke-linecap:butt;stroke-linejoin:miter;stroke-miterlimit:4;stroke-dasharray:none;stroke-opacity:1" />
        <path
           sodipodi:nodetypes="cc"
           id="path3603"
           d="M 364.63249,534.73691 C 368.73567,512.03242 383.90731,498.767 401.78896,486.21167"
           style="fill:none;fill-rule:evenodd;stroke:#000000;stroke-width:0.30000001;stroke-linecap:butt;stroke-linejoin:miter;stroke-miterlimit:4;stroke-dasharray:none;stroke-opacity:1" />
        <path
           sodipodi:nodetypes="ccccc"
           id="path3509"
           d="M 436.3944,476.93393 L 450.63136,477.64433 C 458.29087,445.98246 480.2646,403.91163 469.8122,361.13848 C 465.23406,361.41012 460.65591,358.21769 456.07777,355.45527 C 407.4093,376.93286 440.0196,463.01095 436.3944,476.93393 z"
           style="fill:#de87cd;fill-rule:evenodd;stroke:#000000;stroke-width:0.69626091;stroke-linecap:butt;stroke-linejoin:miter;stroke-miterlimit:4;stroke-dasharray:none;stroke-opacity:1" />
        <path
           sodipodi:nodetypes="ccccccc"
           id="path3559"
           d="M 480.75568,592.50974 C 468.98045,583.31591 464.50498,567.86816 458.93005,559.60197 C 444.78249,539.91351 441.47889,529.05931 441.77736,513.73437 C 442.27348,496.10378 442.70804,483.50762 440.63384,475.36314 L 449.0196,474.6008 C 512.21224,511.61037 498.71067,561.55232 487.13672,591.23917 C 484.21316,589.67743 482.72104,589.99913 480.75568,592.50974 z"
           style="fill:#de87cd;fill-rule:evenodd;stroke:#000000;stroke-width:0.69626091;stroke-linecap:butt;stroke-linejoin:miter;stroke-miterlimit:4;stroke-dasharray:none;stroke-opacity:1" />
        <path
           sodipodi:nodetypes="cc"
           id="path3595"
           d="M 445.87761,510.61293 C 453.33564,529.09874 461.33683,547.30726 468.06057,565.79306"
           style="fill:none;fill-rule:evenodd;stroke:#000000;stroke-width:0.30000001;stroke-linecap:butt;stroke-linejoin:miter;stroke-miterlimit:4;stroke-dasharray:none;stroke-opacity:1" />
        <path
           sodipodi:nodetypes="cc"
           id="path3563"
           d="M 450.07151,506.50912 C 462.21972,531.05705 470.16836,551.85243 475.63576,576.40037"
           style="fill:none;fill-rule:evenodd;stroke:#000000;stroke-width:0.30000001;stroke-linecap:butt;stroke-linejoin:miter;stroke-miterlimit:4;stroke-dasharray:none;stroke-opacity:1" />
        <path
           sodipodi:nodetypes="cc"
           id="path3597"
           d="M 455.02808,503.95805 C 466.64395,524.27092 472.92464,545.65855 477.21104,565.23848"
           style="fill:none;fill-rule:evenodd;stroke:#000000;stroke-width:0.30000001;stroke-linecap:butt;stroke-linejoin:miter;stroke-miterlimit:4;stroke-dasharray:none;stroke-opacity:1" />
        <path
           sodipodi:nodetypes="cc"
           id="path3561"
           d="M 451.47872,488.91904 C 473.98107,520.4069 480.22154,553.9275 482.90633,587.89256"
           style="fill:none;fill-rule:evenodd;stroke:#000000;stroke-width:0.30000001;stroke-linecap:butt;stroke-linejoin:miter;stroke-miterlimit:4;stroke-dasharray:none;stroke-opacity:1" />
        <path
           sodipodi:nodetypes="cc"
           id="path3599"
           d="M 465.2877,504.23533 C 478.6321,523.64542 483.42417,543.05552 484.6978,562.46561"
           style="fill:none;fill-rule:evenodd;stroke:#000000;stroke-width:0.30000001;stroke-linecap:butt;stroke-linejoin:miter;stroke-miterlimit:4;stroke-dasharray:none;stroke-opacity:1" />
        <path
           sodipodi:nodetypes="cc"
           id="path3565"
           d="M 474.93216,507.68179 C 488.36137,530.11892 490.11937,552.55604 487.36248,574.99317"
           style="fill:none;fill-rule:evenodd;stroke:#000000;stroke-width:0.30000001;stroke-linecap:butt;stroke-linejoin:miter;stroke-miterlimit:4;stroke-dasharray:none;stroke-opacity:1" />
        <path
           sodipodi:nodetypes="cc"
           id="path3601"
           d="M 478.04291,505.06719 C 490.16747,523.60344 493.3315,542.63749 492.18455,561.91104"
           style="fill:none;fill-rule:evenodd;stroke:#000000;stroke-width:0.30000001;stroke-linecap:butt;stroke-linejoin:miter;stroke-miterlimit:4;stroke-dasharray:none;stroke-opacity:1" />
        <path
           sodipodi:nodetypes="cc"
           id="path3587"
           d="M 441.7183,373.91041 C 426.09711,405.01454 436.65883,440.05921 437.83628,473.17918"
           style="fill:none;fill-rule:evenodd;stroke:#000000;stroke-width:0.30000001;stroke-linecap:butt;stroke-linejoin:miter;stroke-miterlimit:4;stroke-dasharray:none;stroke-opacity:1" />
        <path
           sodipodi:nodetypes="cc"
           id="path3513"
           d="M 452.99936,362.79609 C 429.50478,399.21058 440.11514,436.99358 439.02813,474.09232"
           style="fill:none;fill-rule:evenodd;stroke:#000000;stroke-width:0.30000001;stroke-linecap:butt;stroke-linejoin:miter;stroke-miterlimit:4;stroke-dasharray:none;stroke-opacity:1" />
        <path
           sodipodi:nodetypes="cc"
           id="path3589"
           d="M 450.86877,373.63312 C 436.34372,407.37671 444.02079,441.78518 440.60915,474.8429"
           style="fill:none;fill-rule:evenodd;stroke:#000000;stroke-width:0.30000001;stroke-linecap:butt;stroke-linejoin:miter;stroke-miterlimit:4;stroke-dasharray:none;stroke-opacity:1" />
        <path
           sodipodi:nodetypes="cc"
           id="path3511"
           d="M 461.28738,361.13848 C 440.49092,400.14554 448.81589,437.07251 442.58014,475.03952"
           style="fill:none;fill-rule:evenodd;stroke:#000000;stroke-width:0.30000001;stroke-linecap:butt;stroke-linejoin:miter;stroke-miterlimit:4;stroke-dasharray:none;stroke-opacity:1" />
        <path
           sodipodi:nodetypes="cc"
           id="path3591"
           d="M 459.18738,377.23785 C 449.23187,410.34514 452.40853,441.85599 445.04574,474.28833"
           style="fill:none;fill-rule:evenodd;stroke:#000000;stroke-width:0.30000001;stroke-linecap:butt;stroke-linejoin:miter;stroke-miterlimit:4;stroke-dasharray:none;stroke-opacity:1" />
        <path
           sodipodi:nodetypes="cc"
           id="path3515"
           d="M 464.83939,367.7689 C 459.55351,405.20866 455.13127,439.75293 447.31615,474.09232"
           style="fill:none;fill-rule:evenodd;stroke:#000000;stroke-width:0.30000001;stroke-linecap:butt;stroke-linejoin:miter;stroke-miterlimit:4;stroke-dasharray:none;stroke-opacity:1" />
        <path
           sodipodi:nodetypes="cc"
           id="path3593"
           d="M 468.06057,382.22902 C 465.30377,409.57194 460.51995,443.95769 449.20505,474.8429"
           style="fill:none;fill-rule:evenodd;stroke:#000000;stroke-width:0.30000001;stroke-linecap:butt;stroke-linejoin:miter;stroke-miterlimit:4;stroke-dasharray:none;stroke-opacity:1" />
        <path
           sodipodi:nodetypes="ccccccccccccccccccccccccccc"
           id="path3517"
           d="M 439.19824,476.85222 C 438.58076,478.52218 433.83875,478.70178 432.10093,481.86209 C 430.94374,483.6615 430.27183,481.45121 425.62985,481.86209 C 422.63606,482.16559 419.95283,482.84364 414.14891,488.12442 C 411.35617,491.018 413.31763,491.62392 412.08198,493.84981 C 406.80347,501.20715 385.77559,498.35911 379.70608,500.2316 C 359.75677,506.13016 357.7665,498.54798 351.89536,495.00465 C 344.31894,491.38141 347.23867,486.1427 342.96707,483.3233 C 337.90367,480.93633 339.56197,478.16984 336.72757,476.85222 C 329.98512,474.164 333.80911,468.7198 330.85989,467.45873 C 324.94684,465.74052 327.14727,462.75503 324.18007,459.94393 C 318.37999,455.46494 317.98424,450.6089 320.63142,445.54056 C 322.41338,443.08026 321.81071,438.79569 321.12053,437.55762 C 318.82872,430.33432 322.15518,429.29111 325.64128,428.42352 C 329.6282,428.07827 334.11559,423.49137 338.66773,422.3826 C 345.33627,420.07943 347.13959,423.22487 350.06438,422.36993 C 352.26622,421.70276 352.95295,420.6876 353.09641,419.865 C 353.45665,415.14575 355.37501,414.23244 356.95294,413.60267 C 360.048,412.22272 357.54279,408.70479 364.05025,410.4715 C 369.11211,411.92542 372.36261,403.0904 382.62851,409.21904 C 385.66608,410.86394 386.65302,410.24049 388.05586,410.26276 C 398.96599,410.70712 403.53287,416.64518 410.02546,422.14929 C 413.92452,425.87701 410.67966,428.4531 411.67058,433.149 C 412.43202,435.28962 414.79654,435.18722 416.18997,437.40406 C 417.1647,440.61296 414.45345,441.4591 417.56894,442.74348 C 426.26352,446.04873 428.63675,455.69213 435.30262,461.18651 L 439.19824,476.85222 z"
           style="fill:#de87cd;fill-rule:evenodd;stroke:#000000;stroke-width:0.69626091;stroke-linecap:butt;stroke-linejoin:miter;stroke-miterlimit:4;stroke-dasharray:none;stroke-opacity:1" />
        <path
           sodipodi:nodetypes="cc"
           id="path3519"
           d="M 322.1946,442.21491 C 360.87664,442.34633 400.72895,463.01144 435.86709,477.65484"
           style="fill:none;fill-rule:evenodd;stroke:#000000;stroke-width:0.30000001;stroke-linecap:butt;stroke-linejoin:miter;stroke-miterlimit:4;stroke-dasharray:none;stroke-opacity:1" />
        <path
           sodipodi:nodetypes="cc"
           id="path3521"
           d="M 331.90014,468.53752 C 333.74039,461.5073 339.82622,462.36174 344.1056,459.86134"
           style="fill:none;fill-rule:evenodd;stroke:#000000;stroke-width:0.30000001;stroke-linecap:butt;stroke-linejoin:miter;stroke-miterlimit:4;stroke-dasharray:none;stroke-opacity:1" />
        <path
           sodipodi:nodetypes="cc"
           id="path3523"
           d="M 383.07482,499.69852 C 376.7606,484.41502 387.1087,490.50194 389.83929,477.8019"
           style="fill:none;fill-rule:evenodd;stroke:#000000;stroke-width:0.30000001;stroke-linecap:butt;stroke-linejoin:miter;stroke-miterlimit:4;stroke-dasharray:none;stroke-opacity:1" />
        <path
           sodipodi:nodetypes="cc"
           id="path3525"
           d="M 399.83894,498.83057 C 394.08608,493.09548 399.54472,486.77217 400.42716,481.03708"
           style="fill:none;fill-rule:evenodd;stroke:#000000;stroke-width:0.30000001;stroke-linecap:butt;stroke-linejoin:miter;stroke-miterlimit:4;stroke-dasharray:none;stroke-opacity:1" />
        <path
           sodipodi:nodetypes="cc"
           id="path3527"
           d="M 412.32413,491.27886 C 410.15378,485.11828 415.55348,482.24255 418.36771,481.03708"
           style="fill:none;fill-rule:evenodd;stroke:#000000;stroke-width:0.30000001;stroke-linecap:butt;stroke-linejoin:miter;stroke-miterlimit:4;stroke-dasharray:none;stroke-opacity:1" />
        <path
           sodipodi:nodetypes="cc"
           id="path3529"
           d="M 344.39971,484.41931 C 349.79722,487.64166 350.71253,477.03142 360.2815,477.06663"
           style="fill:none;fill-rule:evenodd;stroke:#000000;stroke-width:0.30000001;stroke-linecap:butt;stroke-linejoin:miter;stroke-miterlimit:4;stroke-dasharray:none;stroke-opacity:1" />
        <path
           sodipodi:nodetypes="cc"
           id="path3531"
           d="M 353.07588,495.59539 C 364.97931,496.64886 366.63399,482.55453 377.33973,478.39011"
           style="fill:none;fill-rule:evenodd;stroke:#000000;stroke-width:0.30000001;stroke-linecap:butt;stroke-linejoin:miter;stroke-miterlimit:4;stroke-dasharray:none;stroke-opacity:1" />
        <path
           sodipodi:nodetypes="cc"
           id="path3533"
           d="M 342.78212,452.0675 C 371.52724,455.11801 399.96078,468.62462 427.63209,479.27243"
           style="fill:none;fill-rule:evenodd;stroke:#000000;stroke-width:0.30000001;stroke-linecap:butt;stroke-linejoin:miter;stroke-miterlimit:4;stroke-dasharray:none;stroke-opacity:1" />
        <path
           sodipodi:nodetypes="cc"
           id="path3535"
           d="M 344.25265,436.77392 C 377.05558,442.95091 406.2633,458.63128 430.86727,472.0668"
           style="fill:none;fill-rule:evenodd;stroke:#000000;stroke-width:0.30000001;stroke-linecap:butt;stroke-linejoin:miter;stroke-miterlimit:4;stroke-dasharray:none;stroke-opacity:1" />
        <path
           sodipodi:nodetypes="cc"
           id="path3537"
           d="M 348.77814,422.54289 C 352.10333,423.52655 355.363,429.93624 361.16382,431.62704"
           style="fill:none;fill-rule:evenodd;stroke:#000000;stroke-width:0.30000001;stroke-linecap:butt;stroke-linejoin:miter;stroke-miterlimit:4;stroke-dasharray:none;stroke-opacity:1" />
        <path
           sodipodi:nodetypes="cc"
           id="path3539"
           d="M 411.75029,424.56847 C 412.75244,432.5466 399.99084,427.84953 399.25073,437.21508"
           style="fill:none;fill-rule:evenodd;stroke:#000000;stroke-width:0.30000001;stroke-linecap:butt;stroke-linejoin:miter;stroke-miterlimit:4;stroke-dasharray:none;stroke-opacity:1" />
        <path
           sodipodi:nodetypes="cc"
           id="path3541"
           d="M 385.25932,410.44639 C 391.17401,417.2216 377.27329,420.05292 381.86504,429.46185"
           style="fill:none;fill-rule:evenodd;stroke:#000000;stroke-width:0.30000001;stroke-linecap:butt;stroke-linejoin:miter;stroke-miterlimit:4;stroke-dasharray:none;stroke-opacity:1" />
        <path
           sodipodi:nodetypes="ccccccccccccccccccccccccccc"
           id="path3543"
           d="M 459.24556,511.36588 C 453.88787,510.35487 455.89248,504.25295 450.96154,501.70118 C 447.02292,499.22776 448.56013,496.97921 449.40828,494.28008 C 450.09373,492.66646 452.45772,487.15691 448.02761,483.57988 C 444.55093,480.64645 441.48239,480.38027 441.8146,476.15878 C 442.185,474.68945 443.36829,474.33288 444.57594,471.84418 C 445.86094,468.31345 448.74013,464.25406 445.95661,457.86489 C 441.58368,443.38357 456.42824,445.90386 461.40286,439.65729 C 465.85585,433.03296 473.37027,436.46553 477.53945,433.35799 C 482.18462,429.85782 487.75117,431.74329 489.10256,433.53057 C 490.04968,435.19437 490.30302,435.1392 491.86391,434.56607 C 497.66722,432.16114 505.75919,437.03194 508.60454,439.39842 C 512.72371,443.06782 509.64832,445.04568 511.36588,446.47436 C 512.48064,447.30383 513.99307,447.49214 514.99014,449.40828 C 516.1322,452.49565 512.99003,455.22111 515.85306,455.96647 C 527.96892,458.52729 527.3739,467.31677 530.00493,468.91026 C 532.21472,470.80496 535.05627,470.10176 534.83728,478.40237 C 534.66871,481.34739 536.71599,480.08673 539.66963,485.99605 C 543.183,493.74803 539.52259,499.48572 535.31196,502.56378 C 529.8029,505.9782 524.36292,499.77191 520.68541,502.90927 C 515.50171,508.56187 504.85222,504.20732 505.67061,508.60454 C 505.80642,510.65119 505.87099,512.67689 502.21894,513.60947 C 500.11441,513.80523 501.42331,514.79283 502.21894,514.99014 C 502.93214,515.23133 505.66844,516.7412 503.77219,518.6144 C 502.4335,520.9227 493.34881,525.7231 484.09763,524.13708 C 477.52667,523.81587 478.08572,516.2365 473.22485,516.54339 C 467.29341,517.10657 464.64258,511.61721 459.24556,511.36588 z"
           style="fill:#de87cd;fill-rule:evenodd;stroke:#000000;stroke-width:0.69626091;stroke-linecap:butt;stroke-linejoin:miter;stroke-miterlimit:4;stroke-dasharray:none;stroke-opacity:1" />
        <path
           sodipodi:nodetypes="cc"
           id="path3545"
           d="M 444.5188,476.62745 C 463.89299,471.12508 509.79668,473.14257 537.46701,495.17999"
           style="fill:none;fill-rule:evenodd;stroke:#000000;stroke-width:0.30000001;stroke-linecap:butt;stroke-linejoin:miter;stroke-miterlimit:4;stroke-dasharray:none;stroke-opacity:1" />
        <path
           sodipodi:nodetypes="cc"
           id="path3547"
           d="M 448.78588,470.87616 C 472.96602,464.94878 497.14616,466.72222 521.3263,472.54589"
           style="fill:none;fill-rule:evenodd;stroke:#000000;stroke-width:0.30000001;stroke-linecap:butt;stroke-linejoin:miter;stroke-miterlimit:4;stroke-dasharray:none;stroke-opacity:1" />
        <path
           sodipodi:nodetypes="cc"
           id="path3549"
           d="M 448.60036,479.96691 C 488.77548,480.25936 502.45033,489.12975 517.43027,495.92209"
           style="fill:none;fill-rule:evenodd;stroke:#000000;stroke-width:0.30000001;stroke-linecap:butt;stroke-linejoin:miter;stroke-miterlimit:4;stroke-dasharray:none;stroke-opacity:1" />
        <path
           sodipodi:nodetypes="cc"
           id="path3551"
           d="M 501.04971,514.2891 C 494.53273,502.3488 489.66133,498.38026 474.73649,489.90202"
           style="fill:none;fill-rule:evenodd;stroke:#000000;stroke-width:0.30000001;stroke-linecap:butt;stroke-linejoin:miter;stroke-miterlimit:4;stroke-dasharray:none;stroke-opacity:1" />
        <path
           sodipodi:nodetypes="cc"
           id="path3553"
           d="M 474.50067,516.33925 C 471.50717,507.46231 466.99635,500.68436 458.10239,491.80742"
           style="fill:none;fill-rule:evenodd;stroke:#000000;stroke-width:0.30000001;stroke-linecap:butt;stroke-linejoin:miter;stroke-miterlimit:4;stroke-dasharray:none;stroke-opacity:1" />
        <path
           sodipodi:nodetypes="cc"
           id="path3555"
           d="M 482.33478,445.61085 C 471.21988,449.86997 453.03475,440.19581 450.62477,463.07763"
           style="fill:none;fill-rule:evenodd;stroke:#000000;stroke-width:0.30000001;stroke-linecap:butt;stroke-linejoin:miter;stroke-miterlimit:4;stroke-dasharray:none;stroke-opacity:1" />
        <path
           sodipodi:nodetypes="cc"
           id="path3557"
           d="M 510.67004,446.09897 C 509.06559,457.84599 482.72127,450.6782 468.15638,457.2335"
           style="fill:none;fill-rule:evenodd;stroke:#000000;stroke-width:0.30000001;stroke-linecap:butt;stroke-linejoin:miter;stroke-miterlimit:4;stroke-dasharray:none;stroke-opacity:1" />
        <path
           sodipodi:nodetypes="cccccc"
           id="path3575"
           d="M 437.77983,475.79458 C 415.06329,491.62518 415.56935,515.76193 405.95893,528.35668 L 418.44678,551.90249 L 442.50413,534.81035 C 443.42267,516.75523 439.04946,499.94253 447.59308,477.56641 C 448.6518,474.17945 442.08172,471.91835 437.77983,475.79458 z"
           style="fill:#de87cd;fill-rule:evenodd;stroke:#000000;stroke-width:0.69626091;stroke-linecap:butt;stroke-linejoin:miter;stroke-miterlimit:4;stroke-dasharray:none;stroke-opacity:1" />
        <path
           sodipodi:nodetypes="cccccccccccccccccccccccccccccccccccccccccccccccccccccccccc"
           id="path3577"
           d="M 411.46363,581.26537 C 409.81613,583.50428 407.12696,584.17265 406.17322,587.84296 C 405.13618,590.33203 403.23066,589.55817 400.21686,590.75778 C 399.83249,591.06944 394.8969,592.26404 393.88031,589.87066 C 392.44769,586.95332 387.91603,587.05095 387.2637,585.97926 C 386.50938,584.64846 389.52489,583.72934 387.67048,582.64699 C 384.36476,581.45338 387.53263,580.23688 387.92394,577.95794 C 388.17474,576.42774 388.43634,574.85241 386.45014,573.77104 C 383.2528,572.37664 375.89533,576.62935 380.06661,567.05906 C 380.35742,565.99028 381.42093,562.36844 378.41911,561.1027 C 374.13973,559.18845 378.49128,558.28243 376.89834,555.65326 C 375.47032,553.33004 376.26798,551.72147 379.05276,548.93651 C 380.07082,547.58471 377.80702,546.23292 380.32008,544.88112 C 383.64056,541.70596 377.9292,537.974 383.36162,536.51686 C 384.6218,536.2464 383.90985,535.82552 383.23489,535.24955 C 381.85327,534.20422 381.44256,529.35554 386.40317,529.67338 C 389.27527,530.00022 389.50123,524.27992 392.2328,528.40607 C 393.90881,531.48027 396.39301,530.45629 396.66839,529.16646 C 399.54588,519.92651 400.46737,530.65528 402.11783,531.70108 C 404.14052,532.80313 404.86265,531.40502 404.77918,530.5605 C 405.42051,524.73318 409.89431,527.22774 410.77391,528.36996 C 412.01049,529.80717 414.46304,533.89652 417.79768,531.19619 C 419.15016,529.87587 418.23718,527.32122 414.66421,525.23779 C 411.04988,522.8665 414.21652,521.33342 415.55133,520.96717 C 417.19778,520.48046 420.48134,518.01785 418.08595,516.62008 C 416.56499,515.89439 416.93642,514.79675 417.57902,514.08545 C 418.31549,513.32928 419.47566,513.42756 420.24038,514.08545 C 421.21143,514.93297 420.64045,515.60621 420.49384,515.73296 C 418.25584,517.84502 420.14592,518.17522 421.38096,518.52104 C 421.77515,518.55994 424.26473,520.09467 421.42401,520.89071 C 420.07625,521.12009 418.26212,522.92504 421.50769,523.97048 C 423.19875,524.23072 429.32709,530.05287 421.88788,530.81396 C 420.5881,530.51826 417.20289,529.93123 419.60672,535.24955 C 420.26571,536.80643 419.85692,540.77249 423.66212,536.89706 C 428.47445,532.42897 428.06585,534.50769 430.63233,535.88321 C 432.73204,537.05267 429.69098,539.38628 431.41897,540.25762 C 433.57243,541.23822 431.53983,536.62675 434.05407,536.64359 C 435.63523,536.95096 436.21492,537.04608 439.12331,533.98224 C 439.88706,533.41321 442.12691,529.16069 443.20344,532.72236 C 444.2976,536.96415 448.2707,535.6046 445.22951,539.3071 C 444.69962,540.29358 444.78937,541.03334 447.00232,541.83969 C 449.43672,542.82475 446.12908,545.52043 449.66154,546.90487 C 450.46608,547.35655 453.23885,548.79569 450.04143,550.32387 C 447.72138,551.62435 451.612,552.60756 452.44739,553.74287 C 453.04712,554.49647 457.22758,559.07364 451.43436,561.34064 C 446.87618,562.19213 452.97142,565.44841 449.66154,567.03897 C 448.86999,567.28829 446.80131,569.61752 449.28165,571.97752 C 450.4789,573.21607 450.39942,575.86819 446.74906,577.0427 C 445.09634,577.39499 443.21436,579.68913 443.64214,582.71878 C 444.49774,589.04727 440.88574,586.39361 439.27792,587.2997 C 437.09583,589.08107 437.56132,594.16533 434.21274,593.63118 C 430.17037,593.67936 429.00009,597.07142 425.09541,595.78388 C 423.3766,595.37643 423.84054,597.1595 420.66338,595.78388 C 420.18278,595.4877 418.72427,595.10092 417.49764,595.78388 C 415.91479,596.12292 416.26502,594.63873 413.69875,594.64421 C 411.55558,594.28496 414.24102,591.36478 412.30583,590.84533 C 407.70979,589.37922 409.87243,586.08645 411.29279,582.99429 C 411.94992,582.17791 411.60634,581.76182 411.46363,581.26537 z"
           style="fill:#e9afdd;fill-rule:evenodd;stroke:none;stroke-width:1;stroke-linecap:butt;stroke-linejoin:miter;stroke-miterlimit:4;stroke-dasharray:none;stroke-opacity:1" />
        <path
           sodipodi:nodetypes="ccccccccccccccccccccccccccccccccccccccccccccccccccccccccccccccccccccccccccccccccc"
           d="M 443.01962,542.37358 L 446.56086,543.2291 L 444.34888,544.56165 L 447.89301,546.49524 L 446.39874,547.58946 L 448.60059,549.6275 L 444.99643,549.6275 L 448.43677,552.08488 L 444.99643,552.74019 L 448.98054,554.81764 L 444.21001,556.88812 L 446.83122,559.83699 L 443.55471,559.34551 L 445.02914,562.62203 L 440.93349,561.1476 L 443.22705,564.58794 L 438.80376,563.27733 L 439.95054,566.22619 L 436.5102,564.58794 L 437.32933,568.02828 L 433.88898,566.06237 L 434.54429,568.84741 L 428.72539,567.25499 L 427.42148,569.26702 L 423.16201,565.49903 L 423.32584,569.59467 L 418.90254,565.3352 L 418.41107,569.26702 L 415.62603,565.66285 L 415.29838,569.92232 L 412.18569,565.49903 L 411.03891,568.77554 L 409.56447,564.84372 L 406.94326,568.28407 L 406.61561,563.69694 L 403.89392,565.98228 L 403.75894,562.80423 L 401.416,564.90523 L 401.20016,561.21545 L 398.61488,563.77433 L 398.91075,560.00371 L 395.40959,561.08139 L 396.00175,557.52619 L 392.87773,559.33101 L 393.55074,556.28754 L 390.80375,557.82299 L 392.3654,553.43278 L 388.29871,554.9145 L 390.18356,550.57813 L 387.652,551.8173 L 388.75587,548.18126 L 385.41622,548.28933 L 387.51671,545.6497 L 383.96152,545.05754 L 387.11235,542.09461 L 383.26087,541.28703 L 386.60033,539.18593 L 383.61068,538.18972 L 387.27344,537.13897 L 384.63391,536.035 L 388.72763,535.38818 L 385.52245,533.69175 L 388.29645,532.99121 L 384.98351,530.94466 L 386.39368,529.68727 C 389.27527,530.00022 389.50123,524.27992 392.2328,528.40607 C 393.90881,531.48027 396.39301,530.45629 396.66839,529.16646 C 399.54588,519.92651 400.46737,530.65528 402.11783,531.70108 L 401.65842,541.90073 L 415.80178,548.87584 L 430.68216,547.06539 L 434.0143,536.65464 C 435.63523,536.95096 436.21492,537.04608 439.12331,533.98224 L 441.35381,534.88029 L 439.56053,535.77693 L 442.73326,536.81151 L 440.80203,537.91507 L 444.04373,538.46685 L 441.42278,539.70835 L 444.25065,540.81191 L 443.01962,542.37358 z"
           style="fill:#f4d7ee;fill-rule:evenodd;stroke:none;stroke-width:1;stroke-linecap:butt;stroke-linejoin:miter;stroke-miterlimit:4;stroke-dasharray:none;stroke-opacity:1"
           id="path3673" />
        <path
           sodipodi:nodetypes="cccccccccccccccc"
           id="path3659"
           d="M 410.16781,552.30791 C 404.51156,560.34119 397.79919,566.31068 387.77564,569.10319 C 390.68975,570.86064 393.92913,570.99171 397.27754,570.57763 C 396.49626,574.43564 394.21345,576.46016 393.01807,579.09656 C 396.85609,577.98397 401.63693,577.00308 403.33909,574.18179 C 403.91748,577.4037 403.74298,580.62561 403.01144,583.84752 C 405.41721,581.91116 407.87604,580.01459 408.58152,576.80301 L 409.7283,582.37308 L 413.00481,578.11361 C 413.26207,581.11708 415.50104,584.12056 417.42811,587.12403 C 417.28546,583.90212 416.73334,580.68022 418.24724,577.45831 C 419.59473,579.75187 423.90784,582.04543 427.25766,584.33899 C 425.49275,580.89865 423.42036,577.45831 423.32584,574.01797 C 426.48131,575.3404 430.00575,576.29387 434.466,576.31153 C 423.95864,569.20584 424.16127,561.54423 422.90523,554.03122 L 410.16781,552.30791 z"
           style="fill:#c837ab;fill-rule:evenodd;stroke:none;stroke-width:1;stroke-linecap:butt;stroke-linejoin:miter;stroke-miterlimit:4;stroke-dasharray:none;stroke-opacity:1" />
        <path
           sodipodi:nodetypes="cc"
           id="path3579"
           d="M 336.7588,439.35982 C 366.61998,443.51259 398.09816,456.97013 429.43705,473.31401"
           style="fill:none;fill-rule:evenodd;stroke:#000000;stroke-width:0.30000001;stroke-linecap:butt;stroke-linejoin:miter;stroke-miterlimit:4;stroke-dasharray:none;stroke-opacity:1" />
        <path
           sodipodi:nodetypes="cc"
           id="path3581"
           d="M 335.22808,446.87427 C 364.62918,449.74424 393.06461,462.58825 427.62801,477.07124"
           style="fill:none;fill-rule:evenodd;stroke:#000000;stroke-width:0.30000001;stroke-linecap:butt;stroke-linejoin:miter;stroke-miterlimit:4;stroke-dasharray:none;stroke-opacity:1" />
        <path
           sodipodi:nodetypes="cc"
           id="path3583"
           d="M 352.30248,458.80474 C 377.84325,461.61083 399.92355,472.59245 422.67039,479.86882"
           style="fill:none;fill-rule:evenodd;stroke:#000000;stroke-width:0.30000001;stroke-linecap:butt;stroke-linejoin:miter;stroke-miterlimit:4;stroke-dasharray:none;stroke-opacity:1" />
        <path
           sodipodi:nodetypes="cc"
           id="path3585"
           d="M 362.48731,436.5833 C 388.2214,444.94685 409.17262,457.29612 431.46637,468.52662"
           style="fill:none;fill-rule:evenodd;stroke:#000000;stroke-width:0.30000001;stroke-linecap:butt;stroke-linejoin:miter;stroke-miterlimit:4;stroke-dasharray:none;stroke-opacity:1" />
        <path
           sodipodi:nodetypes="cc"
           id="path3611"
           d="M 449.73983,468.28568 C 469.89972,461.7556 490.05962,460.88234 510.21951,464.30347"
           style="fill:none;fill-rule:evenodd;stroke:#000000;stroke-width:0.30000001;stroke-linecap:butt;stroke-linejoin:miter;stroke-miterlimit:4;stroke-dasharray:none;stroke-opacity:1" />
        <path
           sodipodi:nodetypes="cc"
           id="path3613"
           d="M 447.25096,473.51231 C 475.39713,468.00883 501.96751,472.48545 528.13942,479.48562"
           style="fill:none;fill-rule:evenodd;stroke:#000000;stroke-width:0.30000001;stroke-linecap:butt;stroke-linejoin:miter;stroke-miterlimit:4;stroke-dasharray:none;stroke-opacity:1" />
        <path
           sodipodi:nodetypes="cc"
           id="path3615"
           d="M 526.89498,494.41887 C 502.57631,482.62371 477.27037,474.61309 448.99317,477.99229"
           style="fill:none;fill-rule:evenodd;stroke:#000000;stroke-width:0.30000001;stroke-linecap:butt;stroke-linejoin:miter;stroke-miterlimit:4;stroke-dasharray:none;stroke-opacity:1" />
        <path
           sodipodi:nodetypes="cc"
           id="path3617"
           d="M 503.49955,497.40552 C 490.58926,490.74343 474.26733,483.15905 451.97982,482.22338"
           style="fill:none;fill-rule:evenodd;stroke:#000000;stroke-width:0.30000001;stroke-linecap:butt;stroke-linejoin:miter;stroke-miterlimit:4;stroke-dasharray:none;stroke-opacity:1" />
        <path
           sodipodi:nodetypes="ccccccccc"
           id="path3619"
           d="M 440.07007,476.24097 C 439.19438,478.3659 435.33714,479.15079 434.11167,482.19936 C 433.40196,485.30631 431.98378,485.71744 430.91968,486.34896 C 428.80463,487.33145 430.89753,489.4821 428.67348,490.936 C 427.51477,491.97486 426.44474,491.89453 425.38688,494.22255 C 424.60702,496.09407 425.29762,497.21318 423.15248,497.30815 C 419.17935,497.82705 421.44417,500.46218 419.96048,503.16015 C 419.4238,504.20642 419.15965,504.47665 420.17328,506.56495 C 426.2334,514.92767 419.09768,510.82457 417.32031,514.14516"
           style="fill:none;fill-rule:evenodd;stroke:#000000;stroke-width:0.69626091;stroke-linecap:butt;stroke-linejoin:miter;stroke-miterlimit:4;stroke-dasharray:none;stroke-opacity:1" />
        <path
           style="fill:#ffcc00;fill-rule:evenodd;stroke:none;stroke-width:1;stroke-linecap:butt;stroke-linejoin:miter;stroke-miterlimit:4;stroke-dasharray:none;stroke-opacity:1"
           d="M 402.11783,531.70108 C 404.14052,532.80313 404.86265,531.40502 404.77918,530.5605 C 405.42051,524.73318 409.89431,527.22774 410.77391,528.36996 C 412.01049,529.80717 414.46304,533.89652 417.79768,531.19619 C 419.15016,529.87587 418.23718,527.32122 414.66421,525.23779 C 411.04988,522.8665 414.21652,521.33342 415.55133,520.96717 C 417.19778,520.48046 420.48134,518.01785 418.08595,516.62008 C 416.56499,515.89439 416.93642,514.79675 417.57902,514.08545 C 418.31549,513.32928 419.47566,513.42756 420.24038,514.08545 C 421.21143,514.93297 420.64045,515.60621 420.49384,515.73296 C 418.25584,517.84502 420.14592,518.17522 421.38096,518.52104 C 421.77515,518.55994 424.26473,520.09467 421.42401,520.89071 C 420.07625,521.12009 418.26212,522.92504 421.50769,523.97048 C 423.19875,524.23072 429.32709,530.05287 421.88788,530.81396 C 420.5881,530.51826 417.20289,529.93123 419.60672,535.24955 C 420.26571,536.80643 419.85692,540.77249 423.66212,536.89706 C 428.47445,532.42897 428.06585,534.50769 430.63233,535.88321 C 432.73204,537.05267 429.69098,539.38628 431.41897,540.25762 C 433.57243,541.23822 431.53983,536.62675 434.05407,536.64359 L 434.47978,537.22052 C 438.04847,541.80415 442.54584,545.45909 447.39518,548.76207 C 444.86827,549.71006 442.82055,549.2205 440.7984,548.6542 C 441.94271,551.06568 444.61141,552.86741 446.97508,554.79115 C 444.33539,554.62314 441.77492,554.34951 439.89574,553.1675 C 440.97403,555.21126 442.59658,557.25501 444.70424,559.29877 C 441.36589,558.38006 438.68187,557.35229 436.88687,556.17636 C 437.37628,558.58345 439.04537,560.99054 440.7984,563.39763 C 438.1595,562.00556 435.48197,560.62314 433.84395,558.98085 C 433.57445,561.02839 433.79346,563.07593 434.80905,565.12346 C 432.00457,563.34086 430.50423,561.55825 428.95029,559.77564 C 428.03788,561.8175 429.04591,563.95588 429.14331,565.99774 C 426.8156,564.22076 425.31276,562.44379 423.96397,560.66681 C 422.28616,562.19352 422.63529,563.72023 421.86992,565.24694 C 420.39157,562.93607 418.9917,560.62521 419.0278,558.31434 L 414.39021,564.30029 L 412.86537,556.9941 C 411.19123,559.88468 408.81384,561.10113 407.40532,562.53579 C 407.84434,559.91341 409.0761,557.38452 408.35207,554.76214 C 406.29666,557.00397 404.09579,558.95489 401.38159,559.87914 C 402.22717,557.37746 403.74246,555.32321 403.59913,552.5743 C 402.15883,554.49736 399.93614,555.76842 397.00005,556.44499 C 398.26973,554.47971 400.09442,552.68035 400.12608,550.21987 C 399.0188,551.89946 396.0931,552.28019 393.29591,552.7527 C 395.31579,551.22398 396.94175,549.53768 397.71899,547.5119 C 395.90143,548.28563 393.52946,547.67334 391.2338,547.25183 C 393.65288,546.15785 396.01103,544.94201 397.93823,542.86428 C 395.65818,543.43406 392.41326,543.13426 389.64773,542.49032 C 393.01038,541.94277 396.00641,540.66199 398.37343,538.12318 C 395.64675,537.57068 393.01939,537.71341 390.06252,535.54952 C 394.67706,534.85162 399.45251,534.59185 402.11783,531.70108 z"
           id="path3655"
           sodipodi:nodetypes="cccccccccccccccccccccccccccccccccccccccccccccccccc" />
        <path
           sodipodi:nodetypes="cc"
           id="path3621"
           d="M 396.4389,537.01013 C 403.53548,536.44838 409.36124,533.29205 412.66976,530.59251"
           style="fill:none;fill-rule:evenodd;stroke:#000000;stroke-width:0.1;stroke-linecap:butt;stroke-linejoin:miter;stroke-miterlimit:4;stroke-dasharray:none;stroke-opacity:1" />
        <path
           sodipodi:nodetypes="cc"
           id="path3623"
           d="M 396.56017,540.57438 C 404.8156,539.30635 410.14895,534.80441 414.0839,531.52825"
           style="fill:none;fill-rule:evenodd;stroke:#000000;stroke-width:0.1;stroke-linecap:butt;stroke-linejoin:miter;stroke-miterlimit:4;stroke-dasharray:none;stroke-opacity:1" />
        <path
           sodipodi:nodetypes="cc"
           id="path3625"
           d="M 396.80272,545.13537 C 405.43403,541.31656 411.87604,537.08858 415.78171,531.97841"
           style="fill:none;fill-rule:evenodd;stroke:#000000;stroke-width:0.1;stroke-linecap:butt;stroke-linejoin:miter;stroke-miterlimit:4;stroke-dasharray:none;stroke-opacity:1" />
        <path
           sodipodi:nodetypes="cc"
           id="path3627"
           d="M 398.38858,548.70752 C 406.56295,544.47864 419.41417,533.05234 421.78572,523.99269"
           style="fill:none;fill-rule:evenodd;stroke:#000000;stroke-width:0.1;stroke-linecap:butt;stroke-linejoin:miter;stroke-miterlimit:4;stroke-dasharray:none;stroke-opacity:1" />
        <path
           sodipodi:nodetypes="cc"
           id="path3629"
           d="M 400.92239,551.87413 C 408.17098,546.30265 414.50243,540.42037 418.87426,533.25069"
           style="fill:none;fill-rule:evenodd;stroke:#000000;stroke-width:0.1;stroke-linecap:butt;stroke-linejoin:miter;stroke-miterlimit:4;stroke-dasharray:none;stroke-opacity:1" />
        <path
           sodipodi:nodetypes="cc"
           id="path3631"
           d="M 404.8519,553.91054 C 412.17612,547.86927 416.47931,541.48973 419.61768,535.12647"
           style="fill:none;fill-rule:evenodd;stroke:#000000;stroke-width:0.1;stroke-linecap:butt;stroke-linejoin:miter;stroke-miterlimit:4;stroke-dasharray:none;stroke-opacity:1" />
        <path
           sodipodi:nodetypes="cc"
           id="path3633"
           d="M 420.35404,537.66396 C 417.68759,544.74271 414.42828,549.82822 410.58637,554.723"
           style="fill:none;fill-rule:evenodd;stroke:#000000;stroke-width:0.1;stroke-linecap:butt;stroke-linejoin:miter;stroke-miterlimit:4;stroke-dasharray:none;stroke-opacity:1" />
        <path
           sodipodi:nodetypes="cs"
           id="path3635"
           d="M 443.38987,548.66894 C 438.24891,545.33328 434.85857,540.97099 432.94286,537.19242"
           style="fill:none;fill-rule:evenodd;stroke:#000000;stroke-width:0.1;stroke-linecap:butt;stroke-linejoin:miter;stroke-miterlimit:4;stroke-dasharray:none;stroke-opacity:1" />
        <path
           sodipodi:nodetypes="cs"
           id="path3637"
           d="M 441.58521,551.74493 C 436.26058,547.70574 434.39181,543.86022 432.40588,539.47968"
           style="fill:none;fill-rule:evenodd;stroke:#000000;stroke-width:0.1;stroke-linecap:butt;stroke-linejoin:miter;stroke-miterlimit:4;stroke-dasharray:none;stroke-opacity:1" />
        <path
           sodipodi:nodetypes="cc"
           id="path3639"
           d="M 439.19907,555.63952 C 433.42952,548.1699 430.04122,541.19005 429.04179,534.83637"
           style="fill:none;fill-rule:evenodd;stroke:#000000;stroke-width:0.1;stroke-linecap:butt;stroke-linejoin:miter;stroke-miterlimit:4;stroke-dasharray:none;stroke-opacity:1" />
        <path
           sodipodi:nodetypes="cs"
           id="path3641"
           d="M 436.10293,558.02472 C 432.39001,552.56026 428.10334,542.58609 426.96274,534.14521"
           style="fill:none;fill-rule:evenodd;stroke:#000000;stroke-width:0.1;stroke-linecap:butt;stroke-linejoin:miter;stroke-miterlimit:4;stroke-dasharray:none;stroke-opacity:1" />
        <path
           sodipodi:nodetypes="cc"
           id="path3643"
           d="M 432.36655,559.60175 C 428.64771,551.24988 425.88332,543.65155 425.4552,535.26502"
           style="fill:none;fill-rule:evenodd;stroke:#000000;stroke-width:0.1;stroke-linecap:butt;stroke-linejoin:miter;stroke-miterlimit:4;stroke-dasharray:none;stroke-opacity:1" />
        <path
           sodipodi:nodetypes="cc"
           id="path3645"
           d="M 427.94147,559.52016 C 424.37995,550.7192 423.63575,543.64996 423.90793,536.56008"
           style="fill:none;fill-rule:evenodd;stroke:#000000;stroke-width:0.1;stroke-linecap:butt;stroke-linejoin:miter;stroke-miterlimit:4;stroke-dasharray:none;stroke-opacity:1" />
        <path
           sodipodi:nodetypes="ccc"
           id="path3647"
           d="M 395.46409,568.55852 C 410.15187,563.38749 417.27973,552.11975 421.54978,538.54732 C 419.69782,548.61646 417.37259,561.20034 424.71552,571.85089"
           style="fill:none;fill-rule:evenodd;stroke:#000000;stroke-width:0.1;stroke-linecap:butt;stroke-linejoin:miter;stroke-miterlimit:4;stroke-dasharray:none;stroke-opacity:1" />
        <path
           sodipodi:nodetypes="ccc"
           id="path3649"
           d="M 399.7695,573.11719 C 409.94978,565.72153 418.18328,551.93287 421.27704,539.81287 C 418.96435,549.75879 415.03381,564.91582 419.77697,575.64978"
           style="fill:none;fill-rule:evenodd;stroke:#000000;stroke-width:0.1;stroke-linecap:butt;stroke-linejoin:miter;stroke-miterlimit:4;stroke-dasharray:none;stroke-opacity:1" />
        <path
           sodipodi:nodetypes="ccc"
           id="path3651"
           d="M 404.73497,576.71368 C 411.84495,565.78364 417.58454,553.91618 421.12351,540.26313 C 416.6068,554.64514 415.59842,566.76909 414.81201,579.3904"
           style="fill:none;fill-rule:evenodd;stroke:#000000;stroke-width:0.1;stroke-linecap:butt;stroke-linejoin:miter;stroke-miterlimit:4;stroke-dasharray:none;stroke-opacity:1" />
        <path
           sodipodi:nodetypes="cc"
           id="path3653"
           d="M 410.24585,580.09894 C 412.43618,571.19579 415.67054,558.996 418.4642,549.69299"
           style="fill:none;fill-rule:evenodd;stroke:#000000;stroke-width:0.1;stroke-linecap:butt;stroke-linejoin:miter;stroke-miterlimit:4;stroke-dasharray:none;stroke-opacity:1" />
        <path
           sodipodi:nodetypes="cc"
           id="path3657"
           d="M 422.52366,537.8185 C 421.55692,545.32078 422.04899,551.34102 423.14503,557.4662"
           style="fill:none;fill-rule:evenodd;stroke:#000000;stroke-width:0.1;stroke-linecap:butt;stroke-linejoin:miter;stroke-miterlimit:4;stroke-dasharray:none;stroke-opacity:1" />
        <path
           sodipodi:nodetypes="cc"
           id="path3661"
           d="M 416.79905,526.97009 C 418.22209,525.7163 419.08774,524.39991 419.939,522.86023"
           style="fill:none;fill-rule:evenodd;stroke:#000000;stroke-width:0.1;stroke-linecap:butt;stroke-linejoin:miter;stroke-miterlimit:4;stroke-dasharray:none;stroke-opacity:1" />
        <path
           sodipodi:nodetypes="cc"
           id="path3663"
           d="M 417.87473,528.25807 C 418.81966,527.02118 419.7723,526.08803 420.84605,523.61202"
           style="fill:none;fill-rule:evenodd;stroke:#000000;stroke-width:0.1;stroke-linecap:butt;stroke-linejoin:miter;stroke-miterlimit:4;stroke-dasharray:none;stroke-opacity:1" />
        <path
           sodipodi:nodetypes="cc"
           id="path3665"
           d="M 415.60573,525.98908 C 417.99409,523.97204 419.86601,520.66808 420.90006,518.26366"
           style="fill:none;fill-rule:evenodd;stroke:#000000;stroke-width:0.1;stroke-linecap:butt;stroke-linejoin:miter;stroke-miterlimit:4;stroke-dasharray:none;stroke-opacity:1" />
        <path
           sodipodi:nodetypes="cc"
           id="path3667"
           d="M 420.74684,530.67617 C 421.58069,528.81409 422.30473,526.78731 423.035,524.76986"
           style="fill:none;fill-rule:evenodd;stroke:#000000;stroke-width:0.1;stroke-linecap:butt;stroke-linejoin:miter;stroke-miterlimit:4;stroke-dasharray:none;stroke-opacity:1" />
        <path
           sodipodi:nodetypes="cc"
           id="path3669"
           d="M 422.74326,530.73338 C 422.97611,529.03346 423.53745,527.43366 424.09041,525.73374"
           style="fill:none;fill-rule:evenodd;stroke:#000000;stroke-width:0.1;stroke-linecap:butt;stroke-linejoin:miter;stroke-miterlimit:4;stroke-dasharray:none;stroke-opacity:1" />
        <path
           sodipodi:nodetypes="cc"
           id="path3671"
           d="M 424.42506,530.17277 C 424.46399,529.04013 424.65414,527.90749 424.95992,526.77485"
           style="fill:none;fill-rule:evenodd;stroke:#000000;stroke-width:0.1;stroke-linecap:butt;stroke-linejoin:miter;stroke-miterlimit:4;stroke-dasharray:none;stroke-opacity:1" />
        <path
           style="fill:none;fill-rule:evenodd;stroke:#000000;stroke-width:0.69626091;stroke-linecap:butt;stroke-linejoin:miter;stroke-miterlimit:4;stroke-dasharray:none;stroke-opacity:1"
           d="M 411.46363,581.26537 C 409.81613,583.50428 407.12696,584.17265 406.17322,587.84296 C 405.13618,590.33203 403.23066,589.55817 400.21686,590.75778 C 399.83249,591.06944 394.8969,592.26404 393.88031,589.87066 C 392.44769,586.95332 387.91603,587.05095 387.2637,585.97926 C 386.50938,584.64846 389.52489,583.72934 387.67048,582.64699 C 384.36476,581.45338 387.53263,580.23688 387.92394,577.95794 C 388.17474,576.42774 388.43634,574.85241 386.45014,573.77104 C 383.2528,572.37664 375.89533,576.62935 380.06661,567.05906 C 380.35742,565.99028 381.42093,562.36844 378.41911,561.1027 C 374.13973,559.18845 378.49128,558.28243 376.89834,555.65326 C 375.47032,553.33004 376.26798,551.72147 379.05276,548.93651 C 380.07082,547.58471 377.80702,546.23292 380.32008,544.88112 C 383.64056,541.70596 377.9292,537.974 383.36162,536.51686 C 384.6218,536.2464 383.90985,535.82552 383.23489,535.24955 C 381.85327,534.20422 381.44256,529.35554 386.40317,529.67338 C 389.27527,530.00022 389.50123,524.27992 392.2328,528.40607 C 393.90881,531.48027 396.39301,530.45629 396.66839,529.16646 C 399.54588,519.92651 400.46737,530.65528 402.11783,531.70108 C 404.14052,532.80313 404.86265,531.40502 404.77918,530.5605 C 405.42051,524.73318 409.89431,527.22774 410.77391,528.36996 C 412.01049,529.80717 414.46304,533.89652 417.79768,531.19619 C 419.15016,529.87587 418.23718,527.32122 414.66421,525.23779 C 411.04988,522.8665 414.21652,521.33342 415.55133,520.96717 C 417.19778,520.48046 420.48134,518.01785 418.08595,516.62008 C 416.56499,515.89439 416.93642,514.79675 417.57902,514.08545 C 418.31549,513.32928 419.47566,513.42756 420.24038,514.08545 C 421.21143,514.93297 420.64045,515.60621 420.49384,515.73296 C 418.25584,517.84502 420.14592,518.17522 421.38096,518.52104 C 421.77515,518.55994 424.26473,520.09467 421.42401,520.89071 C 420.07625,521.12009 418.26212,522.92504 421.50769,523.97048 C 423.19875,524.23072 429.32709,530.05287 421.88788,530.81396 C 420.5881,530.51826 417.20289,529.93123 419.60672,535.24955 C 420.26571,536.80643 419.85692,540.77249 423.66212,536.89706 C 428.47445,532.42897 428.06585,534.50769 430.63233,535.88321 C 432.73204,537.05267 429.69098,539.38628 431.41897,540.25762 C 433.57243,541.23822 431.53983,536.62675 434.05407,536.64359 C 435.63523,536.95096 436.21492,537.04608 439.12331,533.98224 C 439.88706,533.41321 442.12691,529.16069 443.20344,532.72236 C 444.2976,536.96415 448.2707,535.6046 445.22951,539.3071 C 444.69962,540.29358 444.78937,541.03334 447.00232,541.83969 C 449.43672,542.82475 446.12908,545.52043 449.66154,546.90487 C 450.46608,547.35655 453.23885,548.79569 450.04143,550.32387 C 447.72138,551.62435 451.612,552.60756 452.44739,553.74287 C 453.04712,554.49647 457.22758,559.07364 451.43436,561.34064 C 446.87618,562.19213 452.97142,565.44841 449.66154,567.03897 C 448.86999,567.28829 446.80131,569.61752 449.28165,571.97752 C 450.4789,573.21607 450.39942,575.86819 446.74906,577.0427 C 445.09634,577.39499 443.21436,579.68913 443.64214,582.71878 C 444.49774,589.04727 440.88574,586.39361 439.27792,587.2997 C 437.09583,589.08107 437.56132,594.16533 434.21274,593.63118 C 430.17037,593.67936 429.00009,597.07142 425.09541,595.78388 C 423.3766,595.37643 423.84054,597.1595 420.66338,595.78388 C 420.18278,595.4877 418.72427,595.10092 417.49764,595.78388 C 415.91479,596.12292 416.26502,594.63873 413.69875,594.64421 C 411.55558,594.28496 414.24102,591.36478 412.30583,590.84533 C 407.70979,589.37922 409.87243,586.08645 411.29279,582.99429 C 411.94992,582.17791 411.60634,581.76182 411.46363,581.26537 z"
           id="path3678"
           sodipodi:nodetypes="cccccccccccccccccccccccccccccccccccccccccccccccccccccccccc" />
      </g>
    </g>
  </g>
</svg>
