<?xml version="1.0" encoding="UTF-8" standalone="no"?>
<!-- Created with Inkscape (http://www.inkscape.org/) -->
<svg
   xmlns:dc="http://purl.org/dc/elements/1.1/"
   xmlns:cc="http://creativecommons.org/ns#"
   xmlns:rdf="http://www.w3.org/1999/02/22-rdf-syntax-ns#"
   xmlns:svg="http://www.w3.org/2000/svg"
   xmlns="http://www.w3.org/2000/svg"
   xmlns:sodipodi="http://sodipodi.sourceforge.net/DTD/sodipodi-0.dtd"
   xmlns:inkscape="http://www.inkscape.org/namespaces/inkscape"
   width="800"
   height="500"
   id="svg2"
   version="1.0"
   inkscape:version="0.46"
   sodipodi:docname="Flag_of_Macaravita_(Santander).svg"
   sodipodi:version="0.32"
   inkscape:output_extension="org.inkscape.output.svg.inkscape">
  <defs
     id="defs4" />
  <sodipodi:namedview
     id="base"
     pagecolor="#ffffff"
     bordercolor="#666666"
     borderopacity="1.0"
     inkscape:pageopacity="0.0"
     inkscape:pageshadow="2"
     inkscape:zoom="1.014"
     inkscape:cx="400"
     inkscape:cy="250"
     inkscape:document-units="px"
     inkscape:current-layer="layer1"
     showgrid="false"
     inkscape:window-width="1024"
     inkscape:window-height="712"
     inkscape:window-x="-4"
     inkscape:window-y="-4"
     inkscape:window-maximized="1" />
  <metadata
     id="metadata7">
    <rdf:RDF>
      <cc:Work
         rdf:about="">
        <dc:format>image/svg+xml</dc:format>
        <dc:type
           rdf:resource="http://purl.org/dc/dcmitype/StillImage" />
        <dc:title />
      </cc:Work>
    </rdf:RDF>
  </metadata>
  <g
     inkscape:label="Capa 1"
     inkscape:groupmode="layer"
     id="layer1"
     transform="translate(0,-552.36218)">
    <rect
       style="fill:#fcdd09;fill-opacity:1;stroke:none"
       id="rect2816-1"
       width="799.37329"
       height="500.98553"
       x="0"
       y="-1053.3478"
       transform="scale(1,-1)" />
    <rect
       transform="scale(1,-1)"
       y="-1025.7344"
       x="28.599606"
       height="447.73111"
       width="746.11884"
       id="rect3173"
       style="fill:#078930;fill-opacity:1;stroke:none" />
    <path
       sodipodi:type="star"
       style="opacity:1;fill:#fcdd09;fill-opacity:1;stroke:#000000;stroke-width:0.65595912;stroke-linejoin:round;stroke-miterlimit:4;stroke-dasharray:none;stroke-dashoffset:0;stroke-opacity:1"
       id="path2386"
       sodipodi:sides="10"
       sodipodi:cx="255.42406"
       sodipodi:cy="90.729782"
       sodipodi:r1="189.62115"
       sodipodi:r2="117.7015"
       sodipodi:arg1="0.95538356"
       sodipodi:arg2="1.263301"
       inkscape:flatsided="false"
       inkscape:rounded="0"
       inkscape:randomized="0"
       d="M 364.89152,245.56213 L 291.04905,202.91045 L 252.97692,280.33515 L 218.30714,202.4257 L 141.99704,242.68535 L 159.74263,159.2769 L 74.342433,146.9937 L 137.72517,89.945432 L 75.854848,29.811136 L 160.66469,20.91356 L 145.9566,-64.102571 L 219.79906,-21.450888 L 257.87119,-98.875581 L 292.54097,-20.966133 L 368.85107,-61.225788 L 351.10549,22.182665 L 436.50568,34.465869 L 373.12294,91.514132 L 434.99327,151.64843 L 350.18343,160.546 L 364.89152,245.56213 z"
       transform="matrix(1.0670562,-1.3347193e-2,1.3347193e-2,1.0670562,125.64546,709.45069)" />
    <path
       sodipodi:type="arc"
       style="opacity:1;fill:#fcdd09;fill-opacity:1;stroke:#000000;stroke-width:0.8019034;stroke-linejoin:round;stroke-miterlimit:4;stroke-dasharray:none;stroke-dashoffset:0;stroke-opacity:1"
       id="path3158"
       sodipodi:cx="353.55029"
       sodipodi:cy="259.86194"
       sodipodi:rx="143.49112"
       sodipodi:ry="143.49112"
       d="M 497.04141,259.86194 A 143.49112,143.49112 0 1 1 210.05917,259.86194 A 143.49112,143.49112 0 1 1 497.04141,259.86194 z"
       transform="matrix(0.8729231,0,0,0.8729231,91.185497,576.4152)" />
    <g
       transform="matrix(2.0499438,0,0,2.0499438,-6313.3602,4515.8406)"
       style="display:inline;stroke-width:0.34147278;stroke-miterlimit:4;stroke-dasharray:none"
       inkscape:label="Municipios"
       id="layer2">
      <path
         sodipodi:nodetypes="cccccccccccccccccccccccccccccccccccccccccccccccccc"
         d="M 3305,-1856.8347 L 3301.3117,-1852.5932 L 3300.9429,-1847.2453 L 3299.8364,-1846.5076 L 3300.0208,-1842.2662 L 3306.4753,-1834.8897 L 3304.0779,-1826.5911 L 3298.1767,-1821.9808 L 3297.2547,-1818.6614 L 3300.0208,-1816.8173 L 3300.2052,-1806.6746 L 3307.7662,-1803.5642 L 3307.7661,-1801.1423 L 3303.1558,-1799.1138 L 3299.652,-1799.1138 L 3295.7794,-1797.6385 L 3290.4314,-1797.454 L 3278.9979,-1792.6593 L 3270.1461,-1784.1764 L 3266.6423,-1777.5376 L 3253.549,-1770.5299 L 3251.1517,-1770.3455 L 3245.6193,-1767.9481 L 3239.1185,-1768.0332 L 3244.7038,-1778.7225 L 3243.7176,-1784.6855 L 3247.8267,-1785.348 L 3254.4012,-1789.6546 L 3253.0863,-1793.7956 L 3253.7438,-1798.2678 L 3256.2092,-1801.7462 L 3254.2369,-1804.0651 L 3254.4012,-1809.5312 L 3251.2783,-1809.6969 L 3248.9772,-1812.6783 L 3254.0725,-1817.9787 L 3263.6055,-1823.6105 L 3265.9066,-1826.592 L 3265.5779,-1829.7391 L 3267.8789,-1833.7144 L 3266.3997,-1837.1928 L 3269.3582,-1842.9901 L 3273.3029,-1846.3029 L 3279.5486,-1846.3029 L 3284.3152,-1853.591 L 3287.6024,-1854.0879 L 3287.7668,-1856.5725 L 3293.0264,-1862.3698 L 3298.4504,-1861.2103 L 3305.1259,-1856.7574"
         style="fill:#ffffff;stroke:#000000;stroke-width:0.34147278;stroke-linecap:butt;stroke-linejoin:round;stroke-miterlimit:4;stroke-dasharray:none;stroke-opacity:1"
         id="path3501" />
      <path
         transform="matrix(0.6561,0,0,0.6561,2721.7654,-1867.3157)"
         d="M 840.75413,85.254601 A 4.0439839,4.0439839 0 1 1 832.66616,85.254601 A 4.0439839,4.0439839 0 1 1 840.75413,85.254601 z"
         sodipodi:ry="4.0439839"
         sodipodi:rx="4.0439839"
         sodipodi:cy="85.254601"
         sodipodi:cx="836.71014"
         id="path7851"
         style="fill:#000000;fill-opacity:1;fill-rule:evenodd;stroke:#969696;stroke-width:0.52045843;stroke-linecap:butt;stroke-linejoin:round;stroke-miterlimit:4;stroke-dasharray:none;stroke-dashoffset:0;stroke-opacity:1;display:inline"
         sodipodi:type="arc" />
    </g>
  </g>
</svg>
