<?xml version="1.0" encoding="UTF-8" standalone="no"?>
<!-- Created with Inkscape (http://www.inkscape.org/) -->

<svg
   xmlns:dc="http://purl.org/dc/elements/1.1/"
   xmlns:cc="http://creativecommons.org/ns#"
   xmlns:rdf="http://www.w3.org/1999/02/22-rdf-syntax-ns#"
   xmlns:svg="http://www.w3.org/2000/svg"
   xmlns="http://www.w3.org/2000/svg"
   xmlns:sodipodi="http://sodipodi.sourceforge.net/DTD/sodipodi-0.dtd"
   xmlns:inkscape="http://www.inkscape.org/namespaces/inkscape"
   width="750"
   height="500"
   id="svg2822"
   version="1.1"
   inkscape:version="0.48.3.1 r9886"
   sodipodi:docname="Flag of Mahates (Bolívar).svg">
  <defs
     id="defs2824"><inkscape:perspective
   sodipodi:type="inkscape:persp3d"
   inkscape:vp_x="0 : 526.18109 : 1"
   inkscape:vp_y="0 : 1000 : 0"
   inkscape:vp_z="744.09448 : 526.18109 : 1"
   inkscape:persp3d-origin="372.04724 : 350.78739 : 1"
   id="perspective2830" />

  <style
   id="style3023"
   type="text/css">
   
    .str5 {stroke:black;stroke-width:0.0265}
    .str2 {stroke:black;stroke-width:0.13}
    .str6 {stroke:black;stroke-width:0.13;stroke-linecap:round;stroke-linejoin:round}
    .str3 {stroke:black;stroke-width:0.1323}
    .str4 {stroke:black;stroke-width:0.1323;stroke-linejoin:bevel}
    .str0 {stroke:black;stroke-width:0.18}
    .str7 {stroke:black;stroke-width:0.18;stroke-linejoin:bevel}
    .str1 {stroke:black;stroke-width:0.25}
    .str8 {stroke:black;stroke-width:0.25;stroke-linejoin:bevel}
    .str9 {stroke:#231F20;stroke-width:0.2822}
    .str10 {stroke:#231F20;stroke-width:0.2822;stroke-linejoin:round}
    .str11 {stroke:#231F20;stroke-width:0.2822;stroke-linecap:round}
    .str14 {stroke:black;stroke-width:0.4}
    .str12 {stroke:black;stroke-width:0.4;stroke-linecap:round;stroke-linejoin:round}
    .str13 {stroke:black;stroke-width:1;stroke-linecap:round;stroke-linejoin:round}
    .fil4 {fill:none}
    .fil0 {fill:#008F4C}
    .fil9 {fill:#785028}
    .fil11 {fill:#990000}
    .fil8 {fill:#996633}
    .fil5 {fill:#E3E4E5}
    .fil2 {fill:#EAC102}
    .fil1 {fill:#ED1C24}
    .fil10 {fill:#FDB380}
    .fil12 {fill:#FF6600}
    .fil6 {fill:gold}
    .fil7 {fill:white}
    .fil3 {fill:black;fill-rule:nonzero}
   
  </style>

 
  <style
   id="style4260"
   type="text/css">
   
    .str3 {stroke:black;stroke-width:0.18}
    .str2 {stroke:black;stroke-width:0.18;stroke-linejoin:round}
    .str4 {stroke:#B2B2B2;stroke-width:0.18}
    .str5 {stroke:#B2B2B2;stroke-width:0.18;stroke-linejoin:round}
    .str8 {stroke:black;stroke-width:0.25}
    .str7 {stroke:black;stroke-width:0.25;stroke-linejoin:round}
    .str10 {stroke:black;stroke-width:0.25;stroke-linejoin:bevel}
    .str9 {stroke:black;stroke-width:0.25;stroke-linecap:round;stroke-linejoin:round}
    .str6 {stroke:black;stroke-width:0.27;stroke-linejoin:round}
    .str0 {stroke:black;stroke-width:0.35}
    .str1 {stroke:black;stroke-linecap:square}
    .fil6 {fill:none}
    .fil0 {fill:#0071BC}
    .fil3 {fill:#008F4C}
    .fil14 {fill:#2EAB3E}
    .fil7 {fill:#704D25}
    .fil13 {fill:#990000}
    .fil1 {fill:#E3E4E5}
    .fil2 {fill:#EAC102}
    .fil4 {fill:#ED1C24}
    .fil5 {fill:black;fill-rule:nonzero}
    .fil8 {fill:black;fill-rule:nonzero}
    .fil10 {fill:#231F20;fill-rule:nonzero}
    .fil11 {fill:#999999;fill-rule:nonzero}
    .fil9 {fill:#E3E4E5;fill-rule:nonzero}
    .fil12 {fill:white;fill-rule:nonzero}
   
  </style>

 </defs>
  <sodipodi:namedview
     id="base"
     pagecolor="#ffffff"
     bordercolor="#666666"
     borderopacity="1.0"
     inkscape:pageopacity="0.0"
     inkscape:pageshadow="2"
     inkscape:zoom="0.71238679"
     inkscape:cx="516.3882"
     inkscape:cy="131.69805"
     inkscape:document-units="px"
     inkscape:current-layer="Elementos"
     showgrid="false"
     inkscape:window-width="1280"
     inkscape:window-height="962"
     inkscape:window-x="-8"
     inkscape:window-y="-8"
     inkscape:window-maximized="1" />
  <metadata
     id="metadata2827">
    <rdf:RDF>
      <cc:Work
         rdf:about="">
        <dc:format>image/svg+xml</dc:format>
        <dc:type
           rdf:resource="http://purl.org/dc/dcmitype/StillImage" />
        <dc:title />
      </cc:Work>
    </rdf:RDF>
  </metadata>
  <g
     inkscape:label="Capa 1"
     inkscape:groupmode="layer"
     id="layer1"
     transform="translate(0,-552.36218)"><rect
   style="fill:#ffffff;fill-opacity:1;stroke:none"
   id="rect2832"
   width="750"
   height="250"
   x="0"
   y="552.36218" />
<rect
   style="fill:#0def54;fill-opacity:1;stroke:none"
   id="rect2834"
   width="750"
   height="250"
   x="0"
   y="802.36218" />

 
 
 <g
   id="Elementos"
   transform="translate(777.14317,1015.4478)">
  <metadata
   id="CorelCorpID_1Corel-Layer" />

  
  
  
  
  
  <g
   id="layer6_12">
  </g>

  
  
  
  
  
  
  
  
  
  
  
  
  
  
  
  
  
  
  
  
  
  
  
  
  
  
  
  
  
  
  
  
  
  
  
  
  
  
  
  
  
  
  
  
  
  
  
  
  
  
  
  
  
  
  
  
  
  
  
  
  
  
  
  
  
  
  
  
  
  
  
  
  
  
  
  
  
  
  
  
  
  
  
  
  
  
  
  
  
  
  
  
  
  
  
  
  
  
  
  
  
  
  
  
  
  
  
  
  
  
  
  
  
  
  
  
  
  
  
  
  
  
  
  
  
  
  
  
  
  
  
  
  
  
  
  
  
  
  
  
  
  
  
  
  
  
  
  
  
  
  
  
  
  
  
  
  
  
  
  
  
  
  
  
  
  
  
 <g
   transform="matrix(5.9207868,0,0,7.1997916,-725.69368,-645.43352)"
   id="_59303072-4">
  <path
     d="m 56.4325,62.5702 c 0,0 -3.261,-7.565 -6.639,-8.0321 -3.3771,-0.4671 -6.1725,4.3893 -6.1725,4.3893 0,0 4.1926,-3.2684 5.2408,-3.2684 1.0483,1e-4 7.3374,4.9498 7.5707,6.9112 z"
     id="path2541-0"
     class="fil5 str3"
     inkscape:connector-curvature="0"
     style="fill:#81b31c;fill-rule:nonzero;stroke:#000000;stroke-width:0.02026332" />
  <path
     d="m 56.4325,58.5541 c 0,0 3.1443,-3.7359 4.3094,-3.8291 1.1643,-0.0932 0.1157,2.9888 -4.3094,3.8291 z"
     id="path2545-9"
     class="fil5 str3"
     inkscape:connector-curvature="0"
     style="fill:#81b31c;fill-rule:nonzero;stroke:#000000;stroke-width:0.02026332" />
  <path
     d="m 55.6168,56.6861 c 0,0 -2.096,-5.4167 -5.357,-5.4167 0,0 1.6302,1.214 1.514,1.8679 -0.1168,0.6539 0.3491,3.362 3.843,3.5488 z"
     id="path2547-4"
     class="fil5 str3"
     inkscape:connector-curvature="0"
     style="fill:#81b31c;fill-rule:nonzero;stroke:#000000;stroke-width:0.02026332" />
  <path
     d="m 56.7812,55.4719 c 0,0 1.1645,-3.1752 1.8636,-3.3619 0.6991,-0.1868 8.1527,1.3073 8.5024,2.895 0.3496,1.5879 0,5.0435 0,5.0435 0,0 -1.8637,-5.3235 -2.4462,-5.3235 -0.5825,0 -4.5417,-2.9885 -7.9198,0.7469 z"
     id="path2549-8"
     class="fil5 str3"
     inkscape:connector-curvature="0"
     style="fill:#81b31c;fill-rule:nonzero;stroke:#000000;stroke-width:0.02026332" />
  <path
     d="m 56.1992,53.2309 c 0,0 -2.2128,-4.2962 -5.3571,-4.109 -3.1443,0.1867 -3.9602,5.977 -5.0079,6.0705 0,0 3.7268,-5.5103 5.0079,-5.1368 1.2808,0.3732 4.4256,1.8676 5.3571,3.1753 z"
     id="path2551-8"
     class="fil5 str4"
     inkscape:connector-curvature="0"
     style="fill:#81b31c;fill-rule:nonzero;stroke:#000000;stroke-width:0.02026332;stroke-linejoin:bevel" />
  <path
     d="m 56.1992,50.8022 c 0,0 1.6307,-5.0431 4.4259,-5.0431 2.7956,0 5.4736,1.9616 5.3576,5.7902 0,0 -1.7469,-4.7629 -4.5426,-4.7629 -2.7948,4e-4 -5.0076,4.203 -5.2409,4.0158 z"
     id="path2553-2"
     class="fil5 str3"
     inkscape:connector-curvature="0"
     style="fill:#81b31c;fill-rule:nonzero;stroke:#000000;stroke-width:0.02026332" />
  <path
     d="m 56.3724,50.414 c 0,0 0.0377,-6.4116 -0.0361,-6.69 -0.0057,-0.0234 -0.306,-0.1339 -0.3179,0.0251 -0.2259,3.0119 -1.3329,37.1257 -1.3329,37.1257 l 2.9116,0 -1.2247,-30.4608 z"
     id="path2555-4"
     class="fil5 str3"
     inkscape:connector-curvature="0"
     style="fill:#81b31c;fill-rule:nonzero;stroke:#000000;stroke-width:0.02026332" />
  <path
     d="m 56.7812,60.1416 c 0,0 5.2407,-3.8291 6.1727,-2.7081 0.9321,1.121 3.9602,3.1753 3.7268,4.5762 0,0 -3.2605,-3.1752 -4.5421,-3.1752 -1.2817,0 -4.426,1.3073 -5.3576,3.2689 -0.931,1.961 2e-4,-1.775 2e-4,-1.9618 z"
     id="path2543-5"
     class="fil5 str3"
     inkscape:connector-curvature="0"
     style="fill:#81b31c;fill-rule:nonzero;stroke:#000000;stroke-width:0.02026332" />
  <path
     d="m 56.3159,65.5587 c 0,0 -2.4461,-7.1911 -5.7067,-7.1911 -3.261,0 -7.4541,2.7081 -6.5224,7.6582 l 0,0 c 0,0 3.261,-6.818 5.5904,-6.0705 2.3294,0.7475 6.0562,2.8014 6.6387,5.6034 z"
     id="path2539-5"
     class="fil5 str3"
     inkscape:connector-curvature="0"
     style="fill:#81b31c;fill-rule:nonzero;stroke:#000000;stroke-width:0.02026332" />
  <path
     sodipodi:nodetypes="ccscsccc"
     d="m 55.3838,74.9913 c 0,0 0,-9.5265 5.4736,-10.7402 0,0 3.6106,0 4.1931,2.6146 0.5825,2.615 0.8154,6.5376 0.8154,6.5376 0,0 -1.1646,-6.4441 -2.0966,-6.5376 -0.9316,-0.0932 -3.6101,-0.9338 -3.6101,-0.9338 l -2.5684,3.1734 -2.207,5.886 z"
     id="path2537-1"
     class="fil5 str3"
     inkscape:connector-curvature="0"
     style="fill:#81b31c;fill-rule:nonzero;stroke:#000000;stroke-width:0.02026332" />
  <path
     d="m 56.8979,79.1008 c 0,0 0.4658,-10.1796 -8.7347,-10.9269 0,0 -6.1728,3.7358 -6.1728,7.0043 0,0 4.6588,-4.95 5.94,-5.2303 1.2806,-0.2801 9.0841,2.2417 8.9675,9.1529 z"
     id="path2535-7"
     class="fil5 str3"
     inkscape:connector-curvature="0"
     style="fill:#81b31c;fill-rule:nonzero;stroke:#000000;stroke-width:0.02026332" />
  <path
     d="m 56.1899,43.8282 c 0,0 1.1645,-3.1752 3.4939,-1.1205 0,0 -1.6766,-2.1291 -3.4799,0.5563 0.0198,0.0478 0.616,-2.9854 2.3154,-3.1712 0,0 -1.8563,-0.1665 -2.3676,2.9556 l 0.0382,0.3131 c -0.2311,-0.5756 -1.6895,-3.4412 -2.2429,-4.1367 0.0012,-3e-4 2.1221,2.4522 2.2429,4.1367 0,0 -2.3294,-3.2688 -3.1442,-3.2688 0.1396,-0.0891 2.4627,2.3603 3.1442,3.7355 z"
     id="path2559-1"
     class="fil6 str5"
     inkscape:connector-curvature="0"
     style="fill:#fcdd09;stroke:#000000;stroke-width:0.00405877;stroke-linejoin:round" />
</g>

 
 
 <g
   id="Capa_x0020_1"
   transform="translate(-216.7271,326.27794)">
  <metadata
   id="CorelCorpID_1Corel-Layer-1" />

  <sodipodi:namedview
   pagecolor="#ffffff"
   bordercolor="#666666"
   borderopacity="1.0"
   gridtolerance="10000"
   guidetolerance="10"
   objecttolerance="10"
   inkscape:pageopacity="0.0"
   inkscape:pageshadow="2"
   inkscape:zoom="0.45254834"
   inkscape:cx="529.77215"
   inkscape:cy="286.86274"
   inkscape:document-units="px"
   inkscape:current-layer="layer6"
   inkscape:window-width="1280"
   inkscape:window-height="753"
   inkscape:window-x="-4"
   inkscape:window-y="-4"
   showguides="true"
   showgrid="false"
   inkscape:guide-bbox="true"
   width="549.99969px"
   height="975px"
   id="base-5" />

  <g
   inkscape:groupmode="layer"
   inkscape:label="Timbre"
   id="layer3">
  </g>

  <g
   inkscape:groupmode="layer"
   inkscape:label="Escudo"
   id="layer1-2">
  </g>

  <g
   inkscape:groupmode="layer"
   inkscape:label="Piezas"
   id="layer4">
  </g>

  <g
   inkscape:groupmode="layer"
   inkscape:label="Muebles"
   id="layer5">
  </g>

  <g
   inkscape:groupmode="layer"
   inkscape:label="Ornamento"
   id="layer2">
  </g>

  <g
   inkscape:label="Piezas"
   id="g5818">
  </g>

  <g
   inkscape:label="Muebles"
   id="g5820">
  </g>

  <g
   inkscape:label="Ornamentos"
   id="g5822">
  </g>

  <g
   inkscape:label="Escudo"
   id="g5438">
  </g>

  <g
   inkscape:label="Piezas"
   id="g5440">
  </g>

  <g
   inkscape:label="Ornamento"
   id="g5559">
  </g>

  <g
   inkscape:label="Borde 3px"
   id="g5561">
  </g>

 </g>

 
 
 <g
   id="elemntos"
   transform="translate(-103.5196,276.278)">
  <metadata
   id="CorelCorpID_4Corel-Layer" />

  
  
  <g
   id="Capa_x0020_1_6">
  </g>

  <g
   id="g3584">
  </g>

  <g
   id="g3586">
  </g>

  <g
   id="g5818_7">
  </g>

  <g
   id="g5820_8">
  </g>

  <g
   id="g5822_9">
  </g>

  <g
   id="g5438_10">
  </g>

  <g
   id="g5440_11">
  </g>

  <g
   id="g5559_12">
  </g>

  <g
   id="g5561_13">
  </g>

  <g
   id="g3582_174">
   <g
   id="g3584_175">
   </g>

   <g
   id="g3586_176">
   </g>

   <g
   id="g5818_177">
   </g>

   <g
   id="g5820_178">
   </g>

   <g
   id="g5822_179">
   </g>

   <g
   id="g5438_180">
   </g>

   <g
   id="g5440_181">
   </g>

   <g
   id="g5559_182">
   </g>

   <g
   id="g5561_183">
   </g>

  </g>

  <g
   id="g3595_184">
  </g>

  <g
   id="g3597_185">
  </g>

  <g
   id="g3599_186">
  </g>

  <g
   id="g3601_187">
  </g>

  <g
   id="g7603">
  </g>

  <g
   id="g6673">
  </g>

  <g
   id="layer4_14">
  </g>

  <g
   id="g7607">
  </g>

  <g
   id="layer2_15">
   <g
   id="g3313">
   </g>

   <g
   id="g12051">
   </g>

   <g
   id="g12053">
   </g>

   <g
   id="g12055">
   </g>

  </g>

  <g
   id="g7313">
  </g>

  <g
   id="g7193">
  </g>

  <g
   id="g21899">
  </g>

  <g
   id="g15978">
  </g>

  <g
   id="layer5_16">
  </g>

  <g
   id="layer6">
  </g>

  <g
   id="Calque_3_1_">
  </g>

  <g
   id="Calque_4_1_">
  </g>

  <g
   id="flowRoot11596">
  </g>

  <g
   id="flowRoot9433">
  </g>

  <g
   id="g14110">
  </g>

  <g
   id="g14085">
  </g>

  <g
   id="g29478">
  </g>

  <g
   id="g21974">
  </g>

  <g
   id="g22453">
  </g>

  <g
   id="g11011">
  </g>

  <g
   id="rios">
  </g>

  <g
   id="g16483">
  </g>

  <g
   id="g16495">
  </g>

  <g
   id="g60125">
  </g>

  <g
   id="g45656">
  </g>

  <g
   id="g11447">
  </g>

  <g
   id="g11449">
  </g>

  <g
   id="g11451">
  </g>

  <g
   id="g11453">
  </g>

  <g
   id="g11455">
  </g>

  <g
   id="Capa_x0020_1_17">
  </g>

  <g
   id="g3584_18">
  </g>

  <g
   id="g3586_19">
  </g>

  <g
   id="g5818_20">
  </g>

  <g
   id="g5820_21">
  </g>

  <g
   id="g5822_22">
  </g>

  <g
   id="g5438_23">
  </g>

  <g
   id="g5440_24">
  </g>

  <g
   id="g5559_25">
  </g>

  <g
   id="g5561_26">
  </g>

  <g
   id="g3582_174_27">
   <g
   id="g3584_175_28">
   </g>

   <g
   id="g3586_176_29">
   </g>

   <g
   id="g5818_177_30">
   </g>

   <g
   id="g5820_178_31">
   </g>

   <g
   id="g5822_179_32">
   </g>

   <g
   id="g5438_180_33">
   </g>

   <g
   id="g5440_181_34">
   </g>

   <g
   id="g5559_182_35">
   </g>

   <g
   id="g5561_183_36">
   </g>

  </g>

  <g
   id="g3595_184_37">
  </g>

  <g
   id="g3597_185_38">
  </g>

  <g
   id="g3599_186_39">
  </g>

  <g
   id="g3601_187_40">
  </g>

  <g
   id="g7603_41">
  </g>

  <g
   id="g6673_42">
  </g>

  <g
   id="layer4_43">
  </g>

  <g
   id="g7607_44">
  </g>

  <g
   id="layer2_45">
   <g
   id="g3313_46">
   </g>

   <g
   id="g12051_47">
   </g>

   <g
   id="g12053_48">
   </g>

   <g
   id="g12055_49">
   </g>

  </g>

  <g
   id="g7313_50">
  </g>

  <g
   id="g7193_51">
  </g>

  <g
   id="g21899_52">
  </g>

  <g
   id="g15978_53">
  </g>

  <g
   id="layer5_54">
  </g>

  <g
   id="layer6_55">
  </g>

  <g
   id="Calque_3_1__56">
  </g>

  <g
   id="Calque_4_1__57">
  </g>

  <g
   id="flowRoot11596_58">
  </g>

  <g
   id="flowRoot9433_59">
  </g>

  <g
   id="g14110_60">
  </g>

  <g
   id="g14085_61">
  </g>

  <g
   id="g29478_62">
  </g>

  <g
   id="g21974_63">
  </g>

  <g
   id="g22453_64">
  </g>

  <g
   id="g11011_65">
  </g>

  <g
   id="rios_66">
  </g>

  <g
   id="g16483_67">
  </g>

  <g
   id="g16495_68">
  </g>

  <g
   id="g60125_69">
  </g>

  <g
   id="g45656_70">
  </g>

  <g
   id="g11447_71">
  </g>

  <g
   id="g11449_72">
  </g>

  <g
   id="g11451_73">
  </g>

  <g
   id="g11453_74">
  </g>

  <g
   id="g11455_75">
  </g>

  
  
  
  
  
  
  
  
  
  
  
  
  
  
  
  
  
  
  
  
  
  
 <g
   transform="matrix(5.3736675,0,0,4.892141,-780.97901,-1156.474)"
   id="_67410984-7">
  <path
     d="m 76.825,125.108 c 0.9924,3.6486 2.6124,4.7324 5.2646,7.2184 l 5.5091,-0.6429 c -1.4014,-0.9532 -2.3898,-1.436 -3.2115,-2.0266 -4.4914,-2.9165 -5.4936,-4.8852 -5.9428,-6.0608 -0.1007,-0.2399 -0.3166,-0.8818 -0.477,-1.5638 -0.2414,-1.1712 -0.3916,-1.2421 -0.7542,-0.486 -0.5855,1.2236 -0.6557,2.2413 -0.3882,3.5617 z"
     id="path1027-6"
     class="fil8 str3"
     inkscape:connector-curvature="0"
     style="fill:#000000;fill-rule:nonzero;stroke:#000000;stroke-width:0.03510652" />
  <path
     d="m 102.749,125.198 c -0.9924,3.6486 -2.6124,4.7324 -5.2646,7.2184 l -5.5091,-0.6429 c 1.4014,-0.9533 2.3898,-1.436 3.2115,-2.0266 4.4915,-2.9166 5.4936,-4.8853 5.9429,-6.0608 0.1006,-0.2399 0.3165,-0.8818 0.4769,-1.5638 0.2415,-1.1713 0.3916,-1.2421 0.7542,-0.4861 0.5855,1.2237 0.6557,2.2414 0.3882,3.5618 z"
     id="path1027_2-1"
     class="fil8 str3"
     inkscape:connector-curvature="0"
     style="fill:#000000;fill-rule:nonzero;stroke:#000000;stroke-width:0.03510652" />
  <polygon
     points="83.2432,139.932 83.0897,139.73 82.943,139.527 82.8146,139.313 82.684,139.099 82.5514,138.875 82.4365,138.663 82.3154,138.429 82.1963,138.205 82.0934,137.967 81.9992,137.744 81.9078,137.5 81.8252,137.265 81.7448,137.032 81.6782,136.787 81.6095,136.54 81.552,136.295 81.5103,136.05 81.4641,135.806 81.4317,135.551 81.4149,135.308 81.4072,135.064 81.4019,134.808 81.408,134.555 81.4251,134.312 81.4448,134.057 81.4732,133.814 81.5312,133.564 81.5845,133.319 81.6536,133.077 81.7208,132.823 81.7756,132.705 81.927,132.535 87.9456,136.548 87.8248,141.039 87.8223,141.712 87.8196,142.298 87.8014,143.061 87.7845,143.296 87.7655,143.525 87.7354,143.745 87.6778,143.977 87.6248,144.207 87.5579,144.449 87.4772,144.703 87.3737,144.964 87.3204,145.111 87.2538,145.251 86.8878,145.608 86.6982,145.782 86.6125,145.865 86.5111,145.944 86.4098,146.019 86.2971,146.093 86.196,146.158 86.0948,146.217 86.0204,146.26 85.8878,146.32 85.7973,146.36 85.6117,146.416 85.5022,146.226 85.4059,146.092 85.3234,145.946 85.2409,145.8 85.1016,145.476 84.9716,145.143 84.8461,144.807 84.7164,144.461 84.6457,144.293 84.5638,144.122 84.4818,143.958 84.3863,143.79 84.3415,143.677 84.2827,143.578 84.2086,143.463 84.1501,143.354 84.0802,143.251 84.0082,143.137 83.8504,142.925 83.6952,142.7 83.5306,142.487 83.4565,142.372 83.3868,142.259 83.3148,142.147 83.2541,142.034 83.1373,141.81 83.0902,141.702 83.0567,141.587 83.0211,141.467 83.0012,141.355 82.9792,141.232 82.9847,141.001 82.9967,140.878 83.0289,140.759 83.0794,140.636 83.1298,140.516 83.2098,140.386 83.2873,140.266 83.3854,140.136 "
     id="path1241-4"
     class="fil8 str4"
     style="fill:#000000;fill-rule:nonzero;stroke:#b2b2b2;stroke-width:0.03510652" />
  <polygon
     points="96.1787,140.147 96.3409,139.944 96.4959,139.742 96.6316,139.528 96.7695,139.314 96.9096,139.09 97.031,138.878 97.1589,138.644 97.2847,138.42 97.3934,138.182 97.493,137.959 97.5896,137.715 97.6768,137.48 97.7618,137.247 97.8321,137.002 97.9047,136.754 97.9655,136.51 98.0095,136.265 98.0583,136.021 98.0925,135.766 98.1103,135.522 98.1184,135.279 98.124,135.023 98.1176,134.769 98.0995,134.526 98.0787,134.271 98.0487,134.028 97.9874,133.778 97.9311,133.534 97.858,133.292 97.7871,133.038 97.7292,132.92 97.5692,132.75 91.2109,136.762 91.3385,141.253 91.3411,141.927 91.3439,142.513 91.3632,143.276 91.3811,143.511 91.4011,143.739 91.433,143.96 91.4938,144.192 91.5498,144.422 91.6204,144.664 91.7057,144.918 91.815,145.179 91.8713,145.326 91.9418,145.466 92.3284,145.823 92.5287,145.997 92.6192,146.08 92.7264,146.159 92.8334,146.233 92.9524,146.308 93.0592,146.372 93.1662,146.432 93.2447,146.475 93.3849,146.535 93.4804,146.575 93.6765,146.631 93.7922,146.441 93.894,146.307 93.9811,146.161 94.0683,146.015 94.2154,145.691 94.3528,145.357 94.4853,145.022 94.6224,144.676 94.697,144.507 94.7836,144.337 94.8702,144.173 94.9711,144.004 95.0185,143.892 95.0805,143.793 95.1589,143.678 95.2206,143.569 95.2945,143.466 95.3705,143.352 95.5372,143.14 95.7012,142.915 95.8751,142.702 95.9535,142.587 96.0271,142.473 96.1031,142.362 96.1672,142.249 96.2906,142.025 96.3404,141.916 96.3758,141.802 96.4134,141.681 96.4345,141.569 96.4577,141.447 96.4518,141.216 96.4392,141.093 96.4051,140.974 96.3518,140.851 96.2986,140.73 96.2141,140.601 96.1322,140.481 96.0285,140.351 "
     id="path1241_3-2"
     class="fil8 str5"
     style="fill:#000000;fill-rule:nonzero;stroke:#b2b2b2;stroke-width:0.03510652;stroke-linejoin:round" />
  <polygon
     points="92.2627,144.364 92.2416,144.195 92.2225,144.017 92.1996,143.829 92.1709,143.412 92.1498,142.952 92.1498,142.711 92.1384,142.45 92.1384,136.559 97.646,132.75 97.611,132.669 97.5682,132.57 97.5453,132.528 97.5251,132.492 97.5051,132.455 97.484,132.416 97.442,132.34 97.3911,132.274 97.1914,132.483 97.0786,132.619 97.0155,132.671 96.9504,132.732 96.8892,132.788 96.8147,132.84 96.742,132.88 96.6693,132.922 96.5852,132.964 96.5048,132.997 96.4207,133.037 96.3346,133.058 96.1472,133.11 95.1756,132.997 95.1144,133.091 95.0417,133.175 94.9671,133.255 94.8944,133.332 94.8103,133.393 94.7261,133.454 94.6458,133.508 94.5482,133.56 94.4564,133.592 94.3627,133.621 94.2671,133.654 94.1619,133.677 94.0701,133.684 93.9649,133.696 93.8578,133.696 93.745,133.684 93.6818,133.654 93.6092,133.632 93.5365,133.621 93.4753,133.612 93.4007,133.612 93.328,133.621 93.2668,133.632 93.1941,133.644 93.1195,133.665 93.0583,133.684 92.911,133.738 92.7734,133.801 92.628,133.862 92.4845,133.926 92.3469,133.977 92.2742,133.998 92.1996,134.019 92.0542,134.042 91.9089,134.05 91.8343,134.05 91.7616,134.042 91.6889,134.019 91.6162,133.987 91.5397,133.958 91.469,133.914 91.4269,133.885 91.3963,133.862 91.3638,133.841 91.3236,133.82 91.2509,133.811 91.1783,133.811 91.0941,133.834 91.0214,133.853 90.9373,133.885 90.8531,133.926 90.6848,134.019 90.528,134.104 90.4553,134.144 90.3826,134.177 90.3425,134.186 90.3099,134.186 90.2506,134.196 90.1015,134.207 89.9351,134.207 89.7132,134.196 89.4359,134.196 89.3384,134.186 89.2657,134.177 89.1911,134.167 89.1222,134.134 89.0342,134.092 88.8583,134.01 88.6804,133.914 88.5963,133.874 88.5045,133.841 88.4203,133.82 88.3668,133.811 88.3266,133.801 88.2539,133.801 88.1697,133.82 88.1372,133.834 88.0971,133.853 88.0646,133.874 88.034,133.906 87.9498,133.947 87.8771,133.977 87.8045,134.01 87.7318,134.031 87.6591,134.042 87.4392,134.042 87.3665,134.019 87.2938,134.01 87.1465,133.968 87.0107,133.914 86.8654,133.853 86.7296,133.79 86.5842,133.728 86.4465,133.677 86.2993,133.632 86.2381,133.621 86.1654,133.612 86.0927,133.602 86.0181,133.602 85.9569,133.612 85.8842,133.621 85.8096,133.644 85.7446,133.677 85.6432,133.684 85.5381,133.684 85.4348,133.677 85.3296,133.665 85.2263,133.644 85.1306,133.621 85.0389,133.581 84.9413,133.548 84.9011,133.52 84.8571,133.497 84.7654,133.445 84.6831,133.384 84.6085,133.319 84.5244,133.246 84.4517,133.163 84.379,133.079 84.3465,133.037 84.3178,132.985 83.3462,133.102 83.2506,133.079 83.1569,133.047 83.0746,133.029 82.9905,132.985 82.9082,132.953 82.8241,132.912 82.6768,132.828 82.6156,132.776 82.5429,132.725 82.4186,132.608 82.3536,132.547 82.3019,132.474 82.2369,132.411 82.1853,132.338 82.1336,132.39 82.0935,132.422 82.0495,132.462 82.0208,132.495 81.9883,132.535 81.9577,132.598 81.9252,132.671 81.8927,132.765 87.3569,136.548 87.3569,142.439 87.3435,142.941 87.3263,143.402 87.3148,143.621 87.2938,143.818 87.2823,144.008 87.2498,144.184 87.2307,144.352 87.2001,144.521 87.158,144.674 87.1179,144.824 86.8979,145.124 86.7812,145.272 86.6569,145.417 86.5307,145.563 86.3949,145.699 86.2591,145.837 86.1137,145.961 85.9665,146.076 85.8211,146.181 85.7369,146.233 85.6528,146.275 85.496,146.358 85.4118,146.39 85.3181,146.423 85.2339,146.452 85.1421,146.484 85.058,146.503 84.9643,146.515 84.8686,146.524 84.7749,146.536 84.6831,146.576 84.641,146.599 84.599,146.62 84.5244,146.672 84.4517,146.733 84.4001,146.789 84.3465,146.85 84.3178,146.923 84.2757,146.986 84.2547,147.07 84.2337,147.141 84.2107,147.216 84.2107,147.298 84.2011,147.38 84.2011,147.549 84.2107,147.633 84.2222,147.746 84.2757,148.039 84.3063,148.24 84.3465,148.459 84.4115,148.698 84.4842,148.949 84.555,149.209 84.6085,149.334 84.6525,149.462 84.7118,149.587 84.7654,149.7 84.8285,149.817 84.8916,149.922 84.9547,150.025 85.0255,150.119 85.0982,150.213 85.1421,150.255 85.1823,150.286 85.2665,150.359 85.3621,150.424 85.4558,150.464 85.5476,150.504 89.7132,150.516 93.9458,150.516 93.9974,150.497 94.0471,150.475 94.1313,150.431 94.1868,150.403 94.2269,150.37 94.2671,150.339 94.3111,150.295 94.3914,150.223 94.4679,150.131 94.5368,150.037 94.6018,149.93 94.6458,149.88 94.6764,149.828 94.7261,149.711 94.7892,149.596 94.8409,149.472 94.9346,149.221 94.9786,149.096 95.0187,148.961 95.0493,148.834 95.0819,148.71 95.1469,148.468 95.187,148.248 95.231,148.051 95.2482,147.882 95.2712,147.758 95.2808,147.645 95.2903,147.476 95.2903,147.308 95.2808,147.227 95.2597,147.154 95.2387,147.07 95.2196,146.997 95.187,146.932 95.1469,146.861 95.0914,146.796 95.0417,146.745 94.9786,146.681 94.8944,146.632 94.8103,146.587 94.7165,146.547 94.6209,146.536 94.5291,146.524 94.4354,146.515 94.3512,146.495 94.2594,146.463 94.1753,146.43 94.007,146.367 93.9228,146.327 93.8406,146.285 93.7584,146.243 93.6818,146.191 93.525,146.086 93.3797,145.973 93.307,145.908 93.2343,145.844 93.1712,145.772 93.0985,145.71 92.9723,145.574 92.8384,145.429 92.7217,145.281 92.5974,145.136 92.3794,144.831 92.3354,144.688 92.3029,144.53 "
     id="path1055-3"
     class="fil8 str4"
     style="fill:#000000;fill-rule:nonzero;stroke:#b2b2b2;stroke-width:0.03510652" />
  <polygon
     points="86.2361,146.779 86.5039,146.949 "
     id="path581-2"
     class="fil9"
     style="fill:#e3e4e5;fill-rule:nonzero" />
  <polygon
     points="92.6827,151.372 92.7037,151.332 92.7553,151.259 92.7783,151.207 92.7993,151.163 92.828,151.062 92.8509,150.945 92.8701,150.809 92.8835,150.673 92.893,150.516 86.5337,150.516 86.5337,150.652 86.5452,150.79 86.5662,150.914 86.5853,151.029 86.6064,151.134 86.6465,151.226 86.6791,151.31 86.7307,151.393 86.7823,151.456 86.8148,151.489 86.8474,151.519 86.9104,151.561 86.943,151.581 86.9831,151.602 87.0673,151.634 87.1495,151.657 87.2432,151.676 87.3389,151.676 92.0802,151.657 92.1624,151.644 92.2447,151.634 92.3173,151.613 92.4015,151.592 92.4665,151.561 92.5373,151.519 92.5985,151.468 92.6521,151.404 "
     id="path819-2"
     class="fil8 str4"
     style="fill:#000000;fill-rule:nonzero;stroke:#b2b2b2;stroke-width:0.03510652" />
  <polygon
     points="96.1701,128.327 96.3155,128.182 96.3059,128.17 96.1816,128.339 "
     id="path923-1"
     class="fil9"
     style="fill:#e3e4e5;fill-rule:nonzero" />
  <polygon
     points="101.762,132.208 101.647,132.156 101.531,132.103 101.418,132.051 101.291,132.011 101.24,131.988 101.177,131.967 101.05,131.934 100.936,131.905 100.811,131.873 100.687,131.854 100.57,131.831 100.385,131.831 100.196,131.854 100.006,131.861 99.8187,131.894 99.6294,131.927 99.4419,131.967 99.2564,132.02 99.0671,132.07 98.8777,132.135 98.6903,132.208 98.5124,132.281 98.3364,132.365 98.1586,132.449 97.9826,132.541 97.8143,132.647 97.646,132.75 97.7302,132.959 97.8143,133.181 97.8755,133.418 97.9387,133.66 97.9597,133.784 97.9826,133.913 98.0343,134.171 98.0668,134.432 98.084,134.704 98.1069,134.966 98.1146,135.226 98.1146,135.749 98.1069,135.862 98.0955,135.991 98.084,136.115 98.0744,136.228 98.0668,136.345 98.0438,136.45 97.9998,136.667 98.3154,136.795 98.4818,136.856 98.6578,136.92 98.8375,136.981 99.0154,137.025 99.1914,137.077 99.3807,137.109 99.5586,137.128 99.6504,137.138 99.9335,137.138 100.016,137.128 100.111,137.117 100.196,137.109 100.289,137.086 100.373,137.065 100.465,137.036 100.549,137.004 100.634,136.96 100.718,136.908 100.79,136.868 100.863,136.835 100.926,136.816 100.987,136.795 101.05,136.762 101.104,136.732 101.163,136.699 101.272,136.638 101.374,136.554 101.467,136.481 101.561,136.397 101.647,136.301 101.739,136.209 101.814,136.115 101.97,135.916 102.116,135.707 102.252,135.489 102.385,135.28 102.535,135.071 102.69,134.861 102.764,134.769 102.846,134.673 102.94,134.589 103.036,134.504 103.129,134.422 103.233,134.351 103.338,134.275 103.453,134.223 103.579,134.162 103.703,134.121 103.652,134.014 103.59,133.913 103.525,133.807 103.462,133.7 103.317,133.503 103.16,133.305 102.992,133.116 102.898,133.024 102.806,132.94 102.711,132.855 102.619,132.771 102.418,132.614 102.313,132.53 102.209,132.469 101.991,132.333 101.879,132.271 "
     id="path1003-6"
     class="fil8 str4"
     style="fill:#000000;fill-rule:nonzero;stroke:#b2b2b2;stroke-width:0.03510652" />
  <polygon
     points="98.0062,131.334 97.9546,131.524 97.8819,131.712 97.7767,131.89 97.6409,132.026 97.5147,131.909 97.6524,131.773 97.7327,131.629 97.7977,131.472 97.8417,131.315 97.8608,131.137 97.8819,130.97 97.8819,130.656 98.0464,130.656 98.0464,130.97 98.0291,131.147 "
     id="path1035-8"
     class="fil9"
     style="fill:#e3e4e5;fill-rule:nonzero" />
  <polygon
     points="97.704,131.962 97.4955,131.962 97.6638,131.962 97.5147,131.909 97.6409,132.026 "
     id="path1041-5"
     class="fil10"
     style="fill:#231f20;fill-rule:nonzero" />
  <polygon
     points="96.828,132.683 96.9524,132.589 97.0786,132.474 97.1933,132.349 97.2986,132.211 97.4305,132.307 97.3176,132.464 97.1933,132.6 97.0671,132.715 96.9218,132.819 96.5966,132.987 96.2313,133.112 96.1816,132.955 96.5239,132.84 "
     id="path1083-7"
     class="fil9"
     style="fill:#e3e4e5;fill-rule:nonzero" />
  <polygon
     points="92.7638,149.317 92.607,149.38 92.431,149.39 92.2742,149.347 92.3258,149.19 92.4616,149.232 92.5668,149.223 92.672,149.183 92.7753,149.098 92.892,149.223 "
     id="path1273-6"
     class="fil9"
     style="fill:#e3e4e5;fill-rule:nonzero" />
  <polygon
     points="92.0867,149.244 92.2627,149.34 92.3469,149.19 92.169,149.098 "
     id="path1275-1"
     class="fil9"
     style="fill:#e3e4e5;fill-rule:nonzero" />
  <polygon
     points="92.3258,149.19 92.2742,149.347 92.2627,149.34 92.3469,149.19 "
     id="path1277-8"
     class="fil9"
     style="fill:#e3e4e5;fill-rule:nonzero" />
  <polygon
     points="92.0561,149.014 92.1059,149.066 92.169,149.108 92.0772,149.244 92.0045,149.19 91.9299,149.127 91.8649,149.035 91.8247,148.951 91.8037,148.857 91.7922,148.733 91.8151,148.637 91.8477,148.543 92.0045,148.608 91.972,148.689 91.949,148.752 91.9605,148.825 91.9815,148.899 92.0045,148.951 "
     id="path1279-9"
     class="fil9"
     style="fill:#e3e4e5;fill-rule:nonzero" />
  <polygon
     points="92.169,149.098 92.0867,149.244 92.0772,149.244 92.169,149.108 "
     id="path1281-2"
     class="fil9"
     style="fill:#e3e4e5;fill-rule:nonzero" />
  <polygon
     points="92.4425,147.342 91.8553,148.533 92.0045,148.616 92.5878,147.424 "
     id="path1283-7"
     class="fil9"
     style="fill:#e3e4e5;fill-rule:nonzero" />
  <polygon
     points="92.672,147.298 92.628,147.361 92.5763,147.438 92.4425,147.342 92.5037,147.248 92.5553,147.173 92.6509,147.112 92.7447,147.08 92.8365,147.049 92.9417,147.049 93.0488,147.072 93.1406,147.101 93.0774,147.258 92.9933,147.225 92.9321,147.216 92.8594,147.216 92.7963,147.237 92.7332,147.258 "
     id="path1287-9"
     class="fil9"
     style="fill:#e3e4e5;fill-rule:nonzero" />
  <polygon
     points="92.4425,147.342 92.5763,147.438 92.5878,147.424 "
     id="path1289-5"
     class="fil9"
     style="fill:#e3e4e5;fill-rule:nonzero" />
  <polygon
     points="93.3299,147.185 93.1501,147.101 93.066,147.248 93.2458,147.331 "
     id="path1291-4"
     class="fil9"
     style="fill:#e3e4e5;fill-rule:nonzero" />
  <polygon
     points="93.0774,147.258 93.1406,147.101 93.1501,147.101 93.066,147.248 "
     id="path1293-3"
     class="fil9"
     style="fill:#e3e4e5;fill-rule:nonzero" />
  <polygon
     points="93.3701,147.424 93.3185,147.382 93.2458,147.331 93.3299,147.185 93.4102,147.248 93.4944,147.321 93.5594,147.405 93.5996,147.497 93.6321,147.603 93.6436,147.708 93.6111,147.821 93.5786,147.905 93.4217,147.844 93.4542,147.771 93.4753,147.708 93.4638,147.624 93.4428,147.562 93.4102,147.488 "
     id="path1295-1"
     class="fil9"
     style="fill:#e3e4e5;fill-rule:nonzero" />
  <polygon
     points="93.2458,147.331 93.3299,147.185 "
     id="path1297-2"
     class="fil9"
     style="fill:#e3e4e5;fill-rule:nonzero" />
  <polygon
     points="92.8932,149.225 93.5671,147.936 93.4428,147.821 92.7689,149.11 "
     id="path1299-3"
     class="fil9"
     style="fill:#e3e4e5;fill-rule:nonzero" />
  <polygon
     points="93.4217,147.844 93.5786,147.905 93.5671,147.936 93.4428,147.821 "
     id="path1301-3"
     class="fil9"
     style="fill:#e3e4e5;fill-rule:nonzero" />
  <polygon
     points="86.9074,149.16 87.0088,149.2 87.1255,149.2 87.2498,149.171 87.3053,149.324 87.1484,149.368 86.9916,149.368 86.8233,149.307 86.6951,149.223 86.7927,149.087 "
     id="path1303-4"
     class="fil9"
     style="fill:#e3e4e5;fill-rule:nonzero" />
  <polygon
     points="87.42,149.087 87.2402,149.171 87.3244,149.317 87.5023,149.232 "
     id="path1305-1"
     class="fil9"
     style="fill:#e3e4e5;fill-rule:nonzero" />
  <polygon
     points="87.2498,149.171 87.3053,149.324 87.3244,149.317 87.2402,149.171 "
     id="path1307-1"
     class="fil9"
     style="fill:#e3e4e5;fill-rule:nonzero" />
  <polygon
     points="87.6591,149.118 87.5749,149.183 87.5023,149.232 87.42,149.087 87.4812,149.043 87.5348,149.003 87.5749,148.941 87.596,148.878 87.6151,148.805 87.6266,148.733 87.6075,148.677 87.5749,148.596 87.7318,148.543 87.7643,148.627 87.7834,148.733 87.7719,148.834 87.7528,148.93 87.7107,149.035 "
     id="path1309-3"
     class="fil9"
     style="fill:#e3e4e5;fill-rule:nonzero" />
  <polygon
     points="87.42,149.087 87.5023,149.232 "
     id="path1311-8"
     class="fil9"
     style="fill:#e3e4e5;fill-rule:nonzero" />
  <polygon
     points="87.0012,147.405 87.5826,148.608 87.7318,148.52 87.1484,147.321 "
     id="path1313-7"
     class="fil9"
     style="fill:#e3e4e5;fill-rule:nonzero" />
  <polygon
     points="87.6993,148.459 87.7318,148.52 87.5826,148.608 87.5749,148.596 87.7318,148.543 "
     id="path1315-4"
     class="fil9"
     style="fill:#e3e4e5;fill-rule:nonzero" />
  <polygon
     points="87.0241,147.164 87.093,147.237 87.137,147.321 87.0012,147.415 86.9687,147.342 86.9074,147.288 86.852,147.248 86.7927,147.225 86.72,147.206 86.6588,147.197 86.5823,147.216 86.5096,147.248 86.4465,147.091 86.5307,147.059 86.6359,147.039 86.7506,147.049 86.8444,147.072 86.9361,147.112 "
     id="path1317-2"
     class="fil9"
     style="fill:#e3e4e5;fill-rule:nonzero" />
  <polygon
     points="87.0012,147.405 87.1484,147.321 87.137,147.321 87.0012,147.415 "
     id="path1319-7"
     class="fil9"
     style="fill:#e3e4e5;fill-rule:nonzero" />
  <polygon
     points="86.3452,147.321 86.5192,147.237 86.4369,147.091 86.261,147.173 "
     id="path1321-7"
     class="fil9"
     style="fill:#e3e4e5;fill-rule:nonzero" />
  <polygon
     points="86.5096,147.248 86.4465,147.091 86.4369,147.091 86.5192,147.237 "
     id="path1323-9"
     class="fil9"
     style="fill:#e3e4e5;fill-rule:nonzero" />
  <polygon
     points="86.0927,147.31 86.1654,147.237 86.2495,147.185 86.3452,147.321 86.2801,147.361 86.217,147.424 86.1768,147.478 86.1367,147.551 86.1233,147.614 86.1137,147.696 86.1233,147.76 86.1558,147.832 85.9971,147.896 85.9665,147.811 85.9473,147.708 85.9569,147.591 85.976,147.497 86.0296,147.394 "
     id="path1325-3"
     class="fil9"
     style="fill:#e3e4e5;fill-rule:nonzero" />
  <polygon
     points="86.261,147.173 86.2495,147.185 86.3452,147.321 "
     id="path1327-1"
     class="fil9"
     style="fill:#e3e4e5;fill-rule:nonzero" />
  <polygon
     points="86.8141,149.097 86.1444,147.811 86.02,147.917 86.6898,149.202 "
     id="path1329-9"
     class="fil9"
     style="fill:#e3e4e5;fill-rule:nonzero" />
  <polygon
     points="85.9971,147.884 86.02,147.917 86.1444,147.811 86.1558,147.832 85.9971,147.896 "
     id="path1331-8"
     class="fil9"
     style="fill:#e3e4e5;fill-rule:nonzero" />
  <polygon
     points="101.104,133.482 100.8,133.533 100.498,133.62 100.247,133.723 99.7346,133.993 99.2354,134.246 99.0862,134.307 98.9523,134.351 98.8146,134.38 98.6692,134.412 98.369,134.432 98.0343,134.403 97.9774,134.197 98.369,134.275 98.6387,134.255 98.763,134.223 98.8988,134.194 99.0346,134.15 99.1512,134.098 99.6504,133.848 100.163,133.576 100.446,133.463 100.746,133.378 101.072,133.325 101.272,133.315 101.448,133.315 101.647,133.325 101.856,133.357 102.076,133.411 102.294,133.472 102.795,133.648 103.064,133.775 103.338,133.92 103.254,134.066 102.982,133.92 102.722,133.796 102.24,133.627 102.035,133.566 101.823,133.514 101.624,133.482 101.448,133.472 101.272,133.472 "
     id="path1431-6"
     class="fil11"
     style="fill:#999999;fill-rule:nonzero" />
  <polygon
     points="95.9195,133.186 96.1688,133.186 96.2975,133.164 96.3648,133.152 96.4162,133.14 96.4815,133.119 96.535,133.097 96.5884,133.063 96.6438,133.033 96.6854,132.986 96.719,132.944 96.8595,132.855 97.0001,132.766 97.1386,132.655 97.2811,132.534 97.4117,132.403 97.4751,132.339 97.5285,132.262 97.5958,132.195 97.6492,132.119 97.7026,132.042 97.7442,131.953 97.7877,131.876 97.8333,131.788 97.8748,131.699 97.9065,131.614 97.9282,131.521 97.952,131.437 97.9698,131.348 97.9817,131.247 97.9955,131.16 97.9955,131.061 97.9817,130.962 97.9698,130.862 97.952,130.763 97.9203,130.678 97.8867,130.577 97.8412,130.466 97.8115,130.411 97.7778,130.365 97.7363,130.311 97.6828,130.268 97.6254,130.224 97.574,130.192 97.5087,130.157 97.4453,130.127 97.3128,130.073 97.1722,130.014 96.8932,129.927 96.9229,129.839 96.9466,129.752 96.9684,129.653 96.9803,129.564 96.9803,129.463 96.9684,129.366 96.9565,129.278 96.9348,129.179 96.9011,129.078 96.8595,128.991 96.8061,128.892 96.7507,128.793 96.6854,128.705 96.6438,128.65 96.6102,128.608 96.5231,128.517 96.4261,128.42 96.3648,128.374 96.3074,128.331 96.2322,128.289 96.1688,128.255 96.0916,128.21 96.0046,128.178 95.9195,128.154 95.8324,128.132 95.7908,128.123 95.7453,128.111 95.6503,128.099 95.5513,128.089 95.4544,128.099 95.3594,128.099 95.2585,128.123 95.1635,128.146 95.0645,128.188 94.9774,128.023 94.9359,127.958 94.8923,127.879 94.7954,127.748 94.7399,127.684 94.6984,127.625 94.633,127.573 94.5777,127.518 94.5163,127.472 94.4411,127.429 94.3659,127.383 94.2867,127.353 94.1897,127.318 94.0927,127.298 94.0077,127.274 93.9226,127.264 93.6396,127.264 93.5426,127.274 93.4555,127.286 93.4139,127.298 93.3684,127.298 93.2853,127.318 93.2061,127.341 93.0656,127.395 93.0023,127.417 92.9488,127.452 92.9033,127.484 92.8934,127.506 92.8737,127.518 92.7965,127.407 92.7113,127.306 92.6243,127.222 92.5253,127.133 92.4838,127.098 92.4283,127.056 92.3215,126.998 92.2661,126.967 92.2126,126.943 92.1038,126.901 91.985,126.866 91.8682,126.846 91.7356,126.846 91.607,126.856 91.4784,126.879 91.4032,126.901 91.3398,126.909 91.1855,126.967 91.0469,127.044 90.9816,127.074 90.9044,127.098 90.8708,127.109 90.8292,127.121 90.754,127.133 90.6669,127.133 90.5917,127.121 90.5047,127.109 90.4215,127.098 90.3344,127.074 90.2593,127.056 90.097,126.998 89.9446,126.943 89.8041,126.891 89.7704,126.901 89.6536,126.943 89.4914,126.99 89.2875,127.044 89.1787,127.066 89.0678,127.086 88.9629,127.098 88.864,127.109 88.767,127.098 88.6681,127.086 88.581,127.066 88.5176,127.032 88.3692,126.967 88.2267,126.909 88.1495,126.891 88.0862,126.866 88.0209,126.856 87.9536,126.846 87.6963,126.846 87.5796,126.866 87.4588,126.891 87.3381,126.933 87.2332,126.99 87.1362,127.056 87.0353,127.133 86.9403,127.209 86.8552,127.306 86.7681,127.407 86.681,127.518 86.6494,127.484 86.6058,127.452 86.5623,127.417 86.499,127.383 86.3565,127.341 86.2813,127.318 86.1942,127.298 86.022,127.274 85.925,127.264 85.8261,127.252 85.7409,127.264 85.642,127.264 85.5589,127.274 85.4599,127.286 85.363,127.318 85.2759,127.341 85.1888,127.383 85.1136,127.417 85.0483,127.46 84.985,127.518 84.9196,127.561 84.8662,127.617 84.7692,127.748 84.6703,127.879 84.5832,128.023 84.5001,128.178 84.3991,128.146 84.3042,128.123 84.2052,128.099 84.1102,128.089 83.9143,128.089 83.8192,128.099 83.7302,128.123 83.6431,128.146 83.556,128.178 83.4729,128.21 83.3938,128.242 83.3225,128.289 83.2572,128.331 83.1365,128.42 83.0395,128.509 82.9524,128.608 82.8772,128.692 82.7486,128.892 82.705,128.979 82.6635,129.078 82.6298,129.179 82.6081,129.268 82.5962,129.366 82.5843,129.463 82.5843,129.552 82.5962,129.653 82.6081,129.742 82.6298,129.828 82.6635,129.927 82.3923,130.014 82.2518,130.073 82.1766,130.093 82.1093,130.127 82.046,130.157 81.9926,130.192 81.8817,130.268 81.8303,130.311 81.7847,130.357 81.7531,130.411 81.7194,130.466 81.6779,130.565 81.6343,130.666 81.6145,130.763 81.5908,130.862 81.5829,130.962 81.569,131.061 81.569,131.148 81.5829,131.247 81.5908,131.336 81.6027,131.437 81.6245,131.521 81.6561,131.614 81.6898,131.699 81.7194,131.788 81.765,131.864 81.8065,131.953 81.9154,132.106 81.9688,132.183 82.0262,132.262 82.0895,132.326 82.1548,132.403 82.2835,132.534 82.4141,132.647 82.5546,132.754 82.6422,132.821 82.7166,132.88 82.8772,132.986 82.9207,133.021 82.9762,133.063 83.0296,133.085 83.081,133.119 83.1365,133.132 83.2018,133.152 83.2651,133.164 83.3938,133.174 83.5264,133.186 83.6431,133.174 83.7421,133.174 83.8371,133.152 83.9578,133.132 84.0765,133.097 84.1953,133.075 84.3042,133.051 84.3991,133.051 84.4447,133.063 84.4744,133.075 84.508,133.097 84.5317,133.132 84.5951,133.25 84.6604,133.351 84.7118,133.44 84.789,133.517 84.8563,133.581 84.9196,133.648 85.0601,133.757 85.1136,133.791 85.169,133.811 85.2225,133.834 85.2759,133.856 85.4481,133.856 85.5015,133.846 85.5688,133.834 85.6222,133.826 85.7409,133.779 85.9785,133.703 86.0992,133.668 86.1526,133.66 86.2041,133.648 86.2694,133.636 86.3248,133.636 86.3901,133.648 86.4436,133.66 86.499,133.668 86.5484,133.703 86.6157,133.737 86.6692,133.767 86.7226,133.826 86.778,133.89 86.8315,133.957 86.8888,134.046 86.9522,134.1 87.0056,134.142 87.0709,134.177 87.1362,134.211 87.1995,134.231 87.255,134.241 87.3836,134.241 87.5123,134.231 87.6429,134.197 87.7616,134.152 87.8922,134.1 88.011,134.046 88.1396,133.999 88.2564,133.967 88.3138,133.957 88.3771,133.945 88.486,133.945 88.5513,133.957 88.6047,133.977 88.6601,134.011 88.7136,134.046 88.767,134.088 88.8105,134.142 88.8422,134.152 88.8858,134.177 88.9926,134.211 89.1114,134.241 89.2538,134.265 89.3904,134.288 89.523,134.296 89.7368,134.318 89.8813,134.308 90.0198,134.288 90.1801,134.274 90.3681,134.241 90.5264,134.219 90.6551,134.187 90.7124,134.165 90.7422,134.142 90.7995,134.088 90.851,134.046 90.9044,134.011 90.9618,133.987 91.0153,133.967 91.0667,133.957 91.2409,133.957 91.3062,133.967 91.3616,133.987 91.423,134.011 91.5437,134.054 91.6723,134.1 91.7891,134.152 91.9217,134.197 92.0503,134.231 92.181,134.253 92.2344,134.253 92.2997,134.241 92.363,134.231 92.4283,134.211 92.4956,134.187 92.5491,134.152 92.6124,134.1 92.6777,134.046 92.7331,133.967 92.7866,133.89 92.84,133.826 92.8934,133.779 92.9488,133.737 93.0023,133.703 93.0656,133.682 93.123,133.66 93.1744,133.648 93.3466,133.648 93.4674,133.668 93.5841,133.703 93.8216,133.791 93.9404,133.826 94.0512,133.856 94.1165,133.856 94.1699,133.868 94.2867,133.856 94.3402,133.846 94.3956,133.826 94.449,133.791 94.5024,133.757 94.6449,133.66 94.7201,133.602 94.7854,133.547 94.8607,133.483 94.924,133.394 95.0031,133.305 95.0546,133.186 95.0764,133.152 95.11,133.132 95.1298,133.119 95.1397,133.119 95.1852,133.109 95.2268,133.097 95.2822,133.097 95.3792,133.109 95.4979,133.119 95.6048,133.14 95.7136,133.164 95.8126,133.174 "
     id="path889-5"
     class="fil8 str4"
     style="fill:#000000;fill-rule:nonzero;stroke:#b2b2b2;stroke-width:0.03510652" />
  <polygon
     points="77.7639,131.993 77.8786,131.941 77.9953,131.888 78.1081,131.836 78.2344,131.796 78.286,131.773 78.3491,131.752 78.4754,131.719 78.5901,131.691 78.7144,131.658 78.8387,131.639 78.9554,131.616 79.1409,131.616 79.3303,131.639 79.5196,131.646 79.7071,131.679 79.8964,131.712 80.0838,131.752 80.2694,131.805 80.4587,131.855 80.6481,131.92 80.8355,131.993 81.0134,132.066 81.1893,132.15 81.3672,132.234 81.5431,132.326 81.7114,132.432 81.8798,132.535 81.7956,132.744 81.7114,132.966 81.6503,133.204 81.5871,133.445 81.5661,133.569 81.5431,133.698 81.4915,133.956 81.459,134.217 81.4418,134.489 81.4188,134.751 81.4112,135.012 81.4112,135.534 81.4188,135.647 81.4303,135.776 81.4418,135.9 81.4513,136.013 81.459,136.13 81.4819,136.235 81.526,136.452 81.2104,136.58 81.044,136.642 80.868,136.705 80.6882,136.766 80.5103,136.81 80.3344,136.862 80.145,136.894 79.9672,136.913 79.8754,136.923 79.5923,136.923 79.5101,136.913 79.4144,136.902 79.3303,136.894 79.2366,136.871 79.1524,136.85 79.0606,136.822 78.9764,136.789 78.8923,136.745 78.8082,136.693 78.7355,136.653 78.6628,136.62 78.5997,136.601 78.5385,136.58 78.4754,136.548 78.4218,136.517 78.3625,136.484 78.2535,136.423 78.1521,136.339 78.0584,136.266 77.9647,136.182 77.8786,136.086 77.7868,135.994 77.7122,135.9 77.5554,135.701 77.41,135.492 77.2743,135.274 77.1404,135.065 76.9912,134.856 76.8363,134.646 76.7617,134.554 76.6795,134.458 76.5857,134.374 76.4901,134.29 76.3964,134.207 76.2931,134.136 76.1879,134.06 76.0732,134.008 75.9469,133.947 75.8226,133.906 75.8743,133.799 75.9354,133.698 76.0005,133.592 76.0636,133.485 76.2089,133.288 76.3658,133.091 76.5341,132.901 76.6278,132.809 76.7196,132.725 76.8152,132.641 76.9071,132.556 77.1079,132.399 77.2131,132.315 77.3163,132.254 77.5344,132.118 77.6472,132.056 "
     id="path1003_4-0"
     class="fil8 str4"
     style="fill:#000000;fill-rule:nonzero;stroke:#b2b2b2;stroke-width:0.03510652" />
  <polygon
     points="78.4218,133.267 78.7259,133.319 79.0281,133.405 79.2786,133.508 79.7912,133.778 80.2904,134.031 80.4396,134.092 80.5735,134.136 80.7112,134.165 80.8565,134.198 81.1568,134.217 81.4915,134.188 81.5484,133.982 81.1568,134.06 80.8871,134.041 80.7628,134.008 80.627,133.979 80.4912,133.935 80.3746,133.884 79.8754,133.633 79.3628,133.361 79.0798,133.248 78.7795,133.163 78.4543,133.11 78.2535,133.1 78.0775,133.1 77.8786,133.11 77.6702,133.142 77.4502,133.196 77.2322,133.257 76.7311,133.433 76.4614,133.56 76.1879,133.705 76.2721,133.851 76.5436,133.705 76.8037,133.581 77.2857,133.412 77.4904,133.351 77.7027,133.299 77.9016,133.267 78.0775,133.257 78.2535,133.257 "
     id="path1431_5-2"
     class="fil11"
     style="fill:#999999;fill-rule:nonzero" />
  <polygon
     points="93.0889,136.674 93.2133,136.768 93.2783,136.81 93.349,136.852 93.4102,136.883 93.4868,136.915 93.5594,136.948 93.6321,136.967 93.7125,136.988 93.7889,137.009 93.8712,137.021 93.9534,137.021 94.0376,137.028 94.1332,137.028 94.2059,137.021 94.2786,137.021 94.3627,137 94.4354,136.988 94.5081,136.967 94.5827,136.948 94.6439,136.915 94.7165,136.892 94.7797,136.864 94.8409,136.82 94.969,136.747 95.0302,136.695 95.0818,136.655 95.1354,136.601 95.187,136.549 95.2291,136.498 95.2827,136.444 95.363,136.32 95.4395,136.193 95.4911,136.059 95.5198,135.996 95.5428,135.923 95.5715,135.774 95.5829,135.701 95.5963,135.63 95.5963,135.389 95.5829,135.307 95.5638,135.232 95.5524,135.149 95.5313,135.075 95.5026,135.002 95.4701,134.929 95.4395,134.856 92.9837,136.559 93.0354,136.622 "
     id="path1271-8"
     class="fil12"
     style="fill:#ffffff;fill-rule:nonzero" />
  <polygon
     points="94.904,136.132 94.9365,136.088 94.969,136.048 94.9977,136.004 95.0207,135.954 95.0532,135.912 95.0723,135.858 95.1048,135.755 95.1259,135.701 95.1354,135.649 95.1545,135.546 95.1545,135.328 95.145,135.232 95.1259,135.138 95.0933,135.056 93.3185,136.268 93.3911,136.329 93.4638,136.381 93.5594,136.425 93.6436,136.465 93.7354,136.498 93.8387,136.517 93.9458,136.529 94.049,136.538 94.1657,136.529 94.269,136.505 94.3818,136.486 94.4756,136.444 94.531,136.425 94.5827,136.402 94.6649,136.352 94.7586,136.278 94.8332,136.216 "
     id="path1333-6"
     class="fil10"
     style="fill:#231f20;fill-rule:nonzero" />
  <polygon
     points="86.5307,136.707 86.4064,136.798 86.3452,136.843 86.2687,136.883 86.2055,136.915 86.1367,136.948 86.0602,136.977 85.9894,137 85.9053,137.021 85.8326,137.04 85.7484,137.051 85.6623,137.051 85.582,137.061 85.4864,137.061 85.4137,137.051 85.341,137.04 85.2569,137.028 85.1842,137.021 85.1116,137 85.0369,136.977 84.9757,136.948 84.9031,136.925 84.838,136.883 84.7749,136.852 84.6506,136.779 84.5875,136.728 84.5339,136.685 84.4861,136.634 84.4306,136.578 84.3809,136.529 84.3389,136.477 84.2566,136.352 84.182,136.224 84.117,136.088 84.0979,136.027 84.0749,135.954 84.0443,135.806 84.0348,135.734 84.0252,135.661 84.0252,135.421 84.0348,135.335 84.0577,135.264 84.0673,135.182 84.0883,135.107 84.117,135.035 84.1399,134.962 84.182,134.889 86.6359,136.59 86.5823,136.655 "
     id="path1441-0"
     class="fil12"
     style="fill:#ffffff;fill-rule:nonzero" />
  <polygon
     points="84.7156,136.163 84.6831,136.12 84.6506,136.078 84.6181,136.036 84.599,135.986 84.5665,135.942 84.5473,135.891 84.5148,135.787 84.4938,135.734 84.4861,135.682 84.4632,135.577 84.4632,135.356 84.4746,135.264 84.4938,135.171 84.5263,135.086 86.3012,136.297 86.2285,136.362 86.1558,136.414 86.0602,136.454 85.976,136.498 85.8842,136.529 85.779,136.549 85.6757,136.559 85.5705,136.571 85.4539,136.559 85.3506,136.538 85.2359,136.517 85.144,136.477 85.0886,136.454 85.0369,136.433 84.9547,136.381 84.861,136.308 84.7883,136.245 "
     id="path1443-2"
     class="fil10"
     style="fill:#231f20;fill-rule:nonzero" />
</g>
</g>

 
</g>

 
</g>
</svg>
