<?xml version="1.0" encoding="UTF-8" standalone="no"?>
<svg
   xmlns:dc="http://purl.org/dc/elements/1.1/"
   xmlns:cc="http://creativecommons.org/ns#"
   xmlns:rdf="http://www.w3.org/1999/02/22-rdf-syntax-ns#"
   xmlns:svg="http://www.w3.org/2000/svg"
   xmlns="http://www.w3.org/2000/svg"
   xmlns:sodipodi="http://sodipodi.sourceforge.net/DTD/sodipodi-0.dtd"
   xmlns:inkscape="http://www.inkscape.org/namespaces/inkscape"
   width="1200"
   height="600"
   version="1.0"
   id="svg2"
   sodipodi:version="0.32"
   inkscape:version="0.46"
   sodipodi:docname="Flag_of_Marsella (Risaralda).svg"
   inkscape:output_extension="org.inkscape.output.svg.inkscape">
  <metadata
     id="metadata11">
    <rdf:RDF>
      <cc:Work
         rdf:about="">
        <dc:format>image/svg+xml</dc:format>
        <dc:type
           rdf:resource="http://purl.org/dc/dcmitype/StillImage" />
      </cc:Work>
    </rdf:RDF>
  </metadata>
  <defs
     id="defs9" />
  <sodipodi:namedview
     inkscape:window-height="712"
     inkscape:window-width="1024"
     inkscape:pageshadow="2"
     inkscape:pageopacity="0.0"
     guidetolerance="10.0"
     gridtolerance="10.0"
     objecttolerance="10.0"
     borderopacity="1.0"
     bordercolor="#666666"
     pagecolor="#ffffff"
     id="base"
     showgrid="false"
     inkscape:zoom="0.77333333"
     inkscape:cx="600"
     inkscape:cy="300"
     inkscape:window-x="-4"
     inkscape:window-y="-4"
     inkscape:current-layer="svg2" />
  <rect
     fill="#FCDD09"
     width="1200"
     height="600"
     id="rect4"
     style="fill:#fcdd09;fill-opacity:1" />
  <rect
     width="1200"
     height="300"
     y="300"
     id="rect6"
     fill="#0F47AF"
     style="fill:#078930;fill-opacity:1" />
  <g
     id="layer1"
     inkscape:label="Layer 1"
     transform="matrix(0.63,0,0,0.63,442.38244,122.03328)"
     style="fill:#ffffff">
    <path
       sodipodi:nodetypes="ccc"
       id="path33739"
       d="M 250,67 C 290,132 290,197 250,262 C 210,197 210,132 250,67 z"
       style="fill:#ffffff;fill-opacity:1;fill-rule:evenodd;stroke:#000000;stroke-width:1;stroke-linecap:butt;stroke-linejoin:miter;stroke-miterlimit:4;stroke-dasharray:none;stroke-opacity:1" />
    <path
       style="fill:#ffffff;fill-opacity:1;fill-rule:evenodd;stroke:#000000;stroke-width:1;stroke-linecap:butt;stroke-linejoin:miter;stroke-miterlimit:4;stroke-dasharray:none;stroke-opacity:1"
       d="M 250,498 C 210,433 210,368 250,303 C 290,368 290,433 250,498 z"
       id="path34614"
       sodipodi:nodetypes="ccc" />
    <path
       style="fill:#ffffff;fill-opacity:1;fill-rule:evenodd;stroke:#000000;stroke-width:1;stroke-linecap:butt;stroke-linejoin:miter;stroke-miterlimit:4;stroke-dasharray:none;stroke-opacity:1"
       d="M 434.15505,176.03603 C 398.01463,243.25856 341.79628,275.8852 265.5,273.91593 C 301.64042,206.69339 357.85877,174.06675 434.15505,176.03603 z"
       id="path35491"
       sodipodi:nodetypes="ccc" />
    <path
       sodipodi:nodetypes="ccc"
       id="path35493"
       d="M 65.845,176.03603 C 101.98542,243.25856 158.20377,275.8852 234.50005,273.91593 C 198.35963,206.69339 142.14128,174.06675 65.845,176.03603 z"
       style="fill:#ffffff;fill-opacity:1;fill-rule:evenodd;stroke:#000000;stroke-width:1;stroke-linecap:butt;stroke-linejoin:miter;stroke-miterlimit:4;stroke-dasharray:none;stroke-opacity:1" />
    <path
       sodipodi:nodetypes="ccc"
       id="path35495"
       d="M 434.15505,388.96393 C 398.01463,321.7414 341.79628,289.11476 265.5,291.08403 C 301.64042,358.30657 357.85877,390.93321 434.15505,388.96393 z"
       style="fill:#ffffff;fill-opacity:1;fill-rule:evenodd;stroke:#000000;stroke-width:1;stroke-linecap:butt;stroke-linejoin:miter;stroke-miterlimit:4;stroke-dasharray:none;stroke-opacity:1" />
    <path
       style="fill:#ffffff;fill-opacity:1;fill-rule:evenodd;stroke:#000000;stroke-width:1;stroke-linecap:butt;stroke-linejoin:miter;stroke-miterlimit:4;stroke-dasharray:none;stroke-opacity:1"
       d="M 65.845,388.96393 C 101.98542,321.7414 158.20377,289.11476 234.50005,291.08403 C 198.35963,358.30657 142.14128,390.93321 65.845,388.96393 z"
       id="path35497"
       sodipodi:nodetypes="ccc" />
    <path
       style="fill:#ffffff;fill-opacity:1;fill-rule:evenodd;stroke:#000000;stroke-width:1;stroke-linecap:butt;stroke-linejoin:miter;stroke-miterlimit:4;stroke-dasharray:none;stroke-opacity:1"
       d="M 344.13278,120.68638 C 345.77498,186.96567 317.38221,235.77249 258.95448,267.10685 C 257.31228,200.82756 285.70504,152.02073 344.13278,120.68638 z"
       id="path35517"
       sodipodi:nodetypes="ccc" />
    <path
       sodipodi:nodetypes="ccc"
       id="path35519"
       d="M 155.86688,444.31316 C 154.22468,378.03387 182.61745,329.22704 241.04519,297.89269 C 242.68739,364.17198 214.29463,412.97881 155.86688,444.31316 z"
       style="fill:#ffffff;fill-opacity:1;fill-rule:evenodd;stroke:#000000;stroke-width:1;stroke-linecap:butt;stroke-linejoin:miter;stroke-miterlimit:4;stroke-dasharray:none;stroke-opacity:1" />
    <path
       sodipodi:nodetypes="ccc"
       id="path35521"
       d="M 434.78183,282.99982 C 378.28132,317.68892 321.81671,317.63058 265.38801,282.8248 C 321.88851,248.13569 378.35313,248.19403 434.78183,282.99982 z"
       style="fill:#ffffff;fill-opacity:1;fill-rule:evenodd;stroke:#000000;stroke-width:1;stroke-linecap:butt;stroke-linejoin:miter;stroke-miterlimit:4;stroke-dasharray:none;stroke-opacity:1" />
    <path
       style="fill:#ffffff;fill-opacity:1;fill-rule:evenodd;stroke:#000000;stroke-width:1;stroke-linecap:butt;stroke-linejoin:miter;stroke-miterlimit:4;stroke-dasharray:none;stroke-opacity:1"
       d="M 158.22731,122.11763 C 156.00062,188.37986 183.96184,237.4352 242.11094,269.28365 C 244.33763,203.02142 216.37642,153.96608 158.22731,122.11763 z"
       id="path35523"
       sodipodi:nodetypes="ccc" />
    <path
       style="fill:#ffffff;fill-opacity:1;fill-rule:evenodd;stroke:#000000;stroke-width:1;stroke-linecap:butt;stroke-linejoin:miter;stroke-miterlimit:4;stroke-dasharray:none;stroke-opacity:1"
       d="M 341.77241,442.8819 C 343.99909,376.61967 316.03788,327.56432 257.88878,295.71587 C 255.66209,361.97811 283.62329,411.03345 341.77241,442.8819 z"
       id="path35525"
       sodipodi:nodetypes="ccc" />
    <path
       sodipodi:nodetypes="ccc"
       id="path35527"
       d="M 65.217887,281.9997 C 121.71839,247.31061 178.183,247.36894 234.61171,282.17473 C 178.1112,316.86385 121.64659,316.80551 65.217887,281.9997 z"
       style="fill:#ffffff;fill-opacity:1;fill-rule:evenodd;stroke:#000000;stroke-width:1;stroke-linecap:butt;stroke-linejoin:miter;stroke-miterlimit:4;stroke-dasharray:none;stroke-opacity:1" />
    <path
       transform="matrix(1.5841079,0,0,1.5841079,-154.73957,-169.36677)"
       d="M 286,285.25 A 30.5,30.5 0 1 1 225,285.25 A 30.5,30.5 0 1 1 286,285.25 z"
       sodipodi:ry="30.5"
       sodipodi:rx="30.5"
       sodipodi:cy="285.25"
       sodipodi:cx="255.5"
       id="path37311"
       style="opacity:1;fill:#fcdd09;fill-opacity:1;stroke:#000000;stroke-width:0.63127011000000000;stroke-linecap:square;stroke-linejoin:miter;stroke-miterlimit:4;stroke-dasharray:none;stroke-opacity:1"
       sodipodi:type="arc" />
  </g>
</svg>
