<?xml version="1.0" encoding="UTF-8" standalone="no"?>
<svg
   xmlns:dc="http://purl.org/dc/elements/1.1/"
   xmlns:cc="http://creativecommons.org/ns#"
   xmlns:rdf="http://www.w3.org/1999/02/22-rdf-syntax-ns#"
   xmlns:svg="http://www.w3.org/2000/svg"
   xmlns="http://www.w3.org/2000/svg"
   xmlns:sodipodi="http://sodipodi.sourceforge.net/DTD/sodipodi-0.dtd"
   xmlns:inkscape="http://www.inkscape.org/namespaces/inkscape"
   width="750"
   height="500"
   version="1.1"
   id="svg2"
   sodipodi:version="0.32"
   inkscape:version="0.46"
   sodipodi:docname="Flag_of_Medio Atrato_(Chocó).svg"
   inkscape:output_extension="org.inkscape.output.svg.inkscape">
  <metadata
     id="metadata18">
    <rdf:RDF>
      <cc:Work
         rdf:about="">
        <dc:format>image/svg+xml</dc:format>
        <dc:type
           rdf:resource="http://purl.org/dc/dcmitype/StillImage" />
      </cc:Work>
    </rdf:RDF>
  </metadata>
  <defs
     id="defs16" />
  <sodipodi:namedview
     inkscape:window-height="712"
     inkscape:window-width="1024"
     inkscape:pageshadow="2"
     inkscape:pageopacity="0.0"
     guidetolerance="10.0"
     gridtolerance="10.0"
     objecttolerance="10.0"
     borderopacity="1.0"
     bordercolor="#666666"
     pagecolor="#ffffff"
     id="base"
     showgrid="false"
     inkscape:zoom="1.014"
     inkscape:cx="375"
     inkscape:cy="250"
     inkscape:window-x="-4"
     inkscape:window-y="-4"
     inkscape:current-layer="svg2" />
  <rect
     fill="#078930"
     width="750"
     height="500"
     id="rect4" />
  <rect
     width="750"
     height="106.66624"
     y="197.33289"
     id="rect8"
     x="0"
     style="fill:#ffffff" />
  <rect
     width="750"
     height="68.266396"
     y="216.10593"
     id="rect6"
     x="0"
     style="fill:#0f47af;fill-opacity:1" />
  <g
     id="sol"
     transform="matrix(1.7232403,0,0,1.7232403,-271.2187,106.71496)"
     style="fill:#fcdd09">
    <path
       d="M 375,2.77 L 362.49,36.63 L 334.72,13.57 L 340.84,49.15 L 305.24,43.06 L 328.33,70.83 L 294.44,83.34 L 328.33,95.85 L 305.24,123.62 L 340.84,117.5 L 334.72,153.1 L 362.49,130.01 L 375,163.9 L 387.51,130.01 L 415.28,153.1 L 409.19,117.5 L 444.77,123.62 L 421.71,95.85 L 455.57,83.34 L 421.71,70.83 L 444.77,43.06 L 409.19,49.15 L 415.28,13.57 L 387.51,36.63 L 375,2.77 z"
       id="path11"
       sodipodi:nodetypes="ccccccccccccccccccccccccc" />
  </g>
</svg>
