<?xml version="1.0" encoding="UTF-8" standalone="no"?>
<!-- Created with Inkscape (http://www.inkscape.org/) -->

<svg
   xmlns:dc="http://purl.org/dc/elements/1.1/"
   xmlns:cc="http://creativecommons.org/ns#"
   xmlns:rdf="http://www.w3.org/1999/02/22-rdf-syntax-ns#"
   xmlns:svg="http://www.w3.org/2000/svg"
   xmlns="http://www.w3.org/2000/svg"
   xmlns:sodipodi="http://sodipodi.sourceforge.net/DTD/sodipodi-0.dtd"
   xmlns:inkscape="http://www.inkscape.org/namespaces/inkscape"
   width="750"
   height="500"
   id="svg2822"
   version="1.1"
   inkscape:version="0.47 r22583"
   sodipodi:docname="Flag of Mesetas (Meta).svg">
  <defs
     id="defs2824">
    <inkscape:perspective
       sodipodi:type="inkscape:persp3d"
       inkscape:vp_x="0 : 526.18109 : 1"
       inkscape:vp_y="0 : 1000 : 0"
       inkscape:vp_z="744.09448 : 526.18109 : 1"
       inkscape:persp3d-origin="372.04724 : 350.78739 : 1"
       id="perspective2830" />
  </defs>
  <sodipodi:namedview
     id="base"
     pagecolor="#ffffff"
     bordercolor="#666666"
     borderopacity="1.0"
     inkscape:pageopacity="0.0"
     inkscape:pageshadow="2"
     inkscape:zoom="0.54"
     inkscape:cx="375"
     inkscape:cy="275.36325"
     inkscape:document-units="px"
     inkscape:current-layer="layer1"
     showgrid="false"
     inkscape:window-width="1024"
     inkscape:window-height="538"
     inkscape:window-x="-8"
     inkscape:window-y="-8"
     inkscape:window-maximized="1" />
  <metadata
     id="metadata2827">
    <rdf:RDF>
      <cc:Work
         rdf:about="">
        <dc:format>image/svg+xml</dc:format>
        <dc:type
           rdf:resource="http://purl.org/dc/dcmitype/StillImage" />
        <dc:title />
      </cc:Work>
    </rdf:RDF>
  </metadata>
  <g
     inkscape:label="Capa 1"
     inkscape:groupmode="layer"
     id="layer1"
     transform="translate(0,-552.36218)">
    <rect
       style="fill:#da121a;fill-opacity:1;stroke:none"
       id="rect2832"
       width="750"
       height="100"
       x="0"
       y="552.36218" />
    <rect
       style="fill:#ffffff;fill-opacity:1;stroke:none"
       id="rect2834"
       width="750"
       height="300"
       x="0"
       y="652.36218" />
    <rect
       style="fill:#078930;fill-opacity:1;stroke:none"
       id="rect2836"
       width="750"
       height="100"
       x="0"
       y="952.36218" />
    <path
       sodipodi:type="star"
       style="fill:#fcdd09;fill-opacity:1;stroke:none"
       id="path3255"
       sodipodi:sides="21"
       sodipodi:cx="204.83871"
       sodipodi:cy="120.96774"
       sodipodi:r1="280.30396"
       sodipodi:r2="212.03888"
       sodipodi:arg1="0.97550495"
       sodipodi:arg2="1.1251046"
       inkscape:flatsided="false"
       inkscape:rounded="3.469447e-18"
       inkscape:randomized="0"
       d="m 362.01917,353.05525 -65.77428,-40.76214 -9.6178,76.7809 -50.83727,-58.3385 -31.82207,70.53483 -31.38313,-70.73123 -51.19882,58.02146 -9.14047,-76.83919 -66.026319,40.35261 13.914363,-76.11963 -74.987096,19.09825 35.732841,-68.63652 -77.284938,-3.85307 L -2.0295176,167.50827 -74.745192,141.04625 -6.5570043,104.46513 -68.242308,57.745417 7.6989463,42.888308 -37.474977,-19.937837 l 76.946607,8.187029 -24.64864,-73.350203 71.114916,30.503712 -1.933219,-77.356771 58.964353,50.110004 20.95398,-74.489854 41.57455,65.263807 41.97932,-65.004187 20.49066,74.618634 59.27462,-49.742614 -2.41391,77.343269 71.30311,-30.061186 -25.104,73.19561 76.996,-7.708693 -45.56348,62.544203 75.84746,15.328752 -61.97444,46.335465 67.95954,37.00417 -72.87872,26.00963 54.03312,55.3916 -77.30739,3.37271 35.30562,68.85726 -74.86697,-19.56389 13.44106,76.20463 z"
       transform="matrix(0.5366365,0,0,0.53801597,265.111,736.47233)" />
  </g>
</svg>
