<?xml version="1.0" encoding="UTF-8" standalone="no"?>
<!-- Created with Inkscape (http://www.inkscape.org/) -->

<svg
   xmlns:dc="http://purl.org/dc/elements/1.1/"
   xmlns:cc="http://creativecommons.org/ns#"
   xmlns:rdf="http://www.w3.org/1999/02/22-rdf-syntax-ns#"
   xmlns:svg="http://www.w3.org/2000/svg"
   xmlns="http://www.w3.org/2000/svg"
   xmlns:sodipodi="http://sodipodi.sourceforge.net/DTD/sodipodi-0.dtd"
   xmlns:inkscape="http://www.inkscape.org/namespaces/inkscape"
   width="750"
   height="500"
   id="svg2"
   version="1.1"
   inkscape:version="0.48.3.1 r9886"
   sodipodi:docname="Flag of Mocoa (Putumayo).svg">
  <defs
     id="defs4">
    <inkscape:perspective
       sodipodi:type="inkscape:persp3d"
       inkscape:vp_x="0 : 526.18109 : 1"
       inkscape:vp_y="0 : 1000 : 0"
       inkscape:vp_z="744.09448 : 526.18109 : 1"
       inkscape:persp3d-origin="372.04724 : 350.78739 : 1"
       id="perspective10" />
  </defs>
  <sodipodi:namedview
     id="base"
     pagecolor="#ffffff"
     bordercolor="#666666"
     borderopacity="1.0"
     inkscape:pageopacity="0.0"
     inkscape:pageshadow="2"
     inkscape:zoom="0.62"
     inkscape:cx="350"
     inkscape:cy="247.04166"
     inkscape:document-units="px"
     inkscape:current-layer="layer1"
     showgrid="false"
     inkscape:window-width="1280"
     inkscape:window-height="962"
     inkscape:window-x="-8"
     inkscape:window-y="-8"
     inkscape:window-maximized="1" />
  <metadata
     id="metadata7">
    <rdf:RDF>
      <cc:Work
         rdf:about="">
        <dc:format>image/svg+xml</dc:format>
        <dc:type
           rdf:resource="http://purl.org/dc/dcmitype/StillImage" />
        <dc:title />
      </cc:Work>
    </rdf:RDF>
  </metadata>
  <g
     inkscape:label="Capa 1"
     inkscape:groupmode="layer"
     id="layer1"
     transform="translate(0,-552.36218)">
    <rect
       style="fill:#0f47af;fill-opacity:1;stroke:none"
       id="rect2816"
       width="700"
       height="149.99942"
       x="25"
       y="577.36218"
       rx="8.8817842e-016"
       ry="8.8817784e-016" />
    <rect
       style="fill:#ffffff;fill-opacity:1;stroke:none"
       id="rect2818"
       width="700"
       height="149.99942"
       x="25"
       y="727.36334"
       rx="8.8817842e-016"
       ry="8.8817784e-016" />
    <rect
       style="fill:#078930;fill-opacity:1;stroke:none"
       id="rect2820"
       width="700"
       height="149.99942"
       x="25"
       y="877.36273"
       rx="8.8817842e-016"
       ry="8.8817784e-016" />
    <rect
       style="fill:none;stroke:#fcdd09;stroke-width:25;stroke-linecap:butt;stroke-linejoin:miter;stroke-miterlimit:4;stroke-opacity:1;stroke-dasharray:none"
       id="rect2822"
       width="725"
       height="475"
       x="12.5"
       y="564.86218"
       rx="8.8817837e-16"
       ry="8.8817789e-16" />
    <path
       sodipodi:type="star"
       style="fill:#edc102;fill-opacity:1;stroke:none"
       id="path3645"
       sodipodi:sides="40"
       sodipodi:cx="-298.38708"
       sodipodi:cy="282.25806"
       sodipodi:r1="147.49028"
       sodipodi:r2="50.714199"
       sodipodi:arg1="1.4722158"
       sodipodi:arg2="1.5507556"
       inkscape:flatsided="false"
       inkscape:rounded="0"
       inkscape:randomized="0"
       d="m -283.87095,429.03225 -13.49985,-96.07018 -9.63941,96.53397 1.69504,-96.99924 -24.62197,93.83754 16.84819,-95.53985 -38.99826,88.83052 31.5865,-91.72796 -52.41429,81.63619 45.54703,-85.65742 -64.53969,72.43172 58.38604,-77.47771 -75.07592,61.44373 69.7874,-67.39024 -83.76353,48.94279 79.47036,-55.6434 -90.3886,35.23673 87.19649,-42.52644 -94.788,20.66301 92.77555,-28.36233 -96.85341,5.58051 96.07018,-13.49985 -96.53397,-9.63941 96.99924,1.69504 -93.83754,-24.62197 95.53985,16.8482 -88.83052,-38.99827 91.72796,31.5865 -81.63619,-52.41428 85.65742,45.54702 -72.43172,-64.53969 77.47771,58.38604 -61.44373,-75.07591 67.39024,69.78739 -48.94279,-83.76352 55.6434,79.47035 -35.23673,-90.3886 42.52644,87.19649 -20.66301,-94.788 28.36233,92.77555 -5.58051,-96.85341 13.49985,96.07018 9.63941,-96.53397 -1.69504,96.99924 24.62197,-93.83754 -16.84819,95.53985 38.99826,-88.83052 -31.5865,91.72797 52.41429,-81.6362 -45.54703,85.65742 64.53969,-72.43172 -58.38604,77.47771 75.07592,-61.44373 -69.7874,67.39025 83.76353,-48.9428 -79.47036,55.6434 90.3886,-35.23673 -87.19649,42.52644 94.788,-20.66301 -92.77555,28.36233 96.85341,-5.5805 -96.07018,13.49985 96.53397,9.63941 -96.99924,-1.69505 93.83754,24.62198 -95.53985,-16.8482 88.83052,38.99826 -91.72796,-31.5865 81.63619,52.41429 -85.65742,-45.54703 72.43172,64.53969 -77.47771,-58.38604 61.44373,75.07592 -67.39024,-69.7874 48.94279,83.76353 -55.6434,-79.47036 35.23673,90.3886 -42.52644,-87.19649 20.66301,94.78801 -28.36233,-92.77556 z"
       transform="matrix(0.50937942,0,0,0.50937942,526.99224,658.58574)" />
  </g>
</svg>
