<?xml version="1.0" encoding="UTF-8"?><!-- Created with Inkscape (http://www.inkscape.org/) -->
<svg xmlns="http://www.w3.org/2000/svg" xmlns:xlink="http://www.w3.org/1999/xlink" width="750" height="500">
<rect fill="#078930" width="750" height="500"/>
<rect fill="#0f47af" width="750" height="166.66" y="166.66"/>
<rect fill="#ffffff" width="910" height="80" transform="rotate(146.310) translate(-630,-456)"/> 
<g id="cinco" transform="scale(.4)">
<path fill="#da121a" id="star" d="M 131.1,292.7 157.3,211.4 88.4,161 l 85.4,-0.1 26.6,-81.1 26.5,81.2 85.4,0.2 -69,50.3 26.1,81.3 -69.1,-50 -69.2,50"/>
<use xlink:href="#star" transform="matrix(-0.01,0.3,-0.3,-0.01,471.7,12.6)"/>
<use xlink:href="#star" transform="matrix(0.3,0,0,0.3,409.4,212)"/>
<use xlink:href="#star" transform="matrix(0.3,0.1,-0.1,0.3,350.2,271.3)"/>
<use xlink:href="#star" transform="matrix(-0.05,-0.3,0.3,-0.05,425.6,238.1)"/>
</g>
 <path
  d="M 356,246.5 L 336.7,250 L 357.1,253.6 C 344.1,259 349.1,264.5 339.7,264.8 C 348.1,269 347.8,261.5 359.1,261.4 L 348.1,277.3 L 365.1,265.6 C 359.7,278.5 367.1,279 360.7,285.7 C 369.6,282.8 364.1,277.7 372,269.6 L 375.5,288.7 L 379.2,268.4 C 384.5,281.3 390,276.4 390.3,285.7 C 394.6,277.4 387.1,277.7 387,266.3 L 403,277.3 L 391.1,260.4 C 404.1,265.8 404.4,258.4 411.3,264.8 C 408.4,255.8 403.3,261.4 395.1,253.4 L 414.2,250 L 394,246.2 C 407,241 402,235.4 411.3,235.1 C 403,231 403.2,238.4 391.8,238.5 L 403,222.6 L 386,234.3 C 391.3,221.4 384,221 390.3,214.2 C 381.4,217.1 387,222.2 379,230.3 L 375.5,211.2 L 371.8,231.5 C 366.5,218.5 361,223.5 360.7,214.2 C 356.4,222.5 364,222.2 364.1,233.6 L 348.1,222.6 L 359.8,239.5 C 347,234.1 346.5,241.5 339.7,235.1 342.6,244.1 347.7,238.5 356,246.5 356,246.5" style="fill:#fcdd09"/>
</svg>