<?xml version="1.0" encoding="UTF-8" standalone="no"?>
<!-- Created with Inkscape (http://www.inkscape.org/) -->

<svg
   xmlns:dc="http://purl.org/dc/elements/1.1/"
   xmlns:cc="http://creativecommons.org/ns#"
   xmlns:rdf="http://www.w3.org/1999/02/22-rdf-syntax-ns#"
   xmlns:svg="http://www.w3.org/2000/svg"
   xmlns="http://www.w3.org/2000/svg"
   xmlns:sodipodi="http://sodipodi.sourceforge.net/DTD/sodipodi-0.dtd"
   xmlns:inkscape="http://www.inkscape.org/namespaces/inkscape"
   width="750"
   height="500"
   id="svg2822"
   version="1.1"
   inkscape:version="0.47 r22583"
   sodipodi:docname="Flag of Monterrey (Casanare).svg">
  <defs
     id="defs2824">
    <inkscape:perspective
       sodipodi:type="inkscape:persp3d"
       inkscape:vp_x="0 : 526.18109 : 1"
       inkscape:vp_y="0 : 1000 : 0"
       inkscape:vp_z="744.09448 : 526.18109 : 1"
       inkscape:persp3d-origin="372.04724 : 350.78739 : 1"
       id="perspective2830" />
    <inkscape:perspective
       id="perspective5444"
       inkscape:persp3d-origin="137.6805 : 53.577998 : 1"
       inkscape:vp_z="275.36099 : 80.366997 : 1"
       inkscape:vp_y="0 : 1000 : 0"
       inkscape:vp_x="0 : 80.366997 : 1"
       sodipodi:type="inkscape:persp3d" />
  </defs>
  <sodipodi:namedview
     id="base"
     pagecolor="#ffffff"
     bordercolor="#666666"
     borderopacity="1.0"
     inkscape:pageopacity="0.0"
     inkscape:pageshadow="2"
     inkscape:zoom="0.57434918"
     inkscape:cx="98.051845"
     inkscape:cy="220.28121"
     inkscape:document-units="px"
     inkscape:current-layer="layer1"
     showgrid="false"
     inkscape:window-width="1024"
     inkscape:window-height="538"
     inkscape:window-x="-8"
     inkscape:window-y="-8"
     inkscape:window-maximized="1" />
  <metadata
     id="metadata2827">
    <rdf:RDF>
      <cc:Work
         rdf:about="">
        <dc:format>image/svg+xml</dc:format>
        <dc:type
           rdf:resource="http://purl.org/dc/dcmitype/StillImage" />
        <dc:title />
      </cc:Work>
    </rdf:RDF>
  </metadata>
  <g
     inkscape:label="Capa 1"
     inkscape:groupmode="layer"
     id="layer1"
     transform="translate(0,-552.36218)">
    <rect
       style="fill:#da121a;fill-opacity:1;stroke:none"
       id="rect2832"
       width="750"
       height="166.666"
       x="0"
       y="-5.6843419e-14"
       transform="translate(0,552.36218)" />
    <rect
       style="fill:#ffffff;fill-opacity:1;stroke:none"
       id="rect2834"
       width="750"
       height="166.666"
       x="0"
       y="719.03015" />
    <rect
       style="fill:#034418;fill-opacity:1;stroke:none"
       id="rect2836"
       width="750"
       height="166.666"
       x="0"
       y="885.69617" />
    <rect
       style="fill:#fcdd09;fill-opacity:1;stroke:none"
       id="rect5430"
       width="300"
       height="166.666"
       x="0"
       y="-5.6843419e-14"
       transform="translate(0,552.36218)" />
    <g
       transform="translate(-177.034,73.686585)"
       id="layer1-5">
      <path
         d="m 212.75,490.671 226.495,0 0,27.179 18.12,0.566 c 5.284,4.53 5.284,8.305 0,11.325 l -18.686,0 0,64.551 19.252,0 c 1.708,3.586 7.993,7.172 0,10.759 l -18.686,0 0,28.312 -227.061,0 0,-27.18 -16.421,0 c -6.498,-2.48 -9.66,-7.498 0,-11.325 l 16.421,0 0,-65.683 -18.12,0 c -6.04,-3.775 -6.04,-7.55 0,-11.325 l 18.12,0 0.566,-27.179 z"
         style="fill:#ffffff;fill-opacity:1;fill-rule:evenodd;stroke:#000000;stroke-width:3;stroke-linecap:butt;stroke-linejoin:miter;stroke-miterlimit:4;stroke-opacity:1;stroke-dasharray:none"
         id="path3324" />
      <path
         d="m 220.677,492.369 3.398,134.199 203.279,0 2.831,-135.331 -9.626,-7.361 c -21.132,5.889 -33.582,2.565 -49.263,0 -13.775,-2.904 -27.658,-5.418 -45.865,7.927 -11.149,-6.056 -18.375,-14.319 -52.66,-7.361 -14.156,2.137 -28.312,3.8 -42.468,0 l -9.626,7.927 z"
         style="fill:#ffffff;fill-opacity:1;fill-rule:evenodd;stroke:#000000;stroke-width:2;stroke-linecap:butt;stroke-linejoin:miter;stroke-miterlimit:4;stroke-opacity:1;stroke-dasharray:none"
         id="path3326" />
      <path
         d="m 230.303,485.008 3.964,130.801 -10.192,10.759 9.626,-11.325 c 11.058,4.722 25.79,3.321 41.335,0.566 32.524,-2.718 37.713,4.028 50.527,8.349 20.75,-12.193 34.65,-7.853 49.697,-7.216 13.967,1.446 27.934,4.089 41.902,-1.699 l 9.059,10.758 -9.626,-11.891 3.964,-130.234"
         style="fill:none;stroke:#000000;stroke-width:2;stroke-linecap:butt;stroke-linejoin:miter;stroke-miterlimit:4;stroke-opacity:1;stroke-dasharray:none"
         id="path3328" />
      <path
         d="m 325.431,623.737 0,-133.066"
         style="fill:none;stroke:#000000;stroke-width:2;stroke-linecap:butt;stroke-linejoin:miter;stroke-miterlimit:4;stroke-opacity:1;stroke-dasharray:none"
         id="path3330" />
      <path
         d="m 325.535,623.778 c -4.793,2.46 -8.364,5.598 -9.693,9.982 8.631,10.988 14.173,6.193 19.386,-0.289 -2.173,-4.5 -5.595,-7.502 -9.693,-9.693 z"
         style="fill:#ffffff;fill-opacity:1;fill-rule:evenodd;stroke:#000000;stroke-width:2;stroke-linecap:butt;stroke-linejoin:miter;stroke-miterlimit:4;stroke-opacity:1;stroke-dasharray:none"
         id="path3332" />
    </g>
  </g>
</svg>
