<?xml version="1.0" encoding="UTF-8" standalone="no"?>
<!-- Created with Inkscape (http://www.inkscape.org/) -->

<svg
   xmlns:dc="http://purl.org/dc/elements/1.1/"
   xmlns:cc="http://creativecommons.org/ns#"
   xmlns:rdf="http://www.w3.org/1999/02/22-rdf-syntax-ns#"
   xmlns:svg="http://www.w3.org/2000/svg"
   xmlns="http://www.w3.org/2000/svg"
   xmlns:sodipodi="http://sodipodi.sourceforge.net/DTD/sodipodi-0.dtd"
   xmlns:inkscape="http://www.inkscape.org/namespaces/inkscape"
   width="750"
   height="500"
   id="svg2"
   version="1.1"
   inkscape:version="0.48.3.1 r9886"
   sodipodi:docname="Flag of Villapinzón (Cundinamarca).svg">
  <defs
     id="defs4">
    <inkscape:perspective
       sodipodi:type="inkscape:persp3d"
       inkscape:vp_x="0 : 526.18109 : 1"
       inkscape:vp_y="0 : 1000 : 0"
       inkscape:vp_z="744.09448 : 526.18109 : 1"
       inkscape:persp3d-origin="372.04724 : 350.78739 : 1"
       id="perspective10" />
  </defs>
  <sodipodi:namedview
     id="base"
     pagecolor="#ffffff"
     bordercolor="#666666"
     borderopacity="1.0"
     inkscape:pageopacity="0.0"
     inkscape:pageshadow="2"
     inkscape:zoom="0.945"
     inkscape:cx="350"
     inkscape:cy="240.71681"
     inkscape:document-units="px"
     inkscape:current-layer="layer1"
     showgrid="false"
     inkscape:window-width="1280"
     inkscape:window-height="962"
     inkscape:window-x="-8"
     inkscape:window-y="-8"
     inkscape:window-maximized="1" />
  <metadata
     id="metadata7">
    <rdf:RDF>
      <cc:Work
         rdf:about="">
        <dc:format>image/svg+xml</dc:format>
        <dc:type
           rdf:resource="http://purl.org/dc/dcmitype/StillImage" />
        <dc:title></dc:title>
      </cc:Work>
    </rdf:RDF>
  </metadata>
  <g
     inkscape:label="Capa 1"
     inkscape:groupmode="layer"
     id="layer1"
     transform="translate(0,-552.36218)">
    <path
       style="fill:#ffffff;stroke:none;stroke-width:1px;stroke-linecap:butt;stroke-linejoin:miter;stroke-opacity:1;fill-opacity:1"
       d="M 0,0 750,500 750,0 0,0 z"
       id="path2820"
       transform="translate(0,552.36218)" />
    <path
       style="fill:#ffffff;stroke:none;stroke-width:1px;stroke-linecap:butt;stroke-linejoin:miter;stroke-opacity:1;fill-opacity:1"
       d="M 0,0 0,500 750,500 0,0 z"
       id="path3594"
       transform="translate(0,552.36218)" />
    <path
       style="fill:#0f47af;stroke:none;stroke-width:1px;stroke-linecap:butt;stroke-linejoin:miter;stroke-opacity:1"
       d="m 0,50 0,-50 52,0 698,450 0,50 -50,0 L 0,50 z"
       id="path3649"
       transform="translate(0,552.36218)" />
    <path
       inkscape:connector-curvature="0"
       d="m 342.20585,829.95767 -8.48485,18.97284 18.78787,20.37827 4.24243,99.7832 -8.48485,18.2702 39.25057,-0.93997 18.09188,-0.26598 c -13.26487,-21.38624 -13.45956,-75.154 -14.31214,-110.52317 8.22232,-9.39315 15.24242,-14.60444 22.42423,-20.37826 l -12.72726,-16.86477 -11.51516,12.64857 0.60606,-22.48633 -13.33333,18.97287 -10.30302,-23.89177 -5.45456,27.40523 -18.78787,-21.08093 z"
       style="fill:#9d5333;fill-opacity:1;fill-rule:evenodd;stroke:none"
       id="path1910"
       sodipodi:nodetypes="cccccccccccccccc" />
    <path
       inkscape:connector-curvature="0"
       d="m 409.12372,660.92937 a 43.562179,62.281423 0 0 1 60.98702,41.5209 40.658032,58.129329 0 0 1 0,112.10662 43.562179,62.281423 0 0 1 -60.98702,41.521 43.562179,62.281423 0 0 1 -68.24743,0 43.562179,62.281423 0 0 1 -60.98704,-41.521 40.658032,58.129329 0 0 1 0,-112.10662 43.562179,62.281423 0 0 1 60.98704,-41.5209 43.562179,62.281423 0 0 1 68.24743,0 z"
       style="fill:#008000;stroke:none"
       id="path67" />
    <path
       sodipodi:type="star"
       style="fill:#fcdd09;fill-opacity:1;stroke:#fcdd09;stroke-width:0.4416832;stroke-linecap:round;stroke-linejoin:round;stroke-miterlimit:4;stroke-opacity:1;stroke-dasharray:none"
       id="path7454"
       sodipodi:sides="8"
       sodipodi:cx="284.15097"
       sodipodi:cy="-18.999601"
       sodipodi:r1="71.471939"
       sodipodi:r2="7.1471939"
       sodipodi:arg1="1.9634892"
       sodipodi:arg2="2.3561883"
       inkscape:flatsided="false"
       inkscape:rounded="0"
       inkscape:randomized="0"
       d="m 256.80025,47.03203 22.29692,-60.977771 -60.97749,22.2976766 58.8841,-27.3514926 -58.88444,-27.350761 60.97777,22.296919 -22.29768,-60.977494 27.3515,58.884098 27.35076,-58.884438 -22.29692,60.977771 60.97749,-22.297676 -58.8841,27.351492 58.88444,27.3507616 -60.97777,-22.2969186 22.29768,60.977493 -27.3515,-58.884097 z"
       transform="matrix(2.2640664,0,0,2.2640664,-268.33667,795.37854)" />
    <path
       sodipodi:type="arc"
       style="fill:#fcdd09;fill-opacity:1;stroke:none"
       id="path6533"
       sodipodi:cx="378.2258"
       sodipodi:cy="201.6129"
       sodipodi:rx="45.967743"
       sodipodi:ry="59.677418"
       d="m 424.19354,201.6129 a 45.967743,59.677418 0 1 1 -91.93548,0 45.967743,59.677418 0 1 1 91.93548,0 z"
       transform="matrix(1.5107211,0,0,1.1277433,-195.69924,527.66352)" />
    <g
       style="stroke:#000000;stroke-width:3.05549073;stroke-miterlimit:4;stroke-opacity:1;stroke-dasharray:none"
       transform="matrix(-0.30741895,-0.10429834,-0.10219299,0.31375233,725.82304,567.84253)"
       id="g3312">
      <path
         inkscape:connector-curvature="0"
         sodipodi:nodetypes="cccccccccc"
         id="path3314"
         d="m 807.62174,1003.8594 -12.13304,7.4431 c -7.48936,9.5259 7.35651,13.0053 12.75621,11.4444 -4.05079,-3.0818 -8.53061,-2.2455 -8.1567,-6.4306 2.41383,-5.817 6.79313,-3.885 10.20451,-7.0344 -0.78848,3.4979 1.92612,6.8259 8.31793,10.9289 -3.63333,-5.4338 -5.15237,-12.4409 -3.36634,-14.8322 l 0.56521,-5.0681 -5.94408,-3.28702 c -0.23675,2.65232 -0.0514,4.35512 -2.2437,6.83592 z"
         style="fill:#e20909;fill-opacity:1;fill-rule:evenodd;stroke:#000000;stroke-width:3.05549073;stroke-linecap:butt;stroke-linejoin:miter;stroke-miterlimit:4;stroke-opacity:1;stroke-dasharray:none" />
      <path
         inkscape:connector-curvature="0"
         style="fill:#ffffff;fill-opacity:1;fill-rule:evenodd;stroke:#000000;stroke-width:3.05549073;stroke-linecap:butt;stroke-linejoin:miter;stroke-miterlimit:4;stroke-opacity:1;stroke-dasharray:none"
         d="m 799.86077,907.14153 c 1.74364,-0.45674 14.19375,14.85319 18.3723,28.10371 2.38135,7.55144 7.22666,13.96251 5.79284,15.39633 -0.30262,5.95309 -4.40117,8.87572 -5.7713,17.85926 -1.08463,7.11159 -0.61546,25.55117 -2.30992,32.56167 l -6.06092,-4.04057 c 0.43595,-9.58753 0.34002,-28.04573 2.02031,-43.85498 -13.65548,-14.98393 -33.27954,-22.27982 -36.37113,-36.75867"
         id="path3316"
         sodipodi:nodetypes="cscscccc" />
    </g>
    <path
       inkscape:connector-curvature="0"
       style="fill:#ffffff;fill-opacity:1;fill-rule:evenodd;stroke:#000000;stroke-width:1;stroke-linecap:butt;stroke-linejoin:miter;stroke-miterlimit:4;stroke-opacity:1;stroke-dasharray:none"
       d="m 402.04941,755.5233 c 0.83959,-6.84224 3.60456,-12.58301 1.74261,-19.789 l 0.74973,-6.35532 c 2.89665,-14.438 -9.81632,-20.40391 -18.16524,-30.26341 -7.74087,-9.6922 -5.73524,1.95112 -1.80267,6.22937 -7.40323,-9.86585 -6.38867,0.78748 -2.07284,5.8045 -6.97087,-8.99602 -5.96366,2.54598 -2.20617,6.79812 -5.98819,-7.84284 -5.8436,2.60168 -1.51753,6.16846 -6.6777,-3.67448 -1.31222,6.40069 0.73339,8.10057 -6.40835,-4.9407 -3.1863,4.40853 1.91297,6.85753 -6.4977,-4.01365 -2.41126,7.39323 4.74482,8.21259 l 6.64452,3.09198 5.89161,8.35032"
       id="path3190"
       sodipodi:nodetypes="ccccccccccccc" />
    <path
       inkscape:connector-curvature="0"
       sodipodi:nodetypes="ccssccccccsccsscssscc"
       id="path13446"
       d="m 374.19144,761.49303 c -0.66643,0.94429 -1.40009,1.77584 -5.72832,9.83845 -1.59789,1.27238 -1.60723,8.5982 -13.22082,9.0786 -4.19407,0.17349 -21.32672,1.74582 -25.37647,3.24209 -4.88457,1.80471 -7.20354,4.56516 1.3858,4.30156 -7.97141,1.07666 -6.0021,5.61536 1.56962,4.17788 -7.32573,2.1298 -7.52124,6.22642 1.90634,3.85989 -6.30312,2.84349 -7.10891,5.92104 2.82871,2.39282 -8.24723,5.05952 -2.56472,5.98582 4.64082,1.65555 -4.0504,2.45047 -4.70975,7.69907 4.60671,2.82487 -8.03303,5.6324 0.11802,4.5985 5.36566,1.2817 8.44858,-5.33999 12.97056,-14.87004 19.36305,-20.73416 8.50859,-4.29271 19.24871,-2.97336 28.61378,-5.96764 4.55561,-1.57636 8.00985,-1.30478 15.0316,-14.03164 7.02173,-12.72686 2.83377,-10.84721 11.79206,-17.11307 1.59829,-1.11792 5.65265,-2.25078 5.78709,-2.35319 -0.27903,-0.9187 -0.80456,-1.75008 -0.77358,-2.59142 0.20179,-5.48372 -3.45481,-8.82648 -9.40115,-7.09545 -2.17351,0.63272 -4.72754,2.51134 -8.53028,5.14493 -3.19476,2.21256 -11.35217,1.81642 -15.48469,4.57452 -8.2745,4.48916 -18.75514,8.31122 -24.37593,17.51371 z"
       style="fill:#ffffff;fill-opacity:1;fill-rule:evenodd;stroke:#000000;stroke-width:1;stroke-linecap:butt;stroke-linejoin:miter;stroke-miterlimit:4;stroke-opacity:1;stroke-dasharray:none" />
    <path
       inkscape:connector-curvature="0"
       sodipodi:nodetypes="ccccccccccccc"
       id="path3197"
       d="m 399.05592,753.30769 c 5.70501,-16.40984 -9.658,-29.27019 -22.06038,-36.27027 -7.00493,-3.53175 -17.12227,-15.99851 -22.35942,-18.48039 -7.60442,-3.40778 -5.47691,-0.11149 -0.23576,8.57645 -10.52169,-9.78317 -3.5805,4.56244 0.37649,8.22828 -8.38682,-7.55379 -3.59735,5.52824 0.01,8.29456 -7.0512,-4.95208 -3.52913,4.2794 1.36094,7.57535 -8.05073,-5.92554 -3.22248,5.06358 1.85915,7.96016 -8.42287,-4.50248 -3.86656,4.23691 3.3155,7.22189 -10.39961,-3.8856 -2.78142,3.60581 3.41768,5.30376 -10.97035,-2.99348 -4.31833,4.99684 5.00637,5.01647 -7.81022,0.43664 -7.34297,4.42609 2.3937,5.25147 10.73343,4.32364 11.59424,-12.83094 21.95378,-5.31123"
       style="fill:#ffffff;fill-opacity:1;fill-rule:evenodd;stroke:#000000;stroke-width:1;stroke-linecap:butt;stroke-linejoin:miter;stroke-miterlimit:4;stroke-opacity:1;stroke-dasharray:none" />
    <path
       inkscape:connector-curvature="0"
       style="fill:#e20909;fill-opacity:1;fill-rule:evenodd;stroke:#000000;stroke-width:1;stroke-linecap:round;stroke-linejoin:round;stroke-miterlimit:4;stroke-opacity:1;stroke-dasharray:none"
       d="m 430.87305,743.1603 0,1.94829 c 2.19227,0.38397 4.46261,1.37885 6.12695,2.70868 -1.59689,-2.81293 -3.82373,-3.68571 -6.1253,-4.65697 z"
       id="path3199"
       sodipodi:nodetypes="ccccc" />
    <path
       sodipodi:type="arc"
       style="fill:#ffffff;fill-opacity:1;stroke:#000000;stroke-width:5.38683367;stroke-linejoin:miter;stroke-miterlimit:4;stroke-opacity:1;stroke-dasharray:none"
       id="path3201"
       sodipodi:cx="552.21405"
       sodipodi:cy="255.86182"
       sodipodi:rx="7.5871706"
       sodipodi:ry="7.5871706"
       d="m 559.80122,255.86182 a 7.5871706,7.5871706 0 1 1 -15.17434,0 7.5871706,7.5871706 0 1 1 15.17434,0 z"
       transform="matrix(0.19013282,0.01361367,-0.02414953,0.17951993,328.18931,686.54044)" />
    <path
       inkscape:connector-curvature="0"
       style="fill:#e20909;fill-opacity:1;fill-rule:evenodd;stroke:#000000;stroke-width:1;stroke-linecap:round;stroke-linejoin:round;stroke-miterlimit:4;stroke-opacity:1;stroke-dasharray:none"
       d="m 432.77719,741.95461 -1.90414,1.20569 c 2.30157,0.97126 4.52844,1.84404 6.1253,4.65697 -0.0123,-3.48154 -3.37077,-4.43978 -4.22116,-5.86266 z"
       id="path3203"
       sodipodi:nodetypes="ccccc" />
    <g
       style="stroke:#000000;stroke-width:3.05549073;stroke-miterlimit:4;stroke-opacity:1;stroke-dasharray:none"
       transform="matrix(-0.30741895,-0.10429834,-0.10219299,0.31375233,722.26544,568.12436)"
       id="g13436">
      <path
         inkscape:connector-curvature="0"
         sodipodi:nodetypes="cccccccccc"
         id="path3206"
         d="m 807.62174,1003.8594 -12.13304,7.4431 c -7.48936,9.5259 7.35651,13.0053 12.75621,11.4444 -4.05079,-3.0818 -8.53061,-2.2455 -8.1567,-6.4306 2.41383,-5.817 6.79313,-3.885 10.20451,-7.0344 -0.78848,3.4979 1.92612,6.8259 8.31793,10.9289 -3.63333,-5.4338 -5.15237,-12.4409 -3.36634,-14.8322 l 0.56521,-5.0681 -5.94408,-3.28702 c -0.23675,2.65232 -0.0514,4.35512 -2.2437,6.83592 z"
         style="fill:#e20909;fill-opacity:1;fill-rule:evenodd;stroke:#000000;stroke-width:3.05549073;stroke-linecap:butt;stroke-linejoin:miter;stroke-miterlimit:4;stroke-opacity:1;stroke-dasharray:none" />
      <path
         inkscape:connector-curvature="0"
         style="fill:#ffffff;fill-opacity:1;fill-rule:evenodd;stroke:#000000;stroke-width:3.05549073;stroke-linecap:butt;stroke-linejoin:miter;stroke-miterlimit:4;stroke-opacity:1;stroke-dasharray:none"
         d="m 799.86077,907.14153 c 1.74364,-0.45674 14.19375,14.85319 18.3723,28.10371 2.38135,7.55144 7.22666,13.96251 5.79284,15.39633 -0.30262,5.95309 -4.40117,8.87572 -5.7713,17.85926 -1.08463,7.11159 -0.61546,25.55117 -2.30992,32.56167 l -6.06092,-4.04057 c 0.43595,-9.58753 0.34002,-28.04573 2.02031,-43.85498 -13.65548,-14.98393 -33.27954,-22.27982 -36.37113,-36.75867"
         id="path11472"
         sodipodi:nodetypes="cscscccc" />
    </g>
  </g>
</svg>
