<?xml version="1.0" encoding="UTF-8" standalone="no"?>
<!-- Created with Inkscape (http://www.inkscape.org/) -->

<svg
   xmlns:dc="http://purl.org/dc/elements/1.1/"
   xmlns:cc="http://creativecommons.org/ns#"
   xmlns:rdf="http://www.w3.org/1999/02/22-rdf-syntax-ns#"
   xmlns:svg="http://www.w3.org/2000/svg"
   xmlns="http://www.w3.org/2000/svg"
   xmlns:sodipodi="http://sodipodi.sourceforge.net/DTD/sodipodi-0.dtd"
   xmlns:inkscape="http://www.inkscape.org/namespaces/inkscape"
   width="750"
   height="500"
   id="svg2"
   version="1.1"
   inkscape:version="0.47 r22583"
   sodipodi:docname="Documento nuevo 1">
  <defs
     id="defs4">
    <inkscape:perspective
       sodipodi:type="inkscape:persp3d"
       inkscape:vp_x="0 : 526.18109 : 1"
       inkscape:vp_y="0 : 1000 : 0"
       inkscape:vp_z="744.09448 : 526.18109 : 1"
       inkscape:persp3d-origin="372.04724 : 350.78739 : 1"
       id="perspective10" />
    <inkscape:perspective
       id="perspective2830"
       inkscape:persp3d-origin="0.5 : 0.33333333 : 1"
       inkscape:vp_z="1 : 0.5 : 1"
       inkscape:vp_y="0 : 1000 : 0"
       inkscape:vp_x="0 : 0.5 : 1"
       sodipodi:type="inkscape:persp3d" />
  </defs>
  <sodipodi:namedview
     id="base"
     pagecolor="#ffffff"
     bordercolor="#666666"
     borderopacity="1.0"
     inkscape:pageopacity="0.0"
     inkscape:pageshadow="2"
     inkscape:zoom="0.62"
     inkscape:cx="350"
     inkscape:cy="252.95834"
     inkscape:document-units="px"
     inkscape:current-layer="layer1"
     showgrid="false"
     inkscape:window-width="1024"
     inkscape:window-height="538"
     inkscape:window-x="-8"
     inkscape:window-y="-8"
     inkscape:window-maximized="1" />
  <metadata
     id="metadata7">
    <rdf:RDF>
      <cc:Work
         rdf:about="">
        <dc:format>image/svg+xml</dc:format>
        <dc:type
           rdf:resource="http://purl.org/dc/dcmitype/StillImage" />
        <dc:title></dc:title>
      </cc:Work>
    </rdf:RDF>
  </metadata>
  <g
     inkscape:label="Capa 1"
     inkscape:groupmode="layer"
     id="layer1"
     transform="translate(0,-552.36218)">
    <path
       style="fill:#0b3583;stroke:none"
       d="m 1.609442,552.36218 199.570818,0 548.81974,300 0,200.00002 -199.57082,0 L 0,752.36218 l 1.609442,-200 z"
       id="path2816" />
    <path
       style="fill:#81b31c;stroke:none;stroke-width:1px;stroke-linecap:butt;stroke-linejoin:miter;stroke-opacity:1"
       d="M 0,200 0,500 550,500 0,200 z"
       id="path2822"
       transform="translate(0,552.36218)" />
    <path
       style="fill:#ffffff;stroke:none;stroke-width:1px;stroke-linecap:butt;stroke-linejoin:miter;stroke-opacity:1"
       d="M 200,0 750,0 750,300 200,0 z"
       id="path2824"
       transform="translate(0,552.36218)" />
    <g
       id="g3661"
       transform="matrix(1.0722157,0,0,0.9072758,292.08588,708.65429)"
       style="fill:#ffffff">
      <path
         id="path9478"
         d="m 77.246792,4.495199 c -9.502524,0 -17.214812,7.712276 -17.2148,17.2148 0,9.502524 7.712276,17.2148 17.2148,17.2148 9.502524,0 17.214811,-7.712276 17.2148,-17.2148 0,-9.502524 -7.712276,-17.2148 -17.2148,-17.2148 z m 0,7.177777 c 5.54314,0 10.048887,4.493883 10.048887,10.037023 8e-6,5.54314 -4.505747,10.048887 -10.048887,10.048887 -5.54314,0 -10.037024,-4.505747 -10.037024,-10.048887 -3e-6,-5.54314 4.493884,-10.037023 10.037024,-10.037023 z"
         style="fill:#ffffff;fill-opacity:1;fill-rule:evenodd;stroke:#000000;stroke-width:0.751818;stroke-miterlimit:4;stroke-opacity:1;stroke-dasharray:none" />
      <path
         sodipodi:nodetypes="ccccccccccscccsccssc"
         id="path11290"
         d="m 77.258656,23.13369 c -3.021988,0 -6.413637,4.391679 -6.418352,8.563345 0.574962,46.406198 -1.50919,92.693905 -1.995374,139.071515 -22.056862,-6.25498 -27.486701,-8.83833 -39.232386,-22.03496 3.465011,-1.35978 10.736321,-2.34421 16.443724,-3.11332 -12.672196,-5.21979 -24.276577,-13.26922 -35.970228,-21.08209 0.35544,6.74679 -1.2942365,28.38973 -2.3591633,38.34817 3.9037383,-3.3359 4.8507323,-7.26527 8.9375533,-7.46365 25.164073,30.69671 53.809828,18.47064 60.451857,41.14031 l 0.26101,0 c 7.05765,-21.77539 43.346173,-16.77111 60.916423,-41.34888 1.12388,-1.57212 5.37706,4.6975 8.63879,9.50669 -1.23399,-16.97321 -0.13812,-28.38283 -0.44675,-39.90102 -7.64177,6.2301 -27.69322,19.25262 -35.91058,25.02968 11.74963,-0.72305 18.38591,-1.82437 17.44782,-0.98363 -14.39855,12.90424 -17.17637,13.81175 -43.087391,22.12436 -1.013472,-9.10761 -1.956239,-87.383009 -2.21947,-139.516062 0.0026,-0.03517 -0.0022,-0.07146 0,-0.106777 0.01395,-0.219988 0.02373,-0.439431 0.02373,-0.664389 0,-4.177194 -2.456327,-7.569292 -5.481211,-7.569292 z"
         style="fill:#ffffff;fill-opacity:1;fill-rule:evenodd;stroke:#000000;stroke-width:0.751818;stroke-miterlimit:4;stroke-opacity:1;stroke-dasharray:none" />
      <g
         transform="matrix(0.379651,0,0,0.379651,-255.0843,-53.84055)"
         id="g12214"
         style="fill:#ffffff;fill-opacity:1;stroke:#000000;stroke-width:1.98028696;stroke-miterlimit:4;stroke-opacity:1;stroke-dasharray:none">
        <path
           style="fill:#ffffff;fill-opacity:1;fill-rule:evenodd;stroke:#000000;stroke-width:1.98028696;stroke-miterlimit:4;stroke-opacity:1;stroke-dasharray:none;display:inline"
           d="m 782.96875,249.65625 -15.375,30.78125 c 33.27399,13.13981 69.50887,20.375 107.4375,20.375 38.17673,0 74.64136,-7.32136 108.09375,-20.625 l -16.40625,-30.40625 c -28.84431,9.50741 -59.67163,14.65625 -91.6875,14.65625 -32.15561,0 -63.10963,-5.19411 -92.0625,-14.78125 z"
           id="path9483" />
        <rect
           style="fill:#ffffff;fill-opacity:1;fill-rule:evenodd;stroke:#000000;stroke-width:1.98028696;stroke-miterlimit:4;stroke-opacity:1;stroke-dasharray:none;display:inline"
           id="rect11286"
           width="7.5573497"
           height="55.420628"
           x="-736.60876"
           y="638.88129"
           transform="matrix(-0.895595,0.44487,0.44487,0.895595,0,0)"
           ry="3.8859246"
           rx="3.5395751" />
        <rect
           style="fill:#ffffff;fill-opacity:1;fill-rule:evenodd;stroke:#000000;stroke-width:1.98028696;stroke-miterlimit:4;stroke-opacity:1;stroke-dasharray:none;display:inline"
           id="rect11288"
           width="7.5573478"
           height="55.420612"
           x="-714.48407"
           y="633.69897"
           transform="matrix(-0.895595,0.44487,0.44487,0.895595,0,0)"
           ry="3.8859239"
           rx="3.5395741" />
        <rect
           style="fill:#ffffff;fill-opacity:1;fill-rule:evenodd;stroke:#000000;stroke-width:1.98028696;stroke-miterlimit:4;stroke-opacity:1;stroke-dasharray:none"
           id="rect10397"
           width="7.5573525"
           height="55.42065"
           x="830.74225"
           y="-141.02827"
           transform="matrix(0.895595,0.44487,-0.44487,0.895595,0,0)"
           ry="3.885926"
           rx="3.5395765" />
        <rect
           style="fill:#ffffff;fill-opacity:1;fill-rule:evenodd;stroke:#000000;stroke-width:1.98028696;stroke-miterlimit:4;stroke-opacity:1;stroke-dasharray:none;display:inline"
           id="rect11284"
           width="7.5573506"
           height="55.420635"
           x="852.86694"
           y="-146.21059"
           transform="matrix(0.895595,0.44487,-0.44487,0.895595,0,0)"
           ry="3.8859246"
           rx="3.5395756" />
      </g>
    </g>
  </g>
</svg>
