<svg width="900" height="600" xmlns="http://www.w3.org/2000/svg">
  <path style="fill:#d6001c;fill-opacity:1;stroke:none;stroke-width:2.07848" d="M0 552.36218h900v600H0z" transform="translate(0 -552.36218)"/>
  <path style="fill:#008c15;fill-opacity:1;stroke:none;stroke-width:1.69707" d="M0 752.36218h900v400H0z" transform="translate(0 -552.36218)"/>
  <path style="fill:#fdda25;fill-opacity:1;stroke:none;stroke-width:1.20001" d="M0 952.36218h900v200H0z" transform="translate(0 -552.36218)"/>
  <g transform="matrix(.65058 .99292 -1.13602 .71325 646.41062698 -226.6549945)" style="display:inline;fill:#000">
    <path d="M278.38513 16.807786s-4.77633 23.448347-12.34217 49.96237c-7.56584 26.514031-17.92118 56.093734-17.92118 56.093734 6.52585-15.4688 15.53362-17.62175 25.88464-25.627557l5.14412-.09914.17944-.0035 5.14413-.09915c9.54895 10.947707 19.75703 10.473287 26.95728 26.297717 0 0-10.50681-28.175625-18.76838-54.806757-8.26157-26.631124-14.27788-51.717761-14.27788-51.717761z" style="fill:#000;fill-rule:evenodd;stroke:#000;stroke-width:2.70063;stroke-linecap:butt;stroke-linejoin:miter;stroke-miterlimit:4;stroke-dasharray:none;stroke-opacity:1"/>
    <path d="m278.66389 25.968884.65239 71.16229" style="fill:#000;fill-rule:evenodd;stroke:#000;stroke-width:1.80042;stroke-linecap:butt;stroke-linejoin:miter;stroke-miterlimit:4;stroke-dasharray:none;stroke-opacity:1"/>
    <rect rx="1.0628617" transform="rotate(-1.1050981) skewX(-.1718354)" ry="1.6710192" y="102.49609" x="270.20807" height="3.1234975" width="14.983953" style="opacity:.9;fill:#000;fill-opacity:1;stroke:#000;stroke-width:1.80043;stroke-miterlimit:4;stroke-dasharray:none;stroke-opacity:1"/>
    <path d="m274.38605 100.3424-1.6402 15.02972 13.87718-.26746-2.09583-14.80803-10.14115.0458z" style="fill:#000;fill-rule:evenodd;stroke:#000;stroke-width:2.70063;stroke-linecap:butt;stroke-linejoin:miter;stroke-miterlimit:4;stroke-dasharray:none;stroke-opacity:1"/>
  </g>
  <path style="display:inline;fill:#000;fill-opacity:1;fill-rule:evenodd;stroke:#000;stroke-width:3.29363;stroke-miterlimit:4;stroke-dasharray:none;stroke-dashoffset:0;stroke-opacity:1" transform="matrix(.8701 -.55452 .58002 .86048 -6.9903479 -611.219971)" d="M-505.85437 965.81561h668.17932v9.163496h-668.17932z"/>
  <g style="display:inline;fill:#000;fill-opacity:1">
    <g style="fill:#000;fill-opacity:1;stroke:#000;stroke-width:2.56082">
      <path style="display:inline;fill:#000;fill-opacity:1;fill-rule:evenodd;stroke:#000;stroke-width:2.56082;stroke-linecap:butt;stroke-linejoin:miter;stroke-opacity:1" d="m272.40459 594.68656-25.77115 18.14871 1.9216-72.40974 23.8424-19.81413.007 74.07516zM283.34995 594.31458l25.77115 18.14871-1.9216-72.40974-23.8424-19.81413-.007 74.07516z" transform="matrix(.69507 1.04145 -1.19286 .76003 653.89443698 -250.98171167)"/>
      <path style="fill:#000;fill-opacity:1;fill-rule:evenodd;stroke:#000;stroke-width:2.56082;stroke-linecap:butt;stroke-linejoin:miter;stroke-opacity:1" d="M277.76062 519.84556v90.46332" transform="matrix(.69507 1.04145 -1.19286 .76003 653.89443698 -250.98171167)"/>
    </g>
    <g style="fill:#000;fill-opacity:1">
      <path style="fill:#000;fill-opacity:1;fill-rule:evenodd;stroke:#000;stroke-width:.853606px;stroke-linecap:butt;stroke-linejoin:miter;stroke-opacity:1" d="m266.9305 534.49807-14.01544 10.19305" transform="matrix(.69507 1.04145 -1.19286 .76003 653.89443698 -250.98171167)"/>
      <path style="display:inline;fill:#000;fill-opacity:1;fill-rule:evenodd;stroke:#000;stroke-width:.853606px;stroke-linecap:butt;stroke-linejoin:miter;stroke-opacity:1" d="m266.68064 544.44627-14.01544 10.19305M266.29343 555.52124l-14.01544 10.19305M266.29343 566.35135l-14.01544 10.19305M266.29343 575.90734l-14.01544 10.19305M266.29343 586.10039l-14.01544 10.19305" transform="matrix(.69507 1.04145 -1.19286 .76003 653.89443698 -250.98171167)"/>
    </g>
    <g style="display:inline;fill:#000;fill-opacity:1">
      <path style="fill:#000;fill-opacity:1;fill-rule:evenodd;stroke:#000;stroke-width:.853606px;stroke-linecap:butt;stroke-linejoin:miter;stroke-opacity:1" d="m266.9305 534.49807-14.01544 10.19305" transform="matrix(-.69507 -1.04145 -1.19286 .76003 1040.49775733 327.73567898)"/>
      <path style="display:inline;fill:#000;fill-opacity:1;fill-rule:evenodd;stroke:#000;stroke-width:.853606px;stroke-linecap:butt;stroke-linejoin:miter;stroke-opacity:1" d="m266.68064 544.44627-14.01544 10.19305M266.29343 555.52124l-14.01544 10.19305M266.29343 566.35135l-14.01544 10.19305M266.29343 575.90734l-14.01544 10.19305M266.29343 586.10039l-14.01544 10.19305" transform="matrix(-.69507 -1.04145 -1.19286 .76003 1040.49775733 327.73567898)"/>
    </g>
  </g>
</svg>
