<?xml version="1.0" encoding="UTF-8" standalone="no"?>
<!-- Created with Inkscape (http://www.inkscape.org/) -->

<svg
   xmlns:dc="http://purl.org/dc/elements/1.1/"
   xmlns:cc="http://creativecommons.org/ns#"
   xmlns:rdf="http://www.w3.org/1999/02/22-rdf-syntax-ns#"
   xmlns:svg="http://www.w3.org/2000/svg"
   xmlns="http://www.w3.org/2000/svg"
   xmlns:sodipodi="http://sodipodi.sourceforge.net/DTD/sodipodi-0.dtd"
   xmlns:inkscape="http://www.inkscape.org/namespaces/inkscape"
   width="750"
   height="500"
   id="svg3816"
   version="1.1"
   inkscape:version="0.47 r22583"
   sodipodi:docname="Flag of Nuevo Colón (Boyacá).svg">
  <defs
     id="defs3818">
    <inkscape:perspective
       sodipodi:type="inkscape:persp3d"
       inkscape:vp_x="0 : 526.18109 : 1"
       inkscape:vp_y="0 : 1000 : 0"
       inkscape:vp_z="744.09448 : 526.18109 : 1"
       inkscape:persp3d-origin="372.04724 : 350.78739 : 1"
       id="perspective3824" />
    <inkscape:perspective
       id="perspective3315"
       inkscape:persp3d-origin="0.5 : 0.33333333 : 1"
       inkscape:vp_z="1 : 0.5 : 1"
       inkscape:vp_y="0 : 1000 : 0"
       inkscape:vp_x="0 : 0.5 : 1"
       sodipodi:type="inkscape:persp3d" />
    <inkscape:perspective
       id="perspective3104"
       inkscape:persp3d-origin="0.5 : 0.33333333 : 1"
       inkscape:vp_z="1 : 0.5 : 1"
       inkscape:vp_y="0 : 1000 : 0"
       inkscape:vp_x="0 : 0.5 : 1"
       sodipodi:type="inkscape:persp3d" />
    <inkscape:perspective
       id="perspective3104-9"
       inkscape:persp3d-origin="0.5 : 0.33333333 : 1"
       inkscape:vp_z="1 : 0.5 : 1"
       inkscape:vp_y="0 : 1000 : 0"
       inkscape:vp_x="0 : 0.5 : 1"
       sodipodi:type="inkscape:persp3d" />
    <inkscape:perspective
       id="perspective3104-6"
       inkscape:persp3d-origin="0.5 : 0.33333333 : 1"
       inkscape:vp_z="1 : 0.5 : 1"
       inkscape:vp_y="0 : 1000 : 0"
       inkscape:vp_x="0 : 0.5 : 1"
       sodipodi:type="inkscape:persp3d" />
    <inkscape:perspective
       id="perspective3104-0"
       inkscape:persp3d-origin="0.5 : 0.33333333 : 1"
       inkscape:vp_z="1 : 0.5 : 1"
       inkscape:vp_y="0 : 1000 : 0"
       inkscape:vp_x="0 : 0.5 : 1"
       sodipodi:type="inkscape:persp3d" />
    <inkscape:perspective
       id="perspective3104-8"
       inkscape:persp3d-origin="0.5 : 0.33333333 : 1"
       inkscape:vp_z="1 : 0.5 : 1"
       inkscape:vp_y="0 : 1000 : 0"
       inkscape:vp_x="0 : 0.5 : 1"
       sodipodi:type="inkscape:persp3d" />
    <inkscape:perspective
       id="perspective3104-02"
       inkscape:persp3d-origin="0.5 : 0.33333333 : 1"
       inkscape:vp_z="1 : 0.5 : 1"
       inkscape:vp_y="0 : 1000 : 0"
       inkscape:vp_x="0 : 0.5 : 1"
       sodipodi:type="inkscape:persp3d" />
    <inkscape:perspective
       id="perspective3104-86"
       inkscape:persp3d-origin="0.5 : 0.33333333 : 1"
       inkscape:vp_z="1 : 0.5 : 1"
       inkscape:vp_y="0 : 1000 : 0"
       inkscape:vp_x="0 : 0.5 : 1"
       sodipodi:type="inkscape:persp3d" />
    <inkscape:perspective
       id="perspective3104-90"
       inkscape:persp3d-origin="0.5 : 0.33333333 : 1"
       inkscape:vp_z="1 : 0.5 : 1"
       inkscape:vp_y="0 : 1000 : 0"
       inkscape:vp_x="0 : 0.5 : 1"
       sodipodi:type="inkscape:persp3d" />
    <inkscape:perspective
       id="perspective3104-61"
       inkscape:persp3d-origin="0.5 : 0.33333333 : 1"
       inkscape:vp_z="1 : 0.5 : 1"
       inkscape:vp_y="0 : 1000 : 0"
       inkscape:vp_x="0 : 0.5 : 1"
       sodipodi:type="inkscape:persp3d" />
    <inkscape:perspective
       id="perspective3104-89"
       inkscape:persp3d-origin="0.5 : 0.33333333 : 1"
       inkscape:vp_z="1 : 0.5 : 1"
       inkscape:vp_y="0 : 1000 : 0"
       inkscape:vp_x="0 : 0.5 : 1"
       sodipodi:type="inkscape:persp3d" />
    <inkscape:perspective
       id="perspective3104-4"
       inkscape:persp3d-origin="0.5 : 0.33333333 : 1"
       inkscape:vp_z="1 : 0.5 : 1"
       inkscape:vp_y="0 : 1000 : 0"
       inkscape:vp_x="0 : 0.5 : 1"
       sodipodi:type="inkscape:persp3d" />
    <inkscape:perspective
       id="perspective3104-66"
       inkscape:persp3d-origin="0.5 : 0.33333333 : 1"
       inkscape:vp_z="1 : 0.5 : 1"
       inkscape:vp_y="0 : 1000 : 0"
       inkscape:vp_x="0 : 0.5 : 1"
       sodipodi:type="inkscape:persp3d" />
    <inkscape:perspective
       id="perspective3104-49"
       inkscape:persp3d-origin="0.5 : 0.33333333 : 1"
       inkscape:vp_z="1 : 0.5 : 1"
       inkscape:vp_y="0 : 1000 : 0"
       inkscape:vp_x="0 : 0.5 : 1"
       sodipodi:type="inkscape:persp3d" />
    <inkscape:perspective
       id="perspective3104-7"
       inkscape:persp3d-origin="0.5 : 0.33333333 : 1"
       inkscape:vp_z="1 : 0.5 : 1"
       inkscape:vp_y="0 : 1000 : 0"
       inkscape:vp_x="0 : 0.5 : 1"
       sodipodi:type="inkscape:persp3d" />
    <inkscape:perspective
       id="perspective3104-2"
       inkscape:persp3d-origin="0.5 : 0.33333333 : 1"
       inkscape:vp_z="1 : 0.5 : 1"
       inkscape:vp_y="0 : 1000 : 0"
       inkscape:vp_x="0 : 0.5 : 1"
       sodipodi:type="inkscape:persp3d" />
  </defs>
  <sodipodi:namedview
     id="base"
     pagecolor="#ffffff"
     bordercolor="#666666"
     borderopacity="1.0"
     inkscape:pageopacity="0.0"
     inkscape:pageshadow="2"
     inkscape:zoom="0.34296751"
     inkscape:cx="350"
     inkscape:cy="331.28142"
     inkscape:document-units="px"
     inkscape:current-layer="layer1"
     showgrid="false"
     inkscape:window-width="1024"
     inkscape:window-height="538"
     inkscape:window-x="-8"
     inkscape:window-y="-8"
     inkscape:window-maximized="1" />
  <metadata
     id="metadata3821">
    <rdf:RDF>
      <cc:Work
         rdf:about="">
        <dc:format>image/svg+xml</dc:format>
        <dc:type
           rdf:resource="http://purl.org/dc/dcmitype/StillImage" />
        <dc:title></dc:title>
      </cc:Work>
    </rdf:RDF>
  </metadata>
  <g
     inkscape:label="Capa 1"
     inkscape:groupmode="layer"
     id="layer1"
     transform="translate(0,-552.36218)">
    <rect
       style="fill:#078930;fill-opacity:1;stroke:none"
       id="rect3828"
       width="375"
       height="500"
       x="0"
       y="-5.6843419e-14"
       transform="translate(0,552.36218)"
       rx="8.8817837e-16"
       ry="8.8817789e-16" />
    <rect
       style="fill:#078930;fill-opacity:1;stroke:none"
       id="rect3830"
       width="375"
       height="500"
       x="375"
       y="552.36218"
       rx="8.8817837e-16"
       ry="8.8817789e-16" />
    <path
       style="fill:#ffffff;stroke:none;stroke-width:1px;stroke-linecap:butt;stroke-linejoin:miter;stroke-opacity:1"
       d="M 0,0 375,500 750,0"
       id="path3836"
       transform="translate(0,552.36218)" />
    <g
       transform="matrix(-0.37341315,0,0,0.32191158,330.80084,571.44996)"
       id="g6176"
       style="fill:#da121a;stroke:#000000;stroke-width:3.04788089;stroke-miterlimit:4;stroke-opacity:1;stroke-dasharray:none;display:inline">
      <g
         transform="matrix(0.7651078,0,0,0.7651078,88.800025,-327.93648)"
         id="g6178"
         style="fill:#da121a;stroke:#000000;stroke-width:3.9835968;stroke-miterlimit:4;stroke-opacity:1;stroke-dasharray:none">
        <path
           d="m -226.06865,776.71632 c -10.90714,-48.41321 -19.60759,-96.82643 -13.89249,-145.23964 -1.85756,-5.39563 -4.06775,-10.63454 -16.41839,-11.36658 -5.35174,53.04404 5.53815,106.08809 20.20725,159.13213"
           transform="translate(-27.5002,8.9407e-8)"
           id="path6180"
           style="fill:#da121a;fill-rule:evenodd;stroke:#000000;stroke-width:3.9835968;stroke-linecap:butt;stroke-linejoin:miter;stroke-miterlimit:4;stroke-opacity:1;stroke-dasharray:none" />
        <path
           d="m -256.74983,620.01545 c 2.15025,4.70906 5.00953,9.24087 16.52129,11.60956"
           transform="translate(-27.5002,8.9407e-8)"
           id="path6182"
           style="fill:#da121a;fill-rule:evenodd;stroke:#000000;stroke-width:3.9835968;stroke-linecap:butt;stroke-linejoin:miter;stroke-miterlimit:4;stroke-opacity:1;stroke-dasharray:none" />
      </g>
      <path
         d="M -112.52668,239.96114 C 152.0865,129.95957 61.84384,625.25045 -107.15971,511.49611 -329.9253,629.2804 -337.10539,119.16834 -112.52668,239.96114 z"
         id="path6184"
         style="fill:#da121a;fill-rule:evenodd;stroke:#000000;stroke-width:3.04788089;stroke-linecap:butt;stroke-linejoin:miter;stroke-miterlimit:4;stroke-opacity:1;stroke-dasharray:none" />
      <g
         transform="matrix(0.7694424,0.2576589,-0.2576589,0.7694424,247.27244,-295.37094)"
         id="g6186"
         style="fill:#da121a;stroke:#000000;stroke-width:3.75615311;stroke-miterlimit:4;stroke-opacity:1;stroke-dasharray:none">
        <path
           d="m -206.04372,728.58285 c 9.00999,-75.61099 63.87633,-113.70315 154.53279,-122.51248 -39.189651,50.48023 -37.55964,132.90629 -154.53279,122.51248 z"
           transform="translate(-27.5002,8.9407e-8)"
           id="path6188"
           style="fill:#da121a;fill-rule:evenodd;stroke:#000000;stroke-width:3.75615311;stroke-linecap:butt;stroke-linejoin:miter;stroke-miterlimit:4;stroke-opacity:1;stroke-dasharray:none" />
        <path
           d="m -204.65153,728.58285 c 39.66275,-63.40289 88.78558,-74.34745 135.042165,-111.37498"
           transform="translate(-27.5002,8.9407e-8)"
           id="path6190"
           style="fill:#da121a;stroke:#000000;stroke-width:3.75615311;stroke-linecap:butt;stroke-linejoin:miter;stroke-miterlimit:4;stroke-opacity:1;stroke-dasharray:none" />
      </g>
    </g>
    <path
       sodipodi:type="star"
       style="fill:#fcdd09;fill-opacity:1;stroke:none"
       id="path2857"
       sodipodi:sides="5"
       sodipodi:cx="184.31374"
       sodipodi:cy="133.33333"
       sodipodi:r1="87.072952"
       sodipodi:r2="32.386345"
       sodipodi:arg1="0.94531122"
       sodipodi:arg2="1.5736298"
       inkscape:flatsided="false"
       inkscape:rounded="3.469447e-18"
       inkscape:randomized="0"
       d="m 235.29413,203.92156 -51.07216,-38.20202 -51.28782,37.91199 20.55011,-60.37759 -51.90525,-37.06216 63.77283,0.88661 19.20861,-60.817665 18.86367,60.925545 63.77682,-0.52522 -52.11444,36.76744 20.20763,60.49307 z"
       transform="matrix(0.30189238,0,0,0.31713647,19.334071,562.69122)" />
    <path
       sodipodi:type="star"
       style="fill:#fcdd09;fill-opacity:1;stroke:none"
       id="path2857-1"
       sodipodi:sides="5"
       sodipodi:cx="184.31374"
       sodipodi:cy="133.33333"
       sodipodi:r1="87.072952"
       sodipodi:r2="32.386345"
       sodipodi:arg1="0.94531122"
       sodipodi:arg2="1.5736298"
       inkscape:flatsided="false"
       inkscape:rounded="3.469447e-18"
       inkscape:randomized="0"
       d="m 235.29413,203.92156 -51.07216,-38.20202 -51.28782,37.91199 20.55011,-60.37759 -51.90525,-37.06216 63.77283,0.88661 19.20861,-60.817665 18.86367,60.925545 63.77682,-0.52522 -52.11444,36.76744 20.20763,60.49307 z"
       transform="matrix(0.30189238,0,0,0.31713647,619.33407,562.69122)" />
    <path
       sodipodi:type="star"
       style="fill:#fcdd09;fill-opacity:1;stroke:none"
       id="path2857-8"
       sodipodi:sides="5"
       sodipodi:cx="184.31374"
       sodipodi:cy="133.33333"
       sodipodi:r1="87.072952"
       sodipodi:r2="32.386345"
       sodipodi:arg1="0.94531122"
       sodipodi:arg2="1.5736298"
       inkscape:flatsided="false"
       inkscape:rounded="3.469447e-18"
       inkscape:randomized="0"
       d="m 235.29413,203.92156 -51.07216,-38.20202 -51.28782,37.91199 20.55011,-60.37759 -51.90525,-37.06216 63.77283,0.88661 19.20861,-60.817665 18.86367,60.925545 63.77682,-0.52522 -52.11444,36.76744 20.20763,60.49307 z"
       transform="matrix(0.30189238,0,0,0.31713647,584.33407,612.69122)" />
    <path
       sodipodi:type="star"
       style="fill:#fcdd09;fill-opacity:1;stroke:none"
       id="path2857-5"
       sodipodi:sides="5"
       sodipodi:cx="184.31374"
       sodipodi:cy="133.33333"
       sodipodi:r1="87.072952"
       sodipodi:r2="32.386345"
       sodipodi:arg1="0.94531122"
       sodipodi:arg2="1.5736298"
       inkscape:flatsided="false"
       inkscape:rounded="3.469447e-18"
       inkscape:randomized="0"
       d="m 235.29413,203.92156 -51.07216,-38.20202 -51.28782,37.91199 20.55011,-60.37759 -51.90525,-37.06216 63.77283,0.88661 19.20861,-60.817665 18.86367,60.925545 63.77682,-0.52522 -52.11444,36.76744 20.20763,60.49307 z"
       transform="matrix(0.30189238,0,0,0.31713647,544.33407,662.69122)" />
    <path
       sodipodi:type="star"
       style="fill:#fcdd09;fill-opacity:1;stroke:none"
       id="path2857-2"
       sodipodi:sides="5"
       sodipodi:cx="184.31374"
       sodipodi:cy="133.33333"
       sodipodi:r1="87.072952"
       sodipodi:r2="32.386345"
       sodipodi:arg1="0.94531122"
       sodipodi:arg2="1.5736298"
       inkscape:flatsided="false"
       inkscape:rounded="3.469447e-18"
       inkscape:randomized="0"
       d="m 235.29413,203.92156 -51.07216,-38.20202 -51.28782,37.91199 20.55011,-60.37759 -51.90525,-37.06216 63.77283,0.88661 19.20861,-60.817665 18.86367,60.925545 63.77682,-0.52522 -52.11444,36.76744 20.20763,60.49307 z"
       transform="matrix(0.30189238,0,0,0.31713647,509.33407,712.69122)" />
    <path
       sodipodi:type="star"
       style="fill:#0f47af;fill-opacity:1;stroke:none"
       id="path2857-6"
       sodipodi:sides="5"
       sodipodi:cx="184.31374"
       sodipodi:cy="133.33333"
       sodipodi:r1="87.072952"
       sodipodi:r2="32.386345"
       sodipodi:arg1="0.94531122"
       sodipodi:arg2="1.5736298"
       inkscape:flatsided="false"
       inkscape:rounded="3.469447e-18"
       inkscape:randomized="0"
       d="m 235.29413,203.92156 -51.07216,-38.20202 -51.28782,37.91199 20.55011,-60.37759 -51.90525,-37.06216 63.77283,0.88661 19.20861,-60.817665 18.86367,60.925545 63.77682,-0.52522 -52.11444,36.76744 20.20763,60.49307 z"
       transform="matrix(0.30189238,0,0,0.31713647,469.33407,762.69122)" />
    <path
       sodipodi:type="star"
       style="fill:#0f47af;fill-opacity:1;stroke:none"
       id="path2857-4"
       sodipodi:sides="5"
       sodipodi:cx="184.31374"
       sodipodi:cy="133.33333"
       sodipodi:r1="87.072952"
       sodipodi:r2="32.386345"
       sodipodi:arg1="0.94531122"
       sodipodi:arg2="1.5736298"
       inkscape:flatsided="false"
       inkscape:rounded="3.469447e-18"
       inkscape:randomized="0"
       d="m 235.29413,203.92156 -51.07216,-38.20202 -51.28782,37.91199 20.55011,-60.37759 -51.90525,-37.06216 63.77283,0.88661 19.20861,-60.817665 18.86367,60.925545 63.77682,-0.52522 -52.11444,36.76744 20.20763,60.49307 z"
       transform="matrix(0.30189238,0,0,0.31713647,434.33407,812.69122)" />
    <path
       sodipodi:type="star"
       style="fill:#da121a;fill-opacity:1;stroke:none"
       id="path2857-50"
       sodipodi:sides="5"
       sodipodi:cx="184.31374"
       sodipodi:cy="133.33333"
       sodipodi:r1="87.072952"
       sodipodi:r2="32.386345"
       sodipodi:arg1="0.94531122"
       sodipodi:arg2="1.5736298"
       inkscape:flatsided="false"
       inkscape:rounded="3.469447e-18"
       inkscape:randomized="0"
       d="m 235.29413,203.92156 -51.07216,-38.20202 -51.28782,37.91199 20.55011,-60.37759 -51.90525,-37.06216 63.77283,0.88661 19.20861,-60.817665 18.86367,60.925545 63.77682,-0.52522 -52.11444,36.76744 20.20763,60.49307 z"
       transform="matrix(0.30189238,0,0,0.31713647,394.33407,862.69122)" />
    <path
       sodipodi:type="star"
       style="fill:#da121a;fill-opacity:1;stroke:none"
       id="path2857-0"
       sodipodi:sides="5"
       sodipodi:cx="184.31374"
       sodipodi:cy="133.33333"
       sodipodi:r1="87.072952"
       sodipodi:r2="32.386345"
       sodipodi:arg1="0.94531122"
       sodipodi:arg2="1.5736298"
       inkscape:flatsided="false"
       inkscape:rounded="3.469447e-18"
       inkscape:randomized="0"
       d="m 235.29413,203.92156 -51.07216,-38.20202 -51.28782,37.91199 20.55011,-60.37759 -51.90525,-37.06216 63.77283,0.88661 19.20861,-60.817665 18.86367,60.925545 63.77682,-0.52522 -52.11444,36.76744 20.20763,60.49307 z"
       transform="matrix(0.30189238,0,0,0.31713647,344.33407,912.69122)" />
    <path
       sodipodi:type="star"
       style="fill:#da121a;fill-opacity:1;stroke:none"
       id="path2857-3"
       sodipodi:sides="5"
       sodipodi:cx="184.31374"
       sodipodi:cy="133.33333"
       sodipodi:r1="87.072952"
       sodipodi:r2="32.386345"
       sodipodi:arg1="0.94531122"
       sodipodi:arg2="1.5736298"
       inkscape:flatsided="false"
       inkscape:rounded="3.469447e-18"
       inkscape:randomized="0"
       d="m 235.29413,203.92156 -51.07216,-38.20202 -51.28782,37.91199 20.55011,-60.37759 -51.90525,-37.06216 63.77283,0.88661 19.20861,-60.817665 18.86367,60.925545 63.77682,-0.52522 -52.11444,36.76744 20.20763,60.49307 z"
       transform="matrix(0.30189238,0,0,0.31713647,279.33407,912.69122)" />
    <path
       sodipodi:type="star"
       style="fill:#da121a;fill-opacity:1;stroke:none"
       id="path2857-34"
       sodipodi:sides="5"
       sodipodi:cx="184.31374"
       sodipodi:cy="133.33333"
       sodipodi:r1="87.072952"
       sodipodi:r2="32.386345"
       sodipodi:arg1="0.94531122"
       sodipodi:arg2="1.5736298"
       inkscape:flatsided="false"
       inkscape:rounded="3.469447e-18"
       inkscape:randomized="0"
       d="m 235.29413,203.92156 -51.07216,-38.20202 -51.28782,37.91199 20.55011,-60.37759 -51.90525,-37.06216 63.77283,0.88661 19.20861,-60.817665 18.86367,60.925545 63.77682,-0.52522 -52.11444,36.76744 20.20763,60.49307 z"
       transform="matrix(0.30189238,0,0,0.31713647,244.33407,862.69122)" />
    <path
       sodipodi:type="star"
       style="fill:#0f47af;fill-opacity:1;stroke:none"
       id="path2857-60"
       sodipodi:sides="5"
       sodipodi:cx="184.31374"
       sodipodi:cy="133.33333"
       sodipodi:r1="87.072952"
       sodipodi:r2="32.386345"
       sodipodi:arg1="0.94531122"
       sodipodi:arg2="1.5736298"
       inkscape:flatsided="false"
       inkscape:rounded="3.469447e-18"
       inkscape:randomized="0"
       d="m 235.29413,203.92156 -51.07216,-38.20202 -51.28782,37.91199 20.55011,-60.37759 -51.90525,-37.06216 63.77283,0.88661 19.20861,-60.817665 18.86367,60.925545 63.77682,-0.52522 -52.11444,36.76744 20.20763,60.49307 z"
       transform="matrix(0.30189238,0,0,0.31713647,204.33407,812.69122)" />
    <path
       sodipodi:type="star"
       style="fill:#0f47af;fill-opacity:1;stroke:none"
       id="path2857-18"
       sodipodi:sides="5"
       sodipodi:cx="184.31374"
       sodipodi:cy="133.33333"
       sodipodi:r1="87.072952"
       sodipodi:r2="32.386345"
       sodipodi:arg1="0.94531122"
       sodipodi:arg2="1.5736298"
       inkscape:flatsided="false"
       inkscape:rounded="3.469447e-18"
       inkscape:randomized="0"
       d="m 235.29413,203.92156 -51.07216,-38.20202 -51.28782,37.91199 20.55011,-60.37759 -51.90525,-37.06216 63.77283,0.88661 19.20861,-60.817665 18.86367,60.925545 63.77682,-0.52522 -52.11444,36.76744 20.20763,60.49307 z"
       transform="matrix(0.30189238,0,0,0.31713647,169.33407,762.69122)" />
    <path
       sodipodi:type="star"
       style="fill:#fcdd09;fill-opacity:1;stroke:none"
       id="path2857-63"
       sodipodi:sides="5"
       sodipodi:cx="184.31374"
       sodipodi:cy="133.33333"
       sodipodi:r1="87.072952"
       sodipodi:r2="32.386345"
       sodipodi:arg1="0.94531122"
       sodipodi:arg2="1.5736298"
       inkscape:flatsided="false"
       inkscape:rounded="3.469447e-18"
       inkscape:randomized="0"
       d="m 235.29413,203.92156 -51.07216,-38.20202 -51.28782,37.91199 20.55011,-60.37759 -51.90525,-37.06216 63.77283,0.88661 19.20861,-60.817665 18.86367,60.925545 63.77682,-0.52522 -52.11444,36.76744 20.20763,60.49307 z"
       transform="matrix(0.30189238,0,0,0.31713647,129.33407,712.69122)" />
    <path
       sodipodi:type="star"
       style="fill:#fcdd09;fill-opacity:1;stroke:none"
       id="path2857-88"
       sodipodi:sides="5"
       sodipodi:cx="184.31374"
       sodipodi:cy="133.33333"
       sodipodi:r1="87.072952"
       sodipodi:r2="32.386345"
       sodipodi:arg1="0.94531122"
       sodipodi:arg2="1.5736298"
       inkscape:flatsided="false"
       inkscape:rounded="3.469447e-18"
       inkscape:randomized="0"
       d="m 235.29413,203.92156 -51.07216,-38.20202 -51.28782,37.91199 20.55011,-60.37759 -51.90525,-37.06216 63.77283,0.88661 19.20861,-60.817665 18.86367,60.925545 63.77682,-0.52522 -52.11444,36.76744 20.20763,60.49307 z"
       transform="matrix(0.30189238,0,0,0.31713647,94.334071,662.69122)" />
    <path
       sodipodi:type="star"
       style="fill:#fcdd09;fill-opacity:1;stroke:none"
       id="path2857-9"
       sodipodi:sides="5"
       sodipodi:cx="184.31374"
       sodipodi:cy="133.33333"
       sodipodi:r1="87.072952"
       sodipodi:r2="32.386345"
       sodipodi:arg1="0.94531122"
       sodipodi:arg2="1.5736298"
       inkscape:flatsided="false"
       inkscape:rounded="3.469447e-18"
       inkscape:randomized="0"
       d="m 235.29413,203.92156 -51.07216,-38.20202 -51.28782,37.91199 20.55011,-60.37759 -51.90525,-37.06216 63.77283,0.88661 19.20861,-60.817665 18.86367,60.925545 63.77682,-0.52522 -52.11444,36.76744 20.20763,60.49307 z"
       transform="matrix(0.30189238,0,0,0.31713647,54.334071,612.69122)" />
  </g>
</svg>
