<?xml version="1.0" encoding="UTF-8" standalone="no"?>
<svg
   xmlns:dc="http://purl.org/dc/elements/1.1/"
   xmlns:cc="http://creativecommons.org/ns#"
   xmlns:rdf="http://www.w3.org/1999/02/22-rdf-syntax-ns#"
   xmlns:svg="http://www.w3.org/2000/svg"
   xmlns="http://www.w3.org/2000/svg"
   xmlns:sodipodi="http://sodipodi.sourceforge.net/DTD/sodipodi-0.dtd"
   xmlns:inkscape="http://www.inkscape.org/namespaces/inkscape"
   width="1000"
   height="500"
   id="svg2"
   sodipodi:version="0.32"
   inkscape:version="0.46"
   sodipodi:docname="Flag_of_Nuquí_(Chocó).svg"
   inkscape:output_extension="org.inkscape.output.svg.inkscape">
  <metadata
     id="metadata15">
    <rdf:RDF>
      <cc:Work
         rdf:about="">
        <dc:format>image/svg+xml</dc:format>
        <dc:type
           rdf:resource="http://purl.org/dc/dcmitype/StillImage" />
      </cc:Work>
    </rdf:RDF>
  </metadata>
  <defs
     id="defs13" />
  <sodipodi:namedview
     inkscape:window-height="712"
     inkscape:window-width="1024"
     inkscape:pageshadow="2"
     inkscape:pageopacity="0.0"
     guidetolerance="10.0"
     gridtolerance="10.0"
     objecttolerance="10.0"
     borderopacity="1.0"
     bordercolor="#666666"
     pagecolor="#ffffff"
     id="base"
     showgrid="false"
     inkscape:zoom="0.928"
     inkscape:cx="500"
     inkscape:cy="250"
     inkscape:window-x="-4"
     inkscape:window-y="-4"
     inkscape:current-layer="svg2" />
  <path
     d="M 0,0 L 1000,500 L 0,500"
     fill="#fcdd09"
     id="path4"
     style="fill:#0f47af;fill-opacity:1"
     sodipodi:nodetypes="ccc" />
  <path
     d="M 0,0 L 1000,0 L 1000,500.06521"
     fill="#078930"
     id="path8"
     sodipodi:nodetypes="ccc" />
  <path
     id="path3165"
     style="fill:#ffffff;fill-rule:evenodd;stroke:none;stroke-width:1.00281142999999990px;stroke-linecap:butt;stroke-linejoin:miter;stroke-opacity:1"
     d="M -0.43128321,98.732135 C 55.618586,126.8466 195.61039,84.983534 202.09311,159.39744 L 201.98521,159.38467 C 202.217,276.77021 445.11456,173.86677 467.10432,272.81841 L 466.85904,273.368 C 467.09083,390.75354 709.98839,287.8501 731.89602,384.55648 L 731.56861,382.86081 C 731.72532,506.05207 895.94744,398.05917 910.98046,501.32805 L 1002.1056,501.22 L 1002.0888,377.05338 C 955.7895,375.2167 908.21082,375.85937 908.1265,309.57786 L 908.45391,311.27353 C 886.54628,214.56715 643.64872,317.47059 643.41693,200.08505 L 643.66222,199.53546 C 621.67245,100.58382 378.77489,203.48726 378.5431,86.10172 L 378.651,86.114486 C 372.05843,0.15108778 201.25695,54.244364 150.2936,0.49710779 L 150.69274,-1.0761805 L -1.0761805,-1.0761805 L -0.43128321,98.732135 z"
     sodipodi:nodetypes="ccccccccccccccccc" />
</svg>
