<?xml version="1.0" encoding="UTF-8" standalone="no"?>
<svg
   xmlns:dc="http://purl.org/dc/elements/1.1/"
   xmlns:cc="http://creativecommons.org/ns#"
   xmlns:rdf="http://www.w3.org/1999/02/22-rdf-syntax-ns#"
   xmlns:svg="http://www.w3.org/2000/svg"
   xmlns="http://www.w3.org/2000/svg"
   xmlns:sodipodi="http://sodipodi.sourceforge.net/DTD/sodipodi-0.dtd"
   xmlns:inkscape="http://www.inkscape.org/namespaces/inkscape"
   width="750"
   height="500"
   version="1.1"
   id="svg2"
   sodipodi:version="0.32"
   inkscape:version="0.48.4 r9939"
   sodipodi:docname="Flag_of_Oicatá_(Boyacá).svg"
   inkscape:output_extension="org.inkscape.output.svg.inkscape">
  <metadata
     id="metadata11">
    <rdf:RDF>
      <cc:Work
         rdf:about="">
        <dc:format>image/svg+xml</dc:format>
        <dc:type
           rdf:resource="http://purl.org/dc/dcmitype/StillImage" />
      </cc:Work>
    </rdf:RDF>
  </metadata>
  <defs
     id="defs9" />
  <sodipodi:namedview
     inkscape:window-height="716"
     inkscape:window-width="1366"
     inkscape:pageshadow="2"
     inkscape:pageopacity="0.0"
     guidetolerance="10.0"
     gridtolerance="10.0"
     objecttolerance="10.0"
     borderopacity="1.0"
     bordercolor="#666666"
     pagecolor="#ffffff"
     id="base"
     showgrid="false"
     inkscape:zoom="0.998"
     inkscape:cx="375"
     inkscape:cy="250"
     inkscape:window-x="-8"
     inkscape:window-y="-8"
     inkscape:current-layer="svg2"
     inkscape:window-maximized="1" />
  <rect
     width="750"
     height="500"
     id="rect4"
     x="0"
     y="0"
     style="fill:#ffffff" />
  <rect
     width="750"
     height="250"
     y="-250"
     id="rect6"
     x="0"
     transform="scale(1,-1)"
     style="fill:#d49b00;fill-opacity:1" />
  <g
     style="stroke:#000000;stroke-width:0.33333334;stroke-miterlimit:4;stroke-dasharray:none;stroke-opacity:1"
     id="rayo"
     transform="matrix(1.5,0,0,1.5,216.15782,-55.208022)" />
  <g
     style="stroke:#000000;stroke-width:0.33333334;stroke-miterlimit:4;stroke-dasharray:none;stroke-opacity:1"
     id="g3286"
     transform="matrix(1.5,0,0,1.5,532.35451,-0.4331108)" />
  <g
     transform="matrix(2.45025,0,0,2.45025,227.27007,-173.15449)"
     id="use3294"
     style="stroke:none">
    <path
       inkscape:connector-curvature="0"
       d="m -35.607575,100.70564 -7.03485,-0.1458 3.53565,-24.348598 3.4992,24.494398"
       style="fill:#fcdd09;stroke:none"
       id="path3370" />
    <path
       inkscape:connector-curvature="0"
       d="m -43.204762,142.9528 7.03485,0.1458 -3.53565,24.3486 -3.4992,-24.4944"
       style="fill:#fcdd09;stroke:none"
       id="use3372" />
  </g>
  <g
     transform="matrix(1.7325884,-1.7325884,1.7325884,1.7325884,-14.384618,-151.65301)"
     id="use3296"
     style="stroke:none">
    <path
       inkscape:connector-curvature="0"
       d="m -34.986843,101.08364 -7.03485,-0.1458 3.53565,-24.348598 3.4992,24.494398"
       style="fill:#fcdd09;stroke:none"
       id="path3364" />
    <path
       inkscape:connector-curvature="0"
       d="m -42.467844,142.55408 7.03485,0.1458 -3.53565,24.34861 -3.4992,-24.49441"
       style="fill:#fcdd09;stroke:none"
       id="use3366" />
  </g>
  <g
     transform="matrix(-1.7325884,-1.7325884,1.7325884,-1.7325884,-151.52085,268.95367)"
     id="use3298"
     style="stroke:none">
    <path
       inkscape:connector-curvature="0"
       d="m -35.832155,102.17047 -7.03485,-0.1458 3.53565,-24.348597 3.4992,24.494397"
       style="fill:#fcdd09;stroke:none"
       id="path3358" />
    <path
       inkscape:connector-curvature="0"
       d="m -43.785671,143.85988 7.03485,0.14581 -3.53565,24.3486 -3.4992,-24.49441"
       style="fill:#fcdd09;stroke:none"
       id="use3360" />
  </g>
  <circle
     d="m 20,0 c 0,11.045695 -8.954305,20 -20,20 -11.045695,0 -20,-8.954305 -20,-20 0,-11.045695 8.954305,-20 20,-20 11.045695,0 20,8.954305 20,20 z"
     style="fill:#fcdd09;stroke:none"
     sodipodi:ry="20"
     sodipodi:rx="20"
     sodipodi:cy="0"
     sodipodi:cx="0"
     cy="0"
     cx="0"
     r="20"
     transform="matrix(2.415765,0,0,2.415765,131.04097,125.37824)"
     id="circle3300" />
  <g
     transform="matrix(-0.0084048,-2.4502356,2.4502356,-0.0084048,-168.25467,30.474835)"
     id="g3382"
     style="stroke:none">
    <path
       inkscape:connector-curvature="0"
       d="m -35.420094,100.70403 -7.03485,-0.1458 3.53565,-24.348601 3.4992,24.494401"
       style="fill:#fcdd09;stroke:none"
       id="path3384" />
    <path
       inkscape:connector-curvature="0"
       d="m -42.87932,143.12519 7.03485,0.1458 -3.53565,24.3486 -3.4992,-24.4944"
       style="fill:#fcdd09;stroke:none"
       id="path3386" />
  </g>
</svg>
