<?xml version="1.0" encoding="UTF-8" standalone="no"?>
<svg
   xmlns:dc="http://purl.org/dc/elements/1.1/"
   xmlns:cc="http://creativecommons.org/ns#"
   xmlns:rdf="http://www.w3.org/1999/02/22-rdf-syntax-ns#"
   xmlns:svg="http://www.w3.org/2000/svg"
   xmlns="http://www.w3.org/2000/svg"
   xmlns:sodipodi="http://sodipodi.sourceforge.net/DTD/sodipodi-0.dtd"
   xmlns:inkscape="http://www.inkscape.org/namespaces/inkscape"
   width="800"
   height="500"
   id="svg2"
   sodipodi:version="0.32"
   inkscape:version="0.46"
   sodipodi:docname="Flag_of_Ospina_(Nariño).svg"
   inkscape:output_extension="org.inkscape.output.svg.inkscape"
   version="1.0">
  <metadata
     id="metadata13">
    <rdf:RDF>
      <cc:Work
         rdf:about="">
        <dc:format>image/svg+xml</dc:format>
        <dc:type
           rdf:resource="http://purl.org/dc/dcmitype/StillImage" />
      </cc:Work>
    </rdf:RDF>
  </metadata>
  <defs
     id="defs11" />
  <sodipodi:namedview
     inkscape:window-height="712"
     inkscape:window-width="1024"
     inkscape:pageshadow="2"
     inkscape:pageopacity="0.0"
     guidetolerance="10.0"
     gridtolerance="10.0"
     objecttolerance="10.0"
     borderopacity="1.0"
     bordercolor="#666666"
     pagecolor="#ffffff"
     id="base"
     showgrid="false"
     inkscape:zoom="1.014"
     inkscape:cx="400"
     inkscape:cy="250"
     inkscape:window-x="-4"
     inkscape:window-y="-4"
     inkscape:current-layer="svg2" />
  <rect
     width="801.25293"
     height="500"
     id="rect4"
     x="0"
     y="0"
     style="fill:#ffffff;fill-opacity:1" />
  <rect
     width="801.25293"
     height="168.04468"
     y="-333.332"
     id="rect6"
     x="0"
     style="fill:#079b30;fill-opacity:1"
     transform="scale(1,-1)" />
  <rect
     width="801.25293"
     height="166.666"
     y="-1.3776999"
     id="rect8"
     x="0"
     style="fill:#fcdd09;fill-opacity:1" />
  <path
     sodipodi:type="star"
     style="opacity:1;fill:#000000;fill-opacity:1;stroke:none;stroke-width:0.69999999000000002;stroke-linejoin:round;stroke-miterlimit:4;stroke-dasharray:none;stroke-dashoffset:0;stroke-opacity:1"
     id="path3154"
     sodipodi:sides="5"
     sodipodi:cx="309.62073"
     sodipodi:cy="194.56334"
     sodipodi:r1="83.982918"
     sodipodi:r2="31.493591"
     sodipodi:arg1="0.95054684"
     sodipodi:arg2="1.5788654"
     inkscape:flatsided="false"
     inkscape:rounded="3.469447e-18"
     inkscape:randomized="0"
     d="M 358.43481,262.90305 L 309.36661,226.05591 L 259.71018,262.10642 L 279.59099,204.05339 L 229.96023,167.96755 L 291.31545,168.93595 L 310.29838,110.58316 L 328.33718,169.23469 L 389.70004,169.25652 L 339.49341,204.53676 L 358.43481,262.90305 z"
     transform="matrix(0.7599082,-1.1807477e-2,1.1807477e-2,0.7599082,163.3741,111.63727)" />
  <path
     transform="matrix(0.3110294,-2.5643444e-3,2.5643444e-3,0.3110294,213.49825,192.58488)"
     d="M 358.43481,262.90305 L 309.36661,226.05591 L 259.71018,262.10642 L 279.59099,204.05339 L 229.96023,167.96755 L 291.31545,168.93595 L 310.29838,110.58316 L 328.33718,169.23469 L 389.70004,169.25652 L 339.49341,204.53676 L 358.43481,262.90305 z"
     inkscape:randomized="0"
     inkscape:rounded="3.469447e-18"
     inkscape:flatsided="false"
     sodipodi:arg2="1.5788654"
     sodipodi:arg1="0.95054684"
     sodipodi:r2="31.493591"
     sodipodi:r1="83.982918"
     sodipodi:cy="194.56334"
     sodipodi:cx="309.62073"
     sodipodi:sides="5"
     id="path3156"
     style="opacity:1;fill:#000000;fill-opacity:1;stroke:none;stroke-width:0.69999999000000002;stroke-linejoin:round;stroke-miterlimit:4;stroke-dasharray:none;stroke-dashoffset:0;stroke-opacity:1"
     sodipodi:type="star" />
  <path
     sodipodi:type="star"
     style="opacity:1;fill:#000000;fill-opacity:1;stroke:none;stroke-width:0.69999999000000002;stroke-linejoin:round;stroke-miterlimit:4;stroke-dasharray:none;stroke-dashoffset:0;stroke-opacity:1"
     id="path3160"
     sodipodi:sides="5"
     sodipodi:cx="309.62073"
     sodipodi:cy="194.56334"
     sodipodi:r1="83.982918"
     sodipodi:r2="31.493591"
     sodipodi:arg1="0.95054684"
     sodipodi:arg2="1.5788654"
     inkscape:flatsided="false"
     inkscape:rounded="3.469447e-18"
     inkscape:randomized="0"
     d="M 358.43481,262.90305 L 309.36661,226.05591 L 259.71018,262.10642 L 279.59099,204.05339 L 229.96023,167.96755 L 291.31545,168.93595 L 310.29838,110.58316 L 328.33718,169.23469 L 389.70004,169.25652 L 339.49341,204.53676 L 358.43481,262.90305 z"
     transform="matrix(0.3110294,-2.5643444e-3,2.5643444e-3,0.3110294,159.09825,192.58488)" />
  <path
     transform="matrix(0.3110294,-2.5643444e-3,2.5643444e-3,0.3110294,104.69825,192.58488)"
     d="M 358.43481,262.90305 L 309.36661,226.05591 L 259.71018,262.10642 L 279.59099,204.05339 L 229.96023,167.96755 L 291.31545,168.93595 L 310.29838,110.58316 L 328.33718,169.23469 L 389.70004,169.25652 L 339.49341,204.53676 L 358.43481,262.90305 z"
     inkscape:randomized="0"
     inkscape:rounded="3.469447e-18"
     inkscape:flatsided="false"
     sodipodi:arg2="1.5788654"
     sodipodi:arg1="0.95054684"
     sodipodi:r2="31.493591"
     sodipodi:r1="83.982918"
     sodipodi:cy="194.56334"
     sodipodi:cx="309.62073"
     sodipodi:sides="5"
     id="path3164"
     style="opacity:1;fill:#000000;fill-opacity:1;stroke:none;stroke-width:0.69999999000000002;stroke-linejoin:round;stroke-miterlimit:4;stroke-dasharray:none;stroke-dashoffset:0;stroke-opacity:1"
     sodipodi:type="star" />
  <path
     transform="matrix(0.3110294,-2.5643444e-3,2.5643444e-3,0.3110294,50.298246,192.58488)"
     d="M 358.43481,262.90305 L 309.36661,226.05591 L 259.71018,262.10642 L 279.59099,204.05339 L 229.96023,167.96755 L 291.31545,168.93595 L 310.29838,110.58316 L 328.33718,169.23469 L 389.70004,169.25652 L 339.49341,204.53676 L 358.43481,262.90305 z"
     inkscape:randomized="0"
     inkscape:rounded="3.469447e-18"
     inkscape:flatsided="false"
     sodipodi:arg2="1.5788654"
     sodipodi:arg1="0.95054684"
     sodipodi:r2="31.493591"
     sodipodi:r1="83.982918"
     sodipodi:cy="194.56334"
     sodipodi:cx="309.62073"
     sodipodi:sides="5"
     id="path3168"
     style="opacity:1;fill:#000000;fill-opacity:1;stroke:none;stroke-width:0.69999999000000002;stroke-linejoin:round;stroke-miterlimit:4;stroke-dasharray:none;stroke-dashoffset:0;stroke-opacity:1"
     sodipodi:type="star" />
  <path
     sodipodi:type="star"
     style="opacity:1;fill:#000000;fill-opacity:1;stroke:none;stroke-width:0.69999999000000002;stroke-linejoin:round;stroke-miterlimit:4;stroke-dasharray:none;stroke-dashoffset:0;stroke-opacity:1"
     id="path3170"
     sodipodi:sides="5"
     sodipodi:cx="309.62073"
     sodipodi:cy="194.56334"
     sodipodi:r1="83.982918"
     sodipodi:r2="31.493591"
     sodipodi:arg1="0.95054684"
     sodipodi:arg2="1.5788654"
     inkscape:flatsided="false"
     inkscape:rounded="3.469447e-18"
     inkscape:randomized="0"
     d="M 358.43481,262.90305 L 309.36661,226.05591 L 259.71018,262.10642 L 279.59099,204.05339 L 229.96023,167.96755 L 291.31545,168.93595 L 310.29838,110.58316 L 328.33718,169.23469 L 389.70004,169.25652 L 339.49341,204.53676 L 358.43481,262.90305 z"
     transform="matrix(0.3110294,-2.5643444e-3,2.5643444e-3,0.3110294,-4.101754,192.58488)" />
  <path
     transform="matrix(0.3110294,-2.5643444e-3,2.5643444e-3,0.3110294,-58.501754,192.58488)"
     d="M 358.43481,262.90305 L 309.36661,226.05591 L 259.71018,262.10642 L 279.59099,204.05339 L 229.96023,167.96755 L 291.31545,168.93595 L 310.29838,110.58316 L 328.33718,169.23469 L 389.70004,169.25652 L 339.49341,204.53676 L 358.43481,262.90305 z"
     inkscape:randomized="0"
     inkscape:rounded="3.469447e-18"
     inkscape:flatsided="false"
     sodipodi:arg2="1.5788654"
     sodipodi:arg1="0.95054684"
     sodipodi:r2="31.493591"
     sodipodi:r1="83.982918"
     sodipodi:cy="194.56334"
     sodipodi:cx="309.62073"
     sodipodi:sides="5"
     id="path3174"
     style="opacity:1;fill:#000000;fill-opacity:1;stroke:none;stroke-width:0.69999999000000002;stroke-linejoin:round;stroke-miterlimit:4;stroke-dasharray:none;stroke-dashoffset:0;stroke-opacity:1"
     sodipodi:type="star" />
  <path
     sodipodi:type="star"
     style="opacity:1;fill:#000000;fill-opacity:1;stroke:none;stroke-width:0.69999999000000002;stroke-linejoin:round;stroke-miterlimit:4;stroke-dasharray:none;stroke-dashoffset:0;stroke-opacity:1"
     id="path3178"
     sodipodi:sides="5"
     sodipodi:cx="309.62073"
     sodipodi:cy="194.56334"
     sodipodi:r1="83.982918"
     sodipodi:r2="31.493591"
     sodipodi:arg1="0.95054684"
     sodipodi:arg2="1.5788654"
     inkscape:flatsided="false"
     inkscape:rounded="3.469447e-18"
     inkscape:randomized="0"
     d="M 358.43481,262.90305 L 309.36661,226.05591 L 259.71018,262.10642 L 279.59099,204.05339 L 229.96023,167.96755 L 291.31545,168.93595 L 310.29838,110.58316 L 328.33718,169.23469 L 389.70004,169.25652 L 339.49341,204.53676 L 358.43481,262.90305 z"
     transform="matrix(-0.3110294,-2.5643444e-3,-2.5643444e-3,0.3110294,587.46396,192.58488)" />
  <path
     transform="matrix(-0.3110294,-2.5643444e-3,-2.5643444e-3,0.3110294,641.86396,192.58488)"
     d="M 358.43481,262.90305 L 309.36661,226.05591 L 259.71018,262.10642 L 279.59099,204.05339 L 229.96023,167.96755 L 291.31545,168.93595 L 310.29838,110.58316 L 328.33718,169.23469 L 389.70004,169.25652 L 339.49341,204.53676 L 358.43481,262.90305 z"
     inkscape:randomized="0"
     inkscape:rounded="3.469447e-18"
     inkscape:flatsided="false"
     sodipodi:arg2="1.5788654"
     sodipodi:arg1="0.95054684"
     sodipodi:r2="31.493591"
     sodipodi:r1="83.982918"
     sodipodi:cy="194.56334"
     sodipodi:cx="309.62073"
     sodipodi:sides="5"
     id="path3180"
     style="opacity:1;fill:#000000;fill-opacity:1;stroke:none;stroke-width:0.69999999000000002;stroke-linejoin:round;stroke-miterlimit:4;stroke-dasharray:none;stroke-dashoffset:0;stroke-opacity:1"
     sodipodi:type="star" />
  <path
     sodipodi:type="star"
     style="opacity:1;fill:#000000;fill-opacity:1;stroke:none;stroke-width:0.69999999000000002;stroke-linejoin:round;stroke-miterlimit:4;stroke-dasharray:none;stroke-dashoffset:0;stroke-opacity:1"
     id="path3182"
     sodipodi:sides="5"
     sodipodi:cx="309.62073"
     sodipodi:cy="194.56334"
     sodipodi:r1="83.982918"
     sodipodi:r2="31.493591"
     sodipodi:arg1="0.95054684"
     sodipodi:arg2="1.5788654"
     inkscape:flatsided="false"
     inkscape:rounded="3.469447e-18"
     inkscape:randomized="0"
     d="M 358.43481,262.90305 L 309.36661,226.05591 L 259.71018,262.10642 L 279.59099,204.05339 L 229.96023,167.96755 L 291.31545,168.93595 L 310.29838,110.58316 L 328.33718,169.23469 L 389.70004,169.25652 L 339.49341,204.53676 L 358.43481,262.90305 z"
     transform="matrix(-0.3110294,-2.5643444e-3,-2.5643444e-3,0.3110294,696.26396,192.58488)" />
  <path
     sodipodi:type="star"
     style="opacity:1;fill:#000000;fill-opacity:1;stroke:none;stroke-width:0.69999999000000002;stroke-linejoin:round;stroke-miterlimit:4;stroke-dasharray:none;stroke-dashoffset:0;stroke-opacity:1"
     id="path3184"
     sodipodi:sides="5"
     sodipodi:cx="309.62073"
     sodipodi:cy="194.56334"
     sodipodi:r1="83.982918"
     sodipodi:r2="31.493591"
     sodipodi:arg1="0.95054684"
     sodipodi:arg2="1.5788654"
     inkscape:flatsided="false"
     inkscape:rounded="3.469447e-18"
     inkscape:randomized="0"
     d="M 358.43481,262.90305 L 309.36661,226.05591 L 259.71018,262.10642 L 279.59099,204.05339 L 229.96023,167.96755 L 291.31545,168.93595 L 310.29838,110.58316 L 328.33718,169.23469 L 389.70004,169.25652 L 339.49341,204.53676 L 358.43481,262.90305 z"
     transform="matrix(-0.3110294,-2.5643444e-3,-2.5643444e-3,0.3110294,750.66396,192.58488)" />
  <path
     transform="matrix(-0.3110294,-2.5643444e-3,-2.5643444e-3,0.3110294,805.06396,192.58488)"
     d="M 358.43481,262.90305 L 309.36661,226.05591 L 259.71018,262.10642 L 279.59099,204.05339 L 229.96023,167.96755 L 291.31545,168.93595 L 310.29838,110.58316 L 328.33718,169.23469 L 389.70004,169.25652 L 339.49341,204.53676 L 358.43481,262.90305 z"
     inkscape:randomized="0"
     inkscape:rounded="3.469447e-18"
     inkscape:flatsided="false"
     sodipodi:arg2="1.5788654"
     sodipodi:arg1="0.95054684"
     sodipodi:r2="31.493591"
     sodipodi:r1="83.982918"
     sodipodi:cy="194.56334"
     sodipodi:cx="309.62073"
     sodipodi:sides="5"
     id="path3186"
     style="opacity:1;fill:#000000;fill-opacity:1;stroke:none;stroke-width:0.69999999000000002;stroke-linejoin:round;stroke-miterlimit:4;stroke-dasharray:none;stroke-dashoffset:0;stroke-opacity:1"
     sodipodi:type="star" />
  <path
     sodipodi:type="star"
     style="opacity:1;fill:#000000;fill-opacity:1;stroke:none;stroke-width:0.69999999000000002;stroke-linejoin:round;stroke-miterlimit:4;stroke-dasharray:none;stroke-dashoffset:0;stroke-opacity:1"
     id="path3188"
     sodipodi:sides="5"
     sodipodi:cx="309.62073"
     sodipodi:cy="194.56334"
     sodipodi:r1="83.982918"
     sodipodi:r2="31.493591"
     sodipodi:arg1="0.95054684"
     sodipodi:arg2="1.5788654"
     inkscape:flatsided="false"
     inkscape:rounded="3.469447e-18"
     inkscape:randomized="0"
     d="M 358.43481,262.90305 L 309.36661,226.05591 L 259.71018,262.10642 L 279.59099,204.05339 L 229.96023,167.96755 L 291.31545,168.93595 L 310.29838,110.58316 L 328.33718,169.23469 L 389.70004,169.25652 L 339.49341,204.53676 L 358.43481,262.90305 z"
     transform="matrix(-0.3110294,-2.5643444e-3,-2.5643444e-3,0.3110294,859.46396,192.58488)" />
</svg>
