<?xml version="1.0" encoding="UTF-8" standalone="no"?>
<!-- Created with Inkscape (http://www.inkscape.org/) -->
<svg
   xmlns:dc="http://purl.org/dc/elements/1.1/"
   xmlns:cc="http://creativecommons.org/ns#"
   xmlns:rdf="http://www.w3.org/1999/02/22-rdf-syntax-ns#"
   xmlns:svg="http://www.w3.org/2000/svg"
   xmlns="http://www.w3.org/2000/svg"
   xmlns:sodipodi="http://sodipodi.sourceforge.net/DTD/sodipodi-0.dtd"
   xmlns:inkscape="http://www.inkscape.org/namespaces/inkscape"
   width="750"
   height="500"
   id="svg2"
   version="1.1"
   inkscape:version="0.46"
   sodipodi:docname="Flag of Oicatá (Boyacá).svg"
   sodipodi:version="0.32"
   inkscape:output_extension="org.inkscape.output.svg.inkscape">
  <defs
     id="defs4" />
  <sodipodi:namedview
     id="base"
     pagecolor="#ffffff"
     bordercolor="#666666"
     borderopacity="1.0"
     inkscape:pageopacity="0.0"
     inkscape:pageshadow="2"
     inkscape:zoom="0.58"
     inkscape:cx="350"
     inkscape:cy="235.34483"
     inkscape:document-units="px"
     inkscape:current-layer="layer1"
     showgrid="false"
     inkscape:window-width="1280"
     inkscape:window-height="962"
     inkscape:window-x="-8"
     inkscape:window-y="-8"
     inkscape:window-maximized="1" />
  <metadata
     id="metadata7">
    <rdf:RDF>
      <cc:Work
         rdf:about="">
        <dc:format>image/svg+xml</dc:format>
        <dc:type
           rdf:resource="http://purl.org/dc/dcmitype/StillImage" />
        <dc:title />
      </cc:Work>
    </rdf:RDF>
  </metadata>
  <g
     inkscape:label="Capa 1"
     inkscape:groupmode="layer"
     id="layer1"
     transform="translate(0,-552.36218)">
    <rect
       style="fill:#078930;fill-opacity:1"
       id="rect2816"
       width="250"
       height="500"
       x="0"
       y="-1.1368684e-13"
       transform="translate(0,552.36218)" />
    <rect
       style="fill:#ffffff;fill-opacity:1"
       id="rect2818"
       width="250"
       height="500"
       x="250"
       y="-1.1368684e-13"
       transform="translate(0,552.36218)" />
    <rect
       style="fill:#078930;fill-opacity:1"
       id="rect2820"
       width="250"
       height="500"
       x="500"
       y="-1.1368684e-13"
       transform="translate(0,552.36218)" />
    <g
       transform="matrix(2.1435888,0,0,2.1435888,-250.70519,-99.267956)"
       id="g2496"
       inkscape:label="Capa 1">
      <g
         transform="matrix(0.3425001,0,0,0.3186618,201.37132,274.0192)"
         id="g3253">
        <path
           style="fill:#008f4c;fill-opacity:1;fill-rule:evenodd;stroke:#000000;stroke-width:0.52832097;stroke-linecap:butt;stroke-linejoin:round;stroke-miterlimit:4;stroke-dasharray:none;stroke-opacity:1;display:inline"
           d="M 307.65272,415.79526 C 302.02132,425.72109 291.47403,424.69732 297.77197,439.79667 L 299.18521,440.47115 C 311.11046,438.62594 305.54518,427.66506 307.65272,415.79526 L 307.65272,415.79526 z"
           id="path17128"
           sodipodi:nodetypes="cccc" />
        <g
           id="g3435"
           transform="matrix(-0.4047784,3.46869e-3,2.4806e-3,0.5717023,-77.843032,317.14308)"
           style="fill:#008f4c;fill-opacity:1;stroke-width:1.36696768">
          <g
             id="g3437"
             style="fill:#008f4c;fill-opacity:1;stroke-width:1.36696768">
            <g
               transform="matrix(1.9326906,0.8155991,-0.7441445,1.5960001,-2401.7324,-1246.0264)"
               style="fill:#008f4c;fill-opacity:1;stroke:#000000;stroke-width:0.71147054;stroke-miterlimit:4;stroke-dasharray:none;stroke-opacity:1;display:inline"
               id="g3439">
              <path
                 style="fill:#008f4c;fill-opacity:1;fill-rule:evenodd;stroke:#000000;stroke-width:0.71147054;stroke-linecap:butt;stroke-linejoin:round;stroke-miterlimit:4;stroke-dasharray:none;stroke-opacity:1"
                 d="M 827.77778,501.26984 C 839.22868,493.29581 853.78083,500.65532 850.18431,479.79313 L 848.42334,478.19632 C 830.9145,473.28836 834.92989,489.01618 827.77778,501.26984 L 827.77778,501.26984 z"
                 id="path3441"
                 sodipodi:nodetypes="cccc" />
            </g>
            <g
               transform="matrix(2.0582715,-0.4049856,-0.4035836,-1.7140851,-2677.9903,1355.1602)"
               style="fill:#008f4c;fill-opacity:1;stroke:#000000;stroke-width:0.71147054;stroke-miterlimit:4;stroke-dasharray:none;stroke-opacity:1;display:inline"
               id="g3443">
              <path
                 style="fill:#008f4c;fill-opacity:1;fill-rule:evenodd;stroke:#000000;stroke-width:0.71147054;stroke-linecap:butt;stroke-linejoin:round;stroke-miterlimit:4;stroke-dasharray:none;stroke-opacity:1"
                 d="M 827.77778,501.26984 C 839.22868,493.29581 853.78083,500.65532 850.18431,479.79313 L 848.42334,478.19632 C 830.9145,473.28836 834.92989,489.01618 827.77778,501.26984 L 827.77778,501.26984 z"
                 id="path3445"
                 sodipodi:nodetypes="cccc" />
            </g>
            <g
               transform="matrix(2.0785706,0.2829119,0.1728519,-1.7524524,-2936.9783,776.16734)"
               style="fill:#008f4c;fill-opacity:1;stroke:#000000;stroke-width:0.71147054;stroke-miterlimit:4;stroke-dasharray:none;stroke-opacity:1;display:inline"
               id="g3447">
              <path
                 style="fill:#008f4c;fill-opacity:1;fill-rule:evenodd;stroke:#000000;stroke-width:0.71147054;stroke-linecap:butt;stroke-linejoin:round;stroke-miterlimit:4;stroke-dasharray:none;stroke-opacity:1"
                 d="M 827.77778,501.26984 C 839.22868,493.29581 853.78083,500.65532 850.18431,479.79313 L 848.42334,478.19632 C 830.9145,473.28836 834.92989,489.01618 827.77778,501.26984 L 827.77778,501.26984 z"
                 id="path3449"
                 sodipodi:nodetypes="cccc" />
            </g>
            <g
               transform="matrix(0.7852663,1.9452125,-1.6561639,0.598405,-895.33887,-1761.0092)"
               style="fill:#008f4c;fill-opacity:1;stroke:#000000;stroke-width:0.71147054;stroke-miterlimit:4;stroke-dasharray:none;stroke-opacity:1;display:inline"
               id="g3451">
              <path
                 style="fill:#008f4c;fill-opacity:1;fill-rule:evenodd;stroke:#000000;stroke-width:0.71147054;stroke-linecap:butt;stroke-linejoin:round;stroke-miterlimit:4;stroke-dasharray:none;stroke-opacity:1"
                 d="M 827.77778,501.26984 C 839.22868,493.29581 853.78083,500.65532 850.18431,479.79313 L 848.42334,478.19632 C 830.9145,473.28836 834.92989,489.01618 827.77778,501.26984 L 827.77778,501.26984 z"
                 id="path3453"
                 sodipodi:nodetypes="cccc" />
            </g>
            <g
               transform="matrix(2.0207645,-0.5630325,0.4096333,1.7126494,-3007.5003,-117.71127)"
               style="fill:#008f4c;fill-opacity:1;stroke:#000000;stroke-width:0.71147054;stroke-miterlimit:4;stroke-dasharray:none;stroke-opacity:1;display:inline"
               id="g3455">
              <path
                 style="fill:#008f4c;fill-opacity:1;fill-rule:evenodd;stroke:#000000;stroke-width:0.71147054;stroke-linecap:butt;stroke-linejoin:round;stroke-miterlimit:4;stroke-dasharray:none;stroke-opacity:1"
                 d="M 827.77778,501.26984 C 839.22868,493.29581 853.78083,500.65532 850.18431,479.79313 L 848.42334,478.19632 C 830.9145,473.28836 834.92989,489.01618 827.77778,501.26984 L 827.77778,501.26984 z"
                 id="path3457"
                 sodipodi:nodetypes="cccc" />
            </g>
            <g
               transform="matrix(1.0311456,-1.8268097,-1.5644651,-0.8083417,-1156.8013,2159.9479)"
               style="fill:#008f4c;fill-opacity:1;stroke:#000000;stroke-width:0.71147054;stroke-miterlimit:4;stroke-dasharray:none;stroke-opacity:1;display:inline"
               id="g3459">
              <path
                 style="fill:#008f4c;fill-opacity:1;fill-rule:evenodd;stroke:#000000;stroke-width:0.62129653;stroke-linecap:butt;stroke-linejoin:round;stroke-miterlimit:4;stroke-dasharray:none;stroke-opacity:1"
                 d="M 829.36911,501.47651 C 839.35251,493.6454 851.39649,499.4987 849.12008,480.84616 L 847.6886,479.49976 C 833.05241,476.02323 835.87207,490.01387 829.36911,501.47651 L 829.36911,501.47651 z"
                 id="path3461"
                 sodipodi:nodetypes="cccc" />
            </g>
            <g
               transform="matrix(1.9326906,0.8155991,-0.7441445,1.5960001,-2248.5016,-1209.7001)"
               style="fill:#008f4c;fill-opacity:1;stroke:#000000;stroke-width:0.71147054;stroke-miterlimit:4;stroke-dasharray:none;stroke-opacity:1;display:inline"
               id="g3463">
              <path
                 style="fill:#008f4c;fill-opacity:1;fill-rule:evenodd;stroke:#000000;stroke-width:0.71147054;stroke-linecap:butt;stroke-linejoin:round;stroke-miterlimit:4;stroke-dasharray:none;stroke-opacity:1"
                 d="M 827.77778,501.26984 C 839.22868,493.29581 853.78083,500.65532 850.18431,479.79313 L 848.42334,478.19632 C 830.9145,473.28836 834.92989,489.01618 827.77778,501.26984 L 827.77778,501.26984 z"
                 id="path3465"
                 sodipodi:nodetypes="cccc" />
            </g>
            <g
               transform="matrix(0.1664807,2.0911191,-1.7593674,7.47905e-2,-272.09172,-1613.6417)"
               style="fill:#008f4c;fill-opacity:1;stroke:#000000;stroke-width:0.71147054;stroke-miterlimit:4;stroke-dasharray:none;stroke-opacity:1;display:inline"
               id="g3467">
              <path
                 style="fill:#008f4c;fill-opacity:1;fill-rule:evenodd;stroke:#000000;stroke-width:0.71147054;stroke-linecap:butt;stroke-linejoin:round;stroke-miterlimit:4;stroke-dasharray:none;stroke-opacity:1"
                 d="M 827.77778,501.26984 C 839.22868,493.29581 853.78083,500.65532 850.18431,479.79313 L 848.42334,478.19632 C 830.9145,473.28836 834.92989,489.01618 827.77778,501.26984 L 827.77778,501.26984 z"
                 id="path3469"
                 sodipodi:nodetypes="cccc" />
            </g>
            <g
               transform="matrix(0.5896399,-2.0131616,-1.7070968,-0.4321896,-691.20612,2151.1548)"
               style="fill:#008f4c;fill-opacity:1;stroke:#000000;stroke-width:0.71147054;stroke-miterlimit:4;stroke-dasharray:none;stroke-opacity:1;display:inline"
               id="g3471">
              <path
                 style="fill:#008f4c;fill-opacity:1;fill-rule:evenodd;stroke:#000000;stroke-width:0.62333971;stroke-linecap:butt;stroke-linejoin:round;stroke-miterlimit:4;stroke-dasharray:none;stroke-opacity:1"
                 d="M 824.73568,503.48234 C 834.70033,496.34542 847.2888,502.75981 844.25915,484.31818 L 842.73883,482.91685 C 827.57574,478.69277 830.99064,492.5868 824.73568,503.48234 L 824.73568,503.48234 z"
                 id="path3473"
                 sodipodi:nodetypes="cccc" />
            </g>
          </g>
          <path
             style="fill:#803300;fill-opacity:1;fill-rule:evenodd;stroke:#000000;stroke-width:0.98852348;stroke-linecap:butt;stroke-linejoin:miter;stroke-opacity:1;display:inline"
             d="M 524.4375,607.28125 C 522.00972,607.70329 515.89061,616.94398 502.78125,625.0625 C 489.24892,633.44293 483.29517,635.30184 472.8125,639.78125 C 462.32974,644.26067 461.02323,646.17402 460.84375,643 C 460.66426,639.82599 463.54762,635.22249 469.8125,628.125 C 476.0773,621.0275 487.04079,615.11544 485.90625,614.59375 C 484.77171,614.0721 473.97091,618.9177 465.28125,626.03125 C 456.59158,633.14483 458.39198,636.13498 451.15625,643.0625 C 443.92046,649.99004 442.30607,650.35891 436.34375,653.75 C 430.38141,657.14112 428.45101,657.85227 427.3125,656.625 C 426.17399,655.39775 424.95408,652.1818 427.1875,646.875 C 429.42092,641.56823 432.85375,640.68929 436.21875,635.375 C 439.58373,630.06069 446.86353,627.02262 445.25,627.5625 C 443.6364,628.10239 436.6927,630.46072 429.78125,637.5625 C 422.86978,644.66431 424.66196,647.98393 417.59375,655.96875 C 410.52561,663.95357 406.7999,663.2909 401.5,669.5 C 400.68464,670.45525 399.61349,671.32841 398.40625,672.15625 C 397.37706,669.61715 396.35354,666.6808 396.34375,664.78125 C 396.32305,660.77277 398.80133,655.6947 400.5625,652.09375 C 401.56651,650.04091 404.18092,649.15331 404.78125,645.75 C 402.11893,646.18787 400.86069,647.02096 399.71875,648.28125 C 396.62053,651.70055 394.97831,658.10504 394.21875,662.65625 C 393.66716,665.96133 394.44623,673.10555 394.59375,674.40625 C 388.2005,677.8942 380.61101,681.07983 380.53125,687 L 382.9375,710.15625 C 386.50674,712.42581 404.72617,693.44248 410.6875,689.875 C 416.64888,686.30752 416.62576,686.26636 424.875,687.09375 C 433.12423,687.92112 443.98845,694.7729 443.65625,693.1875 C 443.32403,691.60214 431.33863,685.69733 423.5625,682.75 C 415.7863,679.80266 409.5089,684.60167 412.5625,681.40625 C 415.61608,678.21081 425.27877,670.92028 435.78125,669.96875 C 446.28372,669.01724 446.61376,672.70716 454.5625,677.59375 C 462.51117,682.48033 461.55956,685.65893 467.5625,689.5 C 473.56542,693.34105 478.11675,694.38311 478.59375,692.96875 C 470.08264,688.18126 465.25893,684.92302 461.34375,678.4375 C 456.30677,673.88443 448.71296,668.48283 449.34375,665.65625 C 449.97453,662.8297 457.85653,659.77164 466.59375,661.125 C 475.33088,662.47839 476.54144,665.31433 483.34375,667.5625 C 490.14604,669.81071 493.35267,674.71255 493.34375,673.125 C 493.33475,671.53744 490.73992,668.9094 484.25,664.71875 C 477.76014,660.52809 468.36177,659.33603 467.375,656.34375 C 466.38821,653.35151 472.88138,653.6812 480.3125,652.75 C 487.74353,651.81881 490.32368,650.55322 497.125,652.625 C 503.92625,654.69681 503.58561,654.88315 507.5,661.03125 C 511.41432,667.17935 509.51251,670.88998 512.78125,677.21875 C 515.10346,682.75915 521.25039,691.07994 527.28125,686.40625 C 520.38862,682.59147 516.58925,682.31494 515.1875,674.4375 C 512.73195,668.98534 513.63105,660.46959 513.9375,657.46875 C 514.24392,654.46791 514.26743,656.02721 519.125,657.40625 C 523.98249,658.78528 524.80445,662.49629 533.375,662.96875 C 541.94561,663.4412 552.60497,660.55261 553.40625,659.3125 C 554.20757,658.07238 538.73454,661.59768 531.125,659.53125 C 523.51541,657.46483 527.99384,653.46759 522.96875,651.03125 C 517.94364,648.59494 514.73275,650.2021 516.5,648.25 C 518.26729,646.29792 524.38627,645.58058 530.03125,643.25 C 535.67625,640.91945 534.07506,643.2041 539.0625,638.9375 C 544.04995,634.6709 554.04228,626.30589 550,626.15625 C 545.95763,626.00664 538.99184,636.22041 529.3125,639.8125 C 519.63317,643.40461 517.74839,640.66483 511.28125,640.53125 C 504.8141,640.39766 496.89034,641.51785 497.03125,637.8125 C 497.17209,634.10718 504.90395,630.31846 511.8125,622.6875 C 518.72098,615.05656 526.92038,607.44266 524.65625,607.28125 C 524.58555,607.27625 524.51582,607.26765 524.4375,607.28125 z"
             transform="matrix(-1.4444852,8.76414e-3,8.11246e-3,1.3237722,-362.37222,-660.99495)"
             id="path3475"
             sodipodi:nodetypes="cssssssssssssssscsscsscccssssssssccssssssssscccsssssssssssssssc" />
        </g>
        <path
           style="fill:#803300;fill-opacity:1;fill-rule:evenodd;stroke:#000000;stroke-width:0.6652317;stroke-linecap:butt;stroke-linejoin:miter;stroke-miterlimit:4;stroke-dasharray:none;stroke-opacity:1;display:inline"
           d="M 293.76293,460.86514 L 290.91926,440.24188 L 272.70188,413.28712 C 266.08041,433.85798 253.69247,449.26691 253.08219,464.79768 C 252.47191,480.32844 253.3231,550.41396 241.57002,562.11444 C 233.50205,570.02061 223.9326,568.47024 206.70134,564.1882 C 206.65084,571.6193 192.22407,574.8951 179.51584,567.77092 C 178.62159,577.32599 201.90374,583.3759 208.10882,573.82741 C 221.56973,575.40113 234.26555,579.54123 249.44756,575.39129 C 247.45061,581.32809 239.57379,587.93113 224.92062,584.68929 C 215.11227,589.2173 205.30191,587.40904 195.49347,583.92156 L 205.29385,592.45182 C 212.8783,603.35942 221.99163,591.02345 232.63576,594.78343 C 221.93757,616.768 232.91191,611.14256 241.73237,619.63493 C 235.37334,612.78267 228.64093,605.98331 236.83221,597.11504 L 264.85182,569.93193 C 259.16852,579.07856 252.29356,588.97814 259.24789,590.12022 C 263.78742,593.48989 271.9188,597.07942 262.06292,605.67374 C 237.69482,622.19148 261.11525,632.58411 264.85182,639.05551 C 262.50371,630.05143 251.06323,614.72888 262.06292,614.97172 C 270.55039,613.7666 277.51616,610.89411 276.76341,599.44664 C 265.91029,587.06694 274.10392,581.73722 273.27073,573.0597 L 276.05964,585.48545 C 305.27868,616.01526 284.6808,616.29525 285.18232,639.05551 C 313.10712,596.22128 287.33449,598.28054 287.97127,575.39129 C 307.01011,585.23319 319.10069,597.19098 304.78301,617.30333 C 324.15839,614.90067 317.13877,604.52872 317.39832,596.34733 C 335.27809,594.27646 339.5047,592.19109 346.82543,590.12022 C 307.72066,593.80367 310.59133,577.13761 298.39716,567.77092 L 315.28711,580.02607 C 325.8707,579.2495 332.07429,578.47103 339.11027,577.69446 C 362.10072,586.14182 367.80557,574.38855 372.75987,568.39647 C 363.67498,571.38936 356.87936,581.86262 342.62901,571.4958 C 335.45767,573.12445 328.31545,566.9265 317.49168,564.50678 C 302.45095,551.98394 302.95823,563.46394 297.34962,549.50291 L 293.76293,460.86514 L 293.76293,460.86514 z"
           id="path3477"
           sodipodi:nodetypes="cccccccccccccccccccccccccccccccccccs" />
        <g
           id="g3479"
           transform="matrix(0.426332,2.312915e-2,-1.731832e-2,0.5751028,660.42297,337.85298)"
           style="fill:#008f4c;fill-opacity:1;stroke-width:1.36696768">
          <g
             id="g3481"
             style="fill:#008f4c;fill-opacity:1;stroke-width:1.36696768">
            <g
               transform="matrix(-0.1993271,2.0882441,1.7579746,0.102434,-1375.337,-1784.3159)"
               style="fill:#008f4c;fill-opacity:1;stroke:#000000;stroke-width:0.71147054;stroke-miterlimit:4;stroke-dasharray:none;stroke-opacity:1;display:inline"
               id="g3483">
              <path
                 style="fill:#008f4c;fill-opacity:1;fill-rule:evenodd;stroke:#000000;stroke-width:0.71147054;stroke-linecap:butt;stroke-linejoin:round;stroke-miterlimit:4;stroke-dasharray:none;stroke-opacity:1"
                 d="M 827.77778,501.26984 C 839.22868,493.29581 853.78083,500.65532 850.18431,479.79313 L 848.42334,478.19632 C 830.9145,473.28836 834.92989,489.01618 827.77778,501.26984 L 827.77778,501.26984 z"
                 id="path3485"
                 sodipodi:nodetypes="cccc" />
            </g>
            <g
               transform="matrix(-1.9055375,0.8771668,-0.6767294,-1.625732,1205.9084,66.868553)"
               style="fill:#008f4c;fill-opacity:1;stroke:#000000;stroke-width:0.71147054;stroke-miterlimit:4;stroke-dasharray:none;stroke-opacity:1;display:inline"
               id="g3487">
              <path
                 style="fill:#008f4c;fill-opacity:1;fill-rule:evenodd;stroke:#000000;stroke-width:0.71147054;stroke-linecap:butt;stroke-linejoin:round;stroke-miterlimit:4;stroke-dasharray:none;stroke-opacity:1"
                 d="M 827.77778,501.26984 C 839.22868,493.29581 853.78083,500.65532 850.18431,479.79313 L 848.42334,478.19632 C 830.9145,473.28836 834.92989,489.01618 827.77778,501.26984 L 827.77778,501.26984 z"
                 id="path3489"
                 sodipodi:nodetypes="cccc" />
            </g>
            <g
               transform="matrix(-1.7424176,1.1681078,-0.9258548,-1.4979186,1093.7604,-184.75525)"
               style="fill:#008f4c;fill-opacity:1;stroke:#000000;stroke-width:0.71147054;stroke-miterlimit:4;stroke-dasharray:none;stroke-opacity:1;display:inline"
               id="g3491">
              <path
                 style="fill:#008f4c;fill-opacity:1;fill-rule:evenodd;stroke:#000000;stroke-width:0.71147054;stroke-linecap:butt;stroke-linejoin:round;stroke-miterlimit:4;stroke-dasharray:none;stroke-opacity:1"
                 d="M 827.77778,501.26984 C 839.22868,493.29581 853.78083,500.65532 850.18431,479.79313 L 848.42334,478.19632 C 830.9145,473.28836 834.92989,489.01618 827.77778,501.26984 L 827.77778,501.26984 z"
                 id="path3493"
                 sodipodi:nodetypes="cccc" />
            </g>
            <g
               transform="matrix(0.6788464,1.9848583,1.6440047,-0.6310433,-2151.6619,-1329.243)"
               style="fill:#008f4c;fill-opacity:1;stroke:#000000;stroke-width:0.71147054;stroke-miterlimit:4;stroke-dasharray:none;stroke-opacity:1;display:inline"
               id="g3495">
              <path
                 style="fill:#008f4c;fill-opacity:1;fill-rule:evenodd;stroke:#000000;stroke-width:0.71147054;stroke-linecap:butt;stroke-linejoin:round;stroke-miterlimit:4;stroke-dasharray:none;stroke-opacity:1"
                 d="M 827.77778,501.26984 C 839.22868,493.29581 853.78083,500.65532 850.18431,479.79313 L 848.42334,478.19632 C 830.9145,473.28836 834.92989,489.01618 827.77778,501.26984 L 827.77778,501.26984 z"
                 id="path3497"
                 sodipodi:nodetypes="cccc" />
            </g>
            <g
               transform="matrix(-1.7138362,1.2096531,1.0679205,1.4001833,261.8132,-1645.9988)"
               style="fill:#008f4c;fill-opacity:1;stroke:#000000;stroke-width:0.71147048;stroke-miterlimit:4;stroke-dasharray:none;stroke-opacity:1;display:inline"
               id="g3499">
              <path
                 style="fill:#008f4c;fill-opacity:1;fill-rule:evenodd;stroke:#000000;stroke-width:0.71147048;stroke-linecap:butt;stroke-linejoin:round;stroke-miterlimit:4;stroke-dasharray:none;stroke-opacity:1"
                 d="M 827.77778,501.26984 C 839.22868,493.29581 853.78083,500.65532 850.18431,479.79313 L 848.42334,478.19632 C 830.9145,473.28836 834.92989,489.01618 827.77778,501.26984 L 827.77778,501.26984 z"
                 id="path3501"
                 sodipodi:nodetypes="cccc" />
            </g>
            <g
               transform="matrix(-1.8696195,0.9513242,0.8560454,1.5388806,505.6609,-1462.3009)"
               style="fill:#008f4c;fill-opacity:1;stroke:#000000;stroke-width:0.71147054;stroke-miterlimit:4;stroke-dasharray:none;stroke-opacity:1;display:inline"
               id="g3503">
              <path
                 style="fill:#008f4c;fill-opacity:1;fill-rule:evenodd;stroke:#000000;stroke-width:0.71147054;stroke-linecap:butt;stroke-linejoin:round;stroke-miterlimit:4;stroke-dasharray:none;stroke-opacity:1"
                 d="M 827.77778,501.26984 C 839.22868,493.29581 853.78083,500.65532 850.18431,479.79313 L 848.42334,478.19632 C 830.9145,473.28836 834.92989,489.01618 827.77778,501.26984 L 827.77778,501.26984 z"
                 id="path3505"
                 sodipodi:nodetypes="cccc" />
            </g>
            <g
               transform="matrix(-2.0072991,0.609299,0.5733974,1.6649873,697.9068,-1221.2474)"
               style="fill:#008f4c;fill-opacity:1;stroke:#000000;stroke-width:0.71147054;stroke-miterlimit:4;stroke-dasharray:none;stroke-opacity:1;display:inline"
               id="g3507">
              <path
                 style="fill:#008f4c;fill-opacity:1;fill-rule:evenodd;stroke:#000000;stroke-width:0.71147054;stroke-linecap:butt;stroke-linejoin:round;stroke-miterlimit:4;stroke-dasharray:none;stroke-opacity:1"
                 d="M 827.77778,501.26984 C 839.22868,493.29581 853.78083,500.65532 850.18431,479.79313 L 848.42334,478.19632 C 830.9145,473.28836 834.92989,489.01618 827.77778,501.26984 L 827.77778,501.26984 z"
                 id="path3509"
                 sodipodi:nodetypes="cccc" />
            </g>
            <g
               transform="matrix(-1.9326906,0.8155991,0.7441445,1.5960001,499.7649,-1348.9674)"
               style="fill:#008f4c;fill-opacity:1;stroke:#000000;stroke-width:0.71147054;stroke-miterlimit:4;stroke-dasharray:none;stroke-opacity:1;display:inline"
               id="g3511">
              <path
                 style="fill:#008f4c;fill-opacity:1;fill-rule:evenodd;stroke:#000000;stroke-width:0.71147054;stroke-linecap:butt;stroke-linejoin:round;stroke-miterlimit:4;stroke-dasharray:none;stroke-opacity:1"
                 d="M 827.77778,501.26984 C 839.22868,493.29581 853.78083,500.65532 850.18431,479.79313 L 848.42334,478.19632 C 830.9145,473.28836 834.92989,489.01618 827.77778,501.26984 L 827.77778,501.26984 z"
                 id="path3513"
                 sodipodi:nodetypes="cccc" />
            </g>
            <g
               transform="matrix(-2.093556,0.1323551,-4.608751e-2,-1.7603531,961.29413,901.48703)"
               style="fill:#008f4c;fill-opacity:1;stroke:#000000;stroke-width:0.71147054;stroke-miterlimit:4;stroke-dasharray:none;stroke-opacity:1;display:inline"
               id="g3515">
              <path
                 style="fill:#008f4c;fill-opacity:1;fill-rule:evenodd;stroke:#000000;stroke-width:0.6470744;stroke-linecap:butt;stroke-linejoin:round;stroke-miterlimit:4;stroke-dasharray:none;stroke-opacity:1"
                 d="M 827.23985,504.88956 C 837.21033,497.29568 849.89761,504.25088 846.74403,484.45468 L 845.20806,482.94262 C 829.94671,478.3209 833.46044,493.24231 827.23985,504.88956 L 827.23985,504.88956 z"
                 id="path3517"
                 sodipodi:nodetypes="cccc" />
            </g>
          </g>
          <path
             sodipodi:nodetypes="cccccccccccccccccccccccccccccccccccccccccccccccccc"
             id="path3519"
             d="M -857.30683,232.01382 C -857.55937,225.74391 -860.93109,217.98299 -857.89539,203.97215 C -854.85969,189.96131 -857.89539,196.4997 -847.62079,182.48886 C -837.34619,168.47802 -817.49749,151.89852 -816.79689,147.92878 C -816.09639,143.95904 -835.24449,160.30502 -844.81859,166.6099 C -854.39269,172.91478 -856.02729,178.51912 -855.09319,173.1483 C -854.15919,167.77748 -850.42299,159.13745 -841.08239,145.12661 C -831.74179,131.11577 -829.87369,126.44549 -817.73099,117.10492 C -805.58829,107.76436 -797.1818,107.76435 -792.5115,107.76435 C -787.8412,107.76435 -744.8746,121.54168 -743.9405,119.90708 C -743.0065,118.27248 -783.8714,107.76435 -788.7752,101.22596 C -793.679,94.687574 -777.3331,94.454054 -763.5557,93.753513 C -749.7784,93.052973 -751.6465,93.520004 -733.6659,98.423795 C -715.6854,103.32759 -695.6031,114.06923 -691.6334,113.36869 C -687.6637,112.66815 -705.1772,105.9265 -717.787,99.621624 C -730.3967,93.316744 -745.5751,91.885403 -742.0724,88.149183 C -738.5697,84.412964 -724.3254,79.509153 -703.7761,80.676723 C -683.2269,81.844293 -678.3231,88.616211 -661.7436,90.951352 C -645.1641,93.286492 -636.9911,92.118923 -637.4581,90.017293 C -637.9252,87.915663 -647.9663,92.849723 -661.7436,88.412954 C -675.5209,83.976183 -681.5923,79.539423 -692.5675,76.270224 C -703.5426,73.001024 -712.4161,75.539423 -705.6442,71.336163 C -698.8723,67.132914 -681.8258,59.893974 -665.4798,55.457213 C -649.1339,51.020443 -637.2246,54.289643 -640.2603,53.589104 C -643.296,52.888554 -656.8398,49.619363 -677.6226,52.655043 C -698.4053,55.690723 -695.3433,61.174865 -716.126,67.713265 C -736.9088,74.251655 -743.6338,78.181323 -758.1117,81.450524 C -772.5895,84.719724 -785.1993,84.6064 -778.6609,79.46909 C -772.1225,74.33178 -756.0432,58.626831 -740.5443,58.91986 C -719.7615,48.645241 -714.9848,50.786933 -698.1718,37.710143 C -681.3588,24.633364 -665.0128,6.4192635 -667.3479,5.9522335 C -669.6831,5.4852035 -688.1307,26.399843 -707.5124,37.842033 C -726.894,49.284223 -737.8692,51.954503 -744.8746,51.720983 C -751.88,51.487474 -742.5395,48.918813 -735.534,34.907973 C -728.5286,20.897133 -715.2183,-3.8553568 -716.8529,-4.3223868 C -718.4875,-4.7894168 -728.5286,17.160913 -742.0724,33.039863 C -755.6162,48.918813 -758.4184,48.451793 -771.0282,59.193433 C -783.6379,69.935083 -794.6063,85.606836 -796.4744,83.271695 C -798.34246,80.936555 -787.1406,65.731833 -782.2368,49.852873 C -777.333,33.973923 -770.7947,12.724144 -772.8963,12.490624 C -774.9979,12.257113 -777.0995,29.537153 -786.9071,48.918813 C -796.7147,68.300483 -802.55259,76.706993 -812.12659,90.017293 C -821.70069,103.32759 -824.76958,105.30902 -828.50578,104.14145 C -832.24208,102.97388 -827.85224,97.296295 -825.75054,84.686537 C -823.64894,72.076776 -814.22829,48.685303 -816.79689,51.720983 C -819.36559,54.756673 -830.34069,81.377274 -837.34619,97.489745 C -844.35159,113.60221 -838.51369,104.26164 -844.81859,116.17086 C -851.12349,128.08008 -854.39269,131.11577 -862.56569,145.12661 C -870.73869,159.13745 -869.10409,162.64017 -877.51059,172.21424 C -885.91709,181.78831 -901.31947,182.26532 -896.88277,198.84482"
             style="fill:#803300;fill-opacity:1;fill-rule:evenodd;stroke:#000000;stroke-width:1.36696768;stroke-linecap:butt;stroke-linejoin:miter;stroke-opacity:1;display:inline" />
        </g>
        <g
           id="g3521"
           transform="matrix(0.4530421,0,0,0.5868621,679.18406,318.669)"
           style="fill:#008f4c;fill-opacity:1;stroke-width:1.36696768">
          <path
             style="fill:#008f4c;fill-opacity:1;fill-rule:evenodd;stroke:#000000;stroke-width:1.36696768;stroke-linecap:butt;stroke-linejoin:round;stroke-miterlimit:4;stroke-dasharray:none;stroke-opacity:1"
             d="M -850.25794,76.850314 C -865.64207,100.56611 -898.28417,102.82044 -875.96519,132.6187 L -871.48662,133.47164 C -835.16607,124.46793 -854.42363,103.25652 -850.25794,76.850314 L -850.25794,76.850314 z"
             id="path3523"
             sodipodi:nodetypes="cccc" />
          <g
             id="g3525"
             style="fill:#008f4c;fill-opacity:1;stroke-width:1.36696768">
            <g
               transform="matrix(2.0545871,0.4232808,0.2913489,-1.7366874,-2856.9251,500.19662)"
               style="fill:#008f4c;fill-opacity:1;stroke:#000000;stroke-width:0.71147054;stroke-miterlimit:4;stroke-dasharray:none;stroke-opacity:1;display:inline"
               id="g3527">
              <path
                 style="fill:#008f4c;fill-opacity:1;fill-rule:evenodd;stroke:#000000;stroke-width:0.71147054;stroke-linecap:butt;stroke-linejoin:round;stroke-miterlimit:4;stroke-dasharray:none;stroke-opacity:1"
                 d="M 827.77778,501.26984 C 839.22868,493.29581 853.78083,500.65532 850.18431,479.79313 L 848.42334,478.19632 C 830.9145,473.28836 834.92989,489.01618 827.77778,501.26984 L 827.77778,501.26984 z"
                 id="path3529"
                 sodipodi:nodetypes="cccc" />
            </g>
            <g
               transform="matrix(-1.9820267,0.6870702,-0.5148881,-1.6840005,1093.4999,257.08647)"
               style="fill:#008f4c;fill-opacity:1;stroke:#000000;stroke-width:0.71147048;stroke-miterlimit:4;stroke-dasharray:none;stroke-opacity:1;display:inline"
               id="g3531">
              <path
                 style="fill:#008f4c;fill-opacity:1;fill-rule:evenodd;stroke:#000000;stroke-width:0.71147048;stroke-linecap:butt;stroke-linejoin:round;stroke-miterlimit:4;stroke-dasharray:none;stroke-opacity:1"
                 d="M 827.77778,501.26984 C 839.22868,493.29581 853.78083,500.65532 850.18431,479.79313 L 848.42334,478.19632 C 830.9145,473.28836 834.92989,489.01618 827.77778,501.26984 L 827.77778,501.26984 z"
                 id="path3533"
                 sodipodi:nodetypes="cccc" />
            </g>
            <g
               transform="matrix(1.105905,1.7825456,1.4610408,-0.9830195,-2506.2724,-999.43348)"
               style="fill:#008f4c;fill-opacity:1;stroke:#000000;stroke-width:0.71147054;stroke-miterlimit:4;stroke-dasharray:none;stroke-opacity:1;display:inline"
               id="g3535">
              <path
                 style="fill:#008f4c;fill-opacity:1;fill-rule:evenodd;stroke:#000000;stroke-width:0.71147054;stroke-linecap:butt;stroke-linejoin:round;stroke-miterlimit:4;stroke-dasharray:none;stroke-opacity:1"
                 d="M 827.77778,501.26984 C 839.22868,493.29581 853.78083,500.65532 850.18431,479.79313 L 848.42334,478.19632 C 830.9145,473.28836 834.92989,489.01618 827.77778,501.26984 L 827.77778,501.26984 z"
                 id="path3537"
                 sodipodi:nodetypes="cccc" />
            </g>
            <g
               transform="matrix(-1.4501823,1.5157395,-1.2265423,-1.2635512,915.58202,-635.33785)"
               style="fill:#008f4c;fill-opacity:1;stroke:#000000;stroke-width:0.71147048;stroke-miterlimit:4;stroke-dasharray:none;stroke-opacity:1;display:inline"
               id="g3539">
              <path
                 style="fill:#008f4c;fill-opacity:1;fill-rule:evenodd;stroke:#000000;stroke-width:0.71147048;stroke-linecap:butt;stroke-linejoin:round;stroke-miterlimit:4;stroke-dasharray:none;stroke-opacity:1"
                 d="M 827.77778,501.26984 C 839.22868,493.29581 853.78083,500.65532 850.18431,479.79313 L 848.42334,478.19632 C 830.9145,473.28836 834.92989,489.01618 827.77778,501.26984 L 827.77778,501.26984 z"
                 id="path3541"
                 sodipodi:nodetypes="cccc" />
            </g>
            <g
               transform="matrix(1.7424176,1.1681078,0.9258548,-1.4979186,-2863.0433,-237.16531)"
               style="fill:#008f4c;fill-opacity:1;stroke:#000000;stroke-width:0.71147054;stroke-miterlimit:4;stroke-dasharray:none;stroke-opacity:1;display:inline"
               id="g3543">
              <path
                 style="fill:#008f4c;fill-opacity:1;fill-rule:evenodd;stroke:#000000;stroke-width:0.71147054;stroke-linecap:butt;stroke-linejoin:round;stroke-miterlimit:4;stroke-dasharray:none;stroke-opacity:1"
                 d="M 827.77778,501.26984 C 839.22868,493.29581 853.78083,500.65532 850.18431,479.79313 L 848.42334,478.19632 C 830.9145,473.28836 834.92989,489.01618 827.77778,501.26984 L 827.77778,501.26984 z"
                 id="path3545"
                 sodipodi:nodetypes="cccc" />
            </g>
            <g
               transform="matrix(1.9353436,0.8092837,0.618859,-1.64863,-2865.3436,235.57585)"
               style="fill:#008f4c;fill-opacity:1;stroke:#000000;stroke-width:0.71147054;stroke-miterlimit:4;stroke-dasharray:none;stroke-opacity:1;display:inline"
               id="g3547">
              <path
                 style="fill:#008f4c;fill-opacity:1;fill-rule:evenodd;stroke:#000000;stroke-width:0.71147054;stroke-linecap:butt;stroke-linejoin:round;stroke-miterlimit:4;stroke-dasharray:none;stroke-opacity:1"
                 d="M 827.77778,501.26984 C 839.22868,493.29581 853.78083,500.65532 850.18431,479.79313 L 848.42334,478.19632 C 830.9145,473.28836 834.92989,489.01618 827.77778,501.26984 L 827.77778,501.26984 z"
                 id="path3549"
                 sodipodi:nodetypes="cccc" />
            </g>
          </g>
        </g>
        <path
           style="fill:#803300;fill-opacity:1;fill-rule:evenodd;stroke:#000000;stroke-width:0.70484811;stroke-linecap:butt;stroke-linejoin:miter;stroke-opacity:1;display:inline"
           d="M 264.94812,434.6636 C 259.18811,427.49283 261.58189,417.5119 259.56214,407.14335 C 257.54234,396.77482 258.88887,400.94161 256.86907,393.18942 C 254.84932,385.43724 250.36098,375.06868 251.48303,376.13461 C 252.60512,377.20053 256.60835,387.79328 260.72271,398.54944 C 264.83705,409.3056 266.29465,417.31809 267.94037,419.15924 C 269.58614,421.00038 268.2396,413.3451 267.94037,404.8177 C 267.64114,396.2903 267.34195,386.60006 266.74347,385.04961 C 266.14506,383.49919 264.42449,378.07264 261.35745,372.64612 C 258.2904,367.2196 258.2156,368.47933 254.47529,363.34352 C 250.73496,358.20769 250.43577,359.37052 246.39623,352.10285 C 242.35672,344.83517 242.95515,342.99403 238.31717,334.27282 C 233.67921,325.55162 226.49785,316.05519 227.84434,317.21802 C 229.19086,318.38084 237.64395,330.10602 243.7032,338.92412 C 249.76252,347.74223 249.9121,351.71523 252.08151,352.49045 C 254.25089,353.26568 252.38074,343.57545 252.38074,342.025 C 250.80003,337.01147 249.28573,315.11172 249.68773,320.31889 C 250.73496,326.52063 254.77453,343.38163 255.67218,351.52143 C 255.09445,357.24368 267.20857,375.9965 268.2396,374.19657 C 267.18388,365.5946 269.47283,357.0254 269.13726,342.80022 C 269.4365,330.49364 268.83808,322.06312 269.73574,327.29586 C 270.6334,332.52859 270.4838,355.59132 272.72799,363.73112 C 274.97213,371.87091 275.86984,363.34352 278.71245,359.85503 C 281.55506,356.36655 282.52757,355.49442 284.09849,349.77718 C 285.6694,344.05995 285.51982,345.31969 287.09074,337.7613 C 288.66166,330.20291 289.33493,320.22199 290.38218,319.54367 C 290.82675,327.82048 288.71739,336.44626 287.38997,344.54446 C 286.7167,349.68028 285.7442,353.75019 286.49227,354.81611 C 287.24033,355.88203 289.40973,353.45948 291.8783,349.00198 C 303.28567,336.89323 302.55695,326.06633 309.53253,317.21802 C 304.53629,326.61792 305.28159,333.82359 296.21708,347.06392 C 290.30738,355.78513 283.12603,361.11477 277.51556,371.0957 C 271.90513,381.07663 274.97213,378.65407 274.82254,388.92571 C 274.67294,399.19736 275.94463,404.7208 276.91708,412.18226 C 277.88959,419.64375 276.90648,419.14546 277.65453,417.40122 C 278.40259,415.65697 278.33841,413.92651 279.90934,405.2053 C 281.48027,396.4841 283.84619,394.84768 286.68881,386.90169 C 289.53147,378.9557 291.80351,367.51032 291.27989,373.42135 C 290.75621,379.33238 285.07099,391.92968 282.9016,407.53096 C 280.7322,423.13223 279.22086,443.61334 285.22566,447.0153"
           id="path3551"
           sodipodi:nodetypes="cccccccccccccccccccccccccccccccccccccccc" />
        <g
           id="g16874"
           transform="matrix(0.5842849,2.912742e-2,-2.250345e-2,0.756271,57.797908,-116.28747)">
          <g
             id="g3554"
             style="fill:#008f4c;fill-opacity:1;stroke:#000000;stroke-width:0.71147048;stroke-miterlimit:4;stroke-dasharray:none;stroke-opacity:1;display:inline"
             transform="matrix(8.993725e-2,1.5357748,-1.2846981,2.818479e-2,890.63949,-621.62957)">
            <path
               sodipodi:nodetypes="cccc"
               id="path3556"
               d="M 831.14723,508.48274 C 842.59813,500.50871 857.15028,507.86822 853.55376,487.00603 L 851.79279,485.40922 C 834.28395,480.50126 838.29934,496.22908 831.14723,508.48274 L 831.14723,508.48274 z"
               style="fill:#008f4c;fill-opacity:1;fill-rule:evenodd;stroke:#000000;stroke-width:0.71147048;stroke-linecap:butt;stroke-linejoin:round;stroke-miterlimit:4;stroke-dasharray:none;stroke-opacity:1" />
          </g>
          <g
             style="fill:#008f4c;fill-opacity:1;stroke-width:1.36696768"
             transform="matrix(0.7297194,0,0,0.7333776,1043.1106,574.7165)"
             id="g3558">
            <g
               style="fill:#008f4c;fill-opacity:1;stroke-width:1.36696768"
               id="g3560">
              <g
                 id="g3562"
                 style="fill:#008f4c;fill-opacity:1;stroke:#000000;stroke-width:0.71147054;stroke-miterlimit:4;stroke-dasharray:none;stroke-opacity:1;display:inline"
                 transform="matrix(0.1993271,2.0882441,-1.7579746,0.102434,-422.11028,-1778.9022)">
                <path
                   sodipodi:nodetypes="cccc"
                   id="path3564"
                   d="M 827.77778,501.26984 C 839.22868,493.29581 853.78083,500.65532 850.18431,479.79313 L 848.42334,478.19632 C 830.9145,473.28836 834.92989,489.01618 827.77778,501.26984 L 827.77778,501.26984 z"
                   style="fill:#008f4c;fill-opacity:1;fill-rule:evenodd;stroke:#000000;stroke-width:0.71147054;stroke-linecap:butt;stroke-linejoin:round;stroke-miterlimit:4;stroke-dasharray:none;stroke-opacity:1" />
              </g>
              <g
                 id="g3566"
                 style="fill:#008f4c;fill-opacity:1;stroke:#000000;stroke-width:0.71147054;stroke-miterlimit:4;stroke-dasharray:none;stroke-opacity:1;display:inline"
                 transform="matrix(1.9055375,0.8771668,0.6767294,-1.625732,-3003.3557,72.282249)">
                <path
                   sodipodi:nodetypes="cccc"
                   id="path3568"
                   d="M 827.77778,501.26984 C 839.22868,493.29581 853.78083,500.65532 850.18431,479.79313 L 848.42334,478.19632 C 830.9145,473.28836 834.92989,489.01618 827.77778,501.26984 L 827.77778,501.26984 z"
                   style="fill:#008f4c;fill-opacity:1;fill-rule:evenodd;stroke:#000000;stroke-width:0.71147054;stroke-linecap:butt;stroke-linejoin:round;stroke-miterlimit:4;stroke-dasharray:none;stroke-opacity:1" />
              </g>
              <g
                 id="g3570"
                 style="fill:#008f4c;fill-opacity:1;stroke:#000000;stroke-width:0.71147054;stroke-miterlimit:4;stroke-dasharray:none;stroke-opacity:1;display:inline"
                 transform="matrix(1.7424176,1.1681078,0.9258548,-1.4979186,-2891.2077,-179.34155)">
                <path
                   sodipodi:nodetypes="cccc"
                   id="path3572"
                   d="M 827.77778,501.26984 C 839.22868,493.29581 853.78083,500.65532 850.18431,479.79313 L 848.42334,478.19632 C 830.9145,473.28836 834.92989,489.01618 827.77778,501.26984 L 827.77778,501.26984 z"
                   style="fill:#008f4c;fill-opacity:1;fill-rule:evenodd;stroke:#000000;stroke-width:0.71147054;stroke-linecap:butt;stroke-linejoin:round;stroke-miterlimit:4;stroke-dasharray:none;stroke-opacity:1" />
              </g>
              <g
                 id="g3574"
                 style="fill:#008f4c;fill-opacity:1;stroke:#000000;stroke-width:0.71147054;stroke-miterlimit:4;stroke-dasharray:none;stroke-opacity:1;display:inline"
                 transform="matrix(-0.6788464,1.9848583,-1.6440047,-0.6310433,354.2146,-1323.8293)">
                <path
                   sodipodi:nodetypes="cccc"
                   id="path3576"
                   d="M 827.77778,501.26984 C 839.22868,493.29581 853.78083,500.65532 850.18431,479.79313 L 848.42334,478.19632 C 830.9145,473.28836 834.92989,489.01618 827.77778,501.26984 L 827.77778,501.26984 z"
                   style="fill:#008f4c;fill-opacity:1;fill-rule:evenodd;stroke:#000000;stroke-width:0.71147054;stroke-linecap:butt;stroke-linejoin:round;stroke-miterlimit:4;stroke-dasharray:none;stroke-opacity:1" />
              </g>
              <g
                 id="g3578"
                 style="fill:#008f4c;fill-opacity:1;stroke:#000000;stroke-width:0.71147048;stroke-miterlimit:4;stroke-dasharray:none;stroke-opacity:1;display:inline"
                 transform="matrix(1.7138362,1.2096531,-1.0679205,1.4001833,-2059.2605,-1640.5851)">
                <path
                   sodipodi:nodetypes="cccc"
                   id="path3580"
                   d="M 827.77778,501.26984 C 839.22868,493.29581 853.78083,500.65532 850.18431,479.79313 L 848.42334,478.19632 C 830.9145,473.28836 834.92989,489.01618 827.77778,501.26984 L 827.77778,501.26984 z"
                   style="fill:#008f4c;fill-opacity:1;fill-rule:evenodd;stroke:#000000;stroke-width:0.71147048;stroke-linecap:butt;stroke-linejoin:round;stroke-miterlimit:4;stroke-dasharray:none;stroke-opacity:1" />
              </g>
              <g
                 id="g3582"
                 style="fill:#008f4c;fill-opacity:1;stroke:#000000;stroke-width:0.71147054;stroke-miterlimit:4;stroke-dasharray:none;stroke-opacity:1;display:inline"
                 transform="matrix(1.8696195,0.9513242,-0.8560454,1.5388806,-2303.1082,-1456.8872)">
                <path
                   sodipodi:nodetypes="cccc"
                   id="path3584"
                   d="M 827.77778,501.26984 C 839.22868,493.29581 853.78083,500.65532 850.18431,479.79313 L 848.42334,478.19632 C 830.9145,473.28836 834.92989,489.01618 827.77778,501.26984 L 827.77778,501.26984 z"
                   style="fill:#008f4c;fill-opacity:1;fill-rule:evenodd;stroke:#000000;stroke-width:0.71147054;stroke-linecap:butt;stroke-linejoin:round;stroke-miterlimit:4;stroke-dasharray:none;stroke-opacity:1" />
              </g>
              <g
                 id="g3586"
                 style="fill:#008f4c;fill-opacity:1;stroke:#000000;stroke-width:0.71147054;stroke-miterlimit:4;stroke-dasharray:none;stroke-opacity:1;display:inline"
                 transform="matrix(2.0072991,0.609299,-0.5733974,1.6649873,-2495.3541,-1215.8337)">
                <path
                   sodipodi:nodetypes="cccc"
                   id="path3588"
                   d="M 827.77778,501.26984 C 839.22868,493.29581 853.78083,500.65532 850.18431,479.79313 L 848.42334,478.19632 C 830.9145,473.28836 834.92989,489.01618 827.77778,501.26984 L 827.77778,501.26984 z"
                   style="fill:#008f4c;fill-opacity:1;fill-rule:evenodd;stroke:#000000;stroke-width:0.71147054;stroke-linecap:butt;stroke-linejoin:round;stroke-miterlimit:4;stroke-dasharray:none;stroke-opacity:1" />
              </g>
              <g
                 id="g3590"
                 style="fill:#008f4c;fill-opacity:1;stroke:#000000;stroke-width:0.71147054;stroke-miterlimit:4;stroke-dasharray:none;stroke-opacity:1;display:inline"
                 transform="matrix(1.9326906,0.8155991,-0.7441445,1.5960001,-2297.2122,-1343.5537)">
                <path
                   sodipodi:nodetypes="cccc"
                   id="path3592"
                   d="M 827.77778,501.26984 C 839.22868,493.29581 853.78083,500.65532 850.18431,479.79313 L 848.42334,478.19632 C 830.9145,473.28836 834.92989,489.01618 827.77778,501.26984 L 827.77778,501.26984 z"
                   style="fill:#008f4c;fill-opacity:1;fill-rule:evenodd;stroke:#000000;stroke-width:0.71147054;stroke-linecap:butt;stroke-linejoin:round;stroke-miterlimit:4;stroke-dasharray:none;stroke-opacity:1" />
              </g>
            </g>
            <path
               style="fill:#803300;fill-opacity:1;fill-rule:evenodd;stroke:#000000;stroke-width:1.36696768;stroke-linecap:butt;stroke-linejoin:miter;stroke-opacity:1;display:inline"
               d="M -923.76274,243.13113 C -933.33684,248.26844 -936.51621,223.39669 -939.55191,209.38585 C -942.58761,195.37501 -939.55191,201.9134 -949.82651,187.90256 C -960.10111,173.89172 -979.94981,157.31222 -980.65041,153.34248 C -981.35091,149.37274 -962.20281,165.71872 -952.62871,172.0236 C -943.05461,178.32848 -941.42001,183.93282 -942.35411,178.562 C -943.28811,173.19118 -947.02431,164.55115 -956.36491,150.54031 C -965.70551,136.52947 -967.57361,131.85919 -979.71631,122.51862 C -991.85901,113.17806 -1000.2655,113.17805 -1004.9358,113.17805 C -1009.6061,113.17805 -1052.5727,126.95538 -1053.5068,125.32078 C -1054.4408,123.68618 -1013.5759,113.17805 -1008.6721,106.63966 C -1003.7683,100.10127 -1020.1142,99.867749 -1033.8916,99.167209 C -1047.6689,98.466669 -1045.8008,98.933699 -1063.7814,103.83749 C -1081.7619,108.74129 -1101.8442,119.48293 -1105.8139,118.78239 C -1109.7836,118.08185 -1092.2701,111.3402 -1079.6603,105.03532 C -1067.0506,98.730439 -1051.8722,97.299099 -1055.3749,93.562879 C -1058.8776,89.826659 -1073.1219,84.922849 -1093.6712,86.090419 C -1114.2204,87.257989 -1119.1242,94.029907 -1135.7037,96.365047 C -1152.2832,98.700188 -1160.4562,97.532619 -1159.9892,95.430989 C -1159.5221,93.329359 -1149.481,98.263419 -1135.7037,93.826649 C -1121.9264,89.389879 -1115.855,84.953119 -1104.8798,81.683919 C -1093.9047,78.414719 -1085.0312,80.953119 -1091.8031,76.749859 C -1098.575,72.546609 -1115.6215,65.307669 -1131.9675,60.870909 C -1148.3134,56.434139 -1160.2227,59.703339 -1157.187,59.002799 C -1154.1513,58.302249 -1140.6075,55.033059 -1119.8247,58.068739 C -1099.042,61.104419 -1102.104,66.588561 -1081.3213,73.126961 C -1060.5385,79.665351 -1053.8135,83.595019 -1039.3356,86.864219 C -1024.8578,90.133419 -1012.248,90.020096 -1018.7864,84.882786 C -1025.3248,79.745476 -1041.4041,64.040527 -1056.903,64.333556 C -1077.6858,54.058936 -1082.4625,56.200629 -1099.2755,43.123839 C -1116.0885,30.047059 -1132.4345,11.832959 -1130.0994,11.365929 C -1127.7642,10.898899 -1109.3166,31.813539 -1089.9349,43.255729 C -1070.5533,54.697919 -1059.5781,57.368199 -1052.5727,57.134679 C -1045.5673,56.901169 -1054.9078,54.332509 -1061.9133,40.321669 C -1068.9187,26.310829 -1082.229,1.5583387 -1080.5944,1.0913087 C -1078.9598,0.62427866 -1068.9187,22.574609 -1055.3749,38.453559 C -1041.8311,54.332509 -1039.0289,53.865489 -1026.4191,64.607129 C -1013.8094,75.348779 -1002.841,91.020531 -1000.9729,88.685391 C -999.10484,86.350251 -1010.3067,71.145529 -1015.2105,55.266569 C -1020.1143,39.387619 -1026.6526,18.137839 -1024.551,17.904319 C -1022.4494,17.670809 -1020.3478,34.950849 -1010.5402,54.332509 C -1000.7326,73.714179 -994.89471,82.120689 -985.32071,95.430989 C -975.74661,108.74129 -972.67772,110.72272 -968.94152,109.55515 C -965.20522,108.38758 -969.59506,102.70999 -971.69676,90.100232 C -973.79836,77.490472 -983.21901,54.098999 -980.65041,57.134679 C -978.08171,60.170369 -967.10661,86.790969 -960.10111,102.90344 C -953.09571,119.01591 -958.93361,109.67534 -952.62871,121.58456 C -946.32381,133.49378 -943.05461,136.52947 -934.88161,150.54031 C -926.70861,164.55115 -928.34321,168.05387 -919.93671,177.62794 C -911.53021,187.20201 -905.13557,187.67902 -894.01343,190.4069"
               id="path3594"
               sodipodi:nodetypes="cccccccccccccccccccccccccccccccccccccccccccccccccc" />
          </g>
        </g>
        <g
           id="g3596"
           transform="matrix(0.4265351,1.439598e-2,-1.11779e-2,0.5548549,645.28081,336.07148)"
           style="fill:#008f4c;fill-opacity:1;stroke-width:1.36696768">
          <g
             id="g3598"
             style="fill:#008f4c;fill-opacity:1;stroke-width:1.36696768">
            <g
               transform="matrix(1.9326906,0.8155991,-0.7441445,1.5960001,-2401.7324,-1246.0264)"
               style="fill:#008f4c;fill-opacity:1;stroke:#000000;stroke-width:0.71147054;stroke-miterlimit:4;stroke-dasharray:none;stroke-opacity:1;display:inline"
               id="g3600">
              <path
                 style="fill:#008f4c;fill-opacity:1;fill-rule:evenodd;stroke:#000000;stroke-width:0.71147054;stroke-linecap:butt;stroke-linejoin:round;stroke-miterlimit:4;stroke-dasharray:none;stroke-opacity:1"
                 d="M 827.77778,501.26984 C 839.22868,493.29581 853.78083,500.65532 850.18431,479.79313 L 848.42334,478.19632 C 830.9145,473.28836 834.92989,489.01618 827.77778,501.26984 L 827.77778,501.26984 z"
                 id="path3602"
                 sodipodi:nodetypes="cccc" />
            </g>
            <g
               transform="matrix(2.0582715,-0.4049856,-0.4035836,-1.7140851,-2677.9903,1355.1602)"
               style="fill:#008f4c;fill-opacity:1;stroke:#000000;stroke-width:0.71147054;stroke-miterlimit:4;stroke-dasharray:none;stroke-opacity:1;display:inline"
               id="g3604">
              <path
                 style="fill:#008f4c;fill-opacity:1;fill-rule:evenodd;stroke:#000000;stroke-width:0.71147054;stroke-linecap:butt;stroke-linejoin:round;stroke-miterlimit:4;stroke-dasharray:none;stroke-opacity:1"
                 d="M 827.77778,501.26984 C 839.22868,493.29581 853.78083,500.65532 850.18431,479.79313 L 848.42334,478.19632 C 830.9145,473.28836 834.92989,489.01618 827.77778,501.26984 L 827.77778,501.26984 z"
                 id="path3606"
                 sodipodi:nodetypes="cccc" />
            </g>
            <g
               transform="matrix(2.0785706,0.2829119,0.1728519,-1.7524524,-2936.9783,776.16734)"
               style="fill:#008f4c;fill-opacity:1;stroke:#000000;stroke-width:0.71147054;stroke-miterlimit:4;stroke-dasharray:none;stroke-opacity:1;display:inline"
               id="g3608">
              <path
                 style="fill:#008f4c;fill-opacity:1;fill-rule:evenodd;stroke:#000000;stroke-width:0.71147054;stroke-linecap:butt;stroke-linejoin:round;stroke-miterlimit:4;stroke-dasharray:none;stroke-opacity:1"
                 d="M 827.77778,501.26984 C 839.22868,493.29581 853.78083,500.65532 850.18431,479.79313 L 848.42334,478.19632 C 830.9145,473.28836 834.92989,489.01618 827.77778,501.26984 L 827.77778,501.26984 z"
                 id="path3610"
                 sodipodi:nodetypes="cccc" />
            </g>
            <g
               transform="matrix(0.7852663,1.9452125,-1.6561639,0.598405,-895.33887,-1761.0092)"
               style="fill:#008f4c;fill-opacity:1;stroke:#000000;stroke-width:0.71147054;stroke-miterlimit:4;stroke-dasharray:none;stroke-opacity:1;display:inline"
               id="g3612">
              <path
                 style="fill:#008f4c;fill-opacity:1;fill-rule:evenodd;stroke:#000000;stroke-width:0.71147054;stroke-linecap:butt;stroke-linejoin:round;stroke-miterlimit:4;stroke-dasharray:none;stroke-opacity:1"
                 d="M 827.77778,501.26984 C 839.22868,493.29581 853.78083,500.65532 850.18431,479.79313 L 848.42334,478.19632 C 830.9145,473.28836 834.92989,489.01618 827.77778,501.26984 L 827.77778,501.26984 z"
                 id="path3614"
                 sodipodi:nodetypes="cccc" />
            </g>
            <g
               transform="matrix(2.0207645,-0.5630325,0.4096333,1.7126494,-3007.5003,-117.71127)"
               style="fill:#008f4c;fill-opacity:1;stroke:#000000;stroke-width:0.71147054;stroke-miterlimit:4;stroke-dasharray:none;stroke-opacity:1;display:inline"
               id="g3616">
              <path
                 style="fill:#008f4c;fill-opacity:1;fill-rule:evenodd;stroke:#000000;stroke-width:0.71147054;stroke-linecap:butt;stroke-linejoin:round;stroke-miterlimit:4;stroke-dasharray:none;stroke-opacity:1"
                 d="M 827.77778,501.26984 C 839.22868,493.29581 853.78083,500.65532 850.18431,479.79313 L 848.42334,478.19632 C 830.9145,473.28836 834.92989,489.01618 827.77778,501.26984 L 827.77778,501.26984 z"
                 id="path3618"
                 sodipodi:nodetypes="cccc" />
            </g>
            <g
               transform="matrix(1.0311456,-1.8268097,-1.5644651,-0.8083417,-1156.8013,2159.9479)"
               style="fill:#008f4c;fill-opacity:1;stroke:#000000;stroke-width:0.71147054;stroke-miterlimit:4;stroke-dasharray:none;stroke-opacity:1;display:inline"
               id="g3620">
              <path
                 style="fill:#008f4c;fill-opacity:1;fill-rule:evenodd;stroke:#000000;stroke-width:0.64743125;stroke-linecap:butt;stroke-linejoin:round;stroke-miterlimit:4;stroke-dasharray:none;stroke-opacity:1"
                 d="M 830.06028,502.37488 C 840.50707,493.89089 852.85363,499.74215 850.81413,480.18911 L 849.35759,478.80954 C 834.29274,475.52221 836.97171,490.16034 830.06028,502.37488 L 830.06028,502.37488 z"
                 id="path3622"
                 sodipodi:nodetypes="cccc" />
            </g>
            <g
               transform="matrix(1.9326906,0.8155991,-0.7441445,1.5960001,-2248.5016,-1209.7001)"
               style="fill:#008f4c;fill-opacity:1;stroke:#000000;stroke-width:0.71147054;stroke-miterlimit:4;stroke-dasharray:none;stroke-opacity:1;display:inline"
               id="g3624">
              <path
                 style="fill:#008f4c;fill-opacity:1;fill-rule:evenodd;stroke:#000000;stroke-width:0.71147054;stroke-linecap:butt;stroke-linejoin:round;stroke-miterlimit:4;stroke-dasharray:none;stroke-opacity:1"
                 d="M 827.77778,501.26984 C 839.22868,493.29581 853.78083,500.65532 850.18431,479.79313 L 848.42334,478.19632 C 830.9145,473.28836 834.92989,489.01618 827.77778,501.26984 L 827.77778,501.26984 z"
                 id="path3626"
                 sodipodi:nodetypes="cccc" />
            </g>
            <g
               transform="matrix(0.1664807,2.0911191,-1.7593674,7.47905e-2,-272.09172,-1613.6417)"
               style="fill:#008f4c;fill-opacity:1;stroke:#000000;stroke-width:0.71147054;stroke-miterlimit:4;stroke-dasharray:none;stroke-opacity:1;display:inline"
               id="g3628">
              <path
                 style="fill:#008f4c;fill-opacity:1;fill-rule:evenodd;stroke:#000000;stroke-width:0.71147054;stroke-linecap:butt;stroke-linejoin:round;stroke-miterlimit:4;stroke-dasharray:none;stroke-opacity:1"
                 d="M 827.77778,501.26984 C 839.22868,493.29581 853.78083,500.65532 850.18431,479.79313 L 848.42334,478.19632 C 830.9145,473.28836 834.92989,489.01618 827.77778,501.26984 L 827.77778,501.26984 z"
                 id="path3630"
                 sodipodi:nodetypes="cccc" />
            </g>
            <g
               transform="matrix(0.5896399,-2.0131616,-1.7070968,-0.4321896,-691.20612,2151.1548)"
               style="fill:#008f4c;fill-opacity:1;stroke:#000000;stroke-width:0.71147054;stroke-miterlimit:4;stroke-dasharray:none;stroke-opacity:1;display:inline"
               id="g3632">
              <path
                 style="fill:#008f4c;fill-opacity:1;fill-rule:evenodd;stroke:#000000;stroke-width:0.65894288;stroke-linecap:butt;stroke-linejoin:round;stroke-miterlimit:4;stroke-dasharray:none;stroke-opacity:1"
                 d="M 822.45854,503.98715 C 833.27948,497.09824 847.29375,504.05545 843.54421,485.23186 L 841.83772,483.75565 C 825.03532,478.92986 829.10797,493.15188 822.45854,503.98715 z"
                 id="path3634"
                 sodipodi:nodetypes="cccc" />
            </g>
          </g>
          <path
             sodipodi:nodetypes="cccccccccccccccccccccccccccccccccccccccccccccccccccccc"
             id="path3636"
             d="M -904.03664,273.61469 C -909.17394,276.65037 -941.34671,260.53229 -949.98671,255.86201 C -958.62681,251.19173 -958.62681,251.11847 -970.53601,252.28604 C -982.44521,253.45361 -998.09061,262.63391 -997.62361,260.53229 C -997.15661,258.43067 -979.87651,250.49119 -968.66791,246.52145 C -957.45921,242.55171 -948.35211,248.85658 -952.78891,244.65333 C -957.22571,240.45008 -971.23651,230.87601 -986.41491,229.70844 C -1001.5933,228.54087 -1002.0604,233.44466 -1013.5026,239.98305 C -1024.9447,246.52144 -1023.5437,250.7247 -1032.1837,255.86201 C -1040.8237,260.99932 -1047.3621,262.4004 -1048.0626,260.53229 C -1035.8073,254.12014 -1028.8797,249.76341 -1023.2769,241.14374 C -1016.038,235.07237 -1005.096,227.84032 -1006.0301,224.1041 C -1006.9642,220.36788 -1018.3663,216.40502 -1030.9761,218.27313 C -1043.5858,220.14124 -1045.3405,223.91753 -1055.1481,226.95321 C -1064.9557,229.98889 -1069.5459,236.48035 -1069.5459,234.37872 C -1069.5459,232.27709 -1065.8097,228.77438 -1056.4691,223.17004 C -1047.1286,217.5657 -1033.5848,215.93111 -1032.1837,211.96137 C -1030.7826,207.99163 -1040.1231,208.45866 -1050.8648,207.29109 C -1061.6064,206.12352 -1065.3427,204.48892 -1075.1503,207.29109 C -1084.9578,210.09326 -1084.4908,210.32677 -1090.0952,218.49976 C -1095.6995,226.67275 -1092.8973,231.57655 -1097.5676,239.98305 C -1100.8771,247.3376 -1109.688,258.42009 -1118.4374,252.28604 C -1108.5121,247.17576 -1103.0381,246.75343 -1101.0772,236.31321 C -1097.5744,229.07428 -1098.9687,217.79922 -1099.4357,213.82948 C -1099.9027,209.85974 -1099.9027,211.96137 -1106.9082,213.82948 C -1113.9136,215.69759 -1115.0812,220.60139 -1127.4574,221.30193 C -1139.8337,222.00247 -1155.2456,218.26625 -1156.4131,216.63165 C -1157.5807,214.99705 -1135.1771,219.54714 -1124.202,216.74497 C -1113.2268,213.9428 -1119.7514,208.69217 -1112.5125,205.42297 C -1105.2736,202.15377 -1100.6033,204.2554 -1103.1719,201.68675 C -1105.7406,199.1181 -1114.6141,198.18404 -1122.7871,195.14836 C -1130.9601,192.11268 -1128.625,195.14836 -1135.8639,189.54402 C -1143.1028,183.93968 -1157.5807,172.96453 -1151.7429,172.73101 C -1145.905,172.49749 -1135.77,185.92111 -1121.7592,190.59139 C -1107.7484,195.26167 -1105.0401,191.64564 -1095.6995,191.41213 C -1086.3589,191.17862 -1074.9167,192.57971 -1075.1503,187.67591 C -1075.3838,182.77212 -1086.5924,177.83806 -1096.6336,167.79695 C -1106.6747,157.75585 -1118.5839,147.745 -1115.3147,147.51149 C -1112.0455,147.27798 -1103.1719,159.88774 -1083.5568,170.8629 C -1063.9416,181.83806 -1055.3348,184.25333 -1040.1564,190.09118 C -1024.9779,195.92903 -1023.0766,198.41755 -1022.8431,194.2143 C -1022.6096,190.01105 -1026.8128,183.93968 -1035.9199,174.59912 C -1045.0269,165.25856 -1060.9059,157.55259 -1059.2713,156.85205 C -1057.6367,156.15151 -1041.9913,162.45639 -1029.3815,171.79695 C -1016.7717,181.13751 -1019.3404,185.10725 -1008.8323,194.2143 C -998.32411,203.32135 -995.98901,203.78837 -987.34901,208.22514 C -978.70901,212.66191 -975.90681,213.59597 -974.27221,211.96137 C -972.63761,210.32677 -970.93664,206.05026 -974.20581,199.04484 C -977.47501,192.03942 -982.44518,190.9451 -987.34898,183.93968 C -992.25278,176.93426 -1002.7609,172.96453 -1000.4258,173.66507 C -998.09058,174.36561 -988.04948,177.40129 -978.00838,186.74185 C -967.96728,196.08241 -970.53598,200.51918 -960.26128,211.02731 C -949.98668,221.53544 -944.61588,220.60139 -936.90988,228.77438 C -929.20398,236.94737 -915.01945,234.65501 -897.78729,238.08693"
             style="fill:#803300;fill-opacity:1;fill-rule:evenodd;stroke:#000000;stroke-width:1.36696768;stroke-linecap:butt;stroke-linejoin:miter;stroke-opacity:1;display:inline" />
        </g>
      </g>
    </g>
  </g>
</svg>
