<?xml version="1.0" encoding="UTF-8" standalone="no"?>
<svg
   xmlns:dc="http://purl.org/dc/elements/1.1/"
   xmlns:cc="http://creativecommons.org/ns#"
   xmlns:rdf="http://www.w3.org/1999/02/22-rdf-syntax-ns#"
   xmlns:svg="http://www.w3.org/2000/svg"
   xmlns="http://www.w3.org/2000/svg"
   xmlns:sodipodi="http://sodipodi.sourceforge.net/DTD/sodipodi-0.dtd"
   xmlns:inkscape="http://www.inkscape.org/namespaces/inkscape"
   width="750"
   height="500"
   id="svg2"
   sodipodi:version="0.32"
   inkscape:version="0.46"
   sodipodi:docname="Flag_of_Palocabildo_(Tolima).svg"
   inkscape:output_extension="org.inkscape.output.svg.inkscape">
  <metadata
     id="metadata13">
    <rdf:RDF>
      <cc:Work
         rdf:about="">
        <dc:format>image/svg+xml</dc:format>
        <dc:type
           rdf:resource="http://purl.org/dc/dcmitype/StillImage" />
      </cc:Work>
    </rdf:RDF>
  </metadata>
  <defs
     id="defs11" />
  <sodipodi:namedview
     inkscape:window-height="712"
     inkscape:window-width="1024"
     inkscape:pageshadow="2"
     inkscape:pageopacity="0.0"
     guidetolerance="10.0"
     gridtolerance="10.0"
     objecttolerance="10.0"
     borderopacity="1.0"
     bordercolor="#666666"
     pagecolor="#ffffff"
     id="base"
     showgrid="false"
     inkscape:zoom="1.014"
     inkscape:cx="375"
     inkscape:cy="250"
     inkscape:window-x="-4"
     inkscape:window-y="-4"
     inkscape:current-layer="svg2" />
  <rect
     width="750"
     height="250.3053"
     id="rect4"
     x="0"
     y="-501.53052"
     style="fill:#ffffff"
     transform="scale(1,-1)" />
  <rect
     width="750"
     height="250.76526"
     y="-250.76526"
     id="rect6"
     style="fill:#078930;fill-opacity:1"
     x="0"
     transform="scale(1,-1)" />
  <path
     id="path3164"
     style="fill:#fcdd09;fill-opacity:1;fill-rule:evenodd;stroke:#000000;stroke-width:1px;stroke-linecap:butt;stroke-linejoin:miter;stroke-opacity:1"
     d="M 374.84414,250.53784 L 308.84107,250.53784 C 306.22478,249.69131 302.58537,246.71449 306.15375,235.89065 C 314.96216,215.3427 346.2239,201.38072 374.84414,200.454 C 403.46439,201.38072 434.72613,215.3427 443.53454,235.89065 C 447.10292,246.71449 443.46351,249.69131 440.84722,250.53784 L 374.84414,250.53784 z"
     sodipodi:nodetypes="ccccccc" />
  <path
     sodipodi:nodetypes="ccccccc"
     d="M 374.84414,250.454 L 308.84107,250.454 C 306.22478,251.30053 302.58537,254.27735 306.15375,265.10119 C 314.96216,285.64914 346.2239,299.61112 374.84414,300.53784 C 403.46439,299.61112 434.72613,285.64914 443.53454,265.10119 C 447.10292,254.27735 443.46351,251.30053 440.84722,250.454 L 374.84414,250.454 z"
     style="fill:#fcdd09;fill-opacity:1;fill-rule:evenodd;stroke:#000000;stroke-width:1px;stroke-linecap:butt;stroke-linejoin:miter;stroke-opacity:1"
     id="path3169" />
</svg>
