<?xml version="1.0" encoding="UTF-8" standalone="no"?>
<!-- Created with Inkscape (http://www.inkscape.org/) -->
<svg
   xmlns:dc="http://purl.org/dc/elements/1.1/"
   xmlns:cc="http://creativecommons.org/ns#"
   xmlns:rdf="http://www.w3.org/1999/02/22-rdf-syntax-ns#"
   xmlns:svg="http://www.w3.org/2000/svg"
   xmlns="http://www.w3.org/2000/svg"
   xmlns:sodipodi="http://sodipodi.sourceforge.net/DTD/sodipodi-0.dtd"
   xmlns:inkscape="http://www.inkscape.org/namespaces/inkscape"
   width="750"
   height="500"
   id="svg2822"
   version="1.1"
   inkscape:version="0.46"
   sodipodi:docname="Flag_of_Pamplonita_(Norte_de_Santander).svg"
   sodipodi:version="0.32"
   inkscape:output_extension="org.inkscape.output.svg.inkscape">
  <defs
     id="defs2824" />
  <sodipodi:namedview
     id="base"
     pagecolor="#ffffff"
     bordercolor="#666666"
     borderopacity="1.0"
     inkscape:pageopacity="0.0"
     inkscape:pageshadow="2"
     inkscape:zoom="1.082"
     inkscape:cx="375"
     inkscape:cy="250"
     inkscape:document-units="px"
     inkscape:current-layer="layer1"
     showgrid="false"
     inkscape:window-width="1024"
     inkscape:window-height="712"
     inkscape:window-x="-4"
     inkscape:window-y="-4"
     inkscape:window-maximized="1" />
  <metadata
     id="metadata2827">
    <rdf:RDF>
      <cc:Work
         rdf:about="">
        <dc:format>image/svg+xml</dc:format>
        <dc:type
           rdf:resource="http://purl.org/dc/dcmitype/StillImage" />
        <dc:title />
      </cc:Work>
    </rdf:RDF>
  </metadata>
  <g
     inkscape:label="Capa 1"
     inkscape:groupmode="layer"
     id="layer1"
     transform="translate(0,-552.36218)">
    <rect
       style="fill:#eb7711;fill-opacity:1;stroke:none"
       id="rect6506"
       width="750"
       height="290"
       x="0"
       y="552.36218" />
    <g
       style="fill:#fcdd09;fill-opacity:1;fill-rule:evenodd;stroke:none"
       id="g2397"
       transform="matrix(5.0544704,0,0,5.0544704,-396.42425,262.91536)">
      <g
         transform="matrix(1.6269536,0,0,1.6274808,-36.181774,-75.245334)"
         id="g5957"
         sodipodi:insensitive="true"
         inkscape:label="Borde 3px"
         style="fill:#fcdd09;fill-opacity:1;stroke:none">
  </g>
      <g
         transform="matrix(1.6269536,0,0,1.6274808,-36.181774,-75.245334)"
         id="g5695"
         inkscape:label="Escudo"
         style="fill:#fcdd09;fill-opacity:1;stroke:none">
  </g>
      <g
         style="fill:#fcdd09;fill-opacity:1;stroke:none;stroke-width:0.73889488;stroke-miterlimit:4;stroke-dasharray:none;stroke-opacity:1"
         transform="matrix(0.3963176,0,0,0.3963351,112.99679,33.727377)"
         id="g1879">
        <g
           transform="matrix(0.603708,0,0,0.603667,-31.07409,112.5793)"
           style="fill:#fcdd09;fill-opacity:1;stroke:none;stroke-width:1.2239691;stroke-linecap:butt;stroke-linejoin:miter;stroke-miterlimit:4;stroke-dasharray:none;stroke-opacity:1"
           id="Equilateral_triangle" />
        <path
           sodipodi:nodetypes="ccccccccccccccccccccccccccccccccccsssc"
           d="M 99.999993,104.05001 L 90.392653,154.27557 L 61.737675,111.66906 L 72.080211,161.72754 L 29.289896,133.33991 L 58.011692,175.64567 L 7.619045,165.78768 L 50.325811,193.87456 L -1.5459856e-13,204.05002 L 50.225561,213.65737 L 7.619045,242.31235 L 57.677519,231.96983 L 29.289896,274.76008 L 71.595651,246.03833 L 61.737675,296.43092 L 89.841283,253.7075 L 99.999993,304.04999 L 109.62406,253.82445 L 138.26232,296.43092 L 127.93652,246.35578 L 170.71011,274.76008 L 142.00502,232.43765 L 192.38096,242.31235 L 149.69089,214.20874 L 200,204.05002 L 149.77443,194.42595 L 192.38096,165.78768 L 142.30575,176.11348 L 170.71011,133.33991 L 128.38764,162.045 L 138.26232,111.66906 L 110.17545,154.35912 L 99.999993,104.05001 z M 149.99998,204.04999 C 149.99998,231.64999 127.59998,254.04999 99.999983,254.04999 C 72.39997,254.04999 49.999967,231.64999 49.999967,204.04999 C 49.999967,176.44998 72.39997,154.04997 99.999983,154.04997 C 127.59998,154.04997 149.99998,176.44998 149.99998,204.04999 z"
           style="fill:#fcdd09;fill-opacity:1;fill-rule:evenodd;stroke:none;stroke-width:0.73889488;stroke-linecap:butt;stroke-linejoin:miter;marker:none;marker-start:none;marker-mid:none;marker-end:none;stroke-miterlimit:4;stroke-dasharray:none;stroke-dashoffset:0;stroke-opacity:1;visibility:visible;display:inline;overflow:visible"
           id="Stralkransen-av-en-sol" />
      </g>
      <path
         sodipodi:nodetypes="csssc"
         d="M 169.86024,114.67133 C 169.86024,124.15524 162.16349,131.85233 152.67999,131.85233 C 143.1965,131.85233 135.49974,124.15524 135.49974,114.67133 C 135.49974,105.18741 143.1965,97.4903 152.67999,97.4903 C 162.16349,97.4903 169.86024,105.18741 169.86024,114.67133 z"
         style="fill:#fcdd09;fill-opacity:1;fill-rule:evenodd;stroke:none;stroke-width:0.25389361;stroke-linecap:butt;stroke-linejoin:miter;marker:none;marker-start:none;marker-mid:none;marker-end:none;stroke-miterlimit:4;stroke-dasharray:none;stroke-dashoffset:0;stroke-opacity:1;visibility:visible;display:inline;overflow:visible"
         id="path3618" />
    </g>
    <rect
       style="fill:#ffffff;fill-opacity:1;stroke:none"
       id="rect6508"
       width="750"
       height="75"
       x="0"
       y="842.36218" />
    <rect
       style="fill:#078930;fill-opacity:1;stroke:none"
       id="rect6508-4"
       width="750"
       height="135"
       x="0"
       y="917.36304" />
    <rect
       style="fill:#0f47af;fill-opacity:1;stroke:none"
       id="rect6528"
       width="750"
       height="40"
       x="0"
       y="859.86218" />
  </g>
</svg>
