<?xml version="1.0" encoding="UTF-8" standalone="no"?>
<svg
   xmlns:dc="http://purl.org/dc/elements/1.1/"
   xmlns:cc="http://creativecommons.org/ns#"
   xmlns:rdf="http://www.w3.org/1999/02/22-rdf-syntax-ns#"
   xmlns:svg="http://www.w3.org/2000/svg"
   xmlns="http://www.w3.org/2000/svg"
   xmlns:sodipodi="http://sodipodi.sourceforge.net/DTD/sodipodi-0.dtd"
   xmlns:inkscape="http://www.inkscape.org/namespaces/inkscape"
   width="860"
   height="500"
   version="1.0"
   id="svg2"
   sodipodi:version="0.32"
   inkscape:version="0.46"
   sodipodi:docname="Flag_of_Panqueba_(Boyacá).svg"
   inkscape:output_extension="org.inkscape.output.svg.inkscape">
  <metadata
     id="metadata11">
    <rdf:RDF>
      <cc:Work
         rdf:about="">
        <dc:format>image/svg+xml</dc:format>
        <dc:type
           rdf:resource="http://purl.org/dc/dcmitype/StillImage" />
      </cc:Work>
    </rdf:RDF>
  </metadata>
  <defs
     id="defs9" />
  <sodipodi:namedview
     inkscape:window-height="480"
     inkscape:window-width="640"
     inkscape:pageshadow="2"
     inkscape:pageopacity="0.0"
     guidetolerance="10.0"
     gridtolerance="10.0"
     objecttolerance="10.0"
     borderopacity="1.0"
     bordercolor="#666666"
     pagecolor="#ffffff"
     id="base"
     showgrid="false" />
  <rect
     width="860.50293"
     height="498.02762"
     id="rect4"
     x="0"
     y="-500"
     transform="scale(1,-1)"
     style="fill:#078930;fill-opacity:1" />
  <rect
     width="860.50293"
     height="250"
     y="-250"
     id="rect6"
     x="0"
     transform="scale(1,-1)"
     style="fill:#ffffff" />
  <g
     inkscape:label="Capa 1"
     id="g2417"
     transform="matrix(0.2048,0,0,0.2048,85.784983,223.24946)"
     style="fill:#ffffff;fill-opacity:1">
    <g
       id="g2419"
       transform="matrix(1.3628104,0,0,1.3705501,-99.892844,350.66838)"
       style="fill:#ffffff;fill-opacity:1;fill-rule:nonzero;stroke-width:10;stroke-miterlimit:4;stroke-dasharray:none">
      <g
         id="g2421"
         style="fill:#ffffff;fill-opacity:1;fill-rule:nonzero;stroke-width:10;stroke-miterlimit:4;stroke-dasharray:none" />
      <path
         transform="matrix(1.8227719,0,0,1.7985334,-290.5721,-251.66439)"
         d="M 393.90277,380.36219 L 348.04197,346.6625 L 302.26817,380.48639 L 320.14671,326.4564 L 273.8334,293.37508 L 330.74375,293.6824 L 347.89435,239.41313 L 365.18834,293.63306 L 422.1013,293.17412 L 375.87923,326.37656 L 393.90277,380.36219 z"
         inkscape:randomized="0"
         inkscape:rounded="0"
         inkscape:flatsided="false"
         sodipodi:arg2="1.5693638"
         sodipodi:arg1="0.94112242"
         sodipodi:r2="29.300346"
         sodipodi:r1="77.94912"
         sodipodi:cy="317.36218"
         sodipodi:cx="348"
         sodipodi:sides="5"
         id="path2423"
         style="opacity:0.98999999;fill:#ffffff;fill-opacity:1;fill-rule:nonzero;stroke-width:5.52299404;stroke-miterlimit:4;stroke-dasharray:none"
         sodipodi:type="star" />
      <text
         id="text2425"
         y="317.36478"
         x="337.33682"
         style="font-size:40px;font-style:normal;font-weight:normal;fill:#ffffff;fill-opacity:1;fill-rule:nonzero;stroke:none;font-family:Bitstream Vera Sans"
         xml:space="preserve"><tspan
           id="tspan2427"
           sodipodi:role="line"
           x="337.33682"
           y="317.36478" /></text>
    </g>
  </g>
  <g
     style="fill:#ffffff;fill-opacity:1"
     transform="matrix(0.2048,0,0,0.2048,-4.215017,223.24946)"
     id="g2448"
     inkscape:label="Capa 1">
    <g
       style="fill:#ffffff;fill-opacity:1;fill-rule:nonzero;stroke-width:10;stroke-miterlimit:4;stroke-dasharray:none"
       transform="matrix(1.3628104,0,0,1.3705501,-99.892844,350.66838)"
       id="g2450">
      <g
         style="fill:#ffffff;fill-opacity:1;fill-rule:nonzero;stroke-width:10;stroke-miterlimit:4;stroke-dasharray:none"
         id="g2452" />
      <path
         sodipodi:type="star"
         style="opacity:0.98999999;fill:#ffffff;fill-opacity:1;fill-rule:nonzero;stroke-width:5.52299404;stroke-miterlimit:4;stroke-dasharray:none"
         id="path2454"
         sodipodi:sides="5"
         sodipodi:cx="348"
         sodipodi:cy="317.36218"
         sodipodi:r1="77.94912"
         sodipodi:r2="29.300346"
         sodipodi:arg1="0.94112242"
         sodipodi:arg2="1.5693638"
         inkscape:flatsided="false"
         inkscape:rounded="0"
         inkscape:randomized="0"
         d="M 393.90277,380.36219 L 348.04197,346.6625 L 302.26817,380.48639 L 320.14671,326.4564 L 273.8334,293.37508 L 330.74375,293.6824 L 347.89435,239.41313 L 365.18834,293.63306 L 422.1013,293.17412 L 375.87923,326.37656 L 393.90277,380.36219 z"
         transform="matrix(1.8227719,0,0,1.7985334,-290.5721,-251.66439)" />
      <text
         xml:space="preserve"
         style="font-size:40px;font-style:normal;font-weight:normal;fill:#ffffff;fill-opacity:1;fill-rule:nonzero;stroke:none;font-family:Bitstream Vera Sans"
         x="337.33682"
         y="317.36478"
         id="text2456"><tspan
           y="317.36478"
           x="337.33682"
           sodipodi:role="line"
           id="tspan2458" /></text>
    </g>
  </g>
  <g
     style="fill:#ffffff;fill-opacity:1"
     transform="matrix(0.2048,0,0,0.2048,175.78498,223.24946)"
     id="g2460"
     inkscape:label="Capa 1">
    <g
       style="fill:#ffffff;fill-opacity:1;fill-rule:nonzero;stroke-width:10;stroke-miterlimit:4;stroke-dasharray:none"
       transform="matrix(1.3628104,0,0,1.3705501,-99.892844,350.66838)"
       id="g2462">
      <g
         style="fill:#ffffff;fill-opacity:1;fill-rule:nonzero;stroke-width:10;stroke-miterlimit:4;stroke-dasharray:none"
         id="g2464" />
      <path
         sodipodi:type="star"
         style="opacity:0.98999999;fill:#ffffff;fill-opacity:1;fill-rule:nonzero;stroke-width:5.52299404;stroke-miterlimit:4;stroke-dasharray:none"
         id="path2466"
         sodipodi:sides="5"
         sodipodi:cx="348"
         sodipodi:cy="317.36218"
         sodipodi:r1="77.94912"
         sodipodi:r2="29.300346"
         sodipodi:arg1="0.94112242"
         sodipodi:arg2="1.5693638"
         inkscape:flatsided="false"
         inkscape:rounded="0"
         inkscape:randomized="0"
         d="M 393.90277,380.36219 L 348.04197,346.6625 L 302.26817,380.48639 L 320.14671,326.4564 L 273.8334,293.37508 L 330.74375,293.6824 L 347.89435,239.41313 L 365.18834,293.63306 L 422.1013,293.17412 L 375.87923,326.37656 L 393.90277,380.36219 z"
         transform="matrix(1.8227719,0,0,1.7985334,-290.5721,-251.66439)" />
      <text
         xml:space="preserve"
         style="font-size:40px;font-style:normal;font-weight:normal;fill:#ffffff;fill-opacity:1;fill-rule:nonzero;stroke:none;font-family:Bitstream Vera Sans"
         x="337.33682"
         y="317.36478"
         id="text2468"><tspan
           y="317.36478"
           x="337.33682"
           sodipodi:role="line"
           id="tspan2470" /></text>
    </g>
  </g>
  <g
     style="fill:#ffffff;fill-opacity:1"
     transform="matrix(0.2048,0,0,0.2048,265.78498,223.24946)"
     id="g2484"
     inkscape:label="Capa 1">
    <g
       style="fill:#ffffff;fill-opacity:1;fill-rule:nonzero;stroke-width:10;stroke-miterlimit:4;stroke-dasharray:none"
       transform="matrix(1.3628104,0,0,1.3705501,-99.892844,350.66838)"
       id="g2486">
      <g
         style="fill:#ffffff;fill-opacity:1;fill-rule:nonzero;stroke-width:10;stroke-miterlimit:4;stroke-dasharray:none"
         id="g2488" />
      <path
         sodipodi:type="star"
         style="opacity:0.98999999;fill:#ffffff;fill-opacity:1;fill-rule:nonzero;stroke-width:5.52299404;stroke-miterlimit:4;stroke-dasharray:none"
         id="path2490"
         sodipodi:sides="5"
         sodipodi:cx="348"
         sodipodi:cy="317.36218"
         sodipodi:r1="77.94912"
         sodipodi:r2="29.300346"
         sodipodi:arg1="0.94112242"
         sodipodi:arg2="1.5693638"
         inkscape:flatsided="false"
         inkscape:rounded="0"
         inkscape:randomized="0"
         d="M 393.90277,380.36219 L 348.04197,346.6625 L 302.26817,380.48639 L 320.14671,326.4564 L 273.8334,293.37508 L 330.74375,293.6824 L 347.89435,239.41313 L 365.18834,293.63306 L 422.1013,293.17412 L 375.87923,326.37656 L 393.90277,380.36219 z"
         transform="matrix(1.8227719,0,0,1.7985334,-290.5721,-251.66439)" />
      <text
         xml:space="preserve"
         style="font-size:40px;font-style:normal;font-weight:normal;fill:#ffffff;fill-opacity:1;fill-rule:nonzero;stroke:none;font-family:Bitstream Vera Sans"
         x="337.33682"
         y="317.36478"
         id="text2492"><tspan
           y="317.36478"
           x="337.33682"
           sodipodi:role="line"
           id="tspan2494" /></text>
    </g>
  </g>
  <g
     inkscape:label="Capa 1"
     id="g2508"
     transform="matrix(0.2048,0,0,0.2048,355.78498,223.24946)"
     style="fill:#ffffff;fill-opacity:1">
    <g
       id="g2510"
       transform="matrix(1.3628104,0,0,1.3705501,-99.892844,350.66838)"
       style="fill:#ffffff;fill-opacity:1;fill-rule:nonzero;stroke-width:10;stroke-miterlimit:4;stroke-dasharray:none">
      <g
         id="g2512"
         style="fill:#ffffff;fill-opacity:1;fill-rule:nonzero;stroke-width:10;stroke-miterlimit:4;stroke-dasharray:none" />
      <path
         transform="matrix(1.8227719,0,0,1.7985334,-290.5721,-251.66439)"
         d="M 393.90277,380.36219 L 348.04197,346.6625 L 302.26817,380.48639 L 320.14671,326.4564 L 273.8334,293.37508 L 330.74375,293.6824 L 347.89435,239.41313 L 365.18834,293.63306 L 422.1013,293.17412 L 375.87923,326.37656 L 393.90277,380.36219 z"
         inkscape:randomized="0"
         inkscape:rounded="0"
         inkscape:flatsided="false"
         sodipodi:arg2="1.5693638"
         sodipodi:arg1="0.94112242"
         sodipodi:r2="29.300346"
         sodipodi:r1="77.94912"
         sodipodi:cy="317.36218"
         sodipodi:cx="348"
         sodipodi:sides="5"
         id="path2514"
         style="opacity:0.98999999;fill:#ffffff;fill-opacity:1;fill-rule:nonzero;stroke-width:5.52299404;stroke-miterlimit:4;stroke-dasharray:none"
         sodipodi:type="star" />
      <text
         id="text2516"
         y="317.36478"
         x="337.33682"
         style="font-size:40px;font-style:normal;font-weight:normal;fill:#ffffff;fill-opacity:1;fill-rule:nonzero;stroke:none;font-family:Bitstream Vera Sans"
         xml:space="preserve"><tspan
           id="tspan2518"
           sodipodi:role="line"
           x="337.33682"
           y="317.36478" /></text>
    </g>
  </g>
  <g
     style="fill:#ffffff;fill-opacity:1"
     transform="matrix(0.2048,0,0,0.2048,445.78498,223.24946)"
     id="g2520"
     inkscape:label="Capa 1">
    <g
       style="fill:#ffffff;fill-opacity:1;fill-rule:nonzero;stroke-width:10;stroke-miterlimit:4;stroke-dasharray:none"
       transform="matrix(1.3628104,0,0,1.3705501,-99.892844,350.66838)"
       id="g2522">
      <g
         style="fill:#ffffff;fill-opacity:1;fill-rule:nonzero;stroke-width:10;stroke-miterlimit:4;stroke-dasharray:none"
         id="g2524" />
      <path
         sodipodi:type="star"
         style="opacity:0.98999999;fill:#ffffff;fill-opacity:1;fill-rule:nonzero;stroke-width:5.52299404;stroke-miterlimit:4;stroke-dasharray:none"
         id="path2526"
         sodipodi:sides="5"
         sodipodi:cx="348"
         sodipodi:cy="317.36218"
         sodipodi:r1="77.94912"
         sodipodi:r2="29.300346"
         sodipodi:arg1="0.94112242"
         sodipodi:arg2="1.5693638"
         inkscape:flatsided="false"
         inkscape:rounded="0"
         inkscape:randomized="0"
         d="M 393.90277,380.36219 L 348.04197,346.6625 L 302.26817,380.48639 L 320.14671,326.4564 L 273.8334,293.37508 L 330.74375,293.6824 L 347.89435,239.41313 L 365.18834,293.63306 L 422.1013,293.17412 L 375.87923,326.37656 L 393.90277,380.36219 z"
         transform="matrix(1.8227719,0,0,1.7985334,-290.5721,-251.66439)" />
      <text
         xml:space="preserve"
         style="font-size:40px;font-style:normal;font-weight:normal;fill:#ffffff;fill-opacity:1;fill-rule:nonzero;stroke:none;font-family:Bitstream Vera Sans"
         x="337.33682"
         y="317.36478"
         id="text2528"><tspan
           y="317.36478"
           x="337.33682"
           sodipodi:role="line"
           id="tspan2530" /></text>
    </g>
  </g>
  <g
     inkscape:label="Capa 1"
     id="g2544"
     transform="matrix(0.2048,0,0,0.2048,535.78498,223.24946)"
     style="fill:#ffffff;fill-opacity:1">
    <g
       id="g2546"
       transform="matrix(1.3628104,0,0,1.3705501,-99.892844,350.66838)"
       style="fill:#ffffff;fill-opacity:1;fill-rule:nonzero;stroke-width:10;stroke-miterlimit:4;stroke-dasharray:none">
      <g
         id="g2548"
         style="fill:#ffffff;fill-opacity:1;fill-rule:nonzero;stroke-width:10;stroke-miterlimit:4;stroke-dasharray:none" />
      <path
         transform="matrix(1.8227719,0,0,1.7985334,-290.5721,-251.66439)"
         d="M 393.90277,380.36219 L 348.04197,346.6625 L 302.26817,380.48639 L 320.14671,326.4564 L 273.8334,293.37508 L 330.74375,293.6824 L 347.89435,239.41313 L 365.18834,293.63306 L 422.1013,293.17412 L 375.87923,326.37656 L 393.90277,380.36219 z"
         inkscape:randomized="0"
         inkscape:rounded="0"
         inkscape:flatsided="false"
         sodipodi:arg2="1.5693638"
         sodipodi:arg1="0.94112242"
         sodipodi:r2="29.300346"
         sodipodi:r1="77.94912"
         sodipodi:cy="317.36218"
         sodipodi:cx="348"
         sodipodi:sides="5"
         id="path2550"
         style="opacity:0.98999999;fill:#ffffff;fill-opacity:1;fill-rule:nonzero;stroke-width:5.52299404;stroke-miterlimit:4;stroke-dasharray:none"
         sodipodi:type="star" />
      <text
         id="text2552"
         y="317.36478"
         x="337.33682"
         style="font-size:40px;font-style:normal;font-weight:normal;fill:#ffffff;fill-opacity:1;fill-rule:nonzero;stroke:none;font-family:Bitstream Vera Sans"
         xml:space="preserve"><tspan
           id="tspan2554"
           sodipodi:role="line"
           x="337.33682"
           y="317.36478" /></text>
    </g>
  </g>
  <g
     inkscape:label="Capa 1"
     id="g2556"
     transform="matrix(0.2048,0,0,0.2048,625.78498,223.24946)"
     style="fill:#ffffff;fill-opacity:1">
    <g
       id="g2558"
       transform="matrix(1.3628104,0,0,1.3705501,-99.892844,350.66838)"
       style="fill:#ffffff;fill-opacity:1;fill-rule:nonzero;stroke-width:10;stroke-miterlimit:4;stroke-dasharray:none">
      <g
         id="g2560"
         style="fill:#ffffff;fill-opacity:1;fill-rule:nonzero;stroke-width:10;stroke-miterlimit:4;stroke-dasharray:none" />
      <path
         transform="matrix(1.8227719,0,0,1.7985334,-290.5721,-251.66439)"
         d="M 393.90277,380.36219 L 348.04197,346.6625 L 302.26817,380.48639 L 320.14671,326.4564 L 273.8334,293.37508 L 330.74375,293.6824 L 347.89435,239.41313 L 365.18834,293.63306 L 422.1013,293.17412 L 375.87923,326.37656 L 393.90277,380.36219 z"
         inkscape:randomized="0"
         inkscape:rounded="0"
         inkscape:flatsided="false"
         sodipodi:arg2="1.5693638"
         sodipodi:arg1="0.94112242"
         sodipodi:r2="29.300346"
         sodipodi:r1="77.94912"
         sodipodi:cy="317.36218"
         sodipodi:cx="348"
         sodipodi:sides="5"
         id="path2562"
         style="opacity:0.98999999;fill:#ffffff;fill-opacity:1;fill-rule:nonzero;stroke-width:5.52299404;stroke-miterlimit:4;stroke-dasharray:none"
         sodipodi:type="star" />
      <text
         id="text2564"
         y="317.36478"
         x="337.33682"
         style="font-size:40px;font-style:normal;font-weight:normal;fill:#ffffff;fill-opacity:1;fill-rule:nonzero;stroke:none;font-family:Bitstream Vera Sans"
         xml:space="preserve"><tspan
           id="tspan2566"
           sodipodi:role="line"
           x="337.33682"
           y="317.36478" /></text>
    </g>
  </g>
  <g
     style="fill:#ffffff;fill-opacity:1"
     transform="matrix(0.2048,0,0,0.2048,715.78498,223.24946)"
     id="g2568"
     inkscape:label="Capa 1">
    <g
       style="fill:#ffffff;fill-opacity:1;fill-rule:nonzero;stroke-width:10;stroke-miterlimit:4;stroke-dasharray:none"
       transform="matrix(1.3628104,0,0,1.3705501,-99.892844,350.66838)"
       id="g2570">
      <g
         style="fill:#ffffff;fill-opacity:1;fill-rule:nonzero;stroke-width:10;stroke-miterlimit:4;stroke-dasharray:none"
         id="g2572" />
      <path
         sodipodi:type="star"
         style="opacity:0.98999999;fill:#ffffff;fill-opacity:1;fill-rule:nonzero;stroke-width:5.52299404;stroke-miterlimit:4;stroke-dasharray:none"
         id="path2574"
         sodipodi:sides="5"
         sodipodi:cx="348"
         sodipodi:cy="317.36218"
         sodipodi:r1="77.94912"
         sodipodi:r2="29.300346"
         sodipodi:arg1="0.94112242"
         sodipodi:arg2="1.5693638"
         inkscape:flatsided="false"
         inkscape:rounded="0"
         inkscape:randomized="0"
         d="M 393.90277,380.36219 L 348.04197,346.6625 L 302.26817,380.48639 L 320.14671,326.4564 L 273.8334,293.37508 L 330.74375,293.6824 L 347.89435,239.41313 L 365.18834,293.63306 L 422.1013,293.17412 L 375.87923,326.37656 L 393.90277,380.36219 z"
         transform="matrix(1.8227719,0,0,1.7985334,-290.5721,-251.66439)" />
      <text
         xml:space="preserve"
         style="font-size:40px;font-style:normal;font-weight:normal;fill:#ffffff;fill-opacity:1;fill-rule:nonzero;stroke:none;font-family:Bitstream Vera Sans"
         x="337.33682"
         y="317.36478"
         id="text2576"><tspan
           y="317.36478"
           x="337.33682"
           sodipodi:role="line"
           id="tspan2578" /></text>
    </g>
  </g>
  <path
     transform="scale(1.1442052,0.8739691)"
     style="font-size:100px;font-style:normal;font-variant:normal;font-weight:bold;font-stretch:normal;text-align:start;line-height:125%;writing-mode:lr-tb;text-anchor:start;fill:#078930;fill-opacity:1;stroke:none;stroke-width:1px;stroke-linecap:butt;stroke-linejoin:miter;stroke-opacity:1;font-family:Agency FB;-inkscape-font-specification:Agency FB Bold"
     d="M 94.580814,153.62964 C 94.580773,158.38227 92.253301,160.75857 87.598392,160.75854 L 69.092533,160.75854 L 69.092533,188.44409 L 57.666752,188.44409 L 57.666752,112.02808 L 87.598392,112.02808 C 92.253301,112.02815 94.580773,114.3719 94.580814,119.05933 L 94.580814,153.62964 z M 83.057377,150.94409 L 83.057377,121.84253 L 69.092533,121.84253 L 69.092533,150.94409 L 83.057377,150.94409 z M 182.91089,188.44409 L 171.58277,188.44409 L 169.28785,173.94214 L 154.9812,173.94214 L 152.68628,188.44409 L 141.40699,188.44409 L 141.40699,188.24878 L 156.20191,111.93042 L 168.21363,111.93042 L 182.91089,188.44409 z M 167.67652,164.12769 L 162.11011,129.65503 L 156.49488,164.12769 L 167.67652,164.12769 z M 269.43433,188.44409 L 259.42456,188.44409 L 241.11402,140.34839 C 241.60228,142.69218 241.84642,144.53138 241.84644,145.86597 L 241.84644,188.44409 L 230.71363,188.44409 L 230.71363,112.02808 L 240.72339,112.02808 L 259.03394,159.14722 C 258.54563,156.8035 258.30149,154.96431 258.30152,153.62964 L 258.30152,112.02808 L 269.43433,112.02808 L 269.43433,188.44409 z M 363.67261,188.54175 L 362.89136,188.54175 L 357.76441,184.6355 C 356.85291,187.17456 354.78585,188.44409 351.56324,188.44409 L 326.75855,188.44409 C 322.2338,188.44409 319.97143,186.11662 319.97144,181.46167 L 319.97144,119.05933 C 319.97143,114.3719 322.28263,112.02815 326.90503,112.02808 L 351.56324,112.02808 C 356.18559,112.02815 358.49679,114.3719 358.49683,119.05933 L 358.49683,174.33276 L 363.67261,178.0437 L 363.67261,188.54175 z M 347.07105,178.62964 L 347.07105,175.94409 L 340.3816,170.86597 L 340.3816,160.46558 L 341.06519,160.46558 L 347.07105,164.95776 L 347.07105,121.84253 L 331.39722,121.84253 L 331.39722,178.62964 L 347.07105,178.62964 z M 448.82886,181.46167 C 448.82882,186.11662 446.48507,188.44409 441.79761,188.44409 L 417.53003,188.44409 C 412.90763,188.44409 410.59643,186.11662 410.59644,181.46167 L 410.59644,112.02808 L 422.02222,112.02808 L 422.02222,178.62964 L 437.40308,178.62964 L 437.40308,112.02808 L 448.82886,112.02808 L 448.82886,181.46167 z M 531.15308,188.44409 L 499.46363,188.44409 L 499.46363,112.02808 L 530.86011,112.02808 L 530.86011,122.1355 L 510.88941,122.1355 L 510.88941,144.44995 L 528.07691,144.44995 L 528.07691,154.36206 L 510.88941,154.36206 L 510.88941,178.33667 L 531.15308,178.33667 L 531.15308,188.44409 z M 617.823,181.46167 C 617.82296,186.11662 615.49549,188.44409 610.84058,188.44409 L 580.323,188.44409 L 580.323,112.02808 L 610.64527,112.02808 C 615.16997,112.02815 617.43234,114.3719 617.43238,119.05933 L 617.43238,138.73706 C 617.43234,141.34127 616.61853,143.3595 614.99097,144.79175 C 614.76307,144.9871 612.77739,146.24036 609.03394,148.55151 C 612.9076,150.92785 614.95838,152.22994 615.18628,152.45776 C 616.94405,153.98775 617.82296,156.08735 617.823,158.75659 L 617.823,181.46167 z M 606.05542,140.15308 L 606.05542,121.64722 L 591.74878,121.64722 L 591.74878,144.05933 L 600.53785,144.05933 L 606.05542,140.15308 z M 606.34839,178.82495 L 606.34839,157.04761 L 600.73316,153.33667 L 591.74878,153.33667 L 591.74878,178.82495 L 606.34839,178.82495 z M 706.93433,188.44409 L 695.6062,188.44409 L 693.31128,173.94214 L 679.00464,173.94214 L 676.70972,188.44409 L 665.43042,188.44409 L 665.43042,188.24878 L 680.22535,111.93042 L 692.23706,111.93042 L 706.93433,188.44409 z M 691.69995,164.12769 L 686.13355,129.65503 L 680.51831,164.12769 L 691.69995,164.12769 z"
     id="text2580" />
</svg>
