<?xml version="1.0" encoding="UTF-8" standalone="no"?>
<!-- Created with Inkscape (http://www.inkscape.org/) -->
<svg
   xmlns:dc="http://purl.org/dc/elements/1.1/"
   xmlns:cc="http://creativecommons.org/ns#"
   xmlns:rdf="http://www.w3.org/1999/02/22-rdf-syntax-ns#"
   xmlns:svg="http://www.w3.org/2000/svg"
   xmlns="http://www.w3.org/2000/svg"
   xmlns:sodipodi="http://sodipodi.sourceforge.net/DTD/sodipodi-0.dtd"
   xmlns:inkscape="http://www.inkscape.org/namespaces/inkscape"
   width="750"
   height="500"
   id="svg2822"
   version="1.1"
   inkscape:version="0.46"
   sodipodi:docname="Flag_of_Pedraza_(Magdalena).svg"
   sodipodi:version="0.32"
   inkscape:output_extension="org.inkscape.output.svg.inkscape">
  <defs
     id="defs2824" />
  <sodipodi:namedview
     id="base"
     pagecolor="#ffffff"
     bordercolor="#666666"
     borderopacity="1.0"
     inkscape:pageopacity="0.0"
     inkscape:pageshadow="2"
     inkscape:zoom="1.014"
     inkscape:cx="375"
     inkscape:cy="250"
     inkscape:document-units="px"
     inkscape:current-layer="layer1"
     showgrid="false"
     inkscape:window-width="1024"
     inkscape:window-height="712"
     inkscape:window-x="-4"
     inkscape:window-y="-4"
     inkscape:window-maximized="1" />
  <metadata
     id="metadata2827">
    <rdf:RDF>
      <cc:Work
         rdf:about="">
        <dc:format>image/svg+xml</dc:format>
        <dc:type
           rdf:resource="http://purl.org/dc/dcmitype/StillImage" />
        <dc:title />
      </cc:Work>
    </rdf:RDF>
  </metadata>
  <g
     inkscape:label="Capa 1"
     inkscape:groupmode="layer"
     id="layer1"
     transform="translate(0,-552.36218)">
    <rect
       style="fill:#ffffff;fill-opacity:1;stroke:none"
       id="rect2832"
       width="750"
       height="249.73003"
       x="0"
       y="-1051.8252"
       transform="scale(1,-1)" />
    <rect
       style="fill:#078930;fill-opacity:1;stroke:none"
       id="rect2836"
       width="750"
       height="249.73003"
       x="0"
       y="-802.09222"
       transform="scale(1,-1)" />
    <g
       transform="matrix(1.331,0,0,1.331,342.86105,-8.3678713)"
       id="g3162"
       inkscape:label="Capa 1"
       style="fill:#89c5e3;fill-opacity:1;stroke:none;stroke-opacity:1">
      <path
         transform="matrix(0.6474989,0,0,0.679842,2.247149,578.97702)"
         d="M -1.6369,98.959498 L 12.625453,56.812948 L -23.456887,30.77814 L 21.034173,31.318443 L 34.644691,-11.0431 L 47.879326,31.437376 L 92.373428,31.291311 L 56.061822,57.005386 L 69.950172,99.276655 L 34.27373,72.688352 L -1.6369,98.959498 z"
         inkscape:randomized="0"
         inkscape:rounded="3.469447e-18"
         inkscape:flatsided="false"
         sodipodi:arg2="2.8318637"
         sodipodi:arg1="2.2035452"
         sodipodi:r2="22.836075"
         sodipodi:r1="60.896198"
         sodipodi:cy="49.852501"
         sodipodi:cx="34.374901"
         sodipodi:sides="5"
         id="path3100"
         style="fill:#89c5e3;fill-opacity:1;stroke:none;stroke-opacity:1"
         sodipodi:type="star" />
    </g>
    <g
       transform="matrix(0.857375,0,0,0.857375,127.22599,172.16919)"
       id="g3165"
       inkscape:label="Capa 1"
       style="fill:#89c5e3;fill-opacity:1">
      <path
         transform="matrix(0.6474989,0,0,0.679842,16.688308,590.86974)"
         d="M -1.6369,98.959498 L 12.625453,56.812948 L -23.456887,30.77814 L 21.034173,31.318443 L 34.644691,-11.0431 L 47.879326,31.437376 L 92.373428,31.291311 L 56.061822,57.005386 L 69.950172,99.276655 L 34.27373,72.688352 L -1.6369,98.959498 z"
         inkscape:randomized="0"
         inkscape:rounded="3.469447e-18"
         inkscape:flatsided="false"
         sodipodi:arg2="2.8318637"
         sodipodi:arg1="2.2035452"
         sodipodi:r2="22.836075"
         sodipodi:r1="60.896198"
         sodipodi:cy="49.852501"
         sodipodi:cx="34.374901"
         sodipodi:sides="5"
         id="path3167"
         style="fill:#89c5e3;fill-opacity:1;stroke:none"
         sodipodi:type="star" />
    </g>
    <g
       inkscape:label="Capa 1"
       id="g3169"
       transform="matrix(0.857375,0,0,0.857375,127.22599,372.16919)"
       style="fill:#89c5e3;fill-opacity:1">
      <path
         sodipodi:type="star"
         style="fill:#89c5e3;fill-opacity:1;stroke:none"
         id="path3171"
         sodipodi:sides="5"
         sodipodi:cx="34.374901"
         sodipodi:cy="49.852501"
         sodipodi:r1="60.896198"
         sodipodi:r2="22.836075"
         sodipodi:arg1="2.2035452"
         sodipodi:arg2="2.8318637"
         inkscape:flatsided="false"
         inkscape:rounded="3.469447e-18"
         inkscape:randomized="0"
         d="M -1.6369,98.959498 L 12.625453,56.812948 L -23.456887,30.77814 L 21.034173,31.318443 L 34.644691,-11.0431 L 47.879326,31.437376 L 92.373428,31.291311 L 56.061822,57.005386 L 69.950172,99.276655 L 34.27373,72.688352 L -1.6369,98.959498 z"
         transform="matrix(0.6474989,0,0,0.679842,16.688308,590.86974)" />
    </g>
    <g
       inkscape:label="Capa 1"
       id="g3185"
       transform="matrix(-0.857375,0,0,0.857375,623.39899,172.16919)"
       style="fill:#89c5e3;fill-opacity:1">
      <path
         sodipodi:type="star"
         style="fill:#89c5e3;fill-opacity:1;stroke:none"
         id="path3187"
         sodipodi:sides="5"
         sodipodi:cx="34.374901"
         sodipodi:cy="49.852501"
         sodipodi:r1="60.896198"
         sodipodi:r2="22.836075"
         sodipodi:arg1="2.2035452"
         sodipodi:arg2="2.8318637"
         inkscape:flatsided="false"
         inkscape:rounded="3.469447e-18"
         inkscape:randomized="0"
         d="M -1.6369,98.959498 L 12.625453,56.812948 L -23.456887,30.77814 L 21.034173,31.318443 L 34.644691,-11.0431 L 47.879326,31.437376 L 92.373428,31.291311 L 56.061822,57.005386 L 69.950172,99.276655 L 34.27373,72.688352 L -1.6369,98.959498 z"
         transform="matrix(0.6474989,0,0,0.679842,16.688308,590.86974)" />
    </g>
    <g
       transform="matrix(-0.857375,0,0,0.857375,623.39899,372.16919)"
       id="g3189"
       inkscape:label="Capa 1"
       style="fill:#89c5e3;fill-opacity:1">
      <path
         transform="matrix(0.6474989,0,0,0.679842,16.688308,590.86974)"
         d="M -1.6369,98.959498 L 12.625453,56.812948 L -23.456887,30.77814 L 21.034173,31.318443 L 34.644691,-11.0431 L 47.879326,31.437376 L 92.373428,31.291311 L 56.061822,57.005386 L 69.950172,99.276655 L 34.27373,72.688352 L -1.6369,98.959498 z"
         inkscape:randomized="0"
         inkscape:rounded="3.469447e-18"
         inkscape:flatsided="false"
         sodipodi:arg2="2.8318637"
         sodipodi:arg1="2.2035452"
         sodipodi:r2="22.836075"
         sodipodi:r1="60.896198"
         sodipodi:cy="49.852501"
         sodipodi:cx="34.374901"
         sodipodi:sides="5"
         id="path3191"
         style="fill:#89c5e3;fill-opacity:1;stroke:none"
         sodipodi:type="star" />
    </g>
    <path
       style="font-size:36.50000000000000000px;font-style:normal;font-variant:normal;font-weight:normal;font-stretch:normal;text-align:start;line-height:100%;writing-mode:lr-tb;text-anchor:start;fill:#89c5e3;fill-opacity:1;stroke:#89c5e3;stroke-width:1.5;stroke-linecap:butt;stroke-linejoin:miter;stroke-opacity:1;font-family:Arial;-inkscape-font-specification:Arial;stroke-miterlimit:4;stroke-dasharray:none"
       d="M 162.75646,645.98201 L 154.79838,621.09602 L 159.7552,619.51092 L 171.28039,635.24775 C 172.34834,636.71501 173.13709,637.81624 173.64664,638.55143 C 173.64003,637.55561 173.65617,636.08473 173.69504,634.13879 L 174.11642,614.91847 L 178.547,613.50165 L 186.50509,638.38763 L 183.33068,639.40275 L 176.66999,618.57389 L 176.09915,641.71526 L 173.12845,642.66523 L 159.15618,623.78155 L 165.93086,644.96689 L 162.75646,645.98201 z M 201.97679,607.3138 L 205.32401,606.44744 L 209.10651,621.06132 C 209.76445,623.60338 209.99938,625.69649 209.81131,627.34066 C 209.6232,628.98484 208.89994,630.46992 207.64153,631.79588 C 206.38308,633.12186 204.5346,634.10043 202.0961,634.73158 C 199.72658,635.34489 197.68273,635.4382 195.96453,635.01154 C 194.24632,634.58487 192.86494,633.68136 191.82037,632.301 C 190.7758,630.92065 189.90668,628.89043 189.213,626.21035 L 185.43049,611.59647 L 188.77771,610.73011 L 192.55575,625.32674 C 193.12439,627.52372 193.74759,629.08984 194.42537,630.02512 C 195.10314,630.96041 196.01244,631.58109 197.1533,631.88718 C 198.29413,632.19328 199.58346,632.16026 201.02127,631.78811 C 203.48279,631.151 205.09252,630.13911 205.85047,628.75244 C 206.60839,627.36579 206.57651,625.08512 205.75483,621.91042 L 201.97679,607.3138 z M 217.46395,630.44355 L 212.1183,604.86881 L 215.58991,604.14317 L 233.21978,621.41491 L 229.02275,601.33543 L 232.26757,600.6572 L 237.61322,626.23193 L 234.14161,626.95757 L 216.50809,609.66839 L 220.70877,629.76531 L 217.46395,630.44355 z M 243.93873,625.14696 L 239.37666,599.42089 L 242.78106,598.81717 L 247.34314,624.54324 L 243.93873,625.14696 z M 270.42617,611.66242 L 273.97421,612.02094 C 273.67228,614.93607 272.69882,617.26882 271.05381,619.01921 C 269.40877,620.7696 267.24043,621.84365 264.54881,622.24137 C 261.76313,622.65298 259.41377,622.42062 257.50073,621.54428 C 255.58767,620.66794 254.01677,619.22159 252.78802,617.20522 C 251.55926,615.18887 250.76253,612.94653 250.39781,610.4782 C 250.00009,607.78658 250.1674,605.36275 250.89975,603.20673 C 251.6321,601.05075 252.87054,599.3124 254.6151,597.99166 C 256.35964,596.67098 258.37204,595.84217 260.6523,595.50521 C 263.23815,595.12315 265.50987,595.46006 267.46749,596.51596 C 269.42507,597.5719 270.92689,599.24165 271.97295,601.5252 L 268.7227,602.81617 C 267.84535,601.02414 266.77323,599.78333 265.50633,599.09374 C 264.23941,598.4042 262.74204,598.18707 261.01423,598.44235 C 259.02782,598.73588 257.43792,599.45723 256.24454,600.6064 C 255.05115,601.75561 254.30265,603.17235 253.99904,604.85662 C 253.69543,606.54094 253.66954,608.23524 253.92137,609.93954 C 254.24614,612.13753 254.84996,614.00902 255.73283,615.55403 C 256.61569,617.09905 257.79289,618.1772 259.26443,618.78849 C 260.73595,619.39978 262.25923,619.58906 263.83426,619.35633 C 265.75013,619.07325 267.29054,618.28114 268.45549,616.98001 C 269.6204,615.6789 270.2773,613.90637 270.42617,611.66242 L 270.42617,611.66242 z M 280.02769,619.71601 L 276.92647,593.77327 L 280.35954,593.36288 L 283.46077,619.30561 L 280.02769,619.71601 z M 289.49449,618.56739 L 287.04469,592.55505 L 296.85698,591.63095 C 298.58403,591.46832 299.91078,591.42691 300.83723,591.50671 C 302.13482,591.59934 303.24351,591.90367 304.16332,592.41969 C 305.08309,592.93576 305.85687,593.70722 306.48467,594.73408 C 307.11242,595.76098 307.48703,596.91911 307.60848,598.20846 C 307.81679,600.42054 307.28925,602.35879 306.02587,604.02322 C 304.76245,605.68768 302.29132,606.69314 298.61246,607.0396 L 291.94081,607.66793 L 292.93678,618.2432 L 289.49449,618.56739 z M 291.65172,604.59826 L 298.3766,603.96492 C 300.60047,603.75549 302.14067,603.19274 302.9972,602.27668 C 303.85371,601.36064 304.21122,600.15147 304.06976,598.64914 C 303.96725,597.56088 303.60449,596.65524 302.98148,595.93221 C 302.35844,595.20922 301.58572,594.76585 300.66332,594.60208 C 300.06919,594.50291 298.99141,594.52685 297.42998,594.67388 L 290.77607,595.30053 L 291.65172,604.59826 z M 314.36849,616.39716 L 312.55365,590.33282 L 316.00282,590.09266 L 317.81766,616.15699 L 314.36849,616.39716 z M 322.27888,603.0229 C 322.09161,598.69021 323.10829,595.24795 325.32894,592.69612 C 327.54959,590.14434 330.49983,588.78891 334.17967,588.62983 C 336.58935,588.5257 338.78652,589.00752 340.77119,590.07529 C 342.75582,591.14311 344.30011,592.68483 345.40407,594.70046 C 346.50799,596.71613 347.1164,599.0297 347.22931,601.64118 C 347.3437,604.28829 346.91189,606.67953 345.93388,608.81489 C 344.95582,610.95027 343.51072,612.59742 341.59855,613.75635 C 339.68635,614.91529 337.59663,615.54375 335.3294,615.64175 C 332.87221,615.74796 330.65052,615.24936 328.66435,614.14595 C 326.67815,613.04255 325.14212,611.4856 324.05624,609.47511 C 322.97036,607.46464 322.37791,605.3139 322.27888,603.0229 L 322.27888,603.0229 z M 325.84232,602.92239 C 325.97828,606.06806 326.93116,608.50945 328.70095,610.24657 C 330.47072,611.9837 332.63168,612.7971 335.18383,612.68679 C 337.78344,612.57442 339.88357,611.56792 341.48424,609.66726 C 343.08487,607.76662 343.81259,605.13664 343.66741,601.7773 C 343.57554,599.65251 343.13629,597.81327 342.34966,596.2596 C 341.56298,594.70596 340.45934,593.52278 339.03875,592.71005 C 337.61811,591.89738 336.0472,591.52822 334.326,591.6026 C 331.88068,591.70832 329.81295,592.6391 328.12281,594.39493 C 326.43265,596.15081 325.67248,598.99329 325.84232,602.92239 L 325.84232,602.92239 z M 362.35492,614.4517 L 362.52463,588.32481 L 371.52469,588.38327 C 373.55637,588.3965 375.10606,588.53132 376.17377,588.78775 C 377.66855,589.14205 378.94173,589.77412 379.99332,590.68394 C 381.36396,591.85727 382.38499,593.3521 383.05642,595.1684 C 383.7278,596.98475 384.05594,599.05728 384.04083,601.38599 C 384.02792,603.37017 383.78481,605.12709 383.31151,606.65675 C 382.83817,608.18643 382.23586,609.4509 381.50461,610.45015 C 380.77331,611.44941 379.9751,612.23436 379.10999,612.80501 C 378.24484,613.37565 377.20239,613.80554 375.98265,614.09466 C 374.76288,614.38378 373.36289,614.52321 371.7827,614.51294 L 362.35492,614.4517 z M 365.8324,611.39097 L 371.41065,611.42721 C 373.13342,611.4384 374.48595,611.28678 375.46825,610.97235 C 376.45052,610.65793 377.23465,610.21152 377.82063,609.63311 C 378.64574,608.81864 379.29152,607.7208 379.75796,606.3396 C 380.22436,604.95841 380.46397,603.28167 380.4768,601.30937 C 380.49453,598.5767 380.05966,596.47377 379.17217,595.00059 C 378.28465,593.52745 377.20093,592.5372 375.92102,592.02983 C 374.99658,591.66739 373.50664,591.47949 371.45119,591.46611 L 365.96205,591.43046 L 365.8324,611.39097 z M 388.80233,614.73605 L 389.82932,588.6288 L 408.70632,589.37136 L 408.58513,592.45223 L 393.16297,591.84557 L 392.84843,599.84158 L 407.29112,600.40971 L 407.17063,603.47278 L 392.72794,602.90464 L 392.37837,611.79108 L 408.40602,612.42156 L 408.28482,615.50243 L 388.80233,614.73605 z M 423.19275,616.43802 L 425.37339,590.40174 L 435.19472,591.22432 C 436.92335,591.36912 438.23657,591.56257 439.13439,591.80467 C 440.39525,592.12491 441.43281,592.62017 442.24708,593.29046 C 443.0613,593.9608 443.68674,594.85674 444.12341,595.97829 C 444.56002,597.09989 444.7243,598.30596 444.61624,599.5965 C 444.43077,601.81061 443.56936,603.62529 442.032,605.04056 C 440.49459,606.45585 437.88477,607.00929 434.20253,606.70088 L 427.52474,606.14159 L 426.63821,616.72659 L 423.19275,616.43802 z M 427.78208,603.06909 L 434.51315,603.63284 C 436.73906,603.81929 438.35442,603.53727 439.35921,602.78679 C 440.36397,602.03635 440.92933,600.90927 441.05529,599.40557 C 441.1465,598.3163 440.94932,597.36084 440.46373,596.53919 C 439.9781,595.71757 439.29578,595.14475 438.41678,594.82073 C 437.8495,594.61824 436.78442,594.45153 435.22155,594.32061 L 428.56151,593.76281 L 427.78208,603.06909 z M 447.55279,618.56838 L 450.5494,592.61336 L 469.31634,594.78008 L 468.96271,597.84298 L 453.63048,596.07281 L 452.71269,604.0222 L 467.07117,605.67995 L 466.71959,608.72515 L 452.36111,607.0674 L 451.34111,615.90203 L 467.27531,617.7417 L 466.92168,620.8046 L 447.55279,618.56838 z M 471.69462,621.43099 L 475.54914,595.58944 L 484.4509,596.91722 C 486.46039,597.21698 487.97555,597.56912 488.9964,597.97363 C 490.42623,598.53531 491.59749,599.34069 492.51018,600.38979 C 493.70155,601.74478 494.50145,603.36872 494.90988,605.26159 C 495.31826,607.1545 495.35068,609.25259 495.00714,611.55587 C 494.71439,613.51838 494.22582,615.22342 493.54142,616.671 C 492.85697,618.11859 492.08228,619.28541 491.21734,620.17149 C 490.35236,621.05757 489.45139,621.72204 488.51441,622.16491 C 487.57739,622.60777 486.48472,622.88627 485.23639,623.00039 C 483.98802,623.11451 482.58237,623.055 481.01944,622.82188 L 471.69462,621.43099 z M 475.56917,618.89155 L 481.0865,619.71452 C 482.79046,619.96868 484.15085,620.00942 485.16769,619.83674 C 486.1845,619.66406 487.02377,619.33275 487.6855,618.84282 C 488.61728,618.15291 489.4115,617.15718 490.06816,615.85561 C 490.72478,614.55405 491.19859,612.9279 491.48958,610.97714 C 491.89271,608.27431 491.75891,606.13106 491.08817,604.54739 C 490.41739,602.96376 489.48424,601.8305 488.28872,601.14761 C 487.42467,600.65836 485.97615,600.26211 483.94315,599.95885 L 478.51396,599.14903 L 475.56917,618.89155 z M 497.82219,625.42705 L 502.58495,599.73738 L 513.97532,601.8491 C 516.26506,602.27364 517.96296,602.82708 519.06904,603.50943 C 520.17508,604.19183 520.97612,605.1832 521.47219,606.48354 C 521.9682,607.78392 522.08519,609.14088 521.82315,610.55444 C 521.48524,612.37692 520.61047,613.80378 519.19882,614.83503 C 517.78712,615.86631 515.81739,616.32284 513.2896,616.20462 C 514.10899,616.80365 514.71336,617.35676 515.10271,617.86396 C 515.92675,618.95929 516.65602,620.27268 517.2905,621.80413 L 520.46275,629.62451 L 516.18698,628.8318 L 513.77828,622.85682 C 513.07115,621.13064 512.47213,619.79911 511.98123,618.86221 C 511.49029,617.92532 511.02106,617.24622 510.57353,616.82488 C 510.12597,616.40357 509.65126,616.07992 509.14939,615.85394 C 508.77902,615.7007 508.15575,615.54285 507.27958,615.3804 L 503.33676,614.64942 L 501.22178,626.05732 L 497.82219,625.42705 z M 503.88256,611.70545 L 511.18992,613.0602 C 512.74367,613.34828 513.98842,613.41289 514.92418,613.25406 C 515.85991,613.09524 516.6211,612.70467 517.20777,612.08234 C 517.7944,611.46003 518.16461,610.73415 518.31842,609.90468 C 518.54364,608.68972 518.28781,607.60912 517.55093,606.66285 C 516.81399,605.71662 515.49342,605.06698 513.58921,604.71393 L 505.45823,603.20648 L 503.88256,611.70545 z M 520.88402,629.71431 L 536.33977,606.38101 L 539.97617,607.18794 L 544.7555,635.01147 L 540.91031,634.15821 L 539.64932,625.77282 L 528.98371,623.40609 L 524.46822,630.50966 L 520.88402,629.71431 z M 530.56808,620.87325 L 539.2154,622.79212 L 538.12088,615.13739 C 537.78508,612.81135 537.57316,610.91441 537.48509,609.44655 C 536.79737,611.01001 535.97885,612.53225 535.02952,614.01327 L 530.56808,620.87325 z M 545.44459,635.20302 L 546.24424,632.09627 L 563.37783,619.22578 C 564.59449,618.31209 565.72665,617.53611 566.7743,616.89786 L 552.65587,613.26386 L 553.42444,610.27793 L 571.54711,614.9426 L 570.77855,617.92853 L 552.05575,631.82542 L 550.06206,633.20778 L 566.21713,637.36601 L 565.44857,640.35193 L 545.44459,635.20302 z M 566.30309,640.547 L 583.32315,618.32897 L 586.89562,619.38347 L 589.75493,647.46933 L 585.97734,646.35429 L 585.29458,637.90215 L 574.81646,634.8093 L 569.82429,641.58636 L 566.30309,640.547 z M 576.57085,632.39112 L 585.06616,634.8987 L 584.49935,627.18692 C 584.32392,624.84332 584.24263,622.9363 584.25547,621.46586 C 583.46211,622.97846 582.54108,624.44096 581.49239,625.85337 L 576.57085,632.39112 z"
       id="text3193" />
  </g>
</svg>
