<?xml version="1.0" encoding="UTF-8" standalone="no"?>
<!-- Created with Inkscape (http://www.inkscape.org/) -->

<svg
   xmlns:dc="http://purl.org/dc/elements/1.1/"
   xmlns:cc="http://creativecommons.org/ns#"
   xmlns:rdf="http://www.w3.org/1999/02/22-rdf-syntax-ns#"
   xmlns:svg="http://www.w3.org/2000/svg"
   xmlns="http://www.w3.org/2000/svg"
   xmlns:sodipodi="http://sodipodi.sourceforge.net/DTD/sodipodi-0.dtd"
   xmlns:inkscape="http://www.inkscape.org/namespaces/inkscape"
   width="750"
   height="500"
   id="svg2844"
   version="1.1"
   inkscape:version="0.47 r22583"
   sodipodi:docname="Flag of Pelaya (Cesar).svg">
  <defs
     id="defs2846">
    <inkscape:perspective
       sodipodi:type="inkscape:persp3d"
       inkscape:vp_x="0 : 526.18109 : 1"
       inkscape:vp_y="0 : 1000 : 0"
       inkscape:vp_z="744.09448 : 526.18109 : 1"
       inkscape:persp3d-origin="372.04724 : 350.78739 : 1"
       id="perspective2852" />
    <inkscape:perspective
       id="perspective8226"
       inkscape:persp3d-origin="72.349998 : 98.069336 : 1"
       inkscape:vp_z="144.7 : 147.104 : 1"
       inkscape:vp_y="0 : 1000 : 0"
       inkscape:vp_x="0 : 147.104 : 1"
       sodipodi:type="inkscape:persp3d" />
  </defs>
  <sodipodi:namedview
     id="base"
     pagecolor="#ffffff"
     bordercolor="#666666"
     borderopacity="1.0"
     inkscape:pageopacity="0.0"
     inkscape:pageshadow="2"
     inkscape:zoom="0.62"
     inkscape:cx="350"
     inkscape:cy="241.12498"
     inkscape:document-units="px"
     inkscape:current-layer="layer1-7"
     showgrid="false"
     inkscape:window-width="1024"
     inkscape:window-height="538"
     inkscape:window-x="-8"
     inkscape:window-y="-8"
     inkscape:window-maximized="1" />
  <metadata
     id="metadata2849">
    <rdf:RDF>
      <cc:Work
         rdf:about="">
        <dc:format>image/svg+xml</dc:format>
        <dc:type
           rdf:resource="http://purl.org/dc/dcmitype/StillImage" />
        <dc:title></dc:title>
      </cc:Work>
    </rdf:RDF>
  </metadata>
  <g
     inkscape:label="Capa 1"
     inkscape:groupmode="layer"
     id="layer1"
     transform="translate(0,-552.36218)">
    <rect
       style="fill:#fcdd09;fill-opacity:1;stroke:none"
       id="rect2860"
       width="750"
       height="250"
       x="0"
       y="-5.6843419e-14"
       transform="translate(0,552.36218)"
       rx="8.8817842e-16"
       ry="8.8817784e-16" />
    <rect
       style="fill:#078930;fill-opacity:1;stroke:none"
       id="rect2862"
       width="750"
       height="250"
       x="0"
       y="250"
       transform="translate(0,552.36218)"
       rx="8.8817842e-16"
       ry="8.8817784e-16" />
    <path
       style="fill:#ffffff;stroke:none;stroke-width:1px;stroke-linecap:butt;stroke-linejoin:miter;stroke-opacity:1"
       d="M 0,0 250,250 0,500"
       id="path2864"
       transform="translate(0,552.36218)" />
    <g
       inkscape:groupmode="layer"
       inkscape:label="Calque 1"
       transform="matrix(0.86142723,0,0,0.59128821,-382.39899,268.84)"
       id="layer1-7">
      <g
         transform="matrix(1.77567,0,0,1.77567,-355.946,688.862)"
         style="stroke-width:1.43101001000000010;stroke-miterlimit:4;stroke-dasharray:none;fill:#fcdd09"
         id="g4393">
        <path
           d="m 507.661,40.1931 c 1.778,-1.5796 6.721,-1.5645 8.512,0 1.232,1.0766 0.955,3.2298 0,4.3065 -1.576,1.7759 -7.292,2.0313 -8.512,0 -0.92,-1.5339 -1.28,-3.1689 0,-4.3065 z"
           style="fill:#fcdd09;fill-opacity:1;fill-rule:evenodd;stroke:#000000;stroke-width:2.00508951999999980;stroke-linecap:butt;stroke-linejoin:miter;stroke-miterlimit:4;stroke-opacity:1;stroke-dasharray:none"
           id="use3293" />
        <path
           d="m 505.35,47.3851 c 2.122,-1.8634 8.026,-1.8457 10.164,0 1.472,1.2701 1.141,3.8102 0,5.0802 -1.882,2.0951 -8.708,2.3963 -10.164,0 -1.1,-1.8094 -1.529,-3.7382 0,-5.0802 z"
           style="fill:#fcdd09;fill-opacity:1;fill-rule:evenodd;stroke:#000000;stroke-width:2.00508951999999980;stroke-linecap:butt;stroke-linejoin:miter;stroke-miterlimit:4;stroke-opacity:1;stroke-dasharray:none"
           id="use3297" />
        <path
           d="m 515.76,39.9193 c 1.299,-0.0555 -1.179,-0.9811 5.158,-0.4773 0.882,0.0701 0.55,0.5504 -0.018,1.1275 -0.374,0.3804 -0.928,0.9028 -1.03,1.0228 -0.554,0.6493 -0.693,0.9881 -2.112,0.4182 -1.072,-0.4303 -2.826,-2.0558 -1.998,-2.0912 z"
           style="fill:#fcdd09;fill-opacity:1;fill-rule:evenodd;stroke:#000000;stroke-width:2.00508951999999980;stroke-linecap:butt;stroke-linejoin:miter;stroke-miterlimit:4;stroke-opacity:1;stroke-dasharray:none"
           id="use3315" />
        <path
           d="m 516.948,43.6467 c 1.71,-1.8066 6.466,-1.7893 8.189,0 1.186,1.2312 0.919,3.6937 0,4.925 -1.516,2.0311 -7.016,2.3231 -8.189,0 -0.887,-1.7542 -1.232,-3.6241 0,-4.925 z"
           style="fill:#fcdd09;fill-opacity:1;fill-rule:evenodd;stroke:#000000;stroke-width:2.00508951999999980;stroke-linecap:butt;stroke-linejoin:miter;stroke-miterlimit:4;stroke-opacity:1;stroke-dasharray:none"
           id="use3319" />
        <path
           d="m 502.022,50.2587 c 0.551,-2.7337 -0.213,-1.3324 1.926,0.5132 1.471,1.2701 1.141,3.8102 0,5.0803 -1.882,2.095 -4.305,4.0866 -3.679,1.3684 0.654,-2.8358 1.277,-4.5935 1.753,-6.9619 z"
           style="fill:#fcdd09;fill-opacity:1;fill-rule:evenodd;stroke:#000000;stroke-width:2.00508951999999980;stroke-linecap:butt;stroke-linejoin:miter;stroke-miterlimit:4;stroke-opacity:1;stroke-dasharray:none"
           id="use3339" />
        <path
           d="m 505.35,55.4288 c 2.122,-1.8634 8.026,-1.8457 10.164,0 1.472,1.2701 1.141,3.8102 0,5.0802 -1.882,2.0951 -8.708,2.3963 -10.164,0 -1.1,-1.8094 -1.529,-3.7382 0,-5.0802 z"
           style="fill:#fcdd09;fill-opacity:1;fill-rule:evenodd;stroke:#000000;stroke-width:2.00508951999999980;stroke-linecap:butt;stroke-linejoin:miter;stroke-miterlimit:4;stroke-opacity:1;stroke-dasharray:none"
           id="use3341" />
        <path
           d="m 499.957,58.534 c 0.794,-2.6761 1.89,-1.5036 4.029,0.3421 1.472,1.2701 1.141,3.8102 0,5.0802 -1.882,2.0951 -5.942,3.793 -5.607,1.0264 0.303,-2.4937 0.926,-4.2514 1.578,-6.4487 z"
           style="fill:#fcdd09;fill-opacity:1;fill-rule:evenodd;stroke:#000000;stroke-width:2.00508951999999980;stroke-linecap:butt;stroke-linejoin:miter;stroke-miterlimit:4;stroke-opacity:1;stroke-dasharray:none"
           id="use3343" />
        <path
           d="m 504.916,63.7144 c 2.122,-1.8634 8.026,-1.8456 10.165,0 1.471,1.2701 1.14,3.8102 0,5.0802 -1.882,2.0951 -8.709,2.3963 -10.165,0 -1.1,-1.8094 -1.529,-3.7382 0,-5.0802 z"
           style="fill:#fcdd09;fill-opacity:1;fill-rule:evenodd;stroke:#000000;stroke-width:2.00508951999999980;stroke-linecap:butt;stroke-linejoin:miter;stroke-miterlimit:4;stroke-opacity:1;stroke-dasharray:none"
           id="use3345" />
        <path
           d="m 498.104,66.3168 c 0.591,-2.7256 3.643,-0.8193 5.782,1.0263 1.471,1.2701 1.141,3.8102 0,5.0803 -1.882,2.095 -7.766,1.949 -6.834,-0.6843 1.004,-2.8358 0.575,-3.225 1.052,-5.4223 z"
           style="fill:#fcdd09;fill-opacity:1;fill-rule:evenodd;stroke:#000000;stroke-width:2.00508951999999980;stroke-linecap:butt;stroke-linejoin:miter;stroke-miterlimit:4;stroke-opacity:1;stroke-dasharray:none"
           id="use3347" />
        <path
           d="m 505.288,72 c 2.122,-1.8634 8.026,-1.8456 10.164,0 1.472,1.2701 1.141,3.8102 0,5.0803 -1.882,2.095 -8.708,2.3962 -10.164,0 -1.1,-1.8095 -1.529,-3.7383 0,-5.0803 z"
           style="fill:#fcdd09;fill-opacity:1;fill-rule:evenodd;stroke:#000000;stroke-width:2.00508951999999980;stroke-linecap:butt;stroke-linejoin:miter;stroke-miterlimit:4;stroke-opacity:1;stroke-dasharray:none"
           id="use3349" />
        <path
           d="m 496.564,75.1052 c 0.545,-2.7348 5.221,-1.5036 7.36,0.3421 1.472,1.2701 1.141,3.8102 0,5.0802 -1.882,2.0951 -8.611,3.104 -8.236,0.3422 0.478,-3.5201 0.575,-4.2515 0.876,-5.7645 z"
           style="fill:#fcdd09;fill-opacity:1;fill-rule:evenodd;stroke:#000000;stroke-width:2.00508951999999980;stroke-linecap:butt;stroke-linejoin:miter;stroke-miterlimit:4;stroke-opacity:1;stroke-dasharray:none"
           id="use3351" />
        <path
           d="m 504.854,80.2856 c 2.122,-1.8634 8.026,-1.8456 10.165,0 1.471,1.2701 1.14,3.8102 0,5.0803 -1.882,2.095 -8.709,2.3963 -10.165,0 -1.1,-1.8095 -1.529,-3.7383 0,-5.0803 z"
           style="fill:#fcdd09;fill-opacity:1;fill-rule:evenodd;stroke:#000000;stroke-width:2.00508951999999980;stroke-linecap:butt;stroke-linejoin:miter;stroke-miterlimit:4;stroke-opacity:1;stroke-dasharray:none"
           id="use3353" />
        <path
           d="m 516.716,51.6186 c 2.122,-1.8634 8.026,-1.8456 10.164,0 1.472,1.2701 1.141,3.8102 0,5.0803 -1.882,2.095 -8.708,2.3963 -10.164,0 -1.1,-1.8095 -1.529,-3.7383 0,-5.0803 z"
           style="fill:#fcdd09;fill-opacity:1;fill-rule:evenodd;stroke:#000000;stroke-width:2.00508951999999980;stroke-linecap:butt;stroke-linejoin:miter;stroke-miterlimit:4;stroke-opacity:1;stroke-dasharray:none"
           id="use3355" />
        <path
           d="m 528.282,56.2755 c 2.123,-1.8634 0.866,-3.1622 1.75,-0.5132 0.596,1.7833 1.317,5.6919 1.753,6.9619 0.909,2.6412 -2.046,1.0278 -3.503,-1.3685 -1.099,-1.8094 -1.528,-3.7382 0,-5.0802 z"
           style="fill:#fcdd09;fill-opacity:1;fill-rule:evenodd;stroke:#000000;stroke-width:2.00508951999999980;stroke-linecap:butt;stroke-linejoin:miter;stroke-miterlimit:4;stroke-opacity:1;stroke-dasharray:none"
           id="use3357" />
        <path
           d="m 516.754,59.7228 c 2.122,-1.8634 8.026,-1.8457 10.165,0 1.471,1.2701 1.141,3.8102 0,5.0802 -1.882,2.0951 -8.709,2.3963 -10.165,0 -1.1,-1.8094 -1.528,-3.7382 0,-5.0802 z"
           style="fill:#fcdd09;fill-opacity:1;fill-rule:evenodd;stroke:#000000;stroke-width:2.00508951999999980;stroke-linecap:butt;stroke-linejoin:miter;stroke-miterlimit:4;stroke-opacity:1;stroke-dasharray:none"
           id="use3359" />
        <path
           d="m 527.848,64.5611 c 2.123,-1.8634 3.536,-4.3081 3.854,-1.5395 0.245,2.1253 0.615,4.8365 1.227,7.4751 0.631,2.7172 -3.624,1.5409 -5.081,-0.8554 -1.099,-1.8094 -1.528,-3.7382 0,-5.0802 z"
           style="fill:#fcdd09;fill-opacity:1;fill-rule:evenodd;stroke:#000000;stroke-width:2.00508951999999980;stroke-linecap:butt;stroke-linejoin:miter;stroke-miterlimit:4;stroke-opacity:1;stroke-dasharray:none"
           id="use3361" />
        <path
           d="m 516.654,68.1899 c 2.122,-1.8635 8.026,-1.8457 10.164,0 1.472,1.27 1.141,3.8101 0,5.0802 -1.882,2.0951 -8.708,2.3963 -10.164,0 -1.1,-1.8095 -1.529,-3.7383 0,-5.0802 z"
           style="fill:#fcdd09;fill-opacity:1;fill-rule:evenodd;stroke:#000000;stroke-width:2.00508951999999980;stroke-linecap:butt;stroke-linejoin:miter;stroke-miterlimit:4;stroke-opacity:1;stroke-dasharray:none"
           id="use3363" />
        <path
           d="m 528.22,72.8467 c 2.123,-1.8634 2.767,-1.8456 4.906,0 1.16,1.0016 -0.278,-3.4016 0.255,2.9312 0.269,3.2064 -1.293,-2.4334 0.446,1.978 0.225,0.5706 -4.15,2.5673 -5.607,0.171 -1.099,-1.8094 -1.528,-3.7382 0,-5.0802 z"
           style="fill:#fcdd09;fill-opacity:1;fill-rule:evenodd;stroke:#000000;stroke-width:2.00508951999999980;stroke-linecap:butt;stroke-linejoin:miter;stroke-miterlimit:4;stroke-opacity:1;stroke-dasharray:none"
           id="use3365" />
        <path
           d="m 516.692,76.294 c 2.123,-1.8634 8.026,-1.8456 10.165,0 1.471,1.2701 1.141,3.8102 0,5.0803 -1.882,2.095 -8.709,2.3962 -10.165,0 -1.1,-1.8095 -1.528,-3.7383 0,-5.0803 z"
           style="fill:#fcdd09;fill-opacity:1;fill-rule:evenodd;stroke:#000000;stroke-width:2.00508951999999980;stroke-linecap:butt;stroke-linejoin:miter;stroke-miterlimit:4;stroke-opacity:1;stroke-dasharray:none"
           id="use3367" />
        <path
           d="m 527.786,81.1323 c 2.123,-1.8634 5.898,-4.2662 6.484,-1.5395 0.42,1.9543 0.264,4.6655 0.35,6.7908 0.113,2.7838 -5.377,2.2252 -6.834,-0.171 -1.099,-1.8095 -1.528,-3.7383 0,-5.0803 z"
           style="fill:#fcdd09;fill-opacity:1;fill-rule:evenodd;stroke:#000000;stroke-width:2.00508951999999980;stroke-linecap:butt;stroke-linejoin:miter;stroke-miterlimit:4;stroke-opacity:1;stroke-dasharray:none"
           id="use3369" />
        <path
           d="m 495.681,82.8465 c 0.926,-2.6353 6.624,-1.5036 8.763,0.3421 1.471,1.2701 1.14,3.8102 0,5.0803 -1.882,2.095 -9.975,1.7402 -9.639,-1.0264 0.303,-2.4937 0.224,-2.5408 0.876,-4.396 z"
           style="fill:#fcdd09;fill-opacity:1;fill-rule:evenodd;stroke:#000000;stroke-width:2.00508951999999980;stroke-linecap:butt;stroke-linejoin:miter;stroke-miterlimit:4;stroke-opacity:1;stroke-dasharray:none"
           id="use3403" />
        <path
           d="m 505.846,87.8455 c 2.122,-1.8634 8.026,-1.8457 10.164,0 1.472,1.2701 1.141,3.8102 0,5.0802 -1.882,2.0951 -8.708,2.3963 -10.164,0 -1.1,-1.8094 -1.529,-3.7382 0,-5.0802 z"
           style="fill:#fcdd09;fill-opacity:1;fill-rule:evenodd;stroke:#000000;stroke-width:2.00508951999999980;stroke-linecap:butt;stroke-linejoin:miter;stroke-miterlimit:4;stroke-opacity:1;stroke-dasharray:none"
           id="use3405" />
        <path
           d="m 494.952,91.2857 c 2.004,-1.8684 7.577,-1.8506 9.596,0 1.39,1.2734 1.077,3.8202 0,5.0937 -1.777,2.1006 -8.221,2.4026 -9.596,0 -1.038,-1.8143 -1.443,-3.7482 0,-5.0937 z"
           style="fill:#fcdd09;fill-opacity:1;fill-rule:evenodd;stroke:#000000;stroke-width:2.00508951999999980;stroke-linecap:butt;stroke-linejoin:miter;stroke-miterlimit:4;stroke-opacity:1;stroke-dasharray:none"
           id="use3407" />
        <path
           d="m 505.412,96.1311 c 2.122,-1.8634 8.026,-1.8457 10.164,0 1.472,1.2701 1.141,3.8102 0,5.0799 -1.882,2.095 -8.708,2.397 -10.164,0 -1.1,-1.8091 -1.529,-3.7379 0,-5.0799 z"
           style="fill:#fcdd09;fill-opacity:1;fill-rule:evenodd;stroke:#000000;stroke-width:2.00508951999999980;stroke-linecap:butt;stroke-linejoin:miter;stroke-miterlimit:4;stroke-opacity:1;stroke-dasharray:none"
           id="use3409" />
        <path
           d="m 494.918,99.5888 c 2.123,-1.8635 7.325,-1.6746 9.464,0.171 1.471,1.2702 1.14,3.8102 0,5.0802 -1.882,2.095 -8.358,1.712 -9.814,-0.684 -0.598,-0.984 -0.472,-0.977 -0.467,-1.918 0.005,-0.789 0.12,-2.037 0.817,-2.6492 z"
           style="fill:#fcdd09;fill-opacity:1;fill-rule:evenodd;stroke:#000000;stroke-width:2.00508951999999980;stroke-linecap:butt;stroke-linejoin:miter;stroke-miterlimit:4;stroke-opacity:1;stroke-dasharray:none"
           id="use3411" />
        <path
           d="m 505.784,104.417 c 2.122,-1.864 8.026,-1.846 10.164,0 1.472,1.27 1.141,3.81 0,5.08 -1.882,2.095 -8.708,2.396 -10.164,0 -1.1,-1.81 -1.529,-3.738 0,-5.08 z"
           style="fill:#fcdd09;fill-opacity:1;fill-rule:evenodd;stroke:#000000;stroke-width:2.00508951999999980;stroke-linecap:butt;stroke-linejoin:miter;stroke-miterlimit:4;stroke-opacity:1;stroke-dasharray:none"
           id="use3413" />
        <path
           d="m 494.606,108.035 c -0.074,-2.785 7.675,-2.017 9.814,-0.171 1.472,1.27 1.141,3.81 0,5.08 -1.882,2.095 -9.351,2.088 -9.639,-0.684 -0.223,-2.152 -0.126,-2.37 -0.175,-4.225 z"
           style="fill:#fcdd09;fill-opacity:1;fill-rule:evenodd;stroke:#000000;stroke-width:2.00508951999999980;stroke-linecap:butt;stroke-linejoin:miter;stroke-miterlimit:4;stroke-opacity:1;stroke-dasharray:none"
           id="use3415" />
        <path
           d="m 505.35,112.702 c 2.122,-1.863 8.026,-1.845 10.164,0 1.472,1.27 1.141,3.81 0,5.081 -1.882,2.095 -8.708,2.396 -10.164,0 -1.1,-1.81 -1.529,-3.739 0,-5.081 z"
           style="fill:#fcdd09;fill-opacity:1;fill-rule:evenodd;stroke:#000000;stroke-width:2.00508951999999980;stroke-linecap:butt;stroke-linejoin:miter;stroke-miterlimit:4;stroke-opacity:1;stroke-dasharray:none"
           id="use3417" />
        <path
           d="m 517.211,84.0353 c 2.123,-1.8634 8.026,-1.8456 10.165,0 1.472,1.2701 1.141,3.8102 0,5.0803 -1.882,2.095 -8.708,2.3962 -10.165,0 -1.099,-1.8095 -1.528,-3.7383 0,-5.0803 z"
           style="fill:#fcdd09;fill-opacity:1;fill-rule:evenodd;stroke:#000000;stroke-width:2.00508951999999980;stroke-linecap:butt;stroke-linejoin:miter;stroke-miterlimit:4;stroke-opacity:1;stroke-dasharray:none"
           id="use3419" />
        <path
           d="m 528.778,88.6922 c 2.123,-1.8634 4.169,-1.8457 6.308,0 0.421,0.3633 0.113,3.6603 0.175,5.4223 0.098,2.7844 -5.027,2.0542 -6.483,-0.3421 -1.1,-1.8094 -1.528,-3.7382 0,-5.0802 z"
           style="fill:#fcdd09;fill-opacity:1;fill-rule:evenodd;stroke:#000000;stroke-width:2.00508951999999980;stroke-linecap:butt;stroke-linejoin:miter;stroke-miterlimit:4;stroke-opacity:1;stroke-dasharray:none"
           id="use3421" />
        <path
           d="m 517.25,92.1395 c 2.122,-1.8634 8.026,-1.8457 10.165,0 1.471,1.2701 1.14,3.8102 0,5.0802 -1.882,2.0951 -8.709,2.3963 -10.165,0 -1.1,-1.8094 -1.529,-3.7382 0,-5.0802 z"
           style="fill:#fcdd09;fill-opacity:1;fill-rule:evenodd;stroke:#000000;stroke-width:2.00508951999999980;stroke-linecap:butt;stroke-linejoin:miter;stroke-miterlimit:4;stroke-opacity:1;stroke-dasharray:none"
           id="use3423" />
        <path
           d="m 528.344,96.9778 c 2.123,-1.8634 6.973,-2.2695 6.834,0.5132 -0.106,2.1253 -0.086,3.126 -0.35,4.909 -0.409,2.757 -5.027,2.054 -6.484,-0.342 -1.099,-1.809 -1.528,-3.7382 0,-5.0802 z"
           style="fill:#fcdd09;fill-opacity:1;fill-rule:evenodd;stroke:#000000;stroke-width:2.00508951999999980;stroke-linecap:butt;stroke-linejoin:miter;stroke-miterlimit:4;stroke-opacity:1;stroke-dasharray:none"
           id="use3425" />
        <path
           d="m 517.149,100.607 c 2.123,-1.8639 8.026,-1.8461 10.165,0 1.472,1.27 1.141,3.81 0,5.08 -1.882,2.095 -8.708,2.396 -10.165,0 -1.099,-1.81 -1.528,-3.738 0,-5.08 z"
           style="fill:#fcdd09;fill-opacity:1;fill-rule:evenodd;stroke:#000000;stroke-width:2.00508951999999980;stroke-linecap:butt;stroke-linejoin:miter;stroke-miterlimit:4;stroke-opacity:1;stroke-dasharray:none"
           id="use3427" />
        <path
           d="m 528.716,105.263 c 2.123,-1.863 6.179,-2.416 5.782,0.343 -0.281,1.954 -0.086,3.297 -0.526,4.738 -0.814,2.67 -3.8,2.396 -5.256,0 -1.1,-1.81 -1.528,-3.739 0,-5.081 z"
           style="fill:#fcdd09;fill-opacity:1;fill-rule:evenodd;stroke:#000000;stroke-width:2.00508951999999980;stroke-linecap:butt;stroke-linejoin:miter;stroke-miterlimit:4;stroke-opacity:1;stroke-dasharray:none"
           id="use3429" />
        <path
           d="m 517.188,108.711 c 2.122,-1.864 8.026,-1.846 10.165,0 1.471,1.27 1.14,3.81 0,5.08 -1.882,2.095 -8.709,2.396 -10.165,0 -1.1,-1.81 -1.529,-3.738 0,-5.08 z"
           style="fill:#fcdd09;fill-opacity:1;fill-rule:evenodd;stroke:#000000;stroke-width:2.00508951999999980;stroke-linecap:butt;stroke-linejoin:miter;stroke-miterlimit:4;stroke-opacity:1;stroke-dasharray:none"
           id="use3431" />
        <path
           d="m 528.282,113.549 c 2.123,-1.863 5.499,-2.784 5.607,0 0.069,1.783 -0.086,3.981 -0.526,5.251 -0.914,2.64 -3.624,2.226 -5.081,-0.171 -1.099,-1.809 -1.528,-3.738 0,-5.08 z"
           style="fill:#fcdd09;fill-opacity:1;fill-rule:evenodd;stroke:#000000;stroke-width:2.00508951999999980;stroke-linecap:butt;stroke-linejoin:miter;stroke-miterlimit:4;stroke-opacity:1;stroke-dasharray:none"
           id="use3433" />
        <path
           d="m 495.185,116.089 c 0.173,-2.781 6.624,-1.846 8.763,0 1.471,1.27 1.141,3.81 0,5.08 -1.882,2.095 -8.927,1.755 -8.763,-1.026 0.128,-2.152 -0.126,-2.028 0,-4.054 z"
           style="fill:#fcdd09;fill-opacity:1;fill-rule:evenodd;stroke:#000000;stroke-width:2.00508951999999980;stroke-linecap:butt;stroke-linejoin:miter;stroke-miterlimit:4;stroke-opacity:1;stroke-dasharray:none"
           id="use3435" />
        <path
           d="m 505.35,120.746 c 2.122,-1.863 8.026,-1.846 10.164,0 1.472,1.27 1.141,3.81 0,5.08 -1.882,2.095 -8.708,2.397 -10.164,0 -1.1,-1.809 -1.529,-3.738 0,-5.08 z"
           style="fill:#fcdd09;fill-opacity:1;fill-rule:evenodd;stroke:#000000;stroke-width:2.00508951999999980;stroke-linecap:butt;stroke-linejoin:miter;stroke-miterlimit:4;stroke-opacity:1;stroke-dasharray:none"
           id="use3437" />
        <path
           d="m 495.75,123.167 c -0.091,-2.785 6.097,-0.819 8.236,1.026 1.472,1.27 1.141,3.81 0,5.081 -1.882,2.095 -8.214,1.584 -8.061,-1.198 0.128,-2.323 -0.126,-3.396 -0.175,-4.909 z"
           style="fill:#fcdd09;fill-opacity:1;fill-rule:evenodd;stroke:#000000;stroke-width:2.00508951999999980;stroke-linecap:butt;stroke-linejoin:miter;stroke-miterlimit:4;stroke-opacity:1;stroke-dasharray:none"
           id="use3439" />
        <path
           d="m 504.916,129.032 c 2.122,-1.864 8.026,-1.846 10.165,0 1.471,1.27 1.14,3.81 0,5.08 -1.882,2.095 -8.709,2.396 -10.165,0 -1.1,-1.81 -1.529,-3.738 0,-5.08 z"
           style="fill:#fcdd09;fill-opacity:1;fill-rule:evenodd;stroke:#000000;stroke-width:2.00508951999999980;stroke-linecap:butt;stroke-linejoin:miter;stroke-miterlimit:4;stroke-opacity:1;stroke-dasharray:none"
           id="use3441" />
        <path
           d="m 496.701,132.147 c 0.173,-2.781 5.046,-1.332 7.185,0.513 1.471,1.27 1.141,3.811 0,5.081 -1.882,2.095 -6.502,2.399 -7.009,-0.343 -0.399,-2.151 -0.302,-3.225 -0.176,-5.251 z"
           style="fill:#fcdd09;fill-opacity:1;fill-rule:evenodd;stroke:#000000;stroke-width:2.00508951999999980;stroke-linecap:butt;stroke-linejoin:miter;stroke-miterlimit:4;stroke-opacity:1;stroke-dasharray:none"
           id="use3443" />
        <path
           d="m 505.288,137.317 c 2.122,-1.863 8.026,-1.845 10.164,0 1.472,1.27 1.141,3.81 0,5.08 -1.882,2.096 -8.708,2.397 -10.164,0 -1.1,-1.809 -1.529,-3.738 0,-5.08 z"
           style="fill:#fcdd09;fill-opacity:1;fill-rule:evenodd;stroke:#000000;stroke-width:2.00508951999999980;stroke-linecap:butt;stroke-linejoin:miter;stroke-miterlimit:4;stroke-opacity:1;stroke-dasharray:none"
           id="use3445" />
        <path
           d="m 497.792,139.225 c 1.056,-2.588 3.993,-0.306 6.132,1.54 1.472,1.27 1.141,3.81 0,5.08 -1.882,2.095 -6.254,1.93 -6.308,-0.856 -0.048,-2.493 -0.652,-3.738 0.176,-5.764 z"
           style="fill:#fcdd09;fill-opacity:1;fill-rule:evenodd;stroke:#000000;stroke-width:2.00508951999999980;stroke-linecap:butt;stroke-linejoin:miter;stroke-miterlimit:4;stroke-opacity:1;stroke-dasharray:none"
           id="use3447" />
        <path
           d="m 504.854,145.603 c 2.122,-1.864 8.026,-1.846 10.165,0 1.471,1.27 1.14,3.81 0,5.08 -1.882,2.095 -8.709,2.396 -10.165,0 -1.1,-1.809 -1.529,-3.738 0,-5.08 z"
           style="fill:#fcdd09;fill-opacity:1;fill-rule:evenodd;stroke:#000000;stroke-width:2.00508951999999980;stroke-linecap:butt;stroke-linejoin:miter;stroke-miterlimit:4;stroke-opacity:1;stroke-dasharray:none"
           id="use3449" />
        <path
           d="m 516.716,116.936 c 2.122,-1.864 8.026,-1.846 10.164,0 1.472,1.27 1.141,3.81 0,5.08 -1.882,2.095 -8.708,2.396 -10.164,0 -1.1,-1.809 -1.529,-3.738 0,-5.08 z"
           style="fill:#fcdd09;fill-opacity:1;fill-rule:evenodd;stroke:#000000;stroke-width:2.00508951999999980;stroke-linecap:butt;stroke-linejoin:miter;stroke-miterlimit:4;stroke-opacity:1;stroke-dasharray:none"
           id="use3451" />
        <path
           d="m 528.282,121.593 c 2.123,-1.864 4.632,-2.1 4.731,0.684 0.069,1.954 -0.087,3.639 -0.526,5.593 -0.613,2.722 -2.748,1.199 -4.205,-1.197 -1.099,-1.809 -1.528,-3.738 0,-5.08 z"
           style="fill:#fcdd09;fill-opacity:1;fill-rule:evenodd;stroke:#000000;stroke-width:2.00508951999999980;stroke-linecap:butt;stroke-linejoin:miter;stroke-miterlimit:4;stroke-opacity:1;stroke-dasharray:none"
           id="use3453" />
        <path
           d="m 516.754,125.04 c 2.122,-1.863 8.026,-1.846 10.165,0 1.471,1.27 1.141,3.81 0,5.08 -1.882,2.095 -8.709,2.397 -10.165,0 -1.1,-1.809 -1.528,-3.738 0,-5.08 z"
           style="fill:#fcdd09;fill-opacity:1;fill-rule:evenodd;stroke:#000000;stroke-width:2.00508951999999980;stroke-linecap:butt;stroke-linejoin:miter;stroke-miterlimit:4;stroke-opacity:1;stroke-dasharray:none"
           id="use3455" />
        <path
           d="m 527.848,129.878 c 2.123,-1.863 4.675,-2.099 4.555,0.685 -0.106,2.467 -0.437,3.126 -0.35,4.909 0.134,2.783 -2.748,1.883 -4.205,-0.513 -1.099,-1.81 -1.528,-3.739 0,-5.081 z"
           style="fill:#fcdd09;fill-opacity:1;fill-rule:evenodd;stroke:#000000;stroke-width:2.00508951999999980;stroke-linecap:butt;stroke-linejoin:miter;stroke-miterlimit:4;stroke-opacity:1;stroke-dasharray:none"
           id="use3457" />
        <path
           d="m 516.654,133.507 c 2.122,-1.863 8.026,-1.846 10.164,0 1.472,1.27 1.141,3.81 0,5.08 -1.882,2.095 -8.708,2.397 -10.164,0 -1.1,-1.809 -1.529,-3.738 0,-5.08 z"
           style="fill:#fcdd09;fill-opacity:1;fill-rule:evenodd;stroke:#000000;stroke-width:2.00508951999999980;stroke-linecap:butt;stroke-linejoin:miter;stroke-miterlimit:4;stroke-opacity:1;stroke-dasharray:none"
           id="use3459" />
        <path
           d="m 528.22,138.164 c 2.123,-1.863 3.44,-2.613 3.328,0.171 -0.106,2.639 -0.437,4.152 -0.35,5.08 0.257,2.775 -1.521,2.225 -2.978,-0.171 -1.099,-1.809 -1.528,-3.738 0,-5.08 z"
           style="fill:#fcdd09;fill-opacity:1;fill-rule:evenodd;stroke:#000000;stroke-width:2.00508951999999980;stroke-linecap:butt;stroke-linejoin:miter;stroke-miterlimit:4;stroke-opacity:1;stroke-dasharray:none"
           id="use3461" />
        <path
           d="m 516.692,141.611 c 2.123,-1.863 8.026,-1.845 10.165,0 1.471,1.27 1.141,3.81 0,5.08 -1.882,2.096 -8.709,2.397 -10.165,0 -1.1,-1.809 -1.528,-3.738 0,-5.08 z"
           style="fill:#fcdd09;fill-opacity:1;fill-rule:evenodd;stroke:#000000;stroke-width:2.00508951999999980;stroke-linecap:butt;stroke-linejoin:miter;stroke-miterlimit:4;stroke-opacity:1;stroke-dasharray:none"
           id="use3463" />
        <path
           d="m 527.786,146.45 c 2.123,-1.864 1.208,-3.409 3.153,-1.369 0.069,0.073 0.089,5.35 -1.052,6.62 -1.882,2.095 -0.644,2.225 -2.101,-0.171 -1.099,-1.81 -1.528,-3.738 0,-5.08 z"
           style="fill:#fcdd09;fill-opacity:1;fill-rule:evenodd;stroke:#000000;stroke-width:2.00508951999999980;stroke-linecap:butt;stroke-linejoin:miter;stroke-miterlimit:4;stroke-opacity:1;stroke-dasharray:none"
           id="use3465" />
        <path
           d="m 498.311,147.568 c -0.368,-2.763 3.994,-2.359 6.133,-0.514 1.471,1.27 1.14,3.811 0,5.081 -1.882,2.095 -5.239,2.696 -5.958,0 -0.574,-2.152 0.049,-2.883 -0.175,-4.567 z"
           style="fill:#fcdd09;fill-opacity:1;fill-rule:evenodd;stroke:#000000;stroke-width:2.00508951999999980;stroke-linecap:butt;stroke-linejoin:miter;stroke-miterlimit:4;stroke-opacity:1;stroke-dasharray:none"
           id="use3531" />
        <path
           d="m 505.846,151.711 c 2.122,-1.863 8.026,-1.845 10.164,0 1.472,1.27 1.141,3.81 0,5.08 -1.882,2.096 -8.708,2.397 -10.164,0 -1.1,-1.809 -1.529,-3.738 0,-5.08 z"
           style="fill:#fcdd09;fill-opacity:1;fill-rule:evenodd;stroke:#000000;stroke-width:2.00508951999999980;stroke-linecap:butt;stroke-linejoin:miter;stroke-miterlimit:4;stroke-opacity:1;stroke-dasharray:none"
           id="use3533" />
        <path
           d="m 499.576,154.816 c 1.166,-2.543 2.767,-1.503 4.906,0.343 1.472,1.27 1.141,3.81 0,5.08 -1.882,2.095 -2.397,3.936 -3.854,1.539 -1.099,-1.809 -1.353,-6.304 -1.052,-6.962 z"
           style="fill:#fcdd09;fill-opacity:1;fill-rule:evenodd;stroke:#000000;stroke-width:2.00508951999999980;stroke-linecap:butt;stroke-linejoin:miter;stroke-miterlimit:4;stroke-opacity:1;stroke-dasharray:none"
           id="use3535" />
        <path
           d="m 505.412,159.997 c 2.122,-1.864 8.026,-1.846 10.164,0 1.472,1.27 1.141,3.81 0,5.08 -1.882,2.095 -8.708,2.396 -10.164,0 -1.1,-1.809 -1.529,-3.738 0,-5.08 z"
           style="fill:#fcdd09;fill-opacity:1;fill-rule:evenodd;stroke:#000000;stroke-width:2.00508951999999980;stroke-linecap:butt;stroke-linejoin:miter;stroke-miterlimit:4;stroke-opacity:1;stroke-dasharray:none"
           id="use3537" />
        <path
           d="m 501.054,163.455 c 0.13,-2.784 1.189,-1.675 3.328,0.171 1.471,1.27 1.14,3.81 0,5.08 -1.882,2.095 -1.696,3.784 -2.101,1.026 -0.266,-1.809 -1.29,-4.936 -1.227,-6.277 z"
           style="fill:#fcdd09;fill-opacity:1;fill-rule:evenodd;stroke:#000000;stroke-width:2.00508951999999980;stroke-linecap:butt;stroke-linejoin:miter;stroke-miterlimit:4;stroke-opacity:1;stroke-dasharray:none"
           id="use3539" />
        <path
           d="m 505.784,168.282 c 2.122,-1.863 8.026,-1.845 10.164,0 1.472,1.271 1.141,3.811 0,5.081 -1.882,2.095 -8.708,2.396 -10.164,0 -1.1,-1.81 -1.529,-3.739 0,-5.081 z"
           style="fill:#fcdd09;fill-opacity:1;fill-rule:evenodd;stroke:#000000;stroke-width:2.00508951999999980;stroke-linecap:butt;stroke-linejoin:miter;stroke-miterlimit:4;stroke-opacity:1;stroke-dasharray:none"
           id="use3541" />
        <path
           d="m 505.35,176.568 c 2.122,-1.863 8.026,-1.846 10.164,0 1.472,1.27 1.141,3.81 0,5.08 -1.882,2.095 -6.78,1.199 -8.236,-1.197 -1.1,-1.81 -3.457,-2.541 -1.928,-3.883 z"
           style="fill:#fcdd09;fill-opacity:1;fill-rule:evenodd;stroke:#000000;stroke-width:2.00508951999999980;stroke-linecap:butt;stroke-linejoin:miter;stroke-miterlimit:4;stroke-opacity:1;stroke-dasharray:none"
           id="use3545" />
        <path
           d="m 517.211,147.901 c 2.123,-1.863 8.026,-1.846 10.165,0 1.472,1.27 1.141,3.81 0,5.08 -1.882,2.095 -8.708,2.397 -10.165,0 -1.099,-1.809 -1.528,-3.738 0,-5.08 z"
           style="fill:#fcdd09;fill-opacity:1;fill-rule:evenodd;stroke:#000000;stroke-width:2.00508951999999980;stroke-linecap:butt;stroke-linejoin:miter;stroke-miterlimit:4;stroke-opacity:1;stroke-dasharray:none"
           id="use3547" />
        <path
           d="m 517.25,156.005 c 2.122,-1.863 8.026,-1.845 10.165,0 1.471,1.27 1.14,3.81 0,5.08 -1.882,2.096 -8.709,2.397 -10.165,0 -1.1,-1.809 -1.529,-3.738 0,-5.08 z"
           style="fill:#fcdd09;fill-opacity:1;fill-rule:evenodd;stroke:#000000;stroke-width:2.00508951999999980;stroke-linecap:butt;stroke-linejoin:miter;stroke-miterlimit:4;stroke-opacity:1;stroke-dasharray:none"
           id="use3551" />
        <path
           d="m 517.013,164.457 c 1.88,-1.873 7.109,-1.855 9.004,0 1.303,1.278 1.01,3.832 0,5.109 -1.667,2.106 -7.714,2.409 -9.004,0 -0.974,-1.82 -1.354,-3.759 0,-5.109 z"
           style="fill:#fcdd09;fill-opacity:1;fill-rule:evenodd;stroke:#000000;stroke-width:2.00508951999999980;stroke-linecap:butt;stroke-linejoin:miter;stroke-miterlimit:4;stroke-opacity:1;stroke-dasharray:none"
           id="use3555" />
        <path
           d="m 517.188,172.576 c 2.122,-1.863 5.221,-2.529 7.36,-0.684 1.471,1.27 -1.314,5.008 -2.455,6.278 -1.882,2.095 -3.449,1.883 -4.905,-0.513 -1.1,-1.81 -1.529,-3.739 0,-5.081 z"
           style="fill:#fcdd09;fill-opacity:1;fill-rule:evenodd;stroke:#000000;stroke-width:2.00508951999999980;stroke-linecap:butt;stroke-linejoin:miter;stroke-miterlimit:4;stroke-opacity:1;stroke-dasharray:none"
           id="use3559" />
        <path
           d="m 516.716,180.802 c 2.122,-1.864 2.766,-3.899 4.905,-2.053 1.472,1.27 -0.612,0.389 -1.753,1.659 -1.882,2.095 -2.923,-1.709 -3.152,0.342 -0.234,2.091 -1.529,1.394 0,0.052 z"
           style="fill:#fcdd09;fill-opacity:1;fill-rule:evenodd;stroke:#000000;stroke-width:2.00508951999999980;stroke-linecap:butt;stroke-linejoin:miter;stroke-miterlimit:4;stroke-opacity:1;stroke-dasharray:none"
           id="use3579" />
        <path
           d="m 526.104,170.11 c -5.22,17.634 -11.62,12.234 -11.62,12.159 0,0 -8.27,4.218 -12.674,-12.478 -5.466,-20.718 -7.989,-62.839 -7.875,-75.2492 0.011,-1.1611 0.045,-2.0621 0.101,-2.6612 0.7,-7.4125 5.226,-40.138 10.582,-46.839 0.238,-0.2988 2.553,-8.0395 11.632,-7.8685 7.545,0.1395 9.652,7.2907 9.854,7.5264 5.378,6.275 9.173,46.3829 9.173,46.3829 0,0 -1.451,37.5806 -5.671,63.3216 -1.004,6.129 -2.274,11.555 -3.502,15.706 z"
           style="fill:#fcdd09;fill-opacity:0;fill-rule:evenodd;stroke:#000000;stroke-width:2.00508951999999980;stroke-linecap:butt;stroke-linejoin:miter;stroke-miterlimit:4;stroke-opacity:1;stroke-dasharray:none"
           id="use3924" />
      </g>
      <path
         d="m 552.518,988.564 c 21.647,-29.862 32.836,-59.112 35.799,-94.339 0.385,-4.578 1.574,-80.849 3.74,-76.648 2.88,5.586 16.535,-66.144 15.135,-65.327 0,0 2.388,54.964 1.823,95.376 -0.565,40.325 0,20.047 -6.683,66.217 -7.285,50.335 -49.207,129.397 -49.207,129.397 l -0.607,-54.676 z"
         style="fill:#81b31c;fill-opacity:1;fill-rule:evenodd;stroke:#000000;stroke-width:3.56037473999999990;stroke-linecap:butt;stroke-linejoin:miter;stroke-miterlimit:4;stroke-opacity:1;stroke-dasharray:none"
         id="path2254" />
      <path
         d="m 501.352,756.533 c 9.908,15.392 22.479,18.15 25.774,66.582 1.542,22.679 -7.476,34.639 -2.148,54.555 2.571,9.611 13.634,82.736 12.457,85.482 -12.797,-0.07 -46.212,-88.826 -33.506,-120.706 22.408,-56.224 -1.235,-59.27 -2.577,-85.913 z"
         style="fill:#81b31c;fill-opacity:1;fill-rule:evenodd;stroke:#000000;stroke-width:3.56037473999999990;stroke-linecap:butt;stroke-linejoin:miter;stroke-miterlimit:4;stroke-opacity:1;stroke-dasharray:none"
         id="path3229" />
      <path
         d="m 553.758,1043.91 c 18.185,-18.13 27.779,-26.6 44.245,-87.201 6.855,-24.106 20.856,-51.069 33.076,-77.321 -25.208,28.006 -47.909,59.756 -58.849,94.503 -4.615,14.658 -10.539,44.679 -18.472,70.019 z"
         style="fill:#81b31c;fill-opacity:1;fill-rule:evenodd;stroke:#000000;stroke-width:3.56037473999999990;stroke-linecap:butt;stroke-linejoin:miter;stroke-miterlimit:4;stroke-opacity:1;stroke-dasharray:none"
         id="path3231" />
      <path
         d="m 491.901,787.891 c 0.956,77.654 -25.172,152.965 61.428,255.439 l -0.43,-51.827 C 544.647,951.894 527.432,938.787 517.24,921.917 494.448,884.189 504.315,829.775 491.901,787.891 z"
         style="fill:#81b31c;fill-opacity:1;fill-rule:evenodd;stroke:#000000;stroke-width:3.56037473999999990;stroke-linecap:butt;stroke-linejoin:miter;stroke-miterlimit:4;stroke-opacity:1;stroke-dasharray:none"
         id="path4202" />
    </g>
  </g>
</svg>
