<?xml version="1.0" encoding="UTF-8" standalone="no"?>
<!-- Created with Inkscape (http://www.inkscape.org/) -->
<svg
   xmlns:dc="http://purl.org/dc/elements/1.1/"
   xmlns:cc="http://creativecommons.org/ns#"
   xmlns:rdf="http://www.w3.org/1999/02/22-rdf-syntax-ns#"
   xmlns:svg="http://www.w3.org/2000/svg"
   xmlns="http://www.w3.org/2000/svg"
   xmlns:sodipodi="http://sodipodi.sourceforge.net/DTD/sodipodi-0.dtd"
   xmlns:inkscape="http://www.inkscape.org/namespaces/inkscape"
   width="750"
   height="500"
   id="svg2822"
   version="1.1"
   inkscape:version="0.46"
   sodipodi:docname="Flag_of_Piedecuesta_(Santander).svg"
   sodipodi:version="0.32"
   inkscape:output_extension="org.inkscape.output.svg.inkscape">
  <defs
     id="defs2824" />
  <sodipodi:namedview
     id="base"
     pagecolor="#ffffff"
     bordercolor="#666666"
     borderopacity="1.0"
     inkscape:pageopacity="0.0"
     inkscape:pageshadow="2"
     inkscape:zoom="1.014"
     inkscape:cx="375"
     inkscape:cy="250"
     inkscape:document-units="px"
     inkscape:current-layer="layer1"
     showgrid="false"
     inkscape:window-width="1024"
     inkscape:window-height="712"
     inkscape:window-x="-4"
     inkscape:window-y="-4"
     inkscape:window-maximized="1" />
  <metadata
     id="metadata2827">
    <rdf:RDF>
      <cc:Work
         rdf:about="">
        <dc:format>image/svg+xml</dc:format>
        <dc:type
           rdf:resource="http://purl.org/dc/dcmitype/StillImage" />
        <dc:title />
      </cc:Work>
    </rdf:RDF>
  </metadata>
  <g
     inkscape:label="Capa 1"
     inkscape:groupmode="layer"
     id="layer1"
     transform="translate(0,-552.36218)">
    <rect
       style="fill:#078930;fill-opacity:1;stroke:none"
       id="rect2832"
       width="750"
       height="166.666"
       x="0"
       y="-5.6843419e-14"
       transform="translate(0,552.36218)" />
    <rect
       style="fill:#ffffff;fill-opacity:1;stroke:none"
       id="rect2834"
       width="750"
       height="166.666"
       x="0"
       y="719.03015" />
    <rect
       style="fill:#da121a;fill-opacity:1;stroke:none"
       id="rect2836"
       width="750"
       height="166.666"
       x="0"
       y="885.69617" />
    <path
       transform="scale(1.1,0.9090909)"
       style="font-size:252.99998474px;font-style:normal;font-variant:normal;font-weight:normal;font-stretch:normal;text-align:start;line-height:100%;writing-mode:lr-tb;text-anchor:start;fill:#000000;fill-opacity:1;stroke:none;stroke-width:1px;stroke-linecap:butt;stroke-linejoin:miter;stroke-opacity:1;font-family:Arial;-inkscape-font-specification:Arial"
       d="M 328.5332,973.08228 L 258.36523,791.97975 L 284.30762,791.97975 L 331.37451,923.54468 C 335.16284,934.08639 338.33357,943.96919 340.88671,953.19312 C 343.68676,943.31033 346.93985,933.42753 350.64599,923.54468 L 399.56591,791.97975 L 424.02587,791.97975 L 353.11669,973.08228 L 328.5332,973.08228 z"
       id="text2382" />
    <g
       transform="matrix(0.609667,-0.3996837,0.3996837,0.609667,-283.7953,476.49557)"
       id="g3183"
       inkscape:label="Capa 1">
      <g
         style="stroke:#000000;stroke-width:0.37305999;stroke-miterlimit:4;stroke-dasharray:none;stroke-opacity:1"
         inkscape:label="Capa 1"
         id="g2410"
         transform="matrix(1.8875964,0,0,1.865218,-278.98459,-689.80491)">
        <path
           style="fill:#078930;fill-opacity:1;stroke:#000000;stroke-width:0.37305999;stroke-miterlimit:4;stroke-dasharray:none;stroke-opacity:1"
           id="path783"
           d="" />
        <path
           style="fill:#078930;fill-opacity:1;stroke:#000000;stroke-width:0.37305999;stroke-miterlimit:4;stroke-dasharray:none;stroke-opacity:1"
           id="path1607"
           d="" />
        <path
           style="fill:#078930;fill-opacity:1;stroke:#000000;stroke-width:0.37305999;stroke-miterlimit:4;stroke-dasharray:none;stroke-opacity:1"
           id="path1609"
           d="" />
        <path
           style="fill:#078930;fill-opacity:1;stroke:#000000;stroke-width:0.37305999;stroke-miterlimit:4;stroke-dasharray:none;stroke-opacity:1"
           id="path1613"
           d="" />
        <path
           style="fill:#078930;fill-opacity:1;stroke:#000000;stroke-width:0.37305999;stroke-miterlimit:4;stroke-dasharray:none;stroke-opacity:1"
           id="path1737"
           d="" />
        <path
           style="fill:#078930;fill-opacity:1;stroke:#000000;stroke-width:0.37305999;stroke-miterlimit:4;stroke-dasharray:none;stroke-opacity:1"
           id="path1739"
           d="" />
        <path
           style="fill:#078930;fill-opacity:1;stroke:#000000;stroke-width:0.37305999;stroke-miterlimit:4;stroke-dasharray:none;stroke-opacity:1"
           id="path1741"
           d="" />
        <path
           style="fill:#078930;fill-opacity:1;stroke:#000000;stroke-width:0.37305999;stroke-miterlimit:4;stroke-dasharray:none;stroke-opacity:1"
           inkscape:connector-curvature="0"
           id="path1781"
           d="M 338.4333,817.15231 C 338.4333,817.15231 337.85752,821.83539 340.21649,823.62667 C 340.21649,823.62667 339.19979,826.89602 341.22864,828.72554 C 341.22864,828.72554 339.01438,830.93127 340.51706,833.35996 C 340.51706,833.35996 338.18909,838.52253 339.747,840.34644 C 339.747,840.34644 344.60635,841.77309 346.78039,840.9718 C 346.78039,840.9718 349.01257,837.83318 347.61455,833.37878 C 347.61455,833.37878 349.23195,830.17145 347.22456,827.4037 C 347.22456,827.4037 349.66991,823.22416 346.91276,820.34592 C 346.91276,820.34592 347.66053,816.50725 346.20956,813.93889 C 346.21154,813.93796 340.10285,818.21862 338.4333,817.15231 L 338.4333,817.15231 z" />
        <path
           style="fill:#078930;fill-opacity:1;stroke:#000000;stroke-width:0.37305999;stroke-miterlimit:4;stroke-dasharray:none;stroke-opacity:1"
           inkscape:connector-curvature="0"
           id="path1791"
           d="M 345.65367,813.73804 C 345.65367,813.73804 333.38302,803.50208 322.89447,808.1083 C 322.89447,808.1083 334.31745,814.09698 335.00615,817.02661 C 335.6935,819.95083 345.3565,816.31932 345.65367,813.73804 L 345.65367,813.73804 z" />
        <path
           style="fill:#078930;fill-opacity:1;stroke:#000000;stroke-width:0.37305999;stroke-miterlimit:4;stroke-dasharray:none;stroke-opacity:1"
           inkscape:connector-curvature="0"
           id="path1795"
           d="M 338.15804,820.99222 C 338.15804,820.99222 337.39096,819.61487 336.34506,818.13265 C 335.29612,816.65428 324.56297,809.17754 318.7713,820.0416 C 318.7713,820.0416 318.49302,807.16051 325.33941,807.87542 C 332.19019,808.5919 335.91997,814.03516 338.15804,820.99222" />
        <path
           style="fill:#078930;fill-opacity:1;stroke:#000000;stroke-width:0.37305999;stroke-miterlimit:4;stroke-dasharray:none;stroke-opacity:1"
           inkscape:connector-curvature="0"
           id="path1799"
           d="M 337.26186,794.22339 C 337.26186,794.22339 338.24597,805.18545 339.68836,806.22804 C 341.13109,807.25592 342.84909,806.0671 342.84909,806.0671 C 342.84909,806.0671 340.15877,795.5252 337.26186,794.22339 z" />
        <path
           style="fill:#078930;fill-opacity:1;stroke:#000000;stroke-width:0.37305999;stroke-miterlimit:4;stroke-dasharray:none;stroke-opacity:1"
           inkscape:connector-curvature="0"
           id="path1803"
           d="M 339.22845,778.62349 C 339.22845,778.62349 339.91138,765.15248 334.4062,766.80179 C 328.89756,768.45152 326.92169,777.57501 326.92169,777.57501 C 326.92169,777.57501 321.40857,765.51067 329.00196,760.20477 C 336.60254,754.90638 343.66694,766.23795 339.22845,778.62349 z" />
        <path
           style="fill:#078930;fill-opacity:1;stroke:#000000;stroke-width:0.37305999;stroke-miterlimit:4;stroke-dasharray:none;stroke-opacity:1"
           inkscape:connector-curvature="0"
           id="path1807"
           d="M 340.13222,807.15998 C 340.13222,807.15998 339.31004,809.45425 340.67102,810.71485 C 342.03042,811.97983 344.60181,814.19001 345.09271,812.82016 C 345.5857,811.44448 345.18521,805.34697 344.01523,805.70552 C 342.84909,806.0671 341.25312,805.48527 340.13222,807.15998 z" />
        <path
           style="fill:#078930;fill-opacity:1;stroke:#000000;stroke-width:0.37305999;stroke-miterlimit:4;stroke-dasharray:none;stroke-opacity:1"
           inkscape:connector-curvature="0"
           id="path1811"
           d="M 342.47865,791.95328 C 342.47865,791.95328 345.80022,781.24057 354.07661,779.79994 C 354.07661,779.79994 355.37188,780.53109 356.80068,778.71458 C 356.80068,778.71458 346.52359,790.03775 345.74764,797.26602 L 345.19063,798.10295" />
        <path
           style="fill:#078930;fill-opacity:1;stroke:#000000;stroke-width:0.37305999;stroke-miterlimit:4;stroke-dasharray:none;stroke-opacity:1"
           inkscape:connector-curvature="0"
           id="path1815"
           d="M 348.45466,779.60457 C 348.45466,779.60457 370.04741,758.35048 381.98174,772.72088 C 381.98174,772.72088 365.00418,770.26223 355.24397,779.44869 L 346.46757,785.87147 L 348.45466,779.60457 z" />
        <path
           style="fill:#078930;fill-opacity:1;stroke:#000000;stroke-width:0.37305999;stroke-miterlimit:4;stroke-dasharray:none;stroke-opacity:1"
           inkscape:connector-curvature="0"
           id="path1819"
           d="M 338.43487,786.61832 C 338.43487,786.61832 340.92742,768.10219 339.45574,764.9892 C 337.98272,761.87077 334.9873,757.95135 329.00196,760.20477 C 329.00196,760.20477 339.58184,755.9691 345.92975,764.97741 C 352.27579,773.98173 347.07173,782.72785 347.07173,782.72785 L 341.88283,794.32866 L 338.03875,786.99711" />
        <path
           style="fill:#078930;fill-opacity:1;stroke:#000000;stroke-width:0.37305999;stroke-miterlimit:4;stroke-dasharray:none;stroke-opacity:1"
           inkscape:connector-curvature="0"
           id="path1823"
           d="M 344.42418,811.79782 C 344.42418,811.79782 339.55606,777.70929 322.38219,794.588 C 322.38219,794.588 318.65283,799.20058 319.97791,802.00067 C 319.97791,802.00067 315.95071,795.90207 322.09203,786.71566 C 328.22648,777.53009 343.32754,788.11294 345.1897,798.10097 C 347.04612,808.08201 346.94511,812.70946 346.09358,812.91516 C 345.23743,813.1291 344.42418,811.79782 344.42418,811.79782 L 344.42418,811.79782 z" />
        <path
           style="fill:#078930;fill-opacity:1;stroke:#000000;stroke-width:0.37305999;stroke-miterlimit:4;stroke-dasharray:none;stroke-opacity:1"
           id="path2057"
           d="" />
        <path
           style="fill:#078930;fill-opacity:1;stroke:#000000;stroke-width:0.37305999;stroke-miterlimit:4;stroke-dasharray:none;stroke-opacity:1"
           id="path2117"
           d="" />
      </g>
    </g>
    <g
       id="g3249"
       transform="matrix(0.5859111,7.339322e-2,-7.339322e-2,0.5859111,502.74345,432.45204)">
      <g
         style="display:inline"
         id="g3251"
         inkscape:label="Ornamentos" />
      <g
         style="display:inline"
         inkscape:label="Timbre"
         id="layer2" />
      <g
         style="display:inline"
         inkscape:label="Escudo"
         id="layer3" />
      <g
         style="display:inline"
         inkscape:label="Piezas"
         id="layer4" />
      <g
         style="display:inline"
         inkscape:label="Muebles"
         id="layer5">
        <g
           style="stroke:#000000;stroke-width:0.99585664;stroke-linecap:round;stroke-linejoin:round;stroke-miterlimit:4;stroke-dasharray:none;stroke-opacity:1"
           transform="matrix(0.994862,0,0,1.0135461,-227.72498,-100.89651)"
           id="g15389">
          <g
             transform="matrix(0.3970651,0.7961636,-0.7915097,0.4139489,1386.2344,811.99444)"
             style="fill:#eac102;stroke:#000000;stroke-width:1.1172235;stroke-linecap:round;stroke-linejoin:round;stroke-miterlimit:4;stroke-dasharray:none;stroke-opacity:1"
             id="g15292">
            <path
               style="fill:#704d25;stroke:#000000;stroke-width:1.11722349999999990;stroke-linecap:round;stroke-linejoin:round;stroke-miterlimit:4;stroke-dasharray:none;stroke-opacity:1;fill-opacity:1"
               d="M -681.96347,993.63949 C -668.87924,994.80315 -658.0449,1004.6064 -646.22113,1013.7355 C -632.67945,1024.191 -626.36892,1039.6464 -622.08697,1052.8257 C -618.95746,1062.4579 -623.25576,1072.8507 -631.55713,1081.6847 C -644.57761,1087.0407 -663.91059,1072.5031 -665.80007,1070.2597 C -669.19368,1066.2303 -679.34041,1056.2899 -683.23047,1045.718 C -692.73534,1019.8873 -686.18631,1009.2751 -681.96347,993.63949 L -681.96347,993.63949 z"
               id="path15294"
               sodipodi:nodetypes="csscssc" />
            <path
               style="fill:none;stroke:#000000;stroke-width:1.11722349999999990;stroke-linecap:round;stroke-linejoin:round;stroke-miterlimit:4;stroke-dasharray:none;stroke-opacity:1"
               d="M -638.51256,1065.5355 C -646.92258,1066.8462 -658.52502,1064.9645 -672.11396,1061.0962"
               id="path15296"
               sodipodi:nodetypes="cc" />
            <path
               style="fill:none;stroke:#000000;stroke-width:1.11722349999999990;stroke-linecap:round;stroke-linejoin:round;stroke-miterlimit:4;stroke-dasharray:none;stroke-opacity:1"
               d="M -640.05546,1059.3284 C -635.52658,1053.3535 -630.2562,1048.1942 -630.2448,1037.25"
               id="path15298"
               sodipodi:nodetypes="cc" />
            <path
               style="fill:none;stroke:#000000;stroke-width:1.11722349999999990;stroke-linecap:round;stroke-linejoin:round;stroke-miterlimit:4;stroke-dasharray:none;stroke-opacity:1"
               d="M -648.7448,1045.4801 C -659.80687,1044.2619 -670.49278,1044.0781 -683.3514,1037.9194"
               id="path15300"
               sodipodi:nodetypes="cc" />
            <path
               style="fill:none;stroke:#000000;stroke-width:1.11722349999999990;stroke-linecap:round;stroke-linejoin:round;stroke-miterlimit:4;stroke-dasharray:none;stroke-opacity:1"
               d="M -650.39124,1039.9926 C -646.99598,1034.0675 -643.72474,1028.0597 -644.48223,1019.3661"
               id="path15302"
               sodipodi:nodetypes="cc" />
            <path
               style="fill:none;stroke:#000000;stroke-width:1.11722349999999990;stroke-linecap:round;stroke-linejoin:round;stroke-miterlimit:4;stroke-dasharray:none;stroke-opacity:1"
               d="M -662.76256,1023.1088 C -666.23424,1023.6418 -675.71278,1021.0265 -684.82843,1014.9749"
               id="path15304"
               sodipodi:nodetypes="cc" />
            <path
               style="fill:none;stroke:#000000;stroke-width:1.11722349999999990;stroke-linecap:round;stroke-linejoin:round;stroke-miterlimit:4;stroke-dasharray:none;stroke-opacity:1"
               d="M -663.92157,1019.8033 C -661.5806,1015.4532 -659.42739,1010.9905 -659.40381,1005.25"
               id="path15306"
               sodipodi:nodetypes="cc" />
            <path
               style="fill:#704d25;stroke:#000000;stroke-width:1.11722349999999990;stroke-linecap:round;stroke-linejoin:round;stroke-miterlimit:4;stroke-dasharray:none;stroke-opacity:1;fill-opacity:1"
               d="M -627.92245,1097.5927 C -627.95915,1060.7005 -681.74016,993.95244 -681.74016,993.95244 C -663.26989,1024.3748 -631.87195,1063.3308 -631.59019,1096.6564 L -627.92245,1097.5931 L -627.92245,1097.5927 z"
               id="path15308"
               sodipodi:nodetypes="ccccc" />
          </g>
          <path
             style="fill:#704d25;fill-opacity:1;fill-rule:evenodd;stroke:#000000;stroke-width:0.99585663999999996;stroke-linecap:round;stroke-linejoin:round;stroke-miterlimit:4;stroke-dasharray:none;stroke-opacity:1;display:inline"
             d="M 289.28885,732.26744 C 270.58419,775.03031 244.51676,811.41437 224.45103,836.75312 L 218.2701,832.26676 C 238.62316,807.86109 265.0291,770.22914 283.96267,729.56898 L 289.28885,732.26744 L 289.28885,732.26744 z"
             id="path14497-1"
             sodipodi:nodetypes="ccccc" />
          <g
             id="g15260"
             style="fill:#eac102;stroke:#000000;stroke-width:1.02092183;stroke-linecap:round;stroke-linejoin:round;stroke-miterlimit:4;stroke-dasharray:none;stroke-opacity:1"
             transform="matrix(1.0032482,0.2992235,-0.3229016,0.8521122,1260.3476,-1.4401465)">
            <path
               sodipodi:nodetypes="csscssc"
               id="path14472"
               d="M -681.96347,993.63949 C -668.87924,994.80315 -658.0449,1004.6064 -646.22113,1013.7355 C -632.67945,1024.191 -626.36892,1039.6464 -622.08697,1052.8257 C -618.95746,1062.4579 -623.25576,1072.8507 -631.55713,1081.6847 C -644.57761,1087.0407 -663.91059,1072.5031 -665.80007,1070.2597 C -669.19368,1066.2303 -679.34041,1056.2899 -683.23047,1045.718 C -692.73534,1019.8873 -686.18631,1009.2751 -681.96347,993.63949 L -681.96347,993.63949 z"
               style="fill:#704d25;stroke:#000000;stroke-width:1.02092183000000000;stroke-linecap:round;stroke-linejoin:round;stroke-miterlimit:4;stroke-dasharray:none;stroke-opacity:1;fill-opacity:1" />
            <path
               sodipodi:nodetypes="cc"
               id="path14476"
               d="M -638.51256,1065.5355 C -646.92258,1066.8462 -658.52502,1064.9645 -672.11396,1061.0962"
               style="fill:none;stroke:#000000;stroke-width:1.02092183000000000;stroke-linecap:round;stroke-linejoin:round;stroke-miterlimit:4;stroke-dasharray:none;stroke-opacity:1" />
            <path
               sodipodi:nodetypes="cc"
               id="path14478"
               d="M -640.05546,1059.3284 C -635.52658,1053.3535 -630.2562,1048.1942 -630.2448,1037.25"
               style="fill:none;stroke:#000000;stroke-width:1.02092183000000000;stroke-linecap:round;stroke-linejoin:round;stroke-miterlimit:4;stroke-dasharray:none;stroke-opacity:1" />
            <path
               sodipodi:nodetypes="cc"
               id="path14480"
               d="M -648.7448,1045.4801 C -659.80687,1044.2619 -670.49278,1044.0781 -683.3514,1037.9194"
               style="fill:none;stroke:#000000;stroke-width:1.02092183000000000;stroke-linecap:round;stroke-linejoin:round;stroke-miterlimit:4;stroke-dasharray:none;stroke-opacity:1" />
            <path
               sodipodi:nodetypes="cc"
               id="path14482"
               d="M -650.39124,1039.9926 C -646.99598,1034.0675 -643.72474,1028.0597 -644.48223,1019.3661"
               style="fill:none;stroke:#000000;stroke-width:1.02092183000000000;stroke-linecap:round;stroke-linejoin:round;stroke-miterlimit:4;stroke-dasharray:none;stroke-opacity:1" />
            <path
               sodipodi:nodetypes="cc"
               id="path14484"
               d="M -662.76256,1023.1088 C -666.23424,1023.6418 -675.71278,1021.0265 -684.82843,1014.9749"
               style="fill:none;stroke:#000000;stroke-width:1.02092183000000000;stroke-linecap:round;stroke-linejoin:round;stroke-miterlimit:4;stroke-dasharray:none;stroke-opacity:1" />
            <path
               sodipodi:nodetypes="cc"
               id="path14486"
               d="M -663.92157,1019.8033 C -661.5806,1015.4532 -659.42739,1010.9905 -659.40381,1005.25"
               style="fill:none;stroke:#000000;stroke-width:1.02092183000000000;stroke-linecap:round;stroke-linejoin:round;stroke-miterlimit:4;stroke-dasharray:none;stroke-opacity:1" />
            <path
               sodipodi:nodetypes="ccc"
               id="path14474"
               d="M -623.89087,1101.3679 C -626.42645,1082.2429 -657.82186,1024.8981 -681.74016,993.95244 C -663.26989,1024.3748 -628.02497,1082.6775 -627.3395,1101.1922"
               style="fill:#704d25;stroke:#000000;stroke-width:1.02092183000000000;stroke-linecap:round;stroke-linejoin:round;stroke-miterlimit:4;stroke-dasharray:none;stroke-opacity:1;fill-opacity:1" />
          </g>
          <g
             transform="matrix(0.8783874,0.1504726,-0.136623,0.8272401,960.99584,-36.617796)"
             style="fill:#eac102;stroke:#000000;stroke-width:1.15207231;stroke-linecap:round;stroke-linejoin:round;stroke-miterlimit:4;stroke-dasharray:none;stroke-opacity:1"
             id="g15310">
            <path
               style="fill:#704d25;stroke:#000000;stroke-width:1.15207231000000010;stroke-linecap:round;stroke-linejoin:round;stroke-miterlimit:4;stroke-dasharray:none;stroke-opacity:1;fill-opacity:1"
               d="M -681.96347,993.63949 C -668.87924,994.80315 -658.0449,1004.6064 -646.22113,1013.7355 C -632.67945,1024.191 -626.36892,1039.6464 -622.08697,1052.8257 C -618.95746,1062.4579 -623.25576,1072.8507 -631.55713,1081.6847 C -644.57761,1087.0407 -663.91059,1072.5031 -665.80007,1070.2597 C -669.19368,1066.2303 -679.34041,1056.2899 -683.23047,1045.718 C -692.73534,1019.8873 -686.18631,1009.2751 -681.96347,993.63949 L -681.96347,993.63949 z"
               id="path15312"
               sodipodi:nodetypes="csscssc" />
            <path
               style="fill:none;stroke:#000000;stroke-width:1.15207231000000010;stroke-linecap:round;stroke-linejoin:round;stroke-miterlimit:4;stroke-dasharray:none;stroke-opacity:1"
               d="M -638.51256,1065.5355 C -646.92258,1066.8462 -658.52502,1064.9645 -672.11396,1061.0962"
               id="path15314"
               sodipodi:nodetypes="cc" />
            <path
               style="fill:none;stroke:#000000;stroke-width:1.15207231000000010;stroke-linecap:round;stroke-linejoin:round;stroke-miterlimit:4;stroke-dasharray:none;stroke-opacity:1"
               d="M -640.05546,1059.3284 C -635.52658,1053.3535 -630.2562,1048.1942 -630.2448,1037.25"
               id="path15316"
               sodipodi:nodetypes="cc" />
            <path
               style="fill:none;stroke:#000000;stroke-width:1.15207231000000010;stroke-linecap:round;stroke-linejoin:round;stroke-miterlimit:4;stroke-dasharray:none;stroke-opacity:1"
               d="M -648.7448,1045.4801 C -659.80687,1044.2619 -670.49278,1044.0781 -683.3514,1037.9194"
               id="path15318"
               sodipodi:nodetypes="cc" />
            <path
               style="fill:none;stroke:#000000;stroke-width:1.15207231000000010;stroke-linecap:round;stroke-linejoin:round;stroke-miterlimit:4;stroke-dasharray:none;stroke-opacity:1"
               d="M -650.39124,1039.9926 C -646.99598,1034.0675 -643.72474,1028.0597 -644.48223,1019.3661"
               id="path15320"
               sodipodi:nodetypes="cc" />
            <path
               style="fill:none;stroke:#000000;stroke-width:1.15207231000000010;stroke-linecap:round;stroke-linejoin:round;stroke-miterlimit:4;stroke-dasharray:none;stroke-opacity:1"
               d="M -662.76256,1023.1088 C -666.23424,1023.6418 -675.71278,1021.0265 -684.82843,1014.9749"
               id="path15322"
               sodipodi:nodetypes="cc" />
            <path
               style="fill:none;stroke:#000000;stroke-width:1.15207231000000010;stroke-linecap:round;stroke-linejoin:round;stroke-miterlimit:4;stroke-dasharray:none;stroke-opacity:1"
               d="M -663.92157,1019.8033 C -661.5806,1015.4532 -659.42739,1010.9905 -659.40381,1005.25"
               id="path15324"
               sodipodi:nodetypes="cc" />
            <path
               style="fill:#704d25;stroke:#000000;stroke-width:1.15207231000000010;stroke-linecap:round;stroke-linejoin:round;stroke-miterlimit:4;stroke-dasharray:none;stroke-opacity:1;fill-opacity:1"
               d="M -622.72652,1094.8497 C -629.97616,1062.1782 -660.35855,1021.6161 -681.74016,993.95244 C -665.46227,1020.7637 -633.30072,1063.2454 -626.18414,1095.9235"
               id="path15326"
               sodipodi:nodetypes="ccc" />
          </g>
          <path
             style="fill:#704d25;fill-opacity:1;fill-rule:evenodd;stroke:#000000;stroke-width:0.99585663999999996;stroke-linecap:round;stroke-linejoin:round;stroke-miterlimit:4;stroke-dasharray:none;stroke-opacity:1"
             d="M 224.00344,837.08407 C 223.27533,837.93573 221.41032,837.5399 219.83785,836.19994 C 218.26539,834.86 217.58092,833.08336 218.30905,832.23169 C 219.03716,831.38003 220.90217,831.77587 222.47464,833.11581 C 224.0471,834.45577 224.73157,836.23241 224.00344,837.08407 z"
             id="path15386" />
        </g>
      </g>
      <g
         style="display:inline"
         inkscape:label="Borde 3px"
         id="layer6" />
    </g>
    <g
       transform="matrix(0.2287678,0,0,0.2287678,302.40384,662.13828)"
       inkscape:label="Meuble"
       id="g3369">
      <g
         transform="translate(-20.865741,-29.212038)"
         id="g3285">
        <g
           id="g3277"
           transform="matrix(1.5646291,0,0,1.5646291,879.03931,-275.25521)">
          <path
             sodipodi:nodetypes="cccccc"
             id="path3234"
             d="M -345.19761,366.88913 L -345.19761,475.13016 C -378.86226,465.85003 -413.38212,471.38467 -447.70056,473.56523 L -420.65661,374.942 L -412.01688,364.44392 C -387.6775,363.25879 -359.45827,359.29602 -345.19761,366.88913 z"
             style="fill:#ffffff;fill-opacity:1;fill-rule:evenodd;stroke:#000000;stroke-width:1;stroke-linecap:butt;stroke-linejoin:miter;marker:none;marker-start:none;marker-mid:none;marker-end:none;stroke-miterlimit:4;stroke-dasharray:none;stroke-dashoffset:0;stroke-opacity:1;visibility:visible;display:inline;overflow:visible;enable-background:accumulate" />
          <path
             sodipodi:nodetypes="cs"
             id="path3236"
             d="M -345.19761,473.63016 C -378.31838,463.74263 -412.03901,469.40193 -446.13604,471.92846 L -419.14058,373.47488"
             style="fill:none;fill-opacity:1;fill-rule:evenodd;stroke:#000000;stroke-width:0.30000001;stroke-linecap:butt;stroke-linejoin:miter;marker:none;marker-start:none;marker-mid:none;marker-end:none;stroke-miterlimit:4;stroke-dasharray:none;stroke-dashoffset:0;stroke-opacity:1;visibility:visible;display:inline;overflow:visible;enable-background:accumulate" />
          <path
             sodipodi:nodetypes="cs"
             style="fill:none;fill-opacity:1;fill-rule:evenodd;stroke:#000000;stroke-width:0.30000001;stroke-linecap:butt;stroke-linejoin:miter;marker:none;marker-start:none;marker-mid:none;marker-end:none;stroke-miterlimit:4;stroke-dasharray:none;stroke-dashoffset:0;stroke-opacity:1;visibility:visible;display:inline;overflow:visible;enable-background:accumulate"
             d="M -345.19761,471.63016 C -377.78163,461.87043 -410.53794,468.29355 -444.0471,469.9383 L -417.57565,371.77953"
             id="path3238" />
          <path
             sodipodi:nodetypes="cs"
             id="path3240"
             d="M -345.19761,469.63016 C -377.32333,460.29875 -408.74335,465.15863 -441.37272,467.65879 L -415.16305,368.45406"
             style="fill:none;fill-opacity:1;fill-rule:evenodd;stroke:#000000;stroke-width:0.30000001;stroke-linecap:butt;stroke-linejoin:miter;marker:none;marker-start:none;marker-mid:none;marker-end:none;stroke-miterlimit:4;stroke-dasharray:none;stroke-dashoffset:0;stroke-opacity:1;visibility:visible;display:inline;overflow:visible;enable-background:accumulate" />
          <path
             sodipodi:nodetypes="cs"
             style="fill:none;fill-opacity:1;fill-rule:evenodd;stroke:#000000;stroke-width:0.30000001;stroke-linecap:butt;stroke-linejoin:miter;marker:none;marker-start:none;marker-mid:none;marker-end:none;stroke-miterlimit:4;stroke-dasharray:none;stroke-dashoffset:0;stroke-opacity:1;visibility:visible;display:inline;overflow:visible;enable-background:accumulate"
             d="M -345.19761,467.63016 C -376.74287,458.48036 -407.09243,462.97182 -439.02506,465.51791 L -413.20689,366.30228"
             id="path3242" />
          <path
             sodipodi:nodetypes="cs"
             id="path3244"
             d="M -345.19761,465.63016 C -376.22428,456.44028 -405.4518,460.63993 -436.41924,463.25838 L -411.70716,364.54173"
             style="fill:none;fill-opacity:1;fill-rule:evenodd;stroke:#000000;stroke-width:0.30000001;stroke-linecap:butt;stroke-linejoin:miter;marker:none;marker-start:none;marker-mid:none;marker-end:none;stroke-miterlimit:4;stroke-dasharray:none;stroke-dashoffset:0;stroke-opacity:1;visibility:visible;display:inline;overflow:visible;enable-background:accumulate" />
        </g>
        <g
           id="g3254"
           transform="matrix(-1.5646291,0,0,1.5646291,-199.70109,-275.25521)">
          <path
             style="opacity:1;fill:#ffffff;fill-opacity:1;fill-rule:evenodd;stroke:#000000;stroke-width:1;stroke-linecap:butt;stroke-linejoin:miter;marker:none;marker-start:none;marker-mid:none;marker-end:none;stroke-miterlimit:4;stroke-dasharray:none;stroke-dashoffset:0;stroke-opacity:1;visibility:visible;display:inline;overflow:visible;enable-background:accumulate"
             d="M -345.19761,366.88913 L -345.19761,475.13016 C -378.86226,465.85003 -413.38212,471.38467 -447.70056,473.56523 L -420.65661,374.942 L -412.01688,364.44392 C -387.6775,363.25879 -359.45827,359.29602 -345.19761,366.88913 z"
             id="path3256"
             sodipodi:nodetypes="cccccc" />
          <path
             style="opacity:1;fill:none;fill-opacity:1;fill-rule:evenodd;stroke:#000000;stroke-width:0.30000001;stroke-linecap:butt;stroke-linejoin:miter;marker:none;marker-start:none;marker-mid:none;marker-end:none;stroke-miterlimit:4;stroke-dasharray:none;stroke-dashoffset:0;stroke-opacity:1;visibility:visible;display:inline;overflow:visible;enable-background:accumulate"
             d="M -345.19761,473.63016 C -378.31838,463.74263 -412.03901,469.40193 -446.13604,471.92846 L -419.14058,373.47488"
             id="path3258"
             sodipodi:nodetypes="cs" />
          <path
             id="path3260"
             d="M -345.19761,471.63016 C -377.78163,461.87043 -410.53794,468.29355 -444.0471,469.9383 L -417.57565,371.77953"
             style="opacity:1;fill:none;fill-opacity:1;fill-rule:evenodd;stroke:#000000;stroke-width:0.30000001;stroke-linecap:butt;stroke-linejoin:miter;marker:none;marker-start:none;marker-mid:none;marker-end:none;stroke-miterlimit:4;stroke-dasharray:none;stroke-dashoffset:0;stroke-opacity:1;visibility:visible;display:inline;overflow:visible;enable-background:accumulate"
             sodipodi:nodetypes="cs" />
          <path
             style="opacity:1;fill:none;fill-opacity:1;fill-rule:evenodd;stroke:#000000;stroke-width:0.30000001;stroke-linecap:butt;stroke-linejoin:miter;marker:none;marker-start:none;marker-mid:none;marker-end:none;stroke-miterlimit:4;stroke-dasharray:none;stroke-dashoffset:0;stroke-opacity:1;visibility:visible;display:inline;overflow:visible;enable-background:accumulate"
             d="M -345.19761,469.63016 C -377.32333,460.29875 -408.74335,465.15863 -441.37272,467.65879 L -415.16305,368.45406"
             id="path3262"
             sodipodi:nodetypes="cs" />
          <path
             id="path3264"
             d="M -345.19761,467.63016 C -376.74287,458.48036 -407.09243,462.97182 -439.02506,465.51791 L -413.20689,366.30228"
             style="opacity:1;fill:none;fill-opacity:1;fill-rule:evenodd;stroke:#000000;stroke-width:0.30000001;stroke-linecap:butt;stroke-linejoin:miter;marker:none;marker-start:none;marker-mid:none;marker-end:none;stroke-miterlimit:4;stroke-dasharray:none;stroke-dashoffset:0;stroke-opacity:1;visibility:visible;display:inline;overflow:visible;enable-background:accumulate"
             sodipodi:nodetypes="cs" />
          <path
             style="opacity:1;fill:none;fill-opacity:1;fill-rule:evenodd;stroke:#000000;stroke-width:0.30000001;stroke-linecap:butt;stroke-linejoin:miter;marker:none;marker-start:none;marker-mid:none;marker-end:none;stroke-miterlimit:4;stroke-dasharray:none;stroke-dashoffset:0;stroke-opacity:1;visibility:visible;display:inline;overflow:visible;enable-background:accumulate"
             d="M -345.19761,465.63016 C -376.22428,456.44028 -405.4518,460.63993 -436.41924,463.25838 L -411.70716,364.54173"
             id="path3266"
             sodipodi:nodetypes="cs" />
        </g>
        <path
           sodipodi:type="arc"
           style="opacity:1;fill:#ffffff;fill-opacity:1;fill-rule:nonzero;stroke:#000000;stroke-width:1;stroke-linecap:round;stroke-linejoin:round;marker:none;marker-start:none;marker-mid:none;marker-end:none;stroke-miterlimit:4;stroke-dasharray:none;stroke-dashoffset:10.00000051;stroke-opacity:1;visibility:visible;display:inline;overflow:visible;enable-background:accumulate"
           id="path3268"
           sodipodi:cx="-342.58939"
           sodipodi:cy="485.11978"
           sodipodi:rx="4.3035593"
           sodipodi:ry="4.3035593"
           d="M -338.28583,485.11978 A 4.3035593,4.3035593 0 1 1 -346.89295,485.11978 A 4.3035593,4.3035593 0 1 1 -338.28583,485.11978 z"
           transform="matrix(1.5646291,0,0,1.5646291,875.7746,-293.61922)" />
      </g>
    </g>
  </g>
</svg>
