<?xml version="1.0" encoding="UTF-8" standalone="no"?>
<svg
   xmlns:dc="http://purl.org/dc/elements/1.1/"
   xmlns:cc="http://creativecommons.org/ns#"
   xmlns:rdf="http://www.w3.org/1999/02/22-rdf-syntax-ns#"
   xmlns:svg="http://www.w3.org/2000/svg"
   xmlns="http://www.w3.org/2000/svg"
   xmlns:sodipodi="http://sodipodi.sourceforge.net/DTD/sodipodi-0.dtd"
   xmlns:inkscape="http://www.inkscape.org/namespaces/inkscape"
   width="750"
   height="500"
   id="svg2"
   sodipodi:version="0.32"
   inkscape:version="0.46"
   sodipodi:docname="Flag_of_Ospina_(Nariño).svg"
   inkscape:output_extension="org.inkscape.output.svg.inkscape"
   version="1.0">
  <metadata
     id="metadata13">
    <rdf:RDF>
      <cc:Work
         rdf:about="">
        <dc:format>image/svg+xml</dc:format>
        <dc:type
           rdf:resource="http://purl.org/dc/dcmitype/StillImage" />
      </cc:Work>
    </rdf:RDF>
  </metadata>
  <defs
     id="defs11" />
  <sodipodi:namedview
     inkscape:window-height="712"
     inkscape:window-width="1024"
     inkscape:pageshadow="2"
     inkscape:pageopacity="0.0"
     guidetolerance="10.0"
     gridtolerance="10.0"
     objecttolerance="10.0"
     borderopacity="1.0"
     bordercolor="#666666"
     pagecolor="#ffffff"
     id="base"
     showgrid="false"
     inkscape:zoom="1.014"
     inkscape:cx="375"
     inkscape:cy="250"
     inkscape:window-x="-4"
     inkscape:window-y="-4"
     inkscape:current-layer="svg2" />
  <rect
     width="751.94324"
     height="500"
     id="rect4"
     x="0"
     y="0"
     style="fill:#078930;fill-opacity:1" />
  <rect
     width="751.94324"
     height="168.04468"
     y="-333.332"
     id="rect6"
     x="0"
     style="fill:#000000;fill-opacity:1"
     transform="scale(1,-1)" />
  <rect
     width="751.94324"
     height="166.666"
     y="-1.3776999"
     id="rect8"
     x="0"
     style="fill:#fcdd09;fill-opacity:1" />
  <g
     transform="matrix(1.544621,0,0,1.544621,254.65787,-92.728263)"
     id="g20243"
     style="opacity:1;fill:#ffffff;fill-opacity:1;stroke:#000000;stroke-width:0.64740801;stroke-miterlimit:4;stroke-dasharray:none;stroke-opacity:1;display:inline">
    <path
       transform="matrix(2.273699,0,0,2.273237,-5.904366,-31.40286)"
       style="fill:#ffffff;fill-opacity:1;stroke:#000000;stroke-width:0.2847667;stroke-miterlimit:4;stroke-dasharray:none;stroke-opacity:1"
       d="M 43.516882,127.64803 C 43.72713,130.4986 46.321129,131.68336 47.04878,128.59 L 50.519,129.458 C 53.194398,125.42782 57.254525,115.37238 56.77,108.5253 C 56.347851,83.234365 17.040512,81.88361 17.179,108.37428 C 17.449643,115.36365 20.191092,122.99448 23.258,129.635 L 26.902,128.069 C 27.928328,131.8699 29.808184,129.87208 30.255891,127.80398 C 30.298494,128.08639 30.355868,128.17465 30.26245,127.89753 C 29.726145,130.02817 27.885931,131.86582 26.902,128.069 L 21.347,130.65036 C 22.058386,134.79617 23.946547,134.67284 27.424,133.03224 C 29.067243,132.20649 31.029566,131.53051 31.046334,129.85612 C 31.221099,128.79888 25.694831,117.67202 25.490334,110.75412 C 24.928376,95.379288 48.353166,93.925904 48.609,110.704 C 48.443734,117.51753 43.036476,128.21587 42.878,129.18761 C 42.694835,130.20844 41.171656,131.49306 47.178436,133.25151 C 50.657594,134.37147 52.62944,134.02403 52.679557,130.10288 L 46.998668,128.59 C 46.221865,131.70892 43.80338,130.45652 43.582548,127.76828 L 43.516882,127.64803 z"
       id="polygon16360"
       sodipodi:nodetypes="ccccccccccccccccccccc" />
    <polyline
       style="fill:#ffffff;fill-opacity:1;stroke:#000000;stroke-width:0.2847667;stroke-miterlimit:4;stroke-dasharray:none;stroke-opacity:1"
       id="polyline16362"
       points="23.777,95.771 26.035,94.381 28.292,92.992        30.723,92.819 32.633,93.514 34.716,94.034 36.974,94.208 39.232,93.861 41.663,93.34 43.226,92.819 45.31,93.34        46.873,94.034 48.435,95.423      "
       transform="matrix(2.273699,0,0,2.273237,-5.904366,-31.40286)" />
    <circle
       style="fill:#000000;fill-opacity:1;stroke:#000000;stroke-width:0.28476669999999998;stroke-miterlimit:4;stroke-dasharray:none;stroke-opacity:1"
       sodipodi:ry="0.671"
       sodipodi:rx="0.671"
       sodipodi:cy="120.232"
       sodipodi:cx="23.233"
       id="circle16364"
       r="0.671"
       cy="120.232"
       cx="23.233"
       transform="matrix(2.273699,0,0,2.273237,-5.904366,-31.40286)" />
    <circle
       style="fill:#000000;fill-opacity:1;stroke:#000000;stroke-width:0.28476669999999998;stroke-miterlimit:4;stroke-dasharray:none;stroke-opacity:1"
       sodipodi:ry="0.671"
       sodipodi:rx="0.671"
       sodipodi:cy="110.626"
       sodipodi:cx="20.851999"
       id="circle16366"
       r="0.671"
       cy="110.626"
       cx="20.851999"
       transform="matrix(2.273699,0,0,2.273237,-5.904366,-31.40286)" />
    <circle
       style="fill:#000000;fill-opacity:1;stroke:#000000;stroke-width:0.28476669999999998;stroke-miterlimit:4;stroke-dasharray:none;stroke-opacity:1"
       sodipodi:ry="0.671"
       sodipodi:rx="0.671"
       sodipodi:cy="101.944"
       sodipodi:cx="22.761999"
       id="circle16368"
       r="0.671"
       cy="101.944"
       cx="22.761999"
       transform="matrix(2.273699,0,0,2.273237,-5.904366,-31.40286)" />
    <circle
       style="fill:#000000;fill-opacity:1;stroke:#000000;stroke-width:0.28476669999999998;stroke-miterlimit:4;stroke-dasharray:none;stroke-opacity:1"
       sodipodi:ry="0.671"
       sodipodi:rx="0.671"
       sodipodi:cy="95.345001"
       sodipodi:cx="30.75"
       id="circle16370"
       r="0.671"
       cy="95.345001"
       cx="30.75"
       transform="matrix(2.273699,0,0,2.273237,-5.904366,-31.40286)" />
    <circle
       style="fill:#000000;fill-opacity:1;stroke:#000000;stroke-width:0.28476669999999998;stroke-miterlimit:4;stroke-dasharray:none;stroke-opacity:1"
       sodipodi:ry="0.671"
       sodipodi:rx="0.671"
       sodipodi:cy="95.693001"
       sodipodi:cx="42.730999"
       id="circle16372"
       r="0.671"
       cy="95.693001"
       cx="42.730999"
       transform="matrix(2.273699,0,0,2.273237,-5.904366,-31.40286)" />
    <circle
       style="fill:#000000;fill-opacity:1;stroke:#000000;stroke-width:0.28476669999999998;stroke-miterlimit:4;stroke-dasharray:none;stroke-opacity:1"
       sodipodi:ry="0.671"
       sodipodi:rx="0.671"
       sodipodi:cy="101.423"
       sodipodi:cx="50.373001"
       id="circle16374"
       r="0.671"
       cy="101.423"
       cx="50.373001"
       transform="matrix(2.273699,0,0,2.273237,-5.904366,-31.40286)" />
    <circle
       style="fill:#000000;fill-opacity:1;stroke:#000000;stroke-width:0.28476669999999998;stroke-miterlimit:4;stroke-dasharray:none;stroke-opacity:1"
       sodipodi:ry="0.671"
       sodipodi:rx="0.671"
       sodipodi:cy="110.973"
       sodipodi:cx="52.803001"
       id="circle16376"
       r="0.671"
       cy="110.973"
       cx="52.803001"
       transform="matrix(2.273699,0,0,2.273237,-5.904366,-31.40286)" />
    <circle
       style="fill:#000000;fill-opacity:1;stroke:#000000;stroke-width:0.28476669999999998;stroke-miterlimit:4;stroke-dasharray:none;stroke-opacity:1"
       sodipodi:ry="0.671"
       sodipodi:rx="0.671"
       sodipodi:cy="120.177"
       sodipodi:cx="50.372002"
       id="circle16378"
       r="0.671"
       cy="120.177"
       cx="50.372002"
       transform="matrix(2.273699,0,0,2.273237,-5.904366,-31.40286)" />
  </g>
</svg>
