<?xml version="1.0" encoding="UTF-8" standalone="no"?>
<!-- Created with Inkscape (http://www.inkscape.org/) -->

<svg
   xmlns:dc="http://purl.org/dc/elements/1.1/"
   xmlns:cc="http://creativecommons.org/ns#"
   xmlns:rdf="http://www.w3.org/1999/02/22-rdf-syntax-ns#"
   xmlns:svg="http://www.w3.org/2000/svg"
   xmlns="http://www.w3.org/2000/svg"
   xmlns:sodipodi="http://sodipodi.sourceforge.net/DTD/sodipodi-0.dtd"
   xmlns:inkscape="http://www.inkscape.org/namespaces/inkscape"
   width="750"
   height="500"
   id="svg2822"
   version="1.1"
   inkscape:version="0.47 r22583"
   sodipodi:docname="Flag of Flandes (Tolima).svg">
  <defs
     id="defs2824">
    <inkscape:perspective
       sodipodi:type="inkscape:persp3d"
       inkscape:vp_x="0 : 526.18109 : 1"
       inkscape:vp_y="0 : 1000 : 0"
       inkscape:vp_z="744.09448 : 526.18109 : 1"
       inkscape:persp3d-origin="372.04724 : 350.78739 : 1"
       id="perspective2830" />
    <inkscape:perspective
       id="perspective3396"
       inkscape:persp3d-origin="0.5 : 0.33333333 : 1"
       inkscape:vp_z="1 : 0.5 : 1"
       inkscape:vp_y="0 : 1000 : 0"
       inkscape:vp_x="0 : 0.5 : 1"
       sodipodi:type="inkscape:persp3d" />
    <inkscape:perspective
       id="perspective2860"
       inkscape:persp3d-origin="0.5 : 0.33333333 : 1"
       inkscape:vp_z="1 : 0.5 : 1"
       inkscape:vp_y="0 : 1000 : 0"
       inkscape:vp_x="0 : 0.5 : 1"
       sodipodi:type="inkscape:persp3d" />
    <inkscape:perspective
       id="perspective3419"
       inkscape:persp3d-origin="0.5 : 0.33333333 : 1"
       inkscape:vp_z="1 : 0.5 : 1"
       inkscape:vp_y="0 : 1000 : 0"
       inkscape:vp_x="0 : 0.5 : 1"
       sodipodi:type="inkscape:persp3d" />
    <inkscape:perspective
       id="perspective3722"
       inkscape:persp3d-origin="0.5 : 0.33333333 : 1"
       inkscape:vp_z="1 : 0.5 : 1"
       inkscape:vp_y="0 : 1000 : 0"
       inkscape:vp_x="0 : 0.5 : 1"
       sodipodi:type="inkscape:persp3d" />
    <inkscape:perspective
       id="perspective3744"
       inkscape:persp3d-origin="0.5 : 0.33333333 : 1"
       inkscape:vp_z="1 : 0.5 : 1"
       inkscape:vp_y="0 : 1000 : 0"
       inkscape:vp_x="0 : 0.5 : 1"
       sodipodi:type="inkscape:persp3d" />
    <inkscape:perspective
       id="perspective3766"
       inkscape:persp3d-origin="0.5 : 0.33333333 : 1"
       inkscape:vp_z="1 : 0.5 : 1"
       inkscape:vp_y="0 : 1000 : 0"
       inkscape:vp_x="0 : 0.5 : 1"
       sodipodi:type="inkscape:persp3d" />
    <inkscape:perspective
       id="perspective3788"
       inkscape:persp3d-origin="0.5 : 0.33333333 : 1"
       inkscape:vp_z="1 : 0.5 : 1"
       inkscape:vp_y="0 : 1000 : 0"
       inkscape:vp_x="0 : 0.5 : 1"
       sodipodi:type="inkscape:persp3d" />
    <inkscape:perspective
       id="perspective3841"
       inkscape:persp3d-origin="0.5 : 0.33333333 : 1"
       inkscape:vp_z="1 : 0.5 : 1"
       inkscape:vp_y="0 : 1000 : 0"
       inkscape:vp_x="0 : 0.5 : 1"
       sodipodi:type="inkscape:persp3d" />
    <inkscape:perspective
       id="perspective3875"
       inkscape:persp3d-origin="0.5 : 0.33333333 : 1"
       inkscape:vp_z="1 : 0.5 : 1"
       inkscape:vp_y="0 : 1000 : 0"
       inkscape:vp_x="0 : 0.5 : 1"
       sodipodi:type="inkscape:persp3d" />
    <inkscape:perspective
       id="perspective3875-1"
       inkscape:persp3d-origin="0.5 : 0.33333333 : 1"
       inkscape:vp_z="1 : 0.5 : 1"
       inkscape:vp_y="0 : 1000 : 0"
       inkscape:vp_x="0 : 0.5 : 1"
       sodipodi:type="inkscape:persp3d" />
    <inkscape:perspective
       id="perspective3875-2"
       inkscape:persp3d-origin="0.5 : 0.33333333 : 1"
       inkscape:vp_z="1 : 0.5 : 1"
       inkscape:vp_y="0 : 1000 : 0"
       inkscape:vp_x="0 : 0.5 : 1"
       sodipodi:type="inkscape:persp3d" />
    <inkscape:perspective
       id="perspective3915"
       inkscape:persp3d-origin="0.5 : 0.33333333 : 1"
       inkscape:vp_z="1 : 0.5 : 1"
       inkscape:vp_y="0 : 1000 : 0"
       inkscape:vp_x="0 : 0.5 : 1"
       sodipodi:type="inkscape:persp3d" />
    <inkscape:perspective
       id="perspective3940"
       inkscape:persp3d-origin="0.5 : 0.33333333 : 1"
       inkscape:vp_z="1 : 0.5 : 1"
       inkscape:vp_y="0 : 1000 : 0"
       inkscape:vp_x="0 : 0.5 : 1"
       sodipodi:type="inkscape:persp3d" />
    <inkscape:perspective
       id="perspective3962"
       inkscape:persp3d-origin="0.5 : 0.33333333 : 1"
       inkscape:vp_z="1 : 0.5 : 1"
       inkscape:vp_y="0 : 1000 : 0"
       inkscape:vp_x="0 : 0.5 : 1"
       sodipodi:type="inkscape:persp3d" />
    <inkscape:perspective
       id="perspective3962-7"
       inkscape:persp3d-origin="0.5 : 0.33333333 : 1"
       inkscape:vp_z="1 : 0.5 : 1"
       inkscape:vp_y="0 : 1000 : 0"
       inkscape:vp_x="0 : 0.5 : 1"
       sodipodi:type="inkscape:persp3d" />
    <inkscape:perspective
       id="perspective3962-1"
       inkscape:persp3d-origin="0.5 : 0.33333333 : 1"
       inkscape:vp_z="1 : 0.5 : 1"
       inkscape:vp_y="0 : 1000 : 0"
       inkscape:vp_x="0 : 0.5 : 1"
       sodipodi:type="inkscape:persp3d" />
    <inkscape:perspective
       id="perspective4002"
       inkscape:persp3d-origin="0.5 : 0.33333333 : 1"
       inkscape:vp_z="1 : 0.5 : 1"
       inkscape:vp_y="0 : 1000 : 0"
       inkscape:vp_x="0 : 0.5 : 1"
       sodipodi:type="inkscape:persp3d" />
    <inkscape:perspective
       id="perspective4024"
       inkscape:persp3d-origin="0.5 : 0.33333333 : 1"
       inkscape:vp_z="1 : 0.5 : 1"
       inkscape:vp_y="0 : 1000 : 0"
       inkscape:vp_x="0 : 0.5 : 1"
       sodipodi:type="inkscape:persp3d" />
    <inkscape:perspective
       id="perspective4046"
       inkscape:persp3d-origin="0.5 : 0.33333333 : 1"
       inkscape:vp_z="1 : 0.5 : 1"
       inkscape:vp_y="0 : 1000 : 0"
       inkscape:vp_x="0 : 0.5 : 1"
       sodipodi:type="inkscape:persp3d" />
    <inkscape:perspective
       id="perspective4068"
       inkscape:persp3d-origin="0.5 : 0.33333333 : 1"
       inkscape:vp_z="1 : 0.5 : 1"
       inkscape:vp_y="0 : 1000 : 0"
       inkscape:vp_x="0 : 0.5 : 1"
       sodipodi:type="inkscape:persp3d" />
    <inkscape:perspective
       id="perspective4090"
       inkscape:persp3d-origin="0.5 : 0.33333333 : 1"
       inkscape:vp_z="1 : 0.5 : 1"
       inkscape:vp_y="0 : 1000 : 0"
       inkscape:vp_x="0 : 0.5 : 1"
       sodipodi:type="inkscape:persp3d" />
    <inkscape:perspective
       id="perspective4182"
       inkscape:persp3d-origin="0.5 : 0.33333333 : 1"
       inkscape:vp_z="1 : 0.5 : 1"
       inkscape:vp_y="0 : 1000 : 0"
       inkscape:vp_x="0 : 0.5 : 1"
       sodipodi:type="inkscape:persp3d" />
    <inkscape:perspective
       id="perspective3351"
       inkscape:persp3d-origin="0.5 : 0.33333333 : 1"
       inkscape:vp_z="1 : 0.5 : 1"
       inkscape:vp_y="0 : 1000 : 0"
       inkscape:vp_x="0 : 0.5 : 1"
       sodipodi:type="inkscape:persp3d" />
  </defs>
  <sodipodi:namedview
     id="base"
     pagecolor="#ffffff"
     bordercolor="#666666"
     borderopacity="1.0"
     inkscape:pageopacity="0.0"
     inkscape:pageshadow="2"
     inkscape:zoom="0.67010823"
     inkscape:cx="397.56742"
     inkscape:cy="69.673215"
     inkscape:document-units="px"
     inkscape:current-layer="g3777"
     showgrid="false"
     inkscape:window-width="1280"
     inkscape:window-height="962"
     inkscape:window-x="-8"
     inkscape:window-y="-8"
     inkscape:window-maximized="1" />
  <metadata
     id="metadata2827">
    <rdf:RDF>
      <cc:Work
         rdf:about="">
        <dc:format>image/svg+xml</dc:format>
        <dc:type
           rdf:resource="http://purl.org/dc/dcmitype/StillImage" />
        <dc:title></dc:title>
      </cc:Work>
    </rdf:RDF>
  </metadata>
  <g
     inkscape:label="Capa 1"
     inkscape:groupmode="layer"
     id="layer1"
     transform="translate(0,-552.36218)">
    <rect
       style="fill:#078930;fill-opacity:1;stroke:none"
       id="rect2817"
       width="750"
       height="500"
       x="0"
       y="5.6843419e-14"
       transform="translate(0,552.36218)" />
    <path
       sodipodi:type="star"
       style="fill:#fcdd09;fill-opacity:1;stroke:none"
       id="path2821"
       sodipodi:sides="3"
       sodipodi:cx="275.80646"
       sodipodi:cy="391.93549"
       sodipodi:r1="219.66296"
       sodipodi:r2="109.83149"
       sodipodi:arg1="0.52278909"
       sodipodi:arg2="1.5699866"
       inkscape:flatsided="true"
       inkscape:rounded="0"
       inkscape:randomized="0"
       d="M 466.12903,501.6129 85.661742,501.92096 275.6286,172.27259 466.12903,501.6129 z"
       transform="matrix(1.9712601,0,0,0.75838386,-168.86157,671.71342)" />
    <g
       style="fill:#ffffff;stroke:#000000;stroke-width:1.12329960000000000;stroke-miterlimit:4;stroke-opacity:1;stroke-dasharray:none"
       id="g3788"
       transform="matrix(3.0862036,0,0,2.3111427,-472.05336,-710.30835)">
      <path
         style="fill:#ffffff;fill-opacity:1;fill-rule:evenodd;stroke:#000000;stroke-width:1.12329960000000000;stroke-linecap:round;stroke-linejoin:bevel;stroke-miterlimit:4;stroke-opacity:1;stroke-dasharray:none"
         id="path2565"
         d="m 254.17191,745.42902 c 0,0 -0.18837,-21.17069 0,-36.7942 -0.83433,-16.69519 10.19719,-22.45251 20.40987,-22.22283 10.21267,0.22968 21.43719,4.62639 21.32884,22.60898 -0.10115,16.78855 0,36.59529 0,36.59529 l -41.73871,-0.18724 z"
         inkscape:connector-curvature="0" />
      <g
         style="fill:#ffffff;stroke:#000000;stroke-width:1.12329960000000000;stroke-miterlimit:4;stroke-opacity:1;stroke-dasharray:none"
         id="g3777">
        <path
           style="fill:#ffffff;fill-opacity:1;fill-rule:evenodd;stroke:#000000;stroke-width:1.12329960000000000;stroke-linejoin:bevel;stroke-miterlimit:4;stroke-opacity:1;stroke-dasharray:none"
           id="rect2318"
           d="m 268.62938,683.32608 c 3.79612,-2.59922 7.74068,-3.21908 11.97313,0 l -2.56262,11.39598 -6.72776,0.0689 -2.68275,-11.46488 z"
           inkscape:connector-curvature="0" />
        <path
           style="fill:#ffffff;fill-opacity:1;fill-rule:evenodd;stroke:#000000;stroke-width:1.12329960000000000;stroke-linejoin:bevel;stroke-miterlimit:4;stroke-opacity:1;stroke-dasharray:none"
           id="path3295"
           d="m 250.4538,722.5672 48.97632,0 c 0,2.42751 0.26039,6.73942 0,8.03528 l -48.97632,0 c 0.10234,0.0431 0.11761,-7.96215 0,-8.03528 z"
           inkscape:connector-curvature="0" />
        <path
           style="fill:#ffffff;fill-opacity:1;fill-rule:evenodd;stroke:#000000;stroke-width:1.12329960000000000;stroke-linejoin:bevel;stroke-miterlimit:4;stroke-opacity:1;stroke-dasharray:none"
           id="path3297"
           d="m 248.94524,736.74399 52.10917,0 c 0,3.54131 0,6.1266 0,9.4185 l -52.10917,0 c 0.10234,0.0431 0,-7.52483 0,-9.4185 z"
           inkscape:connector-curvature="0" />
        <path
           style="fill:#ffffff;fill-opacity:1;fill-rule:evenodd;stroke:#000000;stroke-width:1.12329960000000000;stroke-linejoin:bevel;stroke-miterlimit:4;stroke-opacity:1;stroke-dasharray:none"
           id="path3305"
           d="m 290.53311,688.49499 -7.76081,8.99543 c 1.59059,-0.77246 5.46738,3.24403 4.94989,5.9723 l 7.94515,-8.40319 c -0.96389,-2.29906 -2.38689,-5.14298 -5.13423,-6.56454 z"
           inkscape:connector-curvature="0" />
        <path
           style="fill:#ffffff;fill-opacity:1;fill-rule:evenodd;stroke:#000000;stroke-width:1.12329960000000000;stroke-linejoin:bevel;stroke-miterlimit:4;stroke-opacity:1;stroke-dasharray:none"
           id="rect3290"
           d="m 258.94732,688.42949 7.76081,8.99542 c -1.59058,-0.77245 -5.46738,3.24404 -4.94987,5.97231 l -7.94517,-8.18449 c 0.96391,-2.29905 2.3869,-5.36168 5.13423,-6.78324 z"
           inkscape:connector-curvature="0" />
        <path
           style="fill:#ffffff;fill-opacity:1;fill-rule:evenodd;stroke:#000000;stroke-width:1.12329960000000000;stroke-linejoin:bevel;stroke-miterlimit:4;stroke-opacity:1;stroke-dasharray:none"
           id="path5355"
           d="m 250.4538,707.91372 48.97632,0 c 0,2.42751 0.26039,6.73942 0,8.03528 l -48.97632,0 c 0.10234,0.0431 0.11761,-7.96215 0,-8.03528 z"
           inkscape:connector-curvature="0" />
        <rect
           style="fill:#ffffff;fill-opacity:1;stroke:#000000;stroke-width:1.12329948;stroke-linejoin:miter;stroke-miterlimit:4;stroke-dasharray:none"
           id="rect2887"
           width="6.7324662"
           height="5.2892413"
           x="246.36673"
           y="730.52563" />
        <rect
           style="fill:#ffffff;fill-opacity:1;stroke:#000000;stroke-width:1.12329948;stroke-linejoin:miter;stroke-miterlimit:4;stroke-opacity:1;stroke-dasharray:none"
           id="rect2887-4"
           width="6.7324662"
           height="5.0269647"
           x="246.51765"
           y="716.6322" />
        <rect
           style="fill:#ffffff;fill-opacity:1;stroke:#000000;stroke-width:1.12329948;stroke-linejoin:miter;stroke-miterlimit:4;stroke-opacity:1;stroke-dasharray:none"
           id="rect2887-4-8"
           width="9.9732161"
           height="6.6006236"
           x="240.03616"
           y="722.92682" />
        <rect
           style="fill:#ffffff;fill-opacity:1;stroke:#000000;stroke-width:1.12329948;stroke-linejoin:miter;stroke-miterlimit:4;stroke-opacity:1;stroke-dasharray:none"
           id="rect2887-4-8-8"
           width="9.9732161"
           height="6.9940386"
           x="238.02296"
           y="737.08978" />
        <rect
           style="fill:#ffffff;fill-opacity:1;stroke:#000000;stroke-width:1.12329948;stroke-linejoin:miter;stroke-miterlimit:4;stroke-opacity:1;stroke-dasharray:none"
           id="rect2887-2"
           width="6.7324662"
           height="5.2892413"
           x="238.6613"
           y="730.53284" />
        <rect
           style="fill:#ffffff;fill-opacity:1;stroke:#000000;stroke-width:1.12329948;stroke-linejoin:miter;stroke-miterlimit:4;stroke-opacity:1;stroke-dasharray:none"
           id="rect2887-4-8-8-6"
           width="9.9732161"
           height="6.9940386"
           x="227.02406"
           y="737.15533" />
        <rect
           style="fill:#ffffff;fill-opacity:1;stroke:#000000;stroke-width:1.12329948;stroke-linejoin:miter;stroke-miterlimit:4;stroke-opacity:1;stroke-dasharray:none"
           id="rect2887-4-8-8-4"
           width="9.9732161"
           height="6.9940386"
           x="205.22266"
           y="737.15527" />
        <rect
           style="fill:#ffffff;fill-opacity:1;stroke:#000000;stroke-width:1.12329948;stroke-linejoin:miter;stroke-miterlimit:4;stroke-opacity:1;stroke-dasharray:none"
           id="rect2887-4-8-8-3"
           width="9.9732161"
           height="6.9940386"
           x="216.22156"
           y="737.15533" />
        <rect
           style="fill:#ffffff;fill-opacity:1;stroke:#000000;stroke-width:1.12329948;stroke-linejoin:miter;stroke-miterlimit:4;stroke-opacity:1;stroke-dasharray:none"
           id="rect2887-22"
           width="6.7324662"
           height="5.2892413"
           x="230.92587"
           y="730.52924" />
        <rect
           style="fill:#ffffff;fill-opacity:1;stroke:#000000;stroke-width:1.12329948;stroke-linejoin:miter;stroke-miterlimit:4;stroke-opacity:1;stroke-dasharray:none"
           id="rect2887-2-1"
           width="6.7324662"
           height="5.2892413"
           x="223.22044"
           y="730.53644" />
        <rect
           style="fill:#ffffff;fill-opacity:1;stroke:#000000;stroke-width:1.12329948;stroke-linejoin:miter;stroke-miterlimit:4;stroke-opacity:1;stroke-dasharray:none"
           id="rect2887-2-1-6"
           width="6.7324662"
           height="5.2892413"
           x="215.48503"
           y="730.53284" />
        <rect
           style="fill:#ffffff;fill-opacity:1;stroke:#000000;stroke-width:1.12329948;stroke-linejoin:miter;stroke-miterlimit:4;stroke-opacity:1;stroke-dasharray:none"
           id="rect2887-4-8-6"
           width="9.9732161"
           height="6.6006236"
           x="218.08745"
           y="722.92682" />
        <rect
           style="fill:#ffffff;fill-opacity:1;stroke:#000000;stroke-width:1.12329948;stroke-linejoin:miter;stroke-miterlimit:4;stroke-opacity:1;stroke-dasharray:none"
           id="rect2887-4-8-89"
           width="9.9732161"
           height="6.6006236"
           x="229.08635"
           y="722.92682" />
        <rect
           style="fill:#ffffff;fill-opacity:1;stroke:#000000;stroke-width:1.12329948;stroke-linejoin:miter;stroke-miterlimit:4;stroke-opacity:1;stroke-dasharray:none"
           id="rect2887-4-2"
           width="6.7324662"
           height="5.0269647"
           x="238.8577"
           y="716.63214" />
        <rect
           style="fill:#ffffff;fill-opacity:1;stroke:#000000;stroke-width:1.12329948;stroke-linejoin:miter;stroke-miterlimit:4;stroke-opacity:1;stroke-dasharray:none"
           id="rect2887-4-2-7"
           width="6.7324662"
           height="5.0269647"
           x="231.19775"
           y="716.6322" />
        <rect
           style="fill:#ffffff;fill-opacity:1;stroke:#000000;stroke-width:1.12329948;stroke-linejoin:miter;stroke-miterlimit:4;stroke-opacity:1;stroke-dasharray:none"
           id="rect2887-4-2-7-9"
           width="6.7324662"
           height="5.0269647"
           x="223.636"
           y="716.63214" />
        <rect
           style="fill:#ffffff;fill-opacity:1;stroke:#000000;stroke-width:1.12329948;stroke-linejoin:bevel;stroke-miterlimit:4;stroke-opacity:1;stroke-dasharray:none"
           id="rect2887-4-8-54"
           width="9.9732161"
           height="7.2563152"
           x="239.59424"
           y="708.10815" />
        <rect
           style="fill:#ffffff;fill-opacity:1;stroke:#000000;stroke-width:1.12329948;stroke-linejoin:bevel;stroke-miterlimit:4;stroke-opacity:1;stroke-dasharray:none"
           id="rect2887-4-8-54-3"
           width="9.9732161"
           height="7.2563152"
           x="228.69354"
           y="708.0426" />
        <rect
           style="fill:#ffffff;fill-opacity:1;stroke:#000000;stroke-width:1.12329948;stroke-linejoin:miter;stroke-miterlimit:4;stroke-opacity:1;stroke-dasharray:none"
           id="rect2887-5"
           width="6.7324662"
           height="5.2892413"
           x="-303.55899"
           y="730.52563"
           transform="scale(-1,1)" />
        <rect
           style="fill:#ffffff;fill-opacity:1;stroke:#000000;stroke-width:1.12329948;stroke-linejoin:miter;stroke-miterlimit:4;stroke-opacity:1;stroke-dasharray:none"
           id="rect2887-4-0"
           width="6.7324662"
           height="5.0269647"
           x="-303.40808"
           y="716.6322"
           transform="scale(-1,1)" />
        <rect
           style="fill:#ffffff;fill-opacity:1;stroke:#000000;stroke-width:1.12329948;stroke-linejoin:miter;stroke-miterlimit:4;stroke-opacity:1;stroke-dasharray:none"
           id="rect2887-4-8-2"
           width="9.9732161"
           height="6.6006236"
           x="-309.88959"
           y="722.92682"
           transform="scale(-1,1)" />
        <rect
           style="fill:#ffffff;fill-opacity:1;stroke:#000000;stroke-width:1.12329948;stroke-linejoin:miter;stroke-miterlimit:4;stroke-opacity:1;stroke-dasharray:none"
           id="rect2887-4-8-8-8"
           width="9.9732161"
           height="6.9940386"
           x="-311.90277"
           y="737.08978"
           transform="scale(-1,1)" />
        <rect
           style="fill:#ffffff;fill-opacity:1;stroke:#000000;stroke-width:1.12329948;stroke-linejoin:miter;stroke-miterlimit:4;stroke-opacity:1;stroke-dasharray:none"
           id="rect2887-2-6"
           width="6.7324662"
           height="5.2892413"
           x="-311.26443"
           y="730.53284"
           transform="scale(-1,1)" />
        <rect
           style="fill:#ffffff;fill-opacity:1;stroke:#000000;stroke-width:1.12329948;stroke-linejoin:miter;stroke-miterlimit:4;stroke-opacity:1;stroke-dasharray:none"
           id="rect2887-4-8-8-6-0"
           width="9.9732161"
           height="6.9940386"
           x="-322.90167"
           y="737.15533"
           transform="scale(-1,1)" />
        <rect
           style="fill:#ffffff;fill-opacity:1;stroke:#000000;stroke-width:1.12329948;stroke-linejoin:miter;stroke-miterlimit:4;stroke-opacity:1;stroke-dasharray:none"
           id="rect2887-4-8-8-4-2"
           width="9.9732161"
           height="6.9940386"
           x="-344.70309"
           y="737.15527"
           transform="scale(-1,1)" />
        <rect
           style="fill:#ffffff;fill-opacity:1;stroke:#000000;stroke-width:1.12329948;stroke-linejoin:miter;stroke-miterlimit:4;stroke-opacity:1;stroke-dasharray:none"
           id="rect2887-4-8-8-3-4"
           width="9.9732161"
           height="6.9940386"
           x="-333.70419"
           y="737.15533"
           transform="scale(-1,1)" />
        <rect
           style="fill:#ffffff;fill-opacity:1;stroke:#000000;stroke-width:1.12329948;stroke-linejoin:miter;stroke-miterlimit:4;stroke-opacity:1;stroke-dasharray:none"
           id="rect2887-22-8"
           width="6.7324662"
           height="5.2892413"
           x="-318.99988"
           y="730.52924"
           transform="scale(-1,1)" />
        <rect
           style="fill:#ffffff;fill-opacity:1;stroke:#000000;stroke-width:1.12329948;stroke-linejoin:miter;stroke-miterlimit:4;stroke-opacity:1;stroke-dasharray:none"
           id="rect2887-2-1-65"
           width="6.7324662"
           height="5.2892413"
           x="-326.70529"
           y="730.53644"
           transform="scale(-1,1)" />
        <rect
           style="fill:#ffffff;fill-opacity:1;stroke:#000000;stroke-width:1.12329948;stroke-linejoin:miter;stroke-miterlimit:4;stroke-opacity:1;stroke-dasharray:none"
           id="rect2887-2-1-6-0"
           width="6.7324662"
           height="5.2892413"
           x="-334.4407"
           y="730.53284"
           transform="scale(-1,1)" />
        <rect
           style="fill:#ffffff;fill-opacity:1;stroke:#000000;stroke-width:1.12329948;stroke-linejoin:miter;stroke-miterlimit:4;stroke-opacity:1;stroke-dasharray:none"
           id="rect2887-4-8-6-9"
           width="9.9732161"
           height="6.6006236"
           x="-331.83829"
           y="722.92682"
           transform="scale(-1,1)" />
        <rect
           style="fill:#ffffff;fill-opacity:1;stroke:#000000;stroke-width:1.12329948;stroke-linejoin:miter;stroke-miterlimit:4;stroke-opacity:1;stroke-dasharray:none"
           id="rect2887-4-8-89-0"
           width="9.9732161"
           height="6.6006236"
           x="-320.83939"
           y="722.92682"
           transform="scale(-1,1)" />
        <rect
           style="fill:#ffffff;fill-opacity:1;stroke:#000000;stroke-width:1.12329948;stroke-linejoin:miter;stroke-miterlimit:4;stroke-opacity:1;stroke-dasharray:none"
           id="rect2887-4-2-0"
           width="6.7324662"
           height="5.0269647"
           x="-311.06805"
           y="716.63214"
           transform="scale(-1,1)" />
        <rect
           style="fill:#ffffff;fill-opacity:1;stroke:#000000;stroke-width:1.12329948;stroke-linejoin:miter;stroke-miterlimit:4;stroke-opacity:1;stroke-dasharray:none"
           id="rect2887-4-2-7-6"
           width="6.7324662"
           height="5.0269647"
           x="-318.728"
           y="716.6322"
           transform="scale(-1,1)" />
        <rect
           style="fill:#ffffff;fill-opacity:1;stroke:#000000;stroke-width:1.12329948;stroke-linejoin:miter;stroke-miterlimit:4;stroke-opacity:1;stroke-dasharray:none"
           id="rect2887-4-2-7-9-1"
           width="6.7324662"
           height="5.0269647"
           x="-326.28973"
           y="716.63214"
           transform="scale(-1,1)" />
        <rect
           style="fill:#ffffff;fill-opacity:1;stroke:#000000;stroke-width:1.12329948;stroke-linejoin:bevel;stroke-miterlimit:4;stroke-opacity:1;stroke-dasharray:none"
           id="rect2887-4-8-54-38"
           width="9.9732161"
           height="7.2563152"
           x="-310.33151"
           y="708.10815"
           transform="scale(-1,1)" />
        <rect
           style="fill:#ffffff;fill-opacity:1;stroke:#000000;stroke-width:1.12329948;stroke-linejoin:bevel;stroke-miterlimit:4;stroke-opacity:1;stroke-dasharray:none"
           id="rect2887-4-8-54-3-9"
           width="9.9732161"
           height="7.2563152"
           x="-321.23221"
           y="708.0426"
           transform="scale(-1,1)" />
        <g
           transform="matrix(1.3799004,0,0,1.7157114,212.01381,506.37735)"
           style="fill:#da121a;fill-rule:evenodd;stroke:none"
           id="_40164480">
          <path
             id="path5086"
             class="fil9 str12"
             d="m 47.8683,46.1135 c -0.8467,-0.55 -2.5989,-0.4041 -3.3667,-0.3493 0.0466,-0.8679 0.1502,-1.0475 0.2032,-1.4962 l -0.69,-0.707 1.0903,-0.8065 -0.2556,-0.4316 -0.5053,0.1987 0.2441,-1.6923 -1.8033,-1.0932 -1.0733,0.9371 0.108,0.3181 -1.0819,0.8717 0.4827,0.1363 -0.5309,1.5307 c 0.2606,0.2172 0.5091,0.456 0.9172,0.4116 0.0518,0.2948 0.3311,1.4371 0.1325,1.7029 -1.3735,-0.1638 -2.064,-0.2047 -2.7534,-0.2574 -1.1369,-0.0903 -2.8939,1.2816 -3.7986,1.9798 -0.6871,-0.5362 -2.9438,-1.7819 -4.4181,-2.1194 -0.7007,-0.7366 -0.5772,-1.3679 -1.2728,-1.5695 -0.0093,0.0067 -0.2552,0.0484 -0.2061,0.1663 0.1259,0.302 0.6133,0.4845 0.3604,0.7881 -0.4175,-0.2977 -1.0695,-0.5645 -1.1195,-0.504 -0.3128,0.3798 -0.5984,0.9352 -0.4095,1.1122 0.531,0.6593 1.1111,0.668 1.9366,1.0089 1.3341,1.0704 2.6931,2.4085 4.4905,3.1556 1.4302,0.8106 2.3986,-0.1385 3.901,-0.9724 -0.9997,3.5114 0.0565,5.0783 -0.6813,7.8329 -1.0141,-0.1453 -2.0394,-1.2367 -3.1436,-1.1838 -0.4471,0.3122 -0.8404,0.2325 -1.3742,1.1756 0.1945,0.5364 0.2766,1.2191 0.1505,2.1723 -0.4305,2.0182 -0.2015,3.3233 0.0088,4.6483 0.1254,0.5816 0.5198,1.1279 0.9486,1.6697 0.7169,-0.7007 0.8976,-1.7184 1.0388,-3.0266 l -0.5422,-0.2929 c -0.5284,-1.5118 0.182,-2.6692 0.1333,-4.0691 1.2426,0.1143 2.1202,2.0215 3.5581,2.3254 -0.9395,0.4709 -2.3062,0.7668 -2.6634,1.4767 -0.0108,0.6877 -0.0015,1.373 0.3295,2.0161 l 0.4089,0.0795 c 0.8903,1.096 1.2565,2.4461 2.8114,3.2199 l 0.8973,-0.2499 0.7298,0.5026 c 0.8619,0.0724 1.698,-0.0524 2.5144,-0.3281 -0.5103,-0.8183 -1.1198,-1.5579 -2.029,-2.06 l -0.6531,0.0852 -0.2753,0.4344 c -0.8576,-0.8091 -2.6222,0.3071 -2.3927,-2.8096 0.898,-0.1612 1.9159,-0.0748 2.6934,-0.4843 1.4997,1.3221 3.4029,1.8015 5.8071,1.2349 -0.3191,1.3488 -1.3624,2.1784 -1.4452,3.1776 0.3505,1.4467 1.3365,1.9582 2.2605,2.5611 -1.4077,0.7025 -2.6126,1.7862 -4.336,1.8942 -0.5532,0.151 -0.6183,0.8221 -0.9768,0.6589 -0.841,0.8848 -1.129,1.6972 -1.4651,2.516 0.7904,0.1183 1.5524,0.0189 2.2858,-0.2983 0.6731,-0.3885 0.8708,-0.8319 0.8264,-1.3034 1.4348,-0.2088 2.7827,-1.4469 6.2327,-1.6105 0.3637,-0.2372 0.3163,-0.7065 0.3113,-1.1517 -1.6553,-0.9516 0.5988,-2.2157 0.8982,-3.3235 2.6563,3.2728 2.4003,0.6993 4.8217,3.3562 -0.7514,1.2261 -0.1228,3.088 -1.269,4.018 -0.0014,0.4209 -0.0817,0.852 0.162,1.2409 -0.8144,0.8812 -0.1272,1.5665 -0.159,2.3455 0.7622,-0.1093 1.5288,-0.3378 2.3284,-1.4994 0.0131,-0.4335 -0.062,-0.8554 -0.1336,-1.2779 -0.553,-0.3157 -0.3016,-0.577 0.0242,-0.8333 -0.0116,-1.7372 0.4279,-3.2516 0.9793,-4.711 0.2325,-0.1453 0.2038,-0.5581 0.1334,-1.0136 -4.6388,-1.4626 -1.2265,-3.736 -2.5801,-6.5381 2.3977,-0.1394 3.5861,-0.5189 2.8395,3.3296 l 0.6317,-1.0124 c 0.9113,1.4325 1.8682,2.3131 6.7086,2.6289 -0.607,-0.6545 -3.1105,-1.7578 -2.8322,-2.4899 0.9336,0.7078 1.8121,0.9919 2.6096,0.6558 -1.8906,-0.5403 -1.2265,-2.3325 -2.2237,-4.0605 l 0.8235,0.457 c -2.8374,-3.5359 -5.141,-0.6651 -8.6152,-0.464 -0.8081,-4.7555 -8.7945,-3.006 -11.999,-5.6742 0.641,-2.0595 2.6519,-3.4841 3.4501,-5.5608 l 0.8514,-2.7056 z"
             sodipodi:nodetypes="cccccccccccccccccccccccccccccccccccccccccccccccccccccccccccccccccccccccccccccccccccccccccc"
             style="fill:#da121a;stroke:none" />
          <path
             id="path5088"
             class="fil9 str12"
             d="m 44.6885,44.2687 -0.6865,-0.6842 1.1266,-0.8227 -0.219,-0.3668 -0.658,0.146 c 0.1689,-0.8028 0.6749,-1.6938 -0.0915,-1.9608 l -1.4577,-0.9135 c -0.0717,-0.1238 -0.1709,-0.2439 -0.0051,-0.3985 0.4405,-0.2847 0.7397,-0.1624 1.0994,-0.2139 1.2124,0.3891 1.7533,1.0061 2.3914,1.5901 0.3789,0.6729 0.4404,1.1762 0.3495,1.5983 -0.2362,1.0121 -1.1448,1.2725 -1.5964,1.5858 -0.1768,0.1225 -0.2394,0.2885 -0.2527,0.4402 z"
             sodipodi:nodetypes="cccccccccccc"
             style="fill:#da121a;stroke:none" />
          <path
             id="path5108"
             class="fil6 str12"
             d="M 51.3082,65.8571 C 49.1029,64.4004 48.8598,62.2178 49.604,59.6697"
             sodipodi:nodetypes="cc"
             style="fill:#da121a;stroke:none" />
          <path
             id="path5110"
             class="fil6 str12"
             d="m 46.6269,62.8147 c 1.0135,-0.4296 1.4726,1.119 2.9887,1.2705"
             sodipodi:nodetypes="cc"
             style="fill:#da121a;stroke:none" />
          <path
             id="path5116"
             class="fil6 str12"
             d="m 37.7719,56.2321 c 0.1816,1.3936 0.3807,3.0434 1.1327,3.2809 0.7204,-0.3906 1.549,-0.7126 1.4817,-1.6024"
             sodipodi:nodetypes="ccc"
             style="fill:#da121a;stroke:none" />
          <path
             id="path5118"
             class="fil6 str12"
             d="m 41.0411,61.4886 c 1.3786,-0.3238 3.1048,-0.3205 3.618,-1.7873"
             sodipodi:nodetypes="cc"
             style="fill:#da121a;stroke:none" />
          <path
             id="path5100"
             class="fil6 str12"
             d="m 41.6395,43.9373 c 0.704,0.3532 1.3197,0.0016 2.0955,0.0255"
             sodipodi:nodetypes="cc"
             style="fill:#da121a;stroke:none" />
          <g
             id="g366"
             style="fill:#da121a;stroke:none">
            <polygon
               id="_39433312"
               class="fil7 str11"
               points="63.7625,53.5281 30.213,53.5281 30.213,54.3798 63.7625,54.3798 "
               style="fill:#da121a;stroke:none" />
            <polygon
               id="_39432320"
               class="fil7 str11"
               points="30.213,53.3161 28.4652,53.1425 24.711,53.9539 28.4652,54.7654 30.213,54.5918 "
               style="fill:#da121a;stroke:none" />
            <line
               id="_39430672"
               class="fil6 str11"
               x1="24.711"
               y1="53.953899"
               x2="28.363199"
               y2="53.953899"
               style="fill:#da121a;stroke:none" />
          </g>
          <path
             id="path5086_1"
             class="fil9 str12"
             d="m 47.8683,46.1136 c 0.9633,0.6193 4.8541,5.3683 2.9599,7.0197 -0.9786,1.518 -4.1223,0.7806 -5.8088,1.1219 -0.0169,0.6683 -1.2781,0.9176 -2.0663,1.3262 -0.677,-0.2586 -0.9848,-0.9868 -1.3456,-1.6476 l -0.0563,-0.7952 c 0.4003,-0.3112 0.8155,-0.606 1.2747,-0.8526 0.6906,-0.0307 1.3438,0.1554 1.9494,0.6178 1.232,-0.0664 2.2254,-1.2078 3.7575,-1.408 -0.0942,-0.8396 -1.7879,-1.8542 -1.5159,-2.6767 l 0.8514,-2.7055 z"
             sodipodi:nodetypes="cccccccccccccccccccccccccccccccccccccccccccccccccccccccccccccccccccccccccccccccccccccccccc"
             style="fill:#da121a;stroke:none" />
        </g>
      </g>
      <path
         style="fill:#fcdd09;fill-opacity:1;fill-rule:evenodd;stroke:#000000;stroke-width:1.12329960000000000;stroke-linecap:round;stroke-linejoin:bevel;stroke-miterlimit:4;stroke-opacity:1;stroke-dasharray:none"
         id="path7181"
         d="m 260.03807,746.15657 c 0,0 0.0725,-31.03724 0,-33.1625 -0.59897,-15.77499 8.23359,-19.34472 14.66256,-19.34472 6.44471,0 15.28988,3.11698 15.28988,19.70961 0,15.86336 0,32.82874 0,32.82874 l -29.95244,-0.0311 z"
         inkscape:connector-curvature="0" />
    </g>
    <path
       style="opacity:0.98000004;color:#000000;fill:#ffffff;fill-opacity:1;fill-rule:nonzero;stroke:#000000;stroke-width:3;stroke-linecap:butt;stroke-linejoin:round;stroke-miterlimit:4;stroke-opacity:1;marker:none;visibility:visible;display:inline;overflow:visible;enable-background:accumulate"
       d="m 620.99998,1035.8989 c -4.42641,-8.054 -9.10112,-15.8605 -13.96966,-23.4133 l -469.0607,0 c -4.8685,7.5528 -9.5432,15.3593 -13.96959,23.4133 l 496.99995,0 z"
       id="rect12635"
       inkscape:connector-curvature="0" />
  </g>
</svg>
