<?xml version="1.0" encoding="UTF-8"?>
<svg xmlns="http://www.w3.org/2000/svg" xmlns:xlink="http://www.w3.org/1999/xlink" width="337pt" height="188pt" viewBox="0 0 337 188" version="1.1">
<defs>
<clipPath id="clip0">
  <rect width="337" height="188"/>
</clipPath>
</defs>
<g id="surface0" clip-path="url(#clip0)">
<path style="fill: none; stroke-width: 0.1; stroke-linecap: butt; stroke-linejoin: miter; stroke: rgb(59.607846%,80.000007%,99.607849%); opacity: 1;stroke-miterlimit: 10;" d="M 0 0 L 337 0 L 337 93.999847 C 274.135574 93.988831 211.271362 94.02243 148.407166 93.983109 C 98.933945 62.77507 49.47435 31.534393 0 0.325333 L 0 0 Z M 0 0 " transform="matrix(1,0,0,1,0,0)"/>
<path style="stroke: none; fill-rule: nonzero; fill: rgb(59.607846%,80.000007%,99.607849%); opacity: 1;" d="M 0 0 L 337 0 L 337 93.999847 C 274.135574 93.988831 211.271362 94.02243 148.407166 93.983109 C 98.933945 62.77507 49.47435 31.534393 0 0.325333 L 0 0 Z M 0 0 "/>
<path style="fill: none; stroke-width: 0.1; stroke-linecap: butt; stroke-linejoin: miter; stroke: rgb(100%,100%,100%); opacity: 1;stroke-miterlimit: 10;" d="M 0 0.325333 C 49.47435 31.534393 98.933945 62.77507 148.407166 93.983109 C 110.784332 117.873596 72.913574 141.452927 35.413452 165.496307 C 23.6689 172.983292 11.767746 180.231201 0 187.689163 L 0 0.325333 Z M 0 0.325333 " transform="matrix(1,0,0,1,0,0)"/>
<path style="stroke: none; fill-rule: nonzero; fill: rgb(100%,100%,100%); opacity: 1;" d="M 0 0.325333 C 49.47435 31.534393 98.933945 62.77507 148.407166 93.983109 C 110.784332 117.873596 72.913574 141.452927 35.413452 165.496307 C 23.6689 172.983292 11.767746 180.231201 0 187.689163 L 0 0.325333 Z M 0 0.325333 "/>
<path style="fill: none; stroke-width: 0.1; stroke-linecap: butt; stroke-linejoin: miter; stroke: rgb(0%,60.000002%,0%); opacity: 1;stroke-miterlimit: 10;" d="M 148.407166 93.983109 C 211.271362 94.02243 274.135574 93.988831 337 93.999847 L 337 188 L 0 188 L 0 187.689163 C 11.767746 180.231201 23.6689 172.983292 35.413452 165.496307 C 72.913574 141.452927 110.784332 117.873596 148.407166 93.983109 Z M 148.407166 93.983109 " transform="matrix(1,0,0,1,0,0)"/>
<path style="stroke: none; fill-rule: nonzero; fill: rgb(0%,60.000002%,0%); opacity: 1;" d="M 148.407166 93.983109 C 211.271362 94.02243 274.135574 93.988831 337 93.999847 L 337 188 L 0 188 L 0 187.689163 C 11.767746 180.231201 23.6689 172.983292 35.413452 165.496307 C 72.913574 141.452927 110.784332 117.873596 148.407166 93.983109 Z M 148.407166 93.983109 "/>
</g>
</svg>
