<?xml version="1.0" encoding="UTF-8" standalone="no"?>
<!-- Created with Inkscape (http://www.inkscape.org/) -->

<svg
   xmlns:dc="http://purl.org/dc/elements/1.1/"
   xmlns:cc="http://creativecommons.org/ns#"
   xmlns:rdf="http://www.w3.org/1999/02/22-rdf-syntax-ns#"
   xmlns:svg="http://www.w3.org/2000/svg"
   xmlns="http://www.w3.org/2000/svg"
   xmlns:sodipodi="http://sodipodi.sourceforge.net/DTD/sodipodi-0.dtd"
   xmlns:inkscape="http://www.inkscape.org/namespaces/inkscape"
   width="750"
   height="500"
   id="svg2"
   version="1.1"
   inkscape:version="0.48.3.1 r9886"
   sodipodi:docname="Flag of Concepción (Santander).svg">
  <defs
     id="defs4">
    <inkscape:perspective
       sodipodi:type="inkscape:persp3d"
       inkscape:vp_x="0 : 526.18109 : 1"
       inkscape:vp_y="0 : 1000 : 0"
       inkscape:vp_z="744.09448 : 526.18109 : 1"
       inkscape:persp3d-origin="372.04724 : 350.78739 : 1"
       id="perspective10" />
  </defs>
  <sodipodi:namedview
     id="base"
     pagecolor="#ffffff"
     bordercolor="#666666"
     borderopacity="1.0"
     inkscape:pageopacity="0.0"
     inkscape:pageshadow="2"
     inkscape:zoom="0.58"
     inkscape:cx="350"
     inkscape:cy="235.34483"
     inkscape:document-units="px"
     inkscape:current-layer="layer1"
     showgrid="false"
     inkscape:window-width="1280"
     inkscape:window-height="962"
     inkscape:window-x="-8"
     inkscape:window-y="-8"
     inkscape:window-maximized="1" />
  <metadata
     id="metadata7">
    <rdf:RDF>
      <cc:Work
         rdf:about="">
        <dc:format>image/svg+xml</dc:format>
        <dc:type
           rdf:resource="http://purl.org/dc/dcmitype/StillImage" />
        <dc:title></dc:title>
      </cc:Work>
    </rdf:RDF>
  </metadata>
  <g
     inkscape:label="Capa 1"
     inkscape:groupmode="layer"
     id="layer1"
     transform="translate(0,-552.36218)">
    <rect
       style="fill:#fcdd09;fill-opacity:1"
       id="rect2816"
       width="250"
       height="500"
       x="0"
       y="-1.1368684e-13"
       transform="translate(0,552.36218)" />
    <rect
       style="fill:#078930;fill-opacity:1"
       id="rect2818"
       width="250"
       height="500"
       x="250"
       y="-1.1368684e-13"
       transform="translate(0,552.36218)" />
    <rect
       style="fill:#fcdd09;fill-opacity:1"
       id="rect2820"
       width="250"
       height="500"
       x="500"
       y="-1.1368684e-13"
       transform="translate(0,552.36218)" />
    <path
       sodipodi:type="star"
       style="fill:#fcdd09;fill-opacity:1;stroke:none"
       id="path7113"
       sodipodi:sides="16"
       sodipodi:cx="334.48276"
       sodipodi:cy="194.82759"
       sodipodi:r1="122.02464"
       sodipodi:r2="42.454327"
       sodipodi:arg1="1.1640493"
       sodipodi:arg2="1.3603988"
       inkscape:flatsided="false"
       inkscape:rounded="3.469447e-018"
       inkscape:randomized="0"
       d="m 382.75862,306.89656 -39.40933,-70.55085 -7.15239,80.49448 -9.41083,-80.26178 -37.41186,71.6301 22.02039,-77.75359 -61.9757,51.86069 50.09919,-63.40812 -77.10431,24.19596 70.55086,-39.40933 -80.49449,-7.15239 80.26179,-9.41083 -71.6301,-37.41185 77.75359,22.02038 -51.86069,-61.9757 63.40811,50.09919 -24.19595,-77.104303 39.40933,70.550853 7.15239,-80.494482 9.41083,80.261782 37.41185,-71.630098 -22.02038,77.753588 61.9757,-51.86069 -50.09919,63.40812 77.1043,-24.19596 -70.55085,39.40933 80.49448,7.15239 -80.26178,9.41083 71.6301,37.41185 -77.75359,-22.02038 51.86069,61.9757 -63.40812,-50.09919 z"
       transform="matrix(0.9220359,0,0,0.9220359,66.59489,622.72415)" />
  </g>
</svg>
