<?xml version="1.0" encoding="UTF-8"?><!DOCTYPE svg PUBLIC "-//W3C//DTD SVG 1.1//EN" "http://www.w3.org/Graphics/SVG/1.1/DTD/svg11.dtd"><svg xmlns="http://www.w3.org/2000/svg" xmlns:xlink="http://www.w3.org/1999/xlink" width="750" height="500" version="1.1">
<rect fill="#078930" width="750" height="500"/>
<rect fill="#ffffff" width="650" height="400" transform="translate(50,50)"/>
<use xlink:href="#gema" transform="translate(-225,-175) scale(1.6,1.7)"/>
<polygon id="gema" fill="#0def54" stroke="#ffffff" stroke-width="3" points="20,0 100,0 120,20 120,60 100,80 20,80 0,60 0,20" transform="translate(315,210)"/>
<path style="stroke:#ffffff;stroke-width:3px" d="M 281.4,217 L 316.4,230.6"/>
<path style="stroke:#ffffff;stroke-width:3px" d="M 281.4,283 L 316.4,269.3"/>
<path style="stroke:#ffffff;stroke-width:3px" d="M 468.5,283 L 433.5,269.3"/>
<path style="stroke:#ffffff;stroke-width:3px" d="M 468.5,217 L 433.5,230.6"/>
<path style="stroke:#ffffff;stroke-width:3px" d="M 312,184.4 L 335.6,211.4"/>
<path style="stroke:#ffffff;stroke-width:3px" d="M 438,184.4 L 414.4,211.4"/>
<path style="stroke:#ffffff;stroke-width:3px" d="M 438,315.5 L 414.3,288.5"/>
<path style="stroke:#ffffff;stroke-width:3px" d="M 312,315.5 L 335.6,288.5"/>
</svg>
