<?xml version="1.0" encoding="UTF-8" standalone="no"?>
<!-- Created with Inkscape (http://www.inkscape.org/) -->

<svg
   xmlns:dc="http://purl.org/dc/elements/1.1/"
   xmlns:cc="http://creativecommons.org/ns#"
   xmlns:rdf="http://www.w3.org/1999/02/22-rdf-syntax-ns#"
   xmlns:svg="http://www.w3.org/2000/svg"
   xmlns="http://www.w3.org/2000/svg"
   xmlns:sodipodi="http://sodipodi.sourceforge.net/DTD/sodipodi-0.dtd"
   xmlns:inkscape="http://www.inkscape.org/namespaces/inkscape"
   width="750"
   height="500"
   id="svg2822"
   version="1.1"
   inkscape:version="0.47 r22583"
   sodipodi:docname="Flag of Flandes (Tolima).svg">
  <defs
     id="defs2824">
    <inkscape:perspective
       sodipodi:type="inkscape:persp3d"
       inkscape:vp_x="0 : 526.18109 : 1"
       inkscape:vp_y="0 : 1000 : 0"
       inkscape:vp_z="744.09448 : 526.18109 : 1"
       inkscape:persp3d-origin="372.04724 : 350.78739 : 1"
       id="perspective2830" />
  </defs>
  <sodipodi:namedview
     id="base"
     pagecolor="#ffffff"
     bordercolor="#666666"
     borderopacity="1.0"
     inkscape:pageopacity="0.0"
     inkscape:pageshadow="2"
     inkscape:zoom="0.62"
     inkscape:cx="375"
     inkscape:cy="219.6223"
     inkscape:document-units="px"
     inkscape:current-layer="layer1"
     showgrid="false"
     inkscape:window-width="1024"
     inkscape:window-height="538"
     inkscape:window-x="-8"
     inkscape:window-y="-8"
     inkscape:window-maximized="1" />
  <metadata
     id="metadata2827">
    <rdf:RDF>
      <cc:Work
         rdf:about="">
        <dc:format>image/svg+xml</dc:format>
        <dc:type
           rdf:resource="http://purl.org/dc/dcmitype/StillImage" />
        <dc:title></dc:title>
      </cc:Work>
    </rdf:RDF>
  </metadata>
  <g
     inkscape:label="Capa 1"
     inkscape:groupmode="layer"
     id="layer1"
     transform="translate(0,-552.36218)">
    <rect
       style="fill:#078930;fill-opacity:1;stroke:none"
       id="rect2832"
       width="750"
       height="166.666"
       x="0"
       y="-5.6843419e-14"
       transform="translate(0,552.36218)" />
    <rect
       style="fill:#ffffff;fill-opacity:1;stroke:none"
       id="rect2834"
       width="750"
       height="166.666"
       x="0"
       y="719.03015" />
    <rect
       style="fill:#eb7711;fill-opacity:1;stroke:none"
       id="rect2836"
       width="750"
       height="166.666"
       x="0"
       y="885.69617" />
    <path
       sodipodi:type="star"
       style="fill:#eb7711;fill-opacity:1;stroke:none"
       id="path9997"
       sodipodi:sides="16"
       sodipodi:cx="208.06451"
       sodipodi:cy="225.80646"
       sodipodi:r1="91.310837"
       sodipodi:r2="45.655418"
       sodipodi:arg1="0.94849346"
       sodipodi:arg2="1.144843"
       inkscape:flatsided="false"
       inkscape:rounded="0"
       inkscape:randomized="0"
       d="m 261.29032,300.00001 -34.36148,-32.61766 1.91726,47.33864 -19.26363,-43.28436 -16.34439,44.46892 -1.23307,-47.36141 -32.11776,34.82919 16.98521,-44.22811 -43.00149,19.88704 32.61765,-34.36148 -47.33864,1.91727 43.28436,-19.26364 -44.46891,-16.34439 47.3614,-1.23307 -34.82919,-32.11776 44.22811,16.98522 -19.88704,-43.0015 34.36148,32.61766 -1.91727,-47.33865 19.26364,43.28436 16.34439,-44.46891 1.23307,47.3614 32.11776,-34.82919 -16.98522,44.22811 43.0015,-19.88704 -32.61766,34.36149 47.33865,-1.91727 -43.28436,19.26363 44.46891,16.34439 -47.3614,1.23307 34.82919,32.11776 -44.22811,-16.98521 19.88704,43.0015 z"
       transform="matrix(0.83241685,0,0,0.83241685,201.80359,614.39708)" />
    <path
       sodipodi:type="arc"
       style="fill:#fcdd09;fill-opacity:1;stroke:none"
       id="path9995"
       sodipodi:cx="376.61292"
       sodipodi:cy="254.03226"
       sodipodi:rx="47.580647"
       sodipodi:ry="34.677418"
       d="m 424.19356,254.03226 a 47.580647,34.677418 0 1 1 -95.16129,0 47.580647,34.677418 0 1 1 95.16129,0 z"
       transform="matrix(0.78813557,0,0,1.0813954,77.551257,526.66665)" />
  </g>
</svg>
