<?xml version="1.0" encoding="UTF-8"?>
<!DOCTYPE svg PUBLIC "-//W3C//DTD SVG 1.0//EN" "http://www.w3.org/TR/2001/REC-SVG-20010904/DTD/svg10.dtd">
<svg xmlns="http://www.w3.org/2000/svg" width="750" height="500">
  <rect fill="#fcdd09" width="750" height="500"/>
  <path d="M 0,500 750,500 750,0 z" fill="#078930"/>
  <g
     transform="matrix(1.0847706,-0.60482951,0.60482946,1.0847707,239.641,262.82039)"
     id="g3789"
     style="fill:#ffffff;fill-opacity:1;stroke-width:0.41350928;stroke-miterlimit:4;stroke-dasharray:none">
    <path
       d="m 657.14285,606.64789 a 284.28571,274.28571 0 1 1 -568.571408,0 284.28571,274.28571 0 1 1 568.571408,0 z"
       transform="matrix(0.30859369,0.17206085,-0.17833391,0.31984451,93.340417,-214.12883)"
       id="path3590"
       style="fill:#da121a;fill-opacity:1;fill-rule:nonzero;stroke:#000000;stroke-width:1.11696374;stroke-miterlimit:4;stroke-opacity:1;stroke-dasharray:none" />
    <path
       d="m 35.57593,18.44982 9.86437,0 C 50.63445,13.84645 59.66523,10.65431 70.10122,6.05094 75.05617,6.02818 80.38096,5.63558 83.91134,7.03738 l 10.8508,5.49382 4.93219,7.8915 c 34.8214,6.94832 41.90134,30.61336 45.3761,42.41679 0.5171,8.66496 -3.06254,6.86047 -5.91863,6.90505 l -21.70161,-26.63379 20.71518,26.63379 c 1.27766,7.61135 -3.96343,11.05028 -9.86437,7.8915 l -25.05689,-22.98329 23.67972,21.76933 c 1.67289,2.33654 -1.3799,7.24311 -6.32844,5.27602 -6.49913,-3.0527 -17.22979,-9.13102 -28.29586,-14.5169 10.65946,5.66846 19.35675,9.68851 22.19411,11.54593 2.89486,1.89507 0.77379,1.76791 -0.003,2.85466 -9.28819,1.39235 -24.66368,-3.3886 -43.2556,-20.6683 -10.59445,-0.63512 -22.87369,1.42541 -35.411,3.89887 L 35.57593,18.44982 z"
       id="path6470"
       style="fill:#ffffff;fill-opacity:1;fill-rule:evenodd;stroke:#000000;stroke-width:0.41350928;stroke-linecap:butt;stroke-linejoin:miter;stroke-miterlimit:4;stroke-opacity:1;stroke-dasharray:none" />
    <path
       d="m 46.975,62.34018 c -0.21513,3.65319 -0.28375,7.15986 3.09425,7.21992 l 25.09781,-1.37523 c 2.45869,-0.77618 3.60828,-2.20692 2.40664,-4.81327 -1.83172,-1.15958 -3.21375,-2.56899 -5.81014,-3.30375 -5.31824,-0.79634 -11.9183,-0.86021 -19.20811,-0.52994 -2.24044,0.54823 -4.05994,0.9554 -5.58045,2.80227 z"
       id="path6452"
       style="fill:#ffffff;fill-opacity:1;fill-rule:evenodd;stroke:#000000;stroke-width:0.41350928;stroke-linecap:butt;stroke-linejoin:miter;stroke-miterlimit:4;stroke-opacity:1;stroke-dasharray:none" />
    <rect
       width="13.547844"
       height="49.675426"
       x="22.433285"
       y="17.975924"
       id="rect6492"
       style="fill:#ffffff;fill-opacity:1;fill-rule:evenodd;stroke:#000000;stroke-width:0.41350928;stroke-linejoin:miter;stroke-miterlimit:4;stroke-opacity:1;stroke-dasharray:none" />
    <path
       d="M 22.43328,17.9759 C 16.45962,16.13962 10.732731,15.248006 3.264281,17.89608 c 0,0 -4.16784811,13.211885 -3.39226402,27.779174 C -0.92806109,57.460833 4.5442759,74.811216 4.5442759,74.811216 12.146206,74.591836 16.80694,71.91604 22.15103,67.93358 L 22.43328,17.9759 z"
       id="path7379"
       style="fill:#ffffff;fill-opacity:1;fill-rule:evenodd;stroke:#000000;stroke-width:0.41350928;stroke-linecap:butt;stroke-linejoin:miter;stroke-miterlimit:4;stroke-opacity:1;stroke-dasharray:none" />
    <rect
       width="13.68645"
       height="44.733589"
       x="-176.3593"
       y="14.943086"
       transform="scale(-1,1)"
       id="rect8266"
       style="fill:#ffffff;fill-opacity:1;fill-rule:evenodd;stroke:#000000;stroke-width:0.41350928;stroke-linejoin:miter;stroke-miterlimit:4;stroke-opacity:1;stroke-dasharray:none" />
    <path
       d="m 112.2091,2.6492 c -4.12511,0.03135 -8.22854,0.59737 -12.3125,1.375 -4.21827,0.98698 -8.48327,2.07234 -12.9375,3.53125 -2.05652,0.67358 -4.16239,1.42049 -6.3125,2.28125 -5.71729,5.07983 -11.32046,10.113 -16.40625,17.71875 0.03428,2.75425 1.35302,4.12806 3.65625,4.9375 4.84219,1.99243 10.56768,1.64591 14.125,0.75 11.62667,-3.54556 13.35533,-8.00142 18.75,-11.84375 l 0,-0.71875 0.0937,-4.34375 1.125,4.59375 c 32.82152,7.51538 39.6975,30.36949 43.09375,41.90625 0.16525,2.76905 -0.11081,4.46729 -0.625,5.5 l 17.8125,-10.09375 0,-43.09375 C 149.99771,15.03107 138.69743,10.77813 128.36535,5.80545 122.86718,3.45663 117.51281,2.60889 112.2091,2.6492 z"
       id="path6432"
       style="fill:#ffffff;fill-opacity:1;fill-rule:evenodd;stroke:#000000;stroke-width:0.41350928;stroke-linecap:butt;stroke-linejoin:miter;stroke-miterlimit:4;stroke-opacity:1;stroke-dasharray:none" />
    <path
       d="m 55.87867,69.19902 c -1.26289,1.82582 -0.07731,9.28639 7.9428,10.67524 10.73969,0.27006 15.85116,-2.75028 21.20111,-5.17509 5.14572,-2.52124 1.03142,-5.71281 -3.09425,-6.1172 -5.64511,-0.74877 -25.43363,0.33176 -26.04966,0.61705 z"
       id="path6454"
       style="fill:#ffffff;fill-opacity:1;fill-rule:evenodd;stroke:#000000;stroke-width:0.41350928;stroke-linecap:butt;stroke-linejoin:miter;stroke-miterlimit:4;stroke-opacity:1;stroke-dasharray:none" />
    <path
       d="m 69.32236,79.87426 c -0.46492,0.92966 2.27756,5.77193 9.97037,7.21992 2.377,0.47424 13.35452,-2.86668 21.31594,-6.1885 1.5502,-3.1711 0.18559,-3.90405 -1.06669,-4.98068 -0.80549,-1.21672 -11.35776,-1.81709 -13.72595,-1.23409 -5.28715,2.25464 -10.83141,3.8665 -16.49367,5.18335 z"
       id="path6456"
       style="fill:#ffffff;fill-opacity:1;fill-rule:evenodd;stroke:#000000;stroke-width:0.41350928;stroke-linecap:butt;stroke-linejoin:miter;stroke-miterlimit:4;stroke-opacity:1;stroke-dasharray:none" />
    <path
       d="m 176.29001,15.0123 c 7.00069,-2.90452 13.74743,-2.341029 19.99721,0.0108 0,0 4.34737,12.389878 4.32978,25.52082 0.4191,14.112317 -2.50405,25.317699 -2.50405,25.317699 -6.49167,-0.68719 -15.04902,-2.66068 -21.54069,-7.10107 L 176.29001,15.0123 z"
       id="path8268"
       style="fill:#ffffff;fill-opacity:1;fill-rule:evenodd;stroke:#000000;stroke-width:0.41350928;stroke-linecap:butt;stroke-linejoin:miter;stroke-miterlimit:4;stroke-opacity:1;stroke-dasharray:none" />
  </g>
</svg>