<?xml version="1.0" encoding="UTF-8" standalone="no"?>
<!-- Created with Inkscape (http://www.inkscape.org/) -->

<svg
   xmlns:dc="http://purl.org/dc/elements/1.1/"
   xmlns:cc="http://creativecommons.org/ns#"
   xmlns:rdf="http://www.w3.org/1999/02/22-rdf-syntax-ns#"
   xmlns:svg="http://www.w3.org/2000/svg"
   xmlns="http://www.w3.org/2000/svg"
   xmlns:sodipodi="http://sodipodi.sourceforge.net/DTD/sodipodi-0.dtd"
   xmlns:inkscape="http://www.inkscape.org/namespaces/inkscape"
   width="750"
   height="500"
   id="svg2"
   version="1.1"
   inkscape:version="0.48.3.1 r9886"
   sodipodi:docname="Flag of Gualmatán (Nariño).svg">
  <defs
     id="defs4"><inkscape:perspective
   sodipodi:type="inkscape:persp3d"
   inkscape:vp_x="0 : 526.18109 : 1"
   inkscape:vp_y="0 : 1000 : 0"
   inkscape:vp_z="744.09448 : 526.18109 : 1"
   inkscape:persp3d-origin="372.04724 : 350.78739 : 1"
   id="perspective10" />

  <style
   id="style3542"
   type="text/css">
   
    .str3 {stroke:black;stroke-width:0.25;stroke-linecap:round;stroke-linejoin:round}
    .str0 {stroke:black;stroke-width:0.27}
    .str1 {stroke:black;stroke-width:0.27;stroke-linejoin:round}
    .str2 {stroke:black;stroke-width:0.27;stroke-linecap:round;stroke-linejoin:round}
    .fil1 {fill:none}
    .fil2 {fill:#008F4C}
    .fil0 {fill:#996633}
    .fil3 {fill:#CC9933}
   
  </style>

 </defs>
  <sodipodi:namedview
     id="base"
     pagecolor="#ffffff"
     bordercolor="#666666"
     borderopacity="1.0"
     inkscape:pageopacity="0.0"
     inkscape:pageshadow="2"
     inkscape:zoom="0.62225397"
     inkscape:cx="282.58139"
     inkscape:cy="241.79324"
     inkscape:document-units="px"
     inkscape:current-layer="layer1"
     showgrid="false"
     inkscape:window-width="1280"
     inkscape:window-height="962"
     inkscape:window-x="-8"
     inkscape:window-y="-8"
     inkscape:window-maximized="1" />
  <metadata
     id="metadata7">
    <rdf:RDF>
      <cc:Work
         rdf:about="">
        <dc:format>image/svg+xml</dc:format>
        <dc:type
           rdf:resource="http://purl.org/dc/dcmitype/StillImage" />
        <dc:title></dc:title>
      </cc:Work>
    </rdf:RDF>
  </metadata>
  <g
     inkscape:label="Capa 1"
     inkscape:groupmode="layer"
     id="layer1"
     transform="translate(0,-552.36218)"><path
   style="fill:#da121a;fill-opacity:1;stroke:none"
   d="m 0,1052.3583 750,-500.00003 0,500.00003 -750,0 z"
   id="path2820"
   inkscape:connector-curvature="0" />
<path
   style="fill:#078930;fill-opacity:1;stroke:none"
   d="m 0,1052.3583 0,-500.00003 750,0 L 0,1052.3583 z"
   id="path3594"
   inkscape:connector-curvature="0" />
<path
   style="fill:#ffffff;stroke:none"
   d="M 0.00390625,927.36218 0,1052.3622 l 125.00391,0 624.99218,-375.01174 0.008,-124.99219 -125,0.004 L 0.00390625,927.36218 z"
   id="path3608"
   inkscape:connector-curvature="0" />

 
 
 
<path
   sodipodi:type="arc"
   style="fill:#fcdd09;fill-opacity:1;stroke:none"
   id="path4047"
   sodipodi:cx="470.86884"
   sodipodi:cy="381.88101"
   sodipodi:rx="131.77899"
   sodipodi:ry="182.40141"
   d="m 602.64783,381.88101 a 131.77899,182.40141 0 1 1 -263.55799,0 131.77899,182.40141 0 1 1 263.55799,0 z"
   transform="matrix(0.47427894,0,0,0.61677154,151.67683,552.32884)" />
<path
   sodipodi:type="star"
   style="fill:#fcdd09;fill-opacity:1;stroke:none"
   id="path4049"
   sodipodi:sides="8"
   sodipodi:cx="163.92021"
   sodipodi:cy="157.69604"
   sodipodi:r1="122.52626"
   sodipodi:r2="38.824741"
   sodipodi:arg1="1.5716869"
   sodipodi:arg2="1.9643859"
   inkscape:flatsided="false"
   inkscape:rounded="0"
   inkscape:randomized="0"
   d="M 163.81109,280.22226 149.03069,193.55218 77.203938,244.258 128.03761,172.52168 41.394,157.58693 128.06407,142.80652 77.358255,70.979771 l 71.736315,50.833669 14.93476,-86.643607 14.7804,86.670077 71.82676,-50.705822 -50.83368,71.736322 86.64361,14.93475 -86.67007,14.78041 50.70582,71.82675 -71.73632,-50.83367 z"
   transform="matrix(1.0201898,0,0,1.5302848,207.77027,548.54231)" />
<g
   id="Capa_x0020_1"
   transform="matrix(1.6165988,0,0,1.7310179,133.65866,658.58914)">
  <metadata
   id="CorelCorpID_0Corel-Layer" />

  <g
   id="_109262760">
   <path
   d="m 148.412,101.384 c 0.001,0.006 0.002,0.012 0.003,0.0182 -0.1998,1.0256 -0.1876,1.8516 -0.0488,2.5598 -0.1853,0.9301 -0.1988,1.8278 -0.0469,2.5809 -0.1564,0.8216 -0.1891,1.6404 -0.0418,2.4575 -0.1445,0.8103 -0.1567,1.5859 -0.0368,2.3266 0.8486,0.6497 3.2535,0.7263 4.329,0.1377 0.1293,-0.7389 0.1271,-1.6285 -0.007,-2.4407 0.1579,-0.8149 0.1356,-1.6339 -0.0103,-2.4578 0.1616,-0.751 0.1596,-1.6488 -0.0137,-2.5815 0.1479,-0.7062 0.1705,-1.5318 -0.016,-2.5601 0.1409,-0.7876 0.1497,-1.6597 -0.0189,-2.6656 0.142,-0.7983 0.1471,-1.6501 -0.0198,-2.5685 0.15,-0.7838 0.1417,-1.6692 -0.0221,-2.6657 10e-4,-0.0079 0.002,-0.0157 0.003,-0.0238 0.1228,-0.7907 0.1271,-1.6798 -0.0191,-2.6897 0.15,-0.9586 0.1321,-1.8479 -0.021,-2.7216 0.1313,-0.8287 0.1401,-1.709 -0.019,-2.6901 0.1541,-0.7879 0.1506,-1.658 -0.019,-2.6899 0.2222,-0.8376 0.1332,-1.8897 -0.027,-2.7197 -7e-4,-0.0033 -0.001,-0.0067 -0.002,-0.01 0.1408,-0.9741 0.131,-1.8534 -0.011,-2.6818 0.142,-0.8945 0.1418,-1.7902 -0.0191,-2.69 0.1065,-0.891 0.095,-1.7934 -0.0209,-2.7217 0.115,-0.8854 0.0978,-1.7527 -0.0298,-2.6859 0.1036,-0.8137 0.1088,-1.6953 -0.0298,-2.6872 0.1224,-0.8544 0.1602,-1.7617 5e-4,-2.7282 0.122,-0.8749 0.1114,-1.773 -0.031,-2.6936 0.1214,-0.8344 0.1278,-1.722 -0.0331,-2.6865 0.1453,-0.9655 0.117,-1.8343 -0.0293,-2.6359 0.1144,-0.8924 0.1077,-1.5449 0.004,-2.4365 0.0227,-0.2727 0.004,-0.7862 -0.0282,-1.0589 l -2.7146,-0.0391 c -0.1153,0.1874 -0.1488,0.5635 -0.0742,1.0697 -0.1343,0.3875 -0.1279,2.0617 0.0288,2.4521 -0.1565,0.7995 -0.196,1.6677 -0.0631,2.6353 -0.1733,0.9621 -0.1782,1.8498 -0.0675,2.6857 -0.1544,0.9184 -0.1765,1.8163 -0.0657,2.6929 -0.172,0.9641 -0.1459,1.8721 -0.0344,2.728 -0.1515,0.9898 -0.1575,1.8713 -0.0643,2.6865 -0.1395,0.9313 -0.1679,1.7983 -0.0644,2.6853 -0.1277,0.9263 -0.151,1.8286 -0.0558,2.721 -0.1725,0.8975 -0.184,1.793 -0.0536,2.6895 -0.1527,0.8264 -0.1736,1.7053 -0.0455,2.6815 -0.1721,0.829 -0.2762,1.8846 -0.0639,2.7289 -0.1829,1.0294 -0.1974,1.8994 -0.0536,2.6894 -0.1717,0.9787 -0.1741,1.859 -0.0536,2.6894 -0.1641,0.8715 -0.1935,1.7605 -0.056,2.7212 -0.1606,1.0177 -0.1662,1.9144 -0.0509,2.7131 -0.1766,0.9939 -0.1964,1.8792 -0.0564,2.6649 -0.1788,0.9161 -0.1847,1.7678 -0.0529,2.5681 -0.18,0.9956 -0.1838,1.862 -0.0559,2.6468 z"
   id="_112166136"
   class="fil0 str0"
   inkscape:connector-curvature="0"
   style="fill:#996633;stroke:#000000;stroke-width:0.1614031" />

   <path
   d="m 148.382,103.934 c 1.0008,0.4629 3.5561,0.3827 4.1563,0.0749"
   id="_112703888"
   class="fil1 str1"
   inkscape:connector-curvature="0"
   style="fill:none;stroke:#000000;stroke-width:0.1614031;stroke-linejoin:round" />

   <path
   d="m 148.361,101.364 c 0.9553,0.4061 3.2354,0.3849 4.161,0.0771"
   id="_105428400"
   class="fil1 str1"
   inkscape:connector-curvature="0"
   style="fill:none;stroke:#000000;stroke-width:0.1614031;stroke-linejoin:round" />

   <path
   d="m 148.488,98.6745 c 0.9251,0.4628 3.1199,0.3438 4.0152,0.0764"
   id="_122805528"
   class="fil1 str1"
   inkscape:connector-curvature="0"
   style="fill:none;stroke:#000000;stroke-width:0.1614031;stroke-linejoin:round" />

   <path
   d="m 148.541,96.1225 c 1.0234,0.4629 3.2513,0.3361 3.9423,0.0687"
   id="_113328848"
   class="fil1 str1"
   inkscape:connector-curvature="0"
   style="fill:none;stroke:#000000;stroke-width:0.1614031;stroke-linejoin:round" />

   <path
   d="m 148.591,93.4895 c 1.0993,0.3135 3.0265,0.3013 3.873,0.0118"
   id="_140461728"
   class="fil1 str1"
   inkscape:connector-curvature="0"
   style="fill:none;stroke:#000000;stroke-width:0.1614031;stroke-linejoin:round" />

   <path
   d="m 148.643,90.7981 c 1.1325,0.2708 2.899,0.2807 3.8024,0.0133"
   id="_111252504"
   class="fil1 str1"
   inkscape:connector-curvature="0"
   style="fill:none;stroke:#000000;stroke-width:0.1614031;stroke-linejoin:round" />

   <path
   d="m 148.695,88.0713 c 1.0336,0.2638 3.0258,0.2797 3.7289,0.0185"
   id="_127192920"
   class="fil1 str1"
   inkscape:connector-curvature="0"
   style="fill:none;stroke:#000000;stroke-width:0.1614031;stroke-linejoin:round" />

   <path
   d="m 148.747,85.3975 c 0.8973,0.2881 2.7881,0.2636 3.6576,0.0024"
   id="_99199072"
   class="fil1 str1"
   inkscape:connector-curvature="0"
   style="fill:none;stroke:#000000;stroke-width:0.1614031;stroke-linejoin:round" />

   <path
   d="m 148.823,82.6992 c 1.1464,0.278 2.7328,0.3013 3.5628,0.0108"
   id="_57974072"
   class="fil1 str1"
   inkscape:connector-curvature="0"
   style="fill:none;stroke:#000000;stroke-width:0.1614031;stroke-linejoin:round" />

   <path
   d="m 148.876,79.9675 c 1.1659,0.2763 2.8197,0.2436 3.4889,0.0209"
   id="_139695576"
   class="fil1 str1"
   inkscape:connector-curvature="0"
   style="fill:none;stroke:#000000;stroke-width:0.1614031;stroke-linejoin:round" />

   <path
   d="m 148.917,77.2849 c 1.1524,0.2594 2.9598,0.1655 3.4287,0.0136"
   id="_108876192"
   class="fil1 str1"
   inkscape:connector-curvature="0"
   style="fill:none;stroke:#000000;stroke-width:0.1614031;stroke-linejoin:round" />

   <path
   d="m 148.983,74.6633 c 1.074,0.1956 2.8846,0.094 3.3441,-0.0548"
   id="_104468904"
   class="fil1 str1"
   inkscape:connector-curvature="0"
   style="fill:none;stroke:#000000;stroke-width:0.1614031;stroke-linejoin:round" />

   <path
   d="m 149.038,71.8798 c 1.0566,0.2852 2.8129,0.1544 3.2678,0.0071"
   id="_108959488"
   class="fil1 str1"
   inkscape:connector-curvature="0"
   style="fill:none;stroke:#000000;stroke-width:0.1614031;stroke-linejoin:round" />

   <path
   d="m 149.108,69.2544 c 1.0069,0.2579 2.5911,0.1525 3.1786,-0.0574"
   id="_109312288"
   class="fil1 str1"
   inkscape:connector-curvature="0"
   style="fill:none;stroke:#000000;stroke-width:0.1614031;stroke-linejoin:round" />

   <path
   d="m 149.19,66.5129 c 0.9896,0.2148 2.6421,0.1353 3.0781,-0.0058"
   id="_109287888"
   class="fil1 str1"
   inkscape:connector-curvature="0"
   style="fill:none;stroke:#000000;stroke-width:0.1614031;stroke-linejoin:round" />

   <path
   d="m 149.23,63.8084 c 0.9872,0.2041 2.5899,0.1153 3.0165,-0.0229"
   id="_85988992"
   class="fil1 str1"
   inkscape:connector-curvature="0"
   style="fill:none;stroke:#000000;stroke-width:0.1614031;stroke-linejoin:round" />

   <path
   d="m 149.324,61.1244 c 1.0745,0.1317 2.4438,0.1188 2.8517,-0.0133"
   id="_144371400"
   class="fil1 str1"
   inkscape:connector-curvature="0"
   style="fill:none;stroke:#000000;stroke-width:0.1614031;stroke-linejoin:round" />

   <path
   d="m 149.388,58.3767 c 0.8915,0.1886 2.3753,0.172 2.7692,0.0445"
   id="_142302024"
   class="fil1 str1"
   inkscape:connector-curvature="0"
   style="fill:none;stroke:#000000;stroke-width:0.1614031;stroke-linejoin:round" />

   <path
   d="m 149.446,55.7443 c 0.972,0.1544 2.3143,0.1447 2.6988,0.0201"
   id="_90888000"
   class="fil1 str1"
   inkscape:connector-curvature="0"
   style="fill:none;stroke:#000000;stroke-width:0.1614031;stroke-linejoin:round" />

   <path
   d="m 149.34,53.3045 c 0.7285,0.0748 2.5167,0.1256 2.8168,0.0284"
   id="_108984096"
   class="fil1 str1"
   inkscape:connector-curvature="0"
   style="fill:none;stroke:#000000;stroke-width:0.1614031;stroke-linejoin:round" />

   <path
   d="m 148.336,106.486 c 1.0151,0.4629 3.6068,0.3827 4.2156,0.0749"
   id="_59547952"
   class="fil1 str1"
   inkscape:connector-curvature="0"
   style="fill:none;stroke:#000000;stroke-width:0.1614031;stroke-linejoin:round" />

   <path
   d="m 148.286,108.933 c 1.0295,0.4629 3.6581,0.3827 4.2756,0.0748"
   id="_109262800"
   class="fil1 str1"
   inkscape:connector-curvature="0"
   style="fill:none;stroke:#000000;stroke-width:0.1614031;stroke-linejoin:round" />

  </g>

  
  
 </g>
<g
   id="Capa_x0020_2"
   transform="matrix(1.6165988,0,0,1.7310179,133.65866,658.58914)">
  <metadata
   id="CorelCorpID_1Corel-Layer" />

  
  
  
  
  
  
  
  
  
  
  <path
   id="path3753"
   d="m 152.182,55.2481 c -1.0696,0 -1.937,0.8674 -1.937,1.9371 0,1.0696 0.8674,1.937 1.937,1.937 1.0696,0 1.937,-0.8674 1.937,-1.937 0,-1.0697 -0.8674,-1.9371 -1.937,-1.9371 z"
   class="fil3 str2"
   inkscape:connector-curvature="0"
   style="fill:#cc9933;stroke:#000000;stroke-width:0.1614031;stroke-linecap:round;stroke-linejoin:round" />

  <path
   id="path3755"
   d="m 148.617,55.1166 c -1.0696,0 -1.937,0.8674 -1.937,1.9371 0,1.0696 0.8674,1.937 1.937,1.937 1.0696,0 1.937,-0.8674 1.937,-1.937 0,-1.0697 -0.8674,-1.9371 -1.937,-1.9371 z"
   class="fil3 str2"
   inkscape:connector-curvature="0"
   style="fill:#cc9933;stroke:#000000;stroke-width:0.1614031;stroke-linecap:round;stroke-linejoin:round" />

  <path
   id="path3757"
   d="m 150.424,52.3386 c -1.0696,0 -1.937,0.8674 -1.937,1.9371 0,1.0696 0.8674,1.937 1.937,1.937 1.0696,0 1.937,-0.8674 1.937,-1.937 0,-1.0697 -0.8674,-1.9371 -1.937,-1.9371 z"
   class="fil3 str2"
   inkscape:connector-curvature="0"
   style="fill:#cc9933;stroke:#000000;stroke-width:0.1614031;stroke-linecap:round;stroke-linejoin:round" />

  <g
   id="_110261640">
   <path
   d="m 156.59,46.9239 c 1.641,-0.3606 4.002,-0.4093 7.2607,-0.4954 -0.7856,-0.262 -1.6572,-0.5327 -2.9631,-0.8798 1.9041,-0.2637 6.4373,-0.2046 7.5997,-0.2155 -0.7872,-0.4813 -2.74,-1.2517 -3.2598,-1.3573 2.4932,-0.4114 5.4714,-0.0178 7.5678,0.3184 -0.9789,-0.549 -2.085,-1.2572 -3.4878,-1.6389 2.9929,-0.2051 4.1802,0.0358 6.9571,0.4088 -0.379,-0.3405 -1.6692,-1.275 -3.0335,-1.6643 3.3264,-0.609 5.1915,-0.7379 8.4519,-0.4753 -9.4178,-4.3096 -20.8446,-2.0676 -27.7226,2.6729 0.6897,-1.0807 2.1764,-2.7222 3.6274,-3.9598 -0.7347,-0.0585 -1.4326,-0.0406 -2.3817,0.1315 1.0076,-1.1044 2.903,-2.5798 4.1867,-3.0898 -0.9372,-0.0498 -1.7292,-0.0693 -2.5711,0.0969 1.262,-1.1721 3.1661,-2.4108 4.7833,-3.2349 -0.9599,-0.0882 -1.9404,-0.1071 -2.8922,0.0666 1.2755,-1.5013 3.5045,-3.0372 5.4747,-3.9739 -1.2831,-0.0211 -2.0731,0.0228 -3.2192,0.2485 1.6388,-1.4948 3.8304,-3.0616 6.7123,-4.5169 -11.4225,1.2793 -17.7283,9.5146 -18.2653,16.489 -3.0443,-6.5629 -11.3354,-12.8399 -22.7498,-12.3613 3.4076,1.0389 6.1151,2.3042 8.2234,3.5851 -1.268,-0.0487 -2.1115,0.0331 -3.4618,0.261 2.3172,0.6508 5.0556,1.8787 6.7816,3.2235 -1.0487,-0.0249 -2.0779,0.1516 -3.0686,0.398 1.9144,0.5912 4.2354,1.563 5.8628,2.5716 -0.9306,-0.0368 -1.7612,0.111 -2.7379,0.3135 1.4835,0.32 3.8559,1.5387 5.1986,2.5181 -1.046,-0.0249 -1.7861,0.0682 -2.5468,0.2479 3.4347,1.3395 3.6545,1.9437 4.4125,2.3979 -7.1243,-1.523 -17.4219,0.8294 -25.3393,10.0274 1.1488,-0.9686 6.0518,-2.7942 7.6088,-3.2133 -0.8115,0.9713 -1.0925,1.4813 -1.7346,2.7 1.7801,-1.4385 4.4682,-2.6258 7.0323,-3.6474 -0.5398,0.8175 -1.1256,1.8808 -1.3958,2.5614 1.8668,-1.1559 2.4358,-1.3227 6.2581,-3.1402 -0.2761,0.4672 -1.0373,1.4813 -1.4011,2.4439 1.1678,-0.6654 3.943,-1.6789 5.8244,-2.3551 0.1289,-0.0476 -1.1321,1.0325 -1.7022,2.3259 0.4294,-0.1619 3.0389,-1.1056 3.138,-1.1326 -6.0242,4.2067 -10.5157,11.2644 -9.6061,19.8489 0.3476,-1.3421 1.9393,-5.1958 2.8413,-6.7367 -0.0991,1.0222 0.1326,2.7173 0.3205,3.4753 0.8868,-2.5636 1.8619,-4.6079 3.3155,-6.8287 -0.1202,1.3703 -0.0871,2.8824 0.1013,3.5039 0.8121,-1.896 1.4526,-3.524 3.4433,-7.0339 -0.1288,0.523 -0.1565,2.0032 -0.0352,3.3112 0.6594,-1.4444 2.1905,-4.2922 3.6859,-6.3988 -0.0736,0.7753 -0.2139,2.0871 -0.1554,2.6323 0.1586,-0.2772 0.6308,-1.0536 1.1797,-1.9215 0.856,-1.3518 1.8993,-2.9246 2.2393,-3.1775 0.262,0.2642 0.5105,0.588 0.7433,0.96 0.9372,1.504 1.6085,3.8028 1.8175,6.1833 0.5003,-1.1683 0.7158,-2.3594 0.7791,-2.9891 1.0687,2.3909 2.2739,6.1309 2.36,8.1915 0.3595,-1.0937 0.5452,-1.7747 0.6746,-3.4872 1.1136,1.7877 2.0833,6.191 2.1732,8.1021 0.4331,-0.7482 0.7915,-1.6832 1.0525,-3.079 1.0903,2.4618 1.5208,5.5251 1.785,7.6387 2.7979,-10.1811 -1.2176,-16.7624 -6.1125,-21.7845 1.2312,0.6676 2.7882,2.0384 4.3101,3.6897 -0.1391,-0.7688 -0.5619,-2.2349 -0.9068,-3.0064 1.8094,1.2864 4.4763,3.9365 5.2191,4.701 -0.1278,-1.0065 -0.2718,-1.5392 -0.804,-2.8234 2.1353,1.4796 4.0416,4.0134 5.1223,5.4097 -0.0872,-0.6437 -0.2594,-1.8522 -0.7033,-3.2414 1.9479,1.4564 3.8878,4.3816 4.7714,6.0302 -0.0233,-1.1272 -0.3389,-2.3194 -0.6042,-3.5479 2.6523,2.242 3.6322,4.6139 4.4703,6.047 0.0212,-9.1931 -10.618,-17.463 -20.5056,-18.3249 z"
   id="_109373744"
   class="fil2"
   inkscape:connector-curvature="0"
   style="fill:#008f4c" />

   <g
   id="g3761">
    <path
   d="m 152.494,47.0175 c 10.7792,-1.5406 24.6254,7.7441 24.6017,18.2311 -0.8387,-1.4332 -1.8186,-3.8049 -4.4718,-6.0474 0.2667,1.2291 0.5817,2.4215 0.6047,3.5484 -0.8831,-1.6491 -2.8229,-4.5741 -4.7717,-6.0305 0.4442,1.3894 0.6171,2.5982 0.7045,3.2425 -1.081,-1.3973 -2.9874,-3.9313 -5.1233,-5.4106 0.5328,1.2845 0.6766,1.8168 0.8042,2.8246 -0.7428,-0.7657 -3.4095,-3.4161 -5.219,-4.7026 0.3453,0.7721 0.7678,2.2384 0.9073,3.0067 -1.5224,-1.6517 -3.0793,-3.0219 -4.3106,-3.6896"
   id="_57651880"
   class="fil1 str2"
   inkscape:connector-curvature="0"
   style="fill:none;stroke:#000000;stroke-width:0.1614031;stroke-linecap:round;stroke-linejoin:round" />

    <path
   d="m 150.079,46.8892 c -6.4528,-4.1578 -20.1473,-3.4016 -30.0886,8.1482 1.1479,-0.9684 6.051,-2.7939 7.6087,-3.2137 -0.8119,0.9714 -1.0931,1.4818 -1.7348,2.7001 1.7803,-1.4389 4.4681,-2.6253 7.0318,-3.6473 -0.5399,0.8177 -1.1256,1.8809 -1.3948,2.5612 1.8658,-1.1564 2.435,-1.3222 6.2572,-3.1401 -0.2765,0.4675 -1.0379,1.4814 -1.4005,2.4443 1.1664,-0.6654 3.9423,-1.6794 5.8234,-2.3561 0.1298,-0.0468 -1.1319,1.0335 -1.7016,2.3271 0.4289,-0.1625 3.0397,-1.1052 3.1378,-1.1332"
   id="_109373784"
   class="fil1 str2"
   inkscape:connector-curvature="0"
   style="fill:none;stroke:#000000;stroke-width:0.1614031;stroke-linecap:round;stroke-linejoin:round" />

    <path
   d="m 150.512,45.2491 c -1.3704,-7.5872 -10.4595,-16.3174 -23.8474,-15.7566 3.4078,1.0396 6.1159,2.305 8.2232,3.5854 -1.2671,-0.0487 -2.1108,0.0336 -3.4605,0.2617 2.3154,0.6502 5.0548,1.8781 6.7804,3.223 -1.0482,-0.0248 -2.0775,0.1522 -3.0682,0.3986 1.9138,0.5901 4.2352,1.5628 5.8626,2.571 -0.9302,-0.0367 -1.7612,0.1113 -2.7376,0.3137 1.4838,0.3203 3.8554,1.5387 5.1984,2.518 -1.046,-0.0248 -1.7867,0.0689 -2.5469,0.248 3.4341,1.339 3.655,1.9436 4.4116,2.3988"
   id="_59500704"
   class="fil1 str2"
   inkscape:connector-curvature="0"
   style="fill:none;stroke:#000000;stroke-width:0.1614031;stroke-linecap:round;stroke-linejoin:round" />

    <path
   d="m 150.417,48.2445 c -8.969,2.7373 -17.6366,11.5624 -16.405,23.1839 0.3472,-1.3414 1.939,-5.1962 2.8405,-6.7364 -0.0984,1.0224 0.1327,2.7171 0.3206,3.474 0.8869,-2.5625 1.862,-4.6073 3.3151,-6.8279 -0.1195,1.3709 -0.086,2.8828 0.102,3.5054 0.8123,-1.8966 1.4515,-3.5244 3.4431,-7.0351 -0.1292,0.5229 -0.1565,2.0028 -0.0352,3.3114 0.6594,-1.4442 2.1904,-4.2923 3.6858,-6.3991 -0.0737,0.7753 -0.2132,2.0876 -0.1559,2.6319 0.4074,-0.7082 2.861,-4.6842 3.4196,-5.0985"
   id="_114147888"
   class="fil1 str2"
   inkscape:connector-curvature="0"
   style="fill:none;stroke:#000000;stroke-width:0.1614031;stroke-linecap:round;stroke-linejoin:round" />

    <path
   d="m 145.367,52.8151 c -0.6246,1.7686 -1.1355,3.6773 -1.3336,4.9933"
   id="_109396888"
   class="fil1 str2"
   inkscape:connector-curvature="0"
   style="fill:none;stroke:#000000;stroke-width:0.1614031;stroke-linecap:round;stroke-linejoin:round" />

    <path
   d="m 142.088,55.0574 c -0.6088,1.577 -1.3598,4.4486 -1.6004,6.2807"
   id="_57647160"
   class="fil1 str2"
   inkscape:connector-curvature="0"
   style="fill:none;stroke:#000000;stroke-width:0.1614031;stroke-linecap:round;stroke-linejoin:round" />

    <path
   d="m 138.793,58.196 c -0.8961,2.0169 -1.7003,4.9316 -1.9405,6.496"
   id="_61202400"
   class="fil1 str2"
   inkscape:connector-curvature="0"
   style="fill:none;stroke:#000000;stroke-width:0.1614031;stroke-linecap:round;stroke-linejoin:round" />

    <line
   y2="50.181301"
   x2="150.98199"
   y1="52.254101"
   x1="150.94701"
   id="_108003056"
   class="fil1 str2"
   style="fill:none;stroke:#000000;stroke-width:0.1614031;stroke-linecap:round;stroke-linejoin:round" />

    <path
   d="m 160.236,61.2899 c 0.2745,1.6367 0.4089,2.4981 0.3102,4.8457"
   id="_109350400"
   class="fil1 str2"
   inkscape:connector-curvature="0"
   style="fill:none;stroke:#000000;stroke-width:0.1614031;stroke-linecap:round;stroke-linejoin:round" />

    <path
   d="m 156.826,55.6296 c 0.3532,1.8278 0.5013,3.0374 0.4962,5.483"
   id="_109347792"
   class="fil1 str2"
   inkscape:connector-curvature="0"
   style="fill:none;stroke:#000000;stroke-width:0.1614031;stroke-linecap:round;stroke-linejoin:round" />

    <path
   d="m 153.65,51.9621 c 0.3935,1.1276 0.6335,2.5775 0.6362,4.4475"
   id="_137236192"
   class="fil1 str2"
   inkscape:connector-curvature="0"
   style="fill:none;stroke:#000000;stroke-width:0.1614031;stroke-linecap:round;stroke-linejoin:round" />

    <path
   d="m 170.618,55.049 c 1.195,1.5373 1.7758,3.2643 2.0067,4.1521"
   id="_137234560"
   class="fil1 str2"
   inkscape:connector-curvature="0"
   style="fill:none;stroke:#000000;stroke-width:0.1614031;stroke-linecap:round;stroke-linejoin:round" />

    <path
   d="m 165.768,51.6804 c 1.1715,1.3802 2.3138,3.8331 2.689,5.0386"
   id="_137232928"
   class="fil1 str2"
   inkscape:connector-curvature="0"
   style="fill:none;stroke:#000000;stroke-width:0.1614031;stroke-linecap:round;stroke-linejoin:round" />

    <path
   d="m 161.695,50.3172 c 1.0078,1.3133 1.6963,2.7045 2.3433,4.2339"
   id="_276224976"
   class="fil1 str2"
   inkscape:connector-curvature="0"
   style="fill:none;stroke:#000000;stroke-width:0.1614031;stroke-linecap:round;stroke-linejoin:round" />

    <path
   d="m 127.599,51.8237 c 1.1065,-1.18 2.8274,-2.8354 5.9497,-4.1123"
   id="_276223488"
   class="fil1 str2"
   inkscape:connector-curvature="0"
   style="fill:none;stroke:#000000;stroke-width:0.1614031;stroke-linecap:round;stroke-linejoin:round" />

    <path
   d="m 132.896,50.8765 c 1.3346,-1.6887 2.0169,-2.7511 5.5171,-4.2747"
   id="_61025264"
   class="fil1 str2"
   inkscape:connector-curvature="0"
   style="fill:none;stroke:#000000;stroke-width:0.1614031;stroke-linecap:round;stroke-linejoin:round" />

    <path
   d="m 137.758,50.2977 c 1.1013,-1.4081 2.8701,-3.004 5.551,-3.9575"
   id="_61023680"
   class="fil1 str2"
   inkscape:connector-curvature="0"
   style="fill:none;stroke:#000000;stroke-width:0.1614031;stroke-linecap:round;stroke-linejoin:round" />

    <path
   d="m 142.181,50.3857 c 1.7488,-1.5959 3.361,-2.4443 5.5075,-3.3549"
   id="_61022688"
   class="fil1 str2"
   inkscape:connector-curvature="0"
   style="fill:none;stroke:#000000;stroke-width:0.1614031;stroke-linecap:round;stroke-linejoin:round" />

    <path
   d="m 134.888,33.0775 c 2.3091,0.2535 5.4957,1.056 7.4435,2.3405"
   id="_60098480"
   class="fil1 str2"
   inkscape:connector-curvature="0"
   style="fill:none;stroke:#000000;stroke-width:0.1614031;stroke-linecap:round;stroke-linejoin:round" />

    <path
   d="m 138.208,36.5622 c 2.1007,0.0371 4.9699,0.6643 6.4442,1.4664"
   id="_59194896"
   class="fil1 str2"
   inkscape:connector-curvature="0"
   style="fill:none;stroke:#000000;stroke-width:0.1614031;stroke-linecap:round;stroke-linejoin:round" />

    <path
   d="m 141.003,39.5324 c 2.0773,0.0392 4.6798,0.8954 6.8102,2.1159"
   id="_60493792"
   class="fil1 str2"
   inkscape:connector-curvature="0"
   style="fill:none;stroke:#000000;stroke-width:0.1614031;stroke-linecap:round;stroke-linejoin:round" />

    <path
   d="m 143.463,42.364 c 2.7835,0.2454 4.6914,1.2563 5.9323,2.015"
   id="_59289568"
   class="fil1 str2"
   inkscape:connector-curvature="0"
   style="fill:none;stroke:#000000;stroke-width:0.1614031;stroke-linecap:round;stroke-linejoin:round" />

    <path
   d="m 152.289,44.8741 c 6.5684,-5.5837 19.1653,-8.6301 29.3925,-3.9493 -3.2607,-0.264 -5.1252,-0.1338 -8.4512,0.4747 1.3638,0.3894 2.6545,1.3245 3.0337,1.6648 -2.7769,-0.373 -3.9638,-0.6141 -6.9572,-0.4088 1.4027,0.3813 2.5088,1.0898 3.487,1.6388 -2.0952,-0.3367 -5.0741,-0.7293 -7.5672,-0.3178 0.5198,0.1049 2.4721,0.8748 3.2596,1.3563 -1.1627,0.0117 -5.6949,-0.0473 -7.5991,0.2156 1.306,0.3473 2.1771,0.6178 2.9627,0.8803 -3.2594,0.0855 -5.6199,0.1341 -7.2607,0.4948"
   id="_59437040"
   class="fil1 str2"
   inkscape:connector-curvature="0"
   style="fill:none;stroke:#000000;stroke-width:0.1614031;stroke-linecap:round;stroke-linejoin:round" />

    <path
   d="m 173.231,41.3995 c -2.0254,-0.8195 -5.5608,-1.1901 -7.3778,-1.0743"
   id="_57583984"
   class="fil1 str2"
   inkscape:connector-curvature="0"
   style="fill:none;stroke:#000000;stroke-width:0.1614031;stroke-linecap:round;stroke-linejoin:round" />

    <path
   d="m 169.307,42.6555 c -3.58,-1.1863 -6.9823,-1.1225 -8.6907,-0.8639"
   id="_59158512"
   class="fil1 str2"
   inkscape:connector-curvature="0"
   style="fill:none;stroke:#000000;stroke-width:0.1614031;stroke-linecap:round;stroke-linejoin:round" />

    <path
   d="m 165.227,43.9765 c -3.1489,-0.8873 -6.8417,-0.9095 -8.5501,-0.6509"
   id="_56459728"
   class="fil1 str2"
   inkscape:connector-curvature="0"
   style="fill:none;stroke:#000000;stroke-width:0.1614031;stroke-linecap:round;stroke-linejoin:round" />

    <path
   d="m 160.888,45.5483 c -3.0306,-0.7298 -5.2028,-0.6286 -6.9111,-0.3699"
   id="_55106048"
   class="fil1 str2"
   inkscape:connector-curvature="0"
   style="fill:none;stroke:#000000;stroke-width:0.1614031;stroke-linecap:round;stroke-linejoin:round" />

    <path
   d="m 156.852,48.8592 c 1.2396,1.0509 2.1242,2.2843 2.7711,3.8137"
   id="_55036328"
   class="fil1 str2"
   inkscape:connector-curvature="0"
   style="fill:none;stroke:#000000;stroke-width:0.1614031;stroke-linecap:round;stroke-linejoin:round" />

    <path
   d="m 149.415,41.8546 c 0.5367,-6.9747 6.8421,-15.2098 18.265,-16.4891 -2.8811,1.4555 -5.0727,3.0221 -6.7122,4.517 1.1466,-0.2259 1.9356,-0.2693 3.2194,-0.2487 -1.9701,0.9366 -4.1987,2.4725 -5.4751,3.9734 0.952,-0.1725 1.9318,-0.154 2.8917,-0.0652 -1.6167,0.8233 -3.5203,2.0616 -4.7822,3.2342 0.8416,-0.1667 1.6337,-0.147 2.5708,-0.0972 -1.284,0.5102 -3.1788,1.9849 -4.1872,3.0901 0.9499,-0.1721 1.6475,-0.1903 2.3818,-0.1314 -1.4507,1.2373 -2.937,2.8796 -3.6268,3.9596"
   id="_57285408"
   class="fil1 str2"
   inkscape:connector-curvature="0"
   style="fill:none;stroke:#000000;stroke-width:0.1614031;stroke-linecap:round;stroke-linejoin:round" />

    <path
   d="m 160.967,29.8822 c -1.6678,0.4595 -3.7841,1.3396 -5.3197,2.4452"
   id="_60502904"
   class="fil1 str2"
   inkscape:connector-curvature="0"
   style="fill:none;stroke:#000000;stroke-width:0.1614031;stroke-linecap:round;stroke-linejoin:round" />

    <path
   d="m 158.712,33.6068 c -1.5673,0.2737 -3.5186,0.9919 -4.8137,1.7701"
   id="_110052216"
   class="fil1 str2"
   inkscape:connector-curvature="0"
   style="fill:none;stroke:#000000;stroke-width:0.1614031;stroke-linecap:round;stroke-linejoin:round" />

    <path
   d="m 156.821,36.7764 c -1.6379,0.2884 -3.4997,1.2062 -5.0569,2.3855"
   id="_60876664"
   class="fil1 str2"
   inkscape:connector-curvature="0"
   style="fill:none;stroke:#000000;stroke-width:0.1614031;stroke-linecap:round;stroke-linejoin:round" />

    <path
   d="m 155.205,39.7693 c -2.4879,0.6254 -4.0054,1.8405 -4.9697,2.7252"
   id="_56253864"
   class="fil1 str2"
   inkscape:connector-curvature="0"
   style="fill:none;stroke:#000000;stroke-width:0.1614031;stroke-linecap:round;stroke-linejoin:round" />

    <path
   d="m 148.679,50.7319 c -0.4875,1.2544 -0.8346,2.9194 -0.9955,3.9885"
   id="_141276520"
   class="fil1 str2"
   inkscape:connector-curvature="0"
   style="fill:none;stroke:#000000;stroke-width:0.1614031;stroke-linecap:round;stroke-linejoin:round" />

    <path
   d="m 151.706,47.8077 c 6.3601,5.5562 14.2699,12.7107 10.6267,25.9665 -0.2643,-2.1136 -0.6948,-5.1764 -1.7849,-7.6386 -0.2613,1.3966 -0.6198,2.3313 -1.0531,3.0795 -0.0892,-1.9111 -1.059,-6.3143 -2.1732,-8.1026 -0.1291,1.7125 -0.3147,2.3936 -0.6742,3.4881 -0.0864,-2.0614 -1.2914,-5.8011 -2.3599,-8.1917 -0.0635,0.6286 -0.279,1.8206 -0.7789,2.9888 -0.2605,-2.9704 -1.2412,-5.8129 -2.5613,-7.1431"
   id="_56765888"
   class="fil1 str2"
   inkscape:connector-curvature="0"
   style="fill:none;stroke:#000000;stroke-width:0.1614031;stroke-linecap:round;stroke-linejoin:round" />

   </g>

  </g>

 </g>
</g>
</svg>
