<?xml version="1.0" encoding="UTF-8" standalone="no"?>
<!-- Created with Inkscape (http://www.inkscape.org/) -->
<svg
   xmlns:dc="http://purl.org/dc/elements/1.1/"
   xmlns:cc="http://creativecommons.org/ns#"
   xmlns:rdf="http://www.w3.org/1999/02/22-rdf-syntax-ns#"
   xmlns:svg="http://www.w3.org/2000/svg"
   xmlns="http://www.w3.org/2000/svg"
   xmlns:sodipodi="http://sodipodi.sourceforge.net/DTD/sodipodi-0.dtd"
   xmlns:inkscape="http://www.inkscape.org/namespaces/inkscape"
   width="750"
   height="500"
   id="svg2"
   version="1.1"
   inkscape:version="0.46"
   sodipodi:docname="Flag_of_Rosas_(Cauca).svg"
   sodipodi:version="0.32"
   inkscape:output_extension="org.inkscape.output.svg.inkscape">
  <defs
     id="defs4" />
  <sodipodi:namedview
     id="base"
     pagecolor="#ffffff"
     bordercolor="#666666"
     borderopacity="1.0"
     inkscape:pageopacity="0.0"
     inkscape:pageshadow="2"
     inkscape:zoom="1.014"
     inkscape:cx="375"
     inkscape:cy="250"
     inkscape:document-units="px"
     inkscape:current-layer="layer1"
     showgrid="false"
     inkscape:window-width="1024"
     inkscape:window-height="712"
     inkscape:window-x="-4"
     inkscape:window-y="-4"
     inkscape:window-maximized="1" />
  <metadata
     id="metadata7">
    <rdf:RDF>
      <cc:Work
         rdf:about="">
        <dc:format>image/svg+xml</dc:format>
        <dc:type
           rdf:resource="http://purl.org/dc/dcmitype/StillImage" />
        <dc:title />
      </cc:Work>
    </rdf:RDF>
  </metadata>
  <g
     inkscape:label="Capa 1"
     inkscape:groupmode="layer"
     id="layer1"
     transform="translate(0,-552.36218)">
    <rect
       style="fill:#0f47af;fill-opacity:1;stroke:none"
       id="rect2816"
       width="750"
       height="166.666"
       x="0"
       y="-1052.3622"
       transform="scale(1,-1)" />
    <rect
       style="fill:#ffffff;fill-opacity:1;stroke:none"
       id="rect2818"
       width="750"
       height="166.666"
       x="0.5"
       y="-885.69421"
       transform="scale(1,-1)" />
    <rect
       style="fill:#078930;fill-opacity:1;stroke:none"
       id="rect2820"
       width="750"
       height="166.666"
       x="0"
       y="-719.0282"
       transform="scale(1,-1)" />
    <g
       id="g3173"
       transform="matrix(0.5522515,0,0,0.5522515,209.48841,702.51113)"
       style="fill:#fcdd09;fill-opacity:1;stroke:#eb7711;stroke-opacity:1;stroke-width:1.81076919;stroke-miterlimit:4;stroke-dasharray:none">
      <g
         id="layer4"
         style="fill:#fcdd09;fill-opacity:1;stroke:#eb7711;stroke-opacity:1;stroke-width:1.81076919;stroke-miterlimit:4;stroke-dasharray:none" />
      <g
         id="g3176"
         style="fill:#fcdd09;fill-opacity:1;stroke:#eb7711;stroke-opacity:1;stroke-width:1.81076919;stroke-miterlimit:4;stroke-dasharray:none" />
      <g
         transform="matrix(1.2,0,0,1.2,-60,17.999997)"
         id="g2477"
         style="fill:#fcdd09;fill-opacity:1;stroke:#eb7711;stroke-opacity:1;stroke-width:1.50897432;stroke-miterlimit:4;stroke-dasharray:none">
        <path
           sodipodi:nodetypes="cccssssssscssssssscccssssssscssssssscccssssssscssssssscccssssssscssssssscccssssssscssssssscccssssssscssssssscccssssssscssssssscccssssssscsssssssccccccccccccccccccccccccccccccccccccccccccccccccc"
           d="M 250.9609,144.75437 C 225.6407,141.50291 200.3203,138.25164 175,135.00018 C 200.3203,131.74872 225.6398,128.49664 250.9603,125.24529 C 247.9302,125.58418 244.4339,124.86468 241.1915,123.00642 C 237.9491,121.14816 235.5715,118.50126 234.3491,115.72521 C 233.1267,112.94917 230.7491,110.30227 227.5067,108.44401 C 224.2643,106.58576 220.768,105.86625 217.7377,106.20502 C 214.7074,106.54379 211.2111,105.82428 207.9687,103.96603 C 204.7263,102.10777 202.3487,99.46087 201.1263,96.68482 C 199.9038,93.90878 197.5262,91.26188 194.2838,89.40362 C 191.0414,87.54536 187.5451,86.82586 184.5148,87.16462 C 187.3421,86.06604 190.895,85.87562 194.5017,86.85436 C 198.1084,87.8331 201.0895,89.7966 202.9927,92.1789 C 204.8959,94.56118 207.8769,96.52468 211.4836,97.50342 C 215.0903,98.48216 218.6432,98.29174 221.4705,97.19315 C 224.2978,96.09456 227.8507,95.90413 231.4574,96.88287 C 235.0641,97.86161 238.0451,99.82511 239.9484,102.2074 C 241.8516,104.5897 244.8326,106.5532 248.4393,107.53194 C 252.046,108.51067 255.5989,108.32025 258.4263,107.22151 C 242.8214,87.01809 227.2165,66.81485 211.6115,46.6116 C 231.8147,62.21659 252.018,77.82158 272.2214,93.42646 C 269.8392,91.52314 267.8757,88.54211 266.897,84.9354 C 265.9183,81.32869 266.1087,77.77582 267.2073,74.94848 C 268.3059,72.12116 268.4963,68.5683 267.5175,64.96158 C 266.5388,61.35488 264.5753,58.37385 262.193,56.47064 C 259.8107,54.56744 257.8472,51.58641 256.8685,47.97971 C 255.8898,44.37299 256.0802,40.82013 257.1788,37.9928 C 258.2773,35.165456 258.4678,31.612596 257.489,28.005886 C 256.5103,24.399176 254.5468,21.418146 252.1645,19.514936 C 254.9405,20.737346 257.5874,23.114956 259.4457,26.357366 C 261.304,29.599766 262.0235,33.096076 261.6847,36.126386 C 261.3459,39.15669 262.0654,42.65299 263.9237,45.89539 C 265.7819,49.1378 268.4288,51.51539 271.2049,52.7378 C 273.9809,53.96021 276.6278,56.33781 278.4861,59.58021 C 280.3444,62.82262 281.0638,66.31892 280.7251,69.34923 C 280.3863,72.37953 281.1058,75.87584 282.9641,79.11825 C 284.8223,82.36065 287.47,84.73825 290.2459,85.96063 C 293.4971,60.64034 296.7486,35.320096 300,9.999846 C 303.2515,35.320096 306.5036,60.64034 309.7549,85.96063 C 309.416,82.93036 310.1355,79.43405 311.9938,76.19165 C 313.8521,72.94925 316.499,70.57164 319.275,69.34922 C 322.0511,68.12682 324.698,65.74922 326.5562,62.50681 C 328.4145,59.26442 329.134,55.76811 328.7952,52.7378 C 328.4564,49.7075 329.1759,46.21119 331.0342,42.9688 C 332.8925,39.72639 335.5394,37.34879 338.3154,36.126386 C 341.0914,34.903966 343.7383,32.526356 345.5966,29.283956 C 347.4549,26.041556 348.1744,22.545246 347.8356,19.514936 C 348.9342,22.342266 349.1246,25.895136 348.1459,29.501856 C 347.1671,33.108566 345.2036,36.089596 342.8213,37.9928 C 340.439,39.89601 338.4755,42.87703 337.4968,46.48374 C 336.5181,50.09045 336.7085,53.6433 337.8071,56.47064 C 338.9057,59.29798 339.0961,62.85084 338.1174,66.45755 C 337.1386,70.06426 335.1751,73.04528 332.7928,74.94849 C 330.4105,76.85169 328.447,79.83272 327.4683,83.43943 C 326.4896,87.04615 326.68,90.59901 327.7787,93.42646 C 347.9821,77.82158 368.1854,62.21659 388.3886,46.6116 C 372.7836,66.81485 357.1787,87.01809 341.5738,107.22151 C 343.4771,104.83937 346.4581,102.87587 350.0648,101.89714 C 353.6715,100.9184 357.2244,101.10882 360.0517,102.2074 C 362.8791,103.30599 366.4319,103.49641 370.0386,102.51767 C 373.6453,101.53894 376.6264,99.57544 378.5296,97.19314 C 380.4328,94.81085 383.4138,92.84736 387.0205,91.86862 C 390.6272,90.88988 394.1801,91.0803 397.0074,92.1789 C 399.8348,93.27748 403.3876,93.46789 406.9943,92.48916 C 410.6011,91.51042 413.5821,89.54692 415.4853,87.16463 C 414.2629,89.94067 411.8853,92.58757 408.6429,94.44584 C 405.4005,96.30409 401.9041,97.02359 398.8738,96.68482 C 395.8435,96.34606 392.3472,97.06556 389.1048,98.92382 C 385.8624,100.78207 383.4848,103.42896 382.2624,106.20501 C 381.04,108.98107 378.6624,111.62797 375.42,113.48623 C 372.1776,115.34448 368.6813,116.06398 365.651,115.72522 C 362.6207,115.38644 359.1244,116.10594 355.882,117.9642 C 352.6396,119.82247 350.2615,122.47014 349.0392,125.24599 C 374.3596,128.49726 399.6798,131.74872 425,135.00018 C 399.6798,138.25164 374.3603,141.50372 349.0398,144.75506 C 352.0699,144.41617 355.5662,145.13567 358.8086,146.99394 C 362.051,148.85219 364.4286,151.4991 365.651,154.27514 C 366.8734,157.05119 369.251,159.69809 372.4934,161.55634 C 375.7358,163.4146 379.2321,164.13411 382.2624,163.79534 C 385.2927,163.45656 388.789,164.17608 392.0314,166.03432 C 395.2738,167.89258 397.6514,170.53949 398.8738,173.31553 C 400.0963,176.09158 402.4739,178.73847 405.7163,180.59674 C 408.9587,182.455 412.455,183.1745 415.4853,182.83573 C 412.658,183.93432 409.1051,184.12474 405.4984,183.146 C 401.8917,182.16725 398.9106,180.20376 397.0074,177.82146 C 395.1042,175.43918 392.1232,173.47567 388.5165,172.49694 C 384.9098,171.5182 381.3569,171.70861 378.5296,172.80721 C 375.7022,173.9058 372.1494,174.09622 368.5427,173.11749 C 364.936,172.13875 361.9549,170.17525 360.0517,167.79296 C 358.1485,165.41065 355.1675,163.44716 351.5608,162.46842 C 347.9541,161.48969 344.4012,161.68061 341.5738,162.7791 C 357.1787,182.98227 372.7836,203.18552 388.3886,223.38877 C 368.1854,207.78377 347.9821,192.17879 327.7787,176.57391 C 330.1609,178.47722 332.1244,181.45825 333.1031,185.06496 C 334.0818,188.67167 333.8914,192.22454 332.7928,195.05188 C 331.6942,197.87921 331.5038,201.43207 332.4826,205.03878 C 333.4613,208.64548 335.4248,211.62652 337.8071,213.52972 C 340.1894,215.43292 342.1529,218.41396 343.1316,222.02065 C 344.1103,225.62737 343.9199,229.18023 342.8213,232.00756 C 341.7227,234.8349 341.5323,238.38776 342.5111,241.99448 C 343.4898,245.60119 345.4533,248.58222 347.8356,250.48543 C 345.0596,249.26302 342.4127,246.88541 340.5544,243.643 C 338.6961,240.40059 337.9766,236.90428 338.3154,233.87398 C 338.6542,230.84368 337.9347,227.34737 336.0764,224.10497 C 334.2182,220.86257 331.5713,218.48497 328.7952,217.26256 C 326.0192,216.04015 323.3723,213.66255 321.514,210.42015 C 319.6557,207.17775 318.9362,203.68144 319.275,200.65114 C 319.6138,197.62083 318.8943,194.12452 317.036,190.88212 C 315.1778,187.63972 312.5301,185.2616 309.7542,184.03931 C 306.503,209.35969 303.2515,234.67993 300,260.00018 C 296.7486,234.67993 293.4965,209.36043 290.2452,184.03994 C 290.584,187.07001 289.8645,190.56632 288.0063,193.80871 C 286.148,197.05112 283.5011,199.42873 280.7251,200.65114 C 277.949,201.87355 275.3021,204.25114 273.4439,207.49355 C 271.5856,210.73594 270.8661,214.23226 271.2049,217.26256 C 271.5437,220.29287 270.8241,223.78918 268.9659,227.03157 C 267.1076,230.27398 264.4607,232.65157 261.6847,233.87398 C 258.9086,235.09639 256.2617,237.47401 254.4035,240.71641 C 252.5452,243.9588 251.8257,247.45512 252.1645,250.48543 C 251.0659,247.6581 250.8755,244.10523 251.8542,240.49851 C 252.833,236.8918 254.7965,233.91076 257.1788,232.00757 C 259.561,230.10435 261.5245,227.12333 262.5033,223.51662 C 263.482,219.90992 263.2916,216.35707 262.193,213.52972 C 261.0944,210.70238 260.904,207.14953 261.8827,203.54281 C 262.8615,199.93611 264.825,196.95508 267.2073,195.05188 C 269.5896,193.14868 271.5531,190.16764 272.5318,186.56094 C 273.5105,182.95422 273.3201,179.40136 272.2214,176.5739 C 252.018,192.17878 231.8147,207.78377 211.6115,223.38876 C 227.2165,203.18551 242.8214,182.98227 258.4263,162.77885 C 256.523,165.16099 253.542,167.12449 249.9353,168.10322 C 246.3286,169.08196 242.7757,168.89154 239.9483,167.79296 C 237.121,166.69437 233.5682,166.50394 229.9614,167.48269 C 226.3547,168.46142 223.3737,170.42492 221.4705,172.80721 C 219.5673,175.18951 216.5863,177.153 212.9796,178.13174 C 209.3729,179.11048 205.82,178.92005 202.9927,177.82146 C 200.1653,176.72288 196.6125,176.53247 193.0057,177.5112 C 189.399,178.48993 186.418,180.45344 184.5148,182.83573 C 185.7372,180.05969 188.1148,177.41279 191.3572,175.55452 C 194.5996,173.69627 198.0959,172.97676 201.1262,173.31554 C 204.1565,173.65429 207.6529,172.9348 210.8953,171.07654 C 214.1377,169.21829 216.5153,166.5714 217.7377,163.79534 C 218.9601,161.01929 221.3377,158.37239 224.5801,156.51413 C 227.8225,154.65588 231.3188,153.93638 234.3491,154.27514 C 237.3794,154.61392 240.8757,153.89441 244.1181,152.03616 C 247.3605,150.17789 249.7385,147.53041 250.9609,144.75437 z M 335.3554,99.64484 L 300,135.00018 L 264.6447,170.35552 M 319.1342,88.80621 L 300,135.00018 L 280.8659,181.19415 M 300,84.99986 L 300,134.99986 L 300,184.99985 M 280.8659,88.80621 L 300,135.00018 L 319.1342,181.19415 M 264.6447,99.64484 L 300,135.00018 L 335.3554,170.35552 M 249.9997,135.00018 L 299.9997,135.00018 L 349.9997,135.00018 M 253.8061,154.13435 L 300,135.00018 L 346.194,115.86601 M 264.6447,170.35552 L 300,135.00018 L 335.3554,99.64484 M 280.8659,181.19417 L 300,135.00018 L 319.1342,88.80621 M 300,185.00017 L 300,135.00018 L 300,85.00018 M 319.1342,181.19416 L 300,135.00018 L 280.8659,88.80621 M 335.3554,170.35552 L 300,135.00018 L 264.6447,99.64484 M 346.194,154.13435 L 300,135.00018 L 253.8061,115.86601 M 350.0003,135.00018 L 300.0003,135.00018 L 250.0003,135.00018 M 253.8061,115.86601 L 300,135.00018 L 346.194,154.13434 M 346.194,115.86601 L 300,135.00018 L 253.8061,154.13435"
           style="fill:#fcdd09;fill-opacity:1;fill-rule:evenodd;stroke:#eb7711;stroke-width:1.50897432;stroke-linecap:square;stroke-linejoin:round;stroke-miterlimit:4;stroke-dasharray:none;stroke-dashoffset:0;stroke-opacity:1"
           id="path2454" />
        <path
           id="path2436"
           style="fill:#fcdd09;fill-opacity:1;fill-rule:evenodd;stroke:#eb7711;stroke-width:1.50897432;stroke-linecap:square;stroke-linejoin:round;stroke-miterlimit:4;stroke-dasharray:none;stroke-dashoffset:0;stroke-opacity:1"
           d="M 249.9997,135.00015 C 249.9997,137.94068 250.387,141.87068 250.9608,144.7547 C 251.5345,147.63869 252.6808,151.41765 253.806,154.13432 C 254.9313,156.85101 256.7929,160.33374 258.4265,162.77869 C 260.0602,165.22363 262.5654,168.27624 264.6447,170.35549 C 266.7239,172.43475 269.7765,174.94 272.2215,176.57367 C 274.6664,178.20733 278.1492,180.06889 280.8658,181.19413 C 283.5825,182.31937 287.3616,183.46546 290.2456,184.03912 C 293.1296,184.61279 297.0595,185.00009 300,185.00014 C 302.9405,185.00019 306.8705,184.61311 309.7545,184.03945 C 312.6385,183.46578 316.4175,182.31941 319.1342,181.19412 C 321.8509,180.06883 325.3336,178.20732 327.7785,176.57366 C 330.2235,174.94 333.2761,172.43475 335.3553,170.35549 C 337.4346,168.27623 339.9398,165.22363 341.5735,162.77868 C 343.2071,160.33373 345.0687,156.85102 346.194,154.13431 C 347.3192,151.41763 348.4653,147.63863 349.039,144.75463 C 349.6126,141.87062 349.9996,137.94065 349.9997,135.00015 C 349.9997,132.05965 349.6129,128.12967 349.0393,125.24566 C 348.4657,122.36163 347.3193,118.58266 346.194,115.86597 C 345.0687,113.1493 343.2071,109.66661 341.5735,107.22167 C 339.9398,104.77672 337.4346,101.72407 335.3554,99.64481 C 333.2761,97.56556 330.2235,95.06037 327.7785,93.42671 C 325.3336,91.79305 321.8509,89.93151 319.1342,88.80618 C 316.4175,87.68085 312.6386,86.53427 309.7546,85.9606 C 306.8706,85.38693 302.9405,85.0001 300,85.00015 C 297.0595,85.0002 293.1295,85.38725 290.2455,85.96092 C 287.3615,86.53459 283.5825,87.68089 280.8658,88.80618 C 278.1492,89.93147 274.6665,91.79304 272.2215,93.4267 C 269.7766,95.06036 266.7239,97.56556 264.6447,99.64481 C 262.5654,101.72407 260.0602,104.77672 258.4265,107.22167 C 256.7929,109.66661 254.9314,113.14933 253.806,115.86598 C 252.6807,118.58266 251.5341,122.36158 250.9604,125.2456 C 250.3867,128.12961 249.9996,132.05963 249.9997,135.00015 z"
           sodipodi:nodetypes="cssssssssssssssssssssssssssssssss" />
      </g>
      <g
         style="fill:#fcdd09;fill-opacity:1;stroke:#eb7711;stroke-opacity:1;stroke-width:1.81076919;stroke-miterlimit:4;stroke-dasharray:none"
         id="g3284"
         transform="translate(1199.56,799.013)" />
      <g
         id="g2515"
         transform="translate(1003,99.999)"
         style="fill:#fcdd09;fill-opacity:1;stroke:#eb7711;stroke-opacity:1;stroke-width:1.81076919;stroke-miterlimit:4;stroke-dasharray:none" />
      <g
         id="g2541"
         transform="translate(1199.56,799.013)"
         style="fill:#fcdd09;fill-opacity:1;stroke:#eb7711;stroke-opacity:1;stroke-width:1.81076919;stroke-miterlimit:4;stroke-dasharray:none" />
      <g
         id="g2520"
         transform="translate(1100,399.999)"
         style="fill:#fcdd09;fill-opacity:1;stroke:#eb7711;stroke-opacity:1;stroke-width:1.81076919;stroke-miterlimit:4;stroke-dasharray:none" />
      <g
         transform="translate(1200,499.999)"
         id="g2529"
         style="fill:#fcdd09;fill-opacity:1;stroke:#eb7711;stroke-opacity:1;stroke-width:1.81076919;stroke-miterlimit:4;stroke-dasharray:none" />
      <g
         transform="translate(1400,499.999)"
         id="g2528"
         style="fill:#fcdd09;fill-opacity:1;stroke:#eb7711;stroke-opacity:1;stroke-width:1.81076919;stroke-miterlimit:4;stroke-dasharray:none" />
    </g>
  </g>
</svg>
