<?xml version="1.0" encoding="UTF-8" standalone="no"?>
<svg
   xmlns:dc="http://purl.org/dc/elements/1.1/"
   xmlns:cc="http://creativecommons.org/ns#"
   xmlns:rdf="http://www.w3.org/1999/02/22-rdf-syntax-ns#"
   xmlns:svg="http://www.w3.org/2000/svg"
   xmlns="http://www.w3.org/2000/svg"
   xmlns:sodipodi="http://sodipodi.sourceforge.net/DTD/sodipodi-0.dtd"
   xmlns:inkscape="http://www.inkscape.org/namespaces/inkscape"
   width="1000"
   height="550"
   id="svg2"
   sodipodi:version="0.32"
   inkscape:version="0.46"
   sodipodi:docname="Flag_of_Río Quito_(Chocó).svg"
   inkscape:output_extension="org.inkscape.output.svg.inkscape"
   version="1.0">
  <metadata
     id="metadata15">
    <rdf:RDF>
      <cc:Work
         rdf:about="">
        <dc:format>image/svg+xml</dc:format>
        <dc:type
           rdf:resource="http://purl.org/dc/dcmitype/StillImage" />
      </cc:Work>
    </rdf:RDF>
  </metadata>
  <defs
     id="defs13" />
  <sodipodi:namedview
     inkscape:window-height="712"
     inkscape:window-width="1024"
     inkscape:pageshadow="2"
     inkscape:pageopacity="0.0"
     guidetolerance="10.0"
     gridtolerance="10.0"
     objecttolerance="10.0"
     borderopacity="1.0"
     bordercolor="#666666"
     pagecolor="#ffffff"
     id="base"
     showgrid="false"
     inkscape:zoom="0.92181818"
     inkscape:cx="500"
     inkscape:cy="275"
     inkscape:window-x="-4"
     inkscape:window-y="-4"
     inkscape:current-layer="svg2" />
  <path
     d="M 0,275.20415 L 999.5351,275.20415 L 999.5351,0 L 0,0"
     id="path4"
     style="fill:#078930;fill-opacity:1" />
  <path
     d="M 0,549.66174 L 999.5351,549.66174 L 999.5351,274.69677 L 0,274.69677"
     id="path6"
     style="fill:#fcdd09;fill-opacity:1" />
  <path
     d="M 0,549.66174 L 999.5351,549.66174 L 999.5351,412.17926 L 0,412.17926"
     id="path8"
     style="fill:#ffffff;fill-opacity:1" />
  <path
     d="M 73.752202,444.65137 L 97.606698,520.83187 L 35.277204,474.66187 L 112.2272,474.66187 L 49.897702,520.83187"
     id="path2394"
     style="fill:#0f47af;fill-opacity:1" />
  <path
     d="M 195.41124,444.65137 L 219.26574,520.83187 L 156.93624,474.66187 L 233.88624,474.66187 L 171.55674,520.83187"
     id="path2392"
     style="fill:#0f47af;fill-opacity:1" />
  <path
     id="path2398"
     d="M 317.58124,444.65137 L 341.43574,520.83187 L 279.10624,474.66187 L 356.05624,474.66187 L 293.72674,520.83187"
     style="fill:#0f47af;fill-opacity:1" />
  <path
     id="path2402"
     d="M 439.75124,444.65137 L 463.60574,520.83187 L 401.27624,474.66187 L 478.22624,474.66187 L 415.89674,520.83187"
     style="fill:#0f47af;fill-opacity:1" />
  <path
     d="M 561.92124,444.65137 L 585.77574,520.83187 L 523.44624,474.66187 L 600.39624,474.66187 L 538.06674,520.83187"
     id="path2404"
     style="fill:#0f47af;fill-opacity:1" />
  <path
     d="M 684.09124,444.65137 L 707.94574,520.83187 L 645.61624,474.66187 L 722.56624,474.66187 L 660.23674,520.83187"
     id="path2408"
     style="fill:#0f47af;fill-opacity:1" />
  <path
     d="M 806.26123,444.65137 L 830.11573,520.83187 L 767.78624,474.66187 L 844.73625,474.66187 L 782.40674,520.83187"
     id="path2410"
     style="fill:#0f47af;fill-opacity:1" />
  <path
     id="path2412"
     d="M 928.43125,444.65137 L 952.28575,520.83187 L 889.95625,474.66187 L 966.90625,474.66187 L 904.57675,520.83187"
     style="fill:#0f47af;fill-opacity:1" />
</svg>
