<?xml version="1.0" encoding="UTF-8" standalone="no"?>
<!-- Created with Inkscape (http://www.inkscape.org/) -->
<svg
   xmlns:dc="http://purl.org/dc/elements/1.1/"
   xmlns:cc="http://creativecommons.org/ns#"
   xmlns:rdf="http://www.w3.org/1999/02/22-rdf-syntax-ns#"
   xmlns:svg="http://www.w3.org/2000/svg"
   xmlns="http://www.w3.org/2000/svg"
   xmlns:sodipodi="http://sodipodi.sourceforge.net/DTD/sodipodi-0.dtd"
   xmlns:inkscape="http://www.inkscape.org/namespaces/inkscape"
   width="1000"
   height="500"
   id="svg2822"
   version="1.1"
   inkscape:version="0.46"
   sodipodi:docname="Flag_of_San_Vicente_de_Chucurí_(Santander).svg"
   sodipodi:version="0.32"
   inkscape:output_extension="org.inkscape.output.svg.inkscape">
  <defs
     id="defs2824" />
  <sodipodi:namedview
     id="base"
     pagecolor="#ffffff"
     bordercolor="#666666"
     borderopacity="1.0"
     inkscape:pageopacity="0.0"
     inkscape:pageshadow="2"
     inkscape:zoom="0.62"
     inkscape:cx="375"
     inkscape:cy="233.33198"
     inkscape:document-units="px"
     inkscape:current-layer="layer1"
     showgrid="false"
     inkscape:window-width="1024"
     inkscape:window-height="712"
     inkscape:window-x="-4"
     inkscape:window-y="-4"
     inkscape:window-maximized="1" />
  <metadata
     id="metadata2827">
    <rdf:RDF>
      <cc:Work
         rdf:about="">
        <dc:format>image/svg+xml</dc:format>
        <dc:type
           rdf:resource="http://purl.org/dc/dcmitype/StillImage" />
        <dc:title />
      </cc:Work>
    </rdf:RDF>
  </metadata>
  <g
     inkscape:label="Capa 1"
     inkscape:groupmode="layer"
     id="layer1"
     transform="translate(0,-552.36218)">
    <rect
       style="fill:#ffffff;fill-opacity:1;stroke:none;stroke-opacity:1"
       id="rect2832"
       width="1000"
       height="166.666"
       x="0"
       y="552.36218" />
    <rect
       style="fill:#078930;fill-opacity:1;stroke:none"
       id="rect2834"
       width="1000"
       height="166.666"
       x="0"
       y="719.03015" />
    <rect
       style="fill:#fcdd09;fill-opacity:1;stroke:none"
       id="rect2836"
       width="1000"
       height="166.666"
       x="0"
       y="885.69617" />
    <path
       transform="scale(0.9760079,1.0245819)"
       style="font-size:101.01088715px;font-style:normal;font-variant:normal;font-weight:bold;font-stretch:normal;text-align:start;line-height:125%;writing-mode:lr-tb;text-anchor:start;fill:#078930;fill-opacity:1;font-family:Arial;-inkscape-font-specification:Arial Bold"
       d="M 19.992808,601.91025 L 34.197464,600.52924 C 35.052355,605.29702 36.786834,608.79886 39.400906,611.03476 C 42.014931,613.27069 45.541431,614.38865 49.980415,614.38864 C 54.682381,614.38865 58.225321,613.394 60.609246,611.40468 C 62.993083,609.41538 64.185023,607.08904 64.185071,604.42565 C 64.185023,602.71586 63.683586,601.26087 62.680758,600.06068 C 61.677838,598.86055 59.926919,597.81657 57.427995,596.92875 C 55.718136,596.33692 51.821724,595.28472 45.738747,593.77216 C 37.913012,591.83221 32.421866,589.44833 29.265292,586.62051 C 24.826328,582.64194 22.606853,577.79197 22.606859,572.0706 C 22.606853,568.38797 23.650828,564.94367 25.738788,561.7377 C 27.82673,558.53186 30.835352,556.09043 34.764664,554.41343 C 38.693939,552.73656 43.437039,551.89809 48.993981,551.89802 C 58.069136,551.89809 64.900187,553.8874 69.487156,557.86595 C 74.074019,561.84463 76.48256,567.15493 76.712788,573.79686 L 62.113559,574.43805 C 61.488772,570.72253 60.148866,568.05094 58.093838,566.42327 C 56.038727,564.79571 52.956122,563.9819 48.846015,563.98184 C 44.604319,563.9819 41.283326,564.85325 38.883027,566.59589 C 37.337593,567.71391 36.564886,569.21 36.564907,571.08417 C 36.564886,572.79404 37.288271,574.25725 38.735062,575.4738 C 40.576382,577.01926 45.048214,578.63044 52.150571,580.30733 C 59.252856,581.98431 64.505614,583.71879 67.908861,585.51077 C 71.312005,587.30283 73.975375,589.75248 75.89898,592.85971 C 77.822466,595.96701 78.784238,599.80588 78.784301,604.37633 C 78.784238,608.51937 77.633399,612.39934 75.33178,616.01626 C 73.030043,619.63319 69.774813,622.32122 65.566079,624.08036 C 61.357247,625.8395 56.112709,626.71907 49.83245,626.71907 C 40.691466,626.71907 33.671348,624.60646 28.772074,620.38123 C 23.872776,616.15601 20.946357,609.99902 19.992808,601.91025 L 19.992808,601.91025 z"
       id="text4" />
    <flowRoot
       xml:space="preserve"
       id="flowRoot9417"
       style="font-size:40px;font-style:normal;font-weight:normal;line-height:125%;letter-spacing:0px;word-spacing:0px;fill:none;stroke:none;font-family:Bitstream Vera Sans"
       transform="translate(0,552.36218)"><flowRegion
         id="flowRegion9419"><rect
           id="rect9421"
           width="187.09677"
           height="117.74194"
           x="119.35484"
           y="224.19354"
           style="fill:none" /></flowRegion><flowPara
         id="flowPara9423">SSSS</flowPara></flowRoot>    <flowRoot
       xml:space="preserve"
       id="flowRoot9425"
       style="font-size:40px;font-style:normal;font-weight:normal;line-height:125%;letter-spacing:0px;word-spacing:0px;fill:#000000;fill-opacity:1;stroke:none;font-family:Bitstream Vera Sans"
       transform="translate(0,552.36218)"><flowRegion
         id="flowRegion9427"><rect
           id="rect9429"
           width="67.741936"
           height="133.87097"
           x="-356.4516"
           y="-220.96774" /></flowRegion><flowPara
         id="flowPara9431">NNNNZ</flowPara></flowRoot>    <flowRoot
       xml:space="preserve"
       id="flowRoot9433"
       style="fill:black;stroke:none;stroke-opacity:1;stroke-width:1px;stroke-linejoin:miter;stroke-linecap:butt;fill-opacity:1;font-family:Bitstream Vera Sans;font-style:normal;font-weight:normal;font-size:40px;line-height:125%;letter-spacing:0px;word-spacing:0px"><flowRegion
         id="flowRegion9435"><rect
           id="rect9437"
           width="145.16129"
           height="343.5484"
           x="-419.35483"
           y="-264.51614" /></flowRegion><flowPara
         id="flowPara9439" /></flowRoot>    <path
       transform="scale(0.8953477,1.1168845)"
       style="font-size:101.01088715px;font-style:normal;font-variant:normal;font-weight:bold;font-stretch:normal;text-align:start;line-height:125%;writing-mode:lr-tb;text-anchor:start;fill:#078930;fill-opacity:1;font-family:Arial;-inkscape-font-specification:Arial Bold"
       d="M 139.0815,592.98596 L 113.23692,520.68032 L 129.06919,520.68032 L 147.36755,574.19439 L 165.07405,520.68032 L 180.56107,520.68032 L 154.66716,592.98596 L 139.0815,592.98596 z"
       id="text4-5" />
    <path
       transform="scale(0.9261605,1.0797265)"
       style="font-size:101.01088715px;font-style:normal;font-variant:normal;font-weight:bold;font-stretch:normal;text-align:start;line-height:125%;writing-mode:lr-tb;text-anchor:start;fill:#078930;fill-opacity:1;font-family:Arial;-inkscape-font-specification:Arial Bold"
       d="M 243.97479,602.14917 L 258.13012,606.63745 C 255.9599,614.52894 252.3512,620.39 247.304,624.22064 C 242.2567,628.0513 235.8531,629.96662 228.09319,629.96662 C 218.49187,629.96662 210.6004,626.68673 204.41877,620.12694 C 198.2371,613.56717 195.14628,604.59884 195.14628,593.22194 C 195.14628,581.18749 198.25354,571.84103 204.46809,565.18254 C 210.68261,558.52418 218.85356,555.19497 228.98098,555.19489 C 237.82597,555.19497 245.01049,557.80902 250.53458,563.03705 C 253.82263,566.12794 256.28871,570.56689 257.93284,576.35391 L 243.48157,579.80643 C 242.62661,576.05803 240.84281,573.09873 238.13016,570.92852 C 235.41742,568.75843 232.12109,567.67335 228.24116,567.67329 C 222.8815,567.67335 218.53297,569.5969 215.19556,573.44393 C 211.8581,577.29108 210.18939,583.52205 210.18941,592.13686 C 210.18939,601.27785 211.83344,607.78831 215.12158,611.66827 C 218.40967,615.54825 222.68421,617.48824 227.94523,617.48823 C 231.82516,617.48824 235.1626,616.2552 237.95754,613.7891 C 240.75238,611.32303 242.75813,607.44306 243.97479,602.14917 L 243.97479,602.14917 z"
       id="text4-7" />
    <path
       transform="scale(0.9668458,1.0342911)"
       style="font-size:101.01087952px;font-style:normal;font-variant:normal;font-weight:bold;font-stretch:normal;text-align:start;line-height:125%;writing-mode:lr-tb;text-anchor:start;fill:#078930;fill-opacity:1;font-family:Arial;-inkscape-font-specification:Arial Bold"
       d="M 269.90946,677.12653 L 269.90946,604.82089 L 284.50869,604.82089 L 284.50869,633.27952 L 313.11528,633.27952 L 313.11528,604.82089 L 327.71451,604.82089 L 327.71451,677.12653 L 313.11528,677.12653 L 313.11528,645.5113 L 284.50869,645.5113 L 284.50869,677.12653 L 269.90946,677.12653 z"
       id="text4-1" />
  </g>
</svg>
