<?xml version="1.0" encoding="UTF-8" standalone="no"?>
<!-- Created with Inkscape (http://www.inkscape.org/) -->
<svg
   xmlns:dc="http://purl.org/dc/elements/1.1/"
   xmlns:cc="http://creativecommons.org/ns#"
   xmlns:rdf="http://www.w3.org/1999/02/22-rdf-syntax-ns#"
   xmlns:svg="http://www.w3.org/2000/svg"
   xmlns="http://www.w3.org/2000/svg"
   xmlns:sodipodi="http://sodipodi.sourceforge.net/DTD/sodipodi-0.dtd"
   xmlns:inkscape="http://www.inkscape.org/namespaces/inkscape"
   width="750"
   height="500"
   id="svg2822"
   version="1.1"
   inkscape:version="0.46"
   sodipodi:docname="Flag_of_San Estanislao_(Bolívar).svg"
   sodipodi:version="0.32"
   inkscape:output_extension="org.inkscape.output.svg.inkscape">
  <defs
     id="defs2824" />
  <sodipodi:namedview
     id="base"
     pagecolor="#ffffff"
     bordercolor="#666666"
     borderopacity="1.0"
     inkscape:pageopacity="0.0"
     inkscape:pageshadow="2"
     inkscape:zoom="1.014"
     inkscape:cx="375"
     inkscape:cy="250"
     inkscape:document-units="px"
     inkscape:current-layer="layer1"
     showgrid="false"
     inkscape:window-width="1024"
     inkscape:window-height="712"
     inkscape:window-x="-4"
     inkscape:window-y="-4"
     inkscape:window-maximized="1" />
  <metadata
     id="metadata2827">
    <rdf:RDF>
      <cc:Work
         rdf:about="">
        <dc:format>image/svg+xml</dc:format>
        <dc:type
           rdf:resource="http://purl.org/dc/dcmitype/StillImage" />
        <dc:title />
      </cc:Work>
    </rdf:RDF>
  </metadata>
  <g
     inkscape:label="Capa 1"
     inkscape:groupmode="layer"
     id="layer1"
     transform="translate(0,-552.36218)">
    <rect
       style="fill:#072357;fill-opacity:1;stroke:none"
       id="rect2832"
       width="750"
       height="255.91716"
       x="0"
       y="-1052.3622"
       transform="scale(1,-1)" />
    <rect
       style="fill:#034418;fill-opacity:1;stroke:none"
       id="rect2834"
       width="750"
       height="250"
       x="0"
       y="-802.36218"
       transform="scale(1,-1)" />
    <g
       id="Elementos"
       transform="translate(777.14317,1015.4478)">
      <metadata
         id="CorelCorpID_1Corel-Layer" />
      <g
         id="layer6_12" />
      <g
         id="Capa_x0020_1"
         transform="translate(-216.7271,326.27794)">
        <metadata
           id="CorelCorpID_1Corel-Layer-1" />
        <sodipodi:namedview
           pagecolor="#ffffff"
           bordercolor="#666666"
           borderopacity="1.0"
           gridtolerance="10000"
           guidetolerance="10"
           objecttolerance="10"
           inkscape:pageopacity="0.0"
           inkscape:pageshadow="2"
           inkscape:zoom="0.45254834"
           inkscape:cx="529.77215"
           inkscape:cy="286.86274"
           inkscape:document-units="px"
           inkscape:current-layer="layer6"
           inkscape:window-width="1280"
           inkscape:window-height="753"
           inkscape:window-x="-4"
           inkscape:window-y="-4"
           showguides="true"
           showgrid="false"
           inkscape:guide-bbox="true"
           width="549.99969px"
           height="975px"
           id="base-5" />
        <g
           inkscape:groupmode="layer"
           inkscape:label="Timbre"
           id="layer3" />
        <g
           inkscape:groupmode="layer"
           inkscape:label="Escudo"
           id="layer1-2" />
        <g
           inkscape:groupmode="layer"
           inkscape:label="Piezas"
           id="layer4" />
        <g
           inkscape:groupmode="layer"
           inkscape:label="Muebles"
           id="layer5" />
        <g
           inkscape:groupmode="layer"
           inkscape:label="Ornamento"
           id="layer2" />
        <g
           inkscape:label="Piezas"
           id="g5818" />
        <g
           inkscape:label="Muebles"
           id="g5820" />
        <g
           inkscape:label="Ornamentos"
           id="g5822" />
        <g
           inkscape:label="Escudo"
           id="g5438" />
        <g
           inkscape:label="Piezas"
           id="g5440" />
        <g
           inkscape:label="Ornamento"
           id="g5559" />
        <g
           inkscape:label="Borde 3px"
           id="g5561" />
      </g>
    </g>
    <path
       style="fill:#aa8800;fill-opacity:1;stroke:none;stroke-width:0.5;stroke-linejoin:round;stroke-miterlimit:4;stroke-dashoffset:0;stroke-opacity:1"
       d="M 500.98619,802.36475 C 500.98619,872.04522 444.43392,928.59749 374.75344,928.59749 C 305.07297,928.59749 248.5207,872.04522 248.5207,802.36475 L 500.98619,802.36475 z"
       id="path3354"
       sodipodi:nodetypes="cscc" />
    <path
       style="fill:#ffffff;fill-opacity:1;stroke:none;stroke-width:0.5;stroke-linejoin:round;stroke-miterlimit:4;stroke-dashoffset:0;stroke-opacity:1"
       d="M 500.98619,802.36475 L 248.5207,802.36475 C 248.5207,732.68427 305.07297,676.132 374.75344,676.132 C 444.43392,676.132 500.98619,732.68427 500.98619,802.36475 z"
       id="path3358"
       sodipodi:nodetypes="ccsc" />
    <g
       id="g3380"
       transform="matrix(0.64,0,0,0.64,252.96975,687.3973)"
       style="stroke:#000000;stroke-opacity:1;stroke-width:1.5625;stroke-miterlimit:4;stroke-dasharray:none">
      <g
         transform="translate(-95.443041,-255.62849)"
         inkscape:label="Fond écu"
         id="g3382"
         style="stroke:#000000;stroke-opacity:1;stroke-width:1.5625;stroke-miterlimit:4;stroke-dasharray:none" />
      <g
         transform="translate(-95.443041,-255.62849)"
         inkscape:label="Meubles"
         id="g3384"
         style="stroke:#000000;stroke-opacity:1;stroke-width:1.5625;stroke-miterlimit:4;stroke-dasharray:none">
        <g
           id="g3312"
           transform="matrix(0.9489423,-0.3154498,0.3154498,0.9489423,-794.85222,-128.80407)"
           style="stroke:#000000;stroke-width:1.56249995;stroke-miterlimit:4;stroke-dasharray:none;stroke-opacity:1" />
        <path
           style="fill:#ffffff;fill-opacity:1;fill-rule:evenodd;stroke:#000000;stroke-width:1.5625;stroke-linecap:butt;stroke-linejoin:miter;stroke-miterlimit:4;stroke-dasharray:none;stroke-opacity:1"
           d="M 290.5657,456.89086 C 292.62284,459.74686 294.88751,462.26188 308.24791,486.64719 C 313.18028,490.49551 313.20912,512.65241 349.05801,514.10537 C 362.0043,514.63009 414.88939,519.38562 427.39022,523.91108 C 442.46794,529.36939 449.62613,537.71837 423.11252,536.92112 C 447.71872,540.17745 441.63982,553.90475 418.26746,549.55709 C 440.88057,555.99865 441.48407,568.38887 412.38293,561.23132 C 431.83947,569.83142 434.32675,579.13936 403.65127,568.46839 C 429.10883,583.77072 411.56802,586.57244 389.32596,573.47558 C 401.8287,580.88715 403.86404,596.76141 375.10588,582.01948 C 399.90232,599.05448 374.7416,595.92761 358.54319,585.8959 C 332.46407,569.74511 318.5056,540.92152 298.77323,523.18553 C 272.50885,510.20225 239.35621,514.1926 210.44808,505.13642 C 196.38578,500.36874 185.72323,501.19012 164.04848,462.6978 C 142.37373,424.20549 155.30114,429.89046 127.64868,410.93941 C 122.71507,407.55828 108.3723,404.13195 107.95733,403.82221 C 108.81865,401.04361 110.21236,398.52909 110.11677,395.98446 C 109.49381,379.39899 122.83724,369.28882 141.19248,374.52431 C 147.90163,376.43796 155.78547,382.11984 167.52374,390.08513 C 177.38536,396.77699 202.56568,395.57889 215.32197,403.92074 C 240.86374,417.49817 273.21543,429.05797 290.5657,456.89086 z"
           id="path13446"
           sodipodi:nodetypes="ccssccccccsccsscssscc" />
        <path
           style="fill:#ffffff;fill-opacity:1;fill-rule:evenodd;stroke:#000000;stroke-width:1.5625;stroke-linecap:butt;stroke-linejoin:miter;stroke-miterlimit:4;stroke-dasharray:none;stroke-opacity:1"
           d="M 213.81393,432.13435 C 196.20365,382.50287 243.62627,343.60681 281.91,322.43509 C 303.53286,311.75335 334.76311,274.04768 350.92917,266.54127 C 374.40252,256.23447 367.83535,266.20406 351.65692,292.4807 C 384.13536,262.89154 362.70925,306.27976 350.49475,317.36709 C 376.38327,294.52069 361.59909,334.08721 350.46398,342.45393 C 372.22962,327.4764 361.35772,355.39696 346.26304,365.36554 C 371.11408,347.44376 356.2102,380.68031 340.5242,389.44101 C 366.52393,375.82326 352.45952,402.2555 330.28989,411.28357 C 362.39141,399.5316 338.8756,422.18932 319.7402,427.32477 C 353.60353,418.27101 333.07004,442.43767 304.2865,442.49704 C 328.39512,443.81766 326.95283,455.88375 296.89762,458.38009 C 263.76561,471.45691 261.10847,419.57299 229.13058,442.31631"
           id="path3197"
           sodipodi:nodetypes="ccccccccccccc" />
        <path
           sodipodi:nodetypes="ccccc"
           id="path3199"
           d="M 115.6006,401.44362 L 115.60565,407.3362 C 108.83859,408.49751 101.83045,411.50654 96.693041,415.5286 C 101.62228,407.02092 108.49612,404.38118 115.6006,401.44362 z"
           style="fill:#000000;fill-opacity:1;fill-rule:evenodd;stroke:#000000;stroke-width:1.56250000000000000;stroke-linecap:round;stroke-linejoin:round;stroke-miterlimit:4;stroke-dasharray:none;stroke-opacity:1" />
        <path
           transform="matrix(-0.5869029,4.1174483e-2,7.4544888e-2,0.5429571,432.56529,230.19714)"
           d="M 559.80122,255.86182 A 7.5871706,7.5871706 0 1 1 544.62688,255.86182 A 7.5871706,7.5871706 0 1 1 559.80122,255.86182 z"
           sodipodi:ry="7.5871706"
           sodipodi:rx="7.5871706"
           sodipodi:cy="255.86182"
           sodipodi:cx="552.21405"
           id="path3201"
           style="fill:#000000;fill-opacity:1;stroke:#000000;stroke-width:2.75468914000000000;stroke-linejoin:miter;stroke-miterlimit:4;stroke-dasharray:none;stroke-opacity:1"
           sodipodi:type="arc" />
        <path
           sodipodi:nodetypes="ccccc"
           id="path3203"
           d="M 109.72294,397.797 L 115.6006,401.44362 C 108.49612,404.38118 101.62228,407.02092 96.693041,415.5286 C 96.731595,404.99869 107.09791,402.1005 109.72294,397.797 z"
           style="fill:#000000;fill-opacity:1;fill-rule:evenodd;stroke:#000000;stroke-width:1.56250000000000000;stroke-linecap:round;stroke-linejoin:round;stroke-miterlimit:4;stroke-dasharray:none;stroke-opacity:1" />
        <g
           id="g13436"
           transform="matrix(0.9489423,-0.3154498,0.3154498,0.9489423,-783.87078,-127.95169)"
           style="stroke:#000000;stroke-width:1.56249995;stroke-miterlimit:4;stroke-dasharray:none;stroke-opacity:1" />
      </g>
      <g
         transform="translate(-95.443041,-255.62849)"
         inkscape:label="Reflet final"
         id="g3393"
         style="stroke:#000000;stroke-opacity:1;stroke-width:1.5625;stroke-miterlimit:4;stroke-dasharray:none" />
      <g
         transform="translate(-95.443041,-255.62849)"
         inkscape:label="Contour final"
         id="g3395"
         style="stroke:#000000;stroke-opacity:1;stroke-width:1.5625;stroke-miterlimit:4;stroke-dasharray:none" />
    </g>
  </g>
</svg>
