<?xml version="1.0" encoding="UTF-8" standalone="no"?>
<!-- Created with Inkscape (http://www.inkscape.org/) -->

<svg
   xmlns:dc="http://purl.org/dc/elements/1.1/"
   xmlns:cc="http://creativecommons.org/ns#"
   xmlns:rdf="http://www.w3.org/1999/02/22-rdf-syntax-ns#"
   xmlns:svg="http://www.w3.org/2000/svg"
   xmlns="http://www.w3.org/2000/svg"
   xmlns:sodipodi="http://sodipodi.sourceforge.net/DTD/sodipodi-0.dtd"
   xmlns:inkscape="http://www.inkscape.org/namespaces/inkscape"
   width="750"
   height="500"
   id="svg2844"
   version="1.1"
   inkscape:version="0.48.3.1 r9886"
   sodipodi:docname="Flag of Abejorral (Antioquia).svg">
  <defs
     id="defs2846"><inkscape:perspective
   sodipodi:type="inkscape:persp3d"
   inkscape:vp_x="0 : 526.18109 : 1"
   inkscape:vp_y="0 : 1000 : 0"
   inkscape:vp_z="744.09448 : 526.18109 : 1"
   inkscape:persp3d-origin="372.04724 : 350.78739 : 1"
   id="perspective2852" />

  <style
   type="text/css"
   id="style6">
   
    .str15 {stroke:black;stroke-width:0.01}
    .str2 {stroke:black;stroke-width:0.0762}
    .str7 {stroke:black;stroke-width:0.0762}
    .str10 {stroke:black;stroke-width:0.13}
    .str3 {stroke:black;stroke-width:0.18}
    .str5 {stroke:black;stroke-width:0.18;stroke-linecap:round;stroke-linejoin:round}
    .str11 {stroke:black;stroke-width:0.25}
    .str4 {stroke:black;stroke-width:0.25}
    .str6 {stroke:black;stroke-width:0.25;stroke-linejoin:bevel}
    .str8 {stroke:black;stroke-width:0.25;stroke-linecap:round;stroke-linejoin:round}
    .str0 {stroke:black;stroke-width:0.3}
    .str1 {stroke:black;stroke-width:0.3;stroke-linecap:round;stroke-linejoin:round}
    .str14 {stroke:#996633;stroke-width:0.5}
    .str12 {stroke:#996633;stroke-width:0.7}
    .str9 {stroke:black;stroke-width:0.9}
    .str13 {stroke:#996633}
    .fil11 {fill:none}
    .fil8 {fill:black}
    .fil3 {fill:#0071BC}
    .fil13 {fill:#007840}
    .fil16 {fill:#007D43}
    .fil1 {fill:#008F4C}
    .fil12 {fill:#856D02}
    .fil17 {fill:#86B35A}
    .fil0 {fill:#996633}
    .fil10 {fill:#B59402}
    .fil14 {fill:#CC3300}
    .fil7 {fill:#D6AF03}
    .fil5 {fill:#E3E4E5}
    .fil6 {fill:#EAC102}
    .fil4 {fill:#ED1C24}
    .fil2 {fill:#FDB380}
    .fil18 {fill:#FF6633}
    .fil9 {fill:#FF6666}
    .fil15 {fill:black;fill-rule:nonzero}
   
  </style>

 </defs>
  <sodipodi:namedview
     id="base"
     pagecolor="#ffffff"
     bordercolor="#666666"
     borderopacity="1.0"
     inkscape:pageopacity="0.0"
     inkscape:pageshadow="2"
     inkscape:zoom="0.49547396"
     inkscape:cx="350"
     inkscape:cy="203.89674"
     inkscape:document-units="px"
     inkscape:current-layer="_61644936"
     showgrid="false"
     inkscape:window-width="1152"
     inkscape:window-height="802"
     inkscape:window-x="-8"
     inkscape:window-y="-8"
     inkscape:window-maximized="1" />
  <metadata
     id="metadata2849">
    <rdf:RDF>
      <cc:Work
         rdf:about="">
        <dc:format>image/svg+xml</dc:format>
        <dc:type
           rdf:resource="http://purl.org/dc/dcmitype/StillImage" />
        <dc:title></dc:title>
      </cc:Work>
    </rdf:RDF>
  </metadata>
  <g
     inkscape:label="Capa 1"
     inkscape:groupmode="layer"
     id="layer1"
     transform="translate(0,-552.36218)"><rect
   style="fill:#ffffff;fill-opacity:1;stroke:none"
   id="rect2860"
   width="750"
   height="250"
   x="0"
   y="-5.6843419e-14"
   transform="translate(0,552.36218)"
   rx="8.8817842e-16"
   ry="8.8817784e-16" />
<rect
   style="fill:#0def54;fill-opacity:1;stroke:none"
   id="rect2862"
   width="750"
   height="250"
   x="0"
   y="250"
   transform="translate(0,552.36218)"
   rx="8.8817842e-16"
   ry="8.8817784e-16" />

 
 
 
 
 <g
   id="casa"
   transform="matrix(6.2821678,0,0,7.8311771,784.07249,291.50984)">
  <metadata
   id="CorelCorpID_3Corel-Layer" />

  
  
  
  
  
  
  
  
  
  
  
  
  
  
  
  
  
  
  
  
  
  
  
  
  
  
  
  
  
  <g
   id="_61644936"
   transform="translate(-194,-162)">
   <path
   nodetypes="ccccc"
   d="m 110.817,245.514 c 6.207,-12.4667 16.2524,-23.716 35.0517,-30.606 l 0.1816,0.4264 c -15.7305,6.1948 -27.0489,14.5784 -34.4225,30.941 l -0.8108,-0.7614 z"
   id="rect10991"
   class="fil16 str4"
   inkscape:connector-curvature="0"
   style="fill:#078930;stroke:#000000;stroke-width:0.25000000000000000" />

   <g
   id="g971"
   style="fill:#078930">
    <path
   d="m 136.435,225.524 1.8638,-0.4506 c -0.6152,0.2277 -1.2477,0.3858 -1.8638,0.4506 z"
   id="_53572688"
   class="fil16 str6"
   inkscape:connector-curvature="0"
   style="fill:#078930;stroke:#000000;stroke-width:0.25000000000000000;stroke-linejoin:bevel" />

    <path
   d="m 132.247,221.914 c 0.0494,0.4617 0.0991,0.9228 0.1487,1.3848 1.3049,3.4765 5.8487,2.3995 8.4269,0.3686 -2.47,-1.3069 -5.0884,-3.9996 -8.5756,-1.7534 z"
   id="_53532616"
   class="fil16 str6"
   inkscape:connector-curvature="0"
   style="fill:#078930;stroke:#000000;stroke-width:0.25000000000000000;stroke-linejoin:bevel" />

    <path
   d="m 140.553,223.732 c -0.0288,-0.0776 -0.7375,0.1283 -0.9643,0.1832 -0.2559,0.0618 -0.5117,0.1237 -0.7675,0.1855 -0.2397,0.058 -0.4797,0.116 -0.7195,0.174 -0.1588,0.0384 -0.4596,-0.0545 -0.5956,-0.0563 -0.2946,-0.004 -0.4572,-0.021 -0.6965,-0.0819 -0.2163,-0.0551 -0.5034,-0.1756 -0.7115,-0.2286 -0.2549,-0.0648 -0.5151,-0.1332 -0.7117,-0.2285 -0.2234,-0.1081 -0.4943,-0.2117 -0.7265,-0.375 -0.2647,-0.1862 -0.5672,-0.1724 -0.8225,-0.352 -0.249,-0.1751 -0.423,-0.1726 -0.5828,-0.4099 -0.1404,-0.2085 -0.3951,-0.3307 -0.6356,-0.4472 -0.1533,-0.0742 -0.2178,-0.1078 -0.3129,-0.1747"
   id="path9413"
   class="fil11 str6"
   inkscape:connector-curvature="0"
   style="fill:#078930;stroke:#000000;stroke-width:0.25000000000000000;stroke-linejoin:bevel" />

    <path
   d="m 139.084,222.835 c -0.144,0.0559 -0.4798,0.4517 -0.5784,0.5906 -0.1423,0.2001 -0.2698,0.3175 -0.4496,0.4091 -0.2536,0.1292 -0.3296,0.3163 -0.3916,0.4952 -0.0859,0.2477 0.314,0.2845 0.4717,0.2865 0.1659,0.002 0.3129,0.1747 0.5098,0.1772"
   id="path9427"
   class="fil11 str6"
   inkscape:connector-curvature="0"
   style="fill:#078930;stroke:#000000;stroke-width:0.25000000000000000;stroke-linejoin:bevel" />

    <path
   d="m 138.025,222.09 c 0.3061,0.004 -0.4967,0.4514 -0.7703,0.6369 -0.3021,0.2046 -0.3946,0.471 -0.6745,0.6137 -0.1161,0.0591 -0.2795,0.4494 -0.3386,0.5325 -0.1369,0.1927 -0.0551,0.4159 0.0122,0.5979 0.0919,0.2483 0.0465,0.4831 0.1661,0.6608 0.0412,0.0614 0.0955,0.1524 0.1209,0.2212"
   id="path9429"
   class="fil11 str6"
   inkscape:connector-curvature="0"
   style="fill:#078930;stroke:#000000;stroke-width:0.25000000000000000;stroke-linejoin:bevel" />

    <path
   d="m 136.375,221.337 c 0.001,0.002 -0.884,0.6292 -1,0.7927 -0.1624,0.2285 -0.3184,0.3922 -0.4776,0.6161 -0.1431,0.2015 -0.2795,0.2817 -0.3966,0.4465 -0.1331,0.1875 -0.0245,0.3928 0.0652,0.6351 0.0799,0.2162 0.1503,0.507 0.1761,0.7586 0.0251,0.2443 0.0501,0.4886 0.0751,0.7328 0.003,0.0326 0.007,0.0652 0.0101,0.0978"
   id="path9431"
   class="fil11 str6"
   inkscape:connector-curvature="0"
   style="fill:#078930;stroke:#000000;stroke-width:0.25000000000000000;stroke-linejoin:bevel" />

    <path
   d="m 134.429,221.056 c 0.0129,0.126 -0.4692,0.6603 -0.5584,0.7859 -0.142,0.1997 -0.3234,0.3883 -0.4876,0.5185 -0.1886,0.1494 -0.2177,0.2737 -0.1897,0.5465 0.025,0.2443 0.0501,0.4886 0.0751,0.733 0.0117,0.1139 0.0234,0.2279 0.0351,0.3419"
   id="path9433"
   class="fil11 str6"
   inkscape:connector-curvature="0"
   style="fill:#078930;stroke:#000000;stroke-width:0.25000000000000000;stroke-linejoin:bevel" />

   </g>

   <g
   id="g980"
   style="fill:#078930">
    <path
   d="m 129.639,231.406 2.073,-0.4609 c -0.6826,0.2393 -1.3861,0.4014 -2.073,0.4609 z"
   id="_53572688_0"
   class="fil16 str6"
   inkscape:connector-curvature="0"
   style="fill:#078930;stroke:#000000;stroke-width:0.25000000000000000;stroke-linejoin:bevel" />

    <path
   d="m 124.889,227.335 c 0.0644,0.5109 0.129,1.0211 0.1936,1.5325 1.5264,3.866 6.5808,2.7663 9.4206,0.5739 -2.785,-1.4925 -5.7632,-4.5186 -9.6142,-2.1064 z"
   id="_53532616_1"
   class="fil16 str6"
   inkscape:connector-curvature="0"
   style="fill:#078930;stroke:#000000;stroke-width:0.25000000000000000;stroke-linejoin:bevel" />

    <path
   d="m 134.204,229.508 c -0.0337,-0.0863 -0.8213,0.1271 -1.0735,0.1832 -0.2846,0.0632 -0.5692,0.1265 -0.8536,0.1897 -0.2668,0.0593 -0.5336,0.1187 -0.8003,0.178 -0.1768,0.0393 -0.5145,-0.0693 -0.6665,-0.074 -0.3292,-0.01 -0.5111,-0.0323 -0.7797,-0.1043 -0.2427,-0.0651 -0.5658,-0.2039 -0.7993,-0.2665 -0.286,-0.0766 -0.578,-0.1574 -0.7995,-0.2665 -0.2517,-0.1239 -0.5564,-0.2436 -0.819,-0.4287 -0.2994,-0.2109 -0.637,-0.2015 -0.9258,-0.405 -0.2816,-0.1984 -0.476,-0.1991 -0.6591,-0.4644 -0.1609,-0.233 -0.4479,-0.373 -0.7188,-0.5065 -0.1728,-0.085 -0.2455,-0.1234 -0.353,-0.1992"
   id="path9413_2"
   class="fil11 str6"
   inkscape:connector-curvature="0"
   style="fill:#078930;stroke:#000000;stroke-width:0.25000000000000000;stroke-linejoin:bevel" />

    <path
   d="m 132.546,228.488 c -0.1597,0.059 -0.527,0.4895 -0.6344,0.641 -0.155,0.2182 -0.2951,0.3453 -0.4942,0.443 -0.2807,0.1377 -0.3618,0.3428 -0.4276,0.5393 -0.0911,0.2719 0.3563,0.3204 0.5326,0.3258 0.1854,0.006 0.353,0.1992 0.573,0.2057"
   id="path9427_3"
   class="fil11 str6"
   inkscape:connector-curvature="0"
   style="fill:#078930;stroke:#000000;stroke-width:0.25000000000000000;stroke-linejoin:bevel" />

    <path
   d="m 131.347,227.644 c 0.3421,0.0103 -0.5459,0.4889 -0.8479,0.6883 -0.3333,0.22 -0.4314,0.5125 -0.7412,0.6645 -0.1286,0.0631 -0.3034,0.491 -0.3678,0.5815 -0.1491,0.2102 -0.0533,0.4584 0.0255,0.6607 0.1076,0.2762 0.0615,0.5347 0.1986,0.7332 0.0473,0.0687 0.1098,0.1702 0.1395,0.2468"
   id="path9429_4"
   class="fil11 str6"
   inkscape:connector-curvature="0"
   style="fill:#078930;stroke:#000000;stroke-width:0.25000000000000000;stroke-linejoin:bevel" />

    <path
   d="m 129.489,226.78 c 0.002,0.002 -0.9751,0.6775 -1.1014,0.8558 -0.1769,0.2492 -0.3479,0.4269 -0.5213,0.6711 -0.156,0.2197 -0.3067,0.3056 -0.4342,0.4853 -0.145,0.2045 -0.0196,0.4334 0.0853,0.7029 0.0936,0.2403 0.178,0.5629 0.2118,0.8414 0.0328,0.2703 0.0656,0.5406 0.0984,0.811 0.004,0.036 0.009,0.0721 0.0132,0.1082"
   id="path9431_5"
   class="fil11 str6"
   inkscape:connector-curvature="0"
   style="fill:#078930;stroke:#000000;stroke-width:0.25000000000000000;stroke-linejoin:bevel" />

    <path
   d="m 127.31,226.431 c 0.0169,0.1394 -0.511,0.7201 -0.6082,0.8571 -0.1547,0.2177 -0.3536,0.4225 -0.5344,0.563 -0.2077,0.1613 -0.2378,0.298 -0.2011,0.6 0.0328,0.2703 0.0656,0.5406 0.0985,0.8111 0.0153,0.126 0.0306,0.2522 0.0459,0.3784"
   id="path9433_6"
   class="fil11 str6"
   inkscape:connector-curvature="0"
   style="fill:#078930;stroke:#000000;stroke-width:0.25000000000000000;stroke-linejoin:bevel" />

   </g>

   <g
   id="g989"
   style="fill:#078930">
    <path
   d="m 124.228,237.67 2.3775,-0.7535 c -0.7916,0.3521 -1.5989,0.6145 -2.3775,0.7535 z"
   id="_53572688_7"
   class="fil16 str6"
   inkscape:connector-curvature="0"
   style="fill:#078930;stroke:#000000;stroke-width:0.25000000000000000;stroke-linejoin:bevel" />

    <path
   d="m 119.291,233.308 c 0.0216,0.6003 0.0435,1.1997 0.0653,1.8004 1.3322,4.4385 7.1263,2.63 10.5384,-0.2556 -2.984,-1.4951 -6.0326,-4.792 -10.6037,-1.5448 z"
   id="_53532616_8"
   class="fil16 str6"
   inkscape:connector-curvature="0"
   style="fill:#078930;stroke:#000000;stroke-width:0.25000000000000000;stroke-linejoin:bevel" />

    <path
   d="m 129.551,234.961 c -0.0293,-0.0992 -0.9364,0.2326 -1.2257,0.3243 -0.3263,0.1034 -0.6527,0.2068 -0.9789,0.3102 -0.3059,0.097 -0.6119,0.1939 -0.9178,0.2909 -0.2027,0.0642 -0.5718,-0.0311 -0.7422,-0.0215 -0.3693,0.021 -0.5717,0.0125 -0.8665,-0.0463 -0.2666,-0.0532 -0.6162,-0.1858 -0.8726,-0.237 -0.314,-0.0625 -0.6344,-0.1293 -0.8726,-0.2369 -0.2708,-0.122 -0.6016,-0.2339 -0.8786,-0.4275 -0.3157,-0.2207 -0.6964,-0.176 -1.001,-0.3889 -0.2969,-0.2075 -0.5154,-0.189 -0.695,-0.4858 -0.1578,-0.2607 -0.4667,-0.3984 -0.7581,-0.5299 -0.1859,-0.0837 -0.2639,-0.1221 -0.3772,-0.2014"
   id="path9413_9"
   class="fil11 str6"
   inkscape:connector-curvature="0"
   style="fill:#078930;stroke:#000000;stroke-width:0.25000000000000000;stroke-linejoin:bevel" />

    <path
   d="m 127.788,233.915 c -0.1856,0.0859 -0.6415,0.6336 -0.7773,0.8241 -0.1961,0.2746 -0.3664,0.4395 -0.5999,0.5752 -0.3295,0.1915 -0.4411,0.4431 -0.5346,0.6829 -0.1295,0.3319 0.3689,0.345 0.5666,0.3339 0.208,-0.0118 0.3772,0.2013 0.6239,0.1873"
   id="path9427_10"
   class="fil11 str6"
   inkscape:connector-curvature="0"
   style="fill:#078930;stroke:#000000;stroke-width:0.25000000000000000;stroke-linejoin:bevel" />

    <path
   d="m 126.524,233.032 c 0.3838,-0.0218 -0.6626,0.6348 -1.022,0.9016 -0.3968,0.2944 -0.5362,0.6514 -0.8998,0.8627 -0.1509,0.0877 -0.39,0.6132 -0.4714,0.7271 -0.1887,0.2643 -0.1056,0.5495 -0.0371,0.782 0.0935,0.3171 0.016,0.6286 0.1505,0.8508 0.0463,0.0768 0.1064,0.1912 0.1323,0.2791"
   id="path9429_11"
   class="fil11 str6"
   inkscape:connector-curvature="0"
   style="fill:#078930;stroke:#000000;stroke-width:0.25000000000000000;stroke-linejoin:bevel" />

    <path
   d="m 124.52,232.191 c 0.002,0.003 -1.1641,0.9014 -1.324,1.1257 -0.2237,0.3135 -0.4337,0.5415 -0.653,0.8487 -0.1972,0.2764 -0.3753,0.3934 -0.5366,0.6194 -0.1834,0.2573 -0.0652,0.5166 0.0261,0.8261 0.0813,0.2761 0.1442,0.6507 0.1545,0.978 0.01,0.3177 0.02,0.6354 0.03,0.9532 0.001,0.0423 0.003,0.0847 0.004,0.1271"
   id="path9431_12"
   class="fil11 str6"
   inkscape:connector-curvature="0"
   style="fill:#078930;stroke:#000000;stroke-width:0.25000000000000000;stroke-linejoin:bevel" />

    <path
   d="m 122.104,231.994 c 0.005,0.1639 -0.6464,0.9059 -0.7693,1.0782 -0.1956,0.274 -0.4397,0.5369 -0.6571,0.7217 -0.2496,0.2122 -0.297,0.3775 -0.2858,0.7324 0.01,0.3177 0.02,0.6354 0.03,0.9533 0.005,0.1481 0.009,0.2964 0.0141,0.4447"
   id="path9433_13"
   class="fil11 str6"
   inkscape:connector-curvature="0"
   style="fill:#078930;stroke:#000000;stroke-width:0.25000000000000000;stroke-linejoin:bevel" />

   </g>

   <g
   id="g998"
   style="fill:#078930">
    <path
   d="m 119.176,245.913 2.4593,-0.7794 c -0.8188,0.3642 -1.6539,0.6357 -2.4593,0.7794 z"
   id="_53572688_14"
   class="fil16 str6"
   inkscape:connector-curvature="0"
   style="fill:#078930;stroke:#000000;stroke-width:0.25000000000000000;stroke-linejoin:bevel" />

    <path
   d="m 114.069,241.401 c 0.0224,0.6209 0.045,1.2409 0.0676,1.8624 1.378,4.5911 7.3715,2.7204 10.9009,-0.2644 -3.0866,-1.5466 -6.2401,-4.9569 -10.9685,-1.598 z"
   id="_53532616_15"
   class="fil16 str6"
   inkscape:connector-curvature="0"
   style="fill:#078930;stroke:#000000;stroke-width:0.25000000000000000;stroke-linejoin:bevel" />

    <path
   d="m 124.682,243.111 c -0.0304,-0.1025 -0.9686,0.2406 -1.2679,0.3355 -0.3376,0.107 -0.6751,0.214 -1.0126,0.3209 -0.3164,0.1003 -0.6329,0.2006 -0.9493,0.3009 -0.2097,0.0664 -0.5915,-0.0322 -0.7678,-0.0223 -0.3819,0.0218 -0.5913,0.013 -0.8963,-0.0479 -0.2757,-0.055 -0.6374,-0.1922 -0.9025,-0.2451 -0.3249,-0.0647 -0.6563,-0.1338 -0.9027,-0.2451 -0.2801,-0.1262 -0.6223,-0.2419 -0.9088,-0.4422 -0.3266,-0.2282 -0.7203,-0.182 -1.0354,-0.4022 -0.3072,-0.2147 -0.5332,-0.1955 -0.719,-0.5025 -0.1632,-0.2697 -0.4827,-0.4121 -0.7842,-0.5482 -0.1922,-0.0865 -0.2729,-0.1263 -0.3901,-0.2083"
   id="path9413_16"
   class="fil11 str6"
   inkscape:connector-curvature="0"
   style="fill:#078930;stroke:#000000;stroke-width:0.25000000000000000;stroke-linejoin:bevel" />

    <path
   d="m 122.858,242.029 c -0.192,0.0888 -0.6636,0.6554 -0.8041,0.8524 -0.2027,0.2841 -0.3789,0.4546 -0.6205,0.595 -0.3408,0.1981 -0.4562,0.4583 -0.553,0.7064 -0.1339,0.3433 0.3817,0.3569 0.5862,0.3454 0.2151,-0.0122 0.3901,0.2082 0.6454,0.1937"
   id="path9427_17"
   class="fil11 str6"
   inkscape:connector-curvature="0"
   style="fill:#078930;stroke:#000000;stroke-width:0.25000000000000000;stroke-linejoin:bevel" />

    <path
   d="m 121.55,241.116 c 0.3969,-0.0226 -0.6854,0.6566 -1.0572,0.9326 -0.4105,0.3045 -0.5547,0.6738 -0.9307,0.8924 -0.1562,0.0907 -0.4035,0.6343 -0.4877,0.7521 -0.1951,0.2734 -0.1092,0.5684 -0.0384,0.8089 0.0968,0.328 0.0166,0.6502 0.1557,0.8801 0.0479,0.0795 0.1101,0.1977 0.1368,0.2887"
   id="path9429_18"
   class="fil11 str6"
   inkscape:connector-curvature="0"
   style="fill:#078930;stroke:#000000;stroke-width:0.25000000000000000;stroke-linejoin:bevel" />

    <path
   d="m 119.478,240.246 c 0.002,0.003 -1.2041,0.9324 -1.3695,1.1643 -0.2314,0.3244 -0.4486,0.5602 -0.6755,0.878 -0.204,0.2859 -0.3882,0.4069 -0.555,0.6407 -0.1898,0.2661 -0.0675,0.5343 0.0269,0.8545 0.0842,0.2856 0.1492,0.6731 0.1598,1.0117 0.0104,0.3286 0.0208,0.6572 0.0311,0.9859 0.001,0.0438 0.003,0.0877 0.004,0.1315"
   id="path9431_19"
   class="fil11 str6"
   inkscape:connector-curvature="0"
   style="fill:#078930;stroke:#000000;stroke-width:0.25000000000000000;stroke-linejoin:bevel" />

    <path
   d="m 116.978,240.042 c 0.005,0.1696 -0.6686,0.937 -0.7958,1.1153 -0.2023,0.2834 -0.4548,0.5553 -0.6796,0.7465 -0.2583,0.2195 -0.3073,0.3905 -0.2957,0.7576 0.0104,0.3286 0.0207,0.6573 0.0311,0.9861 0.005,0.1532 0.01,0.3066 0.0145,0.46"
   id="path9433_20"
   class="fil11 str6"
   inkscape:connector-curvature="0"
   style="fill:#078930;stroke:#000000;stroke-width:0.25000000000000000;stroke-linejoin:bevel" />

   </g>

   <g
   id="g1007"
   style="fill:#078930">
    <path
   d="m 141.764,212.53 -0.6372,-1.4192 c 0.2749,0.4298 0.4954,0.909 0.6372,1.4192 z"
   id="_53572688_21"
   class="fil16 str6"
   inkscape:connector-curvature="0"
   style="fill:#078930;stroke:#000000;stroke-width:0.25000000000000000;stroke-linejoin:bevel" />

    <path
   d="m 139.411,217.978 c 0.3708,-0.2691 0.741,-0.5381 1.112,-0.8075 2.6578,-2.8466 1.122,-6.3169 -0.9116,-7.5922 -0.7141,2.8112 -2.5411,6.4302 -0.2004,8.3997 z"
   id="_53532616_22"
   class="fil16 str6"
   inkscape:connector-curvature="0"
   style="fill:#078930;stroke:#000000;stroke-width:0.25000000000000000;stroke-linejoin:bevel" />

    <path
   d="m 139.703,209.785 c -0.0594,0.0633 0.2112,0.586 0.2887,0.7587 0.0875,0.1948 0.175,0.3896 0.2624,0.5844 0.082,0.1825 0.164,0.3652 0.246,0.5478 0.0543,0.121 0.0216,0.4309 0.0397,0.5514 0.0394,0.2609 0.0486,0.4124 0.0332,0.6527 -0.0139,0.2171 -0.0712,0.5286 -0.0846,0.7375 -0.0164,0.2559 -0.0349,0.5181 -0.0846,0.7376 -0.0563,0.2494 -0.1021,0.5383 -0.2024,0.8223 -0.1143,0.3239 -0.0593,0.5831 -0.1696,0.8955 -0.1075,0.3046 -0.0804,0.4564 -0.2516,0.7129 -0.1505,0.2253 -0.2138,0.5091 -0.2746,0.7776 -0.0386,0.1711 -0.0568,0.2443 -0.0979,0.3606"
   id="path9413_23"
   class="fil11 str6"
   inkscape:connector-curvature="0"
   style="fill:#078930;stroke:#000000;stroke-width:0.25000000000000000;stroke-linejoin:bevel" />

    <path
   d="m 139.181,211.514 c 0.0666,0.0993 0.4389,0.2013 0.5667,0.2201 0.1844,0.0274 0.2988,0.0822 0.3997,0.1956 0.1423,0.1599 0.3063,0.1353 0.4617,0.1024 0.2151,-0.0454 0.1877,-0.4151 0.1666,-0.5549 -0.0221,-0.147 0.098,-0.3606 0.0716,-0.5349"
   id="path9427_24"
   class="fil11 str6"
   inkscape:connector-curvature="0"
   style="fill:#078930;stroke:#000000;stroke-width:0.25000000000000000;stroke-linejoin:bevel" />

    <path
   d="m 138.723,212.81 c -0.041,-0.2711 0.441,0.2163 0.6322,0.3663 0.2109,0.1657 0.4423,0.1169 0.5994,0.2934 0.0652,0.0732 0.4082,0.0262 0.4846,0.0376 0.1775,0.0262 0.3484,-0.1548 0.4877,-0.3029 0.19,-0.2022 0.3888,-0.277 0.5169,-0.4691 0.0444,-0.0662 0.111,-0.1584 0.1637,-0.2144"
   id="path9429_25"
   class="fil11 str6"
   inkscape:connector-curvature="0"
   style="fill:#078930;stroke:#000000;stroke-width:0.25000000000000000;stroke-linejoin:bevel" />

    <path
   d="m 138.345,214.63 c 0.001,-0.002 0.6423,0.4701 0.7928,0.4923 0.2105,0.0311 0.3669,0.0883 0.5731,0.1189 0.1855,0.0275 0.2708,0.1082 0.4225,0.1307 0.1727,0.0255 0.3251,-0.1704 0.5105,-0.3677 0.1655,-0.1759 0.3933,-0.38 0.5956,-0.5256 0.1963,-0.1414 0.3927,-0.2828 0.589,-0.4242 0.0262,-0.0189 0.0524,-0.0378 0.0786,-0.0566"
   id="path9431_26"
   class="fil11 str6"
   inkscape:connector-curvature="0"
   style="fill:#078930;stroke:#000000;stroke-width:0.25000000000000000;stroke-linejoin:bevel" />

    <path
   d="m 138.395,216.478 c 0.1013,-0.073 0.608,0.0899 0.7237,0.107 0.1839,0.0273 0.3644,0.0947 0.4946,0.1755 0.1495,0.0929 0.2554,0.0578 0.4747,-0.1002 0.1963,-0.1414 0.3927,-0.2828 0.5891,-0.4243 0.0916,-0.0659 0.1832,-0.1319 0.2748,-0.1979"
   id="path9433_27"
   class="fil11 str6"
   inkscape:connector-curvature="0"
   style="fill:#078930;stroke:#000000;stroke-width:0.25000000000000000;stroke-linejoin:bevel" />

   </g>

   <g
   id="g1016"
   style="fill:#078930">
    <path
   d="m 135.001,215.608 -0.7451,-1.6593 c 0.3215,0.5025 0.5793,1.0627 0.7451,1.6593 z"
   id="_53572688_28"
   class="fil16 str6"
   inkscape:connector-curvature="0"
   style="fill:#078930;stroke:#000000;stroke-width:0.25000000000000000;stroke-linejoin:bevel" />

    <path
   d="m 132.25,221.978 c 0.4336,-0.3147 0.8664,-0.6291 1.3003,-0.9442 3.1074,-3.3283 1.3117,-7.3859 -1.066,-8.877 -0.8349,3.287 -2.9711,7.5183 -0.2343,9.8212 z"
   id="_53532616_29"
   class="fil16 str6"
   inkscape:connector-curvature="0"
   style="fill:#078930;stroke:#000000;stroke-width:0.25000000000000000;stroke-linejoin:bevel" />

    <path
   d="m 132.592,212.397 c -0.0694,0.074 0.2469,0.6852 0.3376,0.8871 0.1023,0.2278 0.2046,0.4556 0.3068,0.6833 0.0958,0.2135 0.1918,0.427 0.2876,0.6405 0.0635,0.1415 0.0253,0.5039 0.0464,0.6447 0.0461,0.3051 0.0569,0.4822 0.0389,0.7631 -0.0163,0.254 -0.0833,0.6181 -0.099,0.8624 -0.0191,0.2992 -0.0407,0.6058 -0.0989,0.8624 -0.0658,0.2916 -0.1193,0.6294 -0.2366,0.9615 -0.1336,0.3787 -0.0694,0.6818 -0.1983,1.0471 -0.1257,0.3561 -0.094,0.5336 -0.2942,0.8335 -0.1759,0.2635 -0.25,0.5953 -0.321,0.9092 -0.0452,0.2 -0.0665,0.2856 -0.1145,0.4216"
   id="path9413_30"
   class="fil11 str6"
   inkscape:connector-curvature="0"
   style="fill:#078930;stroke:#000000;stroke-width:0.25000000000000000;stroke-linejoin:bevel" />

    <path
   d="m 131.981,214.42 c 0.0778,0.1161 0.5131,0.2353 0.6626,0.2574 0.2155,0.0319 0.3493,0.0961 0.4673,0.2286 0.1664,0.187 0.3582,0.1582 0.5399,0.1198 0.2515,-0.0532 0.2194,-0.4855 0.1948,-0.6489 -0.0259,-0.1718 0.1145,-0.4216 0.0837,-0.6254"
   id="path9427_31"
   class="fil11 str6"
   inkscape:connector-curvature="0"
   style="fill:#078930;stroke:#000000;stroke-width:0.25000000000000000;stroke-linejoin:bevel" />

    <path
   d="m 131.446,215.935 c -0.0479,-0.317 0.5157,0.2529 0.7392,0.4283 0.2467,0.1937 0.5173,0.1367 0.7009,0.343 0.0762,0.0856 0.4773,0.0306 0.5667,0.044 0.2074,0.0307 0.4073,-0.181 0.5702,-0.3542 0.2221,-0.2364 0.4545,-0.3239 0.6044,-0.5484 0.0519,-0.0775 0.1297,-0.1853 0.1914,-0.2508"
   id="path9429_32"
   class="fil11 str6"
   inkscape:connector-curvature="0"
   style="fill:#078930;stroke:#000000;stroke-width:0.25000000000000000;stroke-linejoin:bevel" />

    <path
   d="m 131.003,218.062 c 0.002,-0.003 0.751,0.5497 0.927,0.5756 0.2461,0.0364 0.4289,0.1033 0.6701,0.1391 0.2169,0.0321 0.3166,0.1266 0.494,0.1528 0.2019,0.0298 0.3801,-0.1992 0.5969,-0.4299 0.1934,-0.2057 0.4599,-0.4443 0.6964,-0.6146 0.2295,-0.1653 0.4591,-0.3307 0.6887,-0.496 0.0306,-0.022 0.0612,-0.0441 0.0919,-0.0662"
   id="path9431_33"
   class="fil11 str6"
   inkscape:connector-curvature="0"
   style="fill:#078930;stroke:#000000;stroke-width:0.25000000000000000;stroke-linejoin:bevel" />

    <path
   d="m 131.063,220.224 c 0.1184,-0.0852 0.7109,0.1052 0.8462,0.1252 0.215,0.032 0.426,0.1108 0.5783,0.2052 0.1747,0.1086 0.2985,0.0675 0.555,-0.1172 0.2295,-0.1653 0.4591,-0.3306 0.6888,-0.496 0.107,-0.0771 0.2142,-0.1543 0.3213,-0.2315"
   id="path9433_34"
   class="fil11 str6"
   inkscape:connector-curvature="0"
   style="fill:#078930;stroke:#000000;stroke-width:0.25000000000000000;stroke-linejoin:bevel" />

   </g>

   <g
   id="g1025"
   style="fill:#078930">
    <path
   d="m 126.691,219.992 -1.2336,-1.5336 c 0.4853,0.4396 0.909,0.9558 1.2336,1.5336 z"
   id="_53572688_35"
   class="fil16 str6"
   inkscape:connector-curvature="0"
   style="fill:#078930;stroke:#000000;stroke-width:0.25000000000000000;stroke-linejoin:bevel" />

    <path
   d="m 124.889,227.335 c 0.4359,-0.44 0.871,-0.8795 1.3071,-1.32 2.888,-4.2702 -0.0979,-8.0273 -3.1969,-8.9624 -0.2491,3.6376 -1.8064,8.5957 1.8898,10.2824 z"
   id="_53532616_36"
   class="fil16 str6"
   inkscape:connector-curvature="0"
   style="fill:#078930;stroke:#000000;stroke-width:0.25000000000000000;stroke-linejoin:bevel" />

    <path
   d="m 123.177,217.275 c -0.0647,0.095 0.4386,0.649 0.5887,0.8357 0.1693,0.2105 0.3387,0.421 0.5079,0.6315 0.1588,0.1973 0.3175,0.3947 0.4763,0.592 0.1051,0.1308 0.1403,0.5178 0.196,0.659 0.1209,0.3055 0.1725,0.4871 0.2133,0.7841 0.037,0.2685 0.0391,0.6649 0.0746,0.9232 0.0437,0.3163 0.0859,0.6411 0.0747,0.9233 -0.0125,0.3205 -5e-4,0.6859 -0.0639,1.062 -0.0724,0.4288 0.0692,0.7276 -6e-4,1.1412 -0.068,0.4033 0.008,0.5798 -0.1593,0.9439 -0.1469,0.3198 -0.1601,0.6843 -0.1738,1.0295 -0.008,0.2199 -0.0146,0.3145 -0.0405,0.4685"
   id="path9413_37"
   class="fil11 str6"
   inkscape:connector-curvature="0"
   style="fill:#078930;stroke:#000000;stroke-width:0.25000000000000000;stroke-linejoin:bevel" />

    <path
   d="m 122.911,219.539 c 0.1162,0.1007 0.6497,0.1118 0.8288,0.096 0.2581,-0.0226 0.4281,0.009 0.5948,0.1168 0.235,0.1514 0.4522,0.0717 0.6555,-0.0155 0.2813,-0.1206 0.1487,-0.5621 0.0841,-0.7258 -0.0681,-0.1722 0.0405,-0.4685 -0.0403,-0.6727"
   id="path9427_38"
   class="fil11 str6"
   inkscape:connector-curvature="0"
   style="fill:#078930;stroke:#000000;stroke-width:0.25000000000000000;stroke-linejoin:bevel" />

    <path
   d="m 122.621,221.255 c -0.1256,-0.3176 0.6566,0.1294 0.9557,0.254 0.3301,0.1376 0.6328,0.008 0.8922,0.1751 0.1077,0.0693 0.5629,-0.0919 0.67,-0.1012 0.2485,-0.0219 0.4348,-0.2941 0.5864,-0.5166 0.2068,-0.3037 0.4583,-0.455 0.5835,-0.7276 0.0434,-0.0941 0.1104,-0.2265 0.1678,-0.3106"
   id="path9429_39"
   class="fil11 str6"
   inkscape:connector-curvature="0"
   style="fill:#078930;stroke:#000000;stroke-width:0.25000000000000000;stroke-linejoin:bevel" />

    <path
   d="m 122.574,223.583 c 0.002,-0.003 0.9961,0.3773 1.2069,0.3586 0.2948,-0.0259 0.5226,-0.004 0.8114,-0.0291 0.2599,-0.0228 0.3969,0.0496 0.6093,0.0309 0.2419,-0.0214 0.399,-0.3059 0.6009,-0.6023 0.1801,-0.2643 0.438,-0.5817 0.6761,-0.8203 0.2311,-0.2316 0.4622,-0.4633 0.6933,-0.6949 0.0308,-0.0309 0.0616,-0.0618 0.0925,-0.0927"
   id="path9431_40"
   class="fil11 str6"
   inkscape:connector-curvature="0"
   style="fill:#078930;stroke:#000000;stroke-width:0.25000000000000000;stroke-linejoin:bevel" />

    <path
   d="m 123.119,225.817 c 0.1192,-0.1195 0.8516,-0.0749 1.0136,-0.0892 0.2575,-0.0226 0.5208,0.005 0.719,0.0635 0.2275,0.0677 0.3627,-0.007 0.6209,-0.2659 0.2311,-0.2316 0.4622,-0.4633 0.6934,-0.695 0.1077,-0.108 0.2156,-0.2161 0.3235,-0.3242"
   id="path9433_41"
   class="fil11 str6"
   inkscape:connector-curvature="0"
   style="fill:#078930;stroke:#000000;stroke-width:0.25000000000000000;stroke-linejoin:bevel" />

   </g>

   <g
   id="g1034"
   style="fill:#078930">
    <path
   d="m 118.23,226 -1.9713,-1.0952 c 0.7122,0.2798 1.3852,0.6462 1.9713,1.0952 z"
   id="_53572688_42"
   class="fil16 str6"
   inkscape:connector-curvature="0"
   style="fill:#078930;stroke:#000000;stroke-width:0.25000000000000000;stroke-linejoin:bevel" />

    <path
   d="m 119.056,233.241 c 0.317,-0.5189 0.6332,-1.0372 0.9503,-1.5566 1.5764,-4.6879 -3.2127,-7.3801 -7.0371,-7.4395 1.128,3.4203 1.3045,8.3979 6.0868,8.9961 z"
   id="_53532616_43"
   class="fil16 str6"
   inkscape:connector-curvature="0"
   style="fill:#078930;stroke:#000000;stroke-width:0.25000000000000000;stroke-linejoin:bevel" />

    <path
   d="m 113.254,224.405 c -0.0355,0.1044 0.741,0.4851 0.9809,0.6184 0.2706,0.1503 0.5412,0.3006 0.8117,0.4509 0.2536,0.1409 0.5074,0.2819 0.761,0.4228 0.1681,0.0933 0.3571,0.4413 0.4739,0.5571 0.2532,0.2505 0.381,0.4046 0.5415,0.6681 0.1451,0.2381 0.3007,0.6032 0.4402,0.8323 0.171,0.2805 0.3438,0.5692 0.4404,0.8324 0.1099,0.2989 0.2646,0.6329 0.3391,0.9964 0.0849,0.4142 0.3587,0.6532 0.4406,1.0529 0.0798,0.3897 0.233,0.5328 0.1869,0.912 -0.0406,0.3331 0.0856,0.6729 0.2037,0.9948 0.0755,0.2051 0.1053,0.294 0.1358,0.4427"
   id="path9413_44"
   class="fil11 str6"
   inkscape:connector-curvature="0"
   style="fill:#078930;stroke:#000000;stroke-width:0.25000000000000000;stroke-linejoin:bevel" />

    <path
   d="m 113.831,226.562 c 0.1688,0.0628 0.7692,-0.0652 0.9632,-0.1263 0.2797,-0.0877 0.4821,-0.1023 0.7098,-0.0464 0.3212,0.0788 0.533,-0.051 0.7265,-0.1841 0.2678,-0.1842 -0.0511,-0.5572 -0.1867,-0.6914 -0.1425,-0.1412 -0.1357,-0.4427 -0.3049,-0.6102"
   id="path9427_45"
   class="fil11 str6"
   inkscape:connector-curvature="0"
   style="fill:#078930;stroke:#000000;stroke-width:0.25000000000000000;stroke-linejoin:bevel" />

    <path
   d="m 114.171,228.22 c -0.2632,-0.2604 0.7837,-0.0508 1.166,-0.0134 0.4221,0.0414 0.7102,-0.1566 1.0647,-0.0697 0.1471,0.0361 0.5935,-0.2307 0.7095,-0.267 0.2693,-0.0846 0.3722,-0.384 0.4556,-0.6285 0.1137,-0.3338 0.3363,-0.5386 0.3708,-0.8225 0.0121,-0.098 0.0358,-0.2375 0.0674,-0.33"
   id="path9429_46"
   class="fil11 str6"
   inkscape:connector-curvature="0"
   style="fill:#078930;stroke:#000000;stroke-width:0.25000000000000000;stroke-linejoin:bevel" />

    <path
   d="m 115.018,230.38 c 4e-4,-0.003 1.259,0.0899 1.4873,0.018 0.3193,-0.1003 0.5825,-0.1389 0.8954,-0.2371 0.2816,-0.0885 0.4626,-0.0572 0.6928,-0.1295 0.262,-0.0824 0.3276,-0.3856 0.4386,-0.7113 0.0991,-0.2905 0.2646,-0.6502 0.4383,-0.932 0.1687,-0.2736 0.3374,-0.5472 0.5061,-0.8207 0.0225,-0.0366 0.045,-0.0731 0.0675,-0.1096"
   id="path9431_47"
   class="fil11 str6"
   inkscape:connector-curvature="0"
   style="fill:#078930;stroke:#000000;stroke-width:0.25000000000000000;stroke-linejoin:bevel" />

    <path
   d="m 116.49,232.3 c 0.087,-0.1411 0.9225,-0.2898 1.0981,-0.3449 0.279,-0.0876 0.5838,-0.1307 0.828,-0.1278 0.2804,0.004 0.4026,-0.1007 0.591,-0.4063 0.1687,-0.2735 0.3374,-0.5471 0.5061,-0.8208 0.0787,-0.1276 0.1574,-0.2553 0.2362,-0.383"
   id="path9433_48"
   class="fil11 str6"
   inkscape:connector-curvature="0"
   style="fill:#078930;stroke:#000000;stroke-width:0.25000000000000000;stroke-linejoin:bevel" />

   </g>

   <g
   id="g1043"
   style="fill:#078930">
    <path
   d="m 111.252,233.84 -2.3599,-0.7271 c 0.8335,0.1453 1.6379,0.386 2.3599,0.7271 z"
   id="_53572688_49"
   class="fil16 str6"
   inkscape:connector-curvature="0"
   style="fill:#078930;stroke:#000000;stroke-width:0.25000000000000000;stroke-linejoin:bevel" />

    <path
   d="m 113.356,241.014 c 0.2652,-0.5869 0.5296,-1.1731 0.7948,-1.7605 0.9718,-5.053 -4.7664,-6.8514 -9.0048,-6.1704 1.8099,3.2452 2.8238,8.252 8.21,7.9309 z"
   id="_53532616_50"
   class="fil16 str6"
   inkscape:connector-curvature="0"
   style="fill:#078930;stroke:#000000;stroke-width:0.25000000000000000;stroke-linejoin:bevel" />

    <path
   d="m 105.487,233.189 c -0.0221,0.1126 0.8991,0.3477 1.1863,0.4362 0.324,0.0998 0.6479,0.1996 0.9717,0.2993 0.3036,0.0936 0.6074,0.1871 0.911,0.2807 0.2012,0.062 0.4674,0.3777 0.6156,0.4723 0.3212,0.2047 0.4878,0.3361 0.7086,0.5717 0.1996,0.2131 0.4317,0.5527 0.6237,0.7576 0.2353,0.251 0.4738,0.5098 0.6239,0.7576 0.1707,0.2815 0.3967,0.5898 0.5388,0.9434 0.1621,0.4031 0.5041,0.5921 0.6604,0.9809 0.1524,0.3792 0.3453,0.4945 0.3567,0.8874 0.01,0.3453 0.2053,0.6649 0.3889,0.968 0.1172,0.1931 0.1648,0.2773 0.223,0.4221"
   id="path9413_51"
   class="fil11 str6"
   inkscape:connector-curvature="0"
   style="fill:#078930;stroke:#000000;stroke-width:0.25000000000000000;stroke-linejoin:bevel" />

    <path
   d="m 106.48,235.262 c 0.197,0.0309 0.8399,-0.2151 1.0443,-0.3145 0.2948,-0.1431 0.5162,-0.197 0.7772,-0.1845 0.3681,0.0175 0.5809,-0.1551 0.773,-0.3273 0.2658,-0.2384 -0.1482,-0.5544 -0.3201,-0.6641 -0.1809,-0.1153 -0.223,-0.422 -0.4376,-0.5588"
   id="path9427_52"
   class="fil11 str6"
   inkscape:connector-curvature="0"
   style="fill:#078930;stroke:#000000;stroke-width:0.25000000000000000;stroke-linejoin:bevel" />

    <path
   d="m 107.129,236.875 c -0.3338,-0.2126 0.8582,-0.2033 1.2871,-0.2395 0.4735,-0.0398 0.7595,-0.2962 1.1658,-0.2769 0.1686,0.008 0.6182,-0.3486 0.7405,-0.4079 0.2838,-0.1378 0.3484,-0.461 0.4004,-0.7248 0.0708,-0.36 0.2832,-0.6106 0.2747,-0.9048 -0.003,-0.1016 5e-4,-0.2475 0.0202,-0.3473"
   id="path9429_53"
   class="fil11 str6"
   inkscape:connector-curvature="0"
   style="fill:#078930;stroke:#000000;stroke-width:0.25000000000000000;stroke-linejoin:bevel" />

    <path
   d="m 108.421,238.899 c -1e-4,-0.004 1.4068,-0.153 1.6474,-0.27 0.3366,-0.1635 0.6212,-0.2536 0.9511,-0.4137 0.2968,-0.1441 0.5021,-0.1475 0.7447,-0.2654 0.2762,-0.1342 0.2988,-0.454 0.368,-0.8054 0.0617,-0.3133 0.1856,-0.7096 0.3313,-1.0287 0.1416,-0.3098 0.2831,-0.6195 0.4246,-0.9293 0.0189,-0.0413 0.0377,-0.0827 0.0566,-0.124"
   id="path9431_54"
   class="fil11 str6"
   inkscape:connector-curvature="0"
   style="fill:#078930;stroke:#000000;stroke-width:0.25000000000000000;stroke-linejoin:bevel" />

    <path
   d="m 110.365,240.558 c 0.073,-0.1598 0.9724,-0.4723 1.1574,-0.5622 0.2942,-0.1428 0.6241,-0.2455 0.8946,-0.2898 0.3106,-0.0509 0.4285,-0.18 0.5866,-0.526 0.1415,-0.3098 0.283,-0.6195 0.4246,-0.9294 0.066,-0.1444 0.132,-0.289 0.1981,-0.4336"
   id="path9433_55"
   class="fil11 str6"
   inkscape:connector-curvature="0"
   style="fill:#078930;stroke:#000000;stroke-width:0.25000000000000000;stroke-linejoin:bevel" />

   </g>

   <g
   id="g1052"
   style="fill:#078930">
    <path
   d="m 143.006,221.127 1.6529,-0.5239 c -0.5503,0.2448 -1.1116,0.4273 -1.6529,0.5239 z"
   id="_53572688_56"
   class="fil16 str6"
   inkscape:connector-curvature="0"
   style="fill:#078930;stroke:#000000;stroke-width:0.25000000000000000;stroke-linejoin:bevel" />

    <path
   d="m 139.574,218.095 c 0.015,0.4174 0.0302,0.8341 0.0454,1.2517 0.9262,3.0858 4.9544,1.8285 7.3266,-0.1777 -2.0745,-1.0394 -4.194,-3.3315 -7.372,-1.074 z"
   id="_53532616_57"
   class="fil16 str6"
   inkscape:connector-curvature="0"
   style="fill:#078930;stroke:#000000;stroke-width:0.25000000000000000;stroke-linejoin:bevel" />

    <path
   d="m 146.706,219.244 c -0.0204,-0.069 -0.651,0.1617 -0.8521,0.2254 -0.2269,0.0719 -0.4538,0.1438 -0.6806,0.2157 -0.2127,0.0674 -0.4254,0.1348 -0.6381,0.2022 -0.1409,0.0447 -0.3975,-0.0216 -0.516,-0.0149 -0.2567,0.0146 -0.3975,0.009 -0.6024,-0.0322 -0.1853,-0.037 -0.4284,-0.1292 -0.6066,-0.1648 -0.2184,-0.0434 -0.4411,-0.0899 -0.6068,-0.1647 -0.1882,-0.0848 -0.4182,-0.1626 -0.6107,-0.2972 -0.2195,-0.1534 -0.4842,-0.1223 -0.6959,-0.2703 -0.2065,-0.1443 -0.3584,-0.1314 -0.4833,-0.3378 -0.1097,-0.1812 -0.3244,-0.2769 -0.527,-0.3684 -0.1293,-0.0582 -0.1835,-0.0849 -0.2623,-0.14"
   id="path9413_58"
   class="fil11 str6"
   inkscape:connector-curvature="0"
   style="fill:#078930;stroke:#000000;stroke-width:0.25000000000000000;stroke-linejoin:bevel" />

    <path
   d="m 145.481,218.517 c -0.129,0.0597 -0.4459,0.4405 -0.5404,0.573 -0.1363,0.1908 -0.2546,0.3055 -0.417,0.3998 -0.2291,0.1332 -0.3067,0.3081 -0.3717,0.4748 -0.09,0.2307 0.2565,0.2399 0.3939,0.2321 0.1446,-0.008 0.2623,0.14 0.4338,0.1303"
   id="path9427_59"
   class="fil11 str6"
   inkscape:connector-curvature="0"
   style="fill:#078930;stroke:#000000;stroke-width:0.25000000000000000;stroke-linejoin:bevel" />

    <path
   d="m 144.602,217.903 c 0.2667,-0.0152 -0.4607,0.4412 -0.7106,0.6267 -0.2759,0.2047 -0.3728,0.4529 -0.6256,0.5999 -0.1049,0.0609 -0.2711,0.4263 -0.3277,0.5054 -0.1311,0.1838 -0.0734,0.3821 -0.0258,0.5437 0.065,0.2205 0.0111,0.4371 0.1046,0.5915 0.0322,0.0534 0.074,0.1329 0.092,0.1941"
   id="path9429_60"
   class="fil11 str6"
   inkscape:connector-curvature="0"
   style="fill:#078930;stroke:#000000;stroke-width:0.25000000000000000;stroke-linejoin:bevel" />

    <path
   d="m 143.209,217.318 c 0.001,0.002 -0.8092,0.6267 -0.9204,0.7826 -0.1555,0.218 -0.3015,0.3765 -0.454,0.5901 -0.1371,0.1922 -0.261,0.2735 -0.3731,0.4306 -0.1275,0.1789 -0.0453,0.3592 0.0182,0.5743 0.0565,0.192 0.1002,0.4524 0.1074,0.68 0.007,0.2209 0.0139,0.4418 0.0209,0.6626 9e-4,0.0295 0.002,0.059 0.003,0.0885"
   id="path9431_61"
   class="fil11 str6"
   inkscape:connector-curvature="0"
   style="fill:#078930;stroke:#000000;stroke-width:0.25000000000000000;stroke-linejoin:bevel" />

    <path
   d="m 141.529,217.181 c 0.004,0.1139 -0.4494,0.6298 -0.5348,0.7496 -0.136,0.1904 -0.3057,0.3732 -0.4568,0.5017 -0.1736,0.1475 -0.2065,0.2624 -0.1988,0.5092 0.007,0.2209 0.014,0.4418 0.0209,0.6628 0.003,0.1029 0.007,0.206 0.01,0.3091"
   id="path9433_62"
   class="fil11 str6"
   inkscape:connector-curvature="0"
   style="fill:#078930;stroke:#000000;stroke-width:0.25000000000000000;stroke-linejoin:bevel" />

   </g>

   <g
   id="g1061"
   style="fill:#078930">
    <path
   d="m 149.583,212.349 0.74,-1.7166 c -0.1945,0.5781 -0.4424,1.1615 -0.74,1.7166 z"
   id="_53572688_63"
   class="fil16 str6"
   inkscape:connector-curvature="0"
   style="fill:#078930;stroke:#000000;stroke-width:0.25000000000000000;stroke-linejoin:bevel" />

    <path
   d="m 145.009,215.529 c 0.3179,0.0237 0.6355,0.0472 0.9537,0.0709 2.9058,-0.6467 4.7236,-4.8284 4.861,-7.409 -2.1797,1.9962 -5.3135,3.9209 -5.8147,7.3381 z"
   id="_53532616_64"
   class="fil16 str6"
   inkscape:connector-curvature="0"
   style="fill:#078930;stroke:#000000;stroke-width:0.25000000000000000;stroke-linejoin:bevel" />

    <path
   d="m 150.716,208.44 c -0.0647,0.0142 -0.3244,0.672 -0.4144,0.8809 -0.1016,0.2356 -0.2032,0.4712 -0.3047,0.7068 -0.0952,0.2208 -0.1905,0.4418 -0.2857,0.6627 -0.0631,0.1463 -0.2868,0.399 -0.3626,0.5192 -0.1642,0.2604 -0.2644,0.4018 -0.4342,0.6048 -0.1535,0.1836 -0.3871,0.4202 -0.5348,0.5967 -0.1808,0.2163 -0.3668,0.4367 -0.5348,0.5968 -0.1908,0.1821 -0.4048,0.4068 -0.6352,0.5886 -0.2627,0.2072 -0.4201,0.4771 -0.6735,0.6769 -0.2471,0.1949 -0.341,0.3494 -0.5782,0.4561 -0.2084,0.0938 -0.4253,0.3015 -0.6307,0.4975 -0.131,0.1249 -0.1876,0.1771 -0.2819,0.2515"
   id="path9413_65"
   class="fil11 str6"
   inkscape:connector-curvature="0"
   style="fill:#078930;stroke:#000000;stroke-width:0.25000000000000000;stroke-linejoin:bevel" />

    <path
   d="m 149.345,209.609 c -0.0439,0.1357 0.0208,0.4911 0.0541,0.5987 0.0479,0.1553 0.0517,0.2855 0.0106,0.4581 -0.0579,0.2435 0.0182,0.3381 0.0968,0.4193 0.1087,0.1123 0.3516,-0.2364 0.4395,-0.3758 0.0925,-0.1467 0.2819,-0.2516 0.3916,-0.4256"
   id="path9427_66"
   class="fil11 str6"
   inkscape:connector-curvature="0"
   style="fill:#078930;stroke:#000000;stroke-width:0.25000000000000000;stroke-linejoin:bevel" />

    <path
   d="m 148.293,210.438 c 0.1706,-0.2706 0.0114,0.506 -0.0221,0.7754 -0.0371,0.2975 0.0798,0.4184 0.0159,0.6871 -0.0265,0.1116 0.1295,0.3134 0.1493,0.3779 0.0461,0.1494 0.2317,0.1097 0.3832,0.0767 0.2069,-0.045 0.3298,0.0295 0.5073,-0.0504 0.0614,-0.0275 0.1485,-0.0623 0.2058,-0.0747"
   id="path9429_67"
   class="fil11 str6"
   inkscape:connector-curvature="0"
   style="fill:#078930;stroke:#000000;stroke-width:0.25000000000000000;stroke-linejoin:bevel" />

    <path
   d="m 146.913,211.789 c 0.002,-10e-4 -0.0894,0.875 -0.0503,1.0017 0.0548,0.1773 0.0721,0.3394 0.1257,0.5131 0.0482,0.1563 0.0238,0.2888 0.0632,0.4166 0.045,0.1454 0.2339,0.0792 0.4358,0.0353 0.18,-0.0392 0.4017,-0.0589 0.5744,-0.045 0.1675,0.0136 0.3351,0.0272 0.5027,0.0408 0.0223,0.002 0.0447,0.004 0.0671,0.005"
   id="path9431_68"
   class="fil11 str6"
   inkscape:connector-curvature="0"
   style="fill:#078930;stroke:#000000;stroke-width:0.25000000000000000;stroke-linejoin:bevel" />

    <path
   d="m 145.668,213.471 c 0.0865,0.007 0.1581,0.5121 0.1882,0.6095 0.0477,0.155 0.0668,0.3433 0.0586,0.5077 -0.01,0.1889 0.0528,0.2329 0.24,0.248 0.1675,0.0136 0.3351,0.0272 0.5028,0.0408 0.0781,0.006 0.1563,0.0126 0.2345,0.019"
   id="path9433_69"
   class="fil11 str6"
   inkscape:connector-curvature="0"
   style="fill:#078930;stroke:#000000;stroke-width:0.25000000000000000;stroke-linejoin:bevel" />

   </g>

   <g
   id="g1070"
   style="fill:#078930">
    <path
   d="m 149.63,216.559 1.3817,-0.8998 c -0.4301,0.3491 -0.8974,0.6579 -1.3817,0.8998 z"
   id="_53572688_70"
   class="fil16 str6"
   inkscape:connector-curvature="0"
   style="fill:#078930;stroke:#000000;stroke-width:0.25000000000000000;stroke-linejoin:bevel" />

    <path
   d="m 145.008,215.53 c 0.1921,0.2887 0.3841,0.5768 0.5764,0.8657 2.2113,1.8722 5.5871,-0.3073 7.0367,-2.4809 -2.4559,-0.0639 -5.4881,-0.9944 -7.6131,1.6152 z"
   id="_53532616_71"
   class="fil16 str6"
   inkscape:connector-curvature="0"
   style="fill:#078930;stroke:#000000;stroke-width:0.25000000000000000;stroke-linejoin:bevel" />

    <path
   d="m 152.421,214.045 c -0.0491,-0.0419 -0.5632,0.3231 -0.7313,0.4326 -0.1897,0.1235 -0.3794,0.2471 -0.5689,0.3705 -0.1778,0.1158 -0.3557,0.2316 -0.5335,0.3474 -0.1178,0.0767 -0.395,0.1126 -0.5072,0.1554 -0.243,0.0929 -0.3822,0.1339 -0.5985,0.1711 -0.1956,0.0336 -0.4708,0.0469 -0.659,0.0792 -0.2304,0.0396 -0.4664,0.0786 -0.659,0.0793 -0.2188,8e-4 -0.4751,0.0201 -0.7193,-0.0127 -0.2783,-0.0373 -0.522,0.0697 -0.7905,0.0337 -0.2618,-0.0351 -0.4038,0.0228 -0.6127,-0.0821 -0.1836,-0.0922 -0.4328,-0.0905 -0.6683,-0.0897 -0.1502,7e-4 -0.2142,-7e-4 -0.3141,-0.0141"
   id="path9413_72"
   class="fil11 str6"
   inkscape:connector-curvature="0"
   style="fill:#078930;stroke:#000000;stroke-width:0.25000000000000000;stroke-linejoin:bevel" />

    <path
   d="m 150.921,213.928 c -0.0998,0.0835 -0.2456,0.4532 -0.2809,0.5767 -0.0511,0.1781 -0.1173,0.2968 -0.2348,0.4153 -0.1657,0.1673 -0.1667,0.3153 -0.1589,0.4534 0.0107,0.1912 0.351,0.0862 0.4811,0.0366 0.1369,-0.0522 0.3141,0.0141 0.4765,-0.0479"
   id="path9427_73"
   class="fil11 str6"
   inkscape:connector-curvature="0"
   style="fill:#078930;stroke:#000000;stroke-width:0.25000000000000000;stroke-linejoin:bevel" />

    <path
   d="m 149.808,213.779 c 0.2525,-0.0965 -0.2596,0.4584 -0.4233,0.6692 -0.1807,0.2327 -0.1692,0.4384 -0.3521,0.623 -0.0759,0.0766 -0.082,0.387 -0.1032,0.4609 -0.0492,0.1714 0.0912,0.2923 0.2061,0.3906 0.1569,0.1342 0.1967,0.3038 0.3531,0.3823 0.054,0.0273 0.1284,0.0697 0.1718,0.1069"
   id="path9429_74"
   class="fil11 str6"
   inkscape:connector-curvature="0"
   style="fill:#078930;stroke:#000000;stroke-width:0.25000000000000000;stroke-linejoin:bevel" />

    <path
   d="m 148.206,213.815 c 0.002,9e-4 -0.5191,0.7009 -0.5607,0.8463 -0.0583,0.2033 -0.1326,0.3617 -0.1898,0.561 -0.0514,0.1792 -0.137,0.2762 -0.179,0.4227 -0.0478,0.1669 0.1087,0.2672 0.2618,0.3981 0.1365,0.1168 0.2897,0.2859 0.3934,0.4437 0.1007,0.1531 0.2014,0.3062 0.3021,0.4593 0.0135,0.0204 0.0269,0.0408 0.0403,0.0612"
   id="path9431_75"
   class="fil11 str6"
   inkscape:connector-curvature="0"
   style="fill:#078930;stroke:#000000;stroke-width:0.25000000000000000;stroke-linejoin:bevel" />

    <path
   d="m 146.518,214.259 c 0.0519,0.079 -0.1684,0.5874 -0.2005,0.6991 -0.051,0.1777 -0.138,0.3608 -0.23,0.4998 -0.1058,0.1595 -0.0889,0.2509 0.0236,0.4219 0.1007,0.1531 0.2014,0.3062 0.3021,0.4594 0.047,0.0714 0.094,0.1429 0.141,0.2143"
   id="path9433_76"
   class="fil11 str6"
   inkscape:connector-curvature="0"
   style="fill:#078930;stroke:#000000;stroke-width:0.25000000000000000;stroke-linejoin:bevel" />

   </g>

   <path
   d="m 116.934,236.5 c -0.3414,0.336 -0.86,0.3633 -1.158,0.0606 -0.298,-0.3028 -0.2625,-0.8209 0.0788,-1.1569 0.3416,-0.3362 0.8602,-0.3635 1.1582,-0.0608 0.298,0.3028 0.2626,0.8209 -0.079,1.1571 z"
   id="_61659456"
   class="fil4 str4"
   inkscape:connector-curvature="0"
   style="fill:#da121a;stroke:#000000;stroke-width:0.25000000000000000" />

   <path
   d="m 116.901,238.132 c -0.3414,0.336 -0.86,0.3633 -1.158,0.0606 -0.298,-0.3028 -0.2625,-0.8209 0.0789,-1.1569 0.3415,-0.3362 0.8601,-0.3635 1.1581,-0.0608 0.298,0.3028 0.2626,0.8209 -0.079,1.1571 z"
   id="_61658400"
   class="fil4 str4"
   inkscape:connector-curvature="0"
   style="fill:#da121a;stroke:#000000;stroke-width:0.25000000000000000" />

   <path
   d="m 118.25,237.103 c -0.3414,0.336 -0.86,0.3633 -1.158,0.0605 -0.298,-0.3027 -0.2625,-0.8208 0.0789,-1.1569 0.3415,-0.3362 0.8601,-0.3634 1.1581,-0.0607 0.298,0.3027 0.2626,0.8209 -0.079,1.1571 z"
   id="_61657344"
   class="fil4 str4"
   inkscape:connector-curvature="0"
   style="fill:#da121a;stroke:#000000;stroke-width:0.25000000000000000" />

   <path
   d="m 118.346,235.52 c -0.3413,0.336 -0.86,0.3633 -1.158,0.0606 -0.298,-0.3028 -0.2625,-0.8209 0.0789,-1.1569 0.3415,-0.3362 0.8601,-0.3635 1.1581,-0.0608 0.298,0.3028 0.2626,0.8209 -0.079,1.1571 z"
   id="_61656288"
   class="fil4 str4"
   inkscape:connector-curvature="0"
   style="fill:#da121a;stroke:#000000;stroke-width:0.25000000000000000" />

   <path
   d="m 122.993,228.712 c -0.1591,0.4125 0.008,0.8615 0.3743,1.0025 0.3658,0.1411 0.7913,-0.0794 0.9503,-0.4919 0.1591,-0.4127 -0.008,-0.8617 -0.3742,-1.0027 -0.3658,-0.141 -0.7914,0.0794 -0.9504,0.4921 z"
   id="_61655232"
   class="fil4 str4"
   inkscape:connector-curvature="0"
   style="fill:#da121a;stroke:#000000;stroke-width:0.25000000000000000" />

   <path
   d="m 121.616,229.069 c -0.247,0.3667 -0.1837,0.8418 0.1415,1.0608 0.3252,0.2189 0.7892,0.0988 1.0361,-0.2679 0.247,-0.3668 0.1838,-0.8419 -0.1414,-1.0609 -0.3252,-0.219 -0.7892,-0.0989 -1.0362,0.268 z"
   id="_61654176"
   class="fil4 str4"
   inkscape:connector-curvature="0"
   style="fill:#da121a;stroke:#000000;stroke-width:0.25000000000000000" />

   <path
   d="m 122.106,227.662 c -0.1921,0.3982 -0.0617,0.8593 0.2915,1.0297 0.3531,0.1703 0.7952,-0.0148 0.9872,-0.413 0.1922,-0.3984 0.0618,-0.8596 -0.2914,-1.0299 -0.3531,-0.1703 -0.7952,0.0148 -0.9873,0.4132 z"
   id="_61653120"
   class="fil4 str4"
   inkscape:connector-curvature="0"
   style="fill:#da121a;stroke:#000000;stroke-width:0.25000000000000000" />

   <path
   d="m 130.038,223.304 c -0.3454,0.3229 -0.8578,0.3365 -1.1441,0.0302 -0.2863,-0.3063 -0.2381,-0.8166 0.1073,-1.1395 0.3456,-0.3229 0.858,-0.3366 1.1443,-0.0303 0.2863,0.3063 0.2381,0.8166 -0.1075,1.1396 z"
   id="_61652064"
   class="fil4 str4"
   inkscape:connector-curvature="0"
   style="fill:#da121a;stroke:#000000;stroke-width:0.25000000000000000" />

   <path
   d="m 130.797,224.288 c -0.2648,0.3917 -0.7613,0.5191 -1.1086,0.2843 -0.3474,-0.2349 -0.414,-0.7431 -0.1492,-1.1348 0.2649,-0.3918 0.7614,-0.5193 1.1087,-0.2844 0.3474,0.2348 0.414,0.7431 0.1491,1.1349 z"
   id="_61651008"
   class="fil4 str4"
   inkscape:connector-curvature="0"
   style="fill:#da121a;stroke:#000000;stroke-width:0.25000000000000000" />

   <path
   d="m 131.607,223.147 c -0.318,0.3499 -0.8276,0.4052 -1.1379,0.1232 -0.3103,-0.282 -0.3037,-0.7946 0.0143,-1.1444 0.3181,-0.3501 0.8277,-0.4054 1.138,-0.1234 0.3103,0.282 0.3037,0.7946 -0.0144,1.1446 z"
   id="_61649952"
   class="fil4 str4"
   inkscape:connector-curvature="0"
   style="fill:#da121a;stroke:#000000;stroke-width:0.25000000000000000" />

   <path
   d="m 137.52,219.039 c -0.4436,0.2066 -0.9522,0.0553 -1.1354,-0.3381 -0.1832,-0.3935 0.0283,-0.88 0.472,-1.0866 0.4438,-0.2067 0.9523,-0.0554 1.1356,0.338 0.1832,0.3934 -0.0284,0.88 -0.4722,1.0867 z"
   id="_61648760"
   class="fil4 str4"
   inkscape:connector-curvature="0"
   style="fill:#da121a;stroke:#000000;stroke-width:0.25000000000000000" />

   <path
   d="m 137.254,220.313 c -0.3865,0.3003 -0.916,0.2661 -1.1822,-0.0767 -0.2662,-0.3427 -0.1684,-0.8641 0.218,-1.1644 0.3867,-0.3003 0.9161,-0.2661 1.1824,0.0766 0.2662,0.3427 0.1684,0.8642 -0.2182,1.1645 z"
   id="_61647704"
   class="fil4 str4"
   inkscape:connector-curvature="0"
   style="fill:#da121a;stroke:#000000;stroke-width:0.25000000000000000" />

   <path
   d="m 138.772,219.667 c -0.4253,0.242 -0.9445,0.1326 -1.1591,-0.2446 -0.2146,-0.3772 -0.0434,-0.8794 0.382,-1.1214 0.4255,-0.2421 0.9447,-0.1327 1.1593,0.2445 0.2146,0.3773 0.0434,0.8794 -0.3822,1.1215 z"
   id="_61646912"
   class="fil4 str4"
   inkscape:connector-curvature="0"
   style="fill:#da121a;stroke:#000000;stroke-width:0.25000000000000000" />

   <path
   d="m 129.47,224.589 c -0.2054,0.4259 -0.6782,0.6239 -1.0559,0.4418 -0.3776,-0.1821 -0.5171,-0.6754 -0.3118,-1.1012 0.2055,-0.4261 0.6783,-0.6241 1.0559,-0.442 0.3777,0.1821 0.5172,0.6754 0.3118,1.1014 z"
   id="_61644976"
   class="fil4 str4"
   inkscape:connector-curvature="0"
   style="fill:#da121a;stroke:#000000;stroke-width:0.25000000000000000" />

  </g>

  
  
  
  
  
  
  
  
  
  
  
  
  
  
  
  
  
  
  
  
  
  
 </g>

 
 
</g>
</svg>
