<?xml version="1.0" encoding="UTF-8" standalone="no"?>
<!-- Created with Inkscape (http://www.inkscape.org/) -->
<svg
   xmlns:dc="http://purl.org/dc/elements/1.1/"
   xmlns:cc="http://creativecommons.org/ns#"
   xmlns:rdf="http://www.w3.org/1999/02/22-rdf-syntax-ns#"
   xmlns:svg="http://www.w3.org/2000/svg"
   xmlns="http://www.w3.org/2000/svg"
   xmlns:sodipodi="http://sodipodi.sourceforge.net/DTD/sodipodi-0.dtd"
   xmlns:inkscape="http://www.inkscape.org/namespaces/inkscape"
   width="750"
   height="500"
   id="svg2844"
   version="1.1"
   inkscape:version="0.46"
   sodipodi:docname="Flag_of_Albán-San_José_(Nariño).svg"
   sodipodi:version="0.32"
   inkscape:output_extension="org.inkscape.output.svg.inkscape">
  <defs
     id="defs2846" />
  <sodipodi:namedview
     id="base"
     pagecolor="#ffffff"
     bordercolor="#666666"
     borderopacity="1.0"
     inkscape:pageopacity="0.0"
     inkscape:pageshadow="2"
     inkscape:zoom="1.082"
     inkscape:cx="375"
     inkscape:cy="250"
     inkscape:document-units="px"
     inkscape:current-layer="layer1"
     showgrid="false"
     inkscape:window-width="1024"
     inkscape:window-height="712"
     inkscape:window-x="-4"
     inkscape:window-y="-4"
     inkscape:window-maximized="1" />
  <metadata
     id="metadata2849">
    <rdf:RDF>
      <cc:Work
         rdf:about="">
        <dc:format>image/svg+xml</dc:format>
        <dc:type
           rdf:resource="http://purl.org/dc/dcmitype/StillImage" />
        <dc:title />
      </cc:Work>
    </rdf:RDF>
  </metadata>
  <g
     inkscape:label="Capa 1"
     inkscape:groupmode="layer"
     id="layer1"
     transform="translate(0,-552.36218)">
    <rect
       style="fill:#ffffff;fill-opacity:1;stroke:none"
       id="rect2860-1"
       width="250"
       height="500"
       x="0"
       y="552.36218"
       rx="8.8817842e-016"
       ry="8.8817784e-016" />
    <g
       id="casa"
       transform="matrix(-4.0533858,-4.4308764,-4.9473446,4.4385134,182.18234,218.07631)"
       style="stroke:#000000;stroke-opacity:1;stroke-width:0.11080156;stroke-miterlimit:4;stroke-dasharray:none">
      <metadata
         id="CorelCorpID_3Corel-Layer" />
      <g
         id="_61644936"
         transform="translate(-194,-162)"
         style="stroke:#000000;stroke-opacity:1;stroke-width:0.11080156;stroke-miterlimit:4;stroke-dasharray:none">
        <path
           nodetypes="ccccc"
           d="M 110.817,245.514 C 117.024,233.0473 127.0694,221.798 145.8687,214.908 L 146.0503,215.3344 C 130.3198,221.5292 119.0014,229.9128 111.6278,246.2754 L 110.817,245.514 z"
           id="rect10991"
           class="fil16 str4"
           inkscape:connector-curvature="0"
           style="fill:#078930;stroke:#000000;stroke-width:0.11080156;stroke-opacity:1;stroke-miterlimit:4;stroke-dasharray:none" />
        <g
           id="g971"
           style="fill:#078930;stroke:#000000;stroke-opacity:1;stroke-width:0.11080156;stroke-miterlimit:4;stroke-dasharray:none">
          <path
             d="M 136.435,225.524 L 138.2988,225.0734 C 137.6836,225.3011 137.0511,225.4592 136.435,225.524 z"
             id="_53572688"
             class="fil16 str6"
             inkscape:connector-curvature="0"
             style="fill:#078930;stroke:#000000;stroke-width:0.11080156;stroke-linejoin:bevel;stroke-opacity:1;stroke-miterlimit:4;stroke-dasharray:none" />
          <path
             d="M 132.247,221.914 C 132.2964,222.3757 132.3461,222.8368 132.3957,223.2988 C 133.7006,226.7753 138.2444,225.6983 140.8226,223.6674 C 138.3526,222.3605 135.7342,219.6678 132.247,221.914 L 132.247,221.914 z"
             id="_53532616"
             class="fil16 str6"
             inkscape:connector-curvature="0"
             style="fill:#078930;stroke:#000000;stroke-width:0.11080156;stroke-linejoin:bevel;stroke-opacity:1;stroke-miterlimit:4;stroke-dasharray:none" />
          <path
             d="M 140.553,223.732 C 140.5242,223.6544 139.8155,223.8603 139.5887,223.9152 C 139.3328,223.977 139.077,224.0389 138.8212,224.1007 C 138.5815,224.1587 138.3415,224.2167 138.1017,224.2747 C 137.9429,224.3131 137.6421,224.2202 137.5061,224.2184 C 137.2115,224.2144 137.0489,224.1974 136.8096,224.1365 C 136.5933,224.0814 136.3062,223.9609 136.0981,223.9079 C 135.8432,223.8431 135.583,223.7747 135.3864,223.6794 C 135.163,223.5713 134.8921,223.4677 134.6599,223.3044 C 134.3952,223.1182 134.0927,223.132 133.8374,222.9524 C 133.5884,222.7773 133.4144,222.7798 133.2546,222.5425 C 133.1142,222.334 132.8595,222.2118 132.619,222.0953 C 132.4657,222.0211 132.4012,221.9875 132.3061,221.9206"
             id="path9413"
             class="fil11 str6"
             inkscape:connector-curvature="0"
             style="fill:#078930;stroke:#000000;stroke-width:0.11080156;stroke-linejoin:bevel;stroke-opacity:1;stroke-miterlimit:4;stroke-dasharray:none" />
          <path
             d="M 139.084,222.835 C 138.94,222.8909 138.6042,223.2867 138.5056,223.4256 C 138.3633,223.6257 138.2358,223.7431 138.056,223.8347 C 137.8024,223.9639 137.7264,224.151 137.6644,224.3299 C 137.5785,224.5776 137.9784,224.6144 138.1361,224.6164 C 138.302,224.6184 138.449,224.7911 138.6459,224.7936"
             id="path9427"
             class="fil11 str6"
             inkscape:connector-curvature="0"
             style="fill:none;stroke:#000000;stroke-width:0.11080156;stroke-linejoin:bevel;stroke-opacity:1;stroke-miterlimit:4;stroke-dasharray:none" />
          <path
             d="M 138.025,222.09 C 138.3311,222.094 137.5283,222.5414 137.2547,222.7269 C 136.9526,222.9315 136.8601,223.1979 136.5802,223.3406 C 136.4641,223.3997 136.3007,223.79 136.2416,223.8731 C 136.1047,224.0658 136.1865,224.289 136.2538,224.471 C 136.3457,224.7193 136.3003,224.9541 136.4199,225.1318 C 136.4611,225.1932 136.5154,225.2842 136.5408,225.353"
             id="path9429"
             class="fil11 str6"
             inkscape:connector-curvature="0"
             style="fill:none;stroke:#000000;stroke-width:0.11080156;stroke-linejoin:bevel;stroke-opacity:1;stroke-miterlimit:4;stroke-dasharray:none" />
          <path
             d="M 136.375,221.337 C 136.376,221.339 135.491,221.9662 135.375,222.1297 C 135.2126,222.3582 135.0566,222.5219 134.8974,222.7458 C 134.7543,222.9473 134.6179,223.0275 134.5008,223.1923 C 134.3677,223.3798 134.4763,223.5851 134.566,223.8274 C 134.6459,224.0436 134.7163,224.3344 134.7421,224.586 C 134.7672,224.8303 134.7922,225.0746 134.8172,225.3188 C 134.8202,225.3514 134.8242,225.384 134.8273,225.4166"
             id="path9431"
             class="fil11 str6"
             inkscape:connector-curvature="0"
             style="fill:none;stroke:#000000;stroke-width:0.11080156;stroke-linejoin:bevel;stroke-opacity:1;stroke-miterlimit:4;stroke-dasharray:none" />
          <path
             d="M 134.429,221.056 C 134.4419,221.182 133.9598,221.7163 133.8706,221.8419 C 133.7286,222.0416 133.5472,222.2302 133.383,222.3604 C 133.1944,222.5098 133.1653,222.6341 133.1933,222.9069 C 133.2183,223.1512 133.2434,223.3955 133.2684,223.6399 C 133.2801,223.7538 133.2918,223.8678 133.3035,223.9818"
             id="path9433"
             class="fil11 str6"
             inkscape:connector-curvature="0"
             style="fill:none;stroke:#000000;stroke-width:0.11080156;stroke-linejoin:bevel;stroke-opacity:1;stroke-miterlimit:4;stroke-dasharray:none" />
        </g>
        <g
           id="g980"
           style="fill:#078930;stroke:#000000;stroke-opacity:1;stroke-width:0.11080156;stroke-miterlimit:4;stroke-dasharray:none">
          <path
             d="M 129.639,231.406 L 131.712,230.9451 C 131.0294,231.1844 130.3259,231.3465 129.639,231.406 z"
             id="_53572688_0"
             class="fil16 str6"
             inkscape:connector-curvature="0"
             style="fill:#078930;stroke:#000000;stroke-width:0.11080156;stroke-linejoin:bevel;stroke-opacity:1;stroke-miterlimit:4;stroke-dasharray:none" />
          <path
             d="M 124.889,227.335 C 124.9534,227.8459 125.018,228.3561 125.0826,228.8675 C 126.609,232.7335 131.6634,231.6338 134.5032,229.4414 C 131.7182,227.9489 128.74,224.9228 124.889,227.335 z"
             id="_53532616_1"
             class="fil16 str6"
             inkscape:connector-curvature="0"
             style="fill:#078930;stroke:#000000;stroke-width:0.11080156;stroke-linejoin:bevel;stroke-opacity:1;stroke-miterlimit:4;stroke-dasharray:none" />
          <path
             d="M 134.204,229.508 C 134.1703,229.4217 133.3827,229.6351 133.1305,229.6912 C 132.8459,229.7544 132.5613,229.8177 132.2769,229.8809 C 132.0101,229.9402 131.7433,229.9996 131.4766,230.0589 C 131.2998,230.0982 130.9621,229.9896 130.8101,229.9849 C 130.4809,229.9749 130.299,229.9526 130.0304,229.8806 C 129.7877,229.8155 129.4646,229.6767 129.2311,229.6141 C 128.9451,229.5375 128.6531,229.4567 128.4316,229.3476 C 128.1799,229.2237 127.8752,229.104 127.6126,228.9189 C 127.3132,228.708 126.9756,228.7174 126.6868,228.5139 C 126.4052,228.3155 126.2108,228.3148 126.0277,228.0495 C 125.8668,227.8165 125.5798,227.6765 125.3089,227.543 C 125.1361,227.458 125.0634,227.4196 124.9559,227.3438"
             id="path9413_2"
             class="fil11 str6"
             inkscape:connector-curvature="0"
             style="fill:#078930;stroke:#000000;stroke-width:0.11080156;stroke-linejoin:bevel;stroke-opacity:1;stroke-miterlimit:4;stroke-dasharray:none" />
          <path
             d="M 132.546,228.488 C 132.3863,228.547 132.019,228.9775 131.9116,229.129 C 131.7566,229.3472 131.6165,229.4743 131.4174,229.572 C 131.1367,229.7097 131.0556,229.9148 130.9898,230.1113 C 130.8987,230.3832 131.3461,230.4317 131.5224,230.4371 C 131.7078,230.4431 131.8754,230.6363 132.0954,230.6428"
             id="path9427_3"
             class="fil11 str6"
             inkscape:connector-curvature="0"
             style="fill:none;stroke:#000000;stroke-width:0.11080156;stroke-linejoin:bevel;stroke-opacity:1;stroke-miterlimit:4;stroke-dasharray:none" />
          <path
             d="M 131.347,227.644 C 131.6891,227.6543 130.8011,228.1329 130.4991,228.3323 C 130.1658,228.5523 130.0677,228.8448 129.7579,228.9968 C 129.6293,229.0599 129.4545,229.4878 129.3901,229.5783 C 129.241,229.7885 129.3368,230.0367 129.4156,230.239 C 129.5232,230.5152 129.4771,230.7737 129.6142,230.9722 C 129.6615,231.0409 129.724,231.1424 129.7537,231.219"
             id="path9429_4"
             class="fil11 str6"
             inkscape:connector-curvature="0"
             style="fill:none;stroke:#000000;stroke-width:0.11080156;stroke-linejoin:bevel;stroke-opacity:1;stroke-miterlimit:4;stroke-dasharray:none" />
          <path
             d="M 129.489,226.78 C 129.491,226.782 128.5139,227.4575 128.3876,227.6358 C 128.2107,227.885 128.0397,228.0627 127.8663,228.3069 C 127.7103,228.5266 127.5596,228.6125 127.4321,228.7922 C 127.2871,228.9967 127.4125,229.2256 127.5174,229.4951 C 127.611,229.7354 127.6954,230.058 127.7292,230.3365 C 127.762,230.6068 127.7948,230.8771 127.8276,231.1475 C 127.8316,231.1835 127.8366,231.2196 127.8408,231.2557"
             id="path9431_5"
             class="fil11 str6"
             inkscape:connector-curvature="0"
             style="fill:none;stroke:#000000;stroke-width:0.11080156;stroke-linejoin:bevel;stroke-opacity:1;stroke-miterlimit:4;stroke-dasharray:none" />
          <path
             d="M 127.31,226.431 C 127.3269,226.5704 126.799,227.1511 126.7018,227.2881 C 126.5471,227.5058 126.3482,227.7106 126.1674,227.8511 C 125.9597,228.0124 125.9296,228.1491 125.9663,228.4511 C 125.9991,228.7214 126.0319,228.9917 126.0648,229.2622 C 126.0801,229.3882 126.0954,229.5144 126.1107,229.6406"
             id="path9433_6"
             class="fil11 str6"
             inkscape:connector-curvature="0"
             style="fill:none;stroke:#000000;stroke-width:0.11080156;stroke-linejoin:bevel;stroke-opacity:1;stroke-miterlimit:4;stroke-dasharray:none" />
        </g>
        <g
           id="g989"
           style="fill:#078930;stroke:#000000;stroke-opacity:1;stroke-width:0.11080156;stroke-miterlimit:4;stroke-dasharray:none">
          <path
             d="M 124.228,237.67 L 126.6055,236.9165 C 125.8139,237.2686 125.0066,237.531 124.228,237.67 z"
             id="_53572688_7"
             class="fil16 str6"
             inkscape:connector-curvature="0"
             style="fill:#078930;stroke:#000000;stroke-width:0.11080156;stroke-linejoin:bevel;stroke-opacity:1;stroke-miterlimit:4;stroke-dasharray:none" />
          <path
             d="M 119.291,233.308 C 119.3126,233.9083 119.3345,234.5077 119.3563,235.1084 C 120.6885,239.5469 126.4826,237.7384 129.8947,234.8528 C 126.9107,233.3577 123.8621,230.0608 119.291,233.308 z"
             id="_53532616_8"
             class="fil16 str6"
             inkscape:connector-curvature="0"
             style="fill:#078930;stroke:#000000;stroke-width:0.11080156;stroke-linejoin:bevel;stroke-opacity:1;stroke-miterlimit:4;stroke-dasharray:none" />
          <path
             d="M 129.551,234.961 C 129.5217,234.8618 128.6146,235.1936 128.3253,235.2853 C 127.999,235.3887 127.6726,235.4921 127.3464,235.5955 C 127.0405,235.6925 126.7345,235.7894 126.4286,235.8864 C 126.2259,235.9506 125.8568,235.8553 125.6864,235.8649 C 125.3171,235.8859 125.1147,235.8774 124.8199,235.8186 C 124.5533,235.7654 124.2037,235.6328 123.9473,235.5816 C 123.6333,235.5191 123.3129,235.4523 123.0747,235.3447 C 122.8039,235.2227 122.4731,235.1108 122.1961,234.9172 C 121.8804,234.6965 121.4997,234.7412 121.1951,234.5283 C 120.8982,234.3208 120.6797,234.3393 120.5001,234.0425 C 120.3423,233.7818 120.0334,233.6441 119.742,233.5126 C 119.5561,233.4289 119.4781,233.3905 119.3648,233.3112"
             id="path9413_9"
             class="fil11 str6"
             inkscape:connector-curvature="0"
             style="fill:#078930;stroke:#000000;stroke-width:0.11080156;stroke-linejoin:bevel;stroke-opacity:1;stroke-miterlimit:4;stroke-dasharray:none" />
          <path
             d="M 127.788,233.915 C 127.6024,234.0009 127.1465,234.5486 127.0107,234.7391 C 126.8146,235.0137 126.6443,235.1786 126.4108,235.3143 C 126.0813,235.5058 125.9697,235.7574 125.8762,235.9972 C 125.7467,236.3291 126.2451,236.3422 126.4428,236.3311 C 126.6508,236.3193 126.82,236.5324 127.0667,236.5184"
             id="path9427_10"
             class="fil11 str6"
             inkscape:connector-curvature="0"
             style="fill:none;stroke:#000000;stroke-width:0.11080156;stroke-linejoin:bevel;stroke-opacity:1;stroke-miterlimit:4;stroke-dasharray:none" />
          <path
             d="M 126.524,233.032 C 126.9078,233.0102 125.8614,233.6668 125.502,233.9336 C 125.1052,234.228 124.9658,234.585 124.6022,234.7963 C 124.4513,234.884 124.2122,235.4095 124.1308,235.5234 C 123.9421,235.7877 124.0252,236.0729 124.0937,236.3054 C 124.1872,236.6225 124.1097,236.934 124.2442,237.1562 C 124.2905,237.233 124.3506,237.3474 124.3765,237.4353"
             id="path9429_11"
             class="fil11 str6"
             inkscape:connector-curvature="0"
             style="fill:none;stroke:#000000;stroke-width:0.11080156;stroke-linejoin:bevel;stroke-opacity:1;stroke-miterlimit:4;stroke-dasharray:none" />
          <path
             d="M 124.52,232.191 C 124.522,232.194 123.3559,233.0924 123.196,233.3167 C 122.9723,233.6302 122.7623,233.8582 122.543,234.1654 C 122.3458,234.4418 122.1677,234.5588 122.0064,234.7848 C 121.823,235.0421 121.9412,235.3014 122.0325,235.6109 C 122.1138,235.887 122.1767,236.2616 122.187,236.5889 C 122.197,236.9066 122.207,237.2243 122.217,237.5421 C 122.218,237.5844 122.22,237.6268 122.221,237.6692"
             id="path9431_12"
             class="fil11 str6"
             inkscape:connector-curvature="0"
             style="fill:none;stroke:#000000;stroke-width:0.11080156;stroke-linejoin:bevel;stroke-opacity:1;stroke-miterlimit:4;stroke-dasharray:none" />
          <path
             d="M 122.104,231.994 C 122.109,232.1579 121.4576,232.8999 121.3347,233.0722 C 121.1391,233.3462 120.895,233.6091 120.6776,233.7939 C 120.428,234.0061 120.3806,234.1714 120.3918,234.5263 C 120.4018,234.844 120.4118,235.1617 120.4218,235.4796 C 120.4268,235.6277 120.4308,235.776 120.4359,235.9243"
             id="path9433_13"
             class="fil11 str6"
             inkscape:connector-curvature="0"
             style="fill:none;stroke:#000000;stroke-width:0.11080156;stroke-linejoin:bevel;stroke-opacity:1;stroke-miterlimit:4;stroke-dasharray:none" />
        </g>
        <g
           id="g998"
           style="fill:#078930;stroke:#000000;stroke-opacity:1;stroke-width:0.11080156;stroke-miterlimit:4;stroke-dasharray:none">
          <path
             d="M 119.176,245.913 L 121.6353,245.1336 C 120.8165,245.4978 119.9814,245.7693 119.176,245.913 z"
             id="_53572688_14"
             class="fil16 str6"
             inkscape:connector-curvature="0"
             style="fill:#078930;stroke:#000000;stroke-width:0.11080156;stroke-linejoin:bevel;stroke-opacity:1;stroke-miterlimit:4;stroke-dasharray:none" />
          <path
             d="M 114.069,241.401 C 114.0914,242.0219 114.114,242.6419 114.1366,243.2634 C 115.5146,247.8545 121.5081,245.9838 125.0375,242.999 C 121.9509,241.4524 118.7974,238.0421 114.069,241.401 L 114.069,241.401 z"
             id="_53532616_15"
             class="fil16 str6"
             inkscape:connector-curvature="0"
             style="fill:#078930;stroke:#000000;stroke-width:0.11080156;stroke-linejoin:bevel;stroke-opacity:1;stroke-miterlimit:4;stroke-dasharray:none" />
          <path
             d="M 124.682,243.111 C 124.6516,243.0085 123.7134,243.3516 123.4141,243.4465 C 123.0765,243.5535 122.739,243.6605 122.4015,243.7674 C 122.0851,243.8677 121.7686,243.968 121.4522,244.0683 C 121.2425,244.1347 120.8607,244.0361 120.6844,244.046 C 120.3025,244.0678 120.0931,244.059 119.7881,243.9981 C 119.5124,243.9431 119.1507,243.8059 118.8856,243.753 C 118.5607,243.6883 118.2293,243.6192 117.9829,243.5079 C 117.7028,243.3817 117.3606,243.266 117.0741,243.0657 C 116.7475,242.8375 116.3538,242.8837 116.0387,242.6635 C 115.7315,242.4488 115.5055,242.468 115.3197,242.161 C 115.1565,241.8913 114.837,241.7489 114.5355,241.6128 C 114.3433,241.5263 114.2626,241.4865 114.1454,241.4045"
             id="path9413_16"
             class="fil11 str6"
             inkscape:connector-curvature="0"
             style="fill:#078930;stroke:#000000;stroke-width:0.11080156;stroke-linejoin:bevel;stroke-opacity:1;stroke-miterlimit:4;stroke-dasharray:none" />
          <path
             d="M 122.858,242.029 C 122.666,242.1178 122.1944,242.6844 122.0539,242.8814 C 121.8512,243.1655 121.675,243.336 121.4334,243.4764 C 121.0926,243.6745 120.9772,243.9347 120.8804,244.1828 C 120.7465,244.5261 121.2621,244.5397 121.4666,244.5282 C 121.6817,244.516 121.8567,244.7364 122.112,244.7219"
             id="path9427_17"
             class="fil11 str6"
             inkscape:connector-curvature="0"
             style="fill:none;stroke:#000000;stroke-width:0.11080156;stroke-linejoin:bevel;stroke-opacity:1;stroke-miterlimit:4;stroke-dasharray:none" />
          <path
             d="M 121.55,241.116 C 121.9469,241.0934 120.8646,241.7726 120.4928,242.0486 C 120.0823,242.3531 119.9381,242.7224 119.5621,242.941 C 119.4059,243.0317 119.1586,243.5753 119.0744,243.6931 C 118.8793,243.9665 118.9652,244.2615 119.036,244.502 C 119.1328,244.83 119.0526,245.1522 119.1917,245.3821 C 119.2396,245.4616 119.3018,245.5798 119.3285,245.6708"
             id="path9429_18"
             class="fil11 str6"
             inkscape:connector-curvature="0"
             style="fill:none;stroke:#000000;stroke-width:0.11080156;stroke-linejoin:bevel;stroke-opacity:1;stroke-miterlimit:4;stroke-dasharray:none" />
          <path
             d="M 119.478,240.246 C 119.48,240.249 118.2739,241.1784 118.1085,241.4103 C 117.8771,241.7347 117.6599,241.9705 117.433,242.2883 C 117.229,242.5742 117.0448,242.6952 116.878,242.929 C 116.6882,243.1951 116.8105,243.4633 116.9049,243.7835 C 116.9891,244.0691 117.0541,244.4566 117.0647,244.7952 C 117.0751,245.1238 117.0855,245.4524 117.0958,245.7811 C 117.0968,245.8249 117.0988,245.8688 117.0998,245.9126"
             id="path9431_19"
             class="fil11 str6"
             inkscape:connector-curvature="0"
             style="fill:none;stroke:#000000;stroke-width:0.11080156;stroke-linejoin:bevel;stroke-opacity:1;stroke-miterlimit:4;stroke-dasharray:none" />
          <path
             d="M 116.978,240.042 C 116.983,240.2116 116.3094,240.979 116.1822,241.1573 C 115.9799,241.4407 115.7274,241.7126 115.5026,241.9038 C 115.2443,242.1233 115.1953,242.2943 115.2069,242.6614 C 115.2173,242.99 115.2276,243.3187 115.238,243.6475 C 115.243,243.8007 115.248,243.9541 115.2525,244.1075"
             id="path9433_20"
             class="fil11 str6"
             inkscape:connector-curvature="0"
             style="fill:none;stroke:#000000;stroke-width:0.11080156;stroke-linejoin:bevel;stroke-opacity:1;stroke-miterlimit:4;stroke-dasharray:none" />
        </g>
        <g
           id="g1007"
           style="fill:#078930;stroke:#000000;stroke-opacity:1;stroke-width:0.11080156;stroke-miterlimit:4;stroke-dasharray:none">
          <path
             d="M 141.764,212.53 L 141.1268,211.1108 C 141.4017,211.5406 141.6222,212.0198 141.764,212.53 z"
             id="_53572688_21"
             class="fil16 str6"
             inkscape:connector-curvature="0"
             style="fill:#078930;stroke:#000000;stroke-width:0.11080156;stroke-linejoin:bevel;stroke-opacity:1;stroke-miterlimit:4;stroke-dasharray:none" />
          <path
             d="M 139.411,217.978 C 139.7818,217.7089 140.152,217.4399 140.523,217.1705 C 143.1808,214.3239 141.645,210.8536 139.6114,209.5783 C 138.8973,212.3895 137.0703,216.0085 139.411,217.978 z"
             id="_53532616_22"
             class="fil16 str6"
             inkscape:connector-curvature="0"
             style="fill:#078930;stroke:#000000;stroke-width:0.11080156;stroke-linejoin:bevel;stroke-opacity:1;stroke-miterlimit:4;stroke-dasharray:none" />
          <path
             d="M 139.703,209.785 C 139.6436,209.8483 139.9142,210.371 139.9917,210.5437 C 140.0792,210.7385 140.1667,210.9333 140.2541,211.1281 C 140.3361,211.3106 140.4181,211.4933 140.5001,211.6759 C 140.5544,211.7969 140.5217,212.1068 140.5398,212.2273 C 140.5792,212.4882 140.5884,212.6397 140.573,212.88 C 140.5591,213.0971 140.5018,213.4086 140.4884,213.6175 C 140.472,213.8734 140.4535,214.1356 140.4038,214.3551 C 140.3475,214.6045 140.3017,214.8934 140.2014,215.1774 C 140.0871,215.5013 140.1421,215.7605 140.0318,216.0729 C 139.9243,216.3775 139.9514,216.5293 139.7802,216.7858 C 139.6297,217.0111 139.5664,217.2949 139.5056,217.5634 C 139.467,217.7345 139.4488,217.8077 139.4077,217.924"
             id="path9413_23"
             class="fil11 str6"
             inkscape:connector-curvature="0"
             style="fill:#078930;stroke:#000000;stroke-width:0.11080156;stroke-linejoin:bevel;stroke-opacity:1;stroke-miterlimit:4;stroke-dasharray:none" />
          <path
             d="M 139.181,211.514 C 139.2476,211.6133 139.6199,211.7153 139.7477,211.7341 C 139.9321,211.7615 140.0465,211.8163 140.1474,211.9297 C 140.2897,212.0896 140.4537,212.065 140.6091,212.0321 C 140.8242,211.9867 140.7968,211.617 140.7757,211.4772 C 140.7536,211.3302 140.8737,211.1166 140.8473,210.9423"
             id="path9427_24"
             class="fil11 str6"
             inkscape:connector-curvature="0"
             style="fill:none;stroke:#000000;stroke-width:0.11080156;stroke-linejoin:bevel;stroke-opacity:1;stroke-miterlimit:4;stroke-dasharray:none" />
          <path
             d="M 138.723,212.81 C 138.682,212.5389 139.164,213.0263 139.3552,213.1763 C 139.5661,213.342 139.7975,213.2932 139.9546,213.4697 C 140.0198,213.5429 140.3628,213.4959 140.4392,213.5073 C 140.6167,213.5335 140.7876,213.3525 140.9269,213.2044 C 141.1169,213.0022 141.3157,212.9274 141.4438,212.7353 C 141.4882,212.6691 141.5548,212.5769 141.6075,212.5209"
             id="path9429_25"
             class="fil11 str6"
             inkscape:connector-curvature="0"
             style="fill:none;stroke:#000000;stroke-width:0.11080156;stroke-linejoin:bevel;stroke-opacity:1;stroke-miterlimit:4;stroke-dasharray:none" />
          <path
             d="M 138.345,214.63 C 138.346,214.628 138.9873,215.1001 139.1378,215.1223 C 139.3483,215.1534 139.5047,215.2106 139.7109,215.2412 C 139.8964,215.2687 139.9817,215.3494 140.1334,215.3719 C 140.3061,215.3974 140.4585,215.2015 140.6439,215.0042 C 140.8094,214.8283 141.0372,214.6242 141.2395,214.4786 C 141.4358,214.3372 141.6322,214.1958 141.8285,214.0544 C 141.8547,214.0355 141.8809,214.0166 141.9071,213.9978"
             id="path9431_26"
             class="fil11 str6"
             inkscape:connector-curvature="0"
             style="fill:none;stroke:#000000;stroke-width:0.11080156;stroke-linejoin:bevel;stroke-opacity:1;stroke-miterlimit:4;stroke-dasharray:none" />
          <path
             d="M 138.395,216.478 C 138.4963,216.405 139.003,216.5679 139.1187,216.585 C 139.3026,216.6123 139.4831,216.6797 139.6133,216.7605 C 139.7628,216.8534 139.8687,216.8183 140.088,216.6603 C 140.2843,216.5189 140.4807,216.3775 140.6771,216.236 C 140.7687,216.1701 140.8603,216.1041 140.9519,216.0381"
             id="path9433_27"
             class="fil11 str6"
             inkscape:connector-curvature="0"
             style="fill:none;stroke:#000000;stroke-width:0.11080156;stroke-linejoin:bevel;stroke-opacity:1;stroke-miterlimit:4;stroke-dasharray:none" />
        </g>
        <g
           id="g1016"
           style="fill:#078930;stroke:#000000;stroke-opacity:1;stroke-width:0.11080156;stroke-miterlimit:4;stroke-dasharray:none">
          <path
             d="M 135.001,215.608 L 134.2559,213.9487 C 134.5774,214.4512 134.8352,215.0114 135.001,215.608 z"
             id="_53572688_28"
             class="fil16 str6"
             inkscape:connector-curvature="0"
             style="fill:#078930;stroke:#000000;stroke-width:0.11080156;stroke-linejoin:bevel;stroke-opacity:1;stroke-miterlimit:4;stroke-dasharray:none" />
          <path
             d="M 132.25,221.978 C 132.6836,221.6633 133.1164,221.3489 133.5503,221.0338 C 136.6577,217.7055 134.862,213.6479 132.4843,212.1568 C 131.6494,215.4438 129.5132,219.6751 132.25,221.978 z"
             id="_53532616_29"
             class="fil16 str6"
             inkscape:connector-curvature="0"
             style="fill:#078930;stroke:#000000;stroke-width:0.11080156;stroke-linejoin:bevel;stroke-opacity:1;stroke-miterlimit:4;stroke-dasharray:none" />
          <path
             d="M 132.592,212.397 C 132.5226,212.471 132.8389,213.0822 132.9296,213.2841 C 133.0319,213.5119 133.1342,213.7397 133.2364,213.9674 C 133.3322,214.1809 133.4282,214.3944 133.524,214.6079 C 133.5875,214.7494 133.5493,215.1118 133.5704,215.2526 C 133.6165,215.5577 133.6273,215.7348 133.6093,216.0157 C 133.593,216.2697 133.526,216.6338 133.5103,216.8781 C 133.4912,217.1773 133.4696,217.4839 133.4114,217.7405 C 133.3456,218.0321 133.2921,218.3699 133.1748,218.702 C 133.0412,219.0807 133.1054,219.3838 132.9765,219.7491 C 132.8508,220.1052 132.8825,220.2827 132.6823,220.5826 C 132.5064,220.8461 132.4323,221.1779 132.3613,221.4918 C 132.3161,221.6918 132.2948,221.7774 132.2468,221.9134"
             id="path9413_30"
             class="fil11 str6"
             inkscape:connector-curvature="0"
             style="fill:#078930;stroke:#000000;stroke-width:0.11080156;stroke-linejoin:bevel;stroke-opacity:1;stroke-miterlimit:4;stroke-dasharray:none" />
          <path
             d="M 131.981,214.42 C 132.0588,214.5361 132.4941,214.6553 132.6436,214.6774 C 132.8591,214.7093 132.9929,214.7735 133.1109,214.906 C 133.2773,215.093 133.4691,215.0642 133.6508,215.0258 C 133.9023,214.9726 133.8702,214.5403 133.8456,214.3769 C 133.8197,214.2051 133.9601,213.9553 133.9293,213.7515"
             id="path9427_31"
             class="fil11 str6"
             inkscape:connector-curvature="0"
             style="fill:none;stroke:#000000;stroke-width:0.11080156;stroke-linejoin:bevel;stroke-opacity:1;stroke-miterlimit:4;stroke-dasharray:none" />
          <path
             d="M 131.446,215.935 C 131.3981,215.618 131.9617,216.1879 132.1852,216.3633 C 132.4319,216.557 132.7025,216.5 132.8861,216.7063 C 132.9623,216.7919 133.3634,216.7369 133.4528,216.7503 C 133.6602,216.781 133.8601,216.5693 134.023,216.3961 C 134.2451,216.1597 134.4775,216.0722 134.6274,215.8477 C 134.6793,215.7702 134.7571,215.6624 134.8188,215.5969"
             id="path9429_32"
             class="fil11 str6"
             inkscape:connector-curvature="0"
             style="fill:none;stroke:#000000;stroke-width:0.11080156;stroke-linejoin:bevel;stroke-opacity:1;stroke-miterlimit:4;stroke-dasharray:none" />
          <path
             d="M 131.003,218.062 C 131.005,218.059 131.754,218.6117 131.93,218.6376 C 132.1761,218.674 132.3589,218.7409 132.6001,218.7767 C 132.817,218.8088 132.9167,218.9033 133.0941,218.9295 C 133.296,218.9593 133.4742,218.7303 133.691,218.4996 C 133.8844,218.2939 134.1509,218.0553 134.3874,217.885 C 134.6169,217.7197 134.8465,217.5543 135.0761,217.389 C 135.1067,217.367 135.1373,217.3449 135.168,217.3228"
             id="path9431_33"
             class="fil11 str6"
             inkscape:connector-curvature="0"
             style="fill:none;stroke:#000000;stroke-width:0.11080156;stroke-linejoin:bevel;stroke-opacity:1;stroke-miterlimit:4;stroke-dasharray:none" />
          <path
             d="M 131.063,220.224 C 131.1814,220.1388 131.7739,220.3292 131.9092,220.3492 C 132.1242,220.3812 132.3352,220.46 132.4875,220.5544 C 132.6622,220.663 132.786,220.6219 133.0425,220.4372 C 133.272,220.2719 133.5016,220.1066 133.7313,219.9412 C 133.8383,219.8641 133.9455,219.7869 134.0526,219.7097"
             id="path9433_34"
             class="fil11 str6"
             inkscape:connector-curvature="0"
             style="fill:none;stroke:#000000;stroke-width:0.11080156;stroke-linejoin:bevel;stroke-opacity:1;stroke-miterlimit:4;stroke-dasharray:none" />
        </g>
        <g
           id="g1025"
           style="fill:#078930;stroke:#000000;stroke-opacity:1;stroke-width:0.11080156;stroke-miterlimit:4;stroke-dasharray:none">
          <path
             d="M 126.691,219.992 L 125.4574,218.4584 C 125.9427,218.898 126.3664,219.4142 126.691,219.992 z"
             id="_53572688_35"
             class="fil16 str6"
             inkscape:connector-curvature="0"
             style="fill:#078930;stroke:#000000;stroke-width:0.11080156;stroke-linejoin:bevel;stroke-opacity:1;stroke-miterlimit:4;stroke-dasharray:none" />
          <path
             d="M 124.889,227.335 C 125.3249,226.895 125.76,226.4555 126.1961,226.015 C 129.0841,221.7448 126.0982,217.9877 122.9992,217.0526 C 122.7501,220.6902 121.1928,225.6483 124.889,227.335 z"
             id="_53532616_36"
             class="fil16 str6"
             inkscape:connector-curvature="0"
             style="fill:#078930;stroke:#000000;stroke-width:0.11080156;stroke-linejoin:bevel;stroke-opacity:1;stroke-miterlimit:4;stroke-dasharray:none" />
          <path
             d="M 123.177,217.275 C 123.1123,217.37 123.6156,217.924 123.7657,218.1107 C 123.935,218.3212 124.1044,218.5317 124.2736,218.7422 C 124.4324,218.9395 124.5911,219.1369 124.7499,219.3342 C 124.855,219.465 124.8902,219.852 124.9459,219.9932 C 125.0668,220.2987 125.1184,220.4803 125.1592,220.7773 C 125.1962,221.0458 125.1983,221.4422 125.2338,221.7005 C 125.2775,222.0168 125.3197,222.3416 125.3085,222.6238 C 125.296,222.9443 125.308,223.3097 125.2446,223.6858 C 125.1722,224.1146 125.3138,224.4134 125.244,224.827 C 125.176,225.2303 125.252,225.4068 125.0847,225.7709 C 124.9378,226.0907 124.9246,226.4552 124.9109,226.8004 C 124.9029,227.0203 124.8963,227.1149 124.8704,227.2689"
             id="path9413_37"
             class="fil11 str6"
             inkscape:connector-curvature="0"
             style="fill:#078930;stroke:#000000;stroke-width:0.11080156;stroke-linejoin:bevel;stroke-opacity:1;stroke-miterlimit:4;stroke-dasharray:none" />
          <path
             d="M 122.911,219.539 C 123.0272,219.6397 123.5607,219.6508 123.7398,219.635 C 123.9979,219.6124 124.1679,219.644 124.3346,219.7518 C 124.5696,219.9032 124.7868,219.8235 124.9901,219.7363 C 125.2714,219.6157 125.1388,219.1742 125.0742,219.0105 C 125.0061,218.8383 125.1147,218.542 125.0339,218.3378"
             id="path9427_38"
             class="fil11 str6"
             inkscape:connector-curvature="0"
             style="fill:none;stroke:#000000;stroke-width:0.11080156;stroke-linejoin:bevel;stroke-opacity:1;stroke-miterlimit:4;stroke-dasharray:none" />
          <path
             d="M 122.621,221.255 C 122.4954,220.9374 123.2776,221.3844 123.5767,221.509 C 123.9068,221.6466 124.2095,221.517 124.4689,221.6841 C 124.5766,221.7534 125.0318,221.5922 125.1389,221.5829 C 125.3874,221.561 125.5737,221.2888 125.7253,221.0663 C 125.9321,220.7626 126.1836,220.6113 126.3088,220.3387 C 126.3522,220.2446 126.4192,220.1122 126.4766,220.0281"
             id="path9429_39"
             class="fil11 str6"
             inkscape:connector-curvature="0"
             style="fill:none;stroke:#000000;stroke-width:0.11080156;stroke-linejoin:bevel;stroke-opacity:1;stroke-miterlimit:4;stroke-dasharray:none" />
          <path
             d="M 122.574,223.583 C 122.576,223.58 123.5701,223.9603 123.7809,223.9416 C 124.0757,223.9157 124.3035,223.9376 124.5923,223.9125 C 124.8522,223.8897 124.9892,223.9621 125.2016,223.9434 C 125.4435,223.922 125.6006,223.6375 125.8025,223.3411 C 125.9826,223.0768 126.2405,222.7594 126.4786,222.5208 C 126.7097,222.2892 126.9408,222.0575 127.1719,221.8259 C 127.2027,221.795 127.2335,221.7641 127.2644,221.7332"
             id="path9431_40"
             class="fil11 str6"
             inkscape:connector-curvature="0"
             style="fill:none;stroke:#000000;stroke-width:0.11080156;stroke-linejoin:bevel;stroke-opacity:1;stroke-miterlimit:4;stroke-dasharray:none" />
          <path
             d="M 123.119,225.817 C 123.2382,225.6975 123.9706,225.7421 124.1326,225.7278 C 124.3901,225.7052 124.6534,225.7328 124.8516,225.7913 C 125.0791,225.859 125.2143,225.7843 125.4725,225.5254 C 125.7036,225.2938 125.9347,225.0621 126.1659,224.8304 C 126.2736,224.7224 126.3815,224.6143 126.4894,224.5062"
             id="path9433_41"
             class="fil11 str6"
             inkscape:connector-curvature="0"
             style="fill:none;stroke:#000000;stroke-width:0.11080156;stroke-linejoin:bevel;stroke-opacity:1;stroke-miterlimit:4;stroke-dasharray:none" />
        </g>
        <g
           id="g1034"
           style="fill:#078930;stroke:#000000;stroke-opacity:1;stroke-width:0.11080156;stroke-miterlimit:4;stroke-dasharray:none">
          <path
             d="M 118.23,226 L 116.2587,224.9048 C 116.9709,225.1846 117.6439,225.551 118.23,226 z"
             id="_53572688_42"
             class="fil16 str6"
             inkscape:connector-curvature="0"
             style="fill:#078930;stroke:#000000;stroke-width:0.11080156;stroke-linejoin:bevel;stroke-opacity:1;stroke-miterlimit:4;stroke-dasharray:none" />
          <path
             d="M 119.056,233.241 C 119.373,232.7221 119.6892,232.2038 120.0063,231.6844 C 121.5827,226.9965 116.7936,224.3043 112.9692,224.2449 C 114.0972,227.6652 114.2737,232.6428 119.056,233.241 z"
             id="_53532616_43"
             class="fil16 str6"
             inkscape:connector-curvature="0"
             style="fill:#078930;stroke:#000000;stroke-width:0.11080156;stroke-linejoin:bevel;stroke-opacity:1;stroke-miterlimit:4;stroke-dasharray:none" />
          <path
             d="M 113.254,224.405 C 113.2185,224.5094 113.995,224.8901 114.2349,225.0234 C 114.5055,225.1737 114.7761,225.324 115.0466,225.4743 C 115.3002,225.6152 115.554,225.7562 115.8076,225.8971 C 115.9757,225.9904 116.1647,226.3384 116.2815,226.4542 C 116.5347,226.7047 116.6625,226.8588 116.823,227.1223 C 116.9681,227.3604 117.1237,227.7255 117.2632,227.9546 C 117.4342,228.2351 117.607,228.5238 117.7036,228.787 C 117.8135,229.0859 117.9682,229.4199 118.0427,229.7834 C 118.1276,230.1976 118.4014,230.4366 118.4833,230.8363 C 118.5631,231.226 118.7163,231.3691 118.6702,231.7483 C 118.6296,232.0814 118.7558,232.4212 118.8739,232.7431 C 118.9494,232.9482 118.9792,233.0371 119.0097,233.1858"
             id="path9413_44"
             class="fil11 str6"
             inkscape:connector-curvature="0"
             style="fill:#078930;stroke:#000000;stroke-width:0.11080156;stroke-linejoin:bevel;stroke-opacity:1;stroke-miterlimit:4;stroke-dasharray:none" />
          <path
             d="M 113.831,226.562 C 113.9998,226.6248 114.6002,226.4968 114.7942,226.4357 C 115.0739,226.348 115.2763,226.3334 115.504,226.3893 C 115.8252,226.4681 116.037,226.3383 116.2305,226.2052 C 116.4983,226.021 116.1794,225.648 116.0438,225.5138 C 115.9013,225.3726 115.9081,225.0711 115.7389,224.9036"
             id="path9427_45"
             class="fil11 str6"
             inkscape:connector-curvature="0"
             style="fill:none;stroke:#000000;stroke-width:0.11080156;stroke-linejoin:bevel;stroke-opacity:1;stroke-miterlimit:4;stroke-dasharray:none" />
          <path
             d="M 114.171,228.22 C 113.9078,227.9596 114.9547,228.1692 115.337,228.2066 C 115.7591,228.248 116.0472,228.05 116.4017,228.1369 C 116.5488,228.173 116.9952,227.9062 117.1112,227.8699 C 117.3805,227.7853 117.4834,227.4859 117.5668,227.2414 C 117.6805,226.9076 117.9031,226.7028 117.9376,226.4189 C 117.9497,226.3209 117.9734,226.1814 118.005,226.0889"
             id="path9429_46"
             class="fil11 str6"
             inkscape:connector-curvature="0"
             style="fill:none;stroke:#000000;stroke-width:0.11080156;stroke-linejoin:bevel;stroke-opacity:1;stroke-miterlimit:4;stroke-dasharray:none" />
          <path
             d="M 115.018,230.38 C 115.0184,230.377 116.277,230.4699 116.5053,230.398 C 116.8246,230.2977 117.0878,230.2591 117.4007,230.1609 C 117.6823,230.0724 117.8633,230.1037 118.0935,230.0314 C 118.3555,229.949 118.4211,229.6458 118.5321,229.3201 C 118.6312,229.0296 118.7967,228.6699 118.9704,228.3881 C 119.1391,228.1145 119.3078,227.8409 119.4765,227.5674 C 119.499,227.5308 119.5215,227.4943 119.544,227.4578"
             id="path9431_47"
             class="fil11 str6"
             inkscape:connector-curvature="0"
             style="fill:none;stroke:#000000;stroke-width:0.11080156;stroke-linejoin:bevel;stroke-opacity:1;stroke-miterlimit:4;stroke-dasharray:none" />
          <path
             d="M 116.49,232.3 C 116.577,232.1589 117.4125,232.0102 117.5881,231.9551 C 117.8671,231.8675 118.1719,231.8244 118.4161,231.8273 C 118.6965,231.8313 118.8187,231.7266 119.0071,231.421 C 119.1758,231.1475 119.3445,230.8739 119.5132,230.6002 C 119.5919,230.4726 119.6706,230.3449 119.7494,230.2172"
             id="path9433_48"
             class="fil11 str6"
             inkscape:connector-curvature="0"
             style="fill:none;stroke:#000000;stroke-width:0.11080156;stroke-linejoin:bevel;stroke-opacity:1;stroke-miterlimit:4;stroke-dasharray:none" />
        </g>
        <g
           id="g1043"
           style="fill:#078930;stroke:#000000;stroke-opacity:1;stroke-width:0.11080156;stroke-miterlimit:4;stroke-dasharray:none">
          <path
             d="M 111.252,233.84 L 108.8921,233.1129 C 109.7256,233.2582 110.53,233.4989 111.252,233.84 z"
             id="_53572688_49"
             class="fil16 str6"
             inkscape:connector-curvature="0"
             style="fill:#078930;stroke:#000000;stroke-width:0.11080156;stroke-linejoin:bevel;stroke-opacity:1;stroke-miterlimit:4;stroke-dasharray:none" />
          <path
             d="M 113.356,241.014 C 113.6212,240.4271 113.8856,239.8409 114.1508,239.2535 C 115.1226,234.2005 109.3844,232.4021 105.146,233.0831 C 106.9559,236.3283 107.9698,241.3351 113.356,241.014 z"
             id="_53532616_50"
             class="fil16 str6"
             inkscape:connector-curvature="0"
             style="fill:#078930;stroke:#000000;stroke-width:0.11080156;stroke-linejoin:bevel;stroke-opacity:1;stroke-miterlimit:4;stroke-dasharray:none" />
          <path
             d="M 105.487,233.189 C 105.4649,233.3016 106.3861,233.5367 106.6733,233.6252 C 106.9973,233.725 107.3212,233.8248 107.645,233.9245 C 107.9486,234.0181 108.2524,234.1116 108.556,234.2052 C 108.7572,234.2672 109.0234,234.5829 109.1716,234.6775 C 109.4928,234.8822 109.6594,235.0136 109.8802,235.2492 C 110.0798,235.4623 110.3119,235.8019 110.5039,236.0068 C 110.7392,236.2578 110.9777,236.5166 111.1278,236.7644 C 111.2985,237.0459 111.5245,237.3542 111.6666,237.7078 C 111.8287,238.1109 112.1707,238.2999 112.327,238.6887 C 112.4794,239.0679 112.6723,239.1832 112.6837,239.5761 C 112.6937,239.9214 112.889,240.241 113.0726,240.5441 C 113.1898,240.7372 113.2374,240.8214 113.2956,240.9662"
             id="path9413_51"
             class="fil11 str6"
             inkscape:connector-curvature="0"
             style="fill:#078930;stroke:#000000;stroke-width:0.11080156;stroke-linejoin:bevel;stroke-opacity:1;stroke-miterlimit:4;stroke-dasharray:none" />
          <path
             d="M 106.48,235.262 C 106.677,235.2929 107.3199,235.0469 107.5243,234.9475 C 107.8191,234.8044 108.0405,234.7505 108.3015,234.763 C 108.6696,234.7805 108.8824,234.6079 109.0745,234.4357 C 109.3403,234.1973 108.9263,233.8813 108.7544,233.7716 C 108.5735,233.6563 108.5314,233.3496 108.3168,233.2128"
             id="path9427_52"
             class="fil11 str6"
             inkscape:connector-curvature="0"
             style="fill:none;stroke:#000000;stroke-width:0.11080156;stroke-linejoin:bevel;stroke-opacity:1;stroke-miterlimit:4;stroke-dasharray:none" />
          <path
             d="M 107.129,236.875 C 106.7952,236.6624 107.9872,236.6717 108.4161,236.6355 C 108.8896,236.5957 109.1756,236.3393 109.5819,236.3586 C 109.7505,236.3666 110.2001,236.01 110.3224,235.9507 C 110.6062,235.8129 110.6708,235.4897 110.7228,235.2259 C 110.7936,234.8659 111.006,234.6153 110.9975,234.3211 C 110.9945,234.2195 110.998,234.0736 111.0177,233.9738"
             id="path9429_53"
             class="fil11 str6"
             inkscape:connector-curvature="0"
             style="fill:none;stroke:#000000;stroke-width:0.11080156;stroke-linejoin:bevel;stroke-opacity:1;stroke-miterlimit:4;stroke-dasharray:none" />
          <path
             d="M 108.421,238.899 C 108.4209,238.895 109.8278,238.746 110.0684,238.629 C 110.405,238.4655 110.6896,238.3754 111.0195,238.2153 C 111.3163,238.0712 111.5216,238.0678 111.7642,237.9499 C 112.0404,237.8157 112.063,237.4959 112.1322,237.1445 C 112.1939,236.8312 112.3178,236.4349 112.4635,236.1158 C 112.6051,235.806 112.7466,235.4963 112.8881,235.1865 C 112.907,235.1452 112.9258,235.1038 112.9447,235.0625"
             id="path9431_54"
             class="fil11 str6"
             inkscape:connector-curvature="0"
             style="fill:none;stroke:#000000;stroke-width:0.11080156;stroke-linejoin:bevel;stroke-opacity:1;stroke-miterlimit:4;stroke-dasharray:none" />
          <path
             d="M 110.365,240.558 C 110.438,240.3982 111.3374,240.0857 111.5224,239.9958 C 111.8166,239.853 112.1465,239.7503 112.417,239.706 C 112.7276,239.6551 112.8455,239.526 113.0036,239.18 C 113.1451,238.8702 113.2866,238.5605 113.4282,238.2506 C 113.4942,238.1062 113.5602,237.9616 113.6263,237.817"
             id="path9433_55"
             class="fil11 str6"
             inkscape:connector-curvature="0"
             style="fill:none;stroke:#000000;stroke-width:0.11080156;stroke-linejoin:bevel;stroke-opacity:1;stroke-miterlimit:4;stroke-dasharray:none" />
        </g>
        <g
           id="g1052"
           style="fill:#078930;stroke:#000000;stroke-opacity:1;stroke-width:0.11080156;stroke-miterlimit:4;stroke-dasharray:none">
          <path
             d="M 143.006,221.127 L 144.6589,220.6031 C 144.1086,220.8479 143.5473,221.0304 143.006,221.127 z"
             id="_53572688_56"
             class="fil16 str6"
             inkscape:connector-curvature="0"
             style="fill:#078930;stroke:#000000;stroke-width:0.11080156;stroke-linejoin:bevel;stroke-opacity:1;stroke-miterlimit:4;stroke-dasharray:none" />
          <path
             d="M 139.574,218.095 C 139.589,218.5124 139.6042,218.9291 139.6194,219.3467 C 140.5456,222.4325 144.5738,221.1752 146.946,219.169 C 144.8715,218.1296 142.752,215.8375 139.574,218.095 z"
             id="_53532616_57"
             class="fil16 str6"
             inkscape:connector-curvature="0"
             style="fill:#078930;stroke:#000000;stroke-width:0.11080156;stroke-linejoin:bevel;stroke-opacity:1;stroke-miterlimit:4;stroke-dasharray:none" />
          <path
             d="M 146.706,219.244 C 146.6856,219.175 146.055,219.4057 145.8539,219.4694 C 145.627,219.5413 145.4001,219.6132 145.1733,219.6851 C 144.9606,219.7525 144.7479,219.8199 144.5352,219.8873 C 144.3943,219.932 144.1377,219.8657 144.0192,219.8724 C 143.7625,219.887 143.6217,219.8814 143.4168,219.8402 C 143.2315,219.8032 142.9884,219.711 142.8102,219.6754 C 142.5918,219.632 142.3691,219.5855 142.2034,219.5107 C 142.0152,219.4259 141.7852,219.3481 141.5927,219.2135 C 141.3732,219.0601 141.1085,219.0912 140.8968,218.9432 C 140.6903,218.7989 140.5384,218.8118 140.4135,218.6054 C 140.3038,218.4242 140.0891,218.3285 139.8865,218.237 C 139.7572,218.1788 139.703,218.1521 139.6242,218.097"
             id="path9413_58"
             class="fil11 str6"
             inkscape:connector-curvature="0"
             style="fill:#078930;stroke:#000000;stroke-width:0.11080156;stroke-linejoin:bevel;stroke-opacity:1;stroke-miterlimit:4;stroke-dasharray:none" />
          <path
             d="M 145.481,218.517 C 145.352,218.5767 145.0351,218.9575 144.9406,219.09 C 144.8043,219.2808 144.686,219.3955 144.5236,219.4898 C 144.2945,219.623 144.2169,219.7979 144.1519,219.9646 C 144.0619,220.1953 144.4084,220.2045 144.5458,220.1967 C 144.6904,220.1887 144.8081,220.3367 144.9796,220.327"
             id="path9427_59"
             class="fil11 str6"
             inkscape:connector-curvature="0"
             style="fill:none;stroke:#000000;stroke-width:0.11080156;stroke-linejoin:bevel;stroke-opacity:1;stroke-miterlimit:4;stroke-dasharray:none" />
          <path
             d="M 144.602,217.903 C 144.8687,217.8878 144.1413,218.3442 143.8914,218.5297 C 143.6155,218.7344 143.5186,218.9826 143.2658,219.1296 C 143.1609,219.1905 142.9947,219.5559 142.9381,219.635 C 142.807,219.8188 142.8647,220.0171 142.9123,220.1787 C 142.9773,220.3992 142.9234,220.6158 143.0169,220.7702 C 143.0491,220.8236 143.0909,220.9031 143.1089,220.9643"
             id="path9429_60"
             class="fil11 str6"
             inkscape:connector-curvature="0"
             style="fill:none;stroke:#000000;stroke-width:0.11080156;stroke-linejoin:bevel;stroke-opacity:1;stroke-miterlimit:4;stroke-dasharray:none" />
          <path
             d="M 143.209,217.318 C 143.21,217.32 142.3998,217.9447 142.2886,218.1006 C 142.1331,218.3186 141.9871,218.4771 141.8346,218.6907 C 141.6975,218.8829 141.5736,218.9642 141.4615,219.1213 C 141.334,219.3002 141.4162,219.4805 141.4797,219.6956 C 141.5362,219.8876 141.5799,220.148 141.5871,220.3756 C 141.5941,220.5965 141.601,220.8174 141.608,221.0382 C 141.6089,221.0677 141.61,221.0972 141.611,221.1267"
             id="path9431_61"
             class="fil11 str6"
             inkscape:connector-curvature="0"
             style="fill:none;stroke:#000000;stroke-width:0.11080156;stroke-linejoin:bevel;stroke-opacity:1;stroke-miterlimit:4;stroke-dasharray:none" />
          <path
             d="M 141.529,217.181 C 141.533,217.2949 141.0796,217.8108 140.9942,217.9306 C 140.8582,218.121 140.6885,218.3038 140.5374,218.4323 C 140.3638,218.5798 140.3309,218.6947 140.3386,218.9415 C 140.3456,219.1624 140.3526,219.3833 140.3595,219.6043 C 140.3625,219.7072 140.3665,219.8103 140.3695,219.9134"
             id="path9433_62"
             class="fil11 str6"
             inkscape:connector-curvature="0"
             style="fill:none;stroke:#000000;stroke-width:0.11080156;stroke-linejoin:bevel;stroke-opacity:1;stroke-miterlimit:4;stroke-dasharray:none" />
        </g>
        <g
           id="g1061"
           style="fill:#078930;stroke:#000000;stroke-opacity:1;stroke-width:0.11080156;stroke-miterlimit:4;stroke-dasharray:none">
          <path
             d="M 149.583,212.349 L 150.323,210.6324 C 150.1285,211.2105 149.8806,211.7939 149.583,212.349 z"
             id="_53572688_63"
             class="fil16 str6"
             inkscape:connector-curvature="0"
             style="fill:#078930;stroke:#000000;stroke-width:0.11080156;stroke-linejoin:bevel;stroke-opacity:1;stroke-miterlimit:4;stroke-dasharray:none" />
          <path
             d="M 145.009,215.529 C 145.3269,215.5527 145.6445,215.5762 145.9627,215.5999 C 148.8685,214.9532 150.6863,210.7715 150.8237,208.1909 C 148.644,210.1871 145.5102,212.1118 145.009,215.529 z"
             id="_53532616_64"
             class="fil16 str6"
             inkscape:connector-curvature="0"
             style="fill:#078930;stroke:#000000;stroke-width:0.11080156;stroke-linejoin:bevel;stroke-opacity:1;stroke-miterlimit:4;stroke-dasharray:none" />
          <path
             d="M 150.716,208.44 C 150.6513,208.4542 150.3916,209.112 150.3016,209.3209 C 150.2,209.5565 150.0984,209.7921 149.9969,210.0277 C 149.9017,210.2485 149.8064,210.4695 149.7112,210.6904 C 149.6481,210.8367 149.4244,211.0894 149.3486,211.2096 C 149.1844,211.47 149.0842,211.6114 148.9144,211.8144 C 148.7609,211.998 148.5273,212.2346 148.3796,212.4111 C 148.1988,212.6274 148.0128,212.8478 147.8448,213.0079 C 147.654,213.19 147.44,213.4147 147.2096,213.5965 C 146.9469,213.8037 146.7895,214.0736 146.5361,214.2734 C 146.289,214.4683 146.1951,214.6228 145.9579,214.7295 C 145.7495,214.8233 145.5326,215.031 145.3272,215.227 C 145.1962,215.3519 145.1396,215.4041 145.0453,215.4785"
             id="path9413_65"
             class="fil11 str6"
             inkscape:connector-curvature="0"
             style="fill:#078930;stroke:#000000;stroke-width:0.11080156;stroke-linejoin:bevel;stroke-opacity:1;stroke-miterlimit:4;stroke-dasharray:none" />
          <path
             d="M 149.345,209.609 C 149.3011,209.7447 149.3658,210.1001 149.3991,210.2077 C 149.447,210.363 149.4508,210.4932 149.4097,210.6658 C 149.3518,210.9093 149.4279,211.0039 149.5065,211.0851 C 149.6152,211.1974 149.8581,210.8487 149.946,210.7093 C 150.0385,210.5626 150.2279,210.4577 150.3376,210.2837"
             id="path9427_66"
             class="fil11 str6"
             inkscape:connector-curvature="0"
             style="fill:none;stroke:#000000;stroke-width:0.11080156;stroke-linejoin:bevel;stroke-opacity:1;stroke-miterlimit:4;stroke-dasharray:none" />
          <path
             d="M 148.293,210.438 C 148.4636,210.1674 148.3044,210.944 148.2709,211.2134 C 148.2338,211.5109 148.3507,211.6318 148.2868,211.9005 C 148.2603,212.0121 148.4163,212.2139 148.4361,212.2784 C 148.4822,212.4278 148.6678,212.3881 148.8193,212.3551 C 149.0262,212.3101 149.1491,212.3846 149.3266,212.3047 C 149.388,212.2772 149.4751,212.2424 149.5324,212.23"
             id="path9429_67"
             class="fil11 str6"
             inkscape:connector-curvature="0"
             style="fill:none;stroke:#000000;stroke-width:0.11080156;stroke-linejoin:bevel;stroke-opacity:1;stroke-miterlimit:4;stroke-dasharray:none" />
          <path
             d="M 146.913,211.789 C 146.915,211.788 146.8236,212.664 146.8627,212.7907 C 146.9175,212.968 146.9348,213.1301 146.9884,213.3038 C 147.0366,213.4601 147.0122,213.5926 147.0516,213.7204 C 147.0966,213.8658 147.2855,213.7996 147.4874,213.7557 C 147.6674,213.7165 147.8891,213.6968 148.0618,213.7107 C 148.2293,213.7243 148.3969,213.7379 148.5645,213.7515 C 148.5868,213.7535 148.6092,213.7555 148.6316,213.7565"
             id="path9431_68"
             class="fil11 str6"
             inkscape:connector-curvature="0"
             style="fill:none;stroke:#000000;stroke-width:0.11080156;stroke-linejoin:bevel;stroke-opacity:1;stroke-miterlimit:4;stroke-dasharray:none" />
          <path
             d="M 145.668,213.471 C 145.7545,213.478 145.8261,213.9831 145.8562,214.0805 C 145.9039,214.2355 145.923,214.4238 145.9148,214.5882 C 145.9048,214.7771 145.9676,214.8211 146.1548,214.8362 C 146.3223,214.8498 146.4899,214.8634 146.6576,214.877 C 146.7357,214.883 146.8139,214.8896 146.8921,214.896"
             id="path9433_69"
             class="fil11 str6"
             inkscape:connector-curvature="0"
             style="fill:none;stroke:#000000;stroke-width:0.11080156;stroke-linejoin:bevel;stroke-opacity:1;stroke-miterlimit:4;stroke-dasharray:none" />
        </g>
        <g
           id="g1070"
           style="fill:#078930;stroke:#000000;stroke-opacity:1;stroke-width:0.11080156;stroke-miterlimit:4;stroke-dasharray:none">
          <path
             d="M 149.63,216.559 L 151.0117,215.6592 C 150.5816,216.0083 150.1143,216.3171 149.63,216.559 z"
             id="_53572688_70"
             class="fil16 str6"
             inkscape:connector-curvature="0"
             style="fill:#078930;stroke:#000000;stroke-width:0.11080156;stroke-linejoin:bevel;stroke-opacity:1;stroke-miterlimit:4;stroke-dasharray:none" />
          <path
             d="M 145.008,215.53 C 145.2001,215.8187 145.3921,216.1068 145.5844,216.3957 C 147.7957,218.2679 151.1715,216.0884 152.6211,213.9148 C 150.1652,213.8509 147.133,212.9204 145.008,215.53 z"
             id="_53532616_71"
             class="fil16 str6"
             inkscape:connector-curvature="0"
             style="fill:#078930;stroke:#000000;stroke-width:0.11080156;stroke-linejoin:bevel;stroke-opacity:1;stroke-miterlimit:4;stroke-dasharray:none" />
          <path
             d="M 152.421,214.045 C 152.3719,214.0031 151.8578,214.3681 151.6897,214.4776 C 151.5,214.6011 151.3103,214.7247 151.1208,214.8481 C 150.943,214.9639 150.7651,215.0797 150.5873,215.1955 C 150.4695,215.2722 150.1923,215.3081 150.0801,215.3509 C 149.8371,215.4438 149.6979,215.4848 149.4816,215.522 C 149.286,215.5556 149.0108,215.5689 148.8226,215.6012 C 148.5922,215.6408 148.3562,215.6798 148.1636,215.6805 C 147.9448,215.6813 147.6885,215.7006 147.4443,215.6678 C 147.166,215.6305 146.9223,215.7375 146.6538,215.7015 C 146.392,215.6664 146.25,215.7243 146.0411,215.6194 C 145.8575,215.5272 145.6083,215.5289 145.3728,215.5297 C 145.2226,215.5304 145.1586,215.529 145.0587,215.5156"
             id="path9413_72"
             class="fil11 str6"
             inkscape:connector-curvature="0"
             style="fill:#078930;stroke:#000000;stroke-width:0.11080156;stroke-linejoin:bevel;stroke-opacity:1;stroke-miterlimit:4;stroke-dasharray:none" />
          <path
             d="M 150.921,213.928 C 150.8212,214.0115 150.6754,214.3812 150.6401,214.5047 C 150.589,214.6828 150.5228,214.8015 150.4053,214.92 C 150.2396,215.0873 150.2386,215.2353 150.2464,215.3734 C 150.2571,215.5646 150.5974,215.4596 150.7275,215.41 C 150.8644,215.3578 151.0416,215.4241 151.204,215.3621"
             id="path9427_73"
             class="fil11 str6"
             inkscape:connector-curvature="0"
             style="fill:none;stroke:#000000;stroke-width:0.11080156;stroke-linejoin:bevel;stroke-opacity:1;stroke-miterlimit:4;stroke-dasharray:none" />
          <path
             d="M 149.808,213.779 C 150.0605,213.6825 149.5484,214.2374 149.3847,214.4482 C 149.204,214.6809 149.2155,214.8866 149.0326,215.0712 C 148.9567,215.1478 148.9506,215.4582 148.9294,215.5321 C 148.8802,215.7035 149.0206,215.8244 149.1355,215.9227 C 149.2924,216.0569 149.3322,216.2265 149.4886,216.305 C 149.5426,216.3323 149.617,216.3747 149.6604,216.4119"
             id="path9429_74"
             class="fil11 str6"
             inkscape:connector-curvature="0"
             style="fill:none;stroke:#000000;stroke-width:0.11080156;stroke-linejoin:bevel;stroke-opacity:1;stroke-miterlimit:4;stroke-dasharray:none" />
          <path
             d="M 148.206,213.815 C 148.208,213.8159 147.6869,214.5159 147.6453,214.6613 C 147.587,214.8646 147.5127,215.023 147.4555,215.2223 C 147.4041,215.4015 147.3185,215.4985 147.2765,215.645 C 147.2287,215.8119 147.3852,215.9122 147.5383,216.0431 C 147.6748,216.1599 147.828,216.329 147.9317,216.4868 C 148.0324,216.6399 148.1331,216.793 148.2338,216.9461 C 148.2473,216.9665 148.2607,216.9869 148.2741,217.0073"
             id="path9431_75"
             class="fil11 str6"
             inkscape:connector-curvature="0"
             style="fill:none;stroke:#000000;stroke-width:0.11080156;stroke-linejoin:bevel;stroke-opacity:1;stroke-miterlimit:4;stroke-dasharray:none" />
          <path
             d="M 146.518,214.259 C 146.5699,214.338 146.3496,214.8464 146.3175,214.9581 C 146.2665,215.1358 146.1795,215.3189 146.0875,215.4579 C 145.9817,215.6174 145.9986,215.7088 146.1111,215.8798 C 146.2118,216.0329 146.3125,216.186 146.4132,216.3392 C 146.4602,216.4106 146.5072,216.4821 146.5542,216.5535"
             id="path9433_76"
             class="fil11 str6"
             inkscape:connector-curvature="0"
             style="fill:#078930;stroke:#000000;stroke-width:0.11080156;stroke-linejoin:bevel;stroke-opacity:1;stroke-miterlimit:4;stroke-dasharray:none" />
        </g>
        <path
           d="M 116.934,236.5 C 116.5926,236.836 116.074,236.8633 115.776,236.5606 C 115.478,236.2578 115.5135,235.7397 115.8548,235.4037 C 116.1964,235.0675 116.715,235.0402 117.013,235.3429 C 117.311,235.6457 117.2756,236.1638 116.934,236.5 z"
           id="_61659456"
           class="fil4 str4"
           inkscape:connector-curvature="0"
           style="fill:#da121a;stroke:#000000;stroke-width:0.11080156;stroke-opacity:1;stroke-miterlimit:4;stroke-dasharray:none" />
        <path
           d="M 116.901,238.132 C 116.5596,238.468 116.041,238.4953 115.743,238.1926 C 115.445,237.8898 115.4805,237.3717 115.8219,237.0357 C 116.1634,236.6995 116.682,236.6722 116.98,236.9749 C 117.278,237.2777 117.2426,237.7958 116.901,238.132 L 116.901,238.132 z"
           id="_61658400"
           class="fil4 str4"
           inkscape:connector-curvature="0"
           style="fill:#da121a;stroke:#000000;stroke-width:0.11080156;stroke-opacity:1;stroke-miterlimit:4;stroke-dasharray:none" />
        <path
           d="M 118.25,237.103 C 117.9086,237.439 117.39,237.4663 117.092,237.1635 C 116.794,236.8608 116.8295,236.3427 117.1709,236.0066 C 117.5124,235.6704 118.031,235.6432 118.329,235.9459 C 118.627,236.2486 118.5916,236.7668 118.25,237.103 L 118.25,237.103 z"
           id="_61657344"
           class="fil4 str4"
           inkscape:connector-curvature="0"
           style="fill:#da121a;stroke:#000000;stroke-width:0.11080156;stroke-opacity:1;stroke-miterlimit:4;stroke-dasharray:none" />
        <path
           d="M 118.346,235.52 C 118.0047,235.856 117.486,235.8833 117.188,235.5806 C 116.89,235.2778 116.9255,234.7597 117.2669,234.4237 C 117.6084,234.0875 118.127,234.0602 118.425,234.3629 C 118.723,234.6657 118.6876,235.1838 118.346,235.52 L 118.346,235.52 z"
           id="_61656288"
           class="fil4 str4"
           inkscape:connector-curvature="0"
           style="fill:#da121a;stroke:#000000;stroke-width:0.11080156;stroke-opacity:1;stroke-miterlimit:4;stroke-dasharray:none" />
        <path
           d="M 122.993,228.712 C 122.8339,229.1245 123.001,229.5735 123.3673,229.7145 C 123.7331,229.8556 124.1586,229.6351 124.3176,229.2226 C 124.4767,228.8099 124.3096,228.3609 123.9434,228.2199 C 123.5776,228.0789 123.152,228.2993 122.993,228.712 z"
           id="_61655232"
           class="fil4 str4"
           inkscape:connector-curvature="0"
           style="fill:#da121a;stroke:#000000;stroke-width:0.11080156;stroke-opacity:1;stroke-miterlimit:4;stroke-dasharray:none" />
        <path
           d="M 121.616,229.069 C 121.369,229.4357 121.4323,229.9108 121.7575,230.1298 C 122.0827,230.3487 122.5467,230.2286 122.7936,229.8619 C 123.0406,229.4951 122.9774,229.02 122.6522,228.801 C 122.327,228.582 121.863,228.7021 121.616,229.069 z"
           id="_61654176"
           class="fil4 str4"
           inkscape:connector-curvature="0"
           style="fill:#da121a;stroke:#000000;stroke-width:0.11080156;stroke-opacity:1;stroke-miterlimit:4;stroke-dasharray:none" />
        <path
           d="M 122.106,227.662 C 121.9139,228.0602 122.0443,228.5213 122.3975,228.6917 C 122.7506,228.862 123.1927,228.6769 123.3847,228.2787 C 123.5769,227.8803 123.4465,227.4191 123.0933,227.2488 C 122.7402,227.0785 122.2981,227.2636 122.106,227.662 L 122.106,227.662 z"
           id="_61653120"
           class="fil4 str4"
           inkscape:connector-curvature="0"
           style="fill:#da121a;stroke:#000000;stroke-width:0.11080156;stroke-opacity:1;stroke-miterlimit:4;stroke-dasharray:none" />
        <path
           d="M 130.038,223.304 C 129.6926,223.6269 129.1802,223.6405 128.8939,223.3342 C 128.6076,223.0279 128.6558,222.5176 129.0012,222.1947 C 129.3468,221.8718 129.8592,221.8581 130.1455,222.1644 C 130.4318,222.4707 130.3836,222.981 130.038,223.304 z"
           id="_61652064"
           class="fil4 str4"
           inkscape:connector-curvature="0"
           style="fill:#da121a;stroke:#000000;stroke-width:0.11080156;stroke-opacity:1;stroke-miterlimit:4;stroke-dasharray:none" />
        <path
           d="M 130.797,224.288 C 130.5322,224.6797 130.0357,224.8071 129.6884,224.5723 C 129.341,224.3374 129.2744,223.8292 129.5392,223.4375 C 129.8041,223.0457 130.3006,222.9182 130.6479,223.1531 C 130.9953,223.3879 131.0619,223.8962 130.797,224.288 L 130.797,224.288 z"
           id="_61651008"
           class="fil4 str4"
           inkscape:connector-curvature="0"
           style="fill:#da121a;stroke:#000000;stroke-width:0.11080156;stroke-opacity:1;stroke-miterlimit:4;stroke-dasharray:none" />
        <path
           d="M 131.607,223.147 C 131.289,223.4969 130.7794,223.5522 130.4691,223.2702 C 130.1588,222.9882 130.1654,222.4756 130.4834,222.1258 C 130.8015,221.7757 131.3111,221.7204 131.6214,222.0024 C 131.9317,222.2844 131.9251,222.797 131.607,223.147 z"
           id="_61649952"
           class="fil4 str4"
           inkscape:connector-curvature="0"
           style="fill:#da121a;stroke:#000000;stroke-width:0.11080156;stroke-opacity:1;stroke-miterlimit:4;stroke-dasharray:none" />
        <path
           d="M 137.52,219.039 C 137.0764,219.2456 136.5678,219.0943 136.3846,218.7009 C 136.2014,218.3074 136.4129,217.8209 136.8566,217.6143 C 137.3004,217.4076 137.8089,217.5589 137.9922,217.9523 C 138.1754,218.3457 137.9638,218.8323 137.52,219.039 L 137.52,219.039 z"
           id="_61648760"
           class="fil4 str4"
           inkscape:connector-curvature="0"
           style="fill:#da121a;stroke:#000000;stroke-width:0.11080156;stroke-opacity:1;stroke-miterlimit:4;stroke-dasharray:none" />
        <path
           d="M 137.254,220.313 C 136.8675,220.6133 136.338,220.5791 136.0718,220.2363 C 135.8056,219.8936 135.9034,219.3722 136.2898,219.0719 C 136.6765,218.7716 137.2059,218.8058 137.4722,219.1485 C 137.7384,219.4912 137.6406,220.0127 137.254,220.313 L 137.254,220.313 z"
           id="_61647704"
           class="fil4 str4"
           inkscape:connector-curvature="0"
           style="fill:#da121a;stroke:#000000;stroke-width:0.11080156;stroke-opacity:1;stroke-miterlimit:4;stroke-dasharray:none" />
        <path
           d="M 138.772,219.667 C 138.3467,219.909 137.8275,219.7996 137.6129,219.4224 C 137.3983,219.0452 137.5695,218.543 137.9949,218.301 C 138.4204,218.0589 138.9396,218.1683 139.1542,218.5455 C 139.3688,218.9228 139.1976,219.4249 138.772,219.667 z"
           id="_61646912"
           class="fil4 str4"
           inkscape:connector-curvature="0"
           style="fill:#da121a;stroke:#000000;stroke-width:0.11080156;stroke-opacity:1;stroke-miterlimit:4;stroke-dasharray:none" />
        <path
           d="M 129.47,224.589 C 129.2646,225.0149 128.7918,225.2129 128.4141,225.0308 C 128.0365,224.8487 127.897,224.3554 128.1023,223.9296 C 128.3078,223.5035 128.7806,223.3055 129.1582,223.4876 C 129.5359,223.6697 129.6754,224.163 129.47,224.589 z"
           id="_61644976"
           class="fil4 str4"
           inkscape:connector-curvature="0"
           style="fill:#da121a;stroke:#000000;stroke-width:0.11080156;stroke-opacity:1;stroke-miterlimit:4;stroke-dasharray:none" />
      </g>
    </g>
    <rect
       style="fill:#da121a;fill-opacity:1;stroke:none"
       id="rect2860-1-7"
       width="250"
       height="500"
       x="250"
       y="552.36218"
       rx="8.8817842e-016"
       ry="8.8817784e-016" />
    <rect
       style="fill:#078930;fill-opacity:1;stroke:none"
       id="rect2860-1-4"
       width="250"
       height="500"
       x="500"
       y="552.36218"
       rx="8.8817842e-016"
       ry="8.8817784e-016" />
  </g>
</svg>
