<?xml version="1.0" encoding="UTF-8" standalone="no"?>
<!-- Created with Inkscape (http://www.inkscape.org/) -->

<svg
   xmlns:dc="http://purl.org/dc/elements/1.1/"
   xmlns:cc="http://creativecommons.org/ns#"
   xmlns:rdf="http://www.w3.org/1999/02/22-rdf-syntax-ns#"
   xmlns:svg="http://www.w3.org/2000/svg"
   xmlns="http://www.w3.org/2000/svg"
   xmlns:sodipodi="http://sodipodi.sourceforge.net/DTD/sodipodi-0.dtd"
   xmlns:inkscape="http://www.inkscape.org/namespaces/inkscape"
   width="1000"
   height="500"
   id="svg2"
   version="1.1"
   inkscape:version="0.47 r22583"
   sodipodi:docname="Flag of Morales (Cauca).svg">
  <defs
     id="defs4">
    <inkscape:perspective
       sodipodi:type="inkscape:persp3d"
       inkscape:vp_x="0 : 526.18109 : 1"
       inkscape:vp_y="0 : 1000 : 0"
       inkscape:vp_z="744.09448 : 526.18109 : 1"
       inkscape:persp3d-origin="372.04724 : 350.78739 : 1"
       id="perspective10" />
    <inkscape:perspective
       id="perspective2828"
       inkscape:persp3d-origin="0.5 : 0.33333333 : 1"
       inkscape:vp_z="1 : 0.5 : 1"
       inkscape:vp_y="0 : 1000 : 0"
       inkscape:vp_x="0 : 0.5 : 1"
       sodipodi:type="inkscape:persp3d" />
    <inkscape:perspective
       id="perspective4165"
       inkscape:persp3d-origin="0.5 : 0.33333333 : 1"
       inkscape:vp_z="1 : 0.5 : 1"
       inkscape:vp_y="0 : 1000 : 0"
       inkscape:vp_x="0 : 0.5 : 1"
       sodipodi:type="inkscape:persp3d" />
    <inkscape:perspective
       id="perspective4187"
       inkscape:persp3d-origin="0.5 : 0.33333333 : 1"
       inkscape:vp_z="1 : 0.5 : 1"
       inkscape:vp_y="0 : 1000 : 0"
       inkscape:vp_x="0 : 0.5 : 1"
       sodipodi:type="inkscape:persp3d" />
    <inkscape:perspective
       id="perspective6585"
       inkscape:persp3d-origin="0.5 : 0.33333333 : 1"
       inkscape:vp_z="1 : 0.5 : 1"
       inkscape:vp_y="0 : 1000 : 0"
       inkscape:vp_x="0 : 0.5 : 1"
       sodipodi:type="inkscape:persp3d" />
    <inkscape:perspective
       id="perspective6607"
       inkscape:persp3d-origin="0.5 : 0.33333333 : 1"
       inkscape:vp_z="1 : 0.5 : 1"
       inkscape:vp_y="0 : 1000 : 0"
       inkscape:vp_x="0 : 0.5 : 1"
       sodipodi:type="inkscape:persp3d" />
    <inkscape:perspective
       id="perspective4655"
       inkscape:persp3d-origin="0.5 : 0.33333333 : 1"
       inkscape:vp_z="1 : 0.5 : 1"
       inkscape:vp_y="0 : 1000 : 0"
       inkscape:vp_x="0 : 0.5 : 1"
       sodipodi:type="inkscape:persp3d" />
    <inkscape:perspective
       id="perspective3145"
       inkscape:persp3d-origin="0.5 : 0.33333333 : 1"
       inkscape:vp_z="1 : 0.5 : 1"
       inkscape:vp_y="0 : 1000 : 0"
       inkscape:vp_x="0 : 0.5 : 1"
       sodipodi:type="inkscape:persp3d" />
  </defs>
  <sodipodi:namedview
     id="base"
     pagecolor="#ffffff"
     bordercolor="#666666"
     borderopacity="1.0"
     inkscape:pageopacity="0.0"
     inkscape:pageshadow="2"
     inkscape:zoom="0.62"
     inkscape:cx="475.3408"
     inkscape:cy="247.04166"
     inkscape:document-units="px"
     inkscape:current-layer="layer1"
     showgrid="false"
     inkscape:window-width="1024"
     inkscape:window-height="538"
     inkscape:window-x="-8"
     inkscape:window-y="-8"
     inkscape:window-maximized="1" />
  <metadata
     id="metadata7">
    <rdf:RDF>
      <cc:Work
         rdf:about="">
        <dc:format>image/svg+xml</dc:format>
        <dc:type
           rdf:resource="http://purl.org/dc/dcmitype/StillImage" />
        <dc:title></dc:title>
      </cc:Work>
    </rdf:RDF>
  </metadata>
  <g
     inkscape:label="Capa 1"
     inkscape:groupmode="layer"
     id="layer1"
     transform="translate(0,-552.36218)">
    <rect
       style="fill:#ffffff;fill-opacity:1;stroke:none"
       id="rect6575"
       width="1000"
       height="125"
       x="0"
       y="-5.6843419e-14"
       transform="translate(0,552.36218)" />
    <rect
       style="fill:#ffffff;fill-opacity:1;stroke:none"
       id="rect6575-5"
       width="1000"
       height="125"
       x="0"
       y="927.36218" />
    <rect
       style="fill:#078930;fill-opacity:1;stroke:none"
       id="rect6575-5-2"
       width="1000"
       height="250"
       x="-2.5595387e-05"
       y="677.36218" />
    <rect
       style="fill:#da121a;fill-opacity:1;stroke:none"
       id="rect6621"
       width="300"
       height="500"
       x="0"
       y="-5.6843419e-14"
       transform="translate(0,552.36218)" />
    <g
       transform="matrix(7.2849059,0,0,7.3752105,-259.27277,285.2913)"
       id="g3892"
       style="fill:#ffffff;fill-rule:evenodd;display:inline">
      <path
         d="m 57.175345,77.943726 c 0,0.0387 -0.0033,0.0766 -0.0099,0.1134 4.8545,-1.1784 9.8219,-0.4 14.7614,-0.0862 l -4.0453,-14.752 -1.2923,-1.5703 c -3.6408,-0.1772 -7.8618,-0.77 -9.9948,0.3658 l 0,15.2881 c 0.0543,0.0053 0.1066,0.0173 0.1561,0.0352 0.1175,0.0425 0.2191,0.1183 0.2934,0.2159 0.0589,0.0773 0.1006,0.1683 0.1197,0.2673 0.0076,0.0395 0.0116,0.0802 0.0116,0.1219 l 1e-4,9e-4 z"
         id="_38608520"
         style="fill:#ffffff" />
      <path
         d="m 56.453745,76.784226 0,-14.7698 c -2.1333,-1.1358 -6.3543,-0.543 -9.9949,-0.3658 l -1.2923,1.5703 -4.0452,14.752 c 4.9448,-0.3141 9.9175,-1.0939 14.7771,0.09 -0.0069,-0.0377 -0.0105,-0.0766 -0.0106,-0.1163 l 0,-0.001 c 0,-0.0406 0.0037,-0.0804 0.0109,-0.1189 0.0185,-0.0991 0.0596,-0.1902 0.1179,-0.2677 0.0732,-0.0975 0.1734,-0.1734 0.2895,-0.2168 0.0469,-0.0176 0.0963,-0.0298 0.1476,-0.036 l 0,-0.221 0,-0.299 0,0 z"
         id="_38607728"
         style="fill:#ffffff" />
      <g
         transform="translate(148.98889,-188.31825)"
         id="g3896"
         style="fill:#ffffff">
        <g
           transform="translate(-175.31115,187.05448)"
           id="g3277"
           style="fill:#ffffff">
          <path
             d="m 82.776,63.2782 0,16.1906 C 77.7404,78.0807 72.5769,78.9085 67.4436,79.2347 l 4.0452,-14.752 1.2922,-1.5703 c 3.6407,-0.1772 7.8617,-0.77 9.995,0.3658 l 0,0 z"
             id="path3234"
             style="fill:#ffffff;stroke:#000000;stroke-width:0.07976101;stroke-linejoin:round" />
          <path
             d="M 82.776,79.2445 C 77.8217,77.7654 72.7779,78.6119 67.6776,78.9899 l 4.038,-14.7266"
             id="path3236"
             style="fill:#ffffff;stroke:#000000;stroke-width:0.07976101;stroke-linejoin:round" />
          <path
             d="M 82.776,78.9453 C 77.9021,77.4855 73.0025,78.4462 67.99,78.6924 l 3.9595,-14.6826"
             id="path3238"
             style="fill:#ffffff;stroke:#000000;stroke-width:0.07976101;stroke-linejoin:round" />
          <path
             d="M 82.776,78.6462 C 77.9706,77.2504 73.2708,77.9774 68.3902,78.3514 l 3.9203,-14.8391"
             id="path3240"
             style="fill:#ffffff;stroke:#000000;stroke-width:0.07976101;stroke-linejoin:round" />
          <path
             d="M 82.776,78.347 C 78.0574,76.9783 73.5177,77.6501 68.7412,78.0311 l 3.8619,-14.8407"
             id="path3242"
             style="fill:#ffffff;stroke:#000000;stroke-width:0.07976101;stroke-linejoin:round" />
          <path
             d="M 82.776,78.048 C 78.135,76.6734 73.763,77.3014 69.131,77.6932 l 3.6964,-14.7661"
             id="path3244"
             style="fill:#ffffff;stroke:#000000;stroke-width:0.07976101;stroke-linejoin:round" />
        </g>
        <g
           transform="translate(-175.31115,187.05448)"
           id="g3254"
           style="fill:#ffffff">
          <path
             d="m 82.9167,63.2782 0,16.1906 c 5.0356,-1.3881 10.1991,-0.5603 15.3324,-0.2341 l -4.0452,-14.752 -1.2924,-1.5703 c -3.6408,-0.1772 -7.8618,-0.77 -9.9948,0.3658 l 0,0 z"
             id="path3256"
             style="fill:#ffffff;stroke:#000000;stroke-width:0.07976101;stroke-linejoin:round" />
          <path
             d="m 82.9167,79.2445 c 4.9542,-1.4791 9.9981,-0.6326 15.0983,-0.2546 L 93.9771,64.2633"
             id="path3258"
             style="fill:#ffffff;stroke:#000000;stroke-width:0.07976101;stroke-linejoin:round" />
          <path
             d="m 82.9167,78.9453 c 4.8739,-1.4598 9.7735,-0.4991 14.7858,-0.2529 L 93.743,64.0098"
             id="path3260"
             style="fill:#ffffff;stroke:#000000;stroke-width:0.07976101;stroke-linejoin:round" />
          <path
             d="m 82.9167,78.6462 c 4.8054,-1.3958 9.5052,-0.6688 14.3858,-0.2948 L 93.3822,63.5123"
             id="path3262"
             style="fill:#ffffff;stroke:#000000;stroke-width:0.07976101;stroke-linejoin:round" />
          <path
             d="m 82.9167,78.347 c 4.7185,-1.3687 9.2582,-0.6969 14.0346,-0.3159 L 93.0895,63.1904"
             id="path3264"
             style="fill:#ffffff;stroke:#000000;stroke-width:0.07976101;stroke-linejoin:round" />
          <path
             d="m 82.9167,78.048 c 4.6409,-1.3746 9.0128,-0.7466 13.6448,-0.3548 L 92.8651,62.9271"
             id="path3266"
             style="fill:#ffffff;stroke:#000000;stroke-width:0.07976101;stroke-linejoin:round" />
        </g>
      </g>
      <polyline
         transform="translate(-26.322255,-1.2637742)"
         style="fill:#ffffff;stroke:#000000;stroke-width:0.11043831;stroke-linejoin:bevel"
         points="82.3155,65.0893 81.9994,65.0709 81.6464,64.8631 81.2797,64.9659 80.8991,64.8323 80.594,64.704 80.2132,64.7737 79.8437,64.6525 79.4612,64.7379 79.0802,64.7504 78.7833,64.6463 78.4173,64.7528 78.0583,64.7391 77.6777,64.6477 77.2527,64.8156 76.9649,64.7315 76.5793,64.6564 76.2154,64.8444 75.727,64.8595 75.425,64.7536 74.9867,64.8884 74.3628,64.7197 74.0323,64.8455 73.7249,65.0094 73.4056,64.8722 73.1591,65.0369 72.9006,65.0093 72.6931,65.0863 "
         class="fil2 str4"
         id="_38463760" />
      <polyline
         transform="translate(-26.322255,-1.2637742)"
         style="fill:#ffffff;stroke:#000000;stroke-width:0.11043831;stroke-linejoin:bevel"
         points="82.2025,67.0666 81.8759,67.0482 81.5112,66.8403 81.1323,66.9432 80.7392,66.8095 80.4239,66.6812 80.0305,66.7509 79.6487,66.6298 79.2536,66.7151 78.8599,66.7276 78.5532,66.6236 78.175,66.73 77.8041,66.7163 77.411,66.625 76.9719,66.7928 76.6745,66.7088 76.2761,66.6336 75.9001,66.8216 75.3956,66.8367 75.0836,66.7308 74.6308,66.8656 73.9862,66.697 73.6447,66.8227 73.3271,66.9867 72.9972,66.8495 72.7425,67.0141 72.4755,66.9865 72.2611,67.0636 "
         class="fil2 str4"
         id="_38462576" />
      <polyline
         transform="translate(-26.322255,-1.2637742)"
         style="fill:#ffffff;stroke:#000000;stroke-width:0.11043831;stroke-linejoin:bevel"
         points="82.2003,69.0562 81.8588,69.0378 81.4777,68.8299 81.0817,68.9328 80.6708,68.7992 80.3412,68.6709 79.93,68.7406 79.531,68.6194 79.118,68.7048 78.7065,68.7172 78.3859,68.6132 77.9907,68.7197 77.603,68.706 77.1921,68.6146 76.7331,68.7824 76.4223,68.6984 76.0059,68.6233 75.6129,68.8113 75.0856,68.8264 74.7595,68.7205 74.2862,68.8553 73.6124,68.6866 73.2555,68.8124 72.9235,68.9763 72.5787,68.8391 72.3126,69.0038 72.0335,68.9762 71.8094,69.0532 "
         class="fil2 str4"
         id="_38461392" />
      <polyline
         transform="translate(-26.322255,-1.2637742)"
         style="fill:#ffffff;stroke:#000000;stroke-width:0.11043831;stroke-linejoin:bevel"
         points="82.3058,70.9796 81.9441,70.9611 81.5402,70.7533 81.1206,70.8561 80.6853,70.7225 80.3361,70.5942 79.9004,70.6639 79.4777,70.5427 79.0401,70.6281 78.6041,70.6406 78.2644,70.5365 77.8457,70.643 77.4349,70.6293 76.9995,70.5379 76.5132,70.7058 76.1839,70.6217 75.7428,70.5466 75.3264,70.7346 74.7676,70.7497 74.4221,70.6438 73.9206,70.7786 73.2068,70.61 72.8286,70.7357 72.4769,70.8997 72.1116,70.7625 71.8295,70.9271 71.5339,70.8995 71.2964,70.9765 "
         class="fil2 str4"
         id="_38460208" />
      <polyline
         transform="translate(-26.322255,-1.2637742)"
         style="fill:#ffffff;stroke:#000000;stroke-width:0.11043831;stroke-linejoin:bevel"
         points="82.1804,73.2816 81.6245,73.2774 81.1885,73.0435 80.8457,73.1608 80.4112,73.0217 79.9601,72.8357 79.5602,72.8977 79.2966,72.7493 78.8434,72.8347 78.3919,72.8472 78.0401,72.7431 77.6063,72.8496 77.1809,72.8359 76.73,72.7445 76.2263,72.9124 75.8852,72.8283 75.4283,72.7532 74.9971,72.9412 74.4184,72.9563 74.0605,72.8504 73.5411,72.9852 72.8018,72.8165 72.4101,72.9423 72.0458,73.1063 71.6674,72.969 71.3753,73.1337 71.0691,73.1061 70.8232,73.1831 "
         class="fil2 str4"
         id="_38459024" />
      <polyline
         transform="translate(-26.322255,-1.2637742)"
         style="fill:#ffffff;stroke:#000000;stroke-width:0.11043831;stroke-linejoin:bevel"
         points="82.2322,75.5676 81.7875,75.445 81.3873,75.2262 80.9696,75.3072 80.4142,75.1735 79.9604,74.929 79.5072,75.0382 78.955,74.8941 78.7144,74.9368 78.235,74.9493 77.8615,74.8452 77.4009,74.9517 76.9492,74.938 76.4704,74.8466 75.9357,75.0144 75.5735,74.9304 75.0884,74.8553 74.6304,75.0433 74.016,75.0584 73.636,74.9525 73.0845,75.0873 72.2995,74.9186 71.8836,75.0444 71.4968,75.2083 71.0951,75.0711 70.7849,75.2358 70.4598,75.2082 70.1987,75.2852 "
         class="fil2 str4"
         id="_38457840" />
      <polyline
         transform="translate(-26.322255,-1.2637742)"
         style="fill:#ffffff;stroke:#000000;stroke-width:0.11043831;stroke-linejoin:bevel"
         points="83.5064,65.0343 83.8226,65.0159 84.1756,64.808 84.5423,64.9109 84.9228,64.7772 85.228,64.649 85.6088,64.7187 85.9783,64.5975 86.3608,64.6829 86.7418,64.6953 87.0387,64.5913 87.4047,64.6977 87.7637,64.6841 88.1443,64.5927 88.5693,64.7605 88.8571,64.6765 89.2427,64.6013 89.6066,64.7894 90.095,64.8045 90.397,64.6985 90.8353,64.8334 91.4592,64.6647 91.7897,64.7904 92.0971,64.9544 92.4164,64.8172 92.6629,64.9819 92.9213,64.9543 93.1289,65.0313 "
         class="fil2 str4"
         id="_38456656" />
      <polyline
         transform="translate(-26.322255,-1.2637742)"
         style="fill:#ffffff;stroke:#000000;stroke-width:0.11043831;stroke-linejoin:bevel"
         points="83.6195,67.0116 83.9461,66.9931 84.3107,66.7853 84.6897,66.8881 85.0828,66.7545 85.3981,66.6262 85.7915,66.6959 86.1732,66.5747 86.5684,66.6601 86.9621,66.6726 87.2688,66.5685 87.6469,66.675 88.0178,66.6613 88.411,66.5699 88.8501,66.7378 89.1475,66.6537 89.5458,66.5786 89.9218,66.7666 90.4264,66.7817 90.7384,66.6758 91.1912,66.8106 91.8358,66.642 92.1773,66.7677 92.4949,66.9317 92.8248,66.7945 93.0795,66.9591 93.3465,66.9315 93.5608,67.0085 "
         class="fil2 str4"
         id="_38455472" />
      <polyline
         transform="translate(-26.322255,-1.2637742)"
         style="fill:#ffffff;stroke:#000000;stroke-width:0.11043831;stroke-linejoin:bevel"
         points="83.6217,69.0012 83.9632,68.9828 84.3443,68.7749 84.7403,68.8778 85.1512,68.7441 85.4808,68.6158 85.892,68.6855 86.291,68.5644 86.704,68.6497 87.1155,68.6622 87.436,68.5582 87.8313,68.6646 88.219,68.6509 88.6299,68.5596 89.0889,68.7274 89.3997,68.6434 89.8161,68.5682 90.209,68.7563 90.7364,68.7714 91.0625,68.6654 91.5358,68.8002 92.2095,68.6316 92.5665,68.7573 92.8985,68.9213 93.2433,68.7841 93.5094,68.9488 93.7885,68.9212 94.0126,68.9982 "
         class="fil2 str4"
         id="_38454288" />
      <polyline
         transform="translate(-26.322255,-1.2637742)"
         style="fill:#ffffff;stroke:#000000;stroke-width:0.11043831;stroke-linejoin:bevel"
         points="83.5162,70.9245 83.8779,70.9061 84.2817,70.6982 84.7014,70.8011 85.1367,70.6675 85.4859,70.5392 85.9216,70.6089 86.3443,70.4877 86.7819,70.5731 87.2179,70.5856 87.5575,70.4815 87.9763,70.588 88.3871,70.5743 88.8225,70.4829 89.3087,70.6507 89.6381,70.5667 90.0792,70.4916 90.4956,70.6796 91.0543,70.6947 91.3999,70.5888 91.9014,70.7236 92.6152,70.5549 92.9934,70.6807 93.3451,70.8446 93.7104,70.7074 93.9924,70.8721 94.2881,70.8445 94.5255,70.9215 "
         class="fil2 str4"
         id="_38453072" />
      <polyline
         transform="translate(-26.322255,-1.2637742)"
         style="fill:#ffffff;stroke:#000000;stroke-width:0.11043831;stroke-linejoin:bevel"
         points="83.6416,73.2266 84.1975,73.2224 84.6334,72.9885 84.9763,73.1057 85.4108,72.9667 85.8619,72.7807 86.2618,72.8427 86.5254,72.6943 86.9786,72.7797 87.4301,72.7921 87.7819,72.6881 88.2157,72.7945 88.6411,72.7809 89.092,72.6895 89.5957,72.8573 89.9368,72.7733 90.3937,72.6981 90.8249,72.8862 91.4036,72.9013 91.7615,72.7953 92.2809,72.9302 93.0202,72.7615 93.4119,72.8872 93.7762,73.0512 94.1545,72.914 94.4466,73.0787 94.7529,73.0511 94.9988,73.1281 "
         class="fil2 str4"
         id="_38451888" />
      <polyline
         transform="translate(-26.322255,-1.2637742)"
         style="fill:#ffffff;stroke:#000000;stroke-width:0.11043831;stroke-linejoin:bevel"
         points="83.5898,75.5126 84.0345,75.39 84.4347,75.1711 84.8524,75.2521 85.4078,75.1185 85.8616,74.874 86.3148,74.9832 86.867,74.839 87.1075,74.8817 87.587,74.8942 87.9605,74.7902 88.421,74.8966 88.8728,74.8829 89.3516,74.7916 89.8863,74.9594 90.2485,74.8754 90.7336,74.8002 91.1915,74.9883 91.806,75.0034 92.186,74.8974 92.7375,75.0322 93.5225,74.8636 93.9384,74.9893 94.3252,75.1533 94.7269,75.0161 95.037,75.1808 95.3622,75.1532 95.6233,75.2302 "
         class="fil2 str4"
         id="_38450088" />
    </g>
    <g
       transform="matrix(0.59398962,-0.51493598,-0.41591604,-0.73540474,205.231,1032.5809)"
       id="g2063"
       style="fill:#078930;fill-opacity:1;stroke:#000000;stroke-width:1.2394011;stroke-miterlimit:4;stroke-opacity:1;stroke-dasharray:none;display:inline">
      <path
         style="fill:#078930;fill-opacity:1;fill-rule:evenodd;stroke:#000000;stroke-width:1.2394011;stroke-linecap:butt;stroke-linejoin:round;stroke-miterlimit:4;stroke-opacity:1;stroke-dasharray:none"
         d="m 109.00679,271.39783 -5.61196,7.85674 c 106.86406,22.08415 135.58326,32.24348 231.21267,33.67175 -87.48835,-10.24285 -148.6147,-20.54258 -225.60071,-41.52849 z"
         id="path3759"
         sodipodi:nodetypes="cccc" />
      <path
         style="fill:#078930;fill-opacity:1;fill-rule:evenodd;stroke:#000000;stroke-width:1.2394011;stroke-linecap:butt;stroke-linejoin:round;stroke-miterlimit:4;stroke-opacity:1;stroke-dasharray:none"
         d="m 138.18897,279.25457 c 72.71865,17.63585 135.12025,26.29048 197.54093,33.67175 -4.527,-2.89017 -8.2682,-5.97675 -16.8359,-7.85674 l 5.6801,-2.04053 c -6.3831,-1.41521 -13.0315,-2.63135 -23.5702,-0.92982 l 5.5438,-4.88639 c -12.814,0.68483 -23.9443,-2.2774 -35.91651,0 l 11.22391,-5.54387 c -12.24047,0.67061 -19.8862,-3.02929 -33.67174,2.24478 l 11.69709,-6.09682 c -18.40645,-4.07556 -33.01952,-6.54037 -46.42315,-4.93453 5.76064,-4.55951 5.824,-2.3993 13.12002,-4.46962 -12.18377,-1.2322 -22.58946,-6.7544 -36.75833,-0.2806 l 8.41794,-5.54386 c -13.209,-4.00102 -35.23816,-1.49473 -60.04796,6.66625 z"
         id="path4646"
         sodipodi:nodetypes="ccccccccccccccc" />
      <path
         style="fill:#078930;fill-opacity:1;fill-rule:evenodd;stroke:#000000;stroke-width:1.2394011;stroke-linecap:butt;stroke-linejoin:round;stroke-miterlimit:4;stroke-opacity:1;stroke-dasharray:none"
         d="m 139.87255,286.83072 c 10.84979,9.01855 22.26077,13.07613 33.11056,19.36125 l -3.36717,-6.73435 c 12.08919,9.71604 22.10497,12.17515 32.82996,17.11648 l -7.01495,-8.13735 c 8.32215,5.80354 17.31819,10.25931 26.37621,14.5911 l -1.68359,-5.61196 c 10.47565,4.89805 23.47669,6.25672 34.79414,7.85674 l -7.85674,-6.73435 c 20.45808,9.53984 41.37613,6.46093 60.32853,5.61196 L 302.9,320.78306 c 10.4757,1.57138 20.3901,0.15714 26.9374,-1.40298 l -5.0508,-2.80598 c 3.2254,-0.41375 5.9002,-0.59953 10.1015,-3.36718 -61.32651,-0.3704 -118.73399,-8.22791 -195.01555,-26.3762 z"
         id="path4648"
         sodipodi:nodetypes="ccccccccccccccc" />
    </g>
  </g>
</svg>
