<?xml version="1.0" encoding="UTF-8" standalone="no"?>
<!-- Created with Inkscape (http://www.inkscape.org/) -->
<svg
   xmlns:dc="http://purl.org/dc/elements/1.1/"
   xmlns:cc="http://creativecommons.org/ns#"
   xmlns:rdf="http://www.w3.org/1999/02/22-rdf-syntax-ns#"
   xmlns:svg="http://www.w3.org/2000/svg"
   xmlns="http://www.w3.org/2000/svg"
   xmlns:sodipodi="http://sodipodi.sourceforge.net/DTD/sodipodi-0.dtd"
   xmlns:inkscape="http://www.inkscape.org/namespaces/inkscape"
   width="750"
   height="500"
   id="svg2"
   version="1.1"
   inkscape:version="0.46"
   sodipodi:docname="Flag_of_Yopal_(Casanare).svg"
   sodipodi:version="0.32"
   inkscape:output_extension="org.inkscape.output.svg.inkscape">
  <defs
     id="defs4" />
  <sodipodi:namedview
     id="base"
     pagecolor="#ffffff"
     bordercolor="#666666"
     borderopacity="1.0"
     inkscape:pageopacity="0.0"
     inkscape:pageshadow="2"
     inkscape:zoom="1.014"
     inkscape:cx="375"
     inkscape:cy="250"
     inkscape:document-units="px"
     inkscape:current-layer="layer1"
     showgrid="false"
     inkscape:window-width="1024"
     inkscape:window-height="712"
     inkscape:window-x="-4"
     inkscape:window-y="-4"
     inkscape:window-maximized="1" />
  <metadata
     id="metadata7">
    <rdf:RDF>
      <cc:Work
         rdf:about="">
        <dc:format>image/svg+xml</dc:format>
        <dc:type
           rdf:resource="http://purl.org/dc/dcmitype/StillImage" />
        <dc:title />
      </cc:Work>
    </rdf:RDF>
  </metadata>
  <g
     inkscape:label="Capa 1"
     inkscape:groupmode="layer"
     id="layer1"
     transform="translate(0,-552.36218)">
    <rect
       style="fill:#ffffff;fill-opacity:1;stroke:none"
       id="rect2816"
       width="750"
       height="166.666"
       x="0"
       y="-885.69617"
       transform="scale(1,-1)" />
    <g
       id="g3163"
       transform="matrix(1.0201505,0,0,1.0201505,-9.5450745,-17.83817)">
      <path
         sodipodi:nodetypes="ccccccccccccccccccccccccccccc"
         style="fill:#fcdd09;fill-opacity:1;stroke:none;stroke-width:1.65076137;stroke-linecap:round;stroke-miterlimit:4;stroke-dasharray:none;stroke-opacity:1"
         id="path2390"
         d="M 376.77679,722.14193 L 365.92664,826.05633 C 362.75095,826.58574 359.65046,827.34109 356.66433,828.34986 L 337.78683,838.75894 C 335.27517,840.82336 332.96365,843.11078 330.81804,845.55131 L 319.70326,864.07594 C 318.39629,867.55695 317.4346,871.17258 316.79225,874.92608 L 231.57892,884.80589 L 316.70403,894.6857 C 317.29015,898.33123 318.13701,901.87657 319.35041,905.2712 L 329.8477,923.44299 C 332.32204,926.40313 335.05733,929.12399 338.05147,931.55855 L 357.01718,941.96763 C 359.94897,942.93715 362.99079,943.66409 366.10306,944.17294 L 376.95321,1048.352 L 387.80335,943.73189 C 390.78317,943.12605 393.64665,942.38096 396.44818,941.35015 L 415.14925,930.14715 C 417.51921,928.07677 419.74631,925.85825 421.76519,923.44299 L 432.26249,905.2712 C 433.47588,901.87657 434.32274,898.33124 434.90887,894.6857 L 520.03398,884.80589 L 434.82065,874.92608 C 434.24821,871.58105 433.36578,868.35433 432.26249,865.22271 L 421.32413,846.1688 C 419.44156,843.96825 417.41601,841.90124 415.23746,839.99392 L 396.44818,828.87913 C 393.55435,827.81259 390.62237,826.93334 387.53871,826.32097 L 376.77679,722.14193 z" />
      <path
         sodipodi:nodetypes="ccccccccccccccccccccccccccccc"
         d="M 350.42259,830.92189 C 347.50516,832.28348 344.72077,833.84257 342.11451,835.61513 L 260.21162,770.32592 L 326.71957,850.70502 C 324.85348,853.36734 323.23999,856.19082 321.82739,859.11733 L 316.08706,879.94397 C 315.7614,883.64795 315.80447,887.38905 316.19215,891.17733 L 321.40574,910.23695 C 322.94794,913.5918 324.71447,916.7802 326.79371,919.72514 L 272.53997,984.36365 L 341.77935,934.41656 C 344.95683,936.60479 348.32156,938.49252 351.85887,940.03505 L 372.9212,944.97723 C 376.0056,945.12508 379.13095,945.00973 382.26569,944.66538 L 403.05297,938.42152 C 405.7612,937.03883 408.32002,935.55317 410.74254,933.80888 L 493.45321,999.69739 L 425.75461,918.00145 C 427.4826,915.37139 429.03324,912.63691 430.33052,909.76875 L 435.57058,889.4476 C 435.82926,885.85192 435.69442,882.20934 435.28153,878.54014 L 429.89797,859.52784 C 428.44952,856.45882 426.73416,853.5869 424.83153,850.86581 L 490.90396,767.82924 L 409.18443,835.44286 C 406.78073,833.82772 404.27508,832.37956 401.66487,831.12627 L 380.58326,825.45691 C 377.50942,825.20542 374.44905,825.14459 371.31412,825.38153 L 350.42259,830.92189 z"
         id="path3161"
         style="fill:#fcdd09;fill-opacity:1;stroke:none;stroke-width:1.65076137;stroke-linecap:round;stroke-miterlimit:4;stroke-dasharray:none;stroke-opacity:1" />
    </g>
    <rect
       style="fill:#fcdd09;fill-opacity:1;stroke:none"
       id="rect2818"
       width="750"
       height="166.666"
       x="0"
       y="-719.0282"
       transform="scale(1,-1)" />
    <rect
       style="fill:#078930;fill-opacity:1;stroke:none"
       id="rect2820"
       width="750"
       height="166.666"
       x="0"
       y="885.69617" />
  </g>
</svg>
