<?xml version="1.0" encoding="UTF-8" standalone="no"?>
<!-- Created with Inkscape (http://www.inkscape.org/) -->
<svg
   xmlns:dc="http://purl.org/dc/elements/1.1/"
   xmlns:cc="http://creativecommons.org/ns#"
   xmlns:rdf="http://www.w3.org/1999/02/22-rdf-syntax-ns#"
   xmlns:svg="http://www.w3.org/2000/svg"
   xmlns="http://www.w3.org/2000/svg"
   xmlns:sodipodi="http://sodipodi.sourceforge.net/DTD/sodipodi-0.dtd"
   xmlns:inkscape="http://www.inkscape.org/namespaces/inkscape"
   width="750"
   height="500"
   id="svg2"
   version="1.0"
   inkscape:version="0.46"
   sodipodi:docname="Flag_of_San_Juan de Betulia_(Sucre).svg"
   sodipodi:version="0.32"
   inkscape:output_extension="org.inkscape.output.svg.inkscape">
  <defs
     id="defs4" />
  <sodipodi:namedview
     id="base"
     pagecolor="#ffffff"
     bordercolor="#666666"
     borderopacity="1.0"
     inkscape:pageopacity="0.0"
     inkscape:pageshadow="2"
     inkscape:zoom="1.014"
     inkscape:cx="375"
     inkscape:cy="250"
     inkscape:document-units="px"
     inkscape:current-layer="layer1"
     showgrid="false"
     inkscape:window-width="1024"
     inkscape:window-height="712"
     inkscape:window-x="-4"
     inkscape:window-y="-4"
     inkscape:window-maximized="1" />
  <metadata
     id="metadata7">
    <rdf:RDF>
      <cc:Work
         rdf:about="">
        <dc:format>image/svg+xml</dc:format>
        <dc:type
           rdf:resource="http://purl.org/dc/dcmitype/StillImage" />
        <dc:title />
      </cc:Work>
    </rdf:RDF>
  </metadata>
  <g
     inkscape:label="Capa 1"
     inkscape:groupmode="layer"
     id="layer1"
     transform="translate(0,-552.36218)">
    <rect
       style="fill:#078930;fill-opacity:1;stroke:none"
       id="rect2816"
       width="750"
       height="250"
       x="0"
       y="-1052.3622"
       transform="scale(1,-1)" />
    <rect
       style="fill:#ffffff;fill-opacity:1;stroke:none"
       id="rect2818"
       width="750"
       height="250"
       x="0"
       y="-802.36218"
       transform="scale(1,-1)" />
    <path
       sodipodi:type="star"
       style="opacity:1;fill:#fcdd09;fill-opacity:1;stroke:none;stroke-width:0.30000000999999998;stroke-linejoin:round;stroke-miterlimit:4;stroke-dasharray:none;stroke-dashoffset:0;stroke-opacity:1"
       id="path2382"
       sodipodi:sides="8"
       sodipodi:cx="135.10847"
       sodipodi:cy="314.59567"
       sodipodi:r1="58.576893"
       sodipodi:r2="26.524862"
       sodipodi:arg1="0.78539816"
       sodipodi:arg2="1.1815495"
       inkscape:flatsided="false"
       inkscape:rounded="0"
       inkscape:randomized="0"
       d="M 176.52859,356.01579 L 145.17444,339.13635 L 135.10847,373.17257 L 124.87331,339.06626 L 93.688357,356.01579 L 110.5678,324.66164 L 76.531582,314.59567 L 110.63789,304.36051 L 93.688356,273.17555 L 125.04251,290.055 L 135.10847,256.01878 L 145.34364,290.12508 L 176.52859,273.17555 L 159.64915,304.52971 L 193.68537,314.59567 L 159.57906,324.83084 L 176.52859,356.01579 z"
       transform="matrix(1.771561,0,0,1.771561,378.99029,373.735)" />
    <path
       sodipodi:type="arc"
       style="opacity:1;fill:none;fill-opacity:1;stroke:#000000;stroke-width:2;stroke-linejoin:round;stroke-miterlimit:4;stroke-dasharray:none;stroke-dashoffset:0;stroke-opacity:1"
       id="path3154"
       sodipodi:cx="162.72189"
       sodipodi:cy="240.63116"
       sodipodi:rx="101.57791"
       sodipodi:ry="101.57791"
       d="M 264.2998,240.63116 A 101.57791,101.57791 0 1 1 61.143982,240.63116 A 101.57791,101.57791 0 1 1 264.2998,240.63116 z"
       transform="translate(-33.530572,437.96376)" />
    <path
       transform="matrix(0.81,0,0,0.81,-2.6134126,483.68368)"
       d="M 264.2998,240.63116 A 101.57791,101.57791 0 1 1 61.143982,240.63116 A 101.57791,101.57791 0 1 1 264.2998,240.63116 z"
       sodipodi:ry="101.57791"
       sodipodi:rx="101.57791"
       sodipodi:cy="240.63116"
       sodipodi:cx="162.72189"
       id="path3156"
       style="opacity:1;fill:none;fill-opacity:1;stroke:#000000;stroke-width:2.4691358;stroke-linejoin:round;stroke-miterlimit:4;stroke-dasharray:none;stroke-dashoffset:0;stroke-opacity:1"
       sodipodi:type="arc" />
    <g
       transform="matrix(1.2312902,-5.2106879e-2,5.2106879e-2,1.2312902,-183.45489,129.16928)"
       id="g3183"
       inkscape:label="Capa 1">
      <g
         transform="matrix(8.5541951e-2,-0.1872797,-0.1872797,-8.5541951e-2,247.3175,529.69399)"
         id="g3375"
         inkscape:label="Calque2"
         style="display:inline">
        <g
           id="g3377"
           transform="translate(-50.555636,-401.21212)">
          <g
             id="g3379">
            <path
               sodipodi:nodetypes="ccsccccccscscccsscccssccccccccsssscscccccscccccccccccccc"
               id="path3381"
               d="M 338.577,650.334 C 342.848,641.195 345.087,630.337 348.05,619.896 C 350.93,609.739 354.391,599.539 356.842,589.458 C 359.329,579.229 360.113,569.734 364.283,559.024 C 366.745,552.691 371.688,537.659 379.164,536.024 C 400.962,531.259 394.631,562.899 392.016,576.608 C 389.807,588.159 388.829,599.856 387.281,609.751 C 383.404,634.515 378.999,652.839 375.783,673.327 C 381.279,672.816 385.343,667.499 389.308,663.183 C 393.246,658.902 397.81,654.861 401.483,650.332 C 409.123,640.914 417.986,631.619 423.805,622.6 C 428.146,615.87 430.953,605.658 441.389,606.368 C 445.883,606.674 451.481,611.668 452.213,617.866 C 453.343,627.46 444.404,638.805 440.037,646.274 C 435.717,653.665 430.007,665.213 425.156,671.299 C 420.628,676.983 413.523,681.916 410.278,687.532 C 408.796,690.094 407.559,694.221 406.219,697.678 C 404.992,700.838 403.077,704.189 402.158,707.147 C 398.832,717.896 397.555,731.113 395.397,742.996 C 394.325,748.891 393.168,754.745 392.015,760.582 C 390.832,766.553 390.268,773.207 388.631,778.168 C 387.04,782.99 382.67,788.018 382.544,793.049 C 382.325,801.762 398.12802,915.35692 399.06002,921.71092 C 361.35382,930.53646 338.5794,926.23988 312.69572,924.67574 C 306.76272,919.52674 281.055,831.238 275.677,825.513 C 273.015,822.675 266.452,820.132 262.826,817.397 C 254.598,811.185 245.52,800.506 236.447,790.341 C 227.829,780.684 213.862,772.361 208.042,761.933 C 203.343,753.518 202.355,744.335 197.894,736.906 C 194.421,731.129 189.158,726.822 185.043,721.35 C 182.831,718.406 181.73,714.785 179.631,711.879 C 176.604,707.692 171.423,703.136 166.106,698.354 C 161.181,693.923 153.082,688.767 152.579,684.827 C 151.179,673.857 168.218,670.493 180.31,671.976 C 187.337,672.837 200.668,678.38 205.336,682.796 C 209.279,686.529 209.027,692.112 211.423,697.001 C 213.226,700.676 217.051,703.817 221.569,707.822 C 224.171,710.134 230.266,716.112 234.418,715.938 C 240.303,715.697 250.168,701.713 252.004,694.973 C 255.172,683.335 254.038,667.68 252.004,654.389 C 250.183,642.481 246.396,630.703 244.566,618.541 C 242.67,605.977 241.388,594.309 239.153,580.664 C 237.23,568.92 232.083,552.134 235.093,542.787 C 237.19,536.281 248.521,528.44 257.415,533.994 C 262.72,537.305 264.353,552.69 266.882,561.049 C 270.153,571.856 273.546,582.239 275.001,588.779 C 278.243,603.367 280.544,618.118 285.147,632.744 C 286.426,636.82 287.512,641.834 291.234,644.242 C 295.881,641.455 295.663,635.272 296.646,630.039 C 299.526,614.734 299.991,596.691 302.055,577.959 C 303.916,561.088 306.934,544.096 308.142,526.554 C 309.094,512.774 310.085,504.362 320.996,500.852 C 326.299,499.145 334.622,504.177 336.553,509.645 C 337.641,512.736 337.663,518.786 337.902,523.85 C 339.396,555.168 333.9,595.463 333.846,625.305 C 333.827,634.191 335.427,642.99 338.577,650.334 z"
               style="fill:#a05a2c;fill-opacity:1;stroke:#000000;stroke-width:2.42846942;stroke-miterlimit:4;stroke-dasharray:none" />
          </g>
          <path
             d="M 170.209,701.361 C 171.531,697.489 175.27,692.176 171.715,688.332 C 169.406,685.833 166.572,682.483 164.264,679.987 C 162.88,678.49 159.932,676.723 158.546,675.223"
             sodipodi:nodetypes="cssc"
             id="path3383"
             style="fill:none;stroke:#000000" />
          <path
             d="M 235.259,547.092 C 234.676,543.46 238.144,556.705 238.729,560.335 C 240.738,566.589 247.129,568.072 253.098,567.172 C 255.834,566.828 262.764,561.089 261.872,555.981 C 261.654,554.621 260.274,543.736 260.672,542.519"
             sodipodi:nodetypes="ccccc"
             id="path3385"
             style="fill:none;stroke:#000000" />
          <path
             d="M 310.069,513.524 C 310.069,509.758 311.553,524.25 312.472,527.645 C 315.716,532.879 318.455,533.516 324.037,533.372 C 329.387,533.372 331.266,531.827 333.264,527.831 C 334.483,525.393 335.726,515.089 337.048,512.438"
             sodipodi:nodetypes="cccsc"
             id="path3387"
             style="fill:none;stroke:#000000" />
          <path
             d="M 371.793,542.996 C 373.574,540.657 370.303,556.039 371.885,558.528 C 372.114,564.33 375.141,565.836 378.136,566.947 C 381.251,567.613 388.78,563.884 389.516,561.025 C 390.349,557.783 392.806,548.309 393.768,547.222"
             sodipodi:nodetypes="cccsc"
             id="path3389"
             style="fill:none;stroke:#000000" />
          <path
             d="M 433.313,608.805 C 435.508,605.34 430.435,614.135 429.102,618.212 C 427.669,622.598 428.913,628.289 431.832,631.719 C 437.92,634.994 441.04,635.597 445.648,629.418 C 446.473,628.12 451.675,621.889 452.5,620.588"
             sodipodi:nodetypes="csccc"
             id="path3391"
             style="fill:none;stroke:#000000" />
        </g>
      </g>
      <g
         transform="matrix(9.909987e-2,0.1804724,0.1804724,-9.909987e-2,177.94855,440.03864)"
         id="layer5"
         inkscape:label="Calque2"
         style="display:inline">
        <g
           id="g328"
           transform="matrix(0.9629736,0.2695958,-0.2695958,0.9629736,153.82596,-466.08046)">
          <g
             id="g330">
            <path
               sodipodi:nodetypes="ccsccccccscscccsscccssccccccccsssscscccccscccccccccccccc"
               id="path332"
               d="M 338.577,650.334 C 342.848,641.195 345.087,630.337 348.05,619.896 C 350.93,609.739 354.391,599.539 356.842,589.458 C 359.329,579.229 360.113,569.734 364.283,559.024 C 366.745,552.691 371.688,537.659 379.164,536.024 C 400.962,531.259 394.631,562.899 392.016,576.608 C 389.807,588.159 388.829,599.856 387.281,609.751 C 383.404,634.515 378.999,652.839 375.783,673.327 C 381.279,672.816 385.343,667.499 389.308,663.183 C 393.246,658.902 397.81,654.861 401.483,650.332 C 409.123,640.914 417.986,631.619 423.805,622.6 C 428.146,615.87 430.953,605.658 441.389,606.368 C 445.883,606.674 451.481,611.668 452.213,617.866 C 453.343,627.46 444.404,638.805 440.037,646.274 C 435.717,653.665 430.007,665.213 425.156,671.299 C 420.628,676.983 413.523,681.916 410.278,687.532 C 408.796,690.094 407.559,694.221 406.219,697.678 C 404.992,700.838 403.077,704.189 402.158,707.147 C 398.832,717.896 397.555,731.113 395.397,742.996 C 394.325,748.891 393.168,754.745 392.015,760.582 C 390.832,766.553 390.268,773.207 388.631,778.168 C 387.04,782.99 382.67,788.018 382.544,793.049 C 382.325,801.762 395.8193,896.07413 396.7513,902.42813 C 370.61287,916.08043 349.48553,934.43267 313.43144,938.78503 C 307.49844,933.63603 281.055,831.238 275.677,825.513 C 273.015,822.675 266.452,820.132 262.826,817.397 C 254.598,811.185 245.52,800.506 236.447,790.341 C 227.829,780.684 213.862,772.361 208.042,761.933 C 203.343,753.518 202.355,744.335 197.894,736.906 C 194.421,731.129 189.158,726.822 185.043,721.35 C 182.831,718.406 181.73,714.785 179.631,711.879 C 176.604,707.692 171.423,703.136 166.106,698.354 C 161.181,693.923 153.082,688.767 152.579,684.827 C 151.179,673.857 168.218,670.493 180.31,671.976 C 187.337,672.837 200.668,678.38 205.336,682.796 C 209.279,686.529 209.027,692.112 211.423,697.001 C 213.226,700.676 217.051,703.817 221.569,707.822 C 224.171,710.134 230.266,716.112 234.418,715.938 C 240.303,715.697 250.168,701.713 252.004,694.973 C 255.172,683.335 254.038,667.68 252.004,654.389 C 250.183,642.481 246.396,630.703 244.566,618.541 C 242.67,605.977 241.388,594.309 239.153,580.664 C 237.23,568.92 232.083,552.134 235.093,542.787 C 237.19,536.281 248.521,528.44 257.415,533.994 C 262.72,537.305 264.353,552.69 266.882,561.049 C 270.153,571.856 273.546,582.239 275.001,588.779 C 278.243,603.367 280.544,618.118 285.147,632.744 C 286.426,636.82 287.512,641.834 291.234,644.242 C 295.881,641.455 295.663,635.272 296.646,630.039 C 299.526,614.734 299.991,596.691 302.055,577.959 C 303.916,561.088 306.934,544.096 308.142,526.554 C 309.094,512.774 310.085,504.362 320.996,500.852 C 326.299,499.145 334.622,504.177 336.553,509.645 C 337.641,512.736 337.663,518.786 337.902,523.85 C 339.396,555.168 333.9,595.463 333.846,625.305 C 333.827,634.191 335.427,642.99 338.577,650.334 z"
               style="fill:#f7d5ad;fill-opacity:1;stroke:#000000;stroke-width:2.42846942;stroke-miterlimit:4;stroke-dasharray:none" />
          </g>
          <path
             d="M 170.209,701.361 C 171.531,697.489 175.27,692.176 171.715,688.332 C 169.406,685.833 166.572,682.483 164.264,679.987 C 162.88,678.49 159.932,676.723 158.546,675.223"
             sodipodi:nodetypes="cssc"
             id="path3080_1_"
             style="fill:none;stroke:#000000" />
          <path
             d="M 235.259,547.092 C 234.676,543.46 238.144,556.705 238.729,560.335 C 240.738,566.589 247.129,568.072 253.098,567.172 C 255.834,566.828 262.764,561.089 261.872,555.981 C 261.654,554.621 260.274,543.736 260.672,542.519"
             sodipodi:nodetypes="ccccc"
             id="path3082_1_"
             style="fill:none;stroke:#000000" />
          <path
             d="M 310.069,513.524 C 310.069,509.758 311.553,524.25 312.472,527.645 C 315.716,532.879 318.455,533.516 324.037,533.372 C 329.387,533.372 331.266,531.827 333.264,527.831 C 334.483,525.393 335.726,515.089 337.048,512.438"
             sodipodi:nodetypes="cccsc"
             id="path3084_1_"
             style="fill:none;stroke:#000000" />
          <path
             d="M 371.793,542.996 C 373.574,540.657 370.303,556.039 371.885,558.528 C 372.114,564.33 375.141,565.836 378.136,566.947 C 381.251,567.613 388.78,563.884 389.516,561.025 C 390.349,557.783 392.806,548.309 393.768,547.222"
             sodipodi:nodetypes="cccsc"
             id="path3086_1_"
             style="fill:none;stroke:#000000" />
          <path
             d="M 433.313,608.805 C 435.508,605.34 430.435,614.135 429.102,618.212 C 427.669,622.598 428.913,628.289 431.832,631.719 C 437.92,634.994 441.04,635.597 445.648,629.418 C 446.473,628.12 451.675,621.889 452.5,620.588"
             sodipodi:nodetypes="csccc"
             id="path3088_1_"
             style="fill:none;stroke:#000000" />
        </g>
      </g>
    </g>
  </g>
</svg>
