<?xml version="1.0" encoding="UTF-8" standalone="no"?>
<!-- Created with Inkscape (http://www.inkscape.org/) -->

<svg
   xmlns:dc="http://purl.org/dc/elements/1.1/"
   xmlns:cc="http://creativecommons.org/ns#"
   xmlns:rdf="http://www.w3.org/1999/02/22-rdf-syntax-ns#"
   xmlns:svg="http://www.w3.org/2000/svg"
   xmlns="http://www.w3.org/2000/svg"
   xmlns:sodipodi="http://sodipodi.sourceforge.net/DTD/sodipodi-0.dtd"
   xmlns:inkscape="http://www.inkscape.org/namespaces/inkscape"
   width="750"
   height="500"
   id="svg2822"
   version="1.1"
   inkscape:version="0.91 r13725"
   sodipodi:docname="Flag of San Sebastián (Cauca).svg"
   sodipodi:version="0.32"
   inkscape:output_extension="org.inkscape.output.svg.inkscape">
  <defs
     id="defs2824" />
  <sodipodi:namedview
     id="base"
     pagecolor="#ffffff"
     bordercolor="#666666"
     borderopacity="1.0"
     inkscape:pageopacity="0.0"
     inkscape:pageshadow="2"
     inkscape:zoom="0.57398594"
     inkscape:cx="375"
     inkscape:cy="148.23936"
     inkscape:document-units="px"
     inkscape:current-layer="layer1"
     showgrid="false"
     inkscape:window-width="1280"
     inkscape:window-height="961"
     inkscape:window-x="-8"
     inkscape:window-y="-8"
     inkscape:window-maximized="1" />
  <metadata
     id="metadata2827">
    <rdf:RDF>
      <cc:Work
         rdf:about="">
        <dc:format>image/svg+xml</dc:format>
        <dc:type
           rdf:resource="http://purl.org/dc/dcmitype/StillImage" />
        <dc:title></dc:title>
      </cc:Work>
    </rdf:RDF>
  </metadata>
  <g
     inkscape:label="Capa 1"
     inkscape:groupmode="layer"
     id="layer1"
     transform="translate(0,-552.36218)">
    <rect
       style="fill:#078930;fill-opacity:1;stroke:none"
       id="rect2834-8-0"
       width="750"
       height="100"
       x="0"
       y="-1052.3622"
       transform="scale(1,-1)" />
    <rect
       style="fill:#ffffff;fill-opacity:1;stroke:none"
       id="rect2834-8-2"
       width="750"
       height="100"
       x="0"
       y="-952.36218"
       transform="scale(1,-1)" />
    <rect
       style="fill:#078930;fill-opacity:1;stroke:none"
       id="rect2834-8"
       width="750"
       height="100"
       x="0"
       y="-852.36218"
       transform="scale(1,-1)" />
    <rect
       style="fill:#078930;fill-opacity:1;stroke:none"
       id="rect2834"
       width="750"
       height="100"
       x="0"
       y="-652.36218"
       transform="scale(1,-1)" />
    <rect
       style="fill:#ffffff;fill-opacity:1;stroke:none"
       id="rect2834-6"
       width="750"
       height="100"
       x="0"
       y="-752.36218"
       transform="scale(1,-1)" />
    <g
       id="Elementos"
       transform="translate(777.14317,1015.4478)">
      <metadata
         id="CorelCorpID_1Corel-Layer" />
      <g
         id="layer6_12" />
      <g
         id="Capa_x0020_1"
         transform="translate(-216.7271,326.27794)">
        <metadata
           id="CorelCorpID_1Corel-Layer-1" />
        <sodipodi:namedview
           pagecolor="#ffffff"
           bordercolor="#666666"
           borderopacity="1.0"
           gridtolerance="10000"
           guidetolerance="10"
           objecttolerance="10"
           inkscape:pageopacity="0.0"
           inkscape:pageshadow="2"
           inkscape:zoom="0.45254834"
           inkscape:cx="529.77215"
           inkscape:cy="286.86274"
           inkscape:document-units="px"
           inkscape:current-layer="layer6"
           inkscape:window-width="1280"
           inkscape:window-height="753"
           inkscape:window-x="-4"
           inkscape:window-y="-4"
           showguides="true"
           showgrid="false"
           inkscape:guide-bbox="true"
           width="549.99969px"
           height="975px"
           id="base-5" />
        <g
           inkscape:groupmode="layer"
           inkscape:label="Timbre"
           id="layer3" />
        <g
           inkscape:groupmode="layer"
           inkscape:label="Escudo"
           id="layer1-2" />
        <g
           inkscape:groupmode="layer"
           inkscape:label="Piezas"
           id="layer4" />
        <g
           inkscape:groupmode="layer"
           inkscape:label="Muebles"
           id="layer5" />
        <g
           inkscape:groupmode="layer"
           inkscape:label="Ornamento"
           id="layer2" />
        <g
           inkscape:label="Piezas"
           id="g5818" />
        <g
           inkscape:label="Muebles"
           id="g5820" />
        <g
           inkscape:label="Ornamentos"
           id="g5822" />
        <g
           inkscape:label="Escudo"
           id="g5438" />
        <g
           inkscape:label="Piezas"
           id="g5440" />
        <g
           inkscape:label="Ornamento"
           id="g5559" />
        <g
           inkscape:label="Borde 3px"
           id="g5561" />
      </g>
    </g>
    <path
       style="fill:#89c5e3;fill-opacity:1;stroke:none;stroke-width:0.5;stroke-linejoin:round;stroke-miterlimit:4;stroke-dashoffset:0;stroke-opacity:1"
       d="m 525,802.36219 -300,0 C 225,719.56218 292.2,652.36218 374.99999,652.36218 457.8,652.36218 525,719.56218 525,802.36219 Z"
       id="path3358"
       sodipodi:nodetypes="ccsc"
       inkscape:connector-curvature="0" />
    <g
       transform="matrix(0.42778124,0,0,0.42778124,159.9469,415.75957)"
       id="g3192"
       inkscape:label="Capa 1"
       style="stroke:none">
      <path
         transform="matrix(1.6015043,0,0,1.5930656,-199.85739,467.45527)"
         d="m 472,425.99999 -26.54318,-72.02347 -11.08915,75.95361 -8.53554,-76.28279 -28.94381,71.09273 9.96816,-76.10884 -45.11637,62.1002 27.89255,-71.51173 -58.66692,49.49863 44.19591,-62.7586 -68.80795,34.02038 57.93077,-50.35818 -74.95013,16.56499 68.29891,-35.03112 -76.73648,-1.8531 74.69777,-17.66818 -74.06318,-20.1635 76.75545,0.72157 -67.0856,-37.30206 74.3524,19.06939 -56.20924,-52.27276 67.62825,36.30895 -42.06622,-64.20556 56.97379,51.43838 -25.47844,-72.40697 43.00822,63.5784 L 402,120.00001 l 26.54318,72.02347 11.08915,-75.95361 8.53554,76.28279 28.94381,-71.09273 -9.96816,76.10884 45.11637,-62.1002 -27.89255,71.51173 58.66692,-49.49863 -44.19591,62.7586 68.80795,-34.02038 -57.93077,50.35818 74.95013,-16.56499 -68.29891,35.03112 76.73648,1.8531 -74.69777,17.66818 74.06318,20.1635 -76.75545,-0.72157 67.0856,37.30206 -74.3524,-19.06939 56.20924,52.27276 -67.62825,-36.30895 42.06622,64.20556 -56.97379,-51.43838 25.47844,72.40697 -43.00822,-63.5784 z"
         inkscape:randomized="0"
         inkscape:rounded="3.469447e-018"
         inkscape:flatsided="false"
         sodipodi:arg2="1.4667381"
         sodipodi:arg1="1.3459077"
         sodipodi:r2="81.416916"
         sodipodi:r1="156.95221"
         sodipodi:cy="273"
         sodipodi:cx="437"
         sodipodi:sides="26"
         id="path4545"
         style="fill:#fcdd09;fill-opacity:1;stroke:none"
         sodipodi:type="star" />
    </g>
    <path
       style="fill:#aa8800;fill-opacity:1;stroke:none;stroke-width:0.5;stroke-linejoin:round;stroke-miterlimit:4;stroke-dashoffset:0;stroke-opacity:1"
       d="m 525,802.36218 c 0,82.8 -67.2,150 -150.00001,150 -82.79999,0 -149.99999,-67.2 -149.99999,-150 l 73.20685,-33.204 71.91152,26.5631 78.31387,-32.3352 L 525,802.36218 Z"
       id="path3354-0"
       sodipodi:nodetypes="csccccc"
       inkscape:connector-curvature="0" />
    <path
       style="fill:#0b3583;fill-opacity:1;stroke:none;stroke-width:0.5;stroke-linejoin:round;stroke-miterlimit:4;stroke-dashoffset:0;stroke-opacity:1"
       d="m 375.0293,242.16992 c -1.43766,0.49537 -2.18116,1.20068 -3.68555,1.14258 -0.17008,-0.0879 -0.2806,-0.19466 -0.36523,-0.30859 l -0.85938,0.35547 -2.14258,-0.79102 c -3.98894,7.18858 -18.20013,35.84118 -14.81735,45.48414 5.85564,16.69206 5.3528,29.69612 12.65524,44.7932 9.86786,20.40084 -7.97526,47.55488 -24.32617,56.00586 -6.398,3.30682 -16.31301,-0.40141 -24.00781,-0.29687 12.28591,5.11044 25.39476,8.63452 39.07226,10.31445 55.71422,-20.54888 26.22456,-74.75957 13.31641,-114.78906 -5.73791,-17.79385 9.8527,-28.64326 5.16016,-41.91016 z"
       transform="translate(0,552.36218)"
       id="path3354"
       inkscape:connector-curvature="0"
       sodipodi:nodetypes="cccccsssccsc" />
  </g>
</svg>
