<?xml version="1.0" encoding="UTF-8" standalone="no"?>
<!-- Created with Inkscape (http://www.inkscape.org/) -->
<svg
   xmlns:dc="http://purl.org/dc/elements/1.1/"
   xmlns:cc="http://creativecommons.org/ns#"
   xmlns:rdf="http://www.w3.org/1999/02/22-rdf-syntax-ns#"
   xmlns:svg="http://www.w3.org/2000/svg"
   xmlns="http://www.w3.org/2000/svg"
   xmlns:sodipodi="http://sodipodi.sourceforge.net/DTD/sodipodi-0.dtd"
   xmlns:inkscape="http://www.inkscape.org/namespaces/inkscape"
   width="1000"
   height="500"
   id="svg2"
   sodipodi:version="0.32"
   inkscape:version="0.46"
   version="1.0"
   sodipodi:docname="Flag of San José del Guaviare.svg"
   inkscape:output_extension="org.inkscape.output.svg.inkscape">
  <defs
     id="defs4" />
  <sodipodi:namedview
     id="base"
     pagecolor="#ffffff"
     bordercolor="#666666"
     borderopacity="1.0"
     gridtolerance="10000"
     guidetolerance="10"
     objecttolerance="10"
     inkscape:pageopacity="0.0"
     inkscape:pageshadow="2"
     inkscape:zoom="0.928"
     inkscape:cx="500"
     inkscape:cy="250"
     inkscape:document-units="px"
     inkscape:current-layer="layer1"
     showgrid="false"
     inkscape:window-width="1024"
     inkscape:window-height="712"
     inkscape:window-x="-4"
     inkscape:window-y="-4" />
  <metadata
     id="metadata7">
    <rdf:RDF>
      <cc:Work
         rdf:about="">
        <dc:format>image/svg+xml</dc:format>
        <dc:type
           rdf:resource="http://purl.org/dc/dcmitype/StillImage" />
      </cc:Work>
    </rdf:RDF>
  </metadata>
  <g
     inkscape:label="Layer 1"
     inkscape:groupmode="layer"
     id="layer1">
    <rect
       style="opacity:1;fill:#ffffff;fill-opacity:1;stroke:none;stroke-width:1;stroke-linejoin:round;stroke-miterlimit:4;stroke-dasharray:none;stroke-dashoffset:0;stroke-opacity:1"
       id="rect3179"
       width="415.94827"
       height="198.27586"
       x="0"
       y="168.10345" />
    <path
       style="fill:#89c5e3;fill-opacity:1;stroke:none;stroke-width:1;stroke-linejoin:round;stroke-miterlimit:4;stroke-dashoffset:0;stroke-opacity:1"
       d="M 9.2169707e-08,-1.1380138e-07 L 1000.4931,-1.1380138e-07 L 1000.4931,282.98621 L 500.24655,282.98621 L 430.12328,172.98621 L 9.2169707e-08,158.98621 L 9.2169707e-08,-1.1380138e-07 z"
       id="rect2383"
       sodipodi:nodetypes="ccccccc" />
    <path
       style="fill:#07a030;fill-opacity:1;stroke:none;stroke-width:1;stroke-linejoin:round;stroke-miterlimit:4;stroke-dashoffset:0;stroke-opacity:1"
       d="M 9.2169707e-08,408.74138 L 500.24655,278.74138 L 1000.4931,278.74138 L 1000.4931,500.98619 L 9.2169707e-08,500.98619 L 9.2169707e-08,408.74138 z"
       id="rect3175"
       sodipodi:nodetypes="cccccc" />
    <path
       id="path3168"
       style="fill:#fcdd09;fill-rule:evenodd;stroke:none;stroke-width:1px;stroke-linecap:butt;stroke-linejoin:miter;stroke-opacity:1;fill-opacity:1"
       d="M -3.2466929,435.04292 L -2.1551724,339.43966 C 64.257572,357.08561 123.06448,368.7485 191.81035,349.13793 C 281.27356,328.5037 307.53412,253.85192 412.71552,230.60345 C 390.54234,165.71755 255.59806,223.92542 225.24107,226.01774 C 93.311522,264.04898 39.679706,220.94855 -2.1551724,190.73275 L -2.1551724,74.353448 C 95.722307,160.86357 200.85779,155.70402 290.94828,127.15517 C 474.12744,68.102652 554.48446,127.77938 608.83621,211.2069 C 709.02727,367.39104 881.67378,204.33377 1005.3879,144.39655 L 1007.5431,324.35345 C 821.79167,409.32077 667.38097,427.79995 590.51724,349.13793 C 468.5897,196.96475 414.16052,398.33781 201.50862,433.18966 C 147.50793,441.5118 59.178036,442.84213 -3.2466929,435.04292 z"
       sodipodi:nodetypes="cccccccccccccc" />
  </g>
</svg>
