<?xml version="1.0" encoding="UTF-8" standalone="no"?>
<!-- Created with Inkscape (http://www.inkscape.org/) -->
<svg
   xmlns:dc="http://purl.org/dc/elements/1.1/"
   xmlns:cc="http://creativecommons.org/ns#"
   xmlns:rdf="http://www.w3.org/1999/02/22-rdf-syntax-ns#"
   xmlns:svg="http://www.w3.org/2000/svg"
   xmlns="http://www.w3.org/2000/svg"
   xmlns:sodipodi="http://sodipodi.sourceforge.net/DTD/sodipodi-0.dtd"
   xmlns:inkscape="http://www.inkscape.org/namespaces/inkscape"
   width="1000"
   height="500"
   id="svg2816"
   version="1.1"
   inkscape:version="0.46"
   sodipodi:docname="Flag_of_San_Pelayo_(Córdoba).svg"
   sodipodi:version="0.32"
   inkscape:output_extension="org.inkscape.output.svg.inkscape">
  <defs
     id="defs2818" />
  <sodipodi:namedview
     id="base"
     pagecolor="#ffffff"
     bordercolor="#666666"
     borderopacity="1.0"
     inkscape:pageopacity="0.0"
     inkscape:pageshadow="2"
     inkscape:zoom="0.928"
     inkscape:cx="500"
     inkscape:cy="250"
     inkscape:document-units="px"
     inkscape:current-layer="layer1"
     showgrid="false"
     inkscape:window-width="1024"
     inkscape:window-height="712"
     inkscape:window-x="-4"
     inkscape:window-y="-4"
     inkscape:window-maximized="1" />
  <metadata
     id="metadata2821">
    <rdf:RDF>
      <cc:Work
         rdf:about="">
        <dc:format>image/svg+xml</dc:format>
        <dc:type
           rdf:resource="http://purl.org/dc/dcmitype/StillImage" />
        <dc:title />
      </cc:Work>
    </rdf:RDF>
  </metadata>
  <g
     inkscape:label="Capa 1"
     inkscape:groupmode="layer"
     id="layer1"
     transform="translate(0,-552.36218)">
    <rect
       style="fill:#fcdd09;fill-opacity:1;stroke:none"
       id="rect2826"
       width="1000"
       height="250"
       x="0"
       y="5.6843419e-14"
       transform="translate(0,552.36218)" />
    <rect
       style="fill:#078930;fill-opacity:1;stroke:none"
       id="rect2828"
       width="1000"
       height="250"
       x="0"
       y="250"
       transform="translate(0,552.36218)" />
    <path
       style="fill:#ffffff;stroke:none;stroke-width:1px;stroke-linecap:butt;stroke-linejoin:miter;stroke-opacity:1"
       d="M 0,0 374.9984,249.99653 0,500"
       id="path2830"
       transform="translate(0,552.36218)" />
    <g
       id="g5447"
       transform="matrix(0.5484498,0.8361835,-0.8361835,0.5484498,-307.8564,-1216.7867)"
       style="stroke:#000000;stroke-width:0.5;stroke-miterlimit:4;stroke-dasharray:none;stroke-opacity:1">
      <path
         style="fill:#e3e4e5;fill-opacity:1;fill-rule:evenodd;stroke:#000000;stroke-width:0.5;stroke-linecap:butt;stroke-linejoin:miter;stroke-miterlimit:4;stroke-dasharray:none;stroke-opacity:1"
         d="M 486.23141,1025.8237 L 481.07029,1027.4536 C 481.07029,1027.4536 474.95985,1035.0673 474.27935,1038.3191 C 473.59885,1041.5709 474.79196,1044.342 475.63754,1047.5548 C 476.48312,1050.7676 478.1351,1055.7266 480.25538,1059.5068 C 482.37566,1063.287 486.47044,1068.0895 490.03434,1072.2738 C 493.59824,1076.4581 499.76675,1083.3064 504.1595,1087.2139 C 508.55225,1091.1214 513.58095,1094.6738 519.09957,1098.351 C 524.61819,1102.0282 533.9613,1107.8555 541.10222,1111.3896 C 548.24314,1114.9237 561.06733,1119.9175 566.63616,1121.7118 C 572.20499,1123.5061 573.7678,1123.8754 577.7733,1124.4282 C 581.7788,1124.981 589.83022,1125.0381 593.25665,1124.9715 C 596.68308,1124.9049 598.92749,1125.1082 600.59086,1124.4282 C 602.25423,1123.7482 604.12215,1121.4402 604.12215,1121.4402 L 609.82655,1113.0194 L 609.28327,1105.1419 L 486.23141,1025.8237 z"
         id="path5377"
         transform="translate(1278.369,-296.89353)"
         sodipodi:nodetypes="cczzzzzzzzzzzcccc" />
      <path
         style="fill:#e3e4e5;fill-opacity:1;fill-rule:evenodd;stroke:#000000;stroke-width:0.5;stroke-linecap:butt;stroke-linejoin:miter;stroke-miterlimit:4;stroke-dasharray:none;stroke-opacity:1"
         d="M 645.68272,1057.6054 C 645.68272,1057.6054 650.13994,1050.5434 651.11547,1047.0115 C 652.091,1043.4796 652.57796,1038.4986 651.93038,1034.5162 C 651.2828,1030.5338 649.77827,1026.4629 646.49763,1021.2059 C 643.21699,1015.9489 634.27437,1007.021 628.56954,1001.1047 C 622.86471,995.18838 618.80978,989.04411 608.46836,981.81845 C 598.12694,974.59279 569.83043,959.78336 557.94375,957.09942 C 546.05707,954.41548 538.20847,955.86151 532.95309,957.37106 C 527.69771,958.88061 525.50802,960.80613 523.17413,963.34709 C 520.84024,965.88805 518.01302,973.66932 518.01302,973.66932 L 513.66681,995.67197 L 565.00633,1059.5068 L 619.87714,1071.7305 L 645.68272,1057.6054 z"
         id="path5385"
         transform="translate(1278.369,-296.89353)"
         sodipodi:nodetypes="czzzzzzzzccccc" />
      <path
         style="fill:#e3e4e5;fill-opacity:1;fill-rule:evenodd;stroke:#000000;stroke-width:0.5;stroke-linecap:butt;stroke-linejoin:miter;stroke-miterlimit:4;stroke-dasharray:none;stroke-opacity:1"
         d="M 634.27393,1072.0021 L 645.95435,1057.3337 C 645.95435,1057.3337 642.7683,1058.5727 640.24996,1059.2352 C 637.73162,1059.8977 632.77765,1061.2453 629.11282,1061.4083 C 625.44799,1061.5713 621.0334,1060.9485 616.07421,1060.0501 C 611.11502,1059.1517 602.71606,1057.3884 596.24466,1054.889 C 589.77326,1052.3896 580.53532,1047.0778 573.4271,1042.9369 C 566.31888,1038.796 555.28044,1032.1029 548.97971,1027.1819 C 542.67898,1022.2609 535.14626,1014.9631 531.32326,1010.612 C 527.50026,1006.2609 524.88076,1003.3807 522.90249,998.93162 C 520.92422,994.48251 519.49987,985.5553 519.09957,981.27517 C 518.69927,976.99504 519.3712,970.6813 519.3712,970.6813 L 509.86389,984.80646 L 509.59225,992.41232 L 514.21009,1027.7252 L 553.32591,1063.5814 L 597.87449,1078.5215 L 634.27393,1072.0021 z"
         id="path5381"
         sodipodi:nodetypes="cczzzzzzzzzccccccc"
         transform="translate(1278.369,-296.89353)" />
      <g
         id="g5435"
         style="stroke:#000000;stroke-width:0.5;stroke-miterlimit:4;stroke-dasharray:none;stroke-opacity:1">
        <path
           transform="translate(1278.369,-296.89353)"
           id="path5405"
           d="M 621.25,1073 L 610.8125,1107.0312 L 633.84375,1071.9688 C 633.84375,1071.9688 627.87662,1072.6747 621.25,1073 z"
           style="fill:#fcdd09;fill-opacity:1;fill-rule:evenodd;stroke:#000000;stroke-width:0.5;stroke-linecap:butt;stroke-linejoin:miter;stroke-miterlimit:4;stroke-dasharray:none;stroke-opacity:1" />
        <path
           transform="translate(1278.369,-296.89353)"
           sodipodi:nodetypes="cccssccccccccccsssc"
           id="path5422"
           d="M 529.75,1027.0312 L 513.1875,1077.5 C 513.27107,1077.569 513.38588,1077.6505 513.46875,1077.7188 C 513.66475,1077.226 515.28445,1075.5234 518.375,1072.5938 C 521.76408,1069.381 526.35223,1065.1563 530.96875,1060.9688 C 540.2018,1052.5935 548.71634,1045.3991 548.71634,1045.3991 L 534.03125,1092.2188 C 534.0837,1092.2504 534.13502,1092.2809 534.1875,1092.3125 L 570.79086,1059.5216 L 558.3125,1104.8438 C 558.40398,1104.8843 558.50251,1104.9283 558.59375,1104.9688 L 593.87259,1070.1587 L 584.40625,1111.6875 C 584.47762,1111.6945 584.55377,1111.7116 584.625,1111.7188 L 620.875,1073.0312 C 616.50662,1073.2334 611.94068,1073.2991 608.5,1072.75 C 599.7207,1071.3488 586.09368,1065.8765 576.625,1061.2188 C 567.1564,1056.5606 554.00501,1048.0413 545.875,1041.625 C 540.75112,1037.5812 534.74556,1032.0931 529.75,1027.0312 z"
           style="fill:#fcdd09;fill-opacity:1;fill-rule:evenodd;stroke:#000000;stroke-width:0.5;stroke-linecap:butt;stroke-linejoin:miter;stroke-miterlimit:4;stroke-dasharray:none;stroke-opacity:1" />
        <g
           style="fill:#ed1c24;fill-opacity:1;stroke:#000000;stroke-width:0.5;stroke-miterlimit:4;stroke-dasharray:none;stroke-opacity:1"
           id="g5427">
          <path
             style="fill:#da121a;fill-opacity:1;fill-rule:evenodd;stroke:#000000;stroke-width:0.5;stroke-linecap:butt;stroke-linejoin:miter;stroke-miterlimit:4;stroke-dasharray:none;stroke-opacity:1"
             d="M 620.875,1073.0312 L 584.625,1111.7188 C 588.04983,1112.0487 591.47949,1112.3333 593.90625,1112.3125 C 600.01805,1112.2602 608.87502,1109.9999 608.875,1110 L 610.8125,1107.0312 L 621.25,1073 C 621.12455,1073.0062 621.00093,1073.0254 620.875,1073.0312 z"
             id="path5403"
             transform="translate(1278.369,-296.89353)" />
          <path
             style="fill:#da121a;fill-opacity:1;fill-rule:evenodd;stroke:#000000;stroke-width:0.5;stroke-linecap:butt;stroke-linejoin:miter;stroke-miterlimit:4;stroke-dasharray:none;stroke-opacity:1"
             d="M 584.40625,1111.6875 L 594.6875,1069.3438 L 558.59375,1104.9688 C 562.25343,1106.5817 565.76093,1108.0157 568.5625,1108.8438 C 573.76519,1110.3815 579.26641,1111.1847 584.40625,1111.6875 z"
             id="path5409"
             transform="translate(1278.369,-296.89353)" />
          <path
             style="fill:#da121a;fill-opacity:1;fill-rule:evenodd;stroke:#000000;stroke-width:0.5;stroke-linecap:butt;stroke-linejoin:miter;stroke-miterlimit:4;stroke-dasharray:none;stroke-opacity:1"
             d="M 558.3125,1104.8438 L 571.0625,1059.25 L 534.1875,1092.3125 C 535.02552,1092.8164 535.81296,1093.3905 536.65625,1093.875 C 542.09909,1097.0022 550.61509,1101.4354 558.3125,1104.8438 z"
             id="path5413"
             transform="translate(1278.369,-296.89353)" />
          <path
             style="fill:#da121a;fill-opacity:1;fill-rule:evenodd;stroke:#000000;stroke-width:0.5;stroke-linecap:butt;stroke-linejoin:miter;stroke-miterlimit:4;stroke-dasharray:none;stroke-opacity:1"
             d="M 534.03125,1092.2188 L 549.53125,1044.3125 C 549.53125,1044.3125 540.2018,1052.5935 530.96875,1060.9688 C 526.35223,1065.1564 521.76408,1069.381 518.375,1072.5938 C 515.28445,1075.5235 513.66475,1077.226 513.46875,1077.7188 C 513.74932,1077.9498 514.1036,1078.2786 514.375,1078.5 C 519.92504,1083.0284 526.8732,1087.9045 534.03125,1092.2188 z"
             id="path5417"
             transform="translate(1278.369,-296.89353)" />
          <path
             style="fill:#da121a;fill-opacity:1;fill-rule:evenodd;stroke:#000000;stroke-width:0.5;stroke-linecap:butt;stroke-linejoin:miter;stroke-miterlimit:4;stroke-dasharray:none;stroke-opacity:1"
             d="M 529.5,1026.7812 L 519.375,1037.2188 L 494.4375,1058.8125 C 494.71715,1059.2119 494.90098,1059.6734 495.1875,1060.0625 C 496.46298,1061.7946 498.27153,1063.7334 500.21875,1065.7188 L 507.5,1072.5 C 509.44635,1074.2159 511.40835,1076.0308 513.1875,1077.5 L 529.75,1027.0312 C 529.667,1026.9472 529.58236,1026.8651 529.5,1026.7812 z"
             id="path5420"
             transform="translate(1278.369,-296.89353)" />
          <path
             style="fill:#da121a;fill-opacity:1;fill-rule:evenodd;stroke:#000000;stroke-width:0.5;stroke-linecap:butt;stroke-linejoin:miter;stroke-miterlimit:4;stroke-dasharray:none;stroke-opacity:1"
             d="M 494.5,1058.7812 L 514.40625,1006.4688 L 486.53125,1025.5938 L 486.34375,1025.875 C 486.34375,1025.875 486.12836,1028.3981 485.96875,1030.875 L 485.875,1033.0312 C 485.75722,1036.3081 485.76898,1039.9716 486.34375,1042.4062 C 487.50712,1047.3342 490.6905,1053.4616 494.4375,1058.8125 L 494.5,1058.7812 z"
             id="path5425"
             transform="translate(1278.369,-296.89353)" />
        </g>
        <path
           transform="translate(1278.369,-296.89353)"
           sodipodi:nodetypes="ccccccssc"
           id="path5338"
           d="M 510.53125,989.375 L 486.53125,1025.5938 L 513.86297,1007.2837 L 494.5,1058.7812 L 519.375,1037.2188 L 529.5,1026.7812 C 526.67393,1023.9052 524.10424,1021.1312 522.4375,1018.9688 C 517.7985,1012.9494 515.3503,1007.7341 513.625,1003.2188 C 511.8998,998.70287 510.53126,989.375 510.53125,989.375 z"
           style="fill:#fcdd09;fill-opacity:1;fill-rule:evenodd;stroke:#000000;stroke-width:0.5;stroke-linecap:butt;stroke-linejoin:miter;stroke-miterlimit:4;stroke-dasharray:none;stroke-opacity:1" />
      </g>
    </g>
    <g
       id="g3984"
       transform="matrix(0.3223199,-0.2442723,0.2442723,0.3223199,144.28482,668.42205)"
       style="fill:#fcdd09;fill-opacity:1;stroke:#000000;stroke-width:1.23632514;stroke-miterlimit:4;stroke-dasharray:none;stroke-opacity:1">
      <path
         id="path3986"
         style="fill:#fcdd09;fill-opacity:1;fill-rule:nonzero;stroke:#000000;stroke-width:1.23632514;stroke-linecap:square;stroke-linejoin:bevel;stroke-miterlimit:4;stroke-dasharray:none;stroke-dashoffset:0;stroke-opacity:1"
         d="M -102.44315,484.06479 L -270.49384,484.06478 L -270.49384,464.15099 L -102.99024,464.15099 C -100.5828,464.15099 -99.051245,462.54622 -99.051245,459.77434 C -99.051245,457.64072 -99.916855,455.51903 -102.44315,455.61651 L -270.49384,455.6165 L -270.49384,435.70271 L -102.44315,435.5933 C -92.026735,435.48389 -80.231615,447.84796 -80.231615,459.99318 C -80.231615,472.13841 -91.030225,484.06479 -102.44315,484.06479 z" />
      <rect
         id="rect3988"
         style="opacity:1;fill:#fcdd09;fill-opacity:1;fill-rule:nonzero;stroke:#000000;stroke-width:1.23632514;stroke-linecap:square;stroke-linejoin:bevel;stroke-miterlimit:4;stroke-dasharray:none;stroke-dashoffset:0;stroke-opacity:1"
         y="372.89124"
         x="-328.68701"
         height="151.87003"
         width="28.010611" />
      <path
         id="path3990"
         style="fill:#fcdd09;fill-opacity:1;fill-rule:evenodd;stroke:#000000;stroke-width:1.23632514;stroke-linecap:butt;stroke-linejoin:miter;stroke-miterlimit:4;stroke-dasharray:none;stroke-opacity:1"
         d="M -198.2626,429.35013 C -179.41119,429.35013 -164.3435,444.00773 -164.3435,464.36339 C -164.3435,484.28141 -177.91114,494.12467 -187.75862,496.9695 L -195.63661,498.06366 C -195.63661,498.06366 -248.25594,499.81432 -260.41114,499.81432 C -272.785,499.81432 -279.50426,493.20944 -283.60743,487.34085 C -287.81398,481.3244 -285.13926,459.33024 -285.13926,459.33024 C -285.13926,455.38973 -274.36174,452.10875 -271.35279,452.10875 C -268.56268,452.10875 -266.1008,454.06914 -266.1008,456.70424 C -266.1008,456.70424 -267.08555,474.26558 -266.1008,476.18037 C -265.0713,478.18218 -263.86571,480.55703 -260.84881,480.55703 C -257.94103,480.55703 -196.2931,480.55703 -196.2931,480.55703 C -196.2931,480.55703 -181.41247,479.63999 -181.41247,463.0504 C -181.41247,446.24215 -198.59086,447.51326 -198.59086,447.51326" />
      <path
         id="path3992"
         style="fill:#fcdd09;fill-opacity:1;fill-rule:nonzero;stroke:#000000;stroke-width:1.23632514;stroke-linecap:square;stroke-linejoin:bevel;stroke-miterlimit:4;stroke-dasharray:none;stroke-dashoffset:0;stroke-opacity:1"
         d="M -452.21817,487.77851 L -354.72811,487.7785 C -351.66445,487.7785 -349.47612,483.45656 -349.47612,477.82161 C -349.47612,471.96783 -352.10212,467.86471 -354.72811,467.86471 L -451.67108,467.86471 C -454.07852,467.86471 -455.61008,466.25994 -455.61008,463.48806 C -455.61008,461.35444 -454.74447,459.23275 -452.21817,459.33023 L -354.72811,459.33022 C -351.66445,459.33022 -349.47612,455.00828 -349.47612,449.37333 C -349.47612,443.51955 -352.10212,439.41643 -354.72811,439.41643 L -452.21817,439.30702 C -462.63459,439.19761 -474.42971,451.56168 -474.42971,463.7069 C -474.42971,475.85213 -463.6311,487.77851 -452.21817,487.77851 z" />
      <rect
         id="rect3994"
         style="opacity:1;fill:#fcdd09;fill-opacity:1;fill-rule:nonzero;stroke:#000000;stroke-width:1.23632514;stroke-linecap:square;stroke-linejoin:bevel;stroke-miterlimit:4;stroke-dasharray:none;stroke-dashoffset:0;stroke-opacity:1"
         y="428.25586"
         x="-330.87534"
         ry="3.7473669"
         rx="3.7473674"
         height="22.868031"
         width="4.157825" />
      <rect
         id="rect3996"
         style="opacity:1;fill:#fcdd09;fill-opacity:1;fill-rule:nonzero;stroke:#000000;stroke-width:1.23632514;stroke-linecap:square;stroke-linejoin:bevel;stroke-miterlimit:4;stroke-dasharray:none;stroke-dashoffset:0;stroke-opacity:1"
         y="428.03699"
         x="-249.90717"
         ry="3.7473662"
         rx="3.7473674"
         height="22.102114"
         width="4.157825" />
      <rect
         id="rect3998"
         style="opacity:1;fill:#fcdd09;fill-opacity:1;fill-rule:nonzero;stroke:#000000;stroke-width:1.23632514;stroke-linecap:square;stroke-linejoin:bevel;stroke-miterlimit:4;stroke-dasharray:none;stroke-dashoffset:0;stroke-opacity:1"
         y="428.0369"
         x="-198.9191"
         ry="3.7473655"
         rx="3.7473674"
         height="20.789112"
         width="4.157825" />
      <rect
         id="rect4000"
         style="opacity:1;fill:#fcdd09;fill-opacity:1;fill-rule:nonzero;stroke:#000000;stroke-width:1.23632514;stroke-linecap:square;stroke-linejoin:bevel;stroke-miterlimit:4;stroke-dasharray:none;stroke-dashoffset:0;stroke-opacity:1"
         y="479.02509"
         x="-258.66061"
         ry="3.7473664"
         rx="3.74737"
         height="22.320948"
         width="2.8448296" />
      <rect
         id="rect4002"
         style="opacity:1;fill:#fcdd09;fill-opacity:1;fill-rule:nonzero;stroke:#000000;stroke-width:1.23632514;stroke-linecap:square;stroke-linejoin:bevel;stroke-miterlimit:4;stroke-dasharray:none;stroke-dashoffset:0;stroke-opacity:1"
         y="479.68176"
         x="-210.73621"
         ry="3.7473686"
         rx="3.74737"
         height="20.132627"
         width="2.8448296" />
      <rect
         id="rect4004"
         style="opacity:1;fill:#fcdd09;fill-opacity:1;fill-rule:nonzero;stroke:#000000;stroke-width:1.23632514;stroke-linecap:square;stroke-linejoin:bevel;stroke-miterlimit:4;stroke-dasharray:none;stroke-dashoffset:0;stroke-opacity:1"
         y="512.94397"
         x="-338.75345"
         ry="3.7473643"
         rx="3.74737"
         height="18.163113"
         width="2.8448296" />
      <rect
         id="rect4006"
         style="opacity:1;fill:#fcdd09;fill-opacity:1;fill-rule:nonzero;stroke:#000000;stroke-width:1.23632514;stroke-linecap:square;stroke-linejoin:bevel;stroke-miterlimit:4;stroke-dasharray:none;stroke-dashoffset:0;stroke-opacity:1"
         y="512.94397"
         x="-323.8728"
         ry="3.7473643"
         rx="3.74737"
         height="18.163113"
         width="2.8448296" />
      <rect
         id="rect4008"
         style="opacity:1;fill:#fcdd09;fill-opacity:1;fill-rule:nonzero;stroke:#000000;stroke-width:1.23632514;stroke-linecap:square;stroke-linejoin:bevel;stroke-miterlimit:4;stroke-dasharray:none;stroke-dashoffset:0;stroke-opacity:1"
         y="511.19351"
         x="-264.35025"
         ry="3.7473657"
         rx="3.74737"
         height="19.913782"
         width="2.8448296" />
      <rect
         id="rect4010"
         style="opacity:1;fill:#fcdd09;fill-opacity:1;fill-rule:nonzero;stroke:#000000;stroke-width:1.23632514;stroke-linecap:square;stroke-linejoin:bevel;stroke-miterlimit:4;stroke-dasharray:none;stroke-dashoffset:0;stroke-opacity:1"
         y="510.53702"
         x="-236.33965"
         ry="3.7473657"
         rx="3.74737"
         height="19.913782"
         width="2.8448296" />
      <rect
         id="rect4012"
         style="opacity:1;fill:#fcdd09;fill-opacity:1;fill-rule:nonzero;stroke:#000000;stroke-width:1.23632514;stroke-linecap:square;stroke-linejoin:bevel;stroke-miterlimit:4;stroke-dasharray:none;stroke-dashoffset:0;stroke-opacity:1"
         y="438.54099"
         x="-451.01471"
         ry="3.7473664"
         rx="3.7473676"
         height="21.773865"
         width="10.066315" />
      <rect
         id="rect4014"
         style="opacity:1;fill:#fcdd09;fill-opacity:1;fill-rule:nonzero;stroke:#000000;stroke-width:1.23632514;stroke-linecap:square;stroke-linejoin:bevel;stroke-miterlimit:4;stroke-dasharray:none;stroke-dashoffset:0;stroke-opacity:1"
         y="466.77042"
         x="-451.01471"
         ry="3.7473664"
         rx="3.7473676"
         height="21.773865"
         width="10.066315" />
      <rect
         id="rect4016"
         style="opacity:1;fill:#fcdd09;fill-opacity:1;fill-rule:nonzero;stroke:#000000;stroke-width:1.23632514;stroke-linecap:square;stroke-linejoin:bevel;stroke-miterlimit:4;stroke-dasharray:none;stroke-dashoffset:0;stroke-opacity:1"
         y="372.89124"
         x="-363.70029"
         height="151.87003"
         width="28.010611" />
      <rect
         id="rect4018"
         style="opacity:1;fill:#fcdd09;fill-opacity:1;fill-rule:nonzero;stroke:#000000;stroke-width:1.23632514;stroke-linecap:square;stroke-linejoin:bevel;stroke-miterlimit:4;stroke-dasharray:none;stroke-dashoffset:0;stroke-opacity:1"
         y="372.89124"
         x="-294.5491"
         height="151.87003"
         width="28.010611" />
      <path
         id="path4020"
         style="fill:#fcdd09;fill-opacity:1;fill-rule:evenodd;stroke:#000000;stroke-width:1.23632514;stroke-linecap:butt;stroke-linejoin:miter;stroke-miterlimit:4;stroke-dasharray:none;stroke-opacity:1"
         d="M -353.85279,321.46552 L -362.82493,321.46552 L -362.82492,318.18302 C -362.82492,318.18302 -357.52312,314.46286 -351.33618,314.46286 C -344.71157,314.46286 -339.84744,317.30769 -339.84744,317.30769 L -339.84748,321.46552 L -347.2878,321.46552 L -347.2878,337.65915 L -345.75597,337.65915 L -339.40981,347.06897 C -339.40981,347.06897 -336.51028,347.06897 -335.47082,348.05372 C -334.37234,349.09438 -333.93899,353.63395 -333.93899,353.63395 L -367.20159,353.63395 C -367.20159,353.63395 -367.36816,349.08255 -366.54509,348.05372 C -365.66976,346.95956 -363.2626,347.06897 -363.2626,347.06897 L -355.60345,337.65915 L -353.85279,337.65915 L -353.85279,321.46552 z" />
      <path
         id="path4022"
         style="fill:#fcdd09;fill-opacity:1;fill-rule:evenodd;stroke:#000000;stroke-width:1.23632514;stroke-linecap:butt;stroke-linejoin:miter;stroke-miterlimit:4;stroke-dasharray:none;stroke-opacity:1"
         d="M -318.62069,321.46552 L -327.59283,321.46552 L -327.59282,318.18302 C -327.59282,318.18302 -322.29102,314.46286 -316.10408,314.46286 C -309.47947,314.46286 -304.61534,317.30769 -304.61534,317.30769 L -304.61538,321.46552 L -312.0557,321.46552 L -312.0557,337.65915 L -310.52387,337.65915 L -304.17771,347.06897 C -304.17771,347.06897 -301.27818,347.06897 -300.23872,348.05372 C -299.14024,349.09438 -298.70689,353.63395 -298.70689,353.63395 L -331.96949,353.63395 C -331.96949,353.63395 -332.13606,349.08255 -331.31299,348.05372 C -330.43766,346.95956 -328.0305,347.06897 -328.0305,347.06897 L -320.37135,337.65915 L -318.62069,337.65915 L -318.62069,321.46552 z" />
      <path
         id="path4024"
         style="fill:#fcdd09;fill-opacity:1;fill-rule:evenodd;stroke:#000000;stroke-width:1.23632514;stroke-linecap:butt;stroke-linejoin:miter;stroke-miterlimit:4;stroke-dasharray:none;stroke-opacity:1"
         d="M -282.0756,321.46552 L -291.04774,321.46552 L -291.04773,318.18302 C -291.04773,318.18302 -285.74593,314.46286 -279.55899,314.46286 C -272.93438,314.46286 -268.07025,317.30769 -268.07025,317.30769 L -268.07029,321.46552 L -275.51061,321.46552 L -275.51061,337.65915 L -273.97878,337.65915 L -267.63262,347.06897 C -267.63262,347.06897 -264.73309,347.06897 -263.69363,348.05372 C -262.59515,349.09438 -262.1618,353.63395 -262.1618,353.63395 L -295.4244,353.63395 C -295.4244,353.63395 -295.59097,349.08255 -294.7679,348.05372 C -293.89257,346.95956 -291.48541,347.06897 -291.48541,347.06897 L -283.82626,337.65915 L -282.0756,337.65915 L -282.0756,321.46552 z" />
      <path
         id="path4026"
         style="fill:#fcdd09;fill-opacity:1;fill-rule:evenodd;stroke:#000000;stroke-width:1.23632514;stroke-linecap:butt;stroke-linejoin:miter;stroke-miterlimit:4;stroke-dasharray:none;stroke-opacity:1"
         d="M -377.9244,380.98806 C -361.23839,381.69927 -304.59244,380.61928 -269.52686,382.17763 C -234.46128,383.73598 -188.12781,385.80171 -175.55857,387.53391 C -162.98933,389.26611 -136.54931,394.25864 -124.51591,399.58885 C -112.56494,404.88255 -106.76593,410.47632 -100.88196,416.65782 C -99.240717,422.51161 -94.560605,446.63793 -82.718833,446.63793 C -70.440279,446.63793 -57.334218,425.99086 -57.334218,363.70027 C -57.334218,301.40967 -72.190942,280.7626 -84.469496,280.7626 C -96.311268,280.7626 -100.99138,304.88892 -102.63262,310.74271 C -108.51659,316.92421 -112.56494,322.51798 -124.51591,327.81168 C -136.54931,333.14189 -158.79958,339.08885 -175.55857,341.39845 C -183.93806,342.55325 -226.0224,347.1166 -270.18336,349.81839 C -314.34432,352.52018 -360.5819,353.36041 -378.5809,354.07162 C -379.8939,354.07162 -432.96088,353.52453 -464.3634,360.6366 C -495.6744,367.72794 -512.17838,389.72314 -519.50928,408.34217 C -526.78297,426.8159 -527.38726,449.84748 -519.50928,475.74271 C -511.6313,501.63794 -493.19279,525.6366 -456.48541,525.6366 C -418.90393,525.6366 -401.99602,486.46552 -401.99602,486.46552 C -396.78667,478.67277 -395.12638,475.48591 -386.89656,473.11672 C -379.67506,471.0378 -362.82493,470.92838 -362.82493,470.92838 C -362.82493,470.92838 -363.48143,454.73475 -363.48143,454.73475 C -363.48143,454.73475 -390.71105,455.30628 -396.74404,455.7195 C -402.77702,456.13271 -407.14293,460.24391 -410.85876,464.80106 C -414.48878,469.25299 -426.80066,505.49934 -456.92308,507.25465 C -492.25166,507.71113 -503.31565,468.65516 -503.31565,444.23077 C -503.31565,419.36915 -493.03051,387.33421 -456.92308,382.95756 C -419.95285,378.47632 -377.9244,380.98806 -377.9244,380.98806 z" />
      <path
         id="path4028"
         style="fill:#fcdd09;fill-opacity:1;fill-rule:evenodd;stroke:#000000;stroke-width:1.23632514;stroke-linecap:butt;stroke-linejoin:miter;stroke-miterlimit:4;stroke-dasharray:none;stroke-opacity:1"
         d="M -224.08488,362.16843 C -236.52564,360.85354 -246.62467,355.7696 -246.62467,344.0053 C -246.62467,332.0222 -233.98059,327.68348 -230.28957,327.68348 C -226.44395,327.68348 -224.98904,328.27133 -223.20955,330.43767 L -223.82623,332.11096 C -228.54574,328.24251 -243.34218,331.85564 -243.34218,344.0053 C -243.34218,355.93621 -231.1924,357.73062 -224.08488,358.88594 C -216.95127,360.0455 -213.36207,359.54244 -204.38992,363.48143 C -195.41777,367.42042 -187.73208,375.26086 -187.73208,375.26086 L -224.08488,362.16843 z" />
      <path
         id="path4030"
         style="fill:#fcdd09;fill-opacity:1;fill-rule:evenodd;stroke:#000000;stroke-width:1.23632514;stroke-linecap:butt;stroke-linejoin:miter;stroke-miterlimit:4;stroke-dasharray:none;stroke-opacity:1"
         d="M -198.3744,429.35013 L -345.99466,429.51514 C -355.63457,429.76501 -367.69125,436.3501 -373.53807,443.05701 C -379.38489,449.76392 -387.85135,461.6256 -388.08346,480.81314 C -388.31557,500.00068 -378.49702,515.64404 -374.4665,519.80717 C -370.54334,523.85941 -367.79531,526.78335 -363.63749,529.19052 L -362.26912,534.15313 C -361.85906,535.64029 -351.97654,536.97463 -351.12796,538.33107 C -350.33775,539.59422 -353.91325,540.5238 -353.91325,542.97321 C -353.91325,545.65465 -350.82935,548.93064 -348.84557,548.93064 C -347.01654,548.93064 -343.7779,545.65465 -343.7779,542.97321 C -343.7779,540.5238 -347.3534,539.59422 -346.56319,538.33107 C -345.71461,536.97463 -336.791,534.86428 -335.42203,534.15313 C -334.05306,533.44198 -333.17833,530.28468 -333.17833,530.28468 C -333.17833,530.28468 -329.28071,530.28468 -329.28071,530.28468 C -329.28071,530.28468 -328.40598,533.44198 -327.03701,534.15313 C -325.66804,534.86428 -316.74443,536.97463 -315.89585,538.33107 C -315.10564,539.59422 -318.68114,540.5238 -318.68114,542.97321 C -318.68114,545.65465 -315.59724,548.93064 -313.61346,548.93064 C -311.78443,548.93064 -308.54579,545.65465 -308.54579,542.97321 C -308.54579,540.5238 -312.12129,539.59422 -311.33108,538.33107 C -310.4825,536.97463 -301.55889,534.86428 -300.18992,534.15313 C -298.82095,533.44198 -297.94622,530.28468 -297.94622,530.28468 C -297.94622,530.28468 -294.04859,530.28468 -294.04859,530.28468 C -294.04859,530.28468 -293.17386,533.44198 -291.80489,534.15313 C -290.43592,534.86428 -281.51231,536.97463 -280.66373,538.33107 C -279.87352,539.59422 -283.44902,540.5238 -283.44902,542.97321 C -283.44902,545.65465 -280.36512,548.93064 -278.38134,548.93064 C -276.55231,548.93064 -273.31367,545.65465 -273.31367,542.97321 C -273.31367,540.5238 -276.88917,539.59422 -276.09896,538.33107 C -275.25038,536.97463 -266.32677,534.86428 -264.9578,534.15313 C -263.58883,533.44198 -262.7141,530.28468 -262.7141,530.28468 L -217.25246,528.62725 C -198.15895,528.62725 -185.27631,514.98906 -179.80581,509.28497 C -167.33662,496.30382 -159.303,479.03365 -159.99932,446.77073 C -160.69564,414.50781 -163.40356,401.47112 -182.5911,380.2333 C -201.77864,358.99548 -236.74948,361.81944 -236.74948,361.81944 L -328.19977,361.81944 C -328.19977,361.81944 -329.1282,361.08444 -330.83032,360.27206 C -332.65946,359.39906 -405.2594,360.27206 -405.2594,360.27206 C -406.93236,360.27206 -408.89575,363.52157 -408.89575,363.52157 L -488.04435,363.52157 C -488.04435,363.52157 -490.82964,360.27207 -490.82964,357.64152 C -490.82964,355.01097 -488.04435,354.62596 -488.04435,352.99937 C -488.04435,351.29549 -490.05595,349.9046 -492.37702,349.9046 C -494.69809,349.9046 -497.32864,351.37462 -497.32864,352.99937 C -497.32864,354.70149 -494.54336,355.08834 -494.54336,357.64152 C -494.54336,360.1947 -497.32864,363.21209 -497.32864,363.21209 C -497.32864,363.21209 -511.7193,362.97998 -514.04037,363.21209 C -516.21784,363.42984 -517.13514,365.99738 -517.13514,365.99738 C -517.13514,365.99738 -519.9978,361.66471 -522.39624,361.66471 C -524.79468,361.66471 -526.10995,365.99738 -526.10995,365.99738 C -526.10995,365.99738 -528.90828,360.70595 -534.0016,359.80785 C -538.81719,358.95872 -544.94425,351.21988 -548.85647,351.21988 C -552.68905,351.21988 -551.7965,362.59314 -551.7965,372.18691 C -551.7965,381.78068 -550.94661,391.06497 -548.39226,391.06497 C -545.76057,391.06497 -537.14522,382.43935 -534.0016,382.01278 C -530.78202,381.5759 -526.10995,377.13853 -526.10995,377.13853 C -526.10995,377.13853 -524.63994,380.69751 -522.39624,380.54277 C -520.15254,380.38803 -517.13514,376.51958 -517.13514,376.51958 C -517.13514,376.51958 -516.23446,378.17396 -514.04037,378.68591 C -511.7193,379.22749 -497.63812,378.68591 -497.63812,378.68591 L -485.25906,377.44801 L -408.89575,377.75748 C -408.89575,377.75748 -406.61695,380.23329 -405.10466,380.23329 C -405.10466,380.23329 -332.83694,380.91479 -330.83032,380.23329 C -328.78004,379.53697 -328.19977,376.82905 -328.19977,376.82905 L -226.53676,376.82905 C -226.53676,376.82905 -207.58132,378.29907 -194.66068,391.9934 C -181.66259,405.76981 -176.01472,420.38787 -175.47314,447.08021 C -174.93156,473.77255 -183.98375,490.32953 -192.49435,498.76277 C -200.77398,506.96713 -218.18089,510.52288 -218.18089,510.52288 L -234.89262,511.76078 L -345.37571,514.54607 C -358.72452,514.1084 -364.9561,503.89652 -368.80527,494.44566 C -372.62255,485.07311 -372.1724,475.24666 -368.80527,466.88403 C -365.28706,458.14615 -356.92075,449.42783 -344.44728,449.8655 L -198.3744,447.51326" />
      <rect
         id="rect4032"
         style="opacity:1;fill:#fcdd09;fill-opacity:1;fill-rule:nonzero;stroke:#000000;stroke-width:1.23632514;stroke-linecap:square;stroke-linejoin:bevel;stroke-miterlimit:4;stroke-dasharray:none;stroke-dashoffset:0;stroke-opacity:1"
         y="434.51779"
         x="-116.47065"
         ry="3.7473664"
         rx="3.7473674"
         height="21.773865"
         width="13.78003" />
      <rect
         id="rect4034"
         style="opacity:1;fill:#fcdd09;fill-opacity:1;fill-rule:nonzero;stroke:#000000;stroke-width:1.23632514;stroke-linecap:square;stroke-linejoin:bevel;stroke-miterlimit:4;stroke-dasharray:none;stroke-dashoffset:0;stroke-opacity:1"
         y="463.60858"
         x="-116.47065"
         ry="3.7473664"
         rx="3.7473674"
         height="21.773865"
         width="13.78003" />
      <path
         id="path4036"
         style="fill:#fcdd09;fill-opacity:1;fill-rule:evenodd;stroke:#000000;stroke-width:1.23632514;stroke-linecap:butt;stroke-linejoin:miter;stroke-miterlimit:4;stroke-dasharray:none;stroke-opacity:1"
         d="M -456.63249,443.05701 C -454.42747,442.43806 -452.62304,440.66622 -453.38299,439.18855 C -454.07932,437.8346 -454.86692,438.65465 -455.70406,437.02222 C -456.47775,435.51352 -454.76465,433.74476 -455.8588,432.22533 C -456.87828,430.80958 -459.6112,428.58899 -461.58411,429.44005 C -463.50518,430.26874 -464.67887,433.5793 -464.21466,435.47484 C -463.74034,437.41164 -462.58991,436.67406 -462.04833,438.10539 C -461.29787,440.08876 -462.16439,441.35488 -461.58412,442.59279 C -460.97308,443.89635 -458.69447,443.63581 -456.63249,443.05701 z" />
      <path
         id="path4038"
         style="fill:#fcdd09;fill-opacity:1;fill-rule:evenodd;stroke:#000000;stroke-width:1.23632514;stroke-linecap:butt;stroke-linejoin:miter;stroke-miterlimit:4;stroke-dasharray:none;stroke-opacity:1"
         d="M -456.63249,483.57601 C -454.42747,484.19496 -452.62304,485.9668 -453.38299,487.44447 C -454.07932,488.79842 -454.86692,487.97837 -455.70406,489.6108 C -456.47775,491.1195 -454.76465,492.88826 -455.8588,494.40769 C -456.87828,495.82344 -459.6112,498.04403 -461.58411,497.19297 C -463.50518,496.36428 -464.67887,493.05372 -464.21466,491.15818 C -463.74034,489.22138 -462.58991,489.95896 -462.04833,488.52763 C -461.29787,486.54426 -462.16439,485.27814 -461.58412,484.04023 C -460.97308,482.73667 -458.69447,482.99721 -456.63249,483.57601 z" />
      <path
         id="path4040"
         style="fill:#fcdd09;fill-opacity:1;fill-rule:evenodd;stroke:#000000;stroke-width:1.23632514;stroke-linecap:butt;stroke-linejoin:miter;stroke-miterlimit:4;stroke-dasharray:none;stroke-opacity:1"
         d="M -181.81741,505.88073 C -183.67427,507.66022 -184.68007,510.98709 -183.98375,511.76078 C -183.24814,512.57812 -181.15977,510.63893 -180.88898,511.76078 C -180.61819,512.88263 -182.90058,515.28107 -182.90058,516.24819 C -182.90058,517.29267 -180.27003,518.41453 -180.27003,518.41453 C -180.27003,518.41453 -164.13857,508.47259 -157.21403,492.57324 C -150.2895,476.67389 -152.57189,454.81712 -152.57189,454.81712 L -154.42875,454.81712 C -153.86138,464.20457 -156.0793,475.60363 -157.83299,481.4321 C -157.83299,481.4321 -159.14827,486.65451 -160.3088,487.46688 C -161.418,488.24332 -162.74592,487.6603 -164.02251,486.84793 C -165.2991,486.03556 -164.44805,484.72028 -165.41516,484.21738 C -166.35259,483.72992 -167.69754,485.4166 -168.50992,487.31214 C -169.3223,489.20768 -169.55146,491.27553 -168.66466,491.79955 C -167.8136,492.30245 -166.38227,490.79376 -165.10568,491.49008 C -163.82909,492.1864 -163.21014,493.07614 -163.5583,494.58484 C -163.92344,496.16709 -174.93156,508.00838 -176.0921,508.04707 C -177.09808,508.0806 -175.8213,505.18442 -176.55631,504.64283 C -177.34233,504.06366 -179.96055,504.10124 -181.81741,505.88073 z" />
    </g>
  </g>
</svg>
