<?xml version="1.0" encoding="UTF-8" standalone="no"?>
<!-- Created with Inkscape (http://www.inkscape.org/) -->
<svg
   xmlns:dc="http://purl.org/dc/elements/1.1/"
   xmlns:cc="http://creativecommons.org/ns#"
   xmlns:rdf="http://www.w3.org/1999/02/22-rdf-syntax-ns#"
   xmlns:svg="http://www.w3.org/2000/svg"
   xmlns="http://www.w3.org/2000/svg"
   xmlns:sodipodi="http://sodipodi.sourceforge.net/DTD/sodipodi-0.dtd"
   xmlns:inkscape="http://www.inkscape.org/namespaces/inkscape"
   width="750"
   height="500"
   id="svg2822"
   version="1.0"
   inkscape:version="0.46"
   sodipodi:docname="Flag_of_Santa Bárbara-Iscuandé_(Nariño).svg"
   sodipodi:version="0.32"
   inkscape:output_extension="org.inkscape.output.svg.inkscape">
  <defs
     id="defs2824" />
  <sodipodi:namedview
     id="base"
     pagecolor="#ffffff"
     bordercolor="#666666"
     borderopacity="1.0"
     inkscape:pageopacity="0.0"
     inkscape:pageshadow="2"
     inkscape:zoom="1.014"
     inkscape:cx="375"
     inkscape:cy="250"
     inkscape:document-units="px"
     inkscape:current-layer="layer1"
     showgrid="false"
     inkscape:window-width="1024"
     inkscape:window-height="712"
     inkscape:window-x="-4"
     inkscape:window-y="-4"
     inkscape:window-maximized="1" />
  <metadata
     id="metadata2827">
    <rdf:RDF>
      <cc:Work
         rdf:about="">
        <dc:format>image/svg+xml</dc:format>
        <dc:type
           rdf:resource="http://purl.org/dc/dcmitype/StillImage" />
        <dc:title />
      </cc:Work>
    </rdf:RDF>
  </metadata>
  <g
     inkscape:label="Capa 1"
     inkscape:groupmode="layer"
     id="layer1"
     transform="translate(0,-552.36218)">
    <rect
       transform="scale(1,-1)"
       y="-1051.8784"
       x="0"
       height="499.05011"
       width="750"
       id="rect3155"
       style="fill:#ffffff;fill-opacity:1;stroke:none" />
    <path
       sodipodi:type="arc"
       style="opacity:1;fill:#fcdd09;fill-opacity:1;stroke:none;stroke-width:1;stroke-linejoin:round;stroke-miterlimit:4;stroke-dasharray:none;stroke-dashoffset:0;stroke-opacity:1"
       id="path2401"
       sodipodi:cx="337.27811"
       sodipodi:cy="139.05325"
       sodipodi:rx="119.32939"
       sodipodi:ry="119.32939"
       d="M 456.6075,139.05325 A 119.32939,119.32939 0 1 1 217.94872,139.05325 A 119.32939,119.32939 0 1 1 456.6075,139.05325 z"
       transform="translate(44.406312,532.63831)" />
    <g
       inkscape:groupmode="layer"
       inkscape:label="Calque 1"
       id="layer1-4"
       transform="matrix(1.960451,0,0,1.960451,194.63835,621.01125)">
      <g
         transform="matrix(0.754398,0,0,0.754398,-21.1595,-18.7689)"
         style="display:inline"
         id="g2129" />
    </g>
    <g
       transform="translate(149.19355,1493.6525)"
       id="g3326" />
    <rect
       style="opacity:1;fill:#078930;fill-opacity:1;stroke:none;stroke-width:1;stroke-linejoin:round;stroke-miterlimit:4;stroke-dasharray:none;stroke-dashoffset:0;stroke-opacity:1"
       id="rect2399"
       width="407.29782"
       height="273.17554"
       x="179.48717"
       y="649.00909" />
    <rect
       y="884.5318"
       x="179.48717"
       height="167.65285"
       width="407.29782"
       id="rect2403"
       style="opacity:1;fill:#0f47af;fill-opacity:1;stroke:none;stroke-width:1;stroke-linejoin:round;stroke-miterlimit:4;stroke-dasharray:none;stroke-dashoffset:0;stroke-opacity:1" />
    <path
       id="path3175"
       style="fill:#0f47af;fill-rule:evenodd;stroke:none;stroke-width:0.89972704999999986px;stroke-linecap:butt;stroke-linejoin:miter;stroke-opacity:1;fill-opacity:1"
       d="M 751.5745,901.93768 L 751.5745,871.88865 C 724.32038,870.96132 694.2856,841.04233 660.0733,841.26669 C 634.81708,840.79524 597.23303,870.96803 562.42597,872.2777 C 538.82193,874.42553 506.786,841.04233 472.57371,841.26669 C 447.31749,840.79524 409.73344,870.96803 375.73457,872.66675 C 341.73569,870.96803 304.15164,840.79524 278.89542,841.26669 C 244.68313,841.04233 212.6472,874.42553 189.04316,872.2777 C 154.2361,870.96803 116.65205,840.79524 91.395833,841.26669 C 57.18354,841.04233 27.148762,870.96132 -0.10536328,871.88865 L -0.10536328,901.93768 C 25.58738,900.43268 57.18354,871.09136 91.395833,871.31572 C 116.65205,870.84427 154.2361,901.01706 189.04316,902.32673 C 214.02049,903.71745 244.68313,871.09136 278.89542,871.31572 C 304.15164,870.84427 341.73569,901.01706 375.73457,902.71578 C 409.73344,901.01706 447.31749,870.84427 472.57371,871.31572 C 506.786,871.09136 537.44864,903.71745 562.42597,902.32673 C 597.23303,901.01706 634.81708,870.84427 660.0733,871.31572 C 694.2856,871.09136 725.88175,900.43268 751.5745,901.93768 z"
       sodipodi:nodetypes="ccccccccccccccccccc" />
    <path
       sodipodi:nodetypes="ccccccccccccccccccc"
       d="M 751.5745,931.93768 L 751.5745,901.88865 C 724.32038,900.96132 694.2856,871.04233 660.0733,871.26669 C 634.81708,870.79524 597.23303,900.96803 562.42597,902.2777 C 538.82193,904.42553 506.786,871.04233 472.57371,871.26669 C 447.31749,870.79524 409.73344,900.96803 375.73457,902.66675 C 341.73569,900.96803 304.15164,870.79524 278.89542,871.26669 C 244.68313,871.04233 212.6472,904.42553 189.04316,902.2777 C 154.2361,900.96803 116.65205,870.79524 91.395833,871.26669 C 57.18354,871.04233 27.148762,900.96132 -0.10536328,901.88865 L -0.10536328,931.93768 C 25.58738,930.43268 57.18354,901.09136 91.395833,901.31572 C 116.65205,900.84427 154.2361,931.01706 189.04316,932.32673 C 214.02049,933.71745 244.68313,901.09136 278.89542,901.31572 C 304.15164,900.84427 341.73569,931.01706 375.73457,932.71578 C 409.73344,931.01706 447.31749,900.84427 472.57371,901.31572 C 506.786,901.09136 537.44864,933.71745 562.42597,932.32673 C 597.23303,931.01706 634.81708,900.84427 660.0733,901.31572 C 694.2856,901.09136 725.88175,930.43268 751.5745,931.93768 z"
       style="fill:#ffffff;fill-rule:evenodd;stroke:none;stroke-width:0.89972704999999986px;stroke-linecap:butt;stroke-linejoin:miter;stroke-opacity:1"
       id="path3187" />
    <path
       id="path3191"
       style="fill:#89c5e3;fill-rule:evenodd;stroke:none;stroke-width:0.89972704999999986px;stroke-linecap:butt;stroke-linejoin:miter;stroke-opacity:1;fill-opacity:1"
       d="M 751.5745,961.93768 L 751.5745,931.88865 C 724.32038,930.96132 694.2856,901.04233 660.0733,901.26669 C 634.81708,900.79524 597.23303,930.96803 562.42597,932.2777 C 538.82193,934.42553 506.786,901.04233 472.57371,901.26669 C 447.31749,900.79524 409.73344,930.96803 375.73457,932.66675 C 341.73569,930.96803 304.15164,900.79524 278.89542,901.26669 C 244.68313,901.04233 212.6472,934.42553 189.04316,932.2777 C 154.2361,930.96803 116.65205,900.79524 91.395833,901.26669 C 57.18354,901.04233 27.148762,930.96132 -0.10536328,931.88865 L -0.10536328,961.93768 C 25.58738,960.43268 57.18354,931.09136 91.395833,931.31572 C 116.65205,930.84427 154.2361,961.01706 189.04316,962.32673 C 214.02049,963.71745 244.68313,931.09136 278.89542,931.31572 C 304.15164,930.84427 341.73569,961.01706 375.73457,962.71578 C 409.73344,961.01706 447.31749,930.84427 472.57371,931.31572 C 506.786,931.09136 537.44864,963.71745 562.42597,962.32673 C 597.23303,961.01706 634.81708,930.84427 660.0733,931.31572 C 694.2856,931.09136 725.88175,960.43268 751.5745,961.93768 z"
       sodipodi:nodetypes="ccccccccccccccccccc" />
  </g>
</svg>
