<?xml version="1.0" encoding="UTF-8" standalone="no"?>
<!-- Created with Inkscape (http://www.inkscape.org/) -->
<svg
   xmlns:dc="http://purl.org/dc/elements/1.1/"
   xmlns:cc="http://creativecommons.org/ns#"
   xmlns:rdf="http://www.w3.org/1999/02/22-rdf-syntax-ns#"
   xmlns:svg="http://www.w3.org/2000/svg"
   xmlns="http://www.w3.org/2000/svg"
   xmlns:sodipodi="http://sodipodi.sourceforge.net/DTD/sodipodi-0.dtd"
   xmlns:inkscape="http://www.inkscape.org/namespaces/inkscape"
   id="svg1306"
   sodipodi:version="0.32"
   inkscape:version="0.46"
   width="750"
   height="500"
   version="1.0"
   inkscape:output_extension="org.inkscape.output.svg.inkscape"
   sodipodi:docname="Bandera de Santa Bárbara (Antioquia).svg">
  <metadata
     id="metadata1311">
    <rdf:RDF>
      <cc:Work
         rdf:about="">
        <dc:format>image/svg+xml</dc:format>
        <dc:type
           rdf:resource="http://purl.org/dc/dcmitype/StillImage" />
      </cc:Work>
    </rdf:RDF>
  </metadata>
  <defs
     id="defs1309">
    <linearGradient
       id="linearGradient28034">
      <stop
         style="stop-color:#f8eb4b;stop-opacity:1;"
         offset="0"
         id="stop28036" />
      <stop
         id="stop28038"
         offset="0.5"
         style="stop-color:#ffdf1c;stop-opacity:1;" />
      <stop
         style="stop-color:#dbe024;stop-opacity:1;"
         offset="1"
         id="stop28040" />
    </linearGradient>
    <inkscape:perspective
       id="perspective21673"
       inkscape:persp3d-origin="274.99985 : 325 : 1"
       inkscape:vp_z="549.99969 : 487.5 : 1"
       inkscape:vp_y="0 : 1000 : 0"
       inkscape:vp_x="0 : 487.5 : 1"
       sodipodi:type="inkscape:persp3d" />
    <pattern
       id="pattern21675"
       patternTransform="translate(-933.82515,889.86576)"
       height="13.437431"
       width="65.215463"
       patternUnits="userSpaceOnUse">
      <g
         transform="matrix(0.6878384,0,0,0.3317462,499.87808,-497.24216)"
         id="g21677"
         style="fill:#c8c4b7;fill-opacity:1">
        <rect
           ry="0.19331254"
           y="1498.8632"
           x="-726.73767"
           height="40.505154"
           width="94.812187"
           id="rect21679"
           style="fill:#c8c4b7;fill-opacity:1;fill-rule:evenodd;stroke:none;stroke-width:0.97826427;stroke-miterlimit:4;stroke-dasharray:none;stroke-opacity:1" />
        <g
           id="g21681"
           transform="matrix(0.2476524,0,0,0.2476524,-375.1479,1126.8907)"
           style="fill:#c8c4b7;fill-opacity:1">
          <rect
             style="fill:#c8c4b7;fill-opacity:1;fill-rule:evenodd;stroke:#000000;stroke-width:1;stroke-miterlimit:4;stroke-dasharray:none;stroke-opacity:1"
             id="rect21683"
             width="189.90974"
             height="78.198135"
             x="-1418.7375"
             y="1505.7567"
             ry="0.22067831" />
        </g>
      </g>
    </pattern>
    <inkscape:perspective
       sodipodi:type="inkscape:persp3d"
       inkscape:vp_x="0 : 511.5 : 1"
       inkscape:vp_y="0 : 1000 : 0"
       inkscape:vp_z="549.99969 : 511.5 : 1"
       inkscape:persp3d-origin="274.99985 : 341 : 1"
       id="perspective21689" />
  </defs>
  <sodipodi:namedview
     inkscape:window-height="768"
     inkscape:window-width="1024"
     inkscape:pageshadow="2"
     inkscape:pageopacity="0.0"
     borderopacity="1.0"
     bordercolor="#666666"
     pagecolor="#ffffff"
     id="base"
     inkscape:zoom="0.70710678"
     inkscape:cx="37.72922"
     inkscape:cy="246.0159"
     inkscape:window-x="0"
     inkscape:window-y="0"
     inkscape:current-layer="svg1306"
     fill="#ffff00"
     showgrid="true"
     showguides="true"
     inkscape:guide-bbox="true" />
  <g
     id="g3154"
     transform="matrix(0.7025149,0,0,0.6666779,3.6815659,0.6054142)">
    <rect
       y="374.09448"
       x="-5.2329526"
       height="375"
       width="1067.5897"
       id="rect7467"
       style="fill:#da121a;fill-opacity:1;fill-rule:nonzero;stroke:none;stroke-width:0.96600002;stroke-miterlimit:4;stroke-dasharray:none;stroke-opacity:1" />
    <rect
       y="-0.90322274"
       x="-5.2329526"
       height="375"
       width="1067.5897"
       id="rect7469"
       style="fill:#078930;fill-opacity:1;fill-rule:nonzero;stroke:none;stroke-width:0.96600002;stroke-miterlimit:4;stroke-dasharray:none;stroke-opacity:1" />
  </g>
  <path
     style="fill:#ffffff;fill-opacity:1;fill-rule:evenodd;stroke:none;stroke-width:1px;stroke-linecap:butt;stroke-linejoin:miter;stroke-opacity:1"
     d="M 0.0053386565,0.002490712 C 351.02333,250.00667 352.77237,250.008 352.77237,250.008 L 0.06752325,499.99914 L 0.0053386565,0.002490712 z"
     id="path8355"
     sodipodi:nodetypes="cccc" />
  <g
     style="fill:#e3e4e5;fill-opacity:1;stroke:#000000;stroke-width:1.18772316;stroke-opacity:1;display:inline"
     id="g29478"
     transform="matrix(-0.597953,0,0,0.4999347,2380.9612,-55.84788)" />
  <g
     transform="matrix(1.517416,0,0,1.517416,-1149.1667,-412.71799)"
     id="g7924">
    <path
       style="fill:none;fill-rule:evenodd;stroke:#000000;stroke-width:1;stroke-linecap:butt;stroke-linejoin:miter;stroke-miterlimit:4;stroke-dasharray:none;stroke-opacity:1"
       d="M 845.77451,425.24673 C 848.53203,429.90961 845.28961,433.55668 843.37531,435.94798 C 835.74135,445.48409 830.59454,439.30239 831.87231,437.03679 C 834.29783,429.60648 835.94694,421.98836 844.07621,418.41803 C 846.2145,417.93734 848.35278,417.82425 850.49107,415.75821 C 858.26163,412.58071 865.31279,418.75537 872.70841,420.45201 C 879.5251,426.23504 919.5851,402.15135 926.03178,399.42615 L 925.90486,456.43785 C 913.63611,456.85378 900.87467,459.2404 889.76257,455.02971 C 887.03105,457.85282 884.49988,459.07309 882.06247,459.54327"
       id="path5738"
       sodipodi:nodetypes="cccccccscc" />
    <path
       style="fill:none;fill-rule:evenodd;stroke:#000000;stroke-width:1;stroke-linecap:butt;stroke-linejoin:miter;stroke-miterlimit:4;stroke-dasharray:none;stroke-opacity:1"
       d="M 847.76592,417.17044 C 824.53086,419.55547 807.39245,410.61813 790.37846,401.44974 C 784.0723,398.05152 775.99202,396.79305 768.53087,397.87893 L 768.55195,454.1222 C 780.24376,455.45675 803.97104,445.48523 805.94625,445.93529 C 811.33498,451.73911 817.57264,454.65364 823.90694,458.75541"
       id="path5740"
       sodipodi:nodetypes="cscccc" />
    <path
       style="fill:none;fill-rule:evenodd;stroke:#000000;stroke-width:1;stroke-linecap:butt;stroke-linejoin:miter;stroke-miterlimit:4;stroke-dasharray:none;stroke-opacity:1"
       d="M 834.0473,429.94867 C 835.45504,428.69748 839.0922,429.47751 839.36551,430.36506 C 840.04467,432.57055 839.49397,436.09195 836.25998,437.5271"
       id="path5744"
       sodipodi:nodetypes="csc" />
    <path
       style="fill:none;fill-rule:evenodd;stroke:#000000;stroke-width:1;stroke-linecap:butt;stroke-linejoin:miter;stroke-miterlimit:4;stroke-dasharray:none;stroke-opacity:1"
       d="M 864.88541,441.4959 C 866.98307,444.37203 872.29621,444.53198 877.71514,444.23396"
       id="path5746"
       sodipodi:nodetypes="cc" />
    <path
       style="fill:none;fill-rule:evenodd;stroke:#000000;stroke-width:1;stroke-linecap:butt;stroke-linejoin:miter;stroke-miterlimit:4;stroke-dasharray:none;stroke-opacity:1"
       d="M 851.52748,430.22525 C 852.32838,429.74063 852.99622,429.18948 852.63382,428.12321"
       id="path5748"
       sodipodi:nodetypes="cc" />
    <path
       style="fill:none;fill-rule:evenodd;stroke:#000000;stroke-width:1;stroke-linecap:butt;stroke-linejoin:miter;stroke-miterlimit:4;stroke-dasharray:none;stroke-opacity:1"
       d="M 853.96143,430.88906 C 854.40761,430.05545 854.90384,429.42203 855.06777,427.4594"
       id="path5752"
       sodipodi:nodetypes="cc" />
    <path
       style="fill:none;fill-rule:evenodd;stroke:#000000;stroke-width:1;stroke-linecap:butt;stroke-linejoin:miter;stroke-miterlimit:4;stroke-dasharray:none;stroke-opacity:1"
       d="M 846.57957,430.77838 C 850.19042,429.16562 854.60898,429.66114 857.74244,433.20696 C 865.31076,441.77128 874.68001,454.16517 883.50416,460.9752 C 884.44919,465.97831 879.35397,467.91912 876.08823,467.95146"
       id="path5754"
       sodipodi:nodetypes="cscc" />
    <path
       style="fill:none;fill-rule:evenodd;stroke:#000000;stroke-width:1.00001001;stroke-linecap:butt;stroke-linejoin:miter;stroke-miterlimit:4;stroke-dasharray:none;stroke-opacity:1"
       d="M 858.71869,448.36924 C 861.11801,456.88693 871.92191,461.20234 876.30951,468.7259 C 876.6529,475.80979 870.27714,474.16931 866.57371,473.48316"
       id="path5756"
       sodipodi:nodetypes="ccc" />
    <path
       style="fill:none;fill-rule:evenodd;stroke:#000000;stroke-width:1;stroke-linecap:butt;stroke-linejoin:miter;stroke-miterlimit:4;stroke-dasharray:none;stroke-opacity:1"
       d="M 851.85938,460.42835 C 857.79081,464.77487 862.2221,471.31221 867.45878,474.14697 C 866.8051,476.05143 865.20323,476.62029 858.91973,477.14044 C 858.57863,477.16868 857.36463,477.20477 856.97621,476.99579 C 850.74981,473.91926 845.55214,464.61663 841.57285,464.57378"
       id="path5758"
       sodipodi:nodetypes="ccscc" />
    <path
       style="fill:none;fill-rule:evenodd;stroke:#000000;stroke-width:1;stroke-linecap:butt;stroke-linejoin:miter;stroke-miterlimit:4;stroke-dasharray:none;stroke-opacity:1"
       d="M 815.20931,453.23042 C 812.124,459.98199 818.95047,465.62329 823.89284,458.62829"
       id="path5760"
       sodipodi:nodetypes="cc" />
    <path
       style="fill:none;fill-rule:evenodd;stroke:#000000;stroke-width:1;stroke-linecap:butt;stroke-linejoin:miter;stroke-miterlimit:4;stroke-dasharray:none;stroke-opacity:1"
       d="M 826.08329,454.09095 C 830.28476,454.13439 833.90818,462.31662 837.73957,461.99219"
       id="path5762"
       sodipodi:nodetypes="cc" />
    <path
       style="fill:none;fill-rule:evenodd;stroke:#000000;stroke-width:1;stroke-linecap:butt;stroke-linejoin:miter;stroke-miterlimit:4;stroke-dasharray:none;stroke-opacity:1"
       d="M 857.61235,477.13408 C 854.63391,481.46005 846.63346,474.38498 845.49793,475.47458"
       id="path5764"
       sodipodi:nodetypes="cc" />
    <path
       style="fill:none;fill-rule:evenodd;stroke:#000000;stroke-width:1;stroke-linecap:butt;stroke-linejoin:miter;stroke-miterlimit:4;stroke-dasharray:none;stroke-opacity:1"
       d="M 848.54036,476.58092 C 844.40022,478.31947 845.36795,474.09884 844.66817,471.82365 C 843.9749,469.28685 840.97553,466.28966 837.11373,473.7267 C 837.465,482.5103 846.26843,477.66048 847.90948,476.8559"
       id="path5766"
       sodipodi:nodetypes="cccc" />
    <path
       style="fill:none;fill-rule:evenodd;stroke:#000000;stroke-width:1;stroke-linecap:butt;stroke-linejoin:miter;stroke-miterlimit:4;stroke-dasharray:none;stroke-opacity:1"
       d="M 839.07504,473.25406 C 840.36309,474.37136 842.99454,475.68815 842.91033,474.91755 C 843.06956,473.49169 843.47748,471.27445 842.04778,471.06362"
       id="path5768"
       sodipodi:nodetypes="ccc" />
    <path
       style="fill:none;fill-rule:evenodd;stroke:#000000;stroke-width:1;stroke-linecap:butt;stroke-linejoin:miter;stroke-miterlimit:4;stroke-dasharray:none;stroke-opacity:1"
       d="M 841.7293,468.7982 C 842.51504,463.07039 839.21643,459.7793 833.98453,463.55679 L 829.13426,468.87643 C 828.32554,469.46822 830.10581,476.35057 836.87904,474.11785"
       id="path5770"
       sodipodi:nodetypes="cccc" />
    <path
       style="fill:none;fill-rule:evenodd;stroke:#000000;stroke-width:1;stroke-linecap:butt;stroke-linejoin:miter;stroke-miterlimit:4;stroke-dasharray:none;stroke-opacity:1"
       d="M 835.62736,464.33909 C 838.00819,465.44947 839.06029,466.80145 839.14771,468.32882 C 835.95328,471.07868 835.10425,469.37226 833.9063,468.32882"
       id="path5772"
       sodipodi:nodetypes="ccc" />
    <path
       style="fill:none;fill-rule:evenodd;stroke:#000000;stroke-width:1;stroke-linecap:butt;stroke-linejoin:miter;stroke-miterlimit:4;stroke-dasharray:none;stroke-opacity:1"
       d="M 823.81461,458.55006 C 832.59475,453.30883 834.86403,462.51181 833.43691,464.02617"
       id="path5774"
       sodipodi:nodetypes="cc" />
    <path
       style="fill:none;fill-rule:evenodd;stroke:#000000;stroke-width:1;stroke-linecap:butt;stroke-linejoin:miter;stroke-miterlimit:4;stroke-dasharray:none;stroke-opacity:1"
       d="M 822.11023,460.48127 C 817.13297,468.6776 826.03771,472.41452 829.29072,468.7982"
       id="path5776"
       sodipodi:nodetypes="cc" />
    <path
       style="fill:none;fill-rule:evenodd;stroke:#000000;stroke-width:1;stroke-linecap:butt;stroke-linejoin:miter;stroke-miterlimit:4;stroke-dasharray:none;stroke-opacity:1"
       d="M 827.51989,459.76454 C 829.68764,460.25201 831.06498,461.52989 832.05589,463.1942 C 829.37121,467.51192 827.38528,465.00284 826.91141,463.80268"
       id="path5778"
       sodipodi:nodetypes="ccc" />
    <path
       style="fill:none;fill-rule:evenodd;stroke:#000000;stroke-width:1;stroke-linecap:butt;stroke-linejoin:miter;stroke-miterlimit:4;stroke-dasharray:none;stroke-opacity:1"
       d="M 868.2493,445.79856 C 870.6025,447.72378 872.64764,447.95461 874.58594,447.59785"
       id="path5780"
       sodipodi:nodetypes="cc" />
    <path
       style="fill:none;fill-rule:evenodd;stroke:#000000;stroke-width:1;stroke-linecap:butt;stroke-linejoin:miter;stroke-miterlimit:4;stroke-dasharray:none;stroke-opacity:1"
       d="M 871.44161,449.36494 C 872.32297,450.04714 873.01197,450.24843 873.59897,450.1947"
       id="path5782"
       sodipodi:nodetypes="cc" />
    <path
       style="fill:none;fill-rule:evenodd;stroke:#000000;stroke-width:1;stroke-linecap:butt;stroke-linejoin:miter;stroke-miterlimit:4;stroke-dasharray:none;stroke-opacity:1"
       d="M 849.02829,469.9684 C 852.27518,471.97341 853.91247,472.2347 854.66085,471.533"
       id="path5784"
       sodipodi:nodetypes="cc" />
    <path
       style="fill:none;fill-rule:evenodd;stroke:#000000;stroke-width:1;stroke-linecap:butt;stroke-linejoin:miter;stroke-miterlimit:4;stroke-dasharray:none;stroke-opacity:1"
       d="M 860.07771,468.03163 C 862.2844,469.14309 864.87027,470.63375 865.08444,469.75269"
       id="path5786"
       sodipodi:nodetypes="cc" />
    <path
       style="fill:none;fill-rule:evenodd;stroke:#000000;stroke-width:1;stroke-linecap:butt;stroke-linejoin:miter;stroke-miterlimit:4;stroke-dasharray:none;stroke-opacity:1"
       d="M 873.86478,465.34876 C 876.3323,466.70899 877.38867,466.7992 877.77628,466.28752"
       id="path5788"
       sodipodi:nodetypes="cc" />
    <path
       style="fill:#ffba8d;fill-opacity:1;stroke:#000000;stroke-width:0.15225908;stroke-miterlimit:4;stroke-dasharray:none;stroke-dashoffset:0;stroke-opacity:1"
       d="M 856.33739,475.96635 C 855.1121,475.22752 853.94271,474.31137 852.67088,473.09386 C 851.86777,472.32504 851.69889,472.09842 851.98571,472.17438 C 852.81768,472.39473 854.12919,472.43162 854.57447,472.24718 C 855.11664,472.02261 855.11492,472.03168 854.7203,471.4775 C 854.44737,471.09419 854.36539,471.06151 854.04413,471.20788 C 853.40875,471.49738 852.41332,471.15709 849.79796,469.75634 C 849.39025,469.53797 848.31888,468.64651 847.41714,467.77532 C 844.90008,465.34353 843.56388,464.38569 842.31108,464.11512 C 841.99128,464.04606 841.75894,463.84955 841.55973,463.47965 C 841.20087,462.81327 840.24073,461.933 839.56467,461.65052 C 839.28351,461.53304 838.62304,461.43392 838.09696,461.43024 C 837.57088,461.42657 836.88415,461.33208 836.57088,461.22028 C 835.76929,460.93418 834.28844,459.66977 831.79544,457.14277 C 829.51968,454.83597 828.35524,453.99318 826.99198,453.66614 C 826.57701,453.56659 826.20044,453.52219 826.15516,453.56747 C 826.10987,453.61276 826.06218,453.86833 826.04918,454.13542 C 826.02704,454.59017 826.06975,454.63246 826.72146,454.80106 C 827.50385,455.00347 828.62973,455.62057 829.03631,456.06984 C 829.30128,456.36262 829.28647,456.36939 828.1987,456.45243 C 827.00899,456.54325 825.5395,456.98274 824.41014,457.5855 L 823.7083,457.96009 L 818.98159,455.03024 C 814.87929,452.61945 810.76204,450.14885 806.05188,445.30659 C 802.29715,445.98446 798.67313,447.3279 795.04082,448.46686 C 786.56674,451.13341 780.02816,452.75048 775.24713,453.36206 C 773.41163,453.59686 769.24768,453.84401 769.00712,453.67612 C 768.601,435.92153 769.13073,418.42375 768.93935,398.90812 C 768.57931,398.09329 769.78763,398.07947 770.85567,398.01077 C 772.39024,397.91207 777.2522,398.16222 778.90135,398.38483 C 783.75457,399.03991 786.49801,400.03771 793.09178,403.54594 C 798.49093,406.41856 804.25958,409.27108 807.52606,410.68349 C 819.34524,415.79405 829.31721,418.0697 839.84661,418.05921 L 843.46633,418.05561 L 842.58932,418.51694 C 841.19056,419.25273 839.38538,420.62399 838.36284,421.72746 C 835.78765,424.50649 834.23688,427.69319 831.95935,434.88609 C 830.9658,438.02391 830.94508,438.49929 831.74892,439.71288 C 832.61486,441.0202 834.27971,441.75304 836.04492,441.6039 C 838.07671,441.43224 839.85743,440.40549 842.165,438.0751 C 844.02731,436.19437 845.52074,434.2351 846.43432,432.47409 C 847.10899,431.1736 847.13951,431.14103 847.91765,430.8914 C 848.40962,430.73358 849.34988,430.62041 850.38699,430.59421 C 852.25742,430.54694 853.58598,430.86058 854.98583,431.67987 C 856.20508,432.39347 857.14639,433.40046 862.6626,439.89227 C 865.58006,443.32571 868.30243,446.51173 868.7123,446.97231 C 869.12218,447.4329 870.33429,448.80323 871.40589,450.0175 C 873.93876,452.8876 879.6661,458.58978 881.57579,460.14272 L 883.07367,461.3608 L 883.00593,462.366 C 882.88231,464.20043 881.93947,465.45852 879.95691,466.43453 C 879.04069,466.88558 877.20505,467.37503 876.42963,467.37503 C 876.2347,467.37503 876.04088,467.28554 875.99891,467.17616 C 875.94013,467.02298 876.12007,466.99075 876.78198,467.03588 C 877.39009,467.07735 877.7304,467.02677 877.94588,466.86289 C 878.24898,466.63238 878.24882,466.62969 877.91067,466.28701 C 877.68342,466.05672 877.37781,465.93787 876.98769,465.92809 C 875.98036,465.90281 874.27545,464.95082 872.99448,463.69833 C 872.36477,463.08263 870.82575,461.68815 869.57444,460.5995 C 864.81939,456.46255 863.06633,454.7417 861.54219,452.71482 C 860.92987,451.90054 859.73382,449.63673 859.45342,448.76136 C 859.25421,448.13944 859.2058,448.11573 858.60296,448.34493 C 858.08364,448.54238 858.139,448.80291 859.13844,450.86503 C 860.51981,453.71521 862.46675,455.93661 867.13549,459.98947 C 872.00957,464.22058 873.82349,466.04651 875.25599,468.16376 C 875.80669,468.97769 875.88014,469.7477 875.52094,470.94122 C 875.18684,472.05136 874.69235,472.66469 873.75876,473.12691 C 872.99242,473.50633 872.78562,473.53924 871.32261,473.51462 C 870.44332,473.49983 868.98205,473.34991 868.07535,473.18148 C 866.32047,472.85549 865.93386,472.64371 864.11855,471.01396 L 863.48127,470.44182 L 864.32331,470.52499 C 864.99581,470.59142 865.20805,470.55671 865.37747,470.35257 C 865.56339,470.12855 865.54012,470.0511 865.18918,469.72568 C 864.96895,469.52147 864.62462,469.3544 864.424,469.3544 C 864.22338,469.3544 863.28072,468.97232 862.32921,468.50533 C 860.63332,467.67302 860.54621,467.60439 857.91545,465.02775 C 855.32819,462.49372 852.51352,460.06659 852.16214,460.06659 C 851.91437,460.06659 851.45798,460.82124 851.6205,460.96221 C 851.69575,461.02749 852.30546,461.52009 852.9754,462.05688 C 853.64534,462.59367 856.11193,464.91777 858.45672,467.22156 C 862.7073,471.39779 864.21696,472.74439 865.88323,473.84589 L 866.76259,474.42721 L 866.41613,474.79819 C 865.95413,475.29291 865.48507,475.52317 864.32918,475.82269 C 863.07036,476.14888 859.99966,476.50768 858.45672,476.50886 C 857.32918,476.50972 857.17166,476.4694 856.33739,475.96635 L 856.33739,475.96635 z"
       id="path7906"
       sodipodi:nodetypes="cssssssssssssssssssscccccsccsssscccsssssssssssscccssssssssssssssssssscccssssssssscccsscc" />
    <path
       style="fill:#ffba8d;fill-opacity:1;stroke:#000000;stroke-width:0.10766343;stroke-miterlimit:4;stroke-dasharray:none;stroke-dashoffset:0;stroke-opacity:1"
       d="M 880.98159,458.15847 C 880.45632,457.70715 878.58521,455.88214 876.82357,454.10289 L 873.62058,450.86789 L 873.62058,450.24011 C 873.62058,449.61253 873.62048,449.61233 873.2933,449.61233 C 873.1133,449.61233 872.78627,449.51998 872.56658,449.4071 C 872.13072,449.18315 870.95089,447.90011 871.30619,448.03646 C 871.96762,448.29027 874.49911,448.33849 874.64645,448.10008 C 874.67379,448.05585 874.66722,447.80856 874.63185,447.55053 L 874.56755,447.08141 L 873.3648,447.11958 C 872.28746,447.15378 872.0725,447.12774 871.30328,446.86984 C 869.99102,446.42987 869.4102,446.04585 868.56736,445.06094 C 868.15439,444.57836 867.82988,444.17015 867.84623,444.1538 C 867.86257,444.13746 868.3905,444.24035 869.0194,444.38245 C 870.71388,444.76533 872.65207,444.90985 875.35129,444.85458 C 876.64795,444.82803 877.73737,444.77779 877.77223,444.74293 C 877.80709,444.70807 877.8022,444.45675 877.76137,444.18445 L 877.68712,443.68934 L 875.7346,443.75841 C 872.04336,443.88897 868.94416,443.47623 867.21461,442.62375 C 866.11532,442.08192 865.66552,441.64248 863.07233,438.57683 C 857.8339,432.384 857.08464,431.59734 855.59503,430.72619 L 854.9129,430.32725 L 855.12537,429.76868 C 855.37318,429.11722 855.65548,427.62799 855.55105,427.52305 C 855.51159,427.48338 855.26534,427.43493 855.00384,427.41538 L 854.52838,427.37983 L 854.3916,428.18083 C 854.20662,429.26403 853.94194,429.94208 853.73508,429.8627 C 853.64714,429.82895 853.45567,429.77135 853.3096,429.73469 C 853.11591,429.68607 853.06414,429.62063 853.11833,429.4929 C 853.24184,429.20182 853.28825,428.25073 853.18626,428.10074 C 853.10995,427.98851 852.9912,427.98542 852.59434,428.08535 C 852.12928,428.20245 852.10167,428.22924 852.15762,428.50899 C 852.19452,428.69352 852.15017,428.91014 852.04155,429.07592 C 851.87171,429.33512 851.81566,429.34612 850.38879,429.40028 C 849.43567,429.43646 848.63498,429.53002 848.13127,429.66406 L 847.35071,429.87178 L 847.34687,428.89496 C 847.34311,427.93557 847.20746,427.16745 846.88733,426.29273 C 846.70056,425.7824 846.29086,424.95741 846.22421,424.95741 C 846.19001,424.95741 845.56782,425.29663 845.33107,425.44435 C 845.31574,425.45391 845.44962,425.78467 845.62858,426.17935 C 846.91905,429.02544 846.31174,431.40626 843.35944,435.0749 C 840.80069,438.25452 838.64584,439.93996 836.54067,440.40832 C 835.50271,440.63924 834.77183,440.56022 833.89558,440.12235 C 833.24529,439.7974 832.66475,439.20339 832.40646,438.59868 C 832.25247,438.23817 832.23889,437.55171 832.37897,437.20919 C 832.43459,437.07317 832.97548,435.44207 833.58093,433.58452 L 834.68176,430.20716 L 835.05181,430.05255 C 835.75664,429.75805 837.39523,429.85922 838.3272,430.25478 C 838.79778,430.45451 838.83964,430.50505 838.94626,431.00224 C 839.28984,432.60429 838.79196,434.58951 837.7496,435.77369 C 837.51517,436.04001 837.03597,436.4353 836.68471,436.65211 C 836.33344,436.86892 836.04605,437.08623 836.04605,437.13502 C 836.04605,437.33641 836.41818,437.98468 836.53378,437.98468 C 836.94949,437.98468 838.55102,436.65072 839.07853,435.86508 C 840.27598,434.08168 840.5209,430.5832 839.51144,429.68125 C 838.85957,429.0988 836.92754,428.62861 835.81491,428.78163 C 835.5235,428.82171 835.2924,428.8106 835.2924,428.7565 C 835.2924,428.49556 836.7757,425.70453 837.46255,424.67305 C 838.50592,423.10618 840.342,421.25893 841.80604,420.30314 C 843.27167,419.34631 844.16107,418.96509 845.67356,418.64542 C 847.80652,418.19462 849.01762,417.68152 850.1818,416.73546 C 850.8082,416.22641 851.3492,415.98276 852.39837,415.73714 C 853.51481,415.47578 854.82678,415.39268 856.15758,415.49902 C 858.34802,415.67406 860.25223,416.23437 864.02736,417.81468 C 867.97239,419.46611 869.50582,420.06439 870.87517,420.4864 C 871.58575,420.70539 872.45782,421.02442 872.81311,421.19536 C 873.81104,421.67548 874.59923,421.83517 875.97107,421.83517 C 879.07065,421.83517 882.99579,420.7973 889.01645,418.38576 C 895.55991,415.76481 902.5869,412.3743 913.77904,406.43785 C 923.77537,401.13568 925.35219,400.30378 925.40721,400.30313 C 925.46761,400.30241 925.41732,455.62598 925.35675,455.81319 C 925.33263,455.88772 924.69154,455.95835 923.61312,456.00529 C 922.6751,456.04612 919.7759,456.22182 917.17044,456.39575 C 906.81766,457.08682 902.11221,457.08665 897.4142,456.39506 C 895.20875,456.07039 892.45873,455.40404 890.76289,454.78339 C 890.27266,454.60398 889.79429,454.45719 889.69985,454.45719 C 889.60541,454.45719 889.07687,454.8886 888.52531,455.41589 C 887.43536,456.4579 885.80078,457.60716 884.7035,458.10299 C 883.98831,458.42617 882.33235,458.97905 882.07958,458.97905 C 882.00096,458.97905 881.50686,458.60979 880.98159,458.15847 L 880.98159,458.15847 z"
       id="path7908" />
    <path
       style="fill:#ffba8d;fill-opacity:1;stroke:#000000;stroke-width:0.05383172;stroke-miterlimit:4;stroke-dasharray:none;stroke-dashoffset:0;stroke-opacity:1"
       d="M 818.18494,461.239 C 816.7233,460.90495 815.59953,459.72793 815.14834,458.05853 C 814.99783,457.50162 814.94361,456.2721 815.04046,455.61209 C 815.1081,455.15107 815.33725,454.27033 815.40835,454.19804 C 815.42914,454.1769 815.70017,454.31915 816.01064,454.51414 C 816.3211,454.70913 817.65239,455.52252 818.96906,456.32168 C 820.28573,457.12084 821.74556,458.0165 822.21312,458.31204 L 823.06323,458.84939 L 822.85127,459.09994 C 822.5202,459.49127 821.9406,460.03573 821.52763,460.34333 C 821.07792,460.67831 820.30631,461.06689 819.85885,461.18372 C 819.39995,461.30355 818.5851,461.33046 818.18494,461.239 L 818.18494,461.239 z"
       id="path7910" />
    <path
       style="fill:#ffba8d;fill-opacity:1;stroke:#000000;stroke-width:0.03806477;stroke-miterlimit:4;stroke-dasharray:none;stroke-dashoffset:0;stroke-opacity:1"
       d="M 834.3437,462.43454 C 834.3437,462.07448 834.23745,461.36755 834.12655,460.98977 C 834.11033,460.93451 834.16023,460.96101 834.30962,461.08699 C 834.64299,461.3681 834.95108,461.59191 835.28979,461.79902 L 835.60781,461.99347 L 835.30579,462.14532 C 835.02625,462.28586 834.77543,462.42614 834.46741,462.61417 L 834.3437,462.68969 L 834.3437,462.43454 z"
       id="path7912" />
    <path
       style="fill:#ffba8d;fill-opacity:1;stroke:#000000;stroke-width:0.03806477;stroke-miterlimit:4;stroke-dasharray:none;stroke-dashoffset:0;stroke-opacity:1"
       d="M 825.17009,469.59264 C 823.66554,469.33495 822.40516,468.49242 821.72445,467.28932 C 821.07169,466.13561 820.98451,464.69367 821.47129,463.1022 C 821.62032,462.61498 821.77547,462.23748 822.07821,461.6255 L 822.33215,461.11219 L 823.0213,460.42283 C 823.63018,459.81377 824.29461,459.02836 824.29461,458.91768 C 824.29461,458.86567 824.59011,458.69589 825.17009,458.41468 C 826.97637,457.53889 828.47179,457.28487 829.83031,457.62308 C 829.99929,457.66515 830.3431,457.80095 830.59432,457.92487 C 831.49466,458.36897 832.17293,459.06973 832.68036,460.0801 C 833.28881,461.29159 833.48817,462.79992 833.13515,463.52091 C 833.07877,463.63606 833.03641,463.74829 833.04101,463.77032 C 833.04562,463.79234 832.0602,464.89502 830.8512,466.22071 C 829.6422,467.54641 828.63454,468.66459 828.61195,468.70557 C 828.56295,468.79445 828.15819,469.08371 827.89207,469.22002 C 827.59861,469.37034 827.1232,469.52385 826.74789,469.5895 C 826.34152,469.66058 825.57569,469.6621 825.17009,469.59264 L 825.17009,469.59264 z M 829.5336,466.0905 C 830.24097,465.95516 831.00306,465.42521 831.69594,464.58682 C 831.92018,464.3155 832.66885,463.24827 832.66885,463.19994 C 832.66885,463.14818 831.93404,462.07088 831.70644,461.78896 C 831.42101,461.43542 830.77802,460.80605 830.42261,460.53234 C 830.04708,460.24314 829.44462,459.8946 828.98786,459.70231 C 828.49723,459.49576 827.68146,459.24306 827.64054,459.28495 C 827.60973,459.3165 827.36644,460.25115 827.38564,460.26423 C 827.39183,460.26844 827.53952,460.3092 827.71385,460.3548 C 828.72965,460.62052 829.62505,461.13486 830.38266,461.88783 C 830.75992,462.26279 831.18009,462.77347 831.3368,463.04749 L 831.42524,463.20213 L 831.26434,463.43906 C 830.50175,464.56202 829.58335,465.20751 828.92211,465.08527 C 828.38146,464.98533 827.82427,464.4886 827.47692,463.79688 C 827.42173,463.68697 827.36654,463.59704 827.35427,463.59704 C 827.33503,463.59704 826.45982,463.97592 826.43681,463.99422 C 826.41198,464.01396 826.67591,464.50768 826.849,464.76527 C 827.33433,465.48755 828.04109,465.99161 828.72989,466.10674 C 829.02419,466.15593 829.21142,466.15214 829.5336,466.0905 L 829.5336,466.0905 z"
       id="path7914" />
    <path
       style="fill:#ffba8d;fill-opacity:1;stroke:#000000;stroke-width:0.03806477;stroke-miterlimit:4;stroke-dasharray:none;stroke-dashoffset:0;stroke-opacity:1"
       d="M 833.46723,473.97069 C 832.17194,473.75235 831.02098,472.9785 830.28851,471.83347 C 829.9423,471.29225 829.63641,470.54308 829.52598,469.96587 C 829.44363,469.53549 829.45298,469.37541 829.56669,469.26858 C 829.6191,469.21935 829.65764,469.15907 829.65234,469.13464 C 829.64704,469.11021 830.6947,467.93561 831.98047,466.52443 C 834.08806,464.21129 834.35042,463.93684 834.64501,463.73708 C 836.18013,462.69611 837.70476,462.2645 838.82529,462.55367 C 840.15819,462.89764 841.02734,464.19168 841.27394,466.19933 C 841.32022,466.57617 841.30231,468.25429 841.24962,468.47686 C 841.22914,468.56339 841.18618,468.59219 840.97651,468.65992 C 839.75615,469.05418 838.53237,470.27593 837.31303,472.31734 C 837.09306,472.68563 836.836,473.14165 836.74178,473.33074 C 836.63054,473.55401 836.54381,473.68165 836.49436,473.69485 C 835.95834,473.83793 835.59013,473.91999 835.26703,473.96839 C 834.80071,474.03823 833.87492,474.03941 833.46723,473.97069 L 833.46723,473.97069 z M 836.68721,470.2945 C 837.46392,470.15693 838.22654,469.7424 839.3067,468.87067 L 839.68197,468.56782 L 839.65652,468.2426 C 839.52356,466.54351 838.38076,465.143 836.25894,464.07886 L 835.84249,463.87001 L 835.626,464.30491 C 835.50694,464.54411 835.40952,464.75661 835.40952,464.77712 C 835.40952,464.79763 835.5837,464.90183 835.7966,465.00866 C 836.59001,465.40682 837.18428,465.82939 837.68359,466.35047 C 838.15275,466.84008 838.42944,467.31608 838.55195,467.84433 C 838.60903,468.09042 838.60869,468.09417 838.52268,468.16852 C 838.27671,468.38117 837.62056,468.82197 837.32476,468.97329 C 836.84831,469.21702 836.62423,469.28237 836.26598,469.28205 C 835.76937,469.2816 835.54035,469.14969 834.75392,468.41123 L 834.24854,467.93668 L 833.89832,468.30768 C 833.70569,468.51173 833.55153,468.68764 833.55574,468.69858 C 833.57778,468.75596 834.5147,469.61348 834.74547,469.78748 C 835.34204,470.2373 836.01624,470.41334 836.68721,470.2945 L 836.68721,470.2945 z"
       id="path7916" />
    <path
       style="fill:#ffba8d;fill-opacity:1;stroke:#000000;stroke-width:0.03806477;stroke-miterlimit:4;stroke-dasharray:none;stroke-dashoffset:0;stroke-opacity:1"
       d="M 840.84697,478.36733 C 839.12375,478.14809 838.12245,477.04931 837.76848,474.98913 C 837.72813,474.75427 837.68391,474.40281 837.67023,474.2081 C 837.64596,473.86295 837.64838,473.84808 837.7666,473.61389 C 837.9401,473.27017 838.34766,472.58854 838.65769,472.12355 C 839.55548,470.77702 840.52711,469.87342 841.34044,469.62864 C 842.00448,469.4288 842.58983,469.59541 843.13538,470.13956 C 843.58309,470.58613 843.89622,471.12108 844.11927,471.82041 C 844.272,472.29927 844.33149,472.63626 844.46848,473.7984 C 844.53141,474.33226 844.60903,474.91643 844.64099,475.09656 C 844.81741,476.09102 845.14923,476.7593 845.6417,477.11194 L 845.84938,477.26066 L 845.66352,477.34157 C 844.65153,477.78209 843.34911,478.17639 842.47088,478.30812 C 841.99251,478.37987 841.17874,478.40954 840.84697,478.36733 L 840.84697,478.36733 z M 842.92485,475.62215 C 843.03491,475.59444 843.13976,475.52832 843.24177,475.42231 L 843.39421,475.26389 L 843.48432,474.5026 C 843.60107,473.51607 843.6114,472.3161 843.50644,471.93322 C 843.34202,471.33343 843.04042,470.91563 842.62983,470.71884 C 842.50035,470.65679 842.34107,470.59546 842.27588,470.58257 L 842.15735,470.55912 L 842.03715,471.03911 C 841.97104,471.30311 841.92689,471.5352 841.93905,471.55487 C 841.9512,471.57455 841.99641,471.59064 842.03951,471.59064 C 842.08261,471.59064 842.18287,471.65564 842.26232,471.73509 C 842.48721,471.95997 842.54642,472.20743 842.54655,472.92291 C 842.54666,473.49058 842.46388,474.54755 842.41704,474.5765 C 842.3721,474.60427 841.58557,474.26153 841.1573,474.02755 C 840.62151,473.73482 840.17005,473.44488 839.76793,473.13527 C 839.60045,473.00632 839.44321,472.88839 839.41852,472.8732 C 839.38997,472.85566 839.26171,472.98771 839.06642,473.23569 C 838.89745,473.45024 838.75922,473.63665 838.75922,473.64992 C 838.75922,473.68899 839.43194,474.18896 839.84406,474.45618 C 840.36866,474.79634 841.15705,475.21504 841.62088,475.39983 C 842.25315,475.65172 842.58364,475.70807 842.92485,475.62215 L 842.92485,475.62215 z"
       id="path7918" />
    <path
       style="fill:#ffba8d;fill-opacity:1;stroke:#000000;stroke-width:0.02691586;stroke-miterlimit:4;stroke-dasharray:none;stroke-dashoffset:0;stroke-opacity:1"
       d="M 854.37328,478.01666 C 853.84943,477.97292 853.20384,477.8287 852.51608,477.60175 C 851.60728,477.30186 850.88114,476.98441 849.00356,476.06616 C 847.62185,475.39042 846.98941,475.10839 846.56768,474.97993 C 846.25806,474.88561 845.89893,474.8285 845.74515,474.84913 C 845.68681,474.85695 845.63908,474.85837 845.63908,474.85228 C 845.63908,474.84619 845.62149,474.72319 845.59999,474.57896 C 845.57849,474.43472 845.53559,474.08052 845.50467,473.79184 C 845.39836,472.79955 845.31364,472.24972 845.20608,471.8539 C 844.92486,470.81903 844.51158,470.05355 843.90346,469.44117 C 843.45698,468.99156 843.02113,468.7295 842.49683,468.59541 C 842.3844,468.56665 842.28897,468.53968 842.28476,468.53546 C 842.28054,468.53125 842.28857,468.4253 842.3026,468.30001 C 842.34827,467.89213 842.36397,466.88421 842.3311,466.47073 C 842.29906,466.06781 842.24283,465.64026 842.18332,465.34699 C 842.16455,465.25447 842.15827,465.17877 842.16938,465.17877 C 842.18048,465.17877 842.29651,465.21636 842.42722,465.2623 C 843.14165,465.51341 844.00694,466.08833 845.06039,467.01183 C 845.56999,467.45858 847.25354,469.14622 848.42736,470.38699 C 850.17842,472.23793 851.69444,473.74406 852.65105,474.58313 C 854.00274,475.76872 855.26109,476.67211 856.38548,477.26414 L 856.67975,477.41908 L 856.50464,477.54403 C 856.12082,477.81792 855.64793,477.97182 855.04998,478.01744 C 854.85544,478.03228 854.6781,478.04272 854.65589,478.04065 C 854.63369,478.03858 854.50651,478.02778 854.37328,478.01666 L 854.37328,478.01666 z"
       id="path7920" />
    <path
       style="fill:#ffba8d;fill-opacity:1;stroke:#000000;stroke-width:0.02691586;stroke-miterlimit:4;stroke-dasharray:none;stroke-dashoffset:0;stroke-opacity:1"
       d="M 846.64223,476.45654 C 846.48649,476.42378 846.31544,476.34475 846.21319,476.25832 C 846.12688,476.18535 845.96207,475.95714 845.96207,475.91059 C 845.96207,475.84482 846.32438,475.96025 846.9408,476.22242 C 847.36575,476.40315 847.3889,476.41664 847.30417,476.43423 C 847.14096,476.46809 846.75843,476.48098 846.64223,476.45654 L 846.64223,476.45654 z"
       id="path7922" />
  </g>
</svg>
