<?xml version="1.0" encoding="UTF-8"?>
<svg id="svg10" width="1e3" height="500" version="1.1" xmlns="http://www.w3.org/2000/svg" xmlns:cc="http://creativecommons.org/ns#" xmlns:dc="http://purl.org/dc/elements/1.1/" xmlns:rdf="http://www.w3.org/1999/02/22-rdf-syntax-ns#">
 <metadata id="metadata16">
  <rdf:RDF>
   <cc:Work rdf:about="">
    <dc:format>image/svg+xml</dc:format>
    <dc:type rdf:resource="http://purl.org/dc/dcmitype/StillImage"/>
   </cc:Work>
  </rdf:RDF>
 </metadata>
 <g>
  <rect id="rect2" width="1e3" height="500" fill="#058732"/>
  <rect id="rect4" y="200" width="1e3" height="100" fill="#0f46af"/>
  <rect id="rect6" width="250" height="500" fill="#fadc0a"/>
  <path id="path8" d="m138.4 205.7-4 39.3c-0.6 6.8-0.9 13.6-0.9 20.5 0 13 1.5 20.9 4.5 23.8 3.1 2.7 6.6 4.1 10.5 4.1 8.8 0 14-5.6 15.6-16.6h5.1c-3 25.4-13.1 38-30.3 38-17.9 0-26.9-10.3-26.9-30.9 0-10.4 1-23.3 3-38.8l5.1-39.4h-13.6c-7.4 0-13.3 1.3-17.5 3.9-4.1 2.4-7.9 7.4-11.4 15h-5c3-10 6.4-18 10.4-23.8 4-5.9 7.9-9.9 11.5-11.9 3.7-2.1 9.1-3.1 16.3-3.1h67.2v19.9h-39.6" fill="#000000"/>
 </g>
</svg>
