<?xml version="1.0" encoding="UTF-8" standalone="no"?>
<!-- Created with Inkscape (http://www.inkscape.org/) -->
<svg
   xmlns:dc="http://purl.org/dc/elements/1.1/"
   xmlns:cc="http://creativecommons.org/ns#"
   xmlns:rdf="http://www.w3.org/1999/02/22-rdf-syntax-ns#"
   xmlns:svg="http://www.w3.org/2000/svg"
   xmlns="http://www.w3.org/2000/svg"
   xmlns:sodipodi="http://sodipodi.sourceforge.net/DTD/sodipodi-0.dtd"
   xmlns:inkscape="http://www.inkscape.org/namespaces/inkscape"
   width="900"
   height="600"
   id="svg2"
   version="1.1"
   inkscape:version="0.46"
   sodipodi:docname="Flag_of_Santa Helena del Opón_(Santander).svg"
   sodipodi:version="0.32"
   inkscape:output_extension="org.inkscape.output.svg.inkscape">
  <defs
     id="defs4" />
  <sodipodi:namedview
     id="base"
     pagecolor="#ffffff"
     bordercolor="#666666"
     borderopacity="1.0"
     inkscape:pageopacity="0.0"
     inkscape:pageshadow="2"
     inkscape:zoom="0.845"
     inkscape:cx="450"
     inkscape:cy="300"
     inkscape:document-units="px"
     inkscape:current-layer="layer1"
     showgrid="false"
     inkscape:window-width="1024"
     inkscape:window-height="712"
     inkscape:window-x="-4"
     inkscape:window-y="-4"
     inkscape:window-maximized="1"
     showguides="true"
     inkscape:guide-bbox="true" />
  <metadata
     id="metadata7">
    <rdf:RDF>
      <cc:Work
         rdf:about="">
        <dc:format>image/svg+xml</dc:format>
        <dc:type
           rdf:resource="http://purl.org/dc/dcmitype/StillImage" />
        <dc:title />
      </cc:Work>
    </rdf:RDF>
  </metadata>
  <g
     inkscape:label="Capa 1"
     inkscape:groupmode="layer"
     id="layer1"
     transform="translate(0,-452.36218)">
    <rect
       style="opacity:0;fill:#ffffff;fill-opacity:1;stroke:none"
       id="rect3616"
       width="900.15607"
       height="594.28485"
       x="1.2655785"
       y="453.7912" />
    <rect
       style="opacity:0;fill:#ffffff;fill-opacity:1;stroke:none"
       id="rect3620"
       width="898.72272"
       height="291.4281"
       x="2.6989484"
       y="758.07648" />
    <rect
       style="fill:#078930;fill-opacity:1;stroke:none;stroke-width:0.09980190999999999;stroke-miterlimit:4;stroke-opacity:1;stroke-dasharray:none"
       id="rect3622"
       width="900.0459"
       height="600.02759"
       x="0"
       y="452.33157"
       ry="0" />
    <path
       style="fill:#0f47af;fill-opacity:1;stroke:none"
       d="M 0,452.33157 L 0,1052.3874 L 900.75777,752.34687 L 0,452.33157 z"
       id="path3626"
       sodipodi:nodetypes="cccc" />
    <path
       sodipodi:nodetypes="cccc"
       id="path2388"
       d="M -0.069761953,542.33994 L -0.069761953,962.37903 L 630.46067,752.35065 L -0.069761953,542.33994 z"
       style="fill:#ffffff;fill-opacity:1;stroke:none" />
    <path
       sodipodi:type="star"
       style="fill:#fcdd09;fill-opacity:1;stroke:none;stroke-opacity:1"
       id="path3651"
       sodipodi:sides="6"
       sodipodi:cx="38.57143"
       sodipodi:cy="271.42856"
       sodipodi:r1="56.43309"
       sodipodi:r2="32.789165"
       sodipodi:arg1="-1.5834539"
       sodipodi:arg2="-1.0857924"
       inkscape:flatsided="false"
       inkscape:rounded="0"
       inkscape:randomized="0"
       d="M 37.857143,214.99999 L 53.858127,242.42087 L 87.082862,242.59568 L 71.336178,270.16338 L 87.797148,299.02425 L 56.049481,299.17107 L 39.285717,327.85713 L 23.284733,300.43625 L -9.9400011,300.26143 L 5.8066824,272.69374 L -10.654288,243.83286 L 21.093379,243.68604 L 37.857143,214.99999 z"
       transform="matrix(0.6181131,0,0,0.6181131,29.442523,453.29857)"
       inkscape:transform-center-y="-15.013617" />
    <path
       style="fill:#da121a;fill-opacity:1;stroke:none"
       d="M -0.069761953,718.33994 L -0.069761953,784.37903 L 532.91713,784.8422 L 630.46067,752.35065 L 532.56839,719.74567 L -0.069761953,718.33994 z"
       id="path3160"
       sodipodi:nodetypes="cccccc" />
    <path
       sodipodi:type="star"
       style="fill:#fcdd09;fill-opacity:1;stroke:none;stroke-opacity:1"
       id="path3175"
       sodipodi:sides="6"
       sodipodi:cx="38.57143"
       sodipodi:cy="271.42856"
       sodipodi:r1="56.43309"
       sodipodi:r2="32.789165"
       sodipodi:arg1="-1.5834539"
       sodipodi:arg2="-1.0857924"
       inkscape:flatsided="false"
       inkscape:rounded="0"
       inkscape:randomized="0"
       d="M 37.857143,214.99999 L 53.858127,242.42087 L 87.082862,242.59568 L 71.336178,270.16338 L 87.797148,299.02425 L 56.049481,299.17107 L 39.285717,327.85713 L 23.284733,300.43625 L -9.9400011,300.26143 L 5.8066824,272.69374 L -10.654288,243.83286 L 21.093379,243.68604 L 37.857143,214.99999 z"
       transform="matrix(0.6181131,0,0,0.6181131,102.7449,481.75375)"
       inkscape:transform-center-y="-15.013617" />
    <path
       sodipodi:type="star"
       style="fill:#fcdd09;fill-opacity:1;stroke:none;stroke-opacity:1"
       id="path3177"
       sodipodi:sides="6"
       sodipodi:cx="38.57143"
       sodipodi:cy="271.42856"
       sodipodi:r1="56.43309"
       sodipodi:r2="32.789165"
       sodipodi:arg1="-1.5834539"
       sodipodi:arg2="-1.0857924"
       inkscape:flatsided="false"
       inkscape:rounded="0"
       inkscape:randomized="0"
       d="M 37.857143,214.99999 L 53.858127,242.42087 L 87.082862,242.59568 L 71.336178,270.16338 L 87.797148,299.02425 L 56.049481,299.17107 L 39.285717,327.85713 L 23.284733,300.43625 L -9.9400011,300.26143 L 5.8066824,272.69374 L -10.654288,243.83286 L 21.093379,243.68604 L 37.857143,214.99999 z"
       transform="matrix(0.6181131,0,0,0.6181131,177.24628,498.89566)"
       inkscape:transform-center-y="-15.013617" />
    <path
       sodipodi:type="star"
       style="fill:#fcdd09;fill-opacity:1;stroke:none;stroke-opacity:1"
       id="path3179"
       sodipodi:sides="6"
       sodipodi:cx="38.57143"
       sodipodi:cy="271.42856"
       sodipodi:r1="56.43309"
       sodipodi:r2="32.789165"
       sodipodi:arg1="-1.5834539"
       sodipodi:arg2="-1.0857924"
       inkscape:flatsided="false"
       inkscape:rounded="0"
       inkscape:randomized="0"
       d="M 37.857143,214.99999 L 53.858127,242.42087 L 87.082862,242.59568 L 71.336178,270.16338 L 87.797148,299.02425 L 56.049481,299.17107 L 39.285717,327.85713 L 23.284733,300.43625 L -9.9400011,300.26143 L 5.8066824,272.69374 L -10.654288,243.83286 L 21.093379,243.68604 L 37.857143,214.99999 z"
       transform="matrix(0.6181131,0,0,0.6181131,253.72557,508.12592)"
       inkscape:transform-center-y="-15.013617" />
    <path
       style="font-size:30px;font-style:normal;font-variant:normal;font-weight:normal;font-stretch:normal;text-align:start;line-height:100%;writing-mode:lr-tb;text-anchor:start;fill:#000000;fill-opacity:1;stroke:none;stroke-width:1px;stroke-linecap:butt;stroke-linejoin:miter;stroke-opacity:1;font-family:Arial;-inkscape-font-specification:Arial"
       d="M 55.35014,632.38537 L 52.713421,632.38537 L 52.713421,615.58361 C 52.078647,616.1891 51.246129,616.79456 50.215862,617.40002 C 49.185584,618.0055 48.260292,618.4596 47.439983,618.76232 L 47.439983,616.21349 C 48.914588,615.52015 50.203649,614.68031 51.307171,613.69396 C 52.410678,612.70765 53.191927,611.75062 53.650921,610.82287 L 55.35014,610.82287 L 55.35014,632.38537 z"
       id="text3181" />
    <path
       style="font-size:30px;font-style:normal;font-variant:normal;font-weight:normal;font-stretch:normal;text-align:start;line-height:100%;writing-mode:lr-tb;text-anchor:start;fill:#000000;fill-opacity:1;stroke:none;stroke-width:1px;stroke-linecap:butt;stroke-linejoin:miter;stroke-opacity:1;font-family:Arial;-inkscape-font-specification:Arial"
       d="M 119.65608,656.42896 L 122.19026,656.19458 C 122.4051,657.38599 122.81526,658.25025 123.42073,658.78735 C 124.02619,659.32446 124.80256,659.59302 125.74983,659.59302 C 126.56037,659.59302 127.27082,659.40747 127.88118,659.03638 C 128.49152,658.66529 128.99201,658.16968 129.38264,657.54956 C 129.77326,656.92945 130.10041,656.09205 130.36409,655.03735 C 130.62775,653.98267 130.75959,652.90846 130.7596,651.8147 C 130.75959,651.69752 130.7547,651.52174 130.74495,651.28735 C 130.21759,652.12721 129.49738,652.80836 128.5843,653.33081 C 127.67121,653.85328 126.68244,654.11451 125.618,654.1145 C 123.84065,654.11451 122.33674,653.46998 121.10628,652.18091 C 119.87581,650.89186 119.26057,649.19264 119.26057,647.08325 C 119.26057,644.90553 119.90266,643.15261 121.18684,641.82446 C 122.47102,640.49636 124.0799,639.8323 126.0135,639.83228 C 127.40998,639.8323 128.68683,640.20827 129.84407,640.96021 C 131.00128,641.71218 131.88019,642.78395 132.48079,644.17554 C 133.08136,645.56715 133.38165,647.58131 133.38167,650.21802 C 133.38165,652.96217 133.0838,655.14722 132.48811,656.77319 C 131.8924,658.39917 131.00617,659.63696 129.82942,660.48657 C 128.65265,661.33618 127.27326,661.76099 125.69124,661.76099 C 124.01154,661.76099 122.63948,661.29468 121.57503,660.36206 C 120.51057,659.42945 119.87092,658.11841 119.65608,656.42896 L 119.65608,656.42896 z M 130.45198,646.95142 C 130.45197,645.43776 130.04914,644.23659 129.24348,643.3479 C 128.43781,642.45925 127.46857,642.01491 126.33577,642.01489 C 125.16389,642.01491 124.14338,642.49343 123.27425,643.45044 C 122.4051,644.40749 121.97053,645.64772 121.97054,647.17114 C 121.97053,648.53834 122.38313,649.64918 123.20833,650.50366 C 124.03352,651.35816 125.05158,651.78541 126.26253,651.7854 C 127.48322,651.78541 128.48664,651.35816 129.27278,650.50366 C 130.0589,649.64918 130.45197,648.4651 130.45198,646.95142 L 130.45198,646.95142 z"
       id="text3185" />
    <path
       style="font-size:30px;font-style:normal;font-variant:normal;font-weight:normal;font-stretch:normal;text-align:start;line-height:100%;writing-mode:lr-tb;text-anchor:start;fill:#000000;fill-opacity:1;stroke:none;stroke-width:1px;stroke-linecap:butt;stroke-linejoin:miter;stroke-opacity:1;font-family:Arial;-inkscape-font-specification:Arial"
       d="M 193.27843,658.55597 L 193.27843,656.02179 L 207.17979,656.02179 L 207.17979,658.07257 C 205.81259,659.52767 204.45761,661.46126 203.11485,663.87335 C 201.77207,666.28547 200.73447,668.76594 200.00206,671.31476 C 199.47471,673.11164 199.13779,675.07941 198.99132,677.21808 L 196.28136,677.21808 C 196.31065,675.52863 196.64268,673.48761 197.27745,671.09503 C 197.91221,668.70246 198.82285,666.39534 200.00938,664.17365 C 201.1959,661.95198 202.4581,660.07942 203.79601,658.55597 L 193.27843,658.55597 z"
       id="text3189" />
    <path
       style="font-size:30px;font-style:normal;font-variant:normal;font-weight:normal;font-stretch:normal;text-align:start;line-height:100%;writing-mode:lr-tb;text-anchor:start;fill:#000000;fill-opacity:1;stroke:none;stroke-width:1px;stroke-linecap:butt;stroke-linejoin:miter;stroke-opacity:1;font-family:Arial;-inkscape-font-specification:Arial"
       d="M 268.92264,680.82336 L 271.69119,680.58899 C 271.89627,681.93665 272.37234,682.94983 273.11942,683.62854 C 273.86648,684.30725 274.76736,684.64661 275.82205,684.64661 C 277.09157,684.64661 278.16579,684.16809 279.04471,683.21106 C 279.9236,682.25403 280.36305,680.9845 280.36307,679.40247 C 280.36305,677.89857 279.94069,676.71205 279.09598,675.8429 C 278.25124,674.97377 277.14528,674.5392 275.77811,674.53918 C 274.92849,674.5392 274.16189,674.73207 273.4783,675.1178 C 272.7947,675.50355 272.25759,676.00404 271.86697,676.61926 L 269.39139,676.297 L 271.47147,665.26672 L 282.15018,665.26672 L 282.15018,667.78625 L 273.58084,667.78625 L 272.42361,673.55774 C 273.71267,672.65932 275.06521,672.2101 276.48123,672.21008 C 278.35622,672.2101 279.93825,672.85951 281.22733,674.15833 C 282.51637,675.45716 283.1609,677.12708 283.16092,679.16809 C 283.1609,681.11146 282.5945,682.79114 281.4617,684.20715 C 280.08473,685.94544 278.20485,686.81457 275.82205,686.81458 C 273.86892,686.81457 272.27468,686.2677 271.03934,685.17395 C 269.80398,684.0802 269.09842,682.63001 268.92264,680.82336 L 268.92264,680.82336 z"
       id="text3193" />
    <path
       sodipodi:type="star"
       style="fill:#fcdd09;fill-opacity:1;stroke:none;stroke-opacity:1"
       id="path3201"
       sodipodi:sides="6"
       sodipodi:cx="38.57143"
       sodipodi:cy="271.42856"
       sodipodi:r1="56.43309"
       sodipodi:r2="32.789165"
       sodipodi:arg1="-1.5834539"
       sodipodi:arg2="-1.0857924"
       inkscape:flatsided="false"
       inkscape:rounded="0"
       inkscape:randomized="0"
       d="M 37.857143,214.99999 L 53.858127,242.42087 L 87.082862,242.59568 L 71.336178,270.16338 L 87.797148,299.02425 L 56.049481,299.17107 L 39.285717,327.85713 L 23.284733,300.43625 L -9.9400011,300.26143 L 5.8066824,272.69374 L -10.654288,243.83286 L 21.093379,243.68604 L 37.857143,214.99999 z"
       transform="matrix(0.1424133,0,0,0.1424133,-3.7414402,907.19507)"
       inkscape:transform-center-y="-3.4591245" />
    <path
       sodipodi:type="star"
       style="fill:#fcdd09;fill-opacity:1;stroke:none;stroke-opacity:1"
       id="path3203"
       sodipodi:sides="6"
       sodipodi:cx="38.57143"
       sodipodi:cy="271.42856"
       sodipodi:r1="56.43309"
       sodipodi:r2="32.789165"
       sodipodi:arg1="-1.5834539"
       sodipodi:arg2="-1.0857924"
       inkscape:flatsided="false"
       inkscape:rounded="0"
       inkscape:randomized="0"
       d="M 37.857143,214.99999 L 53.858127,242.42087 L 87.082862,242.59568 L 71.336178,270.16338 L 87.797148,299.02425 L 56.049481,299.17107 L 39.285717,327.85713 L 23.284733,300.43625 L -9.9400011,300.26143 L 5.8066824,272.69374 L -10.654288,243.83286 L 21.093379,243.68604 L 37.857143,214.99999 z"
       transform="matrix(0.1424133,0,0,0.1424133,5.1338071,892.67866)"
       inkscape:transform-center-y="-3.4591245" />
    <path
       sodipodi:type="star"
       style="fill:#fcdd09;fill-opacity:1;stroke:none;stroke-opacity:1"
       id="path3205"
       sodipodi:sides="6"
       sodipodi:cx="38.57143"
       sodipodi:cy="271.42856"
       sodipodi:r1="56.43309"
       sodipodi:r2="32.789165"
       sodipodi:arg1="-1.5834539"
       sodipodi:arg2="-1.0857924"
       inkscape:flatsided="false"
       inkscape:rounded="0"
       inkscape:randomized="0"
       d="M 37.857143,214.99999 L 53.858127,242.42087 L 87.082862,242.59568 L 71.336178,270.16338 L 87.797148,299.02425 L 56.049481,299.17107 L 39.285717,327.85713 L 23.284733,300.43625 L -9.9400011,300.26143 L 5.8066824,272.69374 L -10.654288,243.83286 L 21.093379,243.68604 L 37.857143,214.99999 z"
       transform="matrix(0.1424133,0,0,0.1424133,12.218402,876.14793)"
       inkscape:transform-center-y="-3.4591245" />
    <path
       sodipodi:type="star"
       style="fill:#fcdd09;fill-opacity:1;stroke:none;stroke-opacity:1"
       id="path3207"
       sodipodi:sides="6"
       sodipodi:cx="38.57143"
       sodipodi:cy="271.42856"
       sodipodi:r1="56.43309"
       sodipodi:r2="32.789165"
       sodipodi:arg1="-1.5834539"
       sodipodi:arg2="-1.0857924"
       inkscape:flatsided="false"
       inkscape:rounded="0"
       inkscape:randomized="0"
       d="M 37.857143,214.99999 L 53.858127,242.42087 L 87.082862,242.59568 L 71.336178,270.16338 L 87.797148,299.02425 L 56.049481,299.17107 L 39.285717,327.85713 L 23.284733,300.43625 L -9.9400011,300.26143 L 5.8066824,272.69374 L -10.654288,243.83286 L 21.093379,243.68604 L 37.857143,214.99999 z"
       transform="matrix(0.1424133,0,0,0.1424133,22.550102,861.97874)"
       inkscape:transform-center-y="-3.4591245" />
    <path
       sodipodi:type="star"
       style="fill:#fcdd09;fill-opacity:1;stroke:none;stroke-opacity:1"
       id="path3209"
       sodipodi:sides="6"
       sodipodi:cx="38.57143"
       sodipodi:cy="271.42856"
       sodipodi:r1="56.43309"
       sodipodi:r2="32.789165"
       sodipodi:arg1="-1.5834539"
       sodipodi:arg2="-1.0857924"
       inkscape:flatsided="false"
       inkscape:rounded="0"
       inkscape:randomized="0"
       d="M 37.857143,214.99999 L 53.858127,242.42087 L 87.082862,242.59568 L 71.336178,270.16338 L 87.797148,299.02425 L 56.049481,299.17107 L 39.285717,327.85713 L 23.284733,300.43625 L -9.9400011,300.26143 L 5.8066824,272.69374 L -10.654288,243.83286 L 21.093379,243.68604 L 37.857143,214.99999 z"
       transform="matrix(0.1424133,0,0,0.1424133,35.243334,846.92398)"
       inkscape:transform-center-y="-3.4591245" />
    <path
       sodipodi:type="star"
       style="fill:#fcdd09;fill-opacity:1;stroke:none;stroke-opacity:1"
       id="path3211"
       sodipodi:sides="6"
       sodipodi:cx="38.57143"
       sodipodi:cy="271.42856"
       sodipodi:r1="56.43309"
       sodipodi:r2="32.789165"
       sodipodi:arg1="-1.5834539"
       sodipodi:arg2="-1.0857924"
       inkscape:flatsided="false"
       inkscape:rounded="0"
       inkscape:randomized="0"
       d="M 37.857143,214.99999 L 53.858127,242.42087 L 87.082862,242.59568 L 71.336178,270.16338 L 87.797148,299.02425 L 56.049481,299.17107 L 39.285717,327.85713 L 23.284733,300.43625 L -9.9400011,300.26143 L 5.8066824,272.69374 L -10.654288,243.83286 L 21.093379,243.68604 L 37.857143,214.99999 z"
       transform="matrix(0.1424133,0,0,0.1424133,49.707714,831.86922)"
       inkscape:transform-center-y="-3.4591245" />
    <path
       sodipodi:type="star"
       style="fill:#fcdd09;fill-opacity:1;stroke:none;stroke-opacity:1"
       id="path3213"
       sodipodi:sides="6"
       sodipodi:cx="38.57143"
       sodipodi:cy="271.42856"
       sodipodi:r1="56.43309"
       sodipodi:r2="32.789165"
       sodipodi:arg1="-1.5834539"
       sodipodi:arg2="-1.0857924"
       inkscape:flatsided="false"
       inkscape:rounded="0"
       inkscape:randomized="0"
       d="M 37.857143,214.99999 L 53.858127,242.42087 L 87.082862,242.59568 L 71.336178,270.16338 L 87.797148,299.02425 L 56.049481,299.17107 L 39.285717,327.85713 L 23.284733,300.43625 L -9.9400011,300.26143 L 5.8066824,272.69374 L -10.654288,243.83286 L 21.093379,243.68604 L 37.857143,214.99999 z"
       transform="matrix(0.1424133,0,0,0.1424133,65.352861,818.88079)"
       inkscape:transform-center-y="-3.4591245" />
    <path
       sodipodi:type="star"
       style="fill:#fcdd09;fill-opacity:1;stroke:none;stroke-opacity:1"
       id="path3215"
       sodipodi:sides="6"
       sodipodi:cx="38.57143"
       sodipodi:cy="271.42856"
       sodipodi:r1="56.43309"
       sodipodi:r2="32.789165"
       sodipodi:arg1="-1.5834539"
       sodipodi:arg2="-1.0857924"
       inkscape:flatsided="false"
       inkscape:rounded="0"
       inkscape:randomized="0"
       d="M 37.857143,214.99999 L 53.858127,242.42087 L 87.082862,242.59568 L 71.336178,270.16338 L 87.797148,299.02425 L 56.049481,299.17107 L 39.285717,327.85713 L 23.284733,300.43625 L -9.9400011,300.26143 L 5.8066824,272.69374 L -10.654288,243.83286 L 21.093379,243.68604 L 37.857143,214.99999 z"
       transform="matrix(0.1424133,0,0,0.1424133,82.178773,806.18756)"
       inkscape:transform-center-y="-3.4591245" />
    <path
       sodipodi:type="star"
       style="fill:#fcdd09;fill-opacity:1;stroke:none;stroke-opacity:1"
       id="path3217"
       sodipodi:sides="6"
       sodipodi:cx="38.57143"
       sodipodi:cy="271.42856"
       sodipodi:r1="56.43309"
       sodipodi:r2="32.789165"
       sodipodi:arg1="-1.5834539"
       sodipodi:arg2="-1.0857924"
       inkscape:flatsided="false"
       inkscape:rounded="0"
       inkscape:randomized="0"
       d="M 37.857143,214.99999 L 53.858127,242.42087 L 87.082862,242.59568 L 71.336178,270.16338 L 87.797148,299.02425 L 56.049481,299.17107 L 39.285717,327.85713 L 23.284733,300.43625 L -9.9400011,300.26143 L 5.8066824,272.69374 L -10.654288,243.83286 L 21.093379,243.68604 L 37.857143,214.99999 z"
       transform="matrix(0.1424133,0,0,0.1424133,99.29988,795.26548)"
       inkscape:transform-center-y="-3.4591245" />
    <path
       sodipodi:type="star"
       style="fill:#fcdd09;fill-opacity:1;stroke:none;stroke-opacity:1"
       id="path3219"
       sodipodi:sides="6"
       sodipodi:cx="38.57143"
       sodipodi:cy="271.42856"
       sodipodi:r1="56.43309"
       sodipodi:r2="32.789165"
       sodipodi:arg1="-1.5834539"
       sodipodi:arg2="-1.0857924"
       inkscape:flatsided="false"
       inkscape:rounded="0"
       inkscape:randomized="0"
       d="M 37.857143,214.99999 L 53.858127,242.42087 L 87.082862,242.59568 L 71.336178,270.16338 L 87.797148,299.02425 L 56.049481,299.17107 L 39.285717,327.85713 L 23.284733,300.43625 L -9.9400011,300.26143 L 5.8066824,272.69374 L -10.654288,243.83286 L 21.093379,243.68604 L 37.857143,214.99999 z"
       transform="matrix(0.1424133,0,0,0.1424133,118.78251,787.00012)"
       inkscape:transform-center-y="-3.4591245" />
    <path
       sodipodi:type="star"
       style="fill:#fcdd09;fill-opacity:1;stroke:none;stroke-opacity:1"
       id="path3221"
       sodipodi:sides="6"
       sodipodi:cx="38.57143"
       sodipodi:cy="271.42856"
       sodipodi:r1="56.43309"
       sodipodi:r2="32.789165"
       sodipodi:arg1="-1.5834539"
       sodipodi:arg2="-1.0857924"
       inkscape:flatsided="false"
       inkscape:rounded="0"
       inkscape:randomized="0"
       d="M 37.857143,214.99999 L 53.858127,242.42087 L 87.082862,242.59568 L 71.336178,270.16338 L 87.797148,299.02425 L 56.049481,299.17107 L 39.285717,327.85713 L 23.284733,300.43625 L -9.9400011,300.26143 L 5.8066824,272.69374 L -10.654288,243.83286 L 21.093379,243.68604 L 37.857143,214.99999 z"
       transform="matrix(0.1424133,0,0,0.1424133,137.37958,781.98186)"
       inkscape:transform-center-y="-3.4591245" />
    <path
       sodipodi:type="star"
       style="fill:#fcdd09;fill-opacity:1;stroke:none;stroke-opacity:1"
       id="path3223"
       sodipodi:sides="6"
       sodipodi:cx="38.57143"
       sodipodi:cy="271.42856"
       sodipodi:r1="56.43309"
       sodipodi:r2="32.789165"
       sodipodi:arg1="-1.5834539"
       sodipodi:arg2="-1.0857924"
       inkscape:flatsided="false"
       inkscape:rounded="0"
       inkscape:randomized="0"
       d="M 37.857143,214.99999 L 53.858127,242.42087 L 87.082862,242.59568 L 71.336178,270.16338 L 87.797148,299.02425 L 56.049481,299.17107 L 39.285717,327.85713 L 23.284733,300.43625 L -9.9400011,300.26143 L 5.8066824,272.69374 L -10.654288,243.83286 L 21.093379,243.68604 L 37.857143,214.99999 z"
       transform="matrix(0.1424133,0,0,0.1424133,157.15739,778.73476)"
       inkscape:transform-center-y="-3.4591245" />
    <path
       sodipodi:type="star"
       style="fill:#fcdd09;fill-opacity:1;stroke:none;stroke-opacity:1"
       id="path3225"
       sodipodi:sides="6"
       sodipodi:cx="38.57143"
       sodipodi:cy="271.42856"
       sodipodi:r1="56.43309"
       sodipodi:r2="32.789165"
       sodipodi:arg1="-1.5834539"
       sodipodi:arg2="-1.0857924"
       inkscape:flatsided="false"
       inkscape:rounded="0"
       inkscape:randomized="0"
       d="M 37.857143,214.99999 L 53.858127,242.42087 L 87.082862,242.59568 L 71.336178,270.16338 L 87.797148,299.02425 L 56.049481,299.17107 L 39.285717,327.85713 L 23.284733,300.43625 L -9.9400011,300.26143 L 5.8066824,272.69374 L -10.654288,243.83286 L 21.093379,243.68604 L 37.857143,214.99999 z"
       transform="matrix(0.1424133,0,0,0.1424133,176.34484,779.02995)"
       inkscape:transform-center-y="-3.4591245" />
    <path
       sodipodi:type="star"
       style="fill:#fcdd09;fill-opacity:1;stroke:none;stroke-opacity:1"
       id="path3227"
       sodipodi:sides="6"
       sodipodi:cx="38.57143"
       sodipodi:cy="271.42856"
       sodipodi:r1="56.43309"
       sodipodi:r2="32.789165"
       sodipodi:arg1="-1.5834539"
       sodipodi:arg2="-1.0857924"
       inkscape:flatsided="false"
       inkscape:rounded="0"
       inkscape:randomized="0"
       d="M 37.857143,214.99999 L 53.858127,242.42087 L 87.082862,242.59568 L 71.336178,270.16338 L 87.797148,299.02425 L 56.049481,299.17107 L 39.285717,327.85713 L 23.284733,300.43625 L -9.9400011,300.26143 L 5.8066824,272.69374 L -10.654288,243.83286 L 21.093379,243.68604 L 37.857143,214.99999 z"
       transform="matrix(0.1424133,0,0,0.1424133,194.9419,779.02995)"
       inkscape:transform-center-y="-3.4591245" />
    <path
       sodipodi:type="star"
       style="fill:#fcdd09;fill-opacity:1;stroke:none;stroke-opacity:1"
       id="path3229"
       sodipodi:sides="6"
       sodipodi:cx="38.57143"
       sodipodi:cy="271.42856"
       sodipodi:r1="56.43309"
       sodipodi:r2="32.789165"
       sodipodi:arg1="-1.5834539"
       sodipodi:arg2="-1.0857924"
       inkscape:flatsided="false"
       inkscape:rounded="0"
       inkscape:randomized="0"
       d="M 37.857143,214.99999 L 53.858127,242.42087 L 87.082862,242.59568 L 71.336178,270.16338 L 87.797148,299.02425 L 56.049481,299.17107 L 39.285717,327.85713 L 23.284733,300.43625 L -9.9400011,300.26143 L 5.8066824,272.69374 L -10.654288,243.83286 L 21.093379,243.68604 L 37.857143,214.99999 z"
       transform="matrix(0.1424133,0,0,0.1424133,214.42454,779.32515)"
       inkscape:transform-center-y="-3.4591245" />
    <path
       sodipodi:type="star"
       style="fill:#fcdd09;fill-opacity:1;stroke:none;stroke-opacity:1"
       id="path3231"
       sodipodi:sides="6"
       sodipodi:cx="38.57143"
       sodipodi:cy="271.42856"
       sodipodi:r1="56.43309"
       sodipodi:r2="32.789165"
       sodipodi:arg1="-1.5834539"
       sodipodi:arg2="-1.0857924"
       inkscape:flatsided="false"
       inkscape:rounded="0"
       inkscape:randomized="0"
       d="M 37.857143,214.99999 L 53.858127,242.42087 L 87.082862,242.59568 L 71.336178,270.16338 L 87.797148,299.02425 L 56.049481,299.17107 L 39.285717,327.85713 L 23.284733,300.43625 L -9.9400011,300.26143 L 5.8066824,272.69374 L -10.654288,243.83286 L 21.093379,243.68604 L 37.857143,214.99999 z"
       transform="matrix(0.1424133,0,0,0.1424133,232.7264,779.32514)"
       inkscape:transform-center-y="-3.4591245" />
    <path
       sodipodi:type="star"
       style="fill:#fcdd09;fill-opacity:1;stroke:none;stroke-opacity:1"
       id="path3233"
       sodipodi:sides="6"
       sodipodi:cx="38.57143"
       sodipodi:cy="271.42856"
       sodipodi:r1="56.43309"
       sodipodi:r2="32.789165"
       sodipodi:arg1="-1.5834539"
       sodipodi:arg2="-1.0857924"
       inkscape:flatsided="false"
       inkscape:rounded="0"
       inkscape:randomized="0"
       d="M 37.857143,214.99999 L 53.858127,242.42087 L 87.082862,242.59568 L 71.336178,270.16338 L 87.797148,299.02425 L 56.049481,299.17107 L 39.285717,327.85713 L 23.284733,300.43625 L -9.9400011,300.26143 L 5.8066824,272.69374 L -10.654288,243.83286 L 21.093379,243.68604 L 37.857143,214.99999 z"
       transform="matrix(0.1424133,0,0,0.1424133,251.32347,781.09629)"
       inkscape:transform-center-y="-3.4591245" />
    <path
       sodipodi:type="star"
       style="fill:#fcdd09;fill-opacity:1;stroke:none;stroke-opacity:1"
       id="path3235"
       sodipodi:sides="6"
       sodipodi:cx="38.57143"
       sodipodi:cy="271.42856"
       sodipodi:r1="56.43309"
       sodipodi:r2="32.789165"
       sodipodi:arg1="-1.5834539"
       sodipodi:arg2="-1.0857924"
       inkscape:flatsided="false"
       inkscape:rounded="0"
       inkscape:randomized="0"
       d="M 37.857143,214.99999 L 53.858127,242.42087 L 87.082862,242.59568 L 71.336178,270.16338 L 87.797148,299.02425 L 56.049481,299.17107 L 39.285717,327.85713 L 23.284733,300.43625 L -9.9400011,300.26143 L 5.8066824,272.69374 L -10.654288,243.83286 L 21.093379,243.68604 L 37.857143,214.99999 z"
       transform="matrix(0.1424133,0,0,0.1424133,270.8061,782.86744)"
       inkscape:transform-center-y="-3.4591245" />
    <path
       sodipodi:type="star"
       style="fill:#fcdd09;fill-opacity:1;stroke:none;stroke-opacity:1"
       id="path3237"
       sodipodi:sides="6"
       sodipodi:cx="38.57143"
       sodipodi:cy="271.42856"
       sodipodi:r1="56.43309"
       sodipodi:r2="32.789165"
       sodipodi:arg1="-1.5834539"
       sodipodi:arg2="-1.0857924"
       inkscape:flatsided="false"
       inkscape:rounded="0"
       inkscape:randomized="0"
       d="M 37.857143,214.99999 L 53.858127,242.42087 L 87.082862,242.59568 L 71.336178,270.16338 L 87.797148,299.02425 L 56.049481,299.17107 L 39.285717,327.85713 L 23.284733,300.43625 L -9.9400011,300.26143 L 5.8066824,272.69374 L -10.654288,243.83286 L 21.093379,243.68604 L 37.857143,214.99999 z"
       transform="matrix(0.1424133,0,0,0.1424133,290.87912,784.93378)"
       inkscape:transform-center-y="-3.4591245" />
    <path
       sodipodi:type="star"
       style="fill:#fcdd09;fill-opacity:1;stroke:none;stroke-opacity:1"
       id="path3239"
       sodipodi:sides="6"
       sodipodi:cx="38.57143"
       sodipodi:cy="271.42856"
       sodipodi:r1="56.43309"
       sodipodi:r2="32.789165"
       sodipodi:arg1="-1.5834539"
       sodipodi:arg2="-1.0857924"
       inkscape:flatsided="false"
       inkscape:rounded="0"
       inkscape:randomized="0"
       d="M 37.857143,214.99999 L 53.858127,242.42087 L 87.082862,242.59568 L 71.336178,270.16338 L 87.797148,299.02425 L 56.049481,299.17107 L 39.285717,327.85713 L 23.284733,300.43625 L -9.9400011,300.26143 L 5.8066824,272.69374 L -10.654288,243.83286 L 21.093379,243.68604 L 37.857143,214.99999 z"
       transform="matrix(0.1424133,0,0,0.1424133,310.95213,786.70493)"
       inkscape:transform-center-y="-3.4591245" />
    <path
       sodipodi:type="star"
       style="fill:#fcdd09;fill-opacity:1;stroke:none;stroke-opacity:1"
       id="path3241"
       sodipodi:sides="6"
       sodipodi:cx="38.57143"
       sodipodi:cy="271.42856"
       sodipodi:r1="56.43309"
       sodipodi:r2="32.789165"
       sodipodi:arg1="-1.5834539"
       sodipodi:arg2="-1.0857924"
       inkscape:flatsided="false"
       inkscape:rounded="0"
       inkscape:randomized="0"
       d="M 37.857143,214.99999 L 53.858127,242.42087 L 87.082862,242.59568 L 71.336178,270.16338 L 87.797148,299.02425 L 56.049481,299.17107 L 39.285717,327.85713 L 23.284733,300.43625 L -9.9400011,300.26143 L 5.8066824,272.69374 L -10.654288,243.83286 L 21.093379,243.68604 L 37.857143,214.99999 z"
       transform="matrix(0.1424133,0,0,0.1424133,331.61553,783.45782)"
       inkscape:transform-center-y="-3.4591245" />
    <path
       sodipodi:type="star"
       style="fill:#fcdd09;fill-opacity:1;stroke:none;stroke-opacity:1"
       id="path3243"
       sodipodi:sides="6"
       sodipodi:cx="38.57143"
       sodipodi:cy="271.42856"
       sodipodi:r1="56.43309"
       sodipodi:r2="32.789165"
       sodipodi:arg1="-1.5834539"
       sodipodi:arg2="-1.0857924"
       inkscape:flatsided="false"
       inkscape:rounded="0"
       inkscape:randomized="0"
       d="M 37.857143,214.99999 L 53.858127,242.42087 L 87.082862,242.59568 L 71.336178,270.16338 L 87.797148,299.02425 L 56.049481,299.17107 L 39.285717,327.85713 L 23.284733,300.43625 L -9.9400011,300.26143 L 5.8066824,272.69374 L -10.654288,243.83286 L 21.093379,243.68604 L 37.857143,214.99999 z"
       transform="matrix(0.1424133,0,0,0.1424133,349.9174,779.02995)"
       inkscape:transform-center-y="-3.4591245" />
    <path
       sodipodi:type="star"
       style="fill:#fcdd09;fill-opacity:1;stroke:none;stroke-opacity:1"
       id="path3245"
       sodipodi:sides="6"
       sodipodi:cx="38.57143"
       sodipodi:cy="271.42856"
       sodipodi:r1="56.43309"
       sodipodi:r2="32.789165"
       sodipodi:arg1="-1.5834539"
       sodipodi:arg2="-1.0857924"
       inkscape:flatsided="false"
       inkscape:rounded="0"
       inkscape:randomized="0"
       d="M 37.857143,214.99999 L 53.858127,242.42087 L 87.082862,242.59568 L 71.336178,270.16338 L 87.797148,299.02425 L 56.049481,299.17107 L 39.285717,327.85713 L 23.284733,300.43625 L -9.9400011,300.26143 L 5.8066824,272.69374 L -10.654288,243.83286 L 21.093379,243.68604 L 37.857143,214.99999 z"
       transform="matrix(0.1424133,0,0,0.1424133,369.69523,775.19246)"
       inkscape:transform-center-y="-3.4591245" />
    <path
       sodipodi:type="star"
       style="fill:#fcdd09;fill-opacity:1;stroke:none;stroke-opacity:1"
       id="path3247"
       sodipodi:sides="6"
       sodipodi:cx="38.57143"
       sodipodi:cy="271.42856"
       sodipodi:r1="56.43309"
       sodipodi:r2="32.789165"
       sodipodi:arg1="-1.5834539"
       sodipodi:arg2="-1.0857924"
       inkscape:flatsided="false"
       inkscape:rounded="0"
       inkscape:randomized="0"
       d="M 37.857143,214.99999 L 53.858127,242.42087 L 87.082862,242.59568 L 71.336178,270.16338 L 87.797148,299.02425 L 56.049481,299.17107 L 39.285717,327.85713 L 23.284733,300.43625 L -9.9400011,300.26143 L 5.8066824,272.69374 L -10.654288,243.83286 L 21.093379,243.68604 L 37.857143,214.99999 z"
       transform="matrix(0.1424133,0,0,0.1424133,389.17787,770.17421)"
       inkscape:transform-center-y="-3.4591245" />
    <path
       sodipodi:type="star"
       style="fill:#fcdd09;fill-opacity:1;stroke:none;stroke-opacity:1"
       id="path3249"
       sodipodi:sides="6"
       sodipodi:cx="38.57143"
       sodipodi:cy="271.42856"
       sodipodi:r1="56.43309"
       sodipodi:r2="32.789165"
       sodipodi:arg1="-1.5834539"
       sodipodi:arg2="-1.0857924"
       inkscape:flatsided="false"
       inkscape:rounded="0"
       inkscape:randomized="0"
       d="M 37.857143,214.99999 L 53.858127,242.42087 L 87.082862,242.59568 L 71.336178,270.16338 L 87.797148,299.02425 L 56.049481,299.17107 L 39.285717,327.85713 L 23.284733,300.43625 L -9.9400011,300.26143 L 5.8066824,272.69374 L -10.654288,243.83286 L 21.093379,243.68604 L 37.857143,214.99999 z"
       transform="matrix(0.1424133,0,0,0.1424133,410.72684,763.97519)"
       inkscape:transform-center-y="-3.4591245" />
    <path
       sodipodi:type="star"
       style="fill:#fcdd09;fill-opacity:1;stroke:none;stroke-opacity:1"
       id="path3251"
       sodipodi:sides="6"
       sodipodi:cx="38.57143"
       sodipodi:cy="271.42856"
       sodipodi:r1="56.43309"
       sodipodi:r2="32.789165"
       sodipodi:arg1="-1.5834539"
       sodipodi:arg2="-1.0857924"
       inkscape:flatsided="false"
       inkscape:rounded="0"
       inkscape:randomized="0"
       d="M 37.857143,214.99999 L 53.858127,242.42087 L 87.082862,242.59568 L 71.336178,270.16338 L 87.797148,299.02425 L 56.049481,299.17107 L 39.285717,327.85713 L 23.284733,300.43625 L -9.9400011,300.26143 L 5.8066824,272.69374 L -10.654288,243.83286 L 21.093379,243.68604 L 37.857143,214.99999 z"
       transform="matrix(0.1424133,0,0,0.1424133,431.98062,759.25213)"
       inkscape:transform-center-y="-3.4591245" />
    <path
       sodipodi:type="star"
       style="fill:#fcdd09;fill-opacity:1;stroke:none;stroke-opacity:1"
       id="path3253"
       sodipodi:sides="6"
       sodipodi:cx="38.57143"
       sodipodi:cy="271.42856"
       sodipodi:r1="56.43309"
       sodipodi:r2="32.789165"
       sodipodi:arg1="-1.5834539"
       sodipodi:arg2="-1.0857924"
       inkscape:flatsided="false"
       inkscape:rounded="0"
       inkscape:randomized="0"
       d="M 37.857143,214.99999 L 53.858127,242.42087 L 87.082862,242.59568 L 71.336178,270.16338 L 87.797148,299.02425 L 56.049481,299.17107 L 39.285717,327.85713 L 23.284733,300.43625 L -9.9400011,300.26143 L 5.8066824,272.69374 L -10.654288,243.83286 L 21.093379,243.68604 L 37.857143,214.99999 z"
       transform="matrix(0.1424133,0,0,0.1424133,452.93922,757.77617)"
       inkscape:transform-center-y="-3.4591245" />
    <path
       sodipodi:type="star"
       style="fill:#fcdd09;fill-opacity:1;stroke:none;stroke-opacity:1"
       id="path3255"
       sodipodi:sides="6"
       sodipodi:cx="38.57143"
       sodipodi:cy="271.42856"
       sodipodi:r1="56.43309"
       sodipodi:r2="32.789165"
       sodipodi:arg1="-1.5834539"
       sodipodi:arg2="-1.0857924"
       inkscape:flatsided="false"
       inkscape:rounded="0"
       inkscape:randomized="0"
       d="M 37.857143,214.99999 L 53.858127,242.42087 L 87.082862,242.59568 L 71.336178,270.16338 L 87.797148,299.02425 L 56.049481,299.17107 L 39.285717,327.85713 L 23.284733,300.43625 L -9.9400011,300.26143 L 5.8066824,272.69374 L -10.654288,243.83286 L 21.093379,243.68604 L 37.857143,214.99999 z"
       transform="matrix(0.1424133,0,0,0.1424133,473.89781,756.00502)"
       inkscape:transform-center-y="-3.4591245" />
  </g>
</svg>
