<?xml version="1.0" encoding="UTF-8" standalone="no"?>
<!-- Created with Inkscape (http://www.inkscape.org/) -->
<svg
   xmlns:dc="http://purl.org/dc/elements/1.1/"
   xmlns:cc="http://creativecommons.org/ns#"
   xmlns:rdf="http://www.w3.org/1999/02/22-rdf-syntax-ns#"
   xmlns:svg="http://www.w3.org/2000/svg"
   xmlns="http://www.w3.org/2000/svg"
   xmlns:sodipodi="http://sodipodi.sourceforge.net/DTD/sodipodi-0.dtd"
   xmlns:inkscape="http://www.inkscape.org/namespaces/inkscape"
   width="1000"
   height="500"
   id="svg2"
   version="1.1"
   inkscape:version="0.46"
   sodipodi:docname="Flag_of_Santa Rosa_(Cauca).svg"
   sodipodi:version="0.32"
   inkscape:output_extension="org.inkscape.output.svg.inkscape">
  <defs
     id="defs4" />
  <sodipodi:namedview
     id="base"
     pagecolor="#ffffff"
     bordercolor="#666666"
     borderopacity="1.0"
     inkscape:pageopacity="0.0"
     inkscape:pageshadow="2"
     inkscape:zoom="0.928"
     inkscape:cx="500"
     inkscape:cy="250"
     inkscape:document-units="px"
     inkscape:current-layer="layer1"
     showgrid="false"
     inkscape:window-width="1024"
     inkscape:window-height="712"
     inkscape:window-x="-4"
     inkscape:window-y="-4"
     inkscape:window-maximized="1" />
  <metadata
     id="metadata7">
    <rdf:RDF>
      <cc:Work
         rdf:about="">
        <dc:format>image/svg+xml</dc:format>
        <dc:type
           rdf:resource="http://purl.org/dc/dcmitype/StillImage" />
        <dc:title />
      </cc:Work>
    </rdf:RDF>
  </metadata>
  <g
     inkscape:label="Capa 1"
     inkscape:groupmode="layer"
     id="layer1"
     transform="translate(0,-552.36218)">
    <rect
       style="fill:#078930;fill-opacity:1;stroke:none"
       id="rect2816"
       width="1000"
       height="250"
       x="0"
       y="-1052.3622"
       transform="scale(1,-1)" />
    <rect
       style="fill:#fcdd09;fill-opacity:1;stroke:none"
       id="rect2820"
       width="1000"
       height="250.2327"
       x="0"
       y="-802.59485"
       transform="scale(1,-1)" />
    <path
       style="fill:#000000;stroke:none;stroke-width:10;stroke-linecap:butt;stroke-linejoin:miter;stroke-miterlimit:4;stroke-opacity:1;stroke-dasharray:none"
       d="M 0,552.36998 375.00391,802.36216 0.0039062,1052.3622"
       id="path2822" />
    <g
       style="fill:#da121a;fill-opacity:1;stroke:#000000;stroke-width:0.34018736;stroke-miterlimit:4;stroke-dasharray:none;stroke-opacity:1"
       id="g5267"
       transform="matrix(2.9395566,0,0,2.9395566,-1422.7706,-3453.1959)">
      <g
         style="fill:#da121a;fill-opacity:1;stroke:#000000;stroke-width:0.34018736;stroke-miterlimit:4;stroke-dasharray:none;stroke-opacity:1"
         id="g12892"
         transform="translate(107.76109,0)">
        <g
           style="fill:#da121a;fill-opacity:1;stroke:#000000;stroke-width:0.34018736;stroke-miterlimit:4;stroke-dasharray:none;stroke-opacity:1"
           id="g11364"
           transform="translate(167.20029,53.200092)">
          <path
             style="fill:#da121a;fill-opacity:1;stroke:#000000;stroke-width:0.34018736;stroke-miterlimit:4;stroke-dasharray:none;stroke-opacity:1"
             id="_57623176-2"
             d="M 391.14,1369.5 C 390.20287,1379.654 397.7025,1383.791 400.9839,1390.937 C 394.2964,1394.4783 387.5149,1390.4982 380.9219,1401.561 C 392.5469,1404.5697 396.1089,1399.1161 403.7029,1397.8944 C 404.8591,1405.792 400.3906,1411.2454 407.1717,1421.5874 C 415.5464,1409.7094 409.4842,1405.9174 410.6405,1398.0814 C 418.609,1398.9587 423.7645,1404.4438 434.5465,1400.7142 C 425.8901,1391.4687 420.4215,1394.2577 413.3595,1391.0299 C 416.5782,1384.1352 423.8285,1382.2232 423.2034,1370.3459 C 411.6414,1374.1375 412.6404,1381.1269 407.4534,1386.5169 C 402.016,1380.8442 402.6725,1373.1039 391.1414,1369.4989 L 391.14,1369.5 z" />
          <path
             style="fill:#da121a;fill-opacity:1;stroke:#000000;stroke-width:0.34018736;stroke-miterlimit:4;stroke-dasharray:none;stroke-opacity:1"
             id="_56747112-2"
             d="M 407.13,1367.4 C 414.9695,1367.6945 419.221,1371.7132 419.724,1374.221 C 419.85411,1374.8727 418.3087,1375.377 417.7962,1376.0071 C 417.28398,1376.6375 417.8052,1377.3961 418.31494,1377.7986 C 419.0185,1378.3539 420.30094,1377.9177 420.27794,1377.2442 C 420.24764,1376.3572 420.80433,1375.2826 421.53934,1375.2627 C 424.35014,1375.1857 428.34764,1378.6283 430.67344,1384.4589 C 432.98224,1390.2458 432.06244,1394.7959 430.15243,1398.0379 C 429.19149,1399.6681 427.46233,1398.9087 426.80923,1398.0989 C 426.05805,1397.1669 424.93523,1398.9681 425.04723,1398.6429 C 425.1592,1398.3178 425.10453,1400.6473 426.03992,1400.3247 C 426.49829,1400.1665 427.77102,1399.791 428.03832,1401.2766 C 428.58655,1404.323 426.76192,1408.8315 422.06002,1411.9706 C 417.35822,1415.1091 411.50202,1417.3519 408.67402,1415.3761 C 407.62522,1414.6431 408.44158,1414.0929 408.73382,1413.2085 C 408.92714,1412.6231 407.73715,1411.7954 407.50532,1411.8394 C 407.27826,1411.8824 406.32642,1412.592 406.30512,1413.2368 C 406.28382,1413.8814 407.28279,1414.6525 406.64584,1415.1942 C 404.82234,1416.7433 398.87214,1416.9548 393.91484,1412.9287 C 390.41514,1410.0858 386.76814,1405.7015 386.86424,1401.9977 C 386.91984,1399.8632 387.97884,1400.2283 388.76574,1400.4406 C 389.84994,1400.7329 389.98554,1399.1908 389.91854,1398.9522 C 389.85134,1398.7141 388.81244,1398.0856 388.13474,1398.6027 C 387.13524,1399.3657 386.13174,1398.5187 385.00844,1397.9048 C 382.75854,1396.6748 382.27894,1389.6112 384.33578,1384.0908 C 386.39288,1378.5709 391.36008,1374.4496 393.61498,1375.1647 C 394.6003,1375.4774 394.21819,1376.8083 394.5198,1377.6028 C 394.90815,1378.6244 395.6704,1378.4291 396.55,1377.9943 C 396.8723,1377.8347 397.40408,1376.5713 396.72773,1376.0829 C 396.03721,1375.5843 394.72473,1375.9148 394.77123,1374.2815 C 394.72413,1371.9905 399.29053,1367.1047 407.13023,1367.3992 L 407.13,1367.4 z" />
          <path
             style="fill:#da121a;fill-opacity:1;stroke:#000000;stroke-width:0.34018736;stroke-miterlimit:4;stroke-dasharray:none;stroke-opacity:1"
             id="_56057560-3"
             d="M 407.31,1372.3 C 408.8801,1372.372 410.9545,1372.1223 412.5141,1371.94 C 415.0647,1371.6421 418.8767,1373.8182 416.6893,1375.3643 C 415.5832,1376.1466 416.14108,1377.9823 417.37188,1378.9824 C 418.80088,1380.144 421.08978,1379.7911 421.64908,1378.4843 C 422.20836,1377.1781 424.39078,1377.3998 425.12948,1379.3274 C 425.75566,1380.9613 424.79103,1383.1643 425.32649,1385.533 C 425.86139,1387.8982 428.26319,1389.2121 428.35649,1392.6085 C 428.37979,1393.4612 428.94865,1396.9379 427.36408,1395.9449 C 425.99068,1395.0843 423.96928,1396.5756 423.62948,1397.7064 C 423.16403,1399.2558 422.81083,1402.2004 425.27948,1402.1854 C 427.21328,1402.1734 426.91588,1404.4165 424.89255,1405.7108 C 423.39075,1406.6718 421.07315,1407.2988 418.88285,1408.4919 C 417.82835,1409.0662 415.90395,1411.2838 414.35025,1413.0427 C 412.96215,1414.6142 409.78785,1414.7845 410.55155,1413.1187 C 411.3274,1411.4273 409.17365,1410.7943 407.87255,1410.8485 C 405.64455,1410.9415 403.54035,1411.2904 404.51835,1413.0464 C 405.72275,1415.207 402.14235,1415.2597 400.72555,1414.3648 C 399.08855,1413.3308 397.25905,1410.1333 395.92905,1408.9586 C 394.42955,1407.6334 391.75275,1407.6734 389.87965,1405.8714 C 388.91644,1404.9442 387.12605,1401.614 389.59137,1402.2884 C 391.39877,1402.7828 391.27347,1399.3344 390.92307,1398.4789 C 390.55598,1397.5823 389.40597,1395.4932 387.65957,1396.3637 C 385.97467,1397.2036 385.95287,1394.3196 385.71527,1393.6994 C 384.59727,1390.7857 387.44837,1388.9165 388.18627,1387.0105 C 388.51736,1386.1547 388.28407,1382.2815 389.32437,1379.9882 C 390.36467,1377.6947 392.67837,1376.981 393.23107,1378.6792 C 393.76285,1380.3137 396.37247,1380.1952 397.71667,1379.1557 C 398.94437,1378.2069 398.77687,1376.2213 397.65967,1374.9927 C 396.77186,1374.0154 398.4409,1371.1949 401.25057,1371.5328 C 403.61267,1371.8171 405.97847,1372.2383 407.31017,1372.3001 L 407.31,1372.3 z" />
          <path
             style="fill:#da121a;fill-opacity:1;stroke:#000000;stroke-width:0.34018736;stroke-miterlimit:4;stroke-dasharray:none;stroke-opacity:1"
             id="_57618696-7"
             d="M 389.26,1387 C 392.7588,1392.9899 398.546,1391.748 403.189,1394.4041 C 400.8892,1399.0096 395.8427,1400.0541 396.5715,1408.7851 C 404.1944,1405.8507 403.7273,1400.8594 407.4465,1397.1791 C 411.2109,1401.092 411.2707,1405.1249 419.1155,1408.1651 C 419.0506,1398.2787 413.8201,1399.3312 411.3599,1394.5381 C 416.1164,1391.871 421.0462,1393.2424 425.5369,1386.9132 C 417.0885,1385.2217 415.2599,1388.5525 410.0749,1389.5605 C 409.12813,1384.4717 412.3837,1380.5451 407.3383,1374.2195 C 402.44,1380.8925 405.7585,1384.3645 405.021,1389.3995 C 399.7676,1388.4116 397.0681,1384.4323 389.261,1387.0002 L 389.26,1387 z" />
          <path
             style="fill:#da121a;fill-opacity:1;stroke:#000000;stroke-width:0.34018736;stroke-miterlimit:4;stroke-dasharray:none;stroke-opacity:1"
             id="_57616808-6"
             d="M 397.29,1379 C 401.7446,1376.0613 405.6879,1376.6027 406.9578,1377.7919 C 407.28747,1378.1008 406.72536,1379.7441 406.69134,1380.2949 C 406.65734,1380.8453 406.60034,1384.5349 407.59333,1384.654 C 408.5863,1384.7733 408.64473,1380.7368 408.64783,1380.1857 C 408.65083,1379.5825 408.02165,1378.0042 408.37457,1377.6501 C 409.71197,1376.3079 413.37967,1376.3485 417.16117,1378.9371 C 420.72857,1381.2261 422.11217,1383.9116 422.15187,1386.8457 C 422.16947,1388.1273 420.00637,1389.2263 419.38807,1389.1424 C 417.89507,1388.9403 414.10177,1389.5191 414.40987,1390.611 C 414.71799,1391.7026 418.43507,1391.0215 419.37477,1390.3967 C 419.59757,1390.2479 421.53307,1389.0497 422.45097,1389.6622 C 424.49927,1391.0285 424.73367,1394.4423 423.37365,1398.0395 C 422.01355,1401.6366 420.22235,1404.5365 417.87615,1404.562 C 417.00648,1404.572 415.93975,1403.6507 415.55175,1403.1509 C 414.58371,1401.9045 412.91465,1398.4995 411.79895,1399.5889 C 410.68355,1400.678 413.41475,1402.6577 414.21835,1403.6566 C 414.5072,1404.016 416.16345,1405.1819 416.02515,1405.7336 C 415.34738,1408.2524 412.04445,1409.9722 407.70915,1409.7052 C 404.64835,1409.517 401.26965,1408.6269 399.85745,1406.5403 C 399.04362,1405.3376 400.30475,1404.0271 400.66929,1403.6098 C 401.47745,1402.6843 403.14849,1400.4554 402.12379,1399.6972 C 401.09909,1398.9386 399.29399,1402.7583 399.12359,1403.3125 C 398.87244,1404.1303 397.98209,1404.5285 397.11779,1404.6334 C 395.38609,1404.8426 392.32579,1401.1239 391.28009,1397.2554 C 390.23439,1393.3867 391.07146,1389.893 392.60159,1389.3964 C 393.26972,1389.1795 395.18109,1389.5035 395.66099,1389.8238 C 396.27894,1390.2351 399.44239,1391.1428 399.65779,1390.0832 C 399.87294,1389.0236 395.91039,1388.2052 395.34379,1388.203 C 394.76552,1388.203 394.26239,1387.492 393.64189,1386.5699 C 392.70929,1385.3207 392.83515,1381.9387 397.29009,1379 L 397.29,1379 z" />
          <path
             style="fill:#da121a;fill-opacity:1;stroke:#000000;stroke-width:0.34018736;stroke-miterlimit:4;stroke-dasharray:none;stroke-opacity:1"
             id="_57615056-8"
             d="M 400.27,1382.7 C 401.16717,1382.1186 400.81113,1380.877 401.6017,1380.1599 C 402.8954,1378.9863 405.8653,1379.153 405.2666,1380.8734 C 404.96414,1381.7427 406.2806,1386.2994 407.3572,1386.3658 C 409.0761,1386.4438 410.3914,1381.6747 410.1839,1380.7313 C 409.97612,1379.7882 411.9281,1379.2344 413.0988,1380.0085 C 414.09121,1380.665 413.68075,1382.1722 414.9135,1383.2709 C 416.1446,1384.3679 417.62,1383.2989 419.0147,1385.1415 C 419.36393,1385.6035 419.55498,1387.5847 418.28534,1387.662 C 416.15314,1387.5413 413.38164,1388.6179 413.63454,1391.0551 C 413.88512,1393.4725 418.20424,1392.6825 419.60094,1391.7524 C 421.32214,1390.6061 421.95084,1392.81 420.87544,1394.8901 C 420.31929,1395.9661 419.67124,1395.4956 418.93114,1397.0218 C 418.57511,1397.7559 419.93174,1399.982 419.25429,1401.4268 C 418.54592,1402.9391 416.95029,1403.1619 416.24559,1401.5617 C 416.00578,1400.3187 412.36749,1396.9926 410.95839,1398.3566 C 409.54929,1399.7206 411.69314,1404.0729 412.87799,1404.7547 C 414.45629,1405.6626 412.90629,1406.9192 411.76909,1406.9847 C 410.45519,1407.0607 408.92619,1405.6388 407.72659,1405.5149 C 406.37389,1405.3755 404.99879,1406.8316 403.34449,1406.8577 C 402.43655,1406.8717 400.32529,1405.78 402.23609,1404.3309 C 403.25029,1403.5619 405.10419,1399.1239 403.34079,1397.7471 C 401.57739,1396.3701 398.69479,1400.2694 398.07319,1401.4413 C 397.47309,1402.5714 396.50759,1402.771 395.94319,1402.2401 C 394.17159,1401.0699 395.76063,1398.4365 395.41424,1397.0906 C 395.25919,1396.4874 393.69104,1395.5628 393.35944,1393.8821 C 393.02779,1392.2014 394.21437,1390.9857 395.19094,1391.7068 C 396.13091,1392.4007 400.05974,1393.0887 401.14254,1390.5715 C 401.82144,1387.774 398.03714,1387.0237 396.93284,1386.7858 C 396.05467,1386.5965 395.30124,1384.2814 396.98864,1383.3568 C 398.40764,1382.5792 399.50924,1383.1926 400.27004,1382.7 L 400.27,1382.7 z" />
          <path
             style="fill:#da121a;fill-opacity:1;stroke:#000000;stroke-width:0.34018736;stroke-miterlimit:4;stroke-dasharray:none;stroke-opacity:1"
             id="_57613800-36"
             d="M 397.21,1396.1 C 401.92,1398.2407 402.7883,1395.6533 405.8171,1395.2281 C 406.39027,1398.1149 403.2566,1398.7555 407.7679,1403.387 C 411.3109,1398.5454 408.50859,1398.1455 408.9006,1395.1799 C 411.9725,1395.6303 412.5681,1398.8428 417.8348,1396.1541 C 414.2498,1391.5201 412.6287,1393.5449 409.8383,1392.2395 C 411.0544,1389.3683 414.2314,1390.4245 413.7637,1384.4873 C 407.1967,1386.3049 409.7867,1388.3563 407.7956,1390.6274 C 405.586,1388.6588 407.37012,1385.1795 401.3746,1384.1809 C 400.55935,1390.4168 404.0253,1389.7901 405.4551,1392.3245 C 402.7344,1393.7175 400.1211,1390.6076 397.21,1396.1 z" />
          <ellipse
             style="fill:#da121a;fill-opacity:1;stroke:#000000;stroke-width:0.34018736;stroke-miterlimit:4;stroke-dasharray:none;stroke-opacity:1"
             id="_57612224-4"
             transform="translate(34.704251,294.50443)"
             ry="6.6753998"
             rx="6.7028999"
             cy="1098.5"
             cx="372.60001"
             d="m 379.30291,1098.5 c 0,3.6867 -3.00099,6.6754 -6.7029,6.6754 -3.70191,0 -6.7029,-2.9887 -6.7029,-6.6754 0,-3.6867 3.00099,-6.6754 6.7029,-6.6754 3.70191,0 6.7029,2.9887 6.7029,6.6754 z"
             sodipodi:cx="372.60001"
             sodipodi:cy="1098.5"
             sodipodi:rx="6.7028999"
             sodipodi:ry="6.6753998" />
        </g>
      </g>
    </g>
  </g>
</svg>
