<?xml version="1.0" encoding="UTF-8" standalone="no"?>
<svg
   xmlns:dc="http://purl.org/dc/elements/1.1/"
   xmlns:cc="http://creativecommons.org/ns#"
   xmlns:rdf="http://www.w3.org/1999/02/22-rdf-syntax-ns#"
   xmlns:svg="http://www.w3.org/2000/svg"
   xmlns="http://www.w3.org/2000/svg"
   xmlns:sodipodi="http://sodipodi.sourceforge.net/DTD/sodipodi-0.dtd"
   xmlns:inkscape="http://www.inkscape.org/namespaces/inkscape"
   width="800"
   height="500"
   id="svg2"
   sodipodi:version="0.32"
   inkscape:version="0.46"
   sodipodi:docname="Flag_of_Santa Bárbara de Pinto_(Magdalena).svg"
   inkscape:output_extension="org.inkscape.output.svg.inkscape"
   version="1.0">
  <metadata
     id="metadata11">
    <rdf:RDF>
      <cc:Work
         rdf:about="">
        <dc:format>image/svg+xml</dc:format>
        <dc:type
           rdf:resource="http://purl.org/dc/dcmitype/StillImage" />
      </cc:Work>
    </rdf:RDF>
  </metadata>
  <defs
     id="defs9" />
  <sodipodi:namedview
     inkscape:window-height="712"
     inkscape:window-width="1024"
     inkscape:pageshadow="2"
     inkscape:pageopacity="0.0"
     guidetolerance="10.0"
     gridtolerance="10.0"
     objecttolerance="10.0"
     borderopacity="1.0"
     bordercolor="#666666"
     pagecolor="#ffffff"
     id="base"
     showgrid="false"
     inkscape:zoom="1.014"
     inkscape:cx="400"
     inkscape:cy="250"
     inkscape:window-x="-4"
     inkscape:window-y="-4"
     inkscape:current-layer="svg2" />
  <rect
     width="800"
     height="502"
     id="rect4"
     x="0"
     y="-502"
     style="fill:#0f47af;fill-opacity:1"
     transform="scale(1,-1)" />
  <rect
     width="800"
     height="302.59763"
     id="rect6"
     x="0"
     y="-502"
     style="fill:#ffffff"
     transform="scale(1,-1)" />
  <g
     transform="matrix(0.81,0,0,0.81,97.630668,-300.80094)"
     id="layer1"
     inkscape:label="Capa 1">
    <path
       transform="matrix(0.5366365,0,0,0.538016,265.111,736.47233)"
       d="M 362.01917,353.05525 L 296.24489,312.29311 L 286.62709,389.07401 L 235.78982,330.73551 L 203.96775,401.27034 L 172.58462,330.53911 L 121.3858,388.56057 L 112.24533,311.72138 L 46.219011,352.07399 L 60.133374,275.95436 L -14.853722,295.05261 L 20.879119,226.41609 L -56.405819,222.56302 L -2.0295176,167.50827 L -74.745192,141.04625 L -6.5570043,104.46513 L -68.242308,57.745417 L 7.6989463,42.888308 L -37.474977,-19.937837 L 39.47163,-11.750808 L 14.82299,-85.101011 L 85.937906,-54.597299 L 84.004687,-131.95407 L 142.96904,-81.844066 L 163.92302,-156.33392 L 205.49757,-91.070113 L 247.47689,-156.0743 L 267.96755,-81.455666 L 327.24217,-131.19828 L 324.82826,-53.855011 L 396.13137,-83.916197 L 371.02737,-10.720587 L 448.02337,-18.42928 L 402.45989,44.114923 L 478.30735,59.443675 L 416.33291,105.77914 L 484.29245,142.78331 L 411.41373,168.79294 L 465.44685,224.18454 L 388.13946,227.55725 L 423.44508,296.41451 L 348.57811,276.85062 L 362.01917,353.05525 z"
       inkscape:randomized="0"
       inkscape:rounded="3.469447e-18"
       inkscape:flatsided="false"
       sodipodi:arg2="1.1251046"
       sodipodi:arg1="0.97550495"
       sodipodi:r2="212.03888"
       sodipodi:r1="280.30396"
       sodipodi:cy="120.96774"
       sodipodi:cx="204.83871"
       sodipodi:sides="21"
       id="path3255"
       style="fill:#fcdd09;fill-opacity:1;stroke:none"
       sodipodi:type="star" />
  </g>
  <path
     style="fill:#078730;fill-opacity:1;stroke:none;stroke-width:1.81500006;stroke-linejoin:round;stroke-miterlimit:4;stroke-dashoffset:0;stroke-opacity:1"
     d="M 25.190562,502.18939 C 104.87262,402.20519 242.43289,335.21951 398.67087,335.21951 C 555.97838,335.21951 694.35159,401.9483 773.77943,502.67184 L 25.190562,502.18939 z"
     id="path3151"
     sodipodi:nodetypes="cscc" />
  <g
     transform="matrix(2.2689325,0,0,2.2689325,-94.797726,-252.86457)"
     id="use3949-1"
     style="stroke:#000000;stroke-width:0.22036795;stroke-miterlimit:4;stroke-dasharray:none;stroke-opacity:1">
    <path
       d="M 237.00426,191.53677 L 237.64713,194.2929 C 240.49547,195.23847 239.67301,192.08085 240.11051,190.87935 C 239.14147,191.20619 239.3889,193.41461 238.67986,193.05695 C 237.55247,192.76514 238.16199,191.94833 237.90341,191.3939 C 238.34786,192.20099 239.49507,191.15793 240.44559,190.63269 C 239.30298,190.92971 238.21294,191.1761 237.89256,190.68109 L 232.91923,186.42876 L 232.14259,187.06117 L 237.00426,191.5368 L 237.00426,191.53677 L 237.00426,191.53677 z"
       id="path2980"
       style="fill:#ed1c24;fill-opacity:1;fill-rule:evenodd;stroke:#000000;stroke-width:0.22036795;stroke-linecap:butt;stroke-linejoin:miter;stroke-miterlimit:4;stroke-dasharray:none;stroke-opacity:1" />
    <g
       transform="matrix(0.2584344,0,0,0.2584344,126.52365,42.146776)"
       id="g2982"
       style="stroke:#000000;stroke-width:0.85270362;stroke-miterlimit:4;stroke-dasharray:none;stroke-opacity:1;display:inline">
      <g
         transform="matrix(0.7509426,-0.6617759,0.6429314,0.729559,-346.89305,-491.61814)"
         id="g2984"
         style="stroke:#000000;stroke-width:0.86430552;stroke-miterlimit:4;stroke-dasharray:none;stroke-opacity:1">
        <path
           d="M -150.87615,1291.9486 C -144.06063,1261.0604 -158.24235,1233.0515 -169.86772,1217.9477 C -208.7559,1167.424 -182.51148,1135.8378 -171.72738,1123.806 C -149.79885,1099.3404 -130.95472,1084.3837 -123.74896,1077.2798 C -117.37616,1070.9972 -123.03044,1093.9248 -130.93778,1109.6148 C -112.36596,1102.8386 -127.47053,1133.1611 -132.5865,1137.7267 C -119.5868,1128.7284 -120.05543,1146.4177 -126.34237,1155.0843 C -122.17661,1155.7186 -110.27784,1157.3362 -123.8996,1173.5618 C -115.5879,1173.9482 -107.87344,1176.9087 -117.46164,1190.39 C -98.146795,1199.0306 -103.08771,1203.0015 -109.96386,1208.1383 C -85.045808,1221.3044 -99.840617,1219.5477 -102.012,1223.7217 C -86.34859,1235.6044 -94.499932,1237.8449 -104.00042,1239.5391 C -87.574967,1250.7671 -89.385738,1254.5596 -101.25448,1254.2512 C -94.290897,1262.5305 -84.235897,1272.4488 -108.33936,1264.2576 C -102.29388,1268.6597 -99.820119,1274.9605 -100.91814,1283.1596 C -104.70901,1280.0733 -108.4997,1276.987 -112.29046,1273.9007 C -107.69114,1284.6303 -111.49804,1289.13 -114.75918,1293.3923 C -113.41309,1291.0773 -123.82381,1270.1517 -123.19121,1274.0508 C -121.9901,1281.4538 -123.28611,1303.1486 -127.56381,1299.3299 C -126.89007,1292.7571 -125.65337,1286.1191 -128.99557,1280.012"
           id="path2986"
           style="fill:#ffffff;fill-opacity:1;fill-rule:nonzero;stroke:#000000;stroke-width:0.86430552;stroke-linecap:butt;stroke-linejoin:miter;stroke-miterlimit:4;stroke-dasharray:none;stroke-opacity:1" />
        <path
           d="M -130.97063,1109.6224 C -139.85462,1123.7325 -150.40755,1128.4357 -160.85628,1138.4193"
           id="path2988"
           style="fill:#e3e4e5;fill-opacity:1;fill-rule:nonzero;stroke:#000000;stroke-width:0.86430552;stroke-linecap:butt;stroke-linejoin:miter;stroke-miterlimit:4;stroke-dasharray:none;stroke-opacity:1" />
        <path
           d="M -131.97652,1137.2169 C -139.13605,1144.9781 -145.6357,1148.1964 -151.45671,1152.0035"
           id="path2990"
           style="fill:#e3e4e5;fill-opacity:1;fill-rule:nonzero;stroke:#000000;stroke-width:0.86430552;stroke-linecap:butt;stroke-linejoin:miter;stroke-miterlimit:4;stroke-dasharray:none;stroke-opacity:1" />
        <path
           d="M -126.25636,1155.0653 C -132.22774,1161.6784 -136.36998,1163.3357 -145.83806,1167.2163"
           id="path2992"
           style="fill:#e3e4e5;fill-opacity:1;fill-rule:nonzero;stroke:#000000;stroke-width:0.86430552;stroke-linecap:butt;stroke-linejoin:miter;stroke-miterlimit:4;stroke-dasharray:none;stroke-opacity:1" />
        <path
           d="M -123.81825,1173.5569 C -128.44986,1178.7141 -131.5878,1181.7792 -137.09314,1183.9491"
           id="path2994"
           style="fill:#e3e4e5;fill-opacity:1;fill-rule:nonzero;stroke:#000000;stroke-width:0.86430552;stroke-linecap:butt;stroke-linejoin:miter;stroke-miterlimit:4;stroke-dasharray:none;stroke-opacity:1" />
        <path
           d="M -117.43649,1190.2401 C -122.33031,1195.313 -129.43314,1194.9451 -134.91154,1195.1082"
           id="path2996"
           style="fill:#e3e4e5;fill-opacity:1;fill-rule:nonzero;stroke:#000000;stroke-width:0.86430552;stroke-linecap:butt;stroke-linejoin:miter;stroke-miterlimit:4;stroke-dasharray:none;stroke-opacity:1" />
        <path
           d="M -110.08226,1208.2564 C -113.92389,1211.2482 -122.72929,1208.3164 -132.73002,1206.2673"
           id="path2998"
           style="fill:#e3e4e5;fill-opacity:1;fill-rule:nonzero;stroke:#000000;stroke-width:0.86430552;stroke-linecap:butt;stroke-linejoin:miter;stroke-miterlimit:4;stroke-dasharray:none;stroke-opacity:1" />
        <path
           d="M -102.1158,1223.491 C -107.56111,1225.2012 -117.5172,1220.1411 -127.83874,1215.5983"
           id="path3000"
           style="fill:#e3e4e5;fill-opacity:1;fill-rule:nonzero;stroke:#000000;stroke-width:0.86430552;stroke-linecap:butt;stroke-linejoin:miter;stroke-miterlimit:4;stroke-dasharray:none;stroke-opacity:1" />
        <path
           d="M -102.84305,1240.0054 C -109.54729,1237.8905 -118.14844,1233.1608 -128.01051,1226.693"
           id="path3002"
           style="fill:#e3e4e5;fill-opacity:1;fill-rule:nonzero;stroke:#000000;stroke-width:0.86430552;stroke-linecap:butt;stroke-linejoin:miter;stroke-miterlimit:4;stroke-dasharray:none;stroke-opacity:1" />
        <path
           d="M -100.89352,1254.3206 C -107.86798,1249.8027 -113.6765,1247.6675 -123.92328,1238.7866"
           id="path3004"
           style="fill:#e3e4e5;fill-opacity:1;fill-rule:nonzero;stroke:#000000;stroke-width:0.86430552;stroke-linecap:butt;stroke-linejoin:miter;stroke-miterlimit:4;stroke-dasharray:none;stroke-opacity:1" />
      </g>
      <path
         d="M 212.75,475.59375 C 210.40191,475.59375 207.96247,475.91317 205.03125,476.75 C 194.85663,474.56578 175.45617,489.68714 182.78125,490.90625 C 187.41125,491.67695 187.57133,492.35942 190.6875,494.875 L 129.34375,517.09375 L 198.1875,499.40625 C 218.12841,497.16842 226.86301,501.48208 235.5,508.84375 C 249.71259,519.05349 256.48963,534.22952 272.96875,541.8125 C 283.6896,546.14006 296.94148,550.63012 312.25,554.59375 C 331.66365,559.62042 352.11047,560.89453 368.21875,577.75 L 358.21875,564 C 364.85758,566.9218 371.25344,570.1014 374.34375,576.40625 C 375.49974,573.30294 374.01075,569.89509 372,566.40625 C 377.12609,570.35953 381.77808,574.56948 384.65625,579.8125 C 383.81851,575.49429 383.37135,571.25577 379,566.15625 C 385.6701,569.58608 391.94181,573.39557 395.9375,579.375 C 394.55002,573.5123 390.3748,568.18183 384.4375,563.21875 L 399.09375,572.8125 L 395.5625,564.53125 C 413.99927,565.17503 431.46651,561.3198 448.9375,556.9375 C 472.56665,548.33869 494.4579,555.01339 516.5,564.15625 C 516.5169,562.43004 516.66053,560.86729 514.875,556.6875 C 499.24371,537.91226 476.56542,528.18652 453.96875,518.40625 C 475.91332,527.78119 498.84532,535.23438 515.53125,555.09375 C 517.03349,556.57724 518.32441,556.46139 519.65625,556.65625 C 507.05689,533.67634 431.3078,488.62928 392.65625,490.34375 C 388.08799,489.83731 383.43111,489.58659 378.78125,489.625 C 368.55157,489.7096 358.42113,491.26137 349.78125,495 C 332.96582,502.27644 326.38074,506.77555 314.28125,519.5625 C 309.8071,524.29082 307.02581,526.88429 299.21875,525.875 C 265.69915,516.59992 255.43228,493.82861 222,476.6875 C 218.6136,476.11062 215.76897,475.59643 212.75,475.59375 z"
         id="path3006"
         style="fill:#ffffff;fill-opacity:1;fill-rule:nonzero;stroke:#000000;stroke-width:0.85270362;stroke-linecap:butt;stroke-linejoin:miter;stroke-miterlimit:4;stroke-dasharray:none;stroke-opacity:1" />
      <g
         transform="matrix(0.8976808,0.4427542,-0.4301465,0.8721188,1012.131,-538.21623)"
         id="g3008"
         style="stroke:#000000;stroke-width:0.8643055;stroke-miterlimit:4;stroke-dasharray:none;stroke-opacity:1">
        <path
           d="M -143.87191,1262.559 C -116.58625,1237.6618 -114.28786,1201.8214 -117.43305,1179.9031 C -127.95419,1106.5844 -78.806424,1093.6808 -59.217449,1089.2782 C -19.385074,1080.326 10.96035,1078.3959 23.450415,1076.3428 C 34.49668,1074.527 13.587012,1092.6199 -5.172843,1102.3709 C 19.635621,1108.033 -16.424409,1126.9932 -24.986135,1127.9969 C -4.8970292,1127.9189 -16.73745,1144.4143 -29.215215,1148.5503 C -25.029564,1151.8664 -12.949752,1161.1538 -38.351139,1167.691 C -29.436978,1173.4724 -22.828964,1181.3096 -42.027624,1187.8678 C -26.269322,1208.6566 -34.257407,1209.2094 -45.124907,1209.6089 C -26.087607,1238.346 -41.270462,1227.0398 -46.335856,1229.5897 C -36.677777,1251.0791 -47.096819,1247.8971 -58.653218,1243.3174 C -47.736074,1264.6814 -52.159752,1267.1038 -65.044575,1259.0794 C -62.669045,1271.479 -57.935241,1287.4492 -79.259453,1263.9679 C -75.413915,1272.0871 -76.720699,1279.6829 -83.179736,1286.755 C -85.382434,1281.3542 -87.585028,1275.9536 -89.787633,1270.5529 C -91.586736,1283.7398 -98.66332,1285.5336 -104.98641,1287.4574 C -102.02074,1286.1355 -100.10024,1259.4792 -101.89898,1263.5946 C -105.31417,1271.4082 -120.6307,1291.1692 -122.90121,1284.7556 C -117.95101,1278.9518 -112.33853,1273.4529 -112.11291,1265.4753"
           id="path3010"
           style="fill:#ffffff;fill-opacity:1;fill-rule:nonzero;stroke:#000000;stroke-width:0.8643055;stroke-linecap:butt;stroke-linejoin:miter;stroke-miterlimit:4;stroke-dasharray:none;stroke-opacity:1" />
        <path
           d="M -112.06831,1232.7196 C -86.963563,1179.8268 -121.63277,1156.0724 -86.767776,1120.7605"
           id="path3012"
           style="fill:none;fill-opacity:1;fill-rule:nonzero;stroke:#000000;stroke-width:0.8643055;stroke-linecap:butt;stroke-linejoin:miter;stroke-miterlimit:4;stroke-dasharray:none;stroke-opacity:1" />
        <path
           d="M -5.2139172,1102.3567 C -24.038875,1109.9709 -38.681552,1107.5635 -56.58968,1110.2392"
           id="path3014"
           style="fill:#e3e4e5;fill-opacity:1;fill-rule:nonzero;stroke:#000000;stroke-width:0.8643055;stroke-linecap:butt;stroke-linejoin:miter;stroke-miterlimit:4;stroke-dasharray:none;stroke-opacity:1" />
        <path
           d="M -23.987413,1127.91 C -36.847367,1130.6176 -46.071759,1129.4402 -54.925108,1129.2643"
           id="path3016"
           style="fill:#e3e4e5;fill-opacity:1;fill-rule:nonzero;stroke:#000000;stroke-width:0.8643055;stroke-linecap:butt;stroke-linejoin:miter;stroke-miterlimit:4;stroke-dasharray:none;stroke-opacity:1" />
        <path
           d="M -29.108198,1148.5882 C -39.923524,1150.9793 -45.550235,1149.8551 -58.4705,1147.373"
           id="path3018"
           style="fill:#e3e4e5;fill-opacity:1;fill-rule:nonzero;stroke:#000000;stroke-width:0.8643055;stroke-linecap:butt;stroke-linejoin:miter;stroke-miterlimit:4;stroke-dasharray:none;stroke-opacity:1" />
        <path
           d="M -38.258288,1167.7393 C -46.664904,1169.6204 -52.085823,1170.4875 -59.543128,1168.9621"
           id="path3020"
           style="fill:#e3e4e5;fill-opacity:1;fill-rule:nonzero;stroke:#000000;stroke-width:0.8643055;stroke-linecap:butt;stroke-linejoin:miter;stroke-miterlimit:4;stroke-dasharray:none;stroke-opacity:1" />
        <path
           d="M -41.903947,1187.7419 C -50.545617,1189.3721 -58.139085,1184.3957 -64.282026,1180.9819"
           id="path3022"
           style="fill:#e3e4e5;fill-opacity:1;fill-rule:nonzero;stroke:#000000;stroke-width:0.8643055;stroke-linecap:butt;stroke-linejoin:miter;stroke-miterlimit:4;stroke-dasharray:none;stroke-opacity:1" />
        <path
           d="M -45.331013,1209.6439 C -51.48067,1209.983 -59.309717,1201.4627 -69.021019,1193.0016"
           id="path3024"
           style="fill:#e3e4e5;fill-opacity:1;fill-rule:nonzero;stroke:#000000;stroke-width:0.8643055;stroke-linecap:butt;stroke-linejoin:miter;stroke-miterlimit:4;stroke-dasharray:none;stroke-opacity:1" />
        <path
           d="M -46.302605,1229.303 C -53.399452,1227.3801 -61.134202,1216.0885 -69.602971,1205.0503"
           id="path3026"
           style="fill:#e3e4e5;fill-opacity:1;fill-rule:nonzero;stroke:#000000;stroke-width:0.8643055;stroke-linecap:butt;stroke-linejoin:miter;stroke-miterlimit:4;stroke-dasharray:none;stroke-opacity:1" />
        <path
           d="M -57.675971,1244.5142 C -63.711814,1238.1382 -70.164684,1228.0432 -76.894649,1215.4759"
           id="path3028"
           style="fill:#e3e4e5;fill-opacity:1;fill-rule:nonzero;stroke:#000000;stroke-width:0.8643055;stroke-linecap:butt;stroke-linejoin:miter;stroke-miterlimit:4;stroke-dasharray:none;stroke-opacity:1" />
        <path
           d="M -64.691101,1259.3804 C -69.486546,1250.5462 -74.522023,1244.7344 -80.131268,1229.6245"
           id="path3030"
           style="fill:#e3e4e5;fill-opacity:1;fill-rule:nonzero;stroke:#000000;stroke-width:0.8643055;stroke-linecap:butt;stroke-linejoin:miter;stroke-miterlimit:4;stroke-dasharray:none;stroke-opacity:1" />
        <path
           d="M -76.798976,1106.2985 L -65.97072,1104.7004"
           id="path3032"
           style="fill:#e3e4e5;fill-opacity:1;fill-rule:nonzero;stroke:#000000;stroke-width:0.8643055;stroke-linecap:butt;stroke-linejoin:miter;stroke-miterlimit:4;stroke-dasharray:none;stroke-opacity:1" />
        <path
           d="M -74.935668,1115.9878 L -65.766445,1115.185"
           id="path3034"
           style="fill:#e3e4e5;fill-opacity:1;fill-rule:nonzero;stroke:#000000;stroke-width:0.8643055;stroke-linecap:butt;stroke-linejoin:miter;stroke-miterlimit:4;stroke-dasharray:none;stroke-opacity:1" />
        <path
           d="M -72.928966,1125.2237 L -63.322898,1126.0071"
           id="path3036"
           style="fill:#e3e4e5;fill-opacity:1;fill-rule:nonzero;stroke:#000000;stroke-width:0.8643055;stroke-linecap:butt;stroke-linejoin:miter;stroke-miterlimit:4;stroke-dasharray:none;stroke-opacity:1" />
        <path
           d="M -73.448404,1135.0288 L -63.405559,1137.3986"
           id="path3038"
           style="fill:#e3e4e5;fill-opacity:1;fill-rule:nonzero;stroke:#000000;stroke-width:0.8643055;stroke-linecap:butt;stroke-linejoin:miter;stroke-miterlimit:4;stroke-dasharray:none;stroke-opacity:1" />
        <path
           d="M -75.087629,1144.6649 L -65.078875,1147.885"
           id="path3040"
           style="fill:#e3e4e5;fill-opacity:1;fill-rule:nonzero;stroke:#000000;stroke-width:0.8643055;stroke-linecap:butt;stroke-linejoin:miter;stroke-miterlimit:4;stroke-dasharray:none;stroke-opacity:1" />
        <path
           d="M -75.859691,1154.527 L -65.093134,1157.5763"
           id="path3042"
           style="fill:#e3e4e5;fill-opacity:1;fill-rule:nonzero;stroke:#000000;stroke-width:0.8643055;stroke-linecap:butt;stroke-linejoin:miter;stroke-miterlimit:4;stroke-dasharray:none;stroke-opacity:1" />
        <path
           d="M -76.918573,1165.2962 L -67.053281,1168.9699"
           id="path3044"
           style="fill:#e3e4e5;fill-opacity:1;fill-rule:nonzero;stroke:#000000;stroke-width:0.8643055;stroke-linecap:butt;stroke-linejoin:miter;stroke-miterlimit:4;stroke-dasharray:none;stroke-opacity:1" />
        <path
           d="M -78.120929,1176.5187 L -70.310688,1181.4981"
           id="path3046"
           style="fill:#e3e4e5;fill-opacity:1;fill-rule:nonzero;stroke:#000000;stroke-width:0.8643055;stroke-linecap:butt;stroke-linejoin:miter;stroke-miterlimit:4;stroke-dasharray:none;stroke-opacity:1" />
        <path
           d="M -80.770477,1186.3828 L -72.564242,1190.8516"
           id="path3048"
           style="fill:#e3e4e5;fill-opacity:1;fill-rule:nonzero;stroke:#000000;stroke-width:0.8643055;stroke-linecap:butt;stroke-linejoin:miter;stroke-miterlimit:4;stroke-dasharray:none;stroke-opacity:1" />
        <path
           d="M -82.088664,1194.2619 L -75.145504,1199.0153"
           id="path3050"
           style="fill:#e3e4e5;fill-opacity:1;fill-rule:nonzero;stroke:#000000;stroke-width:0.8643055;stroke-linecap:butt;stroke-linejoin:miter;stroke-miterlimit:4;stroke-dasharray:none;stroke-opacity:1" />
        <path
           d="M -83.768578,1201.8013 L -76.89388,1208.255"
           id="path3052"
           style="fill:#e3e4e5;fill-opacity:1;fill-rule:nonzero;stroke:#000000;stroke-width:0.8643055;stroke-linecap:butt;stroke-linejoin:miter;stroke-miterlimit:4;stroke-dasharray:none;stroke-opacity:1" />
        <path
           d="M -86.568258,1209.1719 L -81.421019,1218.1209"
           id="path3054"
           style="fill:#e3e4e5;fill-opacity:1;fill-rule:nonzero;stroke:#000000;stroke-width:0.8643055;stroke-linecap:butt;stroke-linejoin:miter;stroke-miterlimit:4;stroke-dasharray:none;stroke-opacity:1" />
        <path
           d="M -100.05017,1253.9457 C -99.25924,1248.0914 -100.11137,1240.1679 -100.44319,1230.2364"
           id="path3056"
           style="fill:#e3e4e5;fill-opacity:1;fill-rule:nonzero;stroke:#000000;stroke-width:0.8643055;stroke-linecap:butt;stroke-linejoin:miter;stroke-miterlimit:4;stroke-dasharray:none;stroke-opacity:1" />
        <path
           d="M -91.254517,1259.7073 C -91.551072,1252.4464 -94.081268,1240.9712 -96.062016,1227.5941"
           id="path3058"
           style="fill:#e3e4e5;fill-opacity:1;fill-rule:nonzero;stroke:#000000;stroke-width:0.8643055;stroke-linecap:butt;stroke-linejoin:miter;stroke-miterlimit:4;stroke-dasharray:none;stroke-opacity:1" />
        <path
           d="M -84.688323,1250.4835 L -92.784463,1221.9876"
           id="path3060"
           style="fill:#e3e4e5;fill-opacity:1;fill-rule:nonzero;stroke:#000000;stroke-width:0.8643055;stroke-linecap:butt;stroke-linejoin:miter;stroke-miterlimit:4;stroke-dasharray:none;stroke-opacity:1" />
        <path
           d="M -84.899209,1224.9162 L -89.535883,1216.749"
           id="path3062"
           style="fill:#e3e4e5;fill-opacity:1;fill-rule:nonzero;stroke:#000000;stroke-width:0.8643055;stroke-linecap:butt;stroke-linejoin:miter;stroke-miterlimit:4;stroke-dasharray:none;stroke-opacity:1" />
      </g>
      <g
         transform="translate(-5.4929577,-173.94366)"
         id="g3064"
         style="stroke:#000000;stroke-width:0.85270362;stroke-miterlimit:4;stroke-dasharray:none;stroke-opacity:1">
        <path
           d="M 207.92708,650.33101 C 215.10586,645.09887 237.95377,645.70002 248.01342,648.85106 C 256.36727,651.46787 277.47418,652.69334 287.31638,649.69107 C 284.85595,654.11731 266.98573,656.91133 250.48828,654.78936 C 256.45174,659.77895 256.66963,662.09335 282.74262,669.34643 C 275.67354,668.91065 267.9875,666.87212 257.53239,664.43639 C 248.42588,662.31492 238.72473,655.16198 229.54237,655.84975 C 220.03443,658.36722 213.33938,655.56265 207.92708,650.33101 L 207.92708,650.33101 z"
           id="path3066"
           style="fill:#e3e4e5;fill-opacity:1;fill-rule:nonzero;stroke:#000000;stroke-width:0.85270362;stroke-linecap:butt;stroke-linejoin:miter;stroke-miterlimit:4;stroke-dasharray:none;stroke-opacity:1" />
        <path
           d="M 210.50181,661.97441 C 210.50181,663.31862 209.21239,664.40954 207.62362,664.40954 C 206.03486,664.40954 204.74543,663.31862 204.74543,661.97441 C 204.74543,660.63031 206.03486,659.53939 207.62362,659.53939 C 209.21239,659.53939 210.50181,660.63031 210.50181,661.97441 z"
           id="path3068"
           style="fill:#e3e4e5;fill-opacity:1;fill-rule:nonzero;stroke:#000000;stroke-width:0.85270362;stroke-linecap:butt;stroke-linejoin:miter;stroke-miterlimit:4;stroke-dasharray:none;stroke-dashoffset:0;stroke-opacity:1" />
        <path
           d="M 208.18536,661.86194 C 208.18536,662.35937 207.75178,662.76312 207.21755,662.76312 C 206.68331,662.76312 206.24973,662.35937 206.24973,661.86194 C 206.24973,661.36451 206.68331,660.96076 207.21755,660.96076 C 207.75178,660.96076 208.18536,661.36451 208.18536,661.86194 z"
           id="path3070"
           style="fill:#000000;fill-opacity:1;fill-rule:nonzero;stroke:#000000;stroke-width:0.85270362;stroke-linecap:butt;stroke-linejoin:miter;stroke-miterlimit:4;stroke-dasharray:none;stroke-dashoffset:0;stroke-opacity:1" />
        <g
           transform="matrix(1.0000138,0,0,0.9944574,505.08871,-765.82466)"
           id="g3072"
           style="stroke:#000000;stroke-width:0.85507069;stroke-miterlimit:4;stroke-dasharray:none;stroke-opacity:1">
          <path
             d="M -317.90482,1438.5516 C -318.95593,1439.1336 -372.436,1465.4088 -372.436,1465.4088 L -307.73187,1441.5934 C -307.63927,1437.7905 -313.88561,1439.0854 -317.90482,1438.5516 z"
             id="path3074"
             style="fill:#ed1c24;fill-opacity:1;fill-rule:nonzero;stroke:#000000;stroke-width:0.85507069;stroke-linecap:butt;stroke-linejoin:miter;stroke-miterlimit:4;stroke-dasharray:none;stroke-opacity:1" />
          <path
             d="M -372.4741,1465.581 L -312.40893,1449.7907 C -312.7007,1447.6413 -311.0486,1444.992 -307.57187,1441.7383 L -372.4741,1465.581 z"
             id="path3076"
             style="fill:#ed1c24;fill-opacity:1;fill-rule:nonzero;stroke:#000000;stroke-width:0.85507069;stroke-linecap:butt;stroke-linejoin:miter;stroke-miterlimit:4;stroke-dasharray:none;stroke-opacity:1" />
        </g>
      </g>
    </g>
    <path
       d="M 240.85807,189.39345 L 242.11327,189.94007 L 242.11323,189.94005 L 243.33134,192.3474 C 245.01482,193.90977 246.15943,190.36381 245.94824,189.31959 C 245.3033,190.03707 245.51618,191.72295 244.73142,191.5875 C 243.22102,191.24472 243.52635,190.24479 242.98427,189.55157 C 243.59762,190.18407 244.52962,188.87976 245.37243,188.11751 C 244.28964,188.71969 243.24898,189.25942 242.82492,188.88498 L 241.56971,188.33836 L 237.48718,187.12684 L 234.63647,184.31628 L 233.67285,185.039 L 236.68416,188.05031 L 240.85807,189.39345 L 240.85807,189.39345 z"
       id="path3078"
       style="fill:#ed1c24;fill-opacity:1;fill-rule:evenodd;stroke:#000000;stroke-width:0.22036795;stroke-linecap:butt;stroke-linejoin:miter;stroke-miterlimit:4;stroke-dasharray:none;stroke-opacity:1" />
  </g>
</svg>
