<?xml version="1.0" encoding="UTF-8" standalone="no"?>
<!-- Created with Inkscape (http://www.inkscape.org/) -->

<svg
   xmlns:dc="http://purl.org/dc/elements/1.1/"
   xmlns:cc="http://creativecommons.org/ns#"
   xmlns:rdf="http://www.w3.org/1999/02/22-rdf-syntax-ns#"
   xmlns:svg="http://www.w3.org/2000/svg"
   xmlns="http://www.w3.org/2000/svg"
   xmlns:sodipodi="http://sodipodi.sourceforge.net/DTD/sodipodi-0.dtd"
   xmlns:inkscape="http://www.inkscape.org/namespaces/inkscape"
   width="750"
   height="500"
   id="svg2"
   version="1.1"
   inkscape:version="0.47 r22583"
   sodipodi:docname="Flag of Duitama (Boyacá).svg">
  <defs
     id="defs4">
    <inkscape:perspective
       sodipodi:type="inkscape:persp3d"
       inkscape:vp_x="0 : 526.18109 : 1"
       inkscape:vp_y="0 : 1000 : 0"
       inkscape:vp_z="744.09448 : 526.18109 : 1"
       inkscape:persp3d-origin="372.04724 : 350.78739 : 1"
       id="perspective10" />
    <inkscape:perspective
       id="perspective2834"
       inkscape:persp3d-origin="0.5 : 0.33333333 : 1"
       inkscape:vp_z="1 : 0.5 : 1"
       inkscape:vp_y="0 : 1000 : 0"
       inkscape:vp_x="0 : 0.5 : 1"
       sodipodi:type="inkscape:persp3d" />
    <inkscape:perspective
       id="perspective3873"
       inkscape:persp3d-origin="0.5 : 0.33333333 : 1"
       inkscape:vp_z="1 : 0.5 : 1"
       inkscape:vp_y="0 : 1000 : 0"
       inkscape:vp_x="0 : 0.5 : 1"
       sodipodi:type="inkscape:persp3d" />
    <inkscape:perspective
       id="perspective3765"
       inkscape:persp3d-origin="0.5 : 0.33333333 : 1"
       inkscape:vp_z="1 : 0.5 : 1"
       inkscape:vp_y="0 : 1000 : 0"
       inkscape:vp_x="0 : 0.5 : 1"
       sodipodi:type="inkscape:persp3d" />
    <inkscape:perspective
       id="perspective2930"
       inkscape:persp3d-origin="0.5 : 0.33333333 : 1"
       inkscape:vp_z="1 : 0.5 : 1"
       inkscape:vp_y="0 : 1000 : 0"
       inkscape:vp_x="0 : 0.5 : 1"
       sodipodi:type="inkscape:persp3d" />
    <inkscape:perspective
       id="perspective4474"
       inkscape:persp3d-origin="0.5 : 0.33333333 : 1"
       inkscape:vp_z="1 : 0.5 : 1"
       inkscape:vp_y="0 : 1000 : 0"
       inkscape:vp_x="0 : 0.5 : 1"
       sodipodi:type="inkscape:persp3d" />
  </defs>
  <sodipodi:namedview
     id="base"
     pagecolor="#ffffff"
     bordercolor="#666666"
     borderopacity="1.0"
     inkscape:pageopacity="0.0"
     inkscape:pageshadow="2"
     inkscape:zoom="0.71219298"
     inkscape:cx="350"
     inkscape:cy="204.78261"
     inkscape:document-units="px"
     inkscape:current-layer="layer1"
     showgrid="false"
     inkscape:window-width="1024"
     inkscape:window-height="538"
     inkscape:window-x="-8"
     inkscape:window-y="-8"
     inkscape:window-maximized="1" />
  <metadata
     id="metadata7">
    <rdf:RDF>
      <cc:Work
         rdf:about="">
        <dc:format>image/svg+xml</dc:format>
        <dc:type
           rdf:resource="http://purl.org/dc/dcmitype/StillImage" />
        <dc:title></dc:title>
      </cc:Work>
    </rdf:RDF>
  </metadata>
  <g
     inkscape:label="Capa 1"
     inkscape:groupmode="layer"
     id="layer1"
     transform="translate(0,-552.36218)">
    <rect
       style="fill:#078930;fill-opacity:1;stroke:none"
       id="rect2816"
       width="750"
       height="250"
       x="0"
       y="-5.6843419e-14"
       transform="translate(0,552.36218)" />
    <rect
       style="fill:#fcdd09;fill-opacity:1;stroke:none"
       id="rect2818"
       width="750"
       height="125"
       x="0"
       y="250"
       transform="translate(0,552.36218)" />
    <rect
       style="fill:#da121a;fill-opacity:1;stroke:none"
       id="rect2820"
       width="750"
       height="125"
       x="0"
       y="927.36218" />
    <g
       transform="matrix(-1.2413634,3.4459084,-4.6328468,-0.92332506,649.88885,557.10056)"
       id="Hand"
       style="fill:#ffffff;stroke:#000000;stroke-width:0.21918546000000000">
      <path
         d="m 59.32513,36.503348 c 0.131853,0.193181 0.863282,-0.169185 1.236268,0.191182 3.334403,1.978778 6.148488,-0.868321 8.152187,-3.815391 0.892096,-0.83858 1.645044,-1.518499 2.481455,-2.104791 0.188671,0.555274 0.340427,0.5969 0.458267,1.32984 1.229529,-1.375207 1.975048,-2.282494 2.688396,-2.759133 0.482717,0.0554 0.932798,0.151486 1.37427,0.230659 L 73.567802,31.2599 c 3.415014,0.368659 5.701338,1.502951 8.366611,1.122169 l 14.889326,14.384944 c 0.718047,-1.186358 2.500968,-1.086001 3.076748,-2.213329 3.580223,-6.130839 5.370963,-9.904575 5.327773,-12.691835 1.30232,-1.725241 2.01393,-3.361342 3.88728,-5.32303 1.26696,-1.3268 2.7125,-2.676599 4.23132,-4.039039 -4.54062,-4.358664 -10.07787,-8.146981 -16.583835,-10.579657 -1.602336,2.008567 -4.151403,5.264796 -5.444421,6.644974 -7.275056,-1.171032 -13.91969,-1.824807 -19.596415,2.192656 -1.640934,1.161259 -5.432695,5.679983 -6.723916,7.433796 -2.492246,3.385321 -5.469713,6.596051 -5.681222,8.18654 -0.0035,0.02621 -0.0082,0.05835 -0.0047,0.0777 0.0033,0.01814 0.004,0.03468 0.01274,0.04756 z"
         id="path5354"
         style="fill:#ffffff;stroke:#000000;stroke-width:0.21918546000000000" />
      <path
         d="m 64.40395,39.97875 c 0.11242,1.83613 3.39513,4.03656 5.25,2.78125 1.01047,-2.61682 8.37148,-7.81316 8.9375,-10.53125 0.01165,-0.08093 -0.01005,-0.17068 -0.0625,-0.28125 0.21187,-0.35493 0.37475,-0.69865 0.4375,-1 0.06594,-0.45796 -0.67373,-1.52741 -4.9375,-1.8125 -1.48191,-0.19888 -9.20302,6.97633 -9.28125,9.53125 0.0026,0.04223 0.02536,0.08242 0.03125,0.125 -0.23256,0.45447 -0.36496,0.85958 -0.375,1.1875 z"
         id="path5352"
         style="fill:#ffffff;stroke:#000000;stroke-width:0.21918546000000000" />
      <path
         d="m 68.8102,44.51 c 0.11242,1.83613 6.17639,5.44281 8.03125,4.1875 1.40445,-3.68439 9.68469,-9.84379 10.0625,-12.75 0.12895,-0.25086 0.19571,-0.54133 0.21875,-0.84375 0.05298,-0.15295 0.13222,-0.31791 0.15625,-0.46875 0.6537,-1.27173 -0.22506,-3.45395 -0.84375,-3.9375 -1.22633,-0.95838 -3.2638,0.20277 -5.1875,-0.03125 -1.25709,0.13838 -11.81564,10.36979 -12.0625,12.53125 0.0064,0.10466 0.01926,0.19739 0.0625,0.3125 -0.0051,0.0083 0.005,0.02297 0,0.03125 -0.24173,0.39734 -0.41091,0.73598 -0.4375,0.96875 z"
         id="path5350"
         style="fill:#ffffff;stroke:#000000;stroke-width:0.21918546000000000" />
      <path
         d="m 76.5602,49.54125 c 0.11242,1.83613 5.73888,5.16157 7.59375,3.90625 0.84248,-4.58293 8.90359,-9.71761 9.28125,-13 0.02505,-0.1224 0.0459,-0.22706 0.0625,-0.34375 0.13626,-0.31745 0.24134,-0.64676 0.28125,-0.96875 0.72525,-3.54413 -2.15224,-4.67582 -4.65625,-4.4375 -1.14466,0.25078 -11.94065,11.40103 -12.1875,13.5625 0.0064,0.10466 0.02202,0.19946 0.0625,0.3125 -0.0049,0.0084 0.0048,0.02294 0,0.03125 -0.22621,0.38978 -0.41215,0.7155 -0.4375,0.9375 z"
         id="path5348"
         style="fill:#ffffff;stroke:#000000;stroke-width:0.21918546000000000" />
      <path
         d="m 84.46645,53.29125 c -0.0029,0.08874 0.014,0.17564 0.03125,0.25 0.11242,1.83613 5.333745,3.860932 7.188605,2.605612 2.286957,-3.835372 5.734986,-7.082194 7.655145,-11.199362 0.13489,-3.12256 -2.20513,-4.75411 -4.25,-4.84375 -0.69265,-0.25871 -10.51703,9.48489 -10.25,12.03125 -0.21806,0.44904 -0.36495,0.84973 -0.375,1.15625 z"
         id="path1937_0"
         style="fill:#ffffff;stroke:#000000;stroke-width:0.21918546000000000" />
      <path
         d="m 90.586835,50.104889 c -1.067955,-0.80565 -2.47331,-1.048966 -3.203863,-2.416951"
         id="path180"
         style="fill:#ffffff;stroke:#000000;stroke-width:0.21918546000000000" />
      <path
         d="m 83.335983,44.54048 c -0.95559,-0.09353 -1.76119,-0.636824 -2.416957,-1.630044"
         id="path182"
         style="fill:#ffffff;stroke:#000000;stroke-width:0.21918546000000000" />
      <path
         d="m 78.108649,40.099892 c -1.142748,-0.430779 -3.185223,-1.311414 -4.440451,-2.30454"
         id="path184"
         style="fill:#ffffff;stroke:#000000;stroke-width:0.21918546000000000" />
      <path
         d="M 79.120408,38.863297 C 77.359117,38.338789 75.935225,37.476875 74.511333,36.614964"
         id="path188"
         style="fill:#ffffff;stroke:#000000;stroke-width:0.21918546000000000" />
      <path
         d="m 98.849447,42.854214 c -1.204259,1.785934 -2.384784,3.218464 -3.740135,3.590247 -2.671935,0.732878 -4.702395,-1.345356 -1.543418,-5.164087"
         id="path206"
         style="fill:#ffffff;stroke:#000000;stroke-width:0.21918546000000000" />
      <path
         d="m 93.734531,37.794883 c -1.678973,1.511206 -2.750508,3.236028 -4.023957,3.398142 -3.853374,0.490581 -5.453956,-2.751218 -1.008267,-6.12265"
         id="path208"
         style="fill:#ffffff;stroke:#000000;stroke-width:0.21918546000000000" />
      <path
         d="m 87.43914,32.680324 c -2.372455,2.083989 -3.433493,3.972143 -4.692391,4.141216 -2.905907,0.390124 -4.419687,-3.063519 -1.717158,-5.994731"
         id="path210"
         style="fill:#ffffff;stroke:#000000;stroke-width:0.21918546000000000" />
      <path
         d="m 78.389604,30.488446 c -0.947761,1.432778 -1.802141,2.023338 -2.634454,1.961167 -1.802551,-0.134586 -3.038825,-2.07374 -2.030812,-3.141542"
         id="path212"
         style="fill:#ffffff;stroke:#000000;stroke-width:0.21918546000000000" />
      <path
         d="m 60.346778,36.390161 c 1.733366,-2.744813 3.962998,-4.562147 3.147658,-5.958068"
         id="path214"
         style="fill:#ffffff;stroke:#000000;stroke-width:0.21918546000000000" />
      <path
         d="M 68.890576,29.532806 C 67.841357,29.347465 66.79229,29.011379 65.742923,27.621734"
         id="path218"
         style="fill:#ffffff;stroke:#000000;stroke-width:0.21918546000000000" />
      <path
         d="m 90.024747,29.757642 c -5.568952,1.063514 -10.710449,1.228702 -15.741114,-0.671656 -1.229358,-0.464462 -2.588099,1.447898 -3.655144,2.215168"
         id="path220"
         style="fill:#ffffff;stroke:#000000;stroke-width:0.21918546000000000" />
    </g>
    <g
       style="fill:#ffffff;fill-opacity:1;stroke:#000000;stroke-width:3.60183048;stroke-miterlimit:4;stroke-opacity:1;stroke-dasharray:none;display:inline"
       id="g8622"
       transform="matrix(-0.50212646,-0.68904408,-0.53928651,0.64156489,893.22373,1194.4585)">
      <path
         sodipodi:nodetypes="ccccc"
         d="m 803.47649,46.504672 c 39.9231,-0.793651 38.01859,41.375275 43.82319,60.129638 41.4359,-46.278205 52.4721,-116.947602 -1.5873,-154.772195 -3.33994,21.335276 -8.05109,55.3057974 -42.3834,56.0994572 0.96721,24.7210638 1.52938,12.6959818 0.14751,38.5430998 z"
         style="fill:#ffffff;fill-opacity:1;fill-rule:evenodd;stroke:#000000;stroke-width:3.60183048;stroke-linecap:butt;stroke-linejoin:miter;stroke-miterlimit:4;stroke-opacity:1;stroke-dasharray:none"
         id="path4725" />
      <path
         sodipodi:nodetypes="ccccc"
         id="rect5618"
         d="m 795.62503,-8.8647473 14.84038,0 3.93661,413.1263173 -22.7136,0 3.93661,-413.1263173 z"
         style="fill:#965503;fill-opacity:1;stroke:#000000;stroke-width:3.60183048;stroke-miterlimit:4;stroke-opacity:1;stroke-dasharray:none" />
      <rect
         rx="6.4624333"
         ry="6.7438416"
         y="2.8571391"
         x="792.33093"
         height="53.174603"
         width="21.428572"
         id="rect5620"
         style="fill:#ffffff;fill-opacity:1;stroke:#000000;stroke-width:3.60183048;stroke-miterlimit:4;stroke-opacity:1;stroke-dasharray:none" />
      <rect
         style="fill:#965500;fill-opacity:1;stroke:#000000;stroke-width:3.60183048;stroke-miterlimit:4;stroke-opacity:1;stroke-dasharray:none"
         id="rect5627"
         width="26.891476"
         height="64.810661"
         x="789.59949"
         y="369.50797"
         ry="8.2195807"
         rx="8.1099396" />
    </g>
    <path
       style="fill:#704d25;fill-opacity:1;stroke:none"
       d="m 291.572,323.47725 -3.72004,-4.87724 83.69477,-97.62307 c 46.03213,-53.69269 83.88993,-97.62308 84.12845,-97.62308 0.23851,0 1.47258,1.58556 2.74233,3.52346 l 2.30866,3.52346 -81.62084,98.97685 c -44.89146,54.43726 -82.11414,98.97685 -82.71706,98.97685 -0.60293,0 -2.77025,-2.19476 -4.81627,-4.87723 z"
       id="path3193"
       transform="translate(0,552.36218)" />
    <path
       style="fill:#704d25;fill-opacity:1;stroke:none"
       d="m 257.39869,365.81804 c -1.73759,-2.55236 -3.15925,-5.88527 -3.15925,-7.40647 0,-3.48168 25.85907,-34.83787 29.15419,-35.35179 2.87573,-0.44851 8.75688,7.55901 8.75688,11.923 0,3.60493 -26.495,35.49906 -29.47843,35.48552 -1.16277,-0.005 -3.5358,-2.09789 -5.27339,-4.65026 z"
       id="path3195"
       transform="translate(0,552.36218)" />
    <path
       style="fill:#704d25;fill-opacity:1;stroke:none"
       d="m 489.93507,89.174243 c -1.78949,-2.445352 -1.94192,-3.637214 -0.68502,-5.356129 1.43425,-1.961446 1.88435,-1.85598 3.98943,0.93478 1.89235,2.508751 2.03105,3.593233 0.68502,5.35613 -1.50204,1.967208 -1.94106,1.86434 -3.98943,-0.934781 z"
       id="path3197"
       transform="translate(0,552.36218)" />
    <path
       style="fill:#e7e7e7;fill-opacity:1;stroke:none"
       d="m 414.39389,113.17404 c 5.0803,-36.731422 23.77838,-69.108966 45.81646,-79.335641 6.03052,-2.798441 10.99273,-3.924742 19.03833,-4.321239 5.98503,-0.294951 10.88188,-0.22661 10.88188,0.151868 0,0.378478 -2.59317,5.869138 -5.7626,12.201466 -6.89851,13.782796 -9.47629,26.391352 -7.43396,36.36133 l 1.40776,6.872226 -9.70733,11.492458 c -7.26096,8.596202 -10.28714,11.244142 -12.00805,10.507122 -1.2654,-0.54193 -4.60128,-1.64243 -7.41308,-2.44556 -6.61679,-1.88996 -14.85742,1.12365 -26.49098,9.68779 -4.63199,3.40988 -8.63019,6.19977 -8.88489,6.19977 -0.2547,0 -0.004,-3.31722 0.55646,-7.37159 z"
       id="path3199"
       transform="translate(0,552.36218)" />
    <path
       style="fill:#e7e7e7;fill-opacity:1;stroke:none"
       d="m 462.15019,123.86656 c -1.60057,-2.0348 -2.91014,-4.83942 -2.91014,-6.23249 0,-2.55895 21.79603,-29.383055 23.87532,-29.383055 0.61763,0 2.42056,2.049422 4.00652,4.554271 2.70749,4.276185 2.74379,4.769166 0.59448,8.073654 -2.53988,3.905 -21.49753,26.68726 -22.20708,26.68726 -0.24693,0 -1.75852,-1.66484 -3.3591,-3.69964 z"
       id="path3201"
       transform="translate(0,552.36218)" />
  </g>
</svg>
