<?xml version="1.0" encoding="UTF-8" standalone="no"?>
<!-- Created with Inkscape (http://www.inkscape.org/) -->

<svg
   xmlns:dc="http://purl.org/dc/elements/1.1/"
   xmlns:cc="http://creativecommons.org/ns#"
   xmlns:rdf="http://www.w3.org/1999/02/22-rdf-syntax-ns#"
   xmlns:svg="http://www.w3.org/2000/svg"
   xmlns="http://www.w3.org/2000/svg"
   xmlns:sodipodi="http://sodipodi.sourceforge.net/DTD/sodipodi-0.dtd"
   xmlns:inkscape="http://www.inkscape.org/namespaces/inkscape"
   width="1000"
   height="500"
   id="svg2"
   version="1.1"
   inkscape:version="0.47 r22583"
   sodipodi:docname="Flag of Sibaté (Cundinamarca).svg">
  <defs
     id="defs4">
    <inkscape:perspective
       sodipodi:type="inkscape:persp3d"
       inkscape:vp_x="0 : 526.18109 : 1"
       inkscape:vp_y="0 : 1000 : 0"
       inkscape:vp_z="744.09448 : 526.18109 : 1"
       inkscape:persp3d-origin="372.04724 : 350.78739 : 1"
       id="perspective10" />
    <inkscape:perspective
       id="perspective2865"
       inkscape:persp3d-origin="0.5 : 0.33333333 : 1"
       inkscape:vp_z="1 : 0.5 : 1"
       inkscape:vp_y="0 : 1000 : 0"
       inkscape:vp_x="0 : 0.5 : 1"
       sodipodi:type="inkscape:persp3d" />
    <inkscape:perspective
       id="perspective2920"
       inkscape:persp3d-origin="0.5 : 0.33333333 : 1"
       inkscape:vp_z="1 : 0.5 : 1"
       inkscape:vp_y="0 : 1000 : 0"
       inkscape:vp_x="0 : 0.5 : 1"
       sodipodi:type="inkscape:persp3d" />
    <inkscape:perspective
       id="perspective2920-8"
       inkscape:persp3d-origin="0.5 : 0.33333333 : 1"
       inkscape:vp_z="1 : 0.5 : 1"
       inkscape:vp_y="0 : 1000 : 0"
       inkscape:vp_x="0 : 0.5 : 1"
       sodipodi:type="inkscape:persp3d" />
    <inkscape:perspective
       id="perspective2953"
       inkscape:persp3d-origin="0.5 : 0.33333333 : 1"
       inkscape:vp_z="1 : 0.5 : 1"
       inkscape:vp_y="0 : 1000 : 0"
       inkscape:vp_x="0 : 0.5 : 1"
       sodipodi:type="inkscape:persp3d" />
    <inkscape:perspective
       id="perspective2953-1"
       inkscape:persp3d-origin="0.5 : 0.33333333 : 1"
       inkscape:vp_z="1 : 0.5 : 1"
       inkscape:vp_y="0 : 1000 : 0"
       inkscape:vp_x="0 : 0.5 : 1"
       sodipodi:type="inkscape:persp3d" />
    <inkscape:perspective
       id="perspective2953-3"
       inkscape:persp3d-origin="0.5 : 0.33333333 : 1"
       inkscape:vp_z="1 : 0.5 : 1"
       inkscape:vp_y="0 : 1000 : 0"
       inkscape:vp_x="0 : 0.5 : 1"
       sodipodi:type="inkscape:persp3d" />
    <inkscape:perspective
       id="perspective2953-11"
       inkscape:persp3d-origin="0.5 : 0.33333333 : 1"
       inkscape:vp_z="1 : 0.5 : 1"
       inkscape:vp_y="0 : 1000 : 0"
       inkscape:vp_x="0 : 0.5 : 1"
       sodipodi:type="inkscape:persp3d" />
    <inkscape:perspective
       id="perspective2953-7"
       inkscape:persp3d-origin="0.5 : 0.33333333 : 1"
       inkscape:vp_z="1 : 0.5 : 1"
       inkscape:vp_y="0 : 1000 : 0"
       inkscape:vp_x="0 : 0.5 : 1"
       sodipodi:type="inkscape:persp3d" />
    <inkscape:perspective
       id="perspective2953-2"
       inkscape:persp3d-origin="0.5 : 0.33333333 : 1"
       inkscape:vp_z="1 : 0.5 : 1"
       inkscape:vp_y="0 : 1000 : 0"
       inkscape:vp_x="0 : 0.5 : 1"
       sodipodi:type="inkscape:persp3d" />
    <inkscape:perspective
       id="perspective2953-79"
       inkscape:persp3d-origin="0.5 : 0.33333333 : 1"
       inkscape:vp_z="1 : 0.5 : 1"
       inkscape:vp_y="0 : 1000 : 0"
       inkscape:vp_x="0 : 0.5 : 1"
       sodipodi:type="inkscape:persp3d" />
    <inkscape:perspective
       id="perspective2953-9"
       inkscape:persp3d-origin="0.5 : 0.33333333 : 1"
       inkscape:vp_z="1 : 0.5 : 1"
       inkscape:vp_y="0 : 1000 : 0"
       inkscape:vp_x="0 : 0.5 : 1"
       sodipodi:type="inkscape:persp3d" />
    <inkscape:perspective
       id="perspective2953-6"
       inkscape:persp3d-origin="0.5 : 0.33333333 : 1"
       inkscape:vp_z="1 : 0.5 : 1"
       inkscape:vp_y="0 : 1000 : 0"
       inkscape:vp_x="0 : 0.5 : 1"
       sodipodi:type="inkscape:persp3d" />
    <inkscape:perspective
       id="perspective2953-0"
       inkscape:persp3d-origin="0.5 : 0.33333333 : 1"
       inkscape:vp_z="1 : 0.5 : 1"
       inkscape:vp_y="0 : 1000 : 0"
       inkscape:vp_x="0 : 0.5 : 1"
       sodipodi:type="inkscape:persp3d" />
    <inkscape:perspective
       id="perspective2953-60"
       inkscape:persp3d-origin="0.5 : 0.33333333 : 1"
       inkscape:vp_z="1 : 0.5 : 1"
       inkscape:vp_y="0 : 1000 : 0"
       inkscape:vp_x="0 : 0.5 : 1"
       sodipodi:type="inkscape:persp3d" />
    <inkscape:perspective
       id="perspective2953-8"
       inkscape:persp3d-origin="0.5 : 0.33333333 : 1"
       inkscape:vp_z="1 : 0.5 : 1"
       inkscape:vp_y="0 : 1000 : 0"
       inkscape:vp_x="0 : 0.5 : 1"
       sodipodi:type="inkscape:persp3d" />
    <inkscape:perspective
       id="perspective2953-5"
       inkscape:persp3d-origin="0.5 : 0.33333333 : 1"
       inkscape:vp_z="1 : 0.5 : 1"
       inkscape:vp_y="0 : 1000 : 0"
       inkscape:vp_x="0 : 0.5 : 1"
       sodipodi:type="inkscape:persp3d" />
    <inkscape:perspective
       id="perspective2953-90"
       inkscape:persp3d-origin="0.5 : 0.33333333 : 1"
       inkscape:vp_z="1 : 0.5 : 1"
       inkscape:vp_y="0 : 1000 : 0"
       inkscape:vp_x="0 : 0.5 : 1"
       sodipodi:type="inkscape:persp3d" />
    <inkscape:perspective
       id="perspective3213"
       inkscape:persp3d-origin="0.5 : 0.33333333 : 1"
       inkscape:vp_z="1 : 0.5 : 1"
       inkscape:vp_y="0 : 1000 : 0"
       inkscape:vp_x="0 : 0.5 : 1"
       sodipodi:type="inkscape:persp3d" />
  </defs>
  <sodipodi:namedview
     id="base"
     pagecolor="#ffffff"
     bordercolor="#666666"
     borderopacity="1.0"
     inkscape:pageopacity="0.0"
     inkscape:pageshadow="2"
     inkscape:zoom="0.5"
     inkscape:cx="401.77546"
     inkscape:cy="221.09101"
     inkscape:document-units="px"
     inkscape:current-layer="layer1"
     showgrid="false"
     inkscape:window-width="1024"
     inkscape:window-height="538"
     inkscape:window-x="-8"
     inkscape:window-y="-8"
     inkscape:window-maximized="1" />
  <metadata
     id="metadata7">
    <rdf:RDF>
      <cc:Work
         rdf:about="">
        <dc:format>image/svg+xml</dc:format>
        <dc:type
           rdf:resource="http://purl.org/dc/dcmitype/StillImage" />
        <dc:title />
      </cc:Work>
    </rdf:RDF>
  </metadata>
  <g
     inkscape:label="Capa 1"
     inkscape:groupmode="layer"
     id="layer1"
     transform="translate(0,-552.36218)">
    <path
       sodipodi:type="star"
       style="fill:#ffffff;fill-opacity:1;stroke:none"
       id="path2825"
       sodipodi:sides="4"
       sodipodi:cx="50"
       sodipodi:cy="336.20691"
       sodipodi:r1="61.225105"
       sodipodi:r2="15.306277"
       sodipodi:arg1="0.56456939"
       sodipodi:arg2="1.3499676"
       inkscape:flatsided="false"
       inkscape:rounded="0"
       inkscape:randomized="0"
       d="M 101.72414,368.96553 53.352661,351.14149 17.24138,387.93105 35.065416,339.55957 -1.724137,303.44829 46.647339,321.27233 82.75862,284.48277 64.934584,332.85425 101.72414,368.96553 z"
       transform="translate(0,552.36218)" />
    <rect
       style="fill:#81b31c;fill-opacity:1;stroke:none"
       id="rect2831"
       width="1000"
       height="100"
       x="0"
       y="-5.6843419e-14"
       transform="translate(0,552.36218)" />
    <rect
       style="fill:#ffffff;fill-opacity:1;stroke:none"
       id="rect2855"
       width="1000"
       height="300"
       x="0"
       y="100"
       transform="translate(0,552.36218)" />
    <rect
       style="fill:#da121a;fill-opacity:1;stroke:none"
       id="rect2831-7"
       width="1000"
       height="100"
       x="1.0523303e-05"
       y="952.36218" />
    <path
       sodipodi:type="star"
       style="fill:#0f47af;fill-opacity:1;stroke:none"
       id="path2943"
       sodipodi:sides="5"
       sodipodi:cx="168"
       sodipodi:cy="238"
       sodipodi:r1="108.81176"
       sodipodi:r2="40.804409"
       sodipodi:arg1="2.1995926"
       sodipodi:arg2="2.8279111"
       inkscape:flatsided="false"
       inkscape:rounded="0"
       inkscape:randomized="0"
       d="m 104,326 25.18668,-75.40928 -64.656738,-46.26484 79.501598,0.65121 24.02044,-75.78884 L 192,205 l 79.50219,-0.57524 -64.70092,46.20303 25.11461,75.43332 L 167.98051,278.8044 104,326 z"
       transform="matrix(0.24157829,0,0,0.25397102,34.410966,789.55211)" />
    <path
       sodipodi:type="star"
       style="fill:#0f47af;fill-opacity:1;stroke:none"
       id="path2943-3"
       sodipodi:sides="5"
       sodipodi:cx="168"
       sodipodi:cy="238"
       sodipodi:r1="108.81176"
       sodipodi:r2="40.804409"
       sodipodi:arg1="2.1995926"
       sodipodi:arg2="2.8279111"
       inkscape:flatsided="false"
       inkscape:rounded="0"
       inkscape:randomized="0"
       d="m 104,326 25.18668,-75.40928 -64.656738,-46.26484 79.501598,0.65121 24.02044,-75.78884 L 192,205 l 79.50219,-0.57524 -64.70092,46.20303 25.11461,75.43332 L 167.98051,278.8044 104,326 z"
       transform="matrix(0.24157829,0,0,0.25397102,884.41097,789.55211)" />
    <path
       sodipodi:type="star"
       style="fill:#0f47af;fill-opacity:1;stroke:none"
       id="path2943-34"
       sodipodi:sides="5"
       sodipodi:cx="168"
       sodipodi:cy="238"
       sodipodi:r1="108.81176"
       sodipodi:r2="40.804409"
       sodipodi:arg1="2.1995926"
       sodipodi:arg2="2.8279111"
       inkscape:flatsided="false"
       inkscape:rounded="0"
       inkscape:randomized="0"
       d="m 104,326 25.18668,-75.40928 -64.656738,-46.26484 79.501598,0.65121 24.02044,-75.78884 L 192,205 l 79.50219,-0.57524 -64.70092,46.20303 25.11461,75.43332 L 167.98051,278.8044 104,326 z"
       transform="matrix(0.24157829,0,0,0.25397102,584.41097,729.55211)" />
    <path
       sodipodi:type="star"
       style="fill:#0f47af;fill-opacity:1;stroke:none"
       id="path2943-38"
       sodipodi:sides="5"
       sodipodi:cx="168"
       sodipodi:cy="238"
       sodipodi:r1="108.81176"
       sodipodi:r2="40.804409"
       sodipodi:arg1="2.1995926"
       sodipodi:arg2="2.8279111"
       inkscape:flatsided="false"
       inkscape:rounded="0"
       inkscape:randomized="0"
       d="m 104,326 25.18668,-75.40928 -64.656738,-46.26484 79.501598,0.65121 24.02044,-75.78884 L 192,205 l 79.50219,-0.57524 -64.70092,46.20303 25.11461,75.43332 L 167.98051,278.8044 104,326 z"
       transform="matrix(0.24157829,0,0,0.25397102,634.41097,739.55211)" />
    <path
       sodipodi:type="star"
       style="fill:#0f47af;fill-opacity:1;stroke:none"
       id="path2943-4"
       sodipodi:sides="5"
       sodipodi:cx="168"
       sodipodi:cy="238"
       sodipodi:r1="108.81176"
       sodipodi:r2="40.804409"
       sodipodi:arg1="2.1995926"
       sodipodi:arg2="2.8279111"
       inkscape:flatsided="false"
       inkscape:rounded="0"
       inkscape:randomized="0"
       d="m 104,326 25.18668,-75.40928 -64.656738,-46.26484 79.501598,0.65121 24.02044,-75.78884 L 192,205 l 79.50219,-0.57524 -64.70092,46.20303 25.11461,75.43332 L 167.98051,278.8044 104,326 z"
       transform="matrix(0.24157829,0,0,0.25397102,184.41097,759.55211)" />
    <path
       sodipodi:type="star"
       style="fill:#0f47af;fill-opacity:1;stroke:none"
       id="path2943-7"
       sodipodi:sides="5"
       sodipodi:cx="168"
       sodipodi:cy="238"
       sodipodi:r1="108.81176"
       sodipodi:r2="40.804409"
       sodipodi:arg1="2.1995926"
       sodipodi:arg2="2.8279111"
       inkscape:flatsided="false"
       inkscape:rounded="0"
       inkscape:randomized="0"
       d="m 104,326 25.18668,-75.40928 -64.656738,-46.26484 79.501598,0.65121 24.02044,-75.78884 L 192,205 l 79.50219,-0.57524 -64.70092,46.20303 25.11461,75.43332 L 167.98051,278.8044 104,326 z"
       transform="matrix(0.24157829,0,0,0.25397102,684.41097,749.05211)" />
    <path
       sodipodi:type="star"
       style="fill:#0f47af;fill-opacity:1;stroke:none"
       id="path2943-31"
       sodipodi:sides="5"
       sodipodi:cx="168"
       sodipodi:cy="238"
       sodipodi:r1="108.81176"
       sodipodi:r2="40.804409"
       sodipodi:arg1="2.1995926"
       sodipodi:arg2="2.8279111"
       inkscape:flatsided="false"
       inkscape:rounded="0"
       inkscape:randomized="0"
       d="m 104,326 25.18668,-75.40928 -64.656738,-46.26484 79.501598,0.65121 24.02044,-75.78884 L 192,205 l 79.50219,-0.57524 -64.70092,46.20303 25.11461,75.43332 L 167.98051,278.8044 104,326 z"
       transform="matrix(0.24157829,0,0,0.25397102,784.41097,769.55211)" />
    <path
       sodipodi:type="star"
       style="fill:#0f47af;fill-opacity:1;stroke:none"
       id="path2943-8"
       sodipodi:sides="5"
       sodipodi:cx="168"
       sodipodi:cy="238"
       sodipodi:r1="108.81176"
       sodipodi:r2="40.804409"
       sodipodi:arg1="2.1995926"
       sodipodi:arg2="2.8279111"
       inkscape:flatsided="false"
       inkscape:rounded="0"
       inkscape:randomized="0"
       d="m 104,326 25.18668,-75.40928 -64.656738,-46.26484 79.501598,0.65121 24.02044,-75.78884 L 192,205 l 79.50219,-0.57524 -64.70092,46.20303 25.11461,75.43332 L 167.98051,278.8044 104,326 z"
       transform="matrix(0.24157829,0,0,0.25397102,834.41097,779.55211)" />
    <path
       sodipodi:type="star"
       style="fill:#0f47af;fill-opacity:1;stroke:none"
       id="path2943-5"
       sodipodi:sides="5"
       sodipodi:cx="168"
       sodipodi:cy="238"
       sodipodi:r1="108.81176"
       sodipodi:r2="40.804409"
       sodipodi:arg1="2.1995926"
       sodipodi:arg2="2.8279111"
       inkscape:flatsided="false"
       inkscape:rounded="0"
       inkscape:randomized="0"
       d="m 104,326 25.18668,-75.40928 -64.656738,-46.26484 79.501598,0.65121 24.02044,-75.78884 L 192,205 l 79.50219,-0.57524 -64.70092,46.20303 25.11461,75.43332 L 167.98051,278.8044 104,326 z"
       transform="matrix(0.24157829,0,0,0.25397102,234.41097,749.55211)" />
    <path
       sodipodi:type="star"
       style="fill:#0f47af;fill-opacity:1;stroke:none"
       id="path2943-28"
       sodipodi:sides="5"
       sodipodi:cx="168"
       sodipodi:cy="238"
       sodipodi:r1="108.81176"
       sodipodi:r2="40.804409"
       sodipodi:arg1="2.1995926"
       sodipodi:arg2="2.8279111"
       inkscape:flatsided="false"
       inkscape:rounded="0"
       inkscape:randomized="0"
       d="m 104,326 25.18668,-75.40928 -64.656738,-46.26484 79.501598,0.65121 24.02044,-75.78884 L 192,205 l 79.50219,-0.57524 -64.70092,46.20303 25.11461,75.43332 L 167.98051,278.8044 104,326 z"
       transform="matrix(0.24157829,0,0,0.25397102,734.41097,759.55211)" />
    <path
       sodipodi:type="star"
       style="fill:#0f47af;fill-opacity:1;stroke:none"
       id="path2943-24"
       sodipodi:sides="5"
       sodipodi:cx="168"
       sodipodi:cy="238"
       sodipodi:r1="108.81176"
       sodipodi:r2="40.804409"
       sodipodi:arg1="2.1995926"
       sodipodi:arg2="2.8279111"
       inkscape:flatsided="false"
       inkscape:rounded="0"
       inkscape:randomized="0"
       d="m 104,326 25.18668,-75.40928 -64.656738,-46.26484 79.501598,0.65121 24.02044,-75.78884 L 192,205 l 79.50219,-0.57524 -64.70092,46.20303 25.11461,75.43332 L 167.98051,278.8044 104,326 z"
       transform="matrix(0.24157829,0,0,0.25397102,334.41097,729.55211)" />
    <path
       sodipodi:type="star"
       style="fill:#0f47af;fill-opacity:1;stroke:none"
       id="path2943-6"
       sodipodi:sides="5"
       sodipodi:cx="168"
       sodipodi:cy="238"
       sodipodi:r1="108.81176"
       sodipodi:r2="40.804409"
       sodipodi:arg1="2.1995926"
       sodipodi:arg2="2.8279111"
       inkscape:flatsided="false"
       inkscape:rounded="0"
       inkscape:randomized="0"
       d="m 104,326 25.18668,-75.40928 -64.656738,-46.26484 79.501598,0.65121 24.02044,-75.78884 L 192,205 l 79.50219,-0.57524 -64.70092,46.20303 25.11461,75.43332 L 167.98051,278.8044 104,326 z"
       transform="matrix(0.24157829,0,0,0.25397102,84.410967,779.55211)" />
    <path
       sodipodi:type="star"
       style="fill:#0f47af;fill-opacity:1;stroke:none"
       id="path2943-0"
       sodipodi:sides="5"
       sodipodi:cx="168"
       sodipodi:cy="238"
       sodipodi:r1="108.81176"
       sodipodi:r2="40.804409"
       sodipodi:arg1="2.1995926"
       sodipodi:arg2="2.8279111"
       inkscape:flatsided="false"
       inkscape:rounded="0"
       inkscape:randomized="0"
       d="m 104,326 25.18668,-75.40928 -64.656738,-46.26484 79.501598,0.65121 24.02044,-75.78884 L 192,205 l 79.50219,-0.57524 -64.70092,46.20303 25.11461,75.43332 L 167.98051,278.8044 104,326 z"
       transform="matrix(0.24157829,0,0,0.25397102,134.41097,769.55211)" />
    <path
       sodipodi:type="star"
       style="fill:#0f47af;fill-opacity:1;stroke:none"
       id="path2943-06"
       sodipodi:sides="5"
       sodipodi:cx="168"
       sodipodi:cy="238"
       sodipodi:r1="108.81176"
       sodipodi:r2="40.804409"
       sodipodi:arg1="2.1995926"
       sodipodi:arg2="2.8279111"
       inkscape:flatsided="false"
       inkscape:rounded="0"
       inkscape:randomized="0"
       d="m 104,326 25.18668,-75.40928 -64.656738,-46.26484 79.501598,0.65121 24.02044,-75.78884 L 192,205 l 79.50219,-0.57524 -64.70092,46.20303 25.11461,75.43332 L 167.98051,278.8044 104,326 z"
       transform="matrix(0.72473486,0,0,0.76191306,378.2329,618.93196)" />
    <path
       sodipodi:type="star"
       style="fill:#0f47af;fill-opacity:1;stroke:none"
       id="path2943-5-1"
       sodipodi:sides="5"
       sodipodi:cx="168"
       sodipodi:cy="238"
       sodipodi:r1="108.81176"
       sodipodi:r2="40.804409"
       sodipodi:arg1="2.1995926"
       sodipodi:arg2="2.8279111"
       inkscape:flatsided="false"
       inkscape:rounded="0"
       inkscape:randomized="0"
       d="m 104,326 25.18668,-75.40928 -64.656738,-46.26484 79.501598,0.65121 24.02044,-75.78884 L 192,205 l 79.50219,-0.57524 -64.70092,46.20303 25.11461,75.43332 L 167.98051,278.8044 104,326 z"
       transform="matrix(0.24157829,0,0,0.25397102,284.41097,739.55211)" />
  </g>
</svg>
