<?xml version="1.0" encoding="UTF-8" standalone="no"?>
<svg
   xmlns:dc="http://purl.org/dc/elements/1.1/"
   xmlns:cc="http://creativecommons.org/ns#"
   xmlns:rdf="http://www.w3.org/1999/02/22-rdf-syntax-ns#"
   xmlns:svg="http://www.w3.org/2000/svg"
   xmlns="http://www.w3.org/2000/svg"
   xmlns:xlink="http://www.w3.org/1999/xlink"
   xmlns:sodipodi="http://sodipodi.sourceforge.net/DTD/sodipodi-0.dtd"
   xmlns:inkscape="http://www.inkscape.org/namespaces/inkscape"
   version="1.0"
   width="750"
   height="500"
   id="svg2425"
   sodipodi:version="0.32"
   inkscape:version="0.48.3.1 r9886"
   sodipodi:docname="Flag_of_Sogamoso_%28Boyac%C3%A1%29.svg"
   inkscape:output_extension="org.inkscape.output.svg.inkscape"
   sodipodi:modified="true">
  <metadata
     id="metadata2437">
    <rdf:RDF>
      <cc:Work
         rdf:about="">
        <dc:format>image/svg+xml</dc:format>
        <dc:type
           rdf:resource="http://purl.org/dc/dcmitype/StillImage" />
        <dc:title />
      </cc:Work>
    </rdf:RDF>
  </metadata>
  <sodipodi:namedview
     inkscape:window-height="962"
     inkscape:window-width="1280"
     inkscape:pageshadow="2"
     inkscape:pageopacity="0.0"
     guidetolerance="10.0"
     gridtolerance="10.0"
     objecttolerance="10.0"
     borderopacity="1.0"
     bordercolor="#666666"
     pagecolor="#ffffff"
     id="base"
     inkscape:zoom="1.2335878"
     inkscape:cx="239.0625"
     inkscape:cy="129.6875"
     inkscape:window-x="-8"
     inkscape:window-y="-8"
     inkscape:current-layer="svg2425"
     showgrid="false"
     inkscape:window-maximized="1" />
  <defs
     id="defs2427">
    <rect
       width="450"
       height="100"
       id="a"
       x="0"
       y="0" />
  </defs>
  <use
     xlink:href="#a"
     id="use2430"
     style="fill:#078930"
     x="0"
     y="0"
     width="450"
     height="300"
     transform="matrix(1.6666667,0,0,1.6666667,0,-10e-6)" />
  <use
     xlink:href="#a"
     y="100"
     id="use2432"
     style="fill:#da121a"
     x="0"
     width="450"
     height="300"
     transform="matrix(1.6666667,0,0,1.6666667,0,-10e-6)" />
  <use
     xlink:href="#a"
     y="200"
     id="use2434"
     style="fill:#ffffff"
     x="0"
     width="450"
     height="300"
     transform="matrix(1.6666667,0,0,1.6666667,0,-10e-6)" />
  <path
     style="fill:#fcdd09;fill-opacity:1;stroke:#fcdd09;stroke-width:1.69999981000000000;stroke-miterlimit:4;stroke-opacity:1;stroke-dasharray:none"
     d="m 419.39013,384.66561 c -0.094,-0.15566 -3.53134,-10.45534 -7.63854,-22.88879 -4.10712,-12.43341 -7.61112,-22.74987 -7.78661,-22.92536 -0.19524,-0.19521 -2.43704,0.0383 -5.77629,0.60142 -5.87166,0.99037 -13.57324,1.93873 -15.81371,1.94729 -0.76081,0.003 -1.61172,0.14984 -1.89088,0.32633 -0.41911,0.26503 -0.67028,3.85999 -1.44116,20.62558 -0.51353,11.1675 -0.94544,20.34341 -0.9599,20.3909 -0.14716,0.48437 -27.87914,-1.04137 -28.40032,-1.56245 -0.30512,-0.30515 -0.15117,-5.23136 0.64164,-20.52518 0.75952,-14.65313 0.93964,-20.22604 0.66259,-20.50025 -0.20939,-0.20714 -1.69146,-0.64826 -3.29374,-0.98031 -1.60225,-0.332 -4.98507,-1.2718 -7.51731,-2.08834 -4.49561,-1.44963 -4.61516,-1.4688 -5.07528,-0.81185 -0.25918,0.37003 -4.94989,10.10274 -10.42385,21.62836 -5.47393,11.52555 -10.10378,21.05997 -10.28848,21.18762 -0.3515,0.2429 -4.15327,-1.52859 -4.50622,-2.09963 -0.11183,-0.18107 4.3832,-9.98758 9.98918,-21.79218 5.60592,-11.80462 10.10462,-21.6053 9.9971,-21.77929 -0.10733,-0.17387 -0.67113,-0.5623 -1.25241,-0.86291 -0.88266,-0.45642 -1.13115,-0.47026 -1.50729,-0.084 -0.24761,0.25448 -5.03735,9.93822 -10.64366,21.51942 -5.6063,11.58118 -10.37571,21.11752 -10.59865,21.19186 -0.60514,0.20143 -4.46325,-1.73594 -4.46325,-2.24151 0,-0.24044 4.66138,-10.05534 10.35856,-21.81094 5.69727,-11.75556 10.35864,-21.5481 10.35864,-21.7612 0,-0.459 -3.41227,-2.82275 -4.0749,-2.82275 -0.52523,0 -0.43082,-0.19672 -11.84907,24.688 -4.70545,10.255 -8.76513,18.68965 -9.02148,18.74366 -0.77733,0.16367 -4.40392,-1.60506 -4.40392,-2.14796 0,-0.40544 18.85807,-41.86128 20.09037,-44.16486 0.28438,-0.53155 0.007,-0.93106 -1.66938,-2.417 -1.10557,-0.97912 -3.30034,-3.01797 -4.87722,-4.53075 -2.58245,-2.47743 -2.93551,-2.70782 -3.55563,-2.32053 -0.37872,0.23647 -6.7594,5.98022 -14.17928,12.76382 -7.4199,6.78365 -13.6874,12.33388 -13.92774,12.33388 -0.66929,0 -17.84832,-20.85491 -17.7215,-21.51342 0.0598,-0.31131 6.63326,-6.34561 14.6074,-13.40957 7.9741,-7.06393 14.64438,-13.07497 14.82282,-13.35786 0.22999,-0.36461 -0.0855,-1.40275 -1.08401,-3.56702 -9.23902,-20.02553 -9.65753,-41.18256 -1.16008,-58.64391 5.16387,-10.61125 14.29793,-20.61406 25.22804,-27.62742 24.02789,-15.41776 61.78905,-16.75015 88.85939,-3.13535 17.38029,8.74129 27.57963,20.88062 31.01366,36.91289 0.89069,4.1584 1.0601,12.8921 0.33273,17.15673 -1.60949,9.43637 -5.77028,19.93681 -10.87716,27.45031 -2.55478,3.75866 -8.00668,9.28328 -11.86829,12.02663 -6.15245,4.37069 -13.99205,7.55336 -21.9633,8.91644 -3.54866,0.60679 -5.10008,0.68832 -10.06522,0.52874 -8.92103,-0.28677 -14.44757,-1.6718 -22.44362,-5.62468 -5.89069,-2.91209 -10.1528,-5.98111 -15.05481,-10.84049 -4.43884,-4.40028 -9.08428,-10.37563 -9.60481,-12.35458 -1.17011,-4.44828 -1.55834,-8.09539 -1.57004,-14.75042 -0.01,-5.55261 0.11366,-7.44699 0.63167,-9.66804 2.27276,-9.7515 7.94776,-16.79401 16.08337,-19.95905 9.46772,-3.68325 20.24717,-2.06053 30.22607,4.5502 4.13121,2.73679 11.23154,10.32859 10.59779,11.33131 -0.1285,0.20292 -2.31902,1.72678 -4.86806,3.38582 l -4.63465,3.01643 -1.48093,-1.68031 c -0.81453,-0.92415 -1.48694,-1.78925 -1.49421,-1.92251 -0.0368,-0.6664 -5.385,-4.64542 -8.01964,-5.96623 -7.56004,-3.78989 -15.12084,-3.39733 -19.90676,1.03359 -4.26292,3.94673 -6.09507,10.74312 -5.22967,19.39957 0.7473,7.47525 1.45069,8.84479 7.76784,15.12472 6.69746,6.65794 15.39861,11.18237 24.28791,12.62929 3.37948,0.5501 10.22706,0.45968 13.64111,-0.18007 9.45087,-1.77095 17.82862,-6.66962 23.55463,-13.77297 2.4999,-3.10121 6.65625,-11.09751 8.26247,-15.8959 3.08116,-9.20466 3.35259,-17.95526 0.79655,-25.67881 -5.3003,-16.01547 -23.23009,-27.97869 -47.58472,-31.74976 -5.67247,-0.8783 -20.01885,-0.87462 -25.37859,0.007 -14.2591,2.34421 -24.67332,6.84924 -34.18336,14.78709 -9.84595,8.21822 -15.9881,18.32553 -18.35442,30.20346 -0.7606,3.81785 -0.86338,14.19972 -0.17909,18.08401 3.6711,20.83626 16.88975,40.34374 35.60856,52.54953 18.63992,12.15432 41.66434,15.40098 71.49091,10.0808 5.75906,-1.02725 9.33495,-2.30754 17.09171,-6.11933 9.0195,-4.43234 15.2021,-8.2794 21.92572,-13.64294 24.05395,-19.18846 33.14171,-45.51951 25.71653,-74.51128 -1.60337,-6.26034 -3.16051,-10.35413 -6.56272,-17.25332 -13.59215,-27.56351 -40.37442,-49.05622 -69.25255,-55.57508 -16.6192,-3.75156 -36.45396,-4.72985 -51.58825,-2.54444 -44.79289,6.46813 -74.45053,37.33318 -88.18996,91.78036 -0.94043,3.72689 -1.97456,8.13411 -2.29804,9.79377 -0.32349,1.65969 -0.76143,3.15472 -0.97323,3.32229 -0.23123,0.18306 -2.59262,-0.12899 -5.90968,-0.78068 l -5.5246,-1.0854 0,-1.18824 0,-1.18833 -18.98652,-2.54062 c -10.44259,-1.39735 -19.04636,-2.60047 -19.11951,-2.67363 -0.25442,-0.25441 3.21851,-25.7998 3.56944,-26.25535 0.32944,-0.42767 9.86214,0.7939 38.85271,4.97872 1.61274,0.23298 2.35858,0.21261 2.65025,-0.0717 0.5779,-0.56313 3.62626,-9.14449 3.49344,-9.83427 -0.0635,-0.32961 -1.79986,-1.46683 -4.07668,-2.66992 -2.18136,-1.1527 -12.58963,-6.65324 -23.12953,-12.22346 -10.53988,-5.57023 -19.26386,-10.28167 -19.3866,-10.46986 -0.24664,-0.37834 1.74599,-4.2895 2.29491,-4.50425 0.18977,-0.0744 10.75229,5.37176 23.47194,12.10233 l 23.12664,12.23741 0.62903,-0.77675 c 0.34596,-0.42726 0.5824,-1.1713 0.5255,-1.65341 -0.0919,-0.77771 -2.65493,-2.26988 -22.71984,-13.22677 -12.50278,-6.82748 -22.66618,-12.58506 -22.72792,-12.87541 -0.13516,-0.63577 1.91928,-4.32336 2.40859,-4.32336 0.19075,0 10.4419,5.51596 22.77988,12.25767 12.33803,6.7417 22.65629,12.25771 22.92942,12.25771 0.27314,0 0.97767,-0.95294 1.56558,-2.11763 0.93689,-1.85592 1.0067,-2.1798 0.56515,-2.62139 -0.2771,-0.27711 -10.73405,-5.70155 -23.23765,-12.0543 -12.50362,-6.35275 -22.84649,-11.73276 -22.98416,-11.95551 -0.35887,-0.58067 1.75664,-4.39876 2.43728,-4.39876 0.30741,0 10.9463,5.28292 23.64187,11.73979 12.69564,6.45687 23.22375,11.73974 23.39585,11.73974 0.17212,0 1.34297,-1.59262 2.60207,-3.53919 1.25905,-1.94654 3.19883,-4.7342 4.31061,-6.19479 1.11179,-1.46059 2.02144,-2.82406 2.02144,-3.03006 0,-0.2059 -6.17631,-7.13196 -13.72516,-15.39117 -7.54882,-8.2592 -13.72515,-15.25063 -13.72515,-15.53655 0,-0.49126 19.76707,-19.58482 20.90854,-20.19608 0.41563,-0.22255 3.6831,3.04916 14.50203,14.52144 7.68099,8.14485 14.13162,14.87737 14.3347,14.96116 0.20294,0.084 2.10258,-0.97445 4.22113,-2.35162 2.11855,-1.37721 5.63912,-3.42031 7.82352,-4.5403 2.18446,-1.11999 4.0425,-2.21627 4.12905,-2.43619 0.0867,-0.21981 -3.33298,-10.7732 -7.59899,-23.45175 -4.26603,-12.67855 -7.63094,-23.17738 -7.47756,-23.33076 0.15367,-0.15316 1.19903,-0.59544 2.32372,-0.98239 1.64036,-0.56438 2.12457,-0.61714 2.4477,-0.26682 0.22157,0.24017 3.80313,10.57139 7.95904,22.95829 4.15593,12.38687 7.75912,22.6015 8.00713,22.69916 0.64003,0.25209 2.82947,-0.72733 2.82856,-1.26537 -3.1e-4,-0.24714 -3.57768,-10.62179 -7.94946,-23.05494 -4.37178,-12.43315 -7.88545,-22.77067 -7.80809,-22.97226 0.14701,-0.38311 3.50407,-1.55368 4.4557,-1.55368 0.64974,0 -0.1175,-2.04566 9.24121,24.63727 4.26639,12.16394 7.57496,21.09052 7.85719,21.19883 0.73479,0.28197 3.68305,-0.73747 3.79066,-1.31075 0.0516,-0.27573 -3.54156,-10.90854 -7.98512,-23.62846 -4.44359,-12.71997 -8.01463,-23.29557 -7.93568,-23.50138 0.079,-0.2059 1.09948,-0.71812 2.26781,-1.138508 1.71668,-0.617643 2.20446,-0.679693 2.54223,-0.323409 0.23,0.242419 4.03387,10.851287 8.45327,23.575117 4.41938,12.72382 8.22088,23.34063 8.44781,23.59288 0.34204,0.38029 1.14364,0.34011 4.68926,-0.23496 2.35219,-0.38158 5.02376,-0.79306 5.93692,-0.91443 1.03478,-0.13766 1.73844,-0.42453 1.86784,-0.76179 0.11434,-0.29761 0.003,-9.38339 -0.24639,-20.19062 -0.35387,-15.31772 -0.36227,-19.74126 -0.0383,-20.06564 0.49273,-0.49324 26.87494,-1.17199 27.32898,-0.70311 0.15284,0.15766 0.38697,9.37672 0.52028,20.48629 0.15034,12.52567 0.37317,20.3633 0.5866,20.63092 0.1895,0.23746 0.83017,0.4294 1.42408,0.42667 0.59392,-0.002 3.22123,0.25656 5.83839,0.57617 2.88236,0.35202 4.87678,0.45607 5.05847,0.2639 0.165,-0.17436 2.74552,-11.27145 5.73456,-24.65994 2.98908,-13.3885 5.48986,-24.406591 5.55725,-24.484674 0.1925,-0.2227 4.93887,0.691017 5.12105,0.985783 0.0897,0.145 -2.29547,11.201681 -5.30015,24.570511 -3.86766,17.20867 -5.36044,24.4381 -5.11166,24.75604 0.19326,0.24714 0.75315,0.40235 1.24415,0.34528 0.88416,-0.10284 0.94951,-0.33124 6.77334,-23.68378 3.23427,-12.96898 6.03112,-23.81829 6.21516,-24.109558 0.29956,-0.474126 0.57859,-0.468242 2.66529,0.0562 1.97091,0.495298 2.32914,0.699138 2.32071,1.320638 -0.005,0.40418 -2.63678,11.21934 -5.84727,24.03364 -3.85362,15.38121 -5.72537,23.43353 -5.50803,23.6954 0.49821,0.60031 3.40367,1.33145 3.78318,0.95196 0.17686,-0.17684 2.90488,-10.88184 6.0621,-23.78861 3.15723,-12.9068 5.87036,-23.60642 6.02914,-23.77689 0.35998,-0.3864 4.33171,0.41992 4.79032,0.97256 0.21783,0.26231 -1.65726,8.52804 -5.52245,24.34528 -4.33646,17.74604 -5.75505,24.06501 -5.47748,24.39946 0.20592,0.24812 0.94482,0.63479 1.64175,0.85908 0.69698,0.22429 3.01213,1.17848 5.14484,2.12043 2.13264,0.94197 4.0451,1.65685 4.24986,1.58857 0.20494,-0.0681 4.41662,-7.50155 9.35981,-16.51848 4.9431,-9.01691 9.18373,-16.59869 9.42359,-16.84835 0.35716,-0.37179 2.6175,0.89473 12.48645,6.99639 6.62774,4.09771 12.18629,7.6519 12.35246,7.89823 0.25153,0.3729 -8.84244,17.36608 -17.7966,33.25514 l -0.99901,1.77267 4.00243,3.92454 c 2.20134,2.15849 4.27899,3.97099 4.61709,4.02777 0.39745,0.0665 7.13051,-5.525 19.05581,-15.82554 10.14264,-8.76081 18.66324,-16.02083 18.93466,-16.13341 0.59654,-0.24737 3.4877,2.81627 3.4557,3.66196 -0.0117,0.31396 -8.34028,7.71831 -18.50753,16.45403 -10.16729,8.73575 -18.56768,16.08533 -18.66758,16.33239 -0.20172,0.49856 1.18122,2.14046 1.80271,2.14046 0.21757,0 8.76765,-7.14745 19.00038,-15.8832 10.23273,-8.73576 18.76778,-15.87547 18.96675,-15.86601 0.47366,0.0199 3.12411,3.27493 3.12411,3.83361 0,0.23745 -8.30427,7.52226 -18.45394,16.18863 -10.14963,8.66643 -18.6022,15.99222 -18.78344,16.27952 -0.40051,0.63497 2.05947,4.39115 2.88937,4.4118 0.28928,0.007 8.60204,-7.30079 18.47285,-16.24 9.87077,-8.93918 18.15306,-16.34092 18.40508,-16.44826 0.48432,-0.20615 3.86963,2.88784 3.84206,3.51167 -0.01,0.19697 -8.38532,7.89413 -18.61472,17.10464 -10.22943,9.21053 -18.69025,16.95276 -18.80188,17.20495 -0.11184,0.25222 0.39952,1.49523 1.13572,2.76234 0.73624,1.26704 1.82588,3.27485 2.4215,4.46179 0.59556,1.18688 1.19719,2.154 1.33689,2.14908 0.13966,-0.005 8.56501,-2.54957 18.72291,-5.65478 10.15787,-3.10522 18.63497,-5.58212 18.83802,-5.50422 0.20291,0.078 2.20093,5.99309 4.43989,13.14488 3.45027,11.02104 3.99413,13.05885 3.56794,13.36838 -0.27659,0.2012 -8.56559,2.83373 -18.42009,5.85078 -9.85447,3.01705 -18.05857,5.61339 -18.23127,5.76961 -0.18804,0.16989 -0.13585,1.71189 0.12916,3.83721 0.24366,1.95423 0.49413,6.1169 0.55639,9.25032 0.0837,4.21123 0.23023,5.7645 0.56152,5.95494 0.24639,0.14183 5.80883,1.33824 12.36062,2.65885 22.42488,4.51991 32.60487,6.61164 32.71527,6.72204 0.0964,0.0963 -0.18082,1.60061 -0.78544,4.25923 -0.113,0.49714 -0.43271,0.77689 -0.88795,0.77689 -0.3912,0 -10.29367,-1.94745 -22.00547,-4.32771 -11.71173,-2.38025 -21.60482,-4.28365 -21.98466,-4.22977 -0.50729,0.072 -0.72014,0.40741 -0.80203,1.26402 -0.0613,0.64139 0.0174,1.29641 0.17811,1.45564 0.1595,0.15899 10.07596,2.32455 22.03717,4.81178 11.96123,2.4872 21.88715,4.65974 22.05765,4.82778 0.31056,0.30619 -0.3626,4.40929 -0.80637,4.91537 -0.12416,0.1415 -9.9199,-1.76179 -21.76816,-4.2298 -11.84827,-2.46799 -21.89456,-4.48731 -22.32517,-4.48731 -0.66702,0 -0.88602,0.34379 -1.47986,2.3233 -0.38339,1.27782 -0.58496,2.42528 -0.44794,2.54993 0.13684,0.12468 10.17537,2.17653 22.30752,4.55975 12.13215,2.38328 22.18518,4.45993 22.34003,4.61482 0.24738,0.24739 0.12366,1.17072 -0.55638,4.16609 -0.115,0.50566 -0.43182,0.77689 -0.9079,0.77689 -0.40231,0 -10.65603,-1.95038 -22.78608,-4.33418 -12.12998,-2.38383 -22.20766,-4.23955 -22.39485,-4.12391 -0.18727,0.11583 -1.50206,2.49335 -2.92199,5.28373 -1.41993,2.79042 -3.39332,6.30566 -4.38529,7.8117 l -1.80358,2.73829 13.75916,13.50546 c 7.56755,7.42809 13.69668,13.67369 13.6204,13.87919 -0.18008,0.48548 -17.90986,20.27802 -18.29546,20.4243 -0.24466,0.0928 -16.6829,-15.38528 -26.30288,-24.76703 -2.02925,-1.97898 -2.79664,-2.5307 -3.1608,-2.27248 -3.35141,2.37684 -10.24078,6.93386 -12.20056,8.07019 -1.58214,0.91736 -2.49983,1.66821 -2.49388,2.04047 0.005,0.32397 3.32978,11.23252 7.38788,24.2412 4.5521,14.59241 7.2614,23.79604 7.073,24.02782 -0.47833,0.58859 -4.43652,1.68539 -4.77254,1.32243 -0.16117,-0.17411 -3.5158,-10.72737 -7.45429,-23.4512 -3.93843,-12.7238 -7.29228,-23.27667 -7.45301,-23.45075 -0.17435,-0.18925 -0.85292,-0.0635 -1.68481,0.31137 -0.99086,0.44683 -1.39044,0.83696 -1.38521,1.35244 0.005,0.39845 3.40655,10.97949 7.56111,23.51336 4.68121,14.12269 7.43738,22.93184 7.24775,23.16465 -0.48094,0.59061 -4.43658,1.68485 -4.78055,1.32245 -0.1655,-0.17411 -3.66134,-10.52699 -7.76858,-23.00583 -4.10729,-12.47888 -7.60783,-22.77539 -7.77904,-22.88123 -0.34831,-0.21535 -4.15611,1.37744 -4.15611,1.73843 0,0.12667 3.34067,10.36747 7.42367,22.7572 4.08299,12.38971 7.42367,22.77832 7.42367,23.08578 0,0.38374 -0.62244,0.7391 -1.98541,1.13346 -1.09194,0.31594 -2.1639,0.64161 -2.38205,0.72376 -0.21832,0.0821 -0.4736,0.02 -0.56761,-0.13301 z m -49.03637,-10.5548 c 0.47386,-0.73215 1.76272,-31.44838 1.3384,-31.89744 -0.57008,-0.60328 -12.2496,-0.97902 -12.4345,-0.39994 -0.2647,0.82897 -1.66319,31.30485 -1.46075,31.83243 0.15349,0.40035 0.91744,0.55114 3.23836,0.63925 7.52494,0.28568 9.03912,0.25737 9.31849,-0.17412 z M 475.71939,329.5415 c 1.64369,-1.86665 3.03492,-3.59495 3.09168,-3.84062 0.0979,-0.42366 -20.24083,-20.59163 -21.03845,-20.8619 -0.44244,-0.15 -8.58676,7.86947 -8.58676,8.45495 0,0.34015 4.0576,4.3213 18.91438,18.55777 l 2.85853,2.73917 0.88607,-0.82772 c 0.48732,-0.45527 2.23091,-2.35502 3.87455,-4.22165 z M 286.89677,317.96892 c 5.88947,-5.3829 10.70813,-9.92677 10.70813,-10.09745 0,-0.17064 -1.15447,-1.86164 -2.56552,-3.75766 -1.41109,-1.89603 -2.84649,-3.92289 -3.18988,-4.50417 -0.36761,-0.62236 -0.85899,-1.01586 -1.19533,-0.95722 -0.31405,0.055 -5.56715,4.51649 -11.67347,9.91502 -7.73466,6.83808 -11.07143,9.99964 -11.00013,10.42268 0.0561,0.33391 1.64471,2.48893 3.52985,4.78886 2.40675,2.93647 3.61373,4.15134 4.05288,4.07942 0.34398,-0.0562 5.44404,-4.50654 11.33347,-9.88948 z m -52.97946,-67.64869 c 0.49349,-0.34479 2.93552,-9.85483 2.61486,-10.18328 -0.31881,-0.32652 -31.43896,-4.73309 -31.97454,-4.52754 -0.57601,0.22106 -1.75686,10.08357 -1.2661,10.57434 0.20939,0.20938 6.94856,1.27002 14.97625,2.35724 16.97913,2.29963 15.195,2.0968 15.64953,1.77924 z M 488.816,225.88203 c 7.73097,-2.3818 14.19416,-4.46837 14.36265,-4.63686 0.17834,-0.17833 -0.31021,-2.30148 -1.1684,-5.07858 -1.69705,-5.49163 -2.03573,-6.32931 -2.55426,-6.31719 -0.72516,0.0175 -28.23237,8.54603 -28.51679,8.84209 -0.158,0.16467 0.48057,2.62991 1.41916,5.47854 2.13087,6.46688 1.97587,6.0425 2.20656,6.0425 0.10699,0 6.5201,-1.94873 14.25108,-4.3305 z M 273.55677,174.40388 c 2.6866,-2.58838 4.88475,-4.979 4.88475,-5.31249 0,-0.8809 -21.13042,-23.12884 -21.96712,-23.12884 -0.7168,0 -9.7993,8.52122 -9.7993,9.19376 0,0.4548 21.26587,23.90914 21.70239,23.93578 0.162,0.01 2.4927,-2.09982 5.17928,-4.68821 z m 165.24904,-19.52555 c 3.8813,-7.05378 7.06659,-13.13562 7.07839,-13.51521 0.015,-0.52561 -1.2331,-1.46811 -5.24092,-3.95342 -2.89433,-1.7948 -5.47094,-3.18326 -5.72582,-3.08544 -0.25488,0.0979 -3.38373,5.51443 -6.95303,12.03692 -3.5693,6.52246 -6.78842,12.3562 -7.15353,12.96383 -0.63869,1.0628 -0.64031,1.12573 -0.0425,1.65605 1.28129,1.13631 9.96507,6.71103 10.46233,6.7166 0.32674,0.005 3.12268,-4.72801 7.57484,-12.81933 z m -81.10732,-10.72857 c 0.0852,-2.69121 -0.15233,-23.11151 -0.31641,-27.19131 l -0.21511,-5.35195 -5.69723,0.12349 c -3.13348,0.0676 -5.8124,0.22978 -5.95315,0.35949 -0.24613,0.22677 0.35436,31.17578 0.62172,32.06033 0.0974,0.32266 1.57182,0.43165 5.83849,0.43165 4.32901,0 5.71141,-0.10433 5.72174,-0.43165 z"
     id="path4007"
     inkscape:connector-curvature="0" />
</svg>
