<?xml version="1.0" encoding="UTF-8" standalone="no"?>
<!-- Created with Inkscape (http://www.inkscape.org/) -->
<svg
   xmlns:dc="http://purl.org/dc/elements/1.1/"
   xmlns:cc="http://creativecommons.org/ns#"
   xmlns:rdf="http://www.w3.org/1999/02/22-rdf-syntax-ns#"
   xmlns:svg="http://www.w3.org/2000/svg"
   xmlns="http://www.w3.org/2000/svg"
   xmlns:sodipodi="http://sodipodi.sourceforge.net/DTD/sodipodi-0.dtd"
   xmlns:inkscape="http://www.inkscape.org/namespaces/inkscape"
   width="750"
   height="500"
   id="svg2"
   version="1.1"
   inkscape:version="0.46"
   sodipodi:docname="Flag_of_Solita_(Caquetá).svg"
   sodipodi:version="0.32"
   inkscape:output_extension="org.inkscape.output.svg.inkscape">
  <defs
     id="defs4" />
  <sodipodi:namedview
     id="base"
     pagecolor="#ffffff"
     bordercolor="#666666"
     borderopacity="1.0"
     inkscape:pageopacity="0.0"
     inkscape:pageshadow="2"
     inkscape:zoom="1.014"
     inkscape:cx="375"
     inkscape:cy="250"
     inkscape:document-units="px"
     inkscape:current-layer="layer1"
     showgrid="false"
     inkscape:window-width="1024"
     inkscape:window-height="712"
     inkscape:window-x="-4"
     inkscape:window-y="-4"
     inkscape:window-maximized="1" />
  <metadata
     id="metadata7">
    <rdf:RDF>
      <cc:Work
         rdf:about="">
        <dc:format>image/svg+xml</dc:format>
        <dc:type
           rdf:resource="http://purl.org/dc/dcmitype/StillImage" />
        <dc:title />
      </cc:Work>
    </rdf:RDF>
  </metadata>
  <g
     inkscape:label="Capa 1"
     inkscape:groupmode="layer"
     id="layer1"
     transform="translate(0,-552.36218)">
    <rect
       style="fill:#ffffff;fill-opacity:1;stroke:none"
       id="rect2984"
       width="750"
       height="125"
       x="0"
       y="-5.6843419e-14"
       transform="translate(0,552.36218)" />
    <rect
       style="fill:#078930;fill-opacity:1;stroke:none"
       id="rect2986"
       width="750"
       height="125"
       x="0"
       y="677.36218" />
    <rect
       style="fill:#ffffff;fill-opacity:1;stroke:none"
       id="rect2988"
       width="750"
       height="125"
       x="0"
       y="250"
       transform="translate(0,552.36218)" />
    <rect
       style="fill:#078930;fill-opacity:1;stroke:none"
       id="rect2990"
       width="750"
       height="125"
       x="0"
       y="927.36218" />
    <rect
       style="fill:#89c5e3;fill-opacity:1;stroke:none"
       id="rect11420"
       width="250"
       height="500"
       x="0"
       y="-5.6843419e-014"
       transform="translate(0,552.36218)" />
    <path
       inkscape:connector-curvature="0"
       d="M 155.06047,653.785 C 157.0268,661.47491 154.85957,667.80527 151.10173,673.77017 C 148.19581,678.38271 146.28642,683.29814 146.37683,688.57945 C 147.69887,689.32486 148.95929,690.12832 150.17617,690.99293 L 180.54704,670.82031 L 160.15761,700.85625 C 160.52396,701.36189 160.88085,701.88762 161.22448,702.408 C 167.00762,699.80276 172.43641,699.28574 177.60957,700.28697 C 184.92255,701.70143 191.13117,700.16977 197.61438,696.30547 C 193.56715,703.13398 187.52899,706.07608 180.65387,707.63653 C 175.32688,708.84539 170.51176,710.96708 166.83719,714.78049 C 167.23701,716.21705 167.56718,717.67035 167.81826,719.14576 L 203.56682,726.39484 L 167.89891,733.21599 C 167.80085,733.82945 167.68271,734.44158 167.55742,735.05439 C 173.49049,737.29862 177.70882,740.76378 180.65982,745.1304 C 184.83059,751.3019 190.27446,754.61034 197.59099,756.46212 C 189.90115,758.42843 183.5813,756.23576 177.61646,752.47793 C 173.00395,749.572 168.08842,747.66262 162.80719,747.75302 C 162.06178,749.07507 161.25831,750.33548 160.39369,751.55238 L 180.55568,781.94848 L 150.50502,761.52323 C 150.00339,761.88623 149.49508,762.25994 148.97871,762.60082 C 151.58395,768.38388 152.09026,773.83814 151.08968,779.01108 C 149.67456,786.32447 151.21693,792.50736 155.08124,798.99031 C 148.25274,794.94314 145.31063,788.90491 143.75017,782.0302 C 142.54132,776.7032 140.41962,771.88789 136.60622,768.21311 C 135.16632,768.61427 133.71905,768.9431 132.24096,769.19426 L 124.99186,804.9428 L 118.17071,769.2753 C 117.55725,769.17685 116.94513,769.05898 116.33233,768.93374 C 114.08875,774.86815 110.6216,779.08542 106.25631,782.03624 C 100.0848,786.20658 96.776371,791.65079 94.923911,798.96753 C 92.957602,791.27708 95.150941,784.95756 98.908774,778.99232 C 101.82073,774.37122 103.70868,769.47085 103.60757,764.17267 C 102.29489,763.43127 101.04386,762.62895 99.834329,761.76969 L 69.437549,781.93174 L 89.838025,751.8705 C 89.479048,751.3749 89.122756,750.86457 88.785888,750.3549 C 83.001479,752.96751 77.551263,753.46645 72.374961,752.46587 C 65.062236,751.05076 58.879338,752.59312 52.39574,756.45743 C 56.443547,749.62893 62.471076,746.71295 69.34579,745.15182 C 74.666755,743.9443 79.476716,741.78176 83.147475,737.9717 C 82.748996,736.53782 82.442924,735.08988 82.192442,733.61717 L 46.433185,726.39352 L 82.111418,719.54691 C 82.209855,718.93345 82.327731,718.32132 82.452972,717.70852 C 76.514528,715.46628 72.301958,711.99979 69.350486,707.6325 C 65.180114,701.461 59.72521,698.17801 52.409132,696.32622 C 60.098914,694.35972 66.429143,696.52714 72.393707,700.28496 C 77.015483,703.19692 81.91585,705.08488 87.214039,704.98375 C 87.955428,703.67109 88.757092,702.42005 89.617014,701.21052 L 69.444245,670.83959 L 99.516214,691.21401 C 100.0118,690.85559 100.52215,690.49876 101.0318,690.16214 C 98.422555,684.38069 97.909541,678.95022 98.910784,673.77707 C 100.32524,666.46408 98.793582,660.2554 94.929273,653.77226 C 101.75778,657.81941 104.67376,663.847 106.23421,670.72213 C 107.44508,676.05514 109.60359,680.88586 113.42973,684.56005 C 114.8596,684.16289 116.3015,683.81818 117.76955,683.56832 L 124.99321,647.80917 L 131.83979,683.48774 C 132.45326,683.58579 133.0654,683.70387 133.6782,683.82924 C 135.92243,677.89454 139.38692,673.67828 143.75419,670.72682 C 149.92571,666.55604 153.20869,661.10153 155.06047,653.785 L 155.06047,653.785 z"
       style="fill:#fcdd09;fill-opacity:1;fill-rule:nonzero;stroke:none;stroke-width:2.99999952;stroke-linecap:butt;stroke-linejoin:miter;marker-start:none;marker-mid:none;marker-end:none;stroke-miterlimit:4;stroke-dasharray:none;stroke-dashoffset:0;stroke-opacity:1;visibility:visible;display:inline;overflow:visible"
       id="path2140" />
    <rect
       style="fill:#89c5e3;fill-opacity:1;stroke:none"
       id="rect11791"
       width="250"
       height="100"
       x="0"
       y="726.50415" />
    <path
       sodipodi:type="arc"
       style="fill:#000000;fill-opacity:1;stroke:none"
       id="path12563"
       sodipodi:cx="122.5"
       sodipodi:cy="191"
       sodipodi:rx="37.5"
       sodipodi:ry="19"
       d="m 160,191 a 37.5,19 0 1 1 -75,0 l 37.5,0 z"
       transform="matrix(1.1866667,0,0,2.4736841,-20.966666,252.88852)"
       sodipodi:start="0"
       sodipodi:end="3.1415927" />
  </g>
</svg>
