<?xml version="1.0" encoding="UTF-8" standalone="no"?>
<svg
   xmlns:dc="http://purl.org/dc/elements/1.1/"
   xmlns:cc="http://creativecommons.org/ns#"
   xmlns:svg="http://www.w3.org/2000/svg"
   xmlns="http://www.w3.org/2000/svg"
   xmlns:inkscape="http://www.inkscape.org/namespaces/inkscape"
   version="1.1"
   width="1000"
   height="500"
   inkscape:version="0.46">
  <rect
     width="1000"
     height="500"
     x="-1000"
     y="0"
     transform="scale(-1,1)"
     fill="#056624"/>
  <g
     transform="matrix(0.8945056,0.4470567,-0.4470567,0.8945056,-5.0571993,-48.798205)">
    <rect
       height="83.3"
       width="1150"
       x="0"
       y="0"
      fill="#ffffff"/>
    <rect
       fill="#da121a"
       y="16.6"
       x="0"
       height="50"
       width="1150"/>
  </g>
  <path
     d="M 823.25344,116.5479 L 785,123.49955 L 825.64661,130.88907 C 799.68139,141.55834 809.65007,152.52055 790.89921,153.15682 C 807.67927,161.66852 807.05153,146.68256 829.82845,146.33459 L 807.69865,178.29823 L 841.66563,154.78275 C 830.84911,180.68597 845.64984,181.38966 832.84083,195.09766 C 850.72602,189.2527 839.68476,179.09957 855.54413,162.74731 L 862.50352,200.993 L 869.89382,160.34639 C 880.56231,186.31161 891.52453,176.34371 892.16157,195.09301 C 900.67405,178.31373 885.68731,178.94147 885.33934,156.16533 L 917.29988,178.299 L 893.7844,144.3328 C 919.68839,155.14932 920.39131,140.34858 934.10009,153.15759 C 928.25435,135.2724 918.10122,146.31444 901.74896,130.45507 L 939.99698,123.49567 L 899.35037,116.10616 C 925.31559,105.43689 915.34691,94.47467 934.09699,93.83918 C 917.31693,85.3267 917.94545,100.31266 895.16775,100.66063 L 917.30143,68.7001 L 883.33522,92.21558 C 894.15097,66.31081 879.35023,65.60867 892.15924,51.90066 C 874.27405,57.74563 885.31532,67.89876 869.45595,84.25102 L 862.49655,46.003 L 855.10626,86.64961 C 844.43776,60.68439 833.47477,70.65229 832.83851,51.90299 C 824.32603,68.68227 839.31276,68.05453 839.66073,90.83145 L 807.69555,68.70165 L 831.21103,102.66785 C 805.30781,91.85133 804.60412,106.65207 790.89534,93.84383 C 796.75425,111.73057 806.90661,100.68698 823.25887,116.551 L 823.25344,116.5479" fill="#fcdd09"/>
</svg>
