<?xml version="1.0" encoding="UTF-8" standalone="no"?>
<svg
   xmlns:dc="http://purl.org/dc/elements/1.1/"
   xmlns:cc="http://creativecommons.org/ns#"
   xmlns:rdf="http://www.w3.org/1999/02/22-rdf-syntax-ns#"
   xmlns:svg="http://www.w3.org/2000/svg"
   xmlns="http://www.w3.org/2000/svg"
   xmlns:sodipodi="http://sodipodi.sourceforge.net/DTD/sodipodi-0.dtd"
   xmlns:inkscape="http://www.inkscape.org/namespaces/inkscape"
   width="2100"
   height="1400"
   id="svg2"
   version="1.1"
   inkscape:version="1.0.1 (3bc2e813f5, 2020-09-07)"
   sodipodi:docname="Flag_of_Suaita_(Santander).svg"
   sodipodi:version="0.32"
   inkscape:output_extension="org.inkscape.output.svg.inkscape">
  <defs
     id="defs4" />
  <sodipodi:namedview
     id="base"
     pagecolor="#ffffff"
     bordercolor="#666666"
     borderopacity="1.0"
     inkscape:pageopacity="0.0"
     inkscape:pageshadow="2"
     inkscape:zoom="0.29993113"
     inkscape:cx="1339.4119"
     inkscape:cy="827.04718"
     inkscape:document-units="px"
     inkscape:current-layer="layer1"
     showgrid="false"
     inkscape:window-width="1920"
     inkscape:window-height="1001"
     inkscape:window-x="-9"
     inkscape:window-y="-9"
     inkscape:window-maximized="1"
     showguides="true"
     inkscape:guide-bbox="true"
     inkscape:document-rotation="0"
     fit-margin-top="0"
     fit-margin-left="0"
     fit-margin-right="0"
     fit-margin-bottom="0" />
  <metadata
     id="metadata7">
    <rdf:RDF>
      <cc:Work
         rdf:about="">
        <dc:format>image/svg+xml</dc:format>
        <dc:type
           rdf:resource="http://purl.org/dc/dcmitype/StillImage" />
        <dc:title></dc:title>
      </cc:Work>
    </rdf:RDF>
  </metadata>
  <g
     inkscape:label="Capa 1"
     inkscape:groupmode="layer"
     id="layer1"
     transform="translate(0,-452.36217)">
    <rect
       style="fill:#d02d23;fill-opacity:1;stroke-width:13.0012"
       id="rect41"
       width="2100"
       height="1400"
       x="0"
       y="452.36218"
       ry="0" />
    <rect
       style="fill:#ffd113;fill-opacity:1;stroke-width:2.27738"
       x="0"
       id="rect5052"
       y="652.36218"
       width="2100"
       height="200" />
    <rect
       height="200"
       width="2100"
       y="1052.3622"
       id="rect5050"
       x="0"
       style="fill:#ffd113;fill-opacity:1;stroke-width:2.27738" />
    <rect
       height="200"
       width="2100"
       y="1452.3622"
       id="rect5048"
       x="0"
       style="fill:#ffd113;fill-opacity:1;stroke-width:2.27738" />
    <rect
       style="fill:#078930;fill-opacity:1;stroke:#000000;stroke-width:0.232871;stroke-miterlimit:4;stroke-dasharray:none;stroke-opacity:1"
       id="rect4900"
       width="699.76715"
       height="1399.7671"
       x="0.11643568"
       y="452.47861" />
    <g
       id="_38771904"
       transform="matrix(6.0088532,0,0,6.0088532,-294.15085,467.28949)">
      <polygon
         id="path3538"
         class="fil2 str39"
         points="114.258,98.3717 142.168,78.4128 123.249,107.943 157.098,113.565 122.839,121.069 142.798,148.978 113.267,130.06 107.645,163.908 100.142,129.649 72.2322,149.608 91.1508,120.078 57.3026,114.456 91.5613,106.952 71.6023,79.0426 101.133,97.9613 106.755,64.1131 "
         randomized="0"
         rounded="0"
         flatsided="false"
         arg2="0.46364761"
         arg1="0.030759526"
         r2="22.36068"
         r1="65.030762"
         cy="633"
         cx="705"
         sides="8"
         type="star"
         style="fill:#ffd113;fill-opacity:1;stroke:#252629;stroke-width:0.27;stroke-opacity:1" />
      <path
         id="path3540"
         class="fil2 str39"
         d="m 112.425,91.2834 c 1.0353,-2.3628 0.7446,-5.4871 3.6605,-7.1768 5.4944,-3.1838 0.4661,-11.8327 12.2771,-14.5791 -4.6039,5.3713 -3.0692,6.9062 -3.0692,10.7425 0,4.6039 -4.347,3.6702 -5.3224,15.0359 -2.8298,-1.4311 -2.8842,-1.6753 -7.546,-4.0225 z"
         nodetypes="cscscc"
         style="fill:#ffd113;fill-opacity:1;stroke:#252629;stroke-width:0.27;stroke-opacity:1" />
      <path
         id="path3542"
         class="fil2 str39"
         d="m 126.492,101.859 c 2.371,-1.0166 4.8059,-3.9247 8.0891,-3.1644 6.1865,1.4326 8.4294,-8.3171 18.9269,-2.2469 -7.032,0.7726 -6.9614,2.942 -9.584,5.7418 -3.1474,3.36 -5.8513,1.1619 -13.8963,7.1956 z"
         transform-center-y="-16.23846"
         transform-center-x="-43.17079"
         nodetypes="cscscc"
         style="fill:#ffd113;fill-opacity:1;stroke:#252629;stroke-width:0.27;stroke-opacity:1" />
      <path
         id="path3544"
         class="fil2 str39"
         d="m 130.028,118.938 c 2.3885,0.9749 6.0043,1.4133 7.7676,4.2852 3.3225,5.4117 11.8407,0.1649 14.8867,11.9023 -5.4866,-4.4658 -6.9821,-2.8926 -10.8171,-2.795 -4.6024,0.1171 -3.4672,-4.1591 -14.854,-4.8449 z"
         nodetypes="cscscc"
         transform-center-x="-42.57155"
         transform-center-y="15.849655"
         style="fill:#ffd113;fill-opacity:1;stroke:#252629;stroke-width:0.27;stroke-opacity:1" />
      <path
         id="path3546"
         class="fil2 str39"
         d="m 120.471,134.525 c 0.9647,2.3926 2.7363,5.0558 1.9047,8.3216 -1.5671,6.1538 6.9135,6.0946 0.616,16.4573 -0.6191,-7.0472 -1.862,-4.9902 -4.604,-7.6733 -3.2906,-3.2199 1.5347,-4.6039 -7.4585,-13.5431 z"
         transform-center-y="43.622965"
         transform-center-x="-15.334377"
         nodetypes="cscscc"
         style="fill:#ffd113;fill-opacity:1;stroke:#252629;stroke-width:0.27;stroke-opacity:1" />
      <path
         id="path3548"
         class="fil2 str39"
         d="m 101.937,138.705 c -0.9678,2.3914 -1.5392,5.2621 -4.4059,7.034 -5.4018,3.3386 0.7404,9.1864 -10.9879,12.2673 4.4494,-5.4999 2.1266,-4.8833 2.0176,-8.7181 -0.1308,-4.602 4.3019,-2.2461 4.0412,-14.9236 z"
         nodetypes="cscscc"
         transform-center-x="15.81296"
         transform-center-y="42.54167"
         style="fill:#ffd113;fill-opacity:1;stroke:#252629;stroke-width:0.27;stroke-opacity:1" />
      <path
         id="path3550"
         class="fil2 str39"
         d="m 86.7859,127.486 c -2.3546,1.0539 -5.801,3.8551 -9.0957,3.1465 -6.2082,-1.3351 -5.8309,7.1372 -16.4225,1.2329 7.019,-0.8831 4.9168,-2.0478 7.4951,-4.8885 3.0942,-3.4091 5.405,0.7806 14.0006,-8.5415 z"
         transform-center-y="16.884178"
         transform-center-x="42.8369"
         nodetypes="cscscc"
         style="fill:#ffd113;fill-opacity:1;stroke:#252629;stroke-width:0.27;stroke-opacity:1" />
      <path
         id="path3554"
         class="fil2 str39"
         d="m 83.8585,109.428 c -2.3791,-0.9975 -7.8328,-2.2398 -9.5689,-5.1283 -3.2711,-5.4428 -9.195,0.6261 -12.1296,-11.1396 5.4441,4.5175 4.8564,2.1872 8.6922,2.1259 4.6033,-0.0735 4.1631,5.8044 16.8429,5.7015 z"
         nodetypes="cscscc"
         transform-center-x="42.266015"
         transform-center-y="-16.376105"
         style="fill:#ffd113;fill-opacity:1;stroke:#252629;stroke-width:0.27;stroke-opacity:1" />
      <path
         id="path3556"
         class="fil2 str39"
         d="M 94.2999,94.3003 C 93.3001,91.9222 89.6636,87.1548 90.4473,83.877 91.9238,77.7009 83.445,77.8848 89.5895,67.4307 c 0.7227,7.0373 1.9351,4.9622 4.7162,7.6047 3.3376,3.1712 -1.0929,7.0589 8.0306,15.865 z"
         transform-center-y="-43.039615"
         transform-center-x="16.326437"
         nodetypes="cscscc"
         style="fill:#ffd113;fill-opacity:1;stroke:#252629;stroke-width:0.27;stroke-opacity:1" />
      <path
         id="path3558"
         class="fil2 str39"
         d="m 130.741,114.799 c -2e-4,13.3675 -10.841,24.2082 -24.2085,24.2082 -13.3676,0 -24.2084,-10.8407 -24.2084,-24.2083 0,-13.3676 10.8408,-24.2084 24.2084,-24.2084 13.3675,0 24.2083,10.8408 24.2083,24.2084 z"
         ry="35"
         rx="35"
         cy="653"
         cx="720"
         type="arc"
         style="fill:#ffd113;fill-opacity:1;stroke:#252629;stroke-width:0.27;stroke-opacity:1" />
      <path
         id="path3560"
         class="fil2 str39"
         d="m 92.299,103.29 c 15.9918,-2.2227 11.7308,5.5854 11.5098,12.2771 M 92.299,103.29 Z"
         nodetypes="cc"
         style="fill:none;stroke:#252629;stroke-width:0.27;stroke-opacity:1" />
      <path
         id="path3562"
         class="fil2 str39"
         d="m 120.69,103.29 c -15.9919,-2.2227 -11.7309,4.8181 -11.5099,11.5098 M 120.69,103.29 Z"
         nodetypes="cc"
         style="fill:none;stroke:#252629;stroke-width:0.27;stroke-opacity:1" />
      <path
         id="path3564"
         class="fil2 str39"
         d="m 103.042,109.428 c -3.1995,2.5745 -6.5914,3.8494 -10.7425,0 3.7098,-4.5139 7.9507,-2.7632 10.7425,0 z"
         nodetypes="ccc"
         style="fill:none;stroke:#252629;stroke-width:0.27;stroke-opacity:1" />
      <path
         id="path3566"
         class="fil4 str39"
         d="m 99.9722,109.428 c 1e-4,1.2711 -1.0307,2.3019 -2.302,2.3019 -1.2714,0 -2.3022,-1.0308 -2.3022,-2.3021 0,-1.2712 1.0308,-2.3021 2.3022,-2.3021 1.2713,0 2.3021,1.0309 2.3021,2.3021 z"
         ry="2.5"
         rx="2.5"
         cy="630.5"
         cx="695.5"
         type="arc"
         style="fill:#252629;fill-opacity:1;stroke:#252629;stroke-width:0.27;stroke-opacity:1" />
      <path
         id="path3568"
         class="fil2 str40"
         d="m 98.4376,109.428 c -1e-4,0.4236 -0.3438,0.7672 -0.7675,0.7672 -0.4236,0 -0.7673,-0.3436 -0.7673,-0.7674 0,-0.4237 0.3437,-0.7673 0.7673,-0.7673 0.4237,0 0.7674,0.3436 0.7674,0.7673 z"
         ry="1"
         rx="1"
         cy="630"
         cx="695"
         type="arc"
         style="fill:#ffd113;fill-opacity:1;stroke:#ffd113;stroke-width:0.27;stroke-opacity:1" />
      <path
         id="path3574"
         class="fil2 str39"
         d="m 111.482,109.428 c 3.1994,2.5745 6.5913,3.8494 10.7425,0 -3.7098,-4.5139 -7.9508,-2.7632 -10.7425,0 z"
         nodetypes="ccc"
         style="fill:none;stroke:#252629;stroke-width:0.27;stroke-opacity:1" />
      <path
         id="path3576"
         class="fil4 str39"
         d="m 114.551,109.428 c -1e-4,1.2711 1.0307,2.3019 2.302,2.3019 1.2713,0 2.3022,-1.0308 2.3022,-2.3021 0,-1.2712 -1.0309,-2.3021 -2.3022,-2.3021 -1.2713,0 -2.3021,1.0309 -2.3021,2.3021 z"
         type="arc"
         cx="695.5"
         cy="630.5"
         rx="2.5"
         ry="2.5"
         style="fill:#252629;fill-opacity:1;stroke:#252629;stroke-width:0.27;stroke-opacity:1" />
      <path
         id="path3578"
         class="fil2 str40"
         d="m 116.086,109.428 c 1e-4,0.4236 0.3437,0.7672 0.7675,0.7672 0.4236,0 0.7673,-0.3436 0.7673,-0.7674 0,-0.4237 -0.3437,-0.7673 -0.7673,-0.7673 -0.4238,0 -0.7674,0.3436 -0.7674,0.7673 z"
         type="arc"
         cx="695"
         cy="630"
         rx="1"
         ry="1"
         style="fill:#ffd113;fill-opacity:1;stroke:#ffd113;stroke-width:0.27;stroke-opacity:1" />
      <path
         id="path3585"
         class="fil2 str39"
         d="m 96.9029,126.309 c 1.3237,-2.6847 2.5719,-5.4017 3.0693,-8.4405 0,1.5346 2.302,3.0693 3.8366,1.5346 1.5346,3.0693 4.6039,3.0693 6.1385,0 1.5347,1.5347 3.8366,0 3.8366,-1.5346 0.2961,3.1719 1.6212,5.7008 3.8366,7.6732 m -20.7176,0.7673 z"
         nodetypes="cccccc"
         style="fill:none;stroke:#252629;stroke-width:0.27;stroke-opacity:1" />
      <path
         id="path3587"
         class="fil2 str39"
         d="m 100.74,126.309 c 2.302,0 4.6039,-3.8366 6.1386,-0.7673 1.5346,-3.0693 4.6039,0.7673 6.9058,0.7673 -6.1385,3.0693 -7.6731,3.0693 -13.0444,0 z"
         nodetypes="cccc"
         style="fill:none;stroke:#252629;stroke-width:0.27;stroke-opacity:1" />
      <path
         id="path5580"
         class="fil4 str39"
         d="m 112.861,126.308 c -4.8934,1.2299 -6.8272,1.2299 -11.0817,0.0696 4.2545,1.1603 6.1883,1.1603 11.0817,-0.0696 z"
         nodetypes="ccc"
         style="fill:#000000;stroke:#252629;stroke-width:0.27;stroke-opacity:1" />
    </g>
  </g>
</svg>
