<?xml version="1.0" encoding="UTF-8" standalone="no"?>
<!-- Created with Inkscape (http://www.inkscape.org/) -->
<svg
   xmlns:dc="http://purl.org/dc/elements/1.1/"
   xmlns:cc="http://creativecommons.org/ns#"
   xmlns:rdf="http://www.w3.org/1999/02/22-rdf-syntax-ns#"
   xmlns:svg="http://www.w3.org/2000/svg"
   xmlns="http://www.w3.org/2000/svg"
   xmlns:sodipodi="http://sodipodi.sourceforge.net/DTD/sodipodi-0.dtd"
   xmlns:inkscape="http://www.inkscape.org/namespaces/inkscape"
   width="750"
   height="500"
   id="svg2"
   version="1.1"
   inkscape:version="0.46"
   sodipodi:docname="Flag_of_Suaza_(Huila).svg"
   sodipodi:version="0.32"
   inkscape:output_extension="org.inkscape.output.svg.inkscape">
  <defs
     id="defs4" />
  <sodipodi:namedview
     id="base"
     pagecolor="#ffffff"
     bordercolor="#666666"
     borderopacity="1.0"
     inkscape:pageopacity="0.0"
     inkscape:pageshadow="2"
     inkscape:zoom="1.014"
     inkscape:cx="375"
     inkscape:cy="250"
     inkscape:document-units="px"
     inkscape:current-layer="layer1"
     showgrid="false"
     inkscape:window-width="1024"
     inkscape:window-height="712"
     inkscape:window-x="-4"
     inkscape:window-y="-4"
     inkscape:window-maximized="1" />
  <metadata
     id="metadata7">
    <rdf:RDF>
      <cc:Work
         rdf:about="">
        <dc:format>image/svg+xml</dc:format>
        <dc:type
           rdf:resource="http://purl.org/dc/dcmitype/StillImage" />
        <dc:title />
      </cc:Work>
    </rdf:RDF>
  </metadata>
  <g
     inkscape:label="Capa 1"
     inkscape:groupmode="layer"
     id="layer1"
     transform="translate(0,-552.36218)">
    <path
       style="fill:#078930;fill-opacity:1;stroke:none"
       d="M 750,552.36218 0,1052.3622 0,552.36218 l 750,0 z"
       id="path2820" />
    <path
       style="fill:#078930;fill-opacity:1;stroke:none"
       d="m 750,552.36218 0,500.00002 -750,0 750,-500.00002 z"
       id="path3594" />
    <path
       style="fill:#fcdd09;stroke:none;fill-opacity:1"
       d="m 750,602.36218 0,-50 -52,0 -698,450.00002 0,50 50,0 700,-450.00002 z"
       id="path3649" />
    <path
       sodipodi:type="arc"
       style="opacity:1;fill:none;fill-opacity:1;stroke:#fcdd09;stroke-width:14.28571429000000000;stroke-linejoin:round;stroke-miterlimit:4;stroke-dasharray:none;stroke-dashoffset:0;stroke-opacity:1"
       id="path2383"
       sodipodi:cx="287.96844"
       sodipodi:cy="175.5424"
       sodipodi:rx="116.37081"
       sodipodi:ry="116.37081"
       d="M 404.33926,175.5424 A 116.37081,116.37081 0 1 1 171.59763,175.5424 A 116.37081,116.37081 0 1 1 404.33926,175.5424 z"
       transform="matrix(0.7,0,0,0.7,-88.165683,538.94995)" />
    <g
       transform="matrix(0.49,0,0,0.49,53.233319,592.02467)"
       id="g3220"
       inkscape:label="Layer 1"
       style="fill:#fcdd09;fill-opacity:1">
      <g
         style="stroke:#000000;stroke-width:1.37174212999999990;stroke-miterlimit:4;stroke-dasharray:none;stroke-opacity:1;fill:#fcdd09;fill-opacity:1"
         transform="matrix(0.729,0,0,0.729,-35.231201,-9.2402668)"
         id="g3852">
        <path
           style="fill:#fcdd09;fill-opacity:1;fill-rule:evenodd;stroke:#000000;stroke-width:1.37174212999999990;stroke-linecap:butt;stroke-linejoin:miter;stroke-miterlimit:4;stroke-dasharray:none;stroke-opacity:1"
           d="M 320.53616,222.1981 L 319.96429,212.19028 C 300.42734,205.11163 281.86374,186.35279 261.34706,191.03089 C 249.66521,193.02034 239.99643,199.03591 225.60485,195.6059 L 232.46735,202.75433 C 240.7453,205.69624 250.92027,200.28308 261.83504,198.59079 C 282.26354,196.39718 301.25766,215.17173 320.53616,222.1981 z"
           id="path3848"
           sodipodi:nodetypes="ccccccc" />
        <path
           style="fill:#fcdd09;fill-opacity:1;fill-rule:evenodd;stroke:#000000;stroke-width:1.37174212999999990;stroke-linecap:butt;stroke-linejoin:miter;stroke-miterlimit:4;stroke-dasharray:none;stroke-opacity:1"
           d="M 320.04119,254.25899 C 299.81982,249.62411 284.95527,256.71485 269.36579,249.96889 C 241.08779,237.499 235.25979,218.67823 228.59135,207.37388 C 224.01266,196.90659 211.17157,196.16872 203.77958,195.91368 L 204.20859,187.76249 C 213.09481,188.11143 223.2098,189.18558 230.50123,195.91368 C 243.75951,210.78601 245.37681,228.1318 271.28327,241.73932 C 287.53663,246.48958 304.86777,241.12799 320.04119,245.67879 L 320.04119,254.25899 z"
           id="path3850"
           sodipodi:nodetypes="ccccccccc" />
        <path
           style="fill:#fcdd09;fill-opacity:1;fill-rule:evenodd;stroke:#000000;stroke-width:1.37174212999999990;stroke-linecap:butt;stroke-linejoin:miter;stroke-miterlimit:4;stroke-dasharray:none;stroke-opacity:1"
           d="M 198.32388,179.94871 C 188.91644,179.20991 183.89944,175.42829 177.39432,172.67802 C 168.90118,166.94891 162.70627,159.49206 160.2064,153.39754 C 156.87335,144.08974 150.51353,149.22516 147.72034,145.57193 C 144.24413,141.51889 146.15419,134.35278 135.747,138.27378 C 131.27499,139.00303 133.5691,129.95445 124.84625,134.64631 C 120.11817,136.42034 122.80022,123.80845 111.65754,128.77901 C 107.89744,130.24885 106.13994,122.7976 99.913416,126.32297 C 94.25108,128.55598 92.48058,125.84033 91.310521,124.04729 C 86.44303,115.95657 81.135374,120.18084 77.814791,116.03863 C 75.197532,111.72367 72.628071,105.3078 69.871308,107.12465 C 66.971179,109.52334 70.081168,117.9653 72.219191,121.97657 C 73.654521,124.732 72.425462,124.98943 71.242912,127.36151 C 69.1819,133.0469 73.565633,133.49848 76.08062,135.19098 C 80.502085,137.88196 78.030304,138.2239 77.857826,140.7275 C 76.759814,144.28879 78.905767,147.37861 82.160194,148.63372 C 88.732581,150.71881 81.757334,156.98569 89.599808,159.36826 C 95.546448,161.42282 89.637194,168.75125 99.729946,166.76676 C 104.98426,166.08539 102.54284,175.3738 110.97608,172.80329 C 116.58167,171.11736 113.81735,177.54193 118.84089,177.35775 C 124.32608,176.29014 123.03846,181.62108 127.45556,182.56958 C 134.56629,183.74232 133.46945,183.17748 141.14816,186.6163 C 156.61519,192.53915 182.6302,190.43495 202.06328,193.83623 L 203.19114,185.69782 L 198.32388,179.94871 z"
           id="path3840"
           sodipodi:nodetypes="ccccccccccccccccccccccccc" />
        <path
           style="fill:#fcdd09;fill-opacity:1;fill-rule:evenodd;stroke:#000000;stroke-width:1.37174212999999990;stroke-linecap:butt;stroke-linejoin:miter;stroke-miterlimit:4;stroke-dasharray:none;stroke-opacity:1"
           d="M 254.1794,198.18149 C 262.48303,193.03038 270.78355,180.38431 275.88127,170.53391 C 278.27246,163.47231 286.61874,146.65575 282.49205,144.08335 C 278.45702,141.25325 279.59573,137.59412 283.6107,135.45418 C 290.94438,132.88901 280.36906,129.33962 289.49948,123.88329 C 294.10457,121.38917 282.82996,114.05902 296.5529,109.73572 C 304.30957,103.68284 285.38067,104.02412 298.17771,94.428728 C 304.04785,90.855367 303.8704,91.334339 303.82614,89.374869 C 302.36622,84.522388 307.87629,84.078268 310.36642,84.023724 C 313.81031,84.326072 308.82978,77.720758 317.50129,80.159008 C 322.55067,81.179681 317.19863,72.958494 327.31172,72.13229 C 333.03382,71.942976 328.6696,66.53863 333.4127,64.612282 C 337.07922,75.611859 346.25993,86.52529 345.5476,97.524867 C 344.5562,104.34211 338.41468,104.75762 339.50044,110.48216 C 342.0787,116.08334 350.46094,116.69371 339.50044,123.26546 C 333.98582,127.01089 347.63785,133.42971 335.33844,134.8596 C 327.60172,136.26973 337.19173,143.61153 329.69001,146.15647 C 334.84165,151.08573 321.7145,150.01302 323.447,153.29133 C 329.47905,159.86836 316.89241,156.29295 316.60943,161.17053 C 316.2526,163.92107 317.46546,165.69822 310.36642,168.15562 C 309.23494,168.61811 307.74992,168.61861 306.9259,171.44209 C 305.71703,176.92852 278.3901,195.18048 263.98983,207.39735 L 254.1794,198.18149 z"
           id="path3820"
           sodipodi:nodetypes="ccccccccccccccccccccccc" />
        <path
           style="fill:#fcdd09;fill-opacity:1;fill-rule:evenodd;stroke:#000000;stroke-width:1.37174212999999990;stroke-linecap:butt;stroke-linejoin:miter;stroke-miterlimit:4;stroke-dasharray:none;stroke-opacity:1"
           d="M 219.78345,118.33836 C 220.8149,103.61765 222.0027,87.882364 219.98422,71.608555 C 218.41474,60.934794 210.60142,54.540515 210.54831,43.30083 C 210.55374,41.152 210.56533,35.944667 214.96512,34.619779 C 217.0776,34.322159 218.38631,31.642724 211.70887,31.33279 C 204.87764,31.364686 196.42386,39.066932 195.89254,47.870203 C 194.38686,68.288383 202.76735,83.883434 200.71087,101.87572 C 196.66759,126.87087 201.7438,153.68132 199.21947,178.67647 L 209.61001,197.73524 C 214.55694,172.91202 217.24229,143.16158 219.78345,118.33836 z"
           id="path2426"
           sodipodi:nodetypes="cccccccccc" />
        <path
           style="fill:#fcdd09;fill-rule:evenodd;stroke:#000000;stroke-width:0.68587105999999998;stroke-linecap:butt;stroke-linejoin:miter;stroke-miterlimit:4;stroke-dasharray:none;stroke-opacity:1;fill-opacity:1"
           d="M 81.586215,126.57568 C 105.88621,154.46956 149.91659,173.64873 189.85552,187.3006"
           id="path3842"
           sodipodi:nodetypes="cc" />
        <path
           style="fill:#fcdd09;fill-opacity:1;fill-rule:evenodd;stroke:#000000;stroke-width:1.37174212999999990;stroke-linecap:butt;stroke-linejoin:miter;stroke-miterlimit:4;stroke-dasharray:none;stroke-opacity:1"
           d="M 205.66035,224.04663 C 200.14706,211.35514 197.00012,197.6429 187.82795,185.25632 C 183.48696,179.32008 172.51587,179.25078 173.51262,174.4639 C 174.20356,169.31611 161.98995,175.26406 164.88719,168.98012 C 166.02917,167.70354 167.55633,163.2171 161.37749,163.26381 C 159.86293,163.58786 152.41186,164.72984 154.23984,158.70195 C 154.41643,154.2736 149.83828,157.15035 148.22256,154.32681 C 147.41021,151.34281 153.28082,145.33435 143.73476,144.81653 C 134.47279,145.34705 141.15015,141.55328 132.54947,140.9741 C 122.28445,139.85701 124.665,136.21081 125.11957,132.9498 C 128.34847,126.71855 117.90488,127.14641 117.98686,123.14233 C 118.67016,117.00158 116.80114,114.3731 114.87007,113.22436 C 109.98181,110.87874 108.95487,109.39793 109.96256,107.39094 C 111.43318,104.76556 120.06957,107.81009 122.742,107.61196 C 128.65581,107.61453 129.66302,107.12644 132.25227,106.79655 C 138.91994,104.70881 141.58185,107.96209 146.22049,108.57972 C 146.82497,110.25483 156.63644,105.68214 161.58632,114.26658 C 165.76881,119.98169 167.43195,115.80602 174.76872,123.91555 C 176.8274,124.82793 174.46769,128.27468 178.03034,131.25421 C 182.61724,133.9867 180.79609,137.92866 182.24328,142.66989 C 194.42866,166.69902 211.09123,189.32903 218.12115,214.96924 L 205.66035,224.04663 z"
           id="path3832"
           sodipodi:nodetypes="cccccccccccccccccccccc" />
        <path
           style="fill:#fcdd09;fill-rule:evenodd;stroke:#000000;stroke-width:0.68587105999999998;stroke-linecap:butt;stroke-linejoin:miter;stroke-miterlimit:4;stroke-dasharray:none;stroke-opacity:1;fill-opacity:1"
           d="M 113.17447,139.07235 C 127.1817,157.04873 150.88335,168.54272 167.3163,175.48586"
           id="path3844"
           sodipodi:nodetypes="cc" />
        <path
           style="fill:#fcdd09;fill-rule:evenodd;stroke:#000000;stroke-width:0.68587105999999998;stroke-linecap:butt;stroke-linejoin:miter;stroke-miterlimit:4;stroke-dasharray:none;stroke-opacity:1;fill-opacity:1"
           d="M 207.84428,35.045273 C 204.57719,36.701049 200.20611,41.372029 201.43251,47.868823 C 208.76343,74.076038 209.41162,94.317234 208.02313,103.37792"
           id="path2428"
           sodipodi:nodetypes="ccc" />
        <path
           style="fill:#fcdd09;fill-rule:evenodd;stroke:#000000;stroke-width:1.37174212999999990;stroke-linecap:butt;stroke-linejoin:miter;stroke-miterlimit:4;stroke-dasharray:none;stroke-opacity:1;fill-opacity:1"
           d="M 301.48891,375.87713 C 299.25421,374.36342 295.43645,372.36952 295.33365,367.6701 L 298.7235,351.25605 C 305.10395,359.00266 300.47325,367.43256 301.48891,375.87713 z"
           id="path2462"
           sodipodi:nodetypes="cccc" />
        <path
           style="fill:#fcdd09;fill-rule:evenodd;stroke:#000000;stroke-width:1.37174212999999990;stroke-linecap:butt;stroke-linejoin:miter;stroke-miterlimit:4;stroke-dasharray:none;stroke-opacity:1;fill-opacity:1"
           d="M 150.83958,378.49019 C 147.34043,378.14819 141.60592,378.38527 141.55714,370.15709 L 144.19419,356.23344 L 151.26151,352.43608 C 154.43609,366.89873 142.69205,368.33408 150.83958,378.49019 z"
           id="path3812"
           sodipodi:nodetypes="ccccc" />
        <path
           style="fill:#fcdd09;fill-rule:evenodd;stroke:#000000;stroke-width:1.37174212999999990;stroke-linecap:butt;stroke-linejoin:miter;stroke-miterlimit:4;stroke-dasharray:none;stroke-opacity:1;fill-opacity:1"
           d="M 121.69891,354.93245 C 120.07767,331.84377 141.84091,319.6176 144.86855,305.12967 L 135.67236,316.47562 C 119.75835,326.12713 116.19374,345.13185 121.69891,354.93245 z"
           id="path2476"
           sodipodi:nodetypes="cccc" />
        <path
           style="fill:#fcdd09;fill-rule:evenodd;stroke:#000000;stroke-width:1.37174212999999990;stroke-linecap:butt;stroke-linejoin:miter;stroke-miterlimit:4;stroke-dasharray:none;stroke-opacity:1;fill-opacity:1"
           d="M 240.91858,202.1815 C 204.63637,215.50775 186.5485,229.20569 175.59489,258.51569 C 163.02508,287.52488 138.9357,312.57501 140.63572,345.61396 C 141.89504,360.17564 141.65632,363.56177 141.63456,370.58479 C 142.62007,358.39236 155.51182,355.32265 163.00959,343.21676 L 240.91858,202.1815 z"
           id="path3810"
           sodipodi:nodetypes="cccccc" />
        <path
           style="fill:#fcdd09;fill-opacity:1;fill-rule:evenodd;stroke:#000000;stroke-width:1.37174212999999990;stroke-linecap:butt;stroke-linejoin:miter;stroke-miterlimit:4;stroke-dasharray:none;stroke-opacity:1"
           d="M 251.1923,191.9822 C 243.88111,186.01627 241.91172,180.05033 238.13175,174.0844 C 234.41463,164.53771 233.57061,154.88011 234.98754,148.44701 C 237.55004,138.8983 229.39761,139.49641 229.18284,134.90273 C 228.63444,129.59139 234.28632,124.78954 223.49909,122.08404 C 219.40813,120.13605 226.44796,114.00576 216.60601,112.89327 C 211.70944,111.65813 221.09787,102.82011 209.10829,100.5583 C 205.18059,99.624524 207.98051,92.499194 200.85476,91.849934 C 194.92888,90.459854 195.0206,87.219324 195.08028,85.079124 C 195.68834,75.656667 188.9197,76.10525 188.55,70.809261 C 188.85677,65.771915 190.39955,59.035056 187.09883,58.958015 C 183.34885,59.277521 181.09622,67.987536 180.56855,72.502296 C 180.1787,75.584591 179.02189,75.096074 176.69875,76.372091 C 171.76626,79.870934 175.11204,82.739174 176.21503,85.562854 C 178.31621,90.293154 176.08986,89.166214 174.52199,91.125684 C 171.59093,93.427274 171.59466,97.189204 173.55455,100.07458 C 177.76871,105.53212 168.46595,106.70963 173.55455,113.13514 C 177.2718,118.21114 168.2405,120.86836 177.6662,124.98638 C 182.37286,127.41934 175.07534,133.66284 183.47089,136.3539 C 189.0385,138.16131 183.1069,141.86707 187.34069,144.57722 C 192.45713,146.82425 188.3622,150.47232 191.45235,153.76798 C 196.62867,158.78231 196.04892,157.69328 200.40125,164.89364 C 209.73988,178.57206 232.32036,191.66139 246.35506,205.52648 L 251.91789,199.47993 L 251.1923,191.9822 z"
           id="path2430"
           sodipodi:nodetypes="ccccccccccccccccccccccccc" />
        <path
           style="fill:#fcdd09;fill-rule:evenodd;stroke:#000000;stroke-width:0.68587105999999998;stroke-linecap:butt;stroke-linejoin:miter;stroke-miterlimit:4;stroke-dasharray:none;stroke-opacity:1;fill-opacity:1"
           d="M 99.991336,154.2943 C 119.45226,166.18979 139.95599,175.44954 162.06787,180.64464"
           id="path3846"
           sodipodi:nodetypes="cc" />
        <path
           style="fill:#fcdd09;fill-opacity:1;fill-rule:evenodd;stroke:#000000;stroke-width:1.37174212999999990;stroke-linecap:butt;stroke-linejoin:miter;stroke-miterlimit:4;stroke-dasharray:none;stroke-opacity:1"
           d="M 249.65126,198.63546 C 248.16323,175.07497 253.40436,137.63854 246.48661,127.954 C 239.50572,107.36957 243.48248,85.247514 240.16248,66.200729 C 238.86695,52.961854 236.04365,37.173584 252.43873,28.627954 C 264.2291,25.477375 265.64902,32.814688 263.59896,34.952084 C 261.63231,36.787329 256.00334,39.79515 258.76287,43.880269 C 266.31531,55.298347 261.88896,68.216065 266.94482,78.571277 C 272.44754,88.671824 270.32264,99.509904 270.51126,108.23759 C 269.22527,127.72994 274.19876,143.0493 266.20302,167.01481 C 261.95975,178.79474 259.71533,190.09166 258.01885,198.63546 L 249.65126,198.63546 z"
           id="path2422"
           sodipodi:nodetypes="ccccccccccc" />
        <path
           style="fill:#fcdd09;fill-rule:evenodd;stroke:#000000;stroke-width:0.68587105999999998;stroke-linecap:butt;stroke-linejoin:miter;stroke-miterlimit:4;stroke-dasharray:none;stroke-opacity:1;fill-opacity:1"
           d="M 255.34261,30.862435 C 247.0614,34.241614 245.4073,46.456478 249.34632,60.371778 C 252.99386,73.77589 250.5229,85.047994 255.07601,94.428334 C 259.91586,108.61531 255.96882,116.54772 257.38735,127.60029 C 260.84005,148.38617 255.41516,171.12927 254.56251,191.91515"
           id="path2424"
           sodipodi:nodetypes="ccccc" />
        <path
           style="fill:#fcdd09;fill-rule:evenodd;stroke:#000000;stroke-width:0.68587105999999998;stroke-linecap:butt;stroke-linejoin:miter;stroke-miterlimit:4;stroke-dasharray:none;stroke-opacity:1;fill-opacity:1"
           d="M 185.64759,81.618014 C 189.73084,118.386 214.99472,159.23024 240.04429,193.20097"
           id="path2432"
           sodipodi:nodetypes="cc" />
        <path
           style="fill:#fcdd09;fill-rule:evenodd;stroke:#000000;stroke-width:0.68587105999999998;stroke-linecap:butt;stroke-linejoin:miter;stroke-miterlimit:4;stroke-dasharray:none;stroke-opacity:1;fill-opacity:1"
           d="M 174.73245,114.13385 C 172.62436,108.38336 179.19901,106.54815 178.23354,102.7553 C 174.04609,94.634554 181.33412,93.124514 179.23385,88.375824 C 177.96749,82.273424 182.78615,79.987948 184.61053,80.248286 C 189.42036,80.437768 189.91155,84.131134 190.86248,88.000704 C 192.14747,91.474274 196.11189,89.866044 198.57225,90.988874"
           id="path2454"
           sodipodi:nodetypes="cccccc" />
        <path
           style="fill:#fcdd09;fill-rule:evenodd;stroke:#000000;stroke-width:0.68587105999999998;stroke-linecap:butt;stroke-linejoin:miter;stroke-miterlimit:4;stroke-dasharray:none;stroke-opacity:1;fill-opacity:1"
           d="M 204.49173,109.88253 C 205.76456,132.63627 218.69781,155.58428 228.24915,170.65149"
           id="path2456"
           sodipodi:nodetypes="cc" />
        <path
           style="fill:#fcdd09;fill-rule:evenodd;stroke:#000000;stroke-width:0.68587105999999998;stroke-linecap:butt;stroke-linejoin:miter;stroke-miterlimit:4;stroke-dasharray:none;stroke-opacity:1;fill-opacity:1"
           d="M 184.98565,114.88409 C 194.20472,135.74647 205.78226,155.03653 220.99688,171.90188"
           id="path2458"
           sodipodi:nodetypes="cc" />
        <path
           style="fill:#fcdd09;fill-opacity:1;fill-rule:evenodd;stroke:#000000;stroke-width:1.37174212999999990;stroke-linecap:butt;stroke-linejoin:miter;stroke-miterlimit:4;stroke-dasharray:none;stroke-opacity:1"
           d="M 261.6774,359.81938 C 254.86321,355.27835 248.05832,352.07055 249.11,342.94807 L 255.47978,308.00037 C 268.12716,331.47275 247.85077,342.3603 261.6774,359.81938 z"
           id="path3808"
           sodipodi:nodetypes="cccc" />
        <path
           style="fill:#fcdd09;fill-rule:evenodd;stroke:#000000;stroke-width:1.37174212999999990;stroke-linecap:butt;stroke-linejoin:miter;stroke-miterlimit:4;stroke-dasharray:none;stroke-opacity:1;fill-opacity:1"
           d="M 253.80223,213.12715 C 269.66744,241.12292 284.10127,275.583 291.41662,309.09193 C 295.12383,324.89386 292.39876,352.94521 295.49945,368.74713 C 297.17765,353.34251 309.62904,353.3963 317.34085,333.99945 C 328.75784,294.01268 297.21695,226.55922 261.49636,198.97988 L 253.80223,213.12715 z"
           id="path2460"
           sodipodi:nodetypes="cccccc" />
        <path
           style="fill:#fcdd09;fill-rule:evenodd;stroke:#000000;stroke-width:1.37174212999999990;stroke-linecap:butt;stroke-linejoin:miter;stroke-miterlimit:4;stroke-dasharray:none;stroke-opacity:1;fill-opacity:1"
           d="M 200.84736,203.34017 C 174.83758,229.5343 162.58392,254.60642 148.25338,296.62904 C 146.0848,303.45253 142.97001,310.87013 135.40237,316.85749 C 136.66479,302.729 133.61626,288.08746 140.64125,270.66931 C 149.98705,245.44348 169.75862,221.12562 192.99396,199.05651 L 200.84736,203.34017 z"
           id="path2474"
           sodipodi:nodetypes="cccccc" />
        <path
           style="fill:#fcdd09;fill-opacity:1;fill-rule:evenodd;stroke:#000000;stroke-width:1.37174212999999990;stroke-linecap:butt;stroke-linejoin:miter;stroke-miterlimit:4;stroke-dasharray:none;stroke-opacity:1"
           d="M 201.1573,203.05079 C 167.60421,208.09303 143.02202,228.90203 121.99439,253.41341 L 98.031203,236.91927 L 95.541522,218.24666 C 124.38869,204.30499 125.06252,181.81536 177.70101,187.12564 C 188.84206,188.35075 200.65263,190.08671 201.1573,203.05079 z"
           id="path3766"
           sodipodi:nodetypes="cccccc" />
        <path
           style="fill:#fcdd09;fill-rule:evenodd;stroke:#000000;stroke-width:0.68587105999999998;stroke-linecap:butt;stroke-linejoin:miter;stroke-miterlimit:4;stroke-dasharray:none;stroke-opacity:1;fill-opacity:1"
           d="M 97.829692,221.66518 C 120.93642,211.09646 133.48909,187.47756 178.5941,187.02773"
           id="path3768"
           sodipodi:nodetypes="cc" />
        <path
           style="fill:#fcdd09;fill-opacity:1;fill-rule:evenodd;stroke:#000000;stroke-width:1.37174212999999990;stroke-linecap:butt;stroke-linejoin:miter;stroke-miterlimit:4;stroke-dasharray:none;stroke-opacity:1"
           d="M 75.450789,293.31489 C 69.944443,293.65631 66.033228,307.79652 78.661462,307.58455 C 80.847651,317.70813 93.837964,313.37285 94.893192,303.6604 L 75.450789,293.31489 z"
           id="path3774"
           sodipodi:nodetypes="cccc" />
        <path
           style="fill:#fcdd09;fill-opacity:1;fill-rule:evenodd;stroke:#000000;stroke-width:1.37174212999999990;stroke-linecap:butt;stroke-linejoin:miter;stroke-miterlimit:4;stroke-dasharray:none;stroke-opacity:1"
           d="M 74.503399,292.09389 C 69.65833,298.79993 79.045864,298.87502 83.117855,298.14729 C 80.475402,303.92767 81.612484,309.91374 95.690303,304.20069 C 99.054103,314.5811 115.38811,311.93003 111.28945,299.77705 C 122.78406,306.05115 125.44044,294.94004 119.20544,289.76566 C 122.776,290.49667 135.62696,285.71013 123.8619,276.72756 C 131.7681,276.43878 138.11391,267.57566 125.49166,262.991 C 132.37218,262.54203 134.40723,252.98932 124.09472,253.67807 C 129.06367,245.05594 122.53271,241.60108 111.98792,240.8728 C 112.62259,236.9697 110.73028,235.1886 102.20935,235.51787 C 106.78696,230.93701 101.27444,226.80959 98.717002,226.43777 C 102.17265,222.0233 101.9292,219.05746 95.45748,217.12484 C 98.608553,205.4807 79.370626,207.85288 87.774317,217.59049 C 84.904507,219.03023 80.453957,224.29644 89.869725,228.53317 C 85.014388,232.73576 89.623633,238.16613 92.663603,241.80409 C 92.17931,246.46055 90.50634,248.55596 95.923127,253.44525 C 95.666516,257.71367 96.208287,261.9821 99.648297,266.25052 C 97.216123,276.48389 83.094137,284.68335 74.503399,292.09389 z"
           id="path3770"
           sodipodi:nodetypes="cccccccccccccccccc" />
        <path
           style="fill:#ffffff;fill-rule:evenodd;stroke:none;stroke-width:1.37174212999999990;stroke-linecap:butt;stroke-linejoin:miter;stroke-miterlimit:4;stroke-dasharray:none;stroke-opacity:1;fill-opacity:1"
           d="M 102.3959,266.98168 C 108.26646,270.75569 110.87146,262.25858 110.95858,260.41085 C 110.45984,254.77008 110.07489,250.93594 106.63299,245.76209 C 104.37436,241.39664 101.72039,239.55801 99.88112,241.33845 C 98.138573,243.57023 98.362512,245.60041 99.18265,247.8575 C 100.64027,251.69238 105.43297,253.78808 103.15423,259.33119 C 100.41455,264.64617 101.36364,266.27153 102.3959,266.98168 z"
           id="path3772"
           sodipodi:nodetypes="ccccccc" />
        <path
           style="fill:#fcdd09;fill-rule:evenodd;stroke:#000000;stroke-width:1.37174212999999990;stroke-linecap:butt;stroke-linejoin:miter;stroke-miterlimit:4;stroke-dasharray:none;stroke-opacity:1;fill-opacity:1"
           d="M 232.41085,260.31311 C 241.27654,288.54672 252.3646,316.78034 248.93784,345.01395 C 256.0759,314.01215 264.02775,309.1504 260.98877,284.75928 C 257.45926,267.88798 250.17989,251.01667 243.08453,234.14537 L 232.41085,260.31311 z"
           id="path3806"
           sodipodi:nodetypes="ccccc" />
        <path
           style="fill:#fcdd09;fill-rule:evenodd;stroke:#000000;stroke-width:0.68587105999999998;stroke-linecap:butt;stroke-linejoin:miter;stroke-miterlimit:4;stroke-dasharray:none;stroke-opacity:1;fill-opacity:1"
           d="M 236.71748,258.74845 C 243.73868,279.7806 251.94323,297.42501 252.38572,318.45715"
           id="path3818"
           sodipodi:nodetypes="cc" />
        <path
           style="fill:#fcdd09;fill-opacity:1;fill-rule:evenodd;stroke:#000000;stroke-width:1.37174212999999990;stroke-linecap:butt;stroke-linejoin:miter;stroke-miterlimit:4;stroke-dasharray:none;stroke-opacity:1"
           d="M 229.81037,293.93836 C 235.50302,264.05668 249.66175,232.06207 262.47763,204.29332 C 264.35356,200.1516 264.80158,197.36404 258.49751,196.18675 C 254.7182,195.59847 250.77125,196.5483 246.90371,198.21569 C 209.46024,215.12036 201.62913,229.64654 182.70874,265.44947 L 229.81037,293.93836 z"
           id="path3776"
           sodipodi:nodetypes="cccccc" />
        <path
           style="fill:#fcdd09;fill-rule:evenodd;stroke:#000000;stroke-width:0.68587105999999998;stroke-linecap:butt;stroke-linejoin:miter;stroke-miterlimit:4;stroke-dasharray:none;stroke-opacity:1;fill-opacity:1"
           d="M 191.60929,267.61081 C 202.58421,245.37897 215.00528,224.08287 234.73113,207.5134"
           id="path3778"
           sodipodi:nodetypes="cc" />
        <path
           style="fill:#fcdd09;fill-opacity:1;fill-rule:evenodd;stroke:#000000;stroke-width:1.37174212999999990;stroke-linecap:butt;stroke-linejoin:miter;stroke-miterlimit:4;stroke-dasharray:none;stroke-opacity:1"
           d="M 170.88957,267.00079 C 160.95706,266.43381 157.1591,274.10023 164.27745,280.32144 C 155.04994,277.96622 151.68633,291.0041 162.893,292.47133 C 151.16262,315.241 169.31052,304.39968 168.52021,306.09511 C 164.97234,309.64914 164.60178,313.20317 164.96618,316.7572 C 156.53441,325.73992 159.73523,328.45894 161.11599,332.15799 C 157.66849,345.60249 159.57336,348.93694 163.18917,349.03963 C 159.45035,360.24536 167.26553,368.31939 173.25892,359.99788 C 178.42108,374.47467 185.70931,368.84404 188.06737,364.14425 C 194.99305,376.75516 202.1461,365.46085 202.28348,362.95957 C 212.06226,376.98404 222.52518,369.43328 224.79234,354.96301 C 236.99735,354.13261 237.40347,340.45955 232.49274,335.71202 C 235.902,332.05927 234.90569,328.40651 230.41955,324.75376 C 243.14328,318.93211 244.15332,312.70654 233.97358,306.09511 C 238.04477,303.2803 247.60702,295.46471 233.08507,288.32496 C 238.33872,280.75219 232.87766,278.74298 228.98609,277.26702 C 232.93635,268.97501 229.30774,263.85771 218.27662,265.81612 C 218.54263,256.39634 217.09532,255.42928 207.0222,257.81955 C 198.53317,247.97116 196.34378,254.40418 191.6214,258.11572 C 188.11242,253.47795 184.15083,250.80154 178.29379,256.3387 C 165.69817,248.56826 162.94709,264.66888 170.88957,267.00079 z"
           id="path3780"
           sodipodi:nodetypes="ccccccccccccccccccccc" />
        <path
           style="fill:#fcdd09;fill-rule:evenodd;stroke:#000000;stroke-width:0.68587105999999998;stroke-linecap:butt;stroke-linejoin:miter;stroke-miterlimit:4;stroke-dasharray:none;stroke-opacity:1;fill-opacity:1"
           d="M 102.17834,269.66631 C 102.1053,280.51367 96.008672,290.3571 91.516249,300.4679"
           id="path3782"
           sodipodi:nodetypes="cc" />
        <path
           style="fill:#fcdd09;fill-rule:evenodd;stroke:#000000;stroke-width:0.68587105999999998;stroke-linecap:butt;stroke-linejoin:miter;stroke-miterlimit:4;stroke-dasharray:none;stroke-opacity:1;fill-opacity:1"
           d="M 81.742669,294.54452 C 89.607199,286.44923 96.178644,278.35394 100.10515,270.25865"
           id="path3784"
           sodipodi:nodetypes="cc" />
        <path
           style="fill:#fcdd09;fill-rule:evenodd;stroke:#000000;stroke-width:0.68587105999999998;stroke-linecap:butt;stroke-linejoin:miter;stroke-miterlimit:4;stroke-dasharray:none;stroke-opacity:1;fill-opacity:1"
           d="M 105.73236,269.66631 C 108.05286,280.03223 106.8424,291.87899 104.54769,302.24491"
           id="path3786"
           sodipodi:nodetypes="cc" />
        <path
           style="fill:#ffffff;fill-rule:evenodd;stroke:none;stroke-width:1.37174212999999990;stroke-linecap:butt;stroke-linejoin:miter;stroke-miterlimit:4;stroke-dasharray:none;stroke-opacity:1;fill-opacity:1"
           d="M 182.14399,295.13685 C 190.3316,284.71221 181.96616,280.01627 191.32523,268.7778 C 179.25413,268.65722 173.27749,273.32512 170.13775,287.14029 C 168.43634,297.3431 175.64272,300.56324 182.14399,295.13685 z"
           id="path3788"
           sodipodi:nodetypes="cccc" />
        <path
           style="fill:#ffffff;fill-rule:evenodd;stroke:none;stroke-width:1.37174212999999990;stroke-linecap:butt;stroke-linejoin:miter;stroke-miterlimit:4;stroke-dasharray:none;stroke-opacity:1;fill-opacity:1"
           d="M 202.18477,298.91111 C 205.57617,307.67068 215.08632,307.70268 217.49443,304.86487 C 219.63071,301.82366 220.1343,293.78623 216.15787,286.63908 C 212.70796,280.79986 207.40854,272.50587 200.11918,270.47888 C 203.38105,280.39829 199.3247,287.41219 202.18477,298.91111 z"
           id="path3790"
           sodipodi:nodetypes="ccccc" />
        <path
           style="fill:#fcdd09;fill-rule:evenodd;stroke:#000000;stroke-width:0.68587105999999998;stroke-linecap:butt;stroke-linejoin:miter;stroke-miterlimit:4;stroke-dasharray:none;stroke-opacity:1;fill-opacity:1"
           d="M 163.72888,332.02347 L 185.22864,303.90841"
           id="path3792"
           sodipodi:nodetypes="cc" />
        <path
           style="fill:#fcdd09;fill-rule:evenodd;stroke:#000000;stroke-width:0.68587105999999998;stroke-linecap:butt;stroke-linejoin:miter;stroke-miterlimit:4;stroke-dasharray:none;stroke-opacity:1;fill-opacity:1"
           d="M 165.38271,346.90791 L 187.70938,306.66479"
           id="path3794"
           sodipodi:nodetypes="cc" />
        <path
           style="fill:#fcdd09;fill-rule:evenodd;stroke:#000000;stroke-width:0.68587105999999998;stroke-linecap:butt;stroke-linejoin:miter;stroke-miterlimit:4;stroke-dasharray:none;stroke-opacity:1;fill-opacity:1"
           d="M 174.47876,356.83087 L 191.01703,307.76734"
           id="path3796"
           sodipodi:nodetypes="cc" />
        <path
           style="fill:#fcdd09;fill-rule:evenodd;stroke:#000000;stroke-width:0.68587105999999998;stroke-linecap:butt;stroke-linejoin:miter;stroke-miterlimit:4;stroke-dasharray:none;stroke-opacity:1;fill-opacity:1"
           d="M 188.26065,360.13853 L 195.42724,307.4917"
           id="path3798"
           sodipodi:nodetypes="cc" />
        <path
           style="fill:#fcdd09;fill-rule:evenodd;stroke:#000000;stroke-width:0.68587105999999998;stroke-linecap:butt;stroke-linejoin:miter;stroke-miterlimit:4;stroke-dasharray:none;stroke-opacity:1;fill-opacity:1"
           d="M 202.04254,360.13853 L 199.83744,311.07499"
           id="path3800"
           sodipodi:nodetypes="cc" />
        <path
           style="fill:#fcdd09;fill-rule:evenodd;stroke:#000000;stroke-width:0.68587105999999998;stroke-linecap:butt;stroke-linejoin:miter;stroke-miterlimit:4;stroke-dasharray:none;stroke-opacity:1;fill-opacity:1"
           d="M 221.06156,354.35014 L 205.3502,313.28009"
           id="path3802"
           sodipodi:nodetypes="cc" />
        <path
           style="fill:#fcdd09;fill-rule:evenodd;stroke:#000000;stroke-width:0.68587105999999998;stroke-linecap:butt;stroke-linejoin:miter;stroke-miterlimit:4;stroke-dasharray:none;stroke-opacity:1;fill-opacity:1"
           d="M 229.60633,336.98495 L 210.03604,312.45318"
           id="path3804"
           sodipodi:nodetypes="cc" />
        <path
           style="fill:#fcdd09;fill-rule:evenodd;stroke:#000000;stroke-width:0.68587105999999998;stroke-linecap:butt;stroke-linejoin:miter;stroke-miterlimit:4;stroke-dasharray:none;stroke-opacity:1;fill-opacity:1"
           d="M 138.89684,296.86039 C 143.5764,259.88074 166.2161,232.4094 189.71276,205.39174"
           id="path3814"
           sodipodi:nodetypes="cc" />
        <path
           style="fill:#fcdd09;fill-rule:evenodd;stroke:#000000;stroke-width:0.68587105999999998;stroke-linecap:butt;stroke-linejoin:miter;stroke-miterlimit:4;stroke-dasharray:none;stroke-opacity:1;fill-opacity:1"
           d="M 257.89078,212.59067 C 291.03787,264.4216 302.97604,315.38001 298.12004,351.06404"
           id="path3816"
           sodipodi:nodetypes="cc" />
        <path
           style="fill:#fcdd09;fill-opacity:1;fill-rule:evenodd;stroke:#000000;stroke-width:1.37174212999999990;stroke-linecap:butt;stroke-linejoin:miter;stroke-miterlimit:4;stroke-dasharray:none;stroke-opacity:1"
           d="M 344.93783,99.619351 C 345.99212,92.356717 338.6259,93.778193 339.02307,84.873284 C 338.87359,74.78371 331.06589,80.981552 334.64769,75.796973 C 337.33265,70.525146 331.39678,67.899663 331.83029,64.900736 C 332.17031,62.286549 338.53124,61.882301 333.79689,59.064588 C 330.93381,57.214836 326.69584,59.495308 325.2889,57.64659 C 323.28912,53.698686 322.18199,54.514559 320.46771,53.392594 C 317.69753,51.508731 324.14549,52.075969 327.5577,51.407395 C 329.22033,49.585892 312.91933,49.798885 314.79571,47.436999 C 321.75452,47.459501 329.32581,46.052872 333.51329,52.541794 C 336.08214,55.897812 339.33145,54.689632 342.18351,61.214241 C 343.13981,67.329687 340.88858,68.682848 342.30489,76.931372 C 345.21883,84.153799 347.3508,92.669126 344.93783,99.619351 z"
           id="path3822"
           sodipodi:nodetypes="ccccccccccccc" />
        <path
           style="fill:#fcdd09;fill-rule:evenodd;stroke:#000000;stroke-width:0.68587105999999998;stroke-linecap:butt;stroke-linejoin:miter;stroke-miterlimit:4;stroke-dasharray:none;stroke-opacity:1;fill-opacity:1"
           d="M 328.9032,92.318714 C 318.25159,132.22458 297.40491,163.73451 271.22498,190.85235"
           id="path3824"
           sodipodi:nodetypes="cc" />
        <path
           style="fill:#fcdd09;fill-rule:evenodd;stroke:#000000;stroke-width:0.68587105999999998;stroke-linecap:butt;stroke-linejoin:miter;stroke-miterlimit:4;stroke-dasharray:none;stroke-opacity:1;fill-opacity:1"
           d="M 317.23023,97.811879 C 310.26552,125.43133 294.71481,150.47498 278.77808,175.40282"
           id="path3826"
           sodipodi:nodetypes="cc" />
        <path
           style="fill:#fcdd09;fill-rule:evenodd;stroke:#000000;stroke-width:0.68587105999999998;stroke-linecap:butt;stroke-linejoin:miter;stroke-miterlimit:4;stroke-dasharray:none;stroke-opacity:1;fill-opacity:1"
           d="M 335.42634,109.14153 C 323.61641,136.41182 307.4046,160.02954 287.36115,180.89598"
           id="path3828"
           sodipodi:nodetypes="cc" />
        <path
           style="fill:#fcdd09;fill-rule:evenodd;stroke:#000000;stroke-width:0.68587105999999998;stroke-linecap:butt;stroke-linejoin:miter;stroke-miterlimit:4;stroke-dasharray:none;stroke-opacity:1;fill-opacity:1"
           d="M 283.5846,146.04873 C 283.05374,144.46435 283.43919,137.5892 292.511,136.77901 C 298.65778,136.61386 297.36406,127.86811 296.63086,124.76271 C 296.17511,117.5302 305.64629,114.95007 305.90058,105.36498 C 307.46804,92.715639 315.53856,95.592018 316.0286,90.087116 C 316.67426,83.50496 321.94295,86.038148 327.35826,81.160725 C 331.51723,76.748433 329.42655,74.385721 330.2765,71.032703"
           id="path3830"
           sodipodi:nodetypes="ccccccc" />
        <path
           style="fill:#fcdd09;fill-rule:evenodd;stroke:#000000;stroke-width:0.68587105999999998;stroke-linecap:butt;stroke-linejoin:miter;stroke-miterlimit:4;stroke-dasharray:none;stroke-opacity:1;fill-opacity:1"
           d="M 125.56784,112.15647 C 156.52148,115.24798 171.8258,144.84898 188.5843,169.82466"
           id="path3834"
           sodipodi:nodetypes="cc" />
        <path
           style="fill:#fcdd09;fill-rule:evenodd;stroke:#000000;stroke-width:0.68587105999999998;stroke-linecap:butt;stroke-linejoin:miter;stroke-miterlimit:4;stroke-dasharray:none;stroke-opacity:1;fill-opacity:1"
           d="M 136.03184,121.45779 C 158.10633,131.28813 166.74375,148.87418 175.56245,162.3836"
           id="path3836"
           sodipodi:nodetypes="cc" />
        <path
           style="fill:#fcdd09;fill-rule:evenodd;stroke:#000000;stroke-width:0.68587105999999998;stroke-linecap:butt;stroke-linejoin:miter;stroke-miterlimit:4;stroke-dasharray:none;stroke-opacity:1;fill-opacity:1"
           d="M 155.79714,118.20232 C 170.40001,129.94111 177.20651,143.47907 183.93364,157.03534"
           id="path3838"
           sodipodi:nodetypes="cc" />
      </g>
    </g>
  </g>
</svg>
