<?xml version="1.0" encoding="UTF-8" standalone="no"?>
<!-- Created with Inkscape (http://www.inkscape.org/) -->
<svg
   xmlns:dc="http://purl.org/dc/elements/1.1/"
   xmlns:cc="http://creativecommons.org/ns#"
   xmlns:rdf="http://www.w3.org/1999/02/22-rdf-syntax-ns#"
   xmlns:svg="http://www.w3.org/2000/svg"
   xmlns="http://www.w3.org/2000/svg"
   xmlns:sodipodi="http://sodipodi.sourceforge.net/DTD/sodipodi-0.dtd"
   xmlns:inkscape="http://www.inkscape.org/namespaces/inkscape"
   id="svg2"
   sodipodi:version="0.32"
   inkscape:version="0.46"
   width="750"
   height="500"
   version="1.0"
   sodipodi:docbase="D:\MIS DOCUMENTOS\Mis imágenes\Encyclopédie\Banderas antioqueñas"
   sodipodi:docname="Bandera_de_Suesca.svg"
   inkscape:output_extension="org.inkscape.output.svg.inkscape">
  <metadata
     id="metadata7">
    <rdf:RDF>
      <cc:Work
         rdf:about="">
        <dc:format>image/svg+xml</dc:format>
        <dc:type
           rdf:resource="http://purl.org/dc/dcmitype/StillImage" />
      </cc:Work>
    </rdf:RDF>
  </metadata>
  <defs
     id="defs5">
    <inkscape:perspective
       sodipodi:type="inkscape:persp3d"
       inkscape:vp_x="0 : 354.33072 : 1"
       inkscape:vp_y="0 : 1000 : 0"
       inkscape:vp_z="1062.9921 : 354.33072 : 1"
       inkscape:persp3d-origin="531.49603 : 236.22048 : 1"
       id="perspective2458" />
  </defs>
  <sodipodi:namedview
     inkscape:window-height="771"
     inkscape:window-width="1014"
     inkscape:pageshadow="2"
     inkscape:pageopacity="0.0"
     borderopacity="1.0"
     bordercolor="#666666"
     pagecolor="#ffffff"
     id="base"
     showguides="true"
     inkscape:guide-bbox="true"
     inkscape:zoom="0.35444071"
     inkscape:cx="-50.384092"
     inkscape:cy="12.69124"
     inkscape:window-x="0"
     inkscape:window-y="0"
     inkscape:current-layer="svg2"
     showgrid="true" />
  <g
     inkscape:groupmode="layer"
     id="layer1" />
  <path
     style="opacity:1;fill:#078930;fill-opacity:1;fill-rule:nonzero;stroke:none;stroke-width:60;stroke-linejoin:miter;stroke-miterlimit:4;stroke-dasharray:none;stroke-opacity:1"
     d="M -0.74350779,0.38555359 L -0.74350779,170.29489 L -1.1184961,170.29489 L -1.1184961,338.16779 L -1.1184961,338.45555 L -1.1184961,500.28557 L 749.91695,500.28557 L 749.91695,338.45555 L 749.91695,338.16779 L 749.91695,170.29489 L 749.58604,170.29489 L 749.58604,0.38555359 L -0.74350779,0.38555359 z"
     id="rect11184" />
  <path
     style="fill:#ffffff;fill-opacity:1;stroke:none;stroke-width:0.97010589;stroke-miterlimit:4;stroke-dashoffset:0;stroke-opacity:1"
     d="M -0.91958617,252.22042 L 377.22887,0.32991322 L 749.71804,248.4507 L 371.56963,500.34121 L -0.91958617,252.22042 z"
     id="rect3252" />
  <path
     style="font-size:40px;font-style:normal;font-variant:normal;font-weight:normal;font-stretch:normal;text-align:start;line-height:125%;writing-mode:lr-tb;text-anchor:start;fill:#cab313;fill-opacity:1;stroke:none;stroke-width:1px;stroke-linecap:butt;stroke-linejoin:miter;stroke-opacity:1;font-family:Times New Roman;-inkscape-font-specification:'Times New Roman,'"
     d="M 220.14945,214.24542 L 220.14945,238.10204 L 218.27393,238.10204 C 217.6656,233.52407 216.56731,229.87861 214.97906,227.16563 C 213.42453,224.45281 211.19418,222.29943 208.28799,220.70553 C 205.38173,219.11178 202.37412,218.31485 199.26516,218.31477 C 195.75062,218.31485 192.84439,219.4 190.54647,221.57027 C 188.24851,223.70675 187.09953,226.14838 187.09955,228.89512 C 187.09953,230.99767 187.82609,232.91367 189.27922,234.64309 C 191.37439,237.18648 196.3589,240.57763 204.23277,244.81648 C 210.65348,248.27547 215.02971,250.93752 217.36149,252.80262 C 219.72699,254.63385 221.53493,256.80417 222.78534,259.31359 C 224.06943,261.82304 224.71149,264.45115 224.71155,267.19795 C 224.71149,272.42034 222.6839,276.93054 218.62874,280.72859 C 214.60729,284.49273 209.42002,286.3748 203.0669,286.3748 C 201.07308,286.3748 199.19754,286.22221 197.44032,285.917 C 196.39269,285.74746 194.21303,285.13705 190.90131,284.08582 C 187.62333,283.00063 185.54504,282.45808 184.66643,282.45808 C 183.82159,282.45808 183.14571,282.71241 182.63882,283.22108 C 182.16571,283.72973 181.81088,284.781 181.57433,286.3748 L 179.6988,286.3748 L 179.6988,262.72166 L 181.57433,262.72166 C 182.45295,267.67274 183.63573,271.38602 185.12264,273.86155 C 186.60953,276.30316 188.87369,278.33784 191.9151,279.96558 C 194.99027,281.59333 198.35271,282.4072 202.00241,282.4072 C 206.22656,282.4072 209.55519,281.28812 211.98835,279.04996 C 214.45523,276.81183 215.68868,274.16675 215.68873,271.11472 C 215.68868,269.41916 215.21558,267.70664 214.26941,265.97715 C 213.35694,264.2477 211.92073,262.63691 209.96076,261.14478 C 208.64278,260.12748 205.04378,257.97412 199.16378,254.6847 C 193.28371,251.36142 189.09334,248.71632 186.59265,246.74942 C 184.12572,244.78263 182.2502,242.6123 180.96606,240.23845 C 179.68189,237.8647 179.03982,235.25355 179.03983,232.40494 C 179.03982,227.45396 180.93226,223.19809 184.71711,219.63731 C 188.50195,216.04279 193.3175,214.2455 199.16378,214.24542 C 202.81342,214.2455 206.68277,215.14415 210.7718,216.94139 C 212.66418,217.78924 213.99902,218.21313 214.77631,218.21305 C 215.65489,218.21313 216.36455,217.9588 216.90529,217.45005 C 217.47973,216.90753 217.93593,215.83934 218.27393,214.24542 L 220.14945,214.24542 M 279.86231,217.70439 L 279.86231,215.8223 L 304.19352,215.8223 L 304.19352,217.70439 L 301.60834,217.70439 C 298.90479,217.70444 296.82651,218.84047 295.37346,221.11247 C 294.66373,222.16378 294.3089,224.60541 294.30896,228.43731 L 294.30896,256.41416 C 294.3089,263.3321 293.61614,268.70705 292.23068,272.53899 C 290.87888,276.33707 288.19231,279.60952 284.17097,282.35634 C 280.18329,285.06922 274.74258,286.4257 267.84877,286.4257 C 260.34662,286.4257 254.65244,285.12009 250.76624,282.50894 C 246.87998,279.89777 244.12582,276.38794 242.50375,271.97945 C 241.42236,268.96135 240.88166,263.29819 240.88167,254.98988 L 240.88167,228.03038 C 240.88166,223.79154 240.29028,221.0108 239.10751,219.6882 C 237.95854,218.36572 236.08301,217.70444 233.48093,217.70439 L 230.89574,217.70439 L 230.89574,215.8223 L 260.60009,215.8223 L 260.60009,217.70439 L 257.96421,217.70439 C 255.12555,217.70444 253.09795,218.60308 251.88142,220.40032 C 251.03656,221.62122 250.61414,224.16455 250.61416,228.03038 L 250.61416,258.09277 C 250.61414,260.77177 250.85069,263.84077 251.32381,267.29971 C 251.8307,270.75868 252.72622,273.4546 254.01039,275.38754 C 255.29452,277.32051 257.13625,278.91433 259.53561,280.16903 C 261.9687,281.42376 264.9425,282.05112 268.45705,282.05112 C 272.95152,282.05112 276.97293,281.06772 280.52128,279.10085 C 284.06953,277.13398 286.48576,274.62456 287.76995,271.57253 C 289.08784,268.48661 289.74681,263.28123 289.74686,255.95637 L 289.74686,228.03038 C 289.74681,223.7237 289.2737,221.02774 288.32755,219.94252 C 287.00955,218.4505 285.04953,217.70444 282.4475,217.70439 L 279.86231,217.70439 M 327.05473,219.58646 L 327.05473,246.85116 L 342.16035,246.85116 C 346.08035,246.85121 348.69932,246.25775 350.01732,245.07082 C 351.77451,243.51095 352.75453,240.76412 352.95734,236.83039 L 354.83287,236.83039 L 354.83287,260.83961 L 352.95734,260.83961 C 352.48418,257.4824 352.01108,255.32901 351.53802,254.3795 C 350.92968,253.19262 349.93279,252.26006 348.5473,251.58179 C 347.16173,250.90362 345.03276,250.56451 342.16035,250.56445 L 327.05473,250.56445 L 327.05473,273.30199 C 327.05471,276.35402 327.18988,278.21917 327.46025,278.89737 C 327.73057,279.54169 328.20369,280.06732 328.87957,280.47424 C 329.55542,280.84727 330.83956,281.03381 332.73202,281.03378 L 344.39072,281.03378 C 348.27691,281.03381 351.09865,280.7625 352.85595,280.2199 C 354.61316,279.67733 356.30283,278.60915 357.92496,277.01528 C 360.02009,274.91281 362.16598,271.7421 364.36259,267.50316 L 366.3902,267.50316 L 360.45946,284.79796 L 307.48838,284.79796 L 307.48838,282.91586 L 309.9215,282.91586 C 311.54358,282.91586 313.08117,282.52588 314.5343,281.74593 C 315.61567,281.20334 316.34223,280.38947 316.71396,279.30431 C 317.11947,278.21917 317.32224,275.99795 317.32225,272.64073 L 317.32225,227.82692 C 317.32224,223.45241 316.88292,220.75647 316.00431,219.73907 C 314.78773,218.38268 312.76013,217.70444 309.9215,217.70439 L 307.48838,217.70439 L 307.48838,215.8223 L 360.45946,215.8223 L 361.2198,230.92979 L 359.2429,230.92979 C 358.53319,227.30136 357.73905,224.80885 356.86046,223.45235 C 356.01558,222.09597 354.74834,221.06166 353.05871,220.34946 C 351.70693,219.84084 349.32451,219.58654 345.91143,219.58646 L 327.05473,219.58646 M 416.42125,214.24542 L 416.42125,238.10204 L 414.54573,238.10204 C 413.93742,233.52407 412.83912,229.87861 411.25088,227.16563 C 409.69634,224.45281 407.46599,222.29943 404.55978,220.70553 C 401.65354,219.11178 398.64592,218.31485 395.53697,218.31477 C 392.02243,218.31485 389.1162,219.4 386.81827,221.57027 C 384.52032,223.70675 383.37133,226.14838 383.37136,228.89512 C 383.37133,230.99767 384.0979,232.91367 385.55102,234.64309 C 387.64621,237.18648 392.63072,240.57763 400.5046,244.81648 C 406.92528,248.27547 411.30152,250.93752 413.63329,252.80262 C 415.99881,254.63385 417.80674,256.80417 419.05715,259.31359 C 420.34123,261.82304 420.98331,264.45115 420.98336,267.19795 C 420.98331,272.42034 418.95571,276.93054 414.90058,280.72859 C 410.8791,284.49273 405.69182,286.3748 399.33871,286.3748 C 397.34487,286.3748 395.46936,286.22221 393.71211,285.917 C 392.66451,285.74746 390.48485,285.13705 387.1731,284.08582 C 383.89515,283.00063 381.81686,282.45808 380.93824,282.45808 C 380.09339,282.45808 379.41753,282.71241 378.91064,283.22108 C 378.43751,283.72973 378.08267,284.781 377.84613,286.3748 L 375.97063,286.3748 L 375.97063,262.72166 L 377.84613,262.72166 C 378.72476,267.67274 379.90753,271.38602 381.39445,273.86155 C 382.88133,276.30316 385.14551,278.33784 388.18692,279.96558 C 391.26208,281.59333 394.62453,282.4072 398.27424,282.4072 C 402.49838,282.4072 405.827,281.28812 408.26016,279.04996 C 410.72704,276.81183 411.9605,274.16675 411.96053,271.11472 C 411.9605,269.41916 411.48739,267.70664 410.54122,265.97715 C 409.62874,264.2477 408.19255,262.63691 406.23256,261.14478 C 404.91459,260.12748 401.3156,257.97412 395.43559,254.6847 C 389.55552,251.36142 385.36515,248.71632 382.86446,246.74942 C 380.39753,244.78263 378.52201,242.6123 377.23787,240.23845 C 375.9537,237.8647 375.31164,235.25355 375.31164,232.40494 C 375.31164,227.45396 377.20406,223.19809 380.98893,219.63731 C 384.77377,216.04279 389.58931,214.2455 395.43559,214.24542 C 399.08522,214.2455 402.95457,215.14415 407.0436,216.94139 C 408.93598,217.78924 410.27084,218.21313 411.04811,218.21305 C 411.92671,218.21313 412.63635,217.9588 413.17708,217.45005 C 413.75154,216.90753 414.20775,215.83934 414.54573,214.24542 L 416.42125,214.24542 M 489.11078,214.24542 L 490.68215,237.69512 L 489.11078,237.69512 C 487.01552,230.67552 484.02481,225.62272 480.13862,222.53676 C 476.25235,219.4509 471.58887,217.90792 466.14818,217.90784 C 461.58603,217.90792 457.46326,219.07787 453.77982,221.41767 C 450.09632,223.7237 447.19007,227.42005 445.06113,232.50667 C 442.96592,237.59341 441.91834,243.91789 441.91834,251.48008 C 441.91834,257.71977 442.91524,263.12862 444.90906,267.70664 C 446.90285,272.28466 449.89355,275.79448 453.8812,278.23609 C 457.90255,280.67772 462.48158,281.89854 467.61821,281.89851 C 472.07887,281.89854 476.01578,280.949 479.42898,279.04996 C 482.84204,277.11704 486.5931,273.30202 490.68215,267.60488 L 492.25354,268.62223 C 488.80655,274.7602 484.78517,279.25345 480.18932,282.10199 C 475.59337,284.95055 470.13576,286.3748 463.81643,286.3748 C 452.42805,286.3748 443.60801,282.1359 437.35624,273.65807 C 432.69274,267.35058 430.36102,259.92399 430.36102,251.37833 C 430.36102,244.49437 431.8986,238.16992 434.97381,232.40494 C 438.04899,226.64008 442.27317,222.18072 447.64631,219.02692 C 453.05324,215.83934 458.95017,214.2455 465.33714,214.24542 C 470.30472,214.2455 475.20474,215.4663 480.03724,217.90784 C 481.45652,218.65397 482.47031,219.027 483.07865,219.02692 C 483.99102,219.027 484.78517,218.70484 485.46109,218.06046 C 486.33965,217.14491 486.96483,215.87325 487.33661,214.24542 L 489.11078,214.24542 M 543.4505,261.70434 L 516.83821,261.70434 L 512.17474,272.58987 C 511.02574,275.26889 510.45126,277.26962 510.45126,278.59216 C 510.45126,279.64343 510.94126,280.57598 511.92128,281.38985 C 512.93507,282.16981 515.09783,282.67847 518.4096,282.91586 L 518.4096,284.79796 L 496.76497,284.79796 L 496.76497,282.91586 C 499.63738,282.4072 501.49603,281.74593 502.34086,280.93205 C 504.06431,279.30431 505.97365,275.99795 508.06883,271.01299 L 532.24799,214.24542 L 534.02213,214.24542 L 557.94782,271.62338 C 559.87399,276.23535 561.61435,279.23648 563.1689,280.62684 C 564.75713,281.98331 566.95369,282.74632 569.75862,282.91586 L 569.75862,284.79796 L 542.63946,284.79796 L 542.63946,282.91586 C 545.37664,282.78023 547.21839,282.32242 548.16465,281.54246 C 549.14462,280.7625 549.63462,279.81298 549.63466,278.69391 C 549.63462,277.20181 548.95874,274.84499 547.60707,271.62338 L 543.4505,261.70434 M 542.03116,257.94019 L 530.37245,230.06505 L 518.4096,257.94019 L 542.03116,257.94019"
     id="flowRoot3275" />
</svg>
