<?xml version="1.0" encoding="UTF-8" standalone="no"?>
<!-- Created with Inkscape (http://www.inkscape.org/) -->
<svg
   xmlns:dc="http://purl.org/dc/elements/1.1/"
   xmlns:cc="http://creativecommons.org/ns#"
   xmlns:rdf="http://www.w3.org/1999/02/22-rdf-syntax-ns#"
   xmlns:svg="http://www.w3.org/2000/svg"
   xmlns="http://www.w3.org/2000/svg"
   xmlns:sodipodi="http://sodipodi.sourceforge.net/DTD/sodipodi-0.dtd"
   xmlns:inkscape="http://www.inkscape.org/namespaces/inkscape"
   width="750"
   height="500"
   id="svg2"
   version="1.1"
   inkscape:version="0.46"
   sodipodi:docname="Flag_of_Sácama_(Casanare).svg"
   sodipodi:version="0.32"
   inkscape:output_extension="org.inkscape.output.svg.inkscape">
  <defs
     id="defs4" />
  <sodipodi:namedview
     id="base"
     pagecolor="#ffffff"
     bordercolor="#666666"
     borderopacity="1.0"
     inkscape:pageopacity="0.0"
     inkscape:pageshadow="2"
     inkscape:zoom="1.014"
     inkscape:cx="375"
     inkscape:cy="250"
     inkscape:document-units="px"
     inkscape:current-layer="layer1"
     showgrid="false"
     inkscape:window-width="1024"
     inkscape:window-height="712"
     inkscape:window-x="-4"
     inkscape:window-y="-4"
     inkscape:window-maximized="1" />
  <metadata
     id="metadata7">
    <rdf:RDF>
      <cc:Work
         rdf:about="">
        <dc:format>image/svg+xml</dc:format>
        <dc:type
           rdf:resource="http://purl.org/dc/dcmitype/StillImage" />
        <dc:title />
      </cc:Work>
    </rdf:RDF>
  </metadata>
  <g
     inkscape:label="Capa 1"
     inkscape:groupmode="layer"
     id="layer1"
     transform="translate(0,-552.36218)">
    <rect
       style="fill:#ffffff;fill-opacity:1;stroke:none"
       id="rect2816"
       width="750"
       height="250"
       x="0"
       y="5.6843419e-14"
       transform="translate(0,552.36218)" />
    <rect
       style="fill:#078930;fill-opacity:1;stroke:none"
       id="rect2818"
       width="750"
       height="125"
       x="0"
       y="-1052.3622"
       transform="scale(1,-1)" />
    <rect
       style="fill:#da121a;fill-opacity:1;stroke:none"
       id="rect2820"
       width="750"
       height="125"
       x="0"
       y="-927.36218"
       transform="scale(1,-1)" />
    <path
       style="fill:#fcdd09;fill-opacity:1;stroke:none;stroke-width:3"
       id="path816"
       d="M 490.63235,852.604 L 458.56996,844.90077 L 439.89744,873.61909 L 422.67291,845.50055 L 389.16252,852.604 L 396.86575,820.54161 L 368.14744,801.86909 L 396.26597,784.64456 L 389.16252,751.13417 L 421.22491,758.8374 L 439.89744,730.11909 L 457.12197,758.23762 L 490.63235,751.13417 L 482.92912,783.19656 L 511.64744,801.86909 L 483.5289,819.09362 L 490.63235,852.604 z" />
    <g
       id="g3173"
       transform="matrix(1.2433742,0,0,1.2433742,151.62163,602.76067)"
       style="fill:#fcdd09;fill-opacity:1;stroke:none">
      <g
         style="fill:#fcdd09;fill-opacity:1;stroke:none;stroke-width:27.38951683;stroke-miterlimit:4;stroke-dasharray:none;stroke-opacity:1;display:inline"
         id="g2188"
         transform="matrix(2.968239e-2,2.1382292e-2,2.1681172e-2,-2.929044e-2,-691.16009,461.96181)" />
      <path
         d="M 132.18276,104.50218 C 128.38566,104.53719 126.20105,104.57666 124.44683,104.72148 C 122.69259,104.86625 121.35701,105.13266 119.32823,105.57128 C 116.30362,106.2292 113.44661,107.03575 110.7198,108.03851 C 107.99301,109.04137 105.41045,110.22292 102.9256,111.60231 C 100.44079,112.98177 98.070007,114.55703 95.771337,116.34496 C 93.472571,118.13284 91.25073,120.14778 89.082333,122.37598 C 86.634728,124.88489 84.497103,127.41353 82.655076,129.997 C 80.812972,132.58049 79.254778,135.20124 77.972742,137.947 C 76.690803,140.69276 75.686268,143.55914 74.919108,146.55491 C 74.151909,149.5507 73.617402,152.67921 73.319559,156.01264 C 73.114818,158.31979 73.058936,160.57876 73.116018,162.78389 C 73.172917,164.98902 73.347443,167.15361 73.668573,169.28092 C 73.989617,171.40831 74.447977,173.48508 75.035459,175.5587 C 75.622806,177.63231 76.331378,179.71026 77.18761,181.75422 C 78.029805,183.77188 79.037573,185.73856 80.183031,187.67561 C 81.32848,189.61265 82.611466,191.49819 84.021923,193.32284 C 85.432418,195.14753 86.979587,196.90586 88.616979,198.58627 C 90.254428,200.26675 91.996435,201.87928 93.82288,203.38364 C 95.649248,204.88813 97.545738,206.30874 99.523028,207.60539 C 101.50023,208.90212 103.54046,210.08473 105.6304,211.1418 C 107.7203,212.19889 109.86408,213.1249 112.02863,213.91055 C 114.19299,214.69629 116.40025,215.31965 118.60124,215.80216 C 121.43042,216.41621 124.33225,216.86749 127.2679,217.11801 C 130.20335,217.36856 133.15062,217.42181 136.07984,217.30987 C 139.00901,217.19801 141.90738,216.90581 144.71742,216.43261 C 147.52726,215.95953 150.25349,215.31965 152.83144,214.48629 C 154.19947,214.05643 155.77637,213.44017 157.39742,212.73178 C 159.01848,212.02344 160.70585,211.20654 162.34143,210.34675 C 163.97709,209.48708 165.55389,208.59895 166.96561,207.71504 C 168.37735,206.83123 169.6226,205.97381 170.57182,205.19298 C 172.17247,203.8772 173.04624,203.14796 173.4511,202.75319 C 173.6535,202.55579 173.74241,202.43852 173.74189,202.3694 C 173.74116,202.30026 173.64882,202.2685 173.50923,202.25973 C 173.17416,202.25973 172.60991,202.47248 172.20046,202.75319 C 171.64209,203.10409 170.14724,203.68201 168.3325,204.2609 C 166.51771,204.83989 164.37725,205.42981 162.51593,205.85092 C 161.4271,206.09661 159.91654,206.30487 158.18262,206.45401 C 156.44877,206.60323 154.48797,206.68437 152.54061,206.72814 C 148.64582,206.8159 144.75341,206.70293 142.59429,206.317 C 139.65348,205.7731 136.57542,204.92217 133.69506,203.90457 C 130.81468,202.88698 128.14961,201.69612 126.04642,200.45043 C 123.99903,199.22229 121.99512,197.84502 120.11349,196.36572 C 118.2319,194.88652 116.46545,193.28557 114.82048,191.62318 C 113.17561,189.96082 111.6789,188.24696 110.3418,186.46939 C 109.00453,184.69186 107.83942,182.86612 106.8808,181.04147 C 106.06193,179.47122 105.35052,177.99253 104.75789,176.54561 C 104.16513,175.09869 103.67246,173.68695 103.27465,172.2416 C 102.87682,170.79635 102.57846,169.31108 102.34398,167.74574 C 102.10957,166.18048 101.952,164.53617 101.84968,162.72906 C 101.74259,160.93072 101.71058,159.16754 101.79143,157.43816 C 101.87223,155.70887 102.04504,154.0019 102.31495,152.3392 C 102.58481,150.67656 102.95996,149.05787 103.42004,147.45953 C 103.8801,145.86128 104.42632,144.28068 105.07778,142.74436 C 105.72917,141.20815 106.50219,139.69771 107.34616,138.22115 C 108.19016,136.74455 109.12963,135.30895 110.16721,133.88976 C 111.20498,132.47056 112.3373,131.08707 113.56983,129.72287 C 114.80248,128.35868 116.12564,127.00446 117.55422,125.69302 C 118.913,124.4474 120.44442,123.24935 122.09117,122.12921 C 123.7377,121.00914 125.48564,119.97672 127.32599,119.03149 C 129.16628,118.08628 131.08632,117.23043 133.02617,116.50943 C 134.96589,115.78843 136.92665,115.20233 138.87177,114.75493 C 141.07738,114.24614 143.49877,113.88702 145.99706,113.68577 C 148.49516,113.48461 151.07943,113.45003 153.64565,113.54874 C 156.21202,113.64743 158.76832,113.89795 161.17815,114.28886 C 163.58785,114.67984 165.83829,115.20338 167.86712,115.87885 C 169.50508,116.44029 170.96264,116.834 171.03707,116.72873 C 171.26046,116.53574 169.73884,115.38436 167.66361,114.04217 C 165.58822,112.7 162.95567,111.1692 160.94546,110.20424 C 158.56304,109.08139 156.36549,108.13509 154.1983,107.3806 C 152.03103,106.62615 149.90338,106.06473 147.6838,105.6261 C 145.46421,105.18757 143.15621,104.86948 140.61666,104.69403 C 138.07723,104.51867 135.30964,104.46709 132.18273,104.50218 L 132.18276,104.50218 z"
         id="path2550"
         style="fill:#fcdd09;fill-opacity:1;fill-rule:evenodd;stroke:none;stroke-width:1;marker:none;stroke-miterlimit:4;stroke-dasharray:none;visibility:visible;display:inline;overflow:visible" />
    </g>
  </g>
</svg>
