<?xml version="1.0" encoding="UTF-8" standalone="no"?>
<!-- Created with Inkscape (http://www.inkscape.org/) -->
<svg
   xmlns:dc="http://purl.org/dc/elements/1.1/"
   xmlns:cc="http://creativecommons.org/ns#"
   xmlns:rdf="http://www.w3.org/1999/02/22-rdf-syntax-ns#"
   xmlns:svg="http://www.w3.org/2000/svg"
   xmlns="http://www.w3.org/2000/svg"
   xmlns:sodipodi="http://sodipodi.sourceforge.net/DTD/sodipodi-0.dtd"
   xmlns:inkscape="http://www.inkscape.org/namespaces/inkscape"
   width="750"
   height="500"
   id="svg2822"
   version="1.1"
   inkscape:version="0.46"
   sodipodi:docname="Flag_of_Sáchica_(Boyacá).svg"
   sodipodi:version="0.32"
   inkscape:output_extension="org.inkscape.output.svg.inkscape">
  <defs
     id="defs2824" />
  <sodipodi:namedview
     id="base"
     pagecolor="#ffffff"
     bordercolor="#666666"
     borderopacity="1.0"
     inkscape:pageopacity="0.0"
     inkscape:pageshadow="2"
     inkscape:zoom="1.014"
     inkscape:cx="375"
     inkscape:cy="250"
     inkscape:document-units="px"
     inkscape:current-layer="layer1"
     showgrid="false"
     inkscape:window-width="1024"
     inkscape:window-height="712"
     inkscape:window-x="-4"
     inkscape:window-y="-4"
     inkscape:window-maximized="1" />
  <metadata
     id="metadata2827">
    <rdf:RDF>
      <cc:Work
         rdf:about="">
        <dc:format>image/svg+xml</dc:format>
        <dc:type
           rdf:resource="http://purl.org/dc/dcmitype/StillImage" />
        <dc:title />
      </cc:Work>
    </rdf:RDF>
  </metadata>
  <g
     inkscape:label="Capa 1"
     inkscape:groupmode="layer"
     id="layer1"
     transform="translate(0,-552.36218)">
    <rect
       style="fill:#078930;fill-opacity:1;stroke:none"
       id="rect2832"
       width="750"
       height="166.666"
       x="0"
       y="-885.69617"
       transform="scale(1,-1)" />
    <rect
       style="fill:#ffffff;fill-opacity:1;stroke:none"
       id="rect2834"
       width="750"
       height="166.666"
       x="0"
       y="-719.0282"
       transform="scale(1,-1)" />
    <rect
       style="fill:#b16044;fill-opacity:1;stroke:none"
       id="rect2836"
       width="750"
       height="166.666"
       x="0"
       y="885.69617" />
    <g
       inkscape:groupmode="layer"
       inkscape:label="Calque 1"
       id="layer1-4"
       transform="matrix(1.960451,0,0,1.960451,194.63835,621.01125)">
      <g
         transform="matrix(0.754398,0,0,0.754398,-21.1595,-18.7689)"
         style="display:inline"
         id="g2129" />
    </g>
    <g
       inkscape:groupmode="layer"
       inkscape:label="Borde 3px"
       transform="matrix(0.14644819,0,0,0.11489674,-168.6592,1289.6175)"
       style="display:inline"
       id="layer6">
      <g
         inkscape:label="Timbre"
         transform="translate(-1145.7,-63.425)"
         id="g4906" />
      <g
         inkscape:label="Escudo"
         transform="translate(-1145.7,-63.425)"
         style="display:inline"
         id="g4908" />
      <g
         inkscape:label="Piezas"
         transform="translate(-1089.27,-140.065)"
         id="g4910" />
      <g
         inkscape:label="Ornamentos"
         transform="translate(-1089.27,-140.065)"
         id="g4924" />
      <g
         inkscape:label="Piezas"
         transform="matrix(0.482093,0,0,0.482093,-399.974,231.737)"
         id="g5818" />
      <g
         inkscape:label="Muebles"
         transform="matrix(0.482093,0,0,0.482093,-399.974,231.737)"
         id="g5820" />
      <g
         inkscape:label="Ornamentos"
         transform="matrix(0.482093,0,0,0.482093,-399.974,231.737)"
         id="g5822" />
      <g
         inkscape:label="Escudo"
         transform="matrix(0.482093,0,0,0.482093,-1101.78,567.026)"
         style="display:inline"
         id="g5438" />
      <g
         inkscape:label="Piezas"
         transform="matrix(0.482093,0,0,0.482093,-1074.57,530.078)"
         style="display:inline"
         id="g5440" />
      <g
         inkscape:label="Ornamento"
         transform="matrix(0.482093,0,0,0.482093,-1074.57,530.078)"
         id="g5559" />
      <g
         inkscape:label="Borde 3px"
         transform="matrix(0.482093,0,0,0.482093,-1074.57,530.078)"
         style="display:inline"
         id="g5561" />
      <g
         transform="translate(-485.482,-266.636)"
         id="Capa_x0020_1">
        <g
           id="g4068" />
        <g
           id="g4068_364" />
      </g>
      <g
         transform="matrix(3.85652,0,0,2.634,132.049,1101)"
         style="fill-rule:evenodd"
         id="g3393" />
      <g
         transform="matrix(3.85652,0,0,2.634,132.049,1101)"
         style="fill-rule:evenodd"
         id="g3411" />
      <g
         transform="matrix(3.85652,0,0,2.634,132.049,1101)"
         style="fill-rule:evenodd"
         id="g3413" />
      <g
         transform="matrix(10.869,0,0,10.8646,-445.955,106.372)"
         style="fill-rule:evenodd"
         id="g8683">
        <g
           id="g8685" />
      </g>
      <g
         transform="matrix(10.869,0,0,10.8646,-445.955,106.372)"
         style="fill-rule:evenodd"
         id="g8687">
        <g
           id="g8689" />
      </g>
      <g
         inkscape:label="Layer 1"
         transform="matrix(10.869,0,0,10.8646,-445.955,106.372)"
         style="fill-rule:evenodd"
         id="g8691" />
      <g
         transform="matrix(10.869,0,0,10.8646,-445.955,106.372)"
         style="fill-rule:evenodd"
         id="g12555">
        <g
           id="g12557" />
      </g>
      <g
         transform="matrix(10.869,0,0,10.8646,-445.955,106.372)"
         style="fill-rule:evenodd"
         id="g12559">
        <g
           id="g12561" />
      </g>
      <g
         transform="matrix(10.869,0,0,10.8646,-445.955,106.372)"
         style="fill-rule:evenodd"
         id="g12881">
        <g
           id="g12883" />
      </g>
      <g
         transform="matrix(10.869,0,0,10.8646,-445.955,106.372)"
         style="fill-rule:evenodd"
         id="g12885">
        <g
           id="g12887" />
      </g>
      <g
         transform="matrix(10.869,0,0,10.8646,-445.955,106.372)"
         style="fill-rule:evenodd"
         id="g12889" />
      <g
         transform="matrix(10.869,0,0,10.8646,-445.955,106.372)"
         style="fill-rule:evenodd;display:none"
         display="none"
         id="Grid" />
      <g
         transform="matrix(10.869,0,0,10.8646,-445.955,106.372)"
         style="fill-rule:evenodd"
         id="g29601" />
      <g
         transform="matrix(-1.49872,0,0,1.49551,-1652.41,-1280.31)"
         style="fill-rule:evenodd;display:inline"
         id="g7603" />
      <g
         transform="matrix(-1.49872,0,0,1.49551,-1652.41,-1280.31)"
         style="fill-rule:evenodd;display:inline"
         id="g6673" />
      <g
         transform="matrix(-1.49872,0,0,1.49551,-1736.98,-1394.93)"
         style="fill-rule:evenodd;display:inline"
         id="g7532" />
      <g
         transform="matrix(-1.49872,0,0,1.49551,-1736.98,-1394.93)"
         style="fill-rule:evenodd;display:inline"
         id="g7607" />
      <g
         transform="matrix(-1.49872,0,0,1.49551,-1736.98,-1394.93)"
         style="fill-rule:evenodd;display:inline"
         id="g7535">
        <g
           transform="matrix(0.999999,0.00155371,-0.00155371,0.999999,11.8367,3.53621)"
           style="fill:#008f4c;fill-opacity:1"
           id="g3313" />
        <g
           transform="translate(-1090.91,196.609)"
           id="g12051" />
        <g
           transform="translate(-1090.91,196.609)"
           id="g12053" />
        <g
           transform="translate(-1090.91,196.609)"
           id="g12055" />
      </g>
      <g
         inkscape:label="Ornamentos"
         transform="matrix(-1.49872,0,0,1.49551,884.452,348.099)"
         style="fill-rule:evenodd;display:inline"
         id="g16555" />
      <g
         inkscape:label="Timbre"
         transform="matrix(-1.49872,0,0,1.49551,969.023,462.716)"
         style="fill-rule:evenodd;display:inline"
         id="g16557" />
      <g
         inkscape:label="Escudo"
         transform="matrix(-1.49872,0,0,1.49551,969.023,462.716)"
         style="fill-rule:evenodd"
         id="g16559">
        <g
           sodipodi:insensitive="true"
           inkscape:label="Borde 3px"
           transform="translate(-1506.63,-118.777)"
           id="g6503" />
        <g
           sodipodi:insensitive="true"
           inkscape:label="Borde 3px"
           transform="translate(-1507.67,-194.255)"
           id="g7520" />
      </g>
      <g
         inkscape:label="Piezas"
         transform="matrix(-1.49872,0,0,1.49551,884.452,348.099)"
         style="fill-rule:evenodd"
         id="g16563" />
      <path
         d=""
         style="fill:#ed1c24;fill-rule:evenodd;stroke:#000000;stroke-width:4.69741392;stroke-miterlimit:4;stroke-opacity:1;stroke-dasharray:none;display:inline"
         id="path1043"
         inkscape:connector-curvature="0" />
      <path
         d=""
         style="fill:#0071bc;fill-rule:evenodd;stroke:#000000;stroke-width:4.69741392;stroke-miterlimit:4;stroke-opacity:1;stroke-dasharray:none;display:inline"
         id="path1049"
         inkscape:connector-curvature="0" />
      <path
         d=""
         style="fill:#eac102;fill-rule:evenodd;stroke:#000000;stroke-width:2.81844997;stroke-miterlimit:4;stroke-opacity:1;stroke-dasharray:none;display:inline"
         id="path1065"
         inkscape:connector-curvature="0" />
      <path
         d=""
         style="fill:#eac102;fill-rule:evenodd;stroke:#000000;stroke-width:2.81844997;stroke-miterlimit:4;stroke-opacity:1;stroke-dasharray:none;display:inline"
         id="path1081"
         inkscape:connector-curvature="0" />
      <path
         d=""
         style="fill:#eac102;fill-rule:evenodd;stroke:#000000;stroke-width:2.81844997;stroke-miterlimit:4;stroke-opacity:1;stroke-dasharray:none;display:inline"
         id="path1097"
         inkscape:connector-curvature="0" />
      <g
         inkscape:label="Borde 3px"
         transform="matrix(-1.49872,0,0,1.49551,884.452,348.099)"
         style="fill-rule:evenodd;display:inline"
         id="g5037" />
      <g
         transform="matrix(-10.1308,0,0,9.49626,3889.43,-2289.3)"
         style="fill:#eac102;fill-opacity:1;fill-rule:evenodd;stroke:#000000;stroke-width:1.17668748;stroke-miterlimit:4;stroke-opacity:1;stroke-dasharray:none"
         id="g7313" />
      <g
         transform="matrix(-10.1308,0,0,9.49626,3889.5,-2290.51)"
         style="fill:#eac102;fill-opacity:1;fill-rule:evenodd;stroke:#000000;stroke-width:1.17668748;stroke-miterlimit:4;stroke-opacity:1;stroke-dasharray:none"
         id="g7193" />
      <g
         transform="matrix(-0.681352,0,0,0.663017,1037.54,353.069)"
         style="fill-rule:evenodd"
         id="g7555" />
      <g
         transform="matrix(-0.681352,0,0,0.663017,1037.54,353.069)"
         style="fill-rule:evenodd"
         id="g15978" />
      <g
         transform="matrix(-0.681352,0,0,0.663017,999.097,302.255)"
         style="fill-rule:evenodd"
         id="g7558" />
      <g
         transform="matrix(-0.681352,0,0,0.663017,999.097,302.255)"
         style="fill-rule:evenodd"
         id="g7560" />
      <g
         transform="matrix(-0.65332,0,0,0.635739,169.865,436.962)"
         style="fill-rule:evenodd"
         id="Calque_3_1_" />
      <g
         transform="matrix(-0.65332,0,0,0.635739,169.865,436.962)"
         style="fill-rule:evenodd"
         id="Calque_4_1_" />
      <g
         inkscape:label="Escudo"
         transform="matrix(-1.49872,0,0,1.49551,2467.94,-336.673)"
         style="fill-rule:evenodd;display:inline"
         id="g9086" />
      <g
         inkscape:label="Piezas"
         transform="matrix(-1.49872,0,0,1.49551,2383.37,-451.29)"
         style="fill-rule:evenodd;display:inline"
         id="g9088" />
      <g
         inkscape:label="Ornamento"
         transform="matrix(-1.49872,0,0,1.49551,2383.37,-451.29)"
         style="fill-rule:evenodd"
         id="g7566" />
      <g
         inkscape:label="Borde 3px"
         transform="matrix(-1.49872,0,0,1.49551,2383.37,-451.29)"
         style="fill-rule:evenodd;display:inline"
         id="g9289" />
    </g>
    <g
       inkscape:groupmode="layer"
       inkscape:label="Timbre"
       transform="matrix(0.14644819,0,0,0.11489674,-176.92312,1298.4232)"
       style="display:inline"
       id="layer3" />
    <g
       inkscape:groupmode="layer"
       inkscape:label="Escudo"
       transform="matrix(0.14644819,0,0,0.11489674,-176.92312,1298.4232)"
       style="display:inline"
       id="layer1-7" />
    <g
       inkscape:groupmode="layer"
       inkscape:label="Piezas"
       transform="matrix(0.14644819,0,0,0.11489674,-168.6592,1289.6175)"
       style="display:inline"
       id="layer4" />
    <g
       inkscape:groupmode="layer"
       inkscape:label="Muebles"
       transform="matrix(0.14644819,0,0,0.11489674,-168.6592,1289.6175)"
       style="display:inline"
       id="layer5">
      <rect
         height="21.5557"
         width="0"
         y="647.45203"
         x="-1189.84"
         style="fill:#e3e4e5;fill-opacity:1;fill-rule:evenodd;stroke:#0c0909;stroke-width:7.70910835;stroke-miterlimit:4;stroke-opacity:1;stroke-dasharray:none"
         id="rect2743" />
    </g>
    <g
       inkscape:groupmode="layer"
       inkscape:label="Ornamento"
       transform="matrix(0.14644819,0,0,0.11489674,-168.6592,1289.6175)"
       id="layer2" />
  </g>
</svg>
