<?xml version="1.0" encoding="UTF-8" standalone="no"?>
<!-- Created with Inkscape (http://www.inkscape.org/) -->

<svg
   xmlns:dc="http://purl.org/dc/elements/1.1/"
   xmlns:cc="http://creativecommons.org/ns#"
   xmlns:rdf="http://www.w3.org/1999/02/22-rdf-syntax-ns#"
   xmlns:svg="http://www.w3.org/2000/svg"
   xmlns="http://www.w3.org/2000/svg"
   xmlns:sodipodi="http://sodipodi.sourceforge.net/DTD/sodipodi-0.dtd"
   xmlns:inkscape="http://www.inkscape.org/namespaces/inkscape"
   width="750"
   height="500"
   id="svg2822"
   version="1.1"
   inkscape:version="0.48.3.1 r9886"
   sodipodi:docname="Flag of Silvania (Cundinamarca).svg">
  <defs
     id="defs2824">
    <inkscape:perspective
       sodipodi:type="inkscape:persp3d"
       inkscape:vp_x="0 : 526.18109 : 1"
       inkscape:vp_y="0 : 1000 : 0"
       inkscape:vp_z="744.09448 : 526.18109 : 1"
       inkscape:persp3d-origin="372.04724 : 350.78739 : 1"
       id="perspective2830" />
    <inkscape:perspective
       id="perspective4902"
       inkscape:persp3d-origin="92.5 : 61.666667 : 1"
       inkscape:vp_z="185 : 92.5 : 1"
       inkscape:vp_y="0 : 1000 : 0"
       inkscape:vp_x="0 : 92.5 : 1"
       sodipodi:type="inkscape:persp3d" />
  </defs>
  <sodipodi:namedview
     id="base"
     pagecolor="#ffffff"
     bordercolor="#666666"
     borderopacity="1.0"
     inkscape:pageopacity="0.0"
     inkscape:pageshadow="2"
     inkscape:zoom="0.62"
     inkscape:cx="375"
     inkscape:cy="233.33198"
     inkscape:document-units="px"
     inkscape:current-layer="layer1"
     showgrid="false"
     inkscape:window-width="1280"
     inkscape:window-height="962"
     inkscape:window-x="-8"
     inkscape:window-y="-8"
     inkscape:window-maximized="1" />
  <metadata
     id="metadata2827">
    <rdf:RDF>
      <cc:Work
         rdf:about="">
        <dc:format>image/svg+xml</dc:format>
        <dc:type
           rdf:resource="http://purl.org/dc/dcmitype/StillImage" />
        <dc:title></dc:title>
      </cc:Work>
    </rdf:RDF>
  </metadata>
  <g
     inkscape:label="Capa 1"
     inkscape:groupmode="layer"
     id="layer1"
     transform="translate(0,-552.36218)">
    <rect
       style="fill:#fbbb00;fill-opacity:1;stroke:none"
       id="rect2832"
       width="750"
       height="166.666"
       x="0"
       y="-5.6843419e-14"
       transform="translate(0,552.36218)" />
    <rect
       style="fill:#81b31c;fill-opacity:1;stroke:none"
       id="rect2834"
       width="750"
       height="166.666"
       x="0"
       y="719.03015" />
    <rect
       style="fill:#ffffff;fill-opacity:1;stroke:none"
       id="rect2836"
       width="750"
       height="166.666"
       x="0"
       y="885.69617" />
    <g
       inkscape:groupmode="layer"
       inkscape:label="Calque 1"
       id="layer1-4"
       transform="matrix(1.960451,0,0,1.960451,194.63835,621.01125)">
      <g
         transform="matrix(0.754398,0,0,0.754398,-21.1595,-18.7689)"
         style="display:inline"
         id="g2129" />
    </g>
    <g
       style="stroke:#000000;stroke-width:2.28647447;stroke-miterlimit:4;stroke-opacity:1;stroke-dasharray:none"
       transform="matrix(-0.41081704,-0.13937626,-0.13656485,0.41927441,835.46875,557.45473)"
       id="g3312">
      <path
         inkscape:connector-curvature="0"
         sodipodi:nodetypes="cccccccccc"
         id="path3314"
         d="m 807.62174,1003.8594 -12.13304,7.4431 c -7.48936,9.5259 7.35651,13.0053 12.75621,11.4444 -4.05079,-3.0818 -8.53061,-2.2455 -8.1567,-6.4306 2.41383,-5.817 6.79313,-3.885 10.20451,-7.0344 -0.78848,3.4979 1.92612,6.8259 8.31793,10.9289 -3.63333,-5.4338 -5.15237,-12.4409 -3.36634,-14.8322 l 0.56521,-5.0681 -5.94408,-3.28702 c -0.23675,2.65232 -0.0514,4.35512 -2.2437,6.83592 z"
         style="fill:#e20909;fill-opacity:1;fill-rule:evenodd;stroke:#000000;stroke-width:2.28647447;stroke-linecap:butt;stroke-linejoin:miter;stroke-miterlimit:4;stroke-opacity:1;stroke-dasharray:none" />
      <path
         inkscape:connector-curvature="0"
         style="fill:#ffffff;fill-opacity:1;fill-rule:evenodd;stroke:#000000;stroke-width:2.28647447;stroke-linecap:butt;stroke-linejoin:miter;stroke-miterlimit:4;stroke-opacity:1;stroke-dasharray:none"
         d="m 799.86077,907.14153 c 1.74364,-0.45674 14.19375,14.85319 18.3723,28.10371 2.38135,7.55144 7.22666,13.96251 5.79284,15.39633 -0.30262,5.95309 -4.40117,8.87572 -5.7713,17.85926 -1.08463,7.11159 -0.61546,25.55117 -2.30992,32.56167 l -6.06092,-4.04057 c 0.43595,-9.58753 0.34002,-28.04573 2.02031,-43.85498 -13.65548,-14.98393 -33.27954,-22.27982 -36.37113,-36.75867"
         id="path3316"
         sodipodi:nodetypes="cscscccc" />
    </g>
    <path
       inkscape:connector-curvature="0"
       style="fill:#ffffff;fill-opacity:1;fill-rule:evenodd;stroke:#000000;stroke-width:1;stroke-linecap:butt;stroke-linejoin:miter;stroke-miterlimit:4;stroke-opacity:1;stroke-dasharray:none"
       d="m 402.79624,808.25691 c 1.12198,-9.14352 4.81693,-16.81495 2.32873,-26.4445 l 1.00189,-8.49286 c 3.87092,-19.29383 -13.11796,-27.2662 -24.27498,-40.44168 -10.34445,-12.9519 -7.66425,2.60744 -2.40899,8.32449 -9.89325,-13.18389 -8.53745,1.05236 -2.77002,7.75669 -9.31547,-12.02156 -7.96949,3.40228 -2.9482,9.08446 -8.00227,-10.48052 -7.80905,3.47671 -2.02794,8.2431 -8.92369,-4.91031 -1.75357,8.55341 0.98006,10.82502 -8.56375,-6.60237 -4.25799,5.89118 2.55639,9.16384 -8.68316,-5.3636 -3.22227,9.8797 6.3407,10.97468 l 8.87936,4.13191 7.8732,11.1587"
       id="path3190"
       sodipodi:nodetypes="ccccccccccccc" />
    <path
       inkscape:connector-curvature="0"
       sodipodi:nodetypes="ccssccccccsccsscssscc"
       id="path13446"
       d="m 365.56845,816.23436 c -0.89058,1.26189 -1.871,2.37304 -7.655,13.14727 -2.13533,1.70034 -2.14781,11.48998 -17.66754,12.13195 -5.60472,0.23185 -28.49981,2.33308 -33.91166,4.33249 -6.52746,2.41166 -9.6264,6.10058 1.8519,5.74833 -10.65253,1.43881 -8.02086,7.50398 2.09755,5.58302 -9.78968,2.8461 -10.05095,8.32048 2.54753,5.15807 -8.42313,3.79984 -9.49994,7.91237 3.78012,3.19755 -11.02112,6.76113 -3.42734,7.99897 6.20173,2.21229 -5.41272,3.27466 -6.29384,10.28848 6.15614,3.77498 -10.73488,7.5267 0.15772,6.14508 7.17036,1.71276 11.2902,-7.13596 17.33311,-19.87112 25.87567,-27.70759 11.37039,-5.73643 25.72287,-3.97328 38.23781,-7.97464 6.08786,-2.10658 10.70391,-1.74363 20.08737,-18.75074 9.38344,-17.00725 3.78689,-14.49537 15.75823,-22.86863 2.13587,-1.49388 7.55388,-3.0078 7.73354,-3.14464 -0.37288,-1.22768 -1.07517,-2.3387 -1.03377,-3.46294 0.26966,-7.328 -4.61681,-11.79506 -12.56316,-9.48188 -2.90455,0.84562 -6.31761,3.35604 -11.39937,6.87538 -4.2693,2.95661 -15.17039,2.4273 -20.69285,6.11301 -11.05757,5.99888 -25.0633,11.10644 -32.5746,23.40396 z"
       style="fill:#ffffff;fill-opacity:1;fill-rule:evenodd;stroke:#000000;stroke-width:1;stroke-linecap:butt;stroke-linejoin:miter;stroke-miterlimit:4;stroke-opacity:1;stroke-dasharray:none" />
    <path
       inkscape:connector-curvature="0"
       sodipodi:nodetypes="ccccccccccccc"
       id="path3197"
       d="m 398.79592,805.29615 c 7.62384,-21.92892 -12.9064,-39.11444 -29.48023,-48.46883 -9.36099,-4.71963 -22.88122,-21.37916 -29.87985,-24.69578 -10.16211,-4.55392 -7.31902,-0.149 -0.31505,11.46084 -14.06058,-13.07338 -4.78478,6.09697 0.50312,10.99566 -11.20767,-10.09431 -4.80729,7.3876 0.0134,11.08427 -9.42282,-6.61761 -4.71613,5.71866 1.81868,10.12304 -10.75853,-7.91838 -4.30633,6.76661 2.48446,10.6374 -11.25584,-6.01679 -5.16704,5.66187 4.43065,9.65079 -13.89744,-5.19241 -3.71693,4.81851 4.56719,7.08746 -14.66015,-4.00015 -5.77077,6.67747 6.69023,6.70366 -10.43713,0.58357 -9.81273,5.9147 3.1988,7.0177 14.34354,5.77773 15.49388,-17.14636 29.33777,-7.09748"
       style="fill:#ffffff;fill-opacity:1;fill-rule:evenodd;stroke:#000000;stroke-width:1;stroke-linecap:butt;stroke-linejoin:miter;stroke-miterlimit:4;stroke-opacity:1;stroke-dasharray:none" />
    <path
       sodipodi:type="arc"
       style="fill:#ffffff;fill-opacity:1;stroke:#000000;stroke-width:4.03105736;stroke-linejoin:miter;stroke-miterlimit:4;stroke-opacity:1;stroke-dasharray:none"
       id="path3201"
       sodipodi:cx="552.21405"
       sodipodi:cy="255.86182"
       sodipodi:rx="7.5871706"
       sodipodi:ry="7.5871706"
       d="m 559.80122,255.86182 a 7.5871706,7.5871706 0 1 1 -15.17434,0 7.5871706,7.5871706 0 1 1 15.17434,0 z"
       transform="matrix(0.25408259,0.01819226,-0.03227205,0.23989659,304.09385,716.07345)" />
    <path
       inkscape:connector-curvature="0"
       style="fill:#e20909;fill-opacity:1;fill-rule:evenodd;stroke:#000000;stroke-width:1;stroke-linecap:round;stroke-linejoin:round;stroke-miterlimit:4;stroke-opacity:1;stroke-dasharray:none"
       d="m 443.85908,790.12474 -2.54458,1.61121 c 3.07569,1.29784 6.05155,2.46418 8.1855,6.22312 -0.0164,-4.65241 -4.5045,-5.93287 -5.64092,-7.83433 z"
       id="path3203"
       sodipodi:nodetypes="ccccc" />
    <g
       style="stroke:#000000;stroke-width:2.28647447;stroke-miterlimit:4;stroke-opacity:1;stroke-dasharray:none"
       transform="matrix(-0.41081704,-0.13937626,-0.13656485,0.41927441,830.71458,557.83131)"
       id="g13436">
      <path
         inkscape:connector-curvature="0"
         sodipodi:nodetypes="cccccccccc"
         id="path3206"
         d="m 807.62174,1003.8594 -12.13304,7.4431 c -7.48936,9.5259 7.35651,13.0053 12.75621,11.4444 -4.05079,-3.0818 -8.53061,-2.2455 -8.1567,-6.4306 2.41383,-5.817 6.79313,-3.885 10.20451,-7.0344 -0.78848,3.4979 1.92612,6.8259 8.31793,10.9289 -3.63333,-5.4338 -5.15237,-12.4409 -3.36634,-14.8322 l 0.56521,-5.0681 -5.94408,-3.28702 c -0.23675,2.65232 -0.0514,4.35512 -2.2437,6.83592 z"
         style="fill:#e20909;fill-opacity:1;fill-rule:evenodd;stroke:#000000;stroke-width:2.28647447;stroke-linecap:butt;stroke-linejoin:miter;stroke-miterlimit:4;stroke-opacity:1;stroke-dasharray:none" />
      <path
         inkscape:connector-curvature="0"
         style="fill:#ffffff;fill-opacity:1;fill-rule:evenodd;stroke:#000000;stroke-width:2.28647447;stroke-linecap:butt;stroke-linejoin:miter;stroke-miterlimit:4;stroke-opacity:1;stroke-dasharray:none"
         d="m 799.86077,907.14153 c 1.74364,-0.45674 14.19375,14.85319 18.3723,28.10371 2.38135,7.55144 7.22666,13.96251 5.79284,15.39633 -0.30262,5.95309 -4.40117,8.87572 -5.7713,17.85926 -1.08463,7.11159 -0.61546,25.55117 -2.30992,32.56167 l -6.06092,-4.04057 c 0.43595,-9.58753 0.34002,-28.04573 2.02031,-43.85498 -13.65548,-14.98393 -33.27954,-22.27982 -36.37113,-36.75867"
         id="path11472"
         sodipodi:nodetypes="cscscccc" />
    </g>
  </g>
</svg>
