<?xml version="1.0" encoding="UTF-8" standalone="no"?>
<!-- Created with Inkscape (http://www.inkscape.org/) -->
<svg
   xmlns:dc="http://purl.org/dc/elements/1.1/"
   xmlns:cc="http://creativecommons.org/ns#"
   xmlns:rdf="http://www.w3.org/1999/02/22-rdf-syntax-ns#"
   xmlns:svg="http://www.w3.org/2000/svg"
   xmlns="http://www.w3.org/2000/svg"
   xmlns:sodipodi="http://sodipodi.sourceforge.net/DTD/sodipodi-0.dtd"
   xmlns:inkscape="http://www.inkscape.org/namespaces/inkscape"
   width="750"
   height="500"
   id="svg2"
   version="1.1"
   inkscape:version="0.46"
   sodipodi:docname="Flag_of_Taminango_(Nariño).svg"
   sodipodi:version="0.32"
   inkscape:output_extension="org.inkscape.output.svg.inkscape">
  <defs
     id="defs4" />
  <sodipodi:namedview
     id="base"
     pagecolor="#ffffff"
     bordercolor="#666666"
     borderopacity="1.0"
     inkscape:pageopacity="0.0"
     inkscape:pageshadow="2"
     inkscape:zoom="1.014"
     inkscape:cx="375"
     inkscape:cy="250"
     inkscape:document-units="px"
     inkscape:current-layer="layer1"
     showgrid="false"
     inkscape:window-width="1024"
     inkscape:window-height="712"
     inkscape:window-x="-4"
     inkscape:window-y="-4"
     inkscape:window-maximized="1" />
  <metadata
     id="metadata7">
    <rdf:RDF>
      <cc:Work
         rdf:about="">
        <dc:format>image/svg+xml</dc:format>
        <dc:type
           rdf:resource="http://purl.org/dc/dcmitype/StillImage" />
        <dc:title />
      </cc:Work>
    </rdf:RDF>
  </metadata>
  <g
     inkscape:label="Capa 1"
     inkscape:groupmode="layer"
     id="layer1"
     transform="translate(0,-552.36218)">
    <path
       style="fill:#078930;fill-opacity:1;stroke:none"
       d="M 750,552.36218 0,1052.3622 0,552.36218 l 750,0 z"
       id="path2820"
       inkscape:connector-curvature="0" />
    <path
       style="fill:#da121a;fill-opacity:1;stroke:none"
       d="m 750,552.36218 0,500.00002 -750,0 750,-500.00002 z"
       id="path3594"
       inkscape:connector-curvature="0" />
    <path
       style="fill:#fcdd09;stroke:none"
       d="m 750,602.36218 0,-50 -52,0 -698,450.00002 0,50 50,0 700,-450.00002 z"
       id="path3649"
       inkscape:connector-curvature="0" />
    <g
       id="g3199"
       transform="translate(10.848126,14.792899)">
      <rect
         ry="14.308272"
         rx="19.608133"
         y="574.27448"
         x="29.755959"
         height="195.07579"
         width="197.08688"
         id="rect2395"
         style="opacity:1;fill:none;fill-opacity:1;stroke:#ffffff;stroke-width:12;stroke-linejoin:round;stroke-miterlimit:4;stroke-dasharray:none;stroke-dashoffset:0;stroke-opacity:1" />
      <path
         id="path3167"
         d="M 29.253141,761.2836 L 92.602502,729.10616 L 101.65242,748.21152 L 226.34003,748.21152"
         style="fill:none;fill-rule:evenodd;stroke:#ffffff;stroke-width:12;stroke-linecap:butt;stroke-linejoin:round;stroke-miterlimit:4;stroke-dasharray:none;stroke-opacity:1" />
      <path
         style="fill:none;fill-rule:evenodd;stroke:#ffffff;stroke-width:12;stroke-linecap:butt;stroke-linejoin:round;stroke-miterlimit:4;stroke-dasharray:none;stroke-opacity:1"
         d="M 29.253141,737.28364 L 92.602502,705.1062 L 101.65242,724.21156 L 226.34003,724.21156"
         id="path3169" />
      <path
         sodipodi:nodetypes="ccccccsssccssscccsscccccccccccccccccccccccccccccccccccccccccccccccccccccccccc"
         d="M 156.45462,603.413 L 191.14594,603.413 L 178.07386,589.83816 L 169.5267,589.83816 L 156.45462,603.413 z M 161.4823,627.54608 C 161.4823,637.5372 153.37358,645.64592 143.3825,645.64592 C 133.39138,645.64592 125.2827,637.5372 125.2827,627.54608 C 125.2827,617.555 133.39138,609.44628 143.3825,609.44628 C 153.37358,609.44628 161.4823,617.555 161.4823,627.54608 z M 156.05238,627.54608 C 156.05238,634.53988 150.37626,640.21596 143.3825,640.21596 C 136.38874,640.21596 130.71266,634.53988 130.71266,627.54608 C 130.71266,620.55232 136.38874,614.87624 143.3825,614.87624 C 150.37626,614.87624 156.05238,620.55232 156.05238,627.54608 z M 126.28826,656.70692 L 128.25797,651.46844 C 119.94318,646.77014 113.55059,637.84864 113.55059,627.62318 C 113.55059,612.5155 124.85525,600.25419 139.96293,600.25419 C 142.83748,600.25419 145.60898,600.69809 148.06004,601.46147 L 165.67919,583.498 L 181.26515,583.498 L 205.5941,607.28174 L 205.5941,616.83442 L 199.05806,616.83442 L 191.6487,610.9546 L 168.01838,610.9546 C 170.55466,613.80365 172.90967,617.96515 172.82904,620.8142 L 206.03327,621.51284 L 206.34015,629.71066 L 173.32684,629.38255 C 171.28608,634.84775 170.81334,640.31295 165.56818,645.77816 L 180.5877,645.64592 L 189.13486,636.09324 L 196.16258,645.14316 L 211.73839,645.49246 L 197.68198,652.68472 L 191.16814,664.24852 L 183.33074,655.91846 L 151.92966,655.1986 L 151.92966,658.718 C 177.60408,657.32511 175.11775,695.63818 150.42134,699.94536 L 137.85202,699.94536 L 137.85202,704.47032 L 157.96294,704.97308 L 188.1293,670.78456 L 200.19586,670.78456 L 211.75962,680.33724 L 210.2513,687.22262 C 201.97136,687.60909 189.76335,685.16017 188.63206,691.901 L 209.24574,691.901 L 207.23466,698.43704 L 186.11822,698.93984 L 183.10158,706.4814 C 189.30245,707.02562 199.76876,707.5443 205.96962,702.962 L 202.16453,713.388 L 114.27094,713.747 C 108.82722,705.63817 106.62714,689.28635 95.483987,689.31958 L 39.722602,718.33663 L 57.408422,694.41488 C 51.713778,694.82743 45.805302,693.31549 39.241045,685.90153 L 60.370091,679.88945 C 54.077651,676.85996 48.125568,674.85153 39.308622,664.24852 L 66.961102,666.76236 C 59.606044,661.18184 49.901116,658.34284 47.352982,647.15424 L 100.64686,668.27068 L 109.19398,659.72356 L 100.1441,649.66812 C 88.244893,652.85445 76.6378,646.50343 66.479529,634.8918 C 74.684413,635.77728 82.889298,636.93562 91.094182,633.57936 C 83.528649,631.15329 76.933575,627.43328 71.988822,621.51284 C 78.3502,622.2349 84.711578,623.45294 91.072955,620.8142 L 80.731818,611.8067 C 88.784287,609.89263 91.502306,604.64452 92.602502,598.38528 L 105.67458,608.94352 C 111.42855,614.40247 103.22261,626.70816 107.1829,635.59048 C 110.42637,644.19178 117.52203,650.86699 126.28826,656.70692 z"
         style="fill:#ffffff;fill-rule:evenodd;stroke:none;stroke-width:1px;stroke-linecap:butt;stroke-linejoin:round;stroke-opacity:1"
         id="path3171" />
    </g>
  </g>
</svg>
