<svg id="Capa_1" data-name="Capa 1" xmlns="http://www.w3.org/2000/svg" viewBox="0 0 1080 1080"><defs><style>.cls-1{fill:#fff;}.cls-2{fill:#008400;}.cls-3{fill:red;}.cls-4{fill:#0000c6;}.cls-5{fill:#f8bf1b;}.cls-6{fill:#ffe000;}</style></defs><path class="cls-1" d="M1040,456.67V623.33H328.67Q400.85,581.67,473,540L328.67,456.67Z"/><path class="cls-2" d="M1040,290V456.67H328.67L40,290Z"/><path class="cls-3" d="M1040,623.33V790H40L328.67,623.33Z"/><path class="cls-4" d="M473,540q-72.17,41.67-144.34,83.33L40,790V290L328.67,456.67Z"/><path class="cls-5" d="M161.42,482.75l48.11-25.59,1.89,54.46,46.22,28.87-46.22,28.87-1.89,54.46-48.11-25.6-48.11,25.6-1.89-54.46L65.19,540.49l46.23-28.87,1.89-54.46Z"/><path class="cls-6" d="M184.33,482.75l48.11-25.59,1.89,54.46,46.22,28.87-46.22,28.87-1.89,54.46-48.11-25.6-48.11,25.6-1.89-54.46L88.1,540.49l46.23-28.87,1.89-54.46Z"/></svg>