<?xml version="1.0" encoding="UTF-8" standalone="no"?>
<svg
   xmlns:dc="http://purl.org/dc/elements/1.1/"
   xmlns:cc="http://creativecommons.org/ns#"
   xmlns:rdf="http://www.w3.org/1999/02/22-rdf-syntax-ns#"
   xmlns:svg="http://www.w3.org/2000/svg"
   xmlns="http://www.w3.org/2000/svg"
   xmlns:sodipodi="http://sodipodi.sourceforge.net/DTD/sodipodi-0.dtd"
   xmlns:inkscape="http://www.inkscape.org/namespaces/inkscape"
   width="900"
   height="600"
   version="1.0"
   id="svg2"
   sodipodi:version="0.32"
   inkscape:version="0.46"
   sodipodi:docname="Flag of Tenjo.svg"
   inkscape:output_extension="org.inkscape.output.svg.inkscape">
  <defs
     id="defs15"><inkscape:perspective
   sodipodi:type="inkscape:persp3d"
   inkscape:vp_x="0 : 250 : 1"
   inkscape:vp_y="0 : 1000 : 0"
   inkscape:vp_z="750 : 250 : 1"
   inkscape:persp3d-origin="375 : 166.66667 : 1"
   id="perspective17" />

  
  
  
  
  
  
  
  
  
  
  
  
  
  
  
  
  
  
  
 <metadata
   id="CorelCorpID_2Corel-Layer" />

 
  <style
   id="style6"
   type="text/css">
   
    .str5 {stroke:black;stroke-width:0.18;stroke-linejoin:bevel}
    .str6 {stroke:black;stroke-width:0.25}
    .str7 {stroke:black;stroke-width:0.25;stroke-linejoin:round}
    .str2 {stroke:black;stroke-width:0.27}
    .str4 {stroke:black;stroke-width:0.27;stroke-linejoin:round}
    .str3 {stroke:black;stroke-width:0.3}
    .str0 {stroke:black;stroke-width:0.4}
    .str1 {stroke:black;stroke-width:1.1;stroke-linecap:round;stroke-linejoin:round}
    .fil3 {fill:none}
    .fil8 {fill:black}
    .fil0 {fill:#008F4C}
    .fil9 {fill:#191919}
    .fil4 {fill:#E3E4E5}
    .fil2 {fill:#EAC102}
    .fil1 {fill:#ED1C24}
    .fil7 {fill:#FCEF3C}
    .fil6 {fill:white}
    .fil5 {fill:black;fill-rule:nonzero}
   
  </style>

  <inkscape:perspective
   id="perspective3379"
   inkscape:persp3d-origin="289.13385 : 215.78739 : 1"
   inkscape:vp_z="578.2677 : 323.68109 : 1"
   inkscape:vp_y="0 : 1000 : 0"
   inkscape:vp_x="0 : 323.68109 : 1"
   sodipodi:type="inkscape:persp3d" />
</defs>
  <sodipodi:namedview
     inkscape:window-height="710"
     inkscape:window-width="1024"
     inkscape:pageshadow="2"
     inkscape:pageopacity="0.0"
     guidetolerance="10.0"
     gridtolerance="10.0"
     objecttolerance="10.0"
     borderopacity="1.0"
     bordercolor="#666666"
     pagecolor="#ffffff"
     id="base"
     showgrid="false"
     inkscape:zoom="0.84166667"
     inkscape:cx="450"
     inkscape:cy="300"
     inkscape:window-x="-4"
     inkscape:window-y="-4"
     inkscape:current-layer="svg2" />
  <metadata
     id="metadata4">
    <rdf:RDF>
      <cc:Work
         rdf:about="">
        <dc:format>image/svg+xml</dc:format>
        <dc:type
           rdf:resource="http://purl.org/dc/dcmitype/StillImage" />
      </cc:Work>
    </rdf:RDF>
  </metadata>
  <rect
     width="900.89111"
     height="599.802"
     style="fill:#078930;fill-opacity:1"
     id="rect6"
     x="0"
     y="0" />
  <g
     style="fill-rule:evenodd"
     id="g3384"
     transform="matrix(1.6978624,0,0,1.7013071,314.85417,168.08727)">
    <g
       id="fondo">
  <metadata
   id="CorelCorpID_0Corel-Layer" />

  <path
   id="path10"
   d="M 147.693,31.9236 L 96.3234,31.9236 L 96.3234,151.9746 L 133.6506,151.9746 C 141.2931,151.9746 147.4527,146.8835 147.6861,140.4624 L 147.693,89.4194 L 147.693,31.9231 L 147.693,31.9236 z"
   class="fil0"
   style="fill:#008f4c" />

  <path
   id="path12"
   d="M 66.8539,151.975 L 66.8738,31.924 L 15.5043,31.924 L 15.5043,140.085 C 15.5043,146.6832 21.7556,151.9754 29.5468,151.9754 L 66.8539,151.9754 L 66.8539,151.975 z"
   class="fil1"
   style="fill:#ed1c24" />

  <path
   id="path14"
   d="M 96.3236,31.9236 L 147.6932,31.9236 L 147.6932,2.4612 L 81.5979,2.4612 L 15.5043,2.4612 L 15.5043,31.9236 L 66.8738,31.9236 L 66.8539,151.9746 L 67.4937,151.9746 C 75.2857,151.9746 81.5988,157.2696 81.5988,163.8654 C 81.5988,157.2672 87.9118,151.9746 95.7038,151.9746 L 96.3236,151.9746 L 96.3236,31.9236 L 96.3236,31.9236 z"
   class="fil2 str0"
   style="fill:#eac102;stroke:#000000;stroke-width:0.40000001" />

 </g>
    <g
       id="contono">
  <metadata
   id="CorelCorpID_1Corel-Layer" />

  <path
   d="M 15.5043,2.4612 L 15.5043,140.0842 C 15.5043,146.6824 21.7556,151.9746 29.5468,151.9746 L 67.4937,151.9746 C 75.2857,151.9746 81.5988,157.2696 81.5988,163.8654 C 81.5988,157.2672 87.9118,151.9746 95.7038,151.9746 L 133.6508,151.9746 C 141.4427,151.9746 147.6932,146.6824 147.6932,140.0842 L 147.6932,2.4612 L 81.5979,2.4612 L 15.5043,2.4612 L 15.5043,2.4612 z"
   class="fil3 str1"
   id="CoA_Nr._8"
   style="fill:none;stroke:#000000;stroke-width:1.10000002;stroke-linecap:round;stroke-linejoin:round" />

 </g>
    <path
       class="fil4 str2"
       d="M 29.7263,80.2857 C 27.8786,80.1572 25.8859,77.3033 26.5011,75.4142 C 27.1176,73.5207 28.6967,73.3756 28.6997,72.7866 C 28.7022,72.1432 27.1497,72.3585 26.1523,72.316 C 25.426,72.2853 25.6248,73.5526 24.341,73.4876 C 22.9084,73.415 22.1536,70.8923 20.583,70.499 C 22.1534,70.1056 22.9084,67.5939 24.341,67.5213 C 25.6249,67.4562 25.426,68.7235 26.1523,68.6926 C 27.1497,68.6501 28.7024,68.8655 28.6997,68.2218 C 28.6967,67.6331 27.1176,67.488 26.5011,65.5945 C 25.8859,63.7055 27.8785,60.8516 29.7263,60.723 C 31.5739,60.5945 33.8628,63.6824 33.8911,64.8392 C 33.1856,64.5693 30.6558,63.4976 30.046,64.0073 C 30.0229,64.0274 29.9951,64.0585 29.9781,64.0838 C 29.9547,64.1212 29.9396,64.167 29.9297,64.2152 C 29.5429,66.1331 30.5552,68.1381 32.8644,68.4408 C 34.8331,68.6989 37.1244,68.712 39.4411,68.6927 C 39.4638,66.0973 39.4749,63.5781 39.4121,61.3034 C 39.3596,59.4158 39.289,58.6854 39.0052,58.4353 C 38.8953,58.344 38.7536,58.31 38.5693,58.3148 C 36.5943,58.3678 40.6162,61.7312 36.7289,61.7086 C 35.7232,61.7028 35.3512,61.1038 35.0629,60.0009 C 34.7745,58.8977 34.8608,58.2753 34.9175,57.2311 C 35.0314,55.1427 40.8426,49.7121 41.1262,47.9369 C 41.4097,49.712 47.2209,55.1425 47.3347,57.2311 C 47.3915,58.2753 47.4678,58.8977 47.1797,60.0008 C 46.8914,61.1038 46.5192,61.7026 45.5136,61.7085 C 41.6264,61.7311 45.658,58.3677 43.683,58.3148 C 43.0086,58.2967 42.9035,58.6772 42.8307,61.3033 C 42.7677,63.5811 42.7886,66.1043 42.8114,68.7036 C 45.0472,68.7194 47.254,68.69 49.1556,68.4408 C 51.4645,68.138 52.4769,66.1329 52.0902,64.2152 C 52.0807,64.1669 52.0654,64.1209 52.0418,64.0838 C 51.5851,63.4056 48.8648,64.5576 48.1288,64.8392 C 48.1572,63.6824 50.4458,60.5945 52.2936,60.723 C 54.1412,60.8514 56.134,63.7055 55.519,65.5945 C 54.9022,67.4879 53.3233,67.633 53.3202,68.2218 C 53.3198,68.3072 53.3483,68.3829 53.3978,68.4407 C 53.7351,68.8047 55.0007,68.6561 55.8578,68.6926 C 56.584,68.7235 56.3949,67.4561 57.6787,67.5212 C 59.1113,67.594 59.8661,70.1056 61.4367,70.4989 C 59.8663,70.892 59.1113,73.4149 57.6787,73.4875 C 56.3951,73.5526 56.5841,72.2851 55.8578,72.316 C 54.8604,72.3583 53.3175,72.1429 53.3202,72.7866 C 53.3234,73.3755 54.9023,73.5206 55.519,75.4141 C 56.134,77.3031 54.1413,80.1571 52.2937,80.2856 C 50.4461,80.4141 48.1574,77.3258 48.1289,76.1694 C 48.8649,76.451 51.5851,77.6029 52.0418,76.9248 C 52.0528,76.9074 52.063,76.8786 52.071,76.859 C 52.0785,76.8391 52.086,76.8156 52.0903,76.7932 C 52.4771,74.8756 51.4649,72.8702 49.1557,72.5676 C 46.9778,72.2821 44.4032,72.288 42.7728,72.3158 C 42.7355,72.8297 42.7009,79.2039 42.7339,80.9825 C 42.7595,82.3495 44.9263,84.8999 46.0756,84.9233 C 46.0178,85.5843 41.3538,137.4779 41.1747,137.9652 C 40.994,137.4781 36.2346,85.5845 36.177,84.9233 C 37.3263,84.8999 39.4932,82.3495 39.5185,80.9825 C 39.5519,79.1932 39.5077,72.8311 39.4702,72.3048 C 36.7827,72.2934 34.6867,72.3288 32.8644,72.5676 C 30.5553,72.8702 29.5429,74.8756 29.9297,76.7932 C 29.9394,76.8417 29.9545,76.8875 29.9781,76.9248 C 29.9951,76.9498 30.0229,76.9811 30.046,77.0014 C 30.6556,77.5111 33.1856,76.4393 33.8911,76.1694 C 33.8628,77.3259 31.574,80.4141 29.7263,80.2857 L 29.7263,80.2857 z"
       id="path21"
       style="fill:#e3e4e5;stroke:#000000;stroke-width:0.27000001" />
    <path
       class="fil4"
       d="M 28.3638,155.808 C 19.216,154.0347 13.0666,153.1045 3.9487,151.1629 L 11.4352,159.4207 L 0.8377,163.656 C 0.792,163.6743 10.7837,165.8744 17.2693,166.9776 L 18.8336,167.2436 L 18.8931,159.8089 C 18.7116,158.7321 19.7081,157.6672 21.759,158.2113 C 23.1016,158.6661 30.4579,160.5582 30.7401,157.9897 C 30.7623,157.7876 30.7407,157.5579 30.669,157.2977 C 30.5134,156.9104 30.1502,156.1821 28.3638,155.808 L 28.3638,155.808 z"
       id="path23"
       style="fill:#e3e4e5" />
    <path
       class="fil4"
       d="M 30.7401,157.99 C 30.4579,160.5585 23.1016,158.6664 21.759,158.2116 C 19.7081,157.6675 18.7116,158.7324 18.8931,159.8092 C 18.9948,160.4127 19.4665,161.02 20.33,161.3498 C 22.1163,162.425 28.0763,163.1438 30.3926,163.7576 L 30.7401,157.99 L 30.7401,157.99 z"
       id="path25"
       style="fill:#e3e4e5" />
    <path
       class="fil4"
       d="M 134.75,155.808 C 143.8978,154.0347 150.0472,153.1045 159.1651,151.1629 L 151.6786,159.4207 L 162.2761,163.656 C 162.3218,163.6743 152.3301,165.8744 145.8445,166.9776 L 144.2802,167.2436 L 144.2207,159.8089 C 144.4022,158.7321 143.4057,157.6672 141.3548,158.2113 C 140.0122,158.6661 132.6559,160.5582 132.3737,157.9897 C 132.3515,157.7876 132.3731,157.5579 132.4448,157.2977 C 132.6004,156.9104 132.9636,156.1821 134.75,155.808 L 134.75,155.808 z"
       id="path27"
       style="fill:#e3e4e5" />
    <path
       class="fil3 str3"
       d="M 132.445,157.298 C 132.6006,156.9107 132.9638,156.1824 134.7502,155.8083 C 143.898,154.035 150.0475,153.1048 159.1653,151.1632 L 151.6788,159.421 L 162.2763,163.6563 C 151.7489,166.009 156.3871,165.0077 145.8447,166.9779 C 145.7829,166.9895 144.3427,167.2323 144.2804,167.2439"
       id="path29"
       style="fill:none;stroke:#000000;stroke-width:0.30000001" />
    <path
       class="fil4"
       d="M 30.3927,163.757 C 53.7306,167.9684 76.2945,168.0336 81.5571,168.1085 C 86.8197,168.0336 109.3836,167.9684 132.7215,163.757 C 135.0378,163.1432 140.9978,162.4244 142.7841,161.3492 C 143.6476,161.0194 144.1193,160.4121 144.221,159.8086 L 144.2805,167.2433 L 144.3191,172.0836 C 144.2604,173.0891 144.0439,173.5201 143.2145,174.1037 C 118.4813,181.1938 93.1605,181.2699 81.5571,181.3407 C 69.9537,181.2699 44.6329,181.1938 19.8997,174.1037 C 19.0703,173.5201 18.8538,173.0891 18.7951,172.0836 L 18.8337,167.2433 L 18.8932,159.8086 C 18.9949,160.4121 19.4666,161.0194 20.3301,161.3492 C 22.1164,162.4244 28.0764,163.1432 30.3927,163.757 L 30.3927,163.757 z"
       id="path31"
       style="fill:#e3e4e5" />
    <path
       class="fil4"
       d="M 132.374,157.99 C 132.6562,160.5585 140.0125,158.6664 141.3551,158.2116 C 143.406,157.6675 144.4025,158.7324 144.221,159.8092 C 144.1193,160.4127 143.6476,161.02 142.7841,161.3498 C 140.9978,162.425 135.0378,163.1438 132.7215,163.7576 L 132.374,157.99 L 132.374,157.99 z"
       id="path33"
       style="fill:#e3e4e5" />
    <path
       class="fil3 str3"
       d="M 81.5571,168.109 C 86.8197,168.0341 109.3836,167.9689 132.7215,163.7575 C 135.0378,163.1437 140.9978,162.4249 142.7841,161.3497 C 145.1882,160.4315 144.5555,157.3624 141.3551,158.2115 C 139.9069,158.7021 131.4613,160.865 132.4452,157.2979"
       id="path35"
       style="fill:none;stroke:#000000;stroke-width:0.30000001" />
    <path
       class="fil3 str3"
       d="M 81.5571,181.341 C 93.1605,181.2702 118.4813,181.1941 143.2145,174.104 C 144.0439,173.5204 144.2604,173.0894 144.3191,172.0839 L 144.221,159.8089"
       id="path37"
       style="fill:none;stroke:#000000;stroke-width:0.30000001" />
    <line
       class="fil3 str3"
       x1="132.37399"
       y1="157.99001"
       x2="132.722"
       y2="163.757"
       id="line39"
       style="fill:none;stroke:#000000;stroke-width:0.30000001" />
    <path
       class="fil3 str3"
       d="M 81.5571,168.109 C 76.2945,168.0341 53.7306,167.9689 30.3927,163.7575 C 28.0764,163.1437 22.1164,162.4249 20.3301,161.3497 C 17.926,160.4315 18.5587,157.3624 21.7591,158.2115 C 23.2073,158.7021 31.6529,160.865 30.669,157.2979"
       id="path41"
       style="fill:none;stroke:#000000;stroke-width:0.30000001" />
    <path
       class="fil3 str3"
       d="M 81.5571,181.341 C 69.9537,181.2702 44.6329,181.1941 19.8997,174.104 C 19.0703,173.5204 18.8538,173.0894 18.7951,172.0839 L 18.8932,159.8089"
       id="path43"
       style="fill:none;stroke:#000000;stroke-width:0.30000001" />
    <path
       class="fil3 str3"
       d="M 30.669,157.298 C 30.5134,156.9107 30.1502,156.1824 28.3638,155.8083 C 19.216,154.035 13.0665,153.1048 3.9487,151.1632 L 11.4352,159.421 L 0.8377,163.6563 C 11.3651,166.009 6.7269,165.0077 17.2693,166.9779 C 17.3311,166.9895 18.7713,167.2323 18.8336,167.2439"
       id="path45"
       style="fill:none;stroke:#000000;stroke-width:0.30000001" />
    <line
       class="fil3 str3"
       x1="30.740101"
       y1="157.99001"
       x2="30.392599"
       y2="163.757"
       id="line47"
       style="fill:none;stroke:#000000;stroke-width:0.30000001" />
    <path
       class="fil5"
       d="M 23.9636,171.5868 L 23.9636,165.1885 L 25.5051,165.5711 C 25.8532,165.6575 26.119,165.7547 26.3024,165.8613 C 26.5588,166.0084 26.7777,166.2161 26.9591,166.4816 C 27.1946,166.8261 27.3717,167.2336 27.4885,167.7065 C 27.6063,168.1797 27.6647,168.7007 27.6647,169.2712 C 27.6647,169.7569 27.625,170.1775 27.5448,170.533 C 27.4656,170.8888 27.3645,171.1751 27.2394,171.3898 C 27.1154,171.6048 26.9799,171.7648 26.8318,171.8682 C 26.6849,171.9732 26.5067,172.0363 26.2982,172.0575 C 26.0888,172.0784 25.849,172.0547 25.5791,171.9877 L 23.9636,171.5868 L 23.9636,171.5868 z M 24.5556,170.9784 L 25.5114,171.2156 C 25.8063,171.2888 26.0388,171.3078 26.2065,171.2705 C 26.3744,171.2332 26.5077,171.156 26.6078,171.0379 C 26.7486,170.8732 26.858,170.6292 26.9361,170.3104 C 27.0143,169.9901 27.0538,169.5904 27.0538,169.1062 C 27.0538,168.4373 26.9768,167.9042 26.8235,167.5072 C 26.6693,167.1083 26.4827,166.8222 26.2628,166.6454 C 26.1044,166.5183 25.848,166.4115 25.4967,166.3243 L 24.5556,166.0907 L 24.5556,170.9784 L 24.5556,170.9784 z M 29.3233,172.9527 L 29.3233,166.5544 L 29.9154,166.7013 L 29.9154,173.0996 L 29.3233,172.9527 z M 33.8956,171.3466 L 33.8956,170.5973 L 35.8021,170.97 L 35.8021,173.3431 C 35.5096,173.6175 35.2078,173.8065 34.8965,173.9133 C 34.5853,174.0185 34.2656,174.0387 33.9386,173.974 C 33.4964,173.8865 33.0939,173.6729 32.7334,173.3319 C 32.3718,172.9923 32.0993,172.5481 31.9148,172.0036 C 31.7304,171.4576 31.6382,170.8702 31.6382,170.2416 C 31.6382,169.6189 31.7304,169.0562 31.9138,168.5532 C 32.0961,168.0484 32.3603,167.7 32.7041,167.5058 C 33.0478,167.3131 33.444,167.2604 33.8925,167.3491 C 34.2174,167.4134 34.5119,167.5461 34.7749,167.7487 C 35.038,167.9496 35.2445,168.1991 35.3933,168.4966 C 35.5432,168.7944 35.6564,169.1654 35.7349,169.6115 L 35.1973,169.7152 C 35.1292,169.3755 35.0453,169.1027 34.9458,168.8968 C 34.8452,168.6907 34.7016,168.5133 34.5151,168.3647 C 34.3295,168.2162 34.122,168.1185 33.8956,168.0737 C 33.6231,168.0198 33.3874,168.0328 33.1893,168.1113 C 32.9902,168.1896 32.8309,168.313 32.7082,168.4809 C 32.5867,168.6491 32.4923,168.8404 32.4242,169.0578 C 32.31,169.43 32.2524,169.8476 32.2524,170.3109 C 32.2524,170.8815 32.3215,171.3719 32.4599,171.7837 C 32.5982,172.1954 32.7994,172.5197 33.0635,172.7581 C 33.3276,172.9966 33.6074,173.1458 33.904,173.2045 C 34.1629,173.2557 34.4145,173.234 34.6597,173.141 C 34.906,173.0497 35.0914,172.9359 35.2183,172.8001 L 35.2183,171.6083 L 33.8956,171.3466 L 33.8956,171.3466 z M 37.4596,174.4997 L 37.4596,168.1014 L 38.072,168.2072 L 40.4418,173.6401 L 40.4418,168.6168 L 41.0143,168.7157 L 41.0143,175.114 L 40.4019,175.0082 L 38.0321,169.5708 L 38.0321,174.5986 L 37.4596,174.4997 z M 42.9534,175.4122 L 42.9534,169.0139 L 43.5501,169.117 L 43.5501,175.5153 L 42.9534,175.4122 z M 45.3532,175.7401 L 45.3532,169.3418 L 46.91,169.5721 C 47.2615,169.6241 47.5299,169.6951 47.7152,169.7835 C 47.9741,169.9053 48.1951,170.0914 48.3783,170.339 C 48.6161,170.6602 48.795,171.0502 48.913,171.5115 C 49.0319,171.9731 49.0908,172.4883 49.0908,173.0588 C 49.0908,173.5445 49.0509,173.9691 48.9698,174.3325 C 48.8898,174.6961 48.7877,174.9924 48.6614,175.2195 C 48.5361,175.4468 48.3993,175.6201 48.2499,175.7381 C 48.1014,175.8577 47.9214,175.9383 47.7109,175.9802 C 47.4994,176.0218 47.2573,176.0218 46.9847,175.9815 L 45.3532,175.7401 L 45.3532,175.7401 z M 45.9511,175.0732 L 46.9163,175.216 C 47.2142,175.2601 47.4489,175.2561 47.6184,175.2022 C 47.7878,175.1484 47.9225,175.058 48.0236,174.93 C 48.1657,174.7514 48.2762,174.4966 48.3551,174.1701 C 48.434,173.8421 48.474,173.4384 48.474,172.9542 C 48.474,172.2853 48.3961,171.7599 48.2414,171.378 C 48.0856,170.9943 47.8973,170.7267 47.6752,170.5716 C 47.5152,170.4601 47.2563,170.3786 46.9015,170.3262 L 45.9511,170.1855 L 45.9511,175.0732 z M 50.2422,176.2925 L 51.9817,170.1085 L 52.6269,170.1879 L 54.4805,176.8145 L 53.7972,176.7303 L 53.2691,174.7272 L 51.3755,174.494 L 50.8789,176.371 L 50.2422,176.2925 z M 51.5484,173.8255 L 53.0846,174.0147 L 52.6111,172.1852 C 52.4678,171.6297 52.3602,171.174 52.2906,170.8183 C 52.2327,171.2224 52.1515,171.6191 52.0461,172.0113 L 51.5484,173.8255 L 51.5484,173.8255 z M 55.7757,176.8781 L 55.7757,170.4798 L 57.3372,170.6335 C 57.6898,170.6682 57.9591,170.726 58.1449,170.8053 C 58.4046,170.9144 58.6263,171.0896 58.81,171.3282 C 59.0487,171.6377 59.2281,172.0188 59.3464,172.4744 C 59.4656,172.9301 59.5247,173.4424 59.5247,174.0129 C 59.5247,174.4986 59.4846,174.9252 59.4034,175.2926 C 59.3231,175.6601 59.2207,175.9614 59.094,176.1947 C 58.9684,176.4282 58.8311,176.6083 58.6812,176.7336 C 58.5323,176.8604 58.3518,176.95 58.1407,177.0022 C 57.9285,177.0542 57.6856,177.0661 57.4122,177.0392 L 55.7757,176.8781 L 55.7757,176.8781 z M 56.3755,176.1818 L 57.3436,176.2771 C 57.6424,176.3065 57.8778,176.291 58.0477,176.2287 C 58.2177,176.1666 58.3529,176.0696 58.4542,175.9366 C 58.5968,175.751 58.7076,175.4908 58.7868,175.1604 C 58.8659,174.8285 58.9061,174.4228 58.9061,173.9386 C 58.9061,173.2697 58.8279,172.7481 58.6728,172.3739 C 58.5165,171.9979 58.3276,171.7395 58.1048,171.5954 C 57.9443,171.4918 57.6846,171.423 57.3288,171.388 L 56.3755,171.2941 L 56.3755,176.1818 L 56.3755,176.1818 z M 61.2359,177.2292 L 61.2359,176.3339 L 61.8711,176.3807 L 61.8711,177.276 C 61.8711,177.6052 61.8299,177.8674 61.7474,178.0639 C 61.664,178.2588 61.5329,178.4056 61.3543,178.5042 L 61.199,178.156 C 61.3163,178.0917 61.4029,177.9908 61.4589,177.8549 C 61.515,177.7175 61.5456,177.5172 61.5519,177.2525 L 61.2359,177.2292 L 61.2359,177.2292 z M 66.5326,177.5366 L 66.5326,171.8936 L 65.036,171.82 L 65.036,171.0647 L 68.6363,171.2417 L 68.6363,171.997 L 67.1334,171.9231 L 67.1334,177.5661 L 66.5326,177.5366 L 66.5326,177.5366 z M 70.0647,177.659 L 70.0647,171.2607 L 72.0786,171.3597 C 72.4836,171.3796 72.7914,171.4529 73.002,171.5779 C 73.2124,171.703 73.3806,171.9138 73.5075,172.2106 C 73.6334,172.5088 73.6958,172.8335 73.6958,173.1851 C 73.6958,173.6395 73.5922,174.0157 73.3827,174.3168 C 73.1743,174.6179 72.8517,174.8002 72.416,174.8637 C 72.5756,174.9789 72.6963,175.0905 72.7788,175.2003 C 72.9544,175.4354 73.1204,175.7281 73.278,176.0755 L 74.0681,177.8558 L 73.3119,177.8187 L 72.7111,176.4573 C 72.5355,176.0658 72.3906,175.7638 72.2763,175.5556 C 72.1632,175.3459 72.0617,175.1979 71.9717,175.113 C 71.8818,175.0267 71.7909,174.9656 71.6978,174.9282 C 71.629,174.9054 71.518,174.8896 71.3625,174.8819 L 70.6655,174.8477 L 70.6655,177.6886 L 70.0647,177.659 L 70.0647,177.659 z M 70.6655,174.1148 L 71.958,174.1783 C 72.2319,174.1918 72.4477,174.1621 72.6021,174.0893 C 72.7577,174.0165 72.875,173.8941 72.9554,173.7223 C 73.0358,173.5505 73.076,173.3618 73.076,173.1547 C 73.076,172.8523 72.9988,172.5997 72.8422,172.3969 C 72.6868,172.194 72.4403,172.0851 72.1029,172.0685 L 70.6655,171.9979 L 70.6655,174.1148 z M 74.9416,177.813 L 76.6876,171.4576 L 77.3352,171.4735 L 79.1955,177.9175 L 78.5098,177.9006 L 77.9797,175.9495 L 76.0792,175.9028 L 75.5808,177.8287 L 74.9416,177.813 L 74.9416,177.813 z M 76.2527,175.2173 L 77.7945,175.2552 L 77.3194,173.4723 C 77.1754,172.931 77.0675,172.4858 76.9977,172.137 C 76.9395,172.5468 76.858,172.9515 76.7522,173.3541 L 76.2527,175.2173 L 76.2527,175.2173 z M 80.4511,177.8246 L 80.4511,171.4263 L 82.1568,171.4682 C 82.5039,171.4768 82.7822,171.5491 82.9917,171.6823 C 83.2022,171.8171 83.3664,172.0208 83.4849,172.2934 C 83.6034,172.5644 83.6637,172.8474 83.6637,173.1424 C 83.6637,173.415 83.6107,173.6714 83.505,173.9101 C 83.4002,174.149 83.2404,174.3401 83.0277,174.4839 C 83.3028,174.6039 83.5134,174.8028 83.6615,175.079 C 83.8097,175.3567 83.8838,175.6819 83.8838,176.0543 C 83.8838,176.3537 83.8383,176.6311 83.7483,176.8866 C 83.6583,177.1422 83.5473,177.3376 83.415,177.4743 C 83.2827,177.6112 83.1166,177.7113 82.9177,177.7779 C 82.7187,177.8445 82.4743,177.8743 82.1843,177.8672 L 80.4511,177.8246 L 80.4511,177.8246 z M 81.0531,174.13 L 82.0362,174.1542 C 82.3018,174.1607 82.4933,174.1401 82.6097,174.0938 C 82.7621,174.0335 82.8774,173.9305 82.9547,173.7834 C 83.032,173.6363 83.0711,173.4511 83.0711,173.2277 C 83.0711,173.0161 83.0352,172.8275 82.9632,172.6648 C 82.8902,172.5007 82.7864,172.3879 82.6531,172.325 C 82.5187,172.2621 82.288,172.2267 81.9611,172.2187 L 81.0531,172.1964 L 81.0531,174.13 L 81.0531,174.13 z M 81.0531,177.0841 L 82.1843,177.1119 C 82.379,177.1167 82.5156,177.1096 82.5939,177.0922 C 82.7324,177.0599 82.8478,177.0046 82.941,176.9249 C 83.0341,176.8468 83.1102,176.7294 83.1706,176.576 C 83.2298,176.4211 83.2605,176.243 83.2605,176.0389 C 83.2605,175.8005 83.2171,175.5925 83.1303,175.413 C 83.0436,175.2351 82.923,175.1085 82.7685,175.0333 C 82.615,174.9594 82.3928,174.9182 82.1039,174.9111 L 81.0531,174.8853 L 81.0531,177.0841 L 81.0531,177.0841 z M 85.0123,177.9028 L 86.7583,171.4616 L 87.4059,171.4457 L 89.2662,177.7983 L 88.5805,177.8152 L 88.0504,175.8901 L 86.1499,175.9368 L 85.6515,177.8871 L 85.0123,177.9028 L 85.0123,177.9028 z M 86.3234,175.2427 L 87.8652,175.2048 L 87.3901,173.4453 C 87.2461,172.911 87.1382,172.4712 87.0684,172.1258 C 87.0102,172.5384 86.9287,172.9471 86.8229,173.3549 L 86.3234,175.2427 L 86.3234,175.2427 z M 90.2401,175.9882 L 90.7828,175.8573 C 90.7965,176.3453 90.8621,176.6772 90.9774,176.8518 C 91.0937,177.0264 91.2535,177.1079 91.4576,177.0979 C 91.6088,177.0904 91.7389,177.0363 91.8479,176.9327 C 91.9579,176.8304 92.033,176.6942 92.0742,176.5253 C 92.1154,176.3549 92.1366,176.0872 92.1366,175.7207 L 92.1366,171.3127 L 92.7374,171.2832 L 92.7374,175.6436 C 92.7374,176.1784 92.692,176.5962 92.5999,176.8942 C 92.5079,177.1922 92.3619,177.4228 92.163,177.5875 C 91.9632,177.7508 91.7294,177.8397 91.4608,177.8529 C 91.062,177.8725 90.7574,177.7267 90.5448,177.4138 C 90.3333,177.1009 90.2318,176.6262 90.2401,175.9882 L 90.2401,175.9882 z M 94.3389,174.5923 C 94.3389,173.5301 94.541,172.689 94.946,172.0687 C 95.3511,171.4485 95.8736,171.1218 96.5146,171.0903 C 96.9334,171.0697 97.3121,171.1927 97.6484,171.4576 C 97.9848,171.7242 98.2418,172.1049 98.4185,172.6012 C 98.595,173.096 98.6828,173.6652 98.6828,174.3043 C 98.6828,174.9538 98.5908,175.5393 98.4047,176.0595 C 98.2185,176.5811 97.9552,176.9814 97.6146,177.2618 C 97.2729,177.5423 96.9059,177.6913 96.5114,177.7107 C 96.083,177.7318 95.7012,177.6061 95.3649,177.3307 C 95.0275,177.0568 94.7726,176.6715 94.5991,176.1765 C 94.4257,175.6831 94.3389,175.1539 94.3389,174.5923 L 94.3389,174.5923 z M 94.9587,174.5753 C 94.9587,175.347 95.1058,175.946 95.3997,176.3755 C 95.6949,176.805 96.064,177.0087 96.5082,176.9869 C 96.9609,176.9646 97.3332,176.7229 97.6251,176.2602 C 97.9171,175.7974 98.0641,175.1541 98.0641,174.3303 C 98.0641,173.8103 98.0006,173.3591 97.8758,172.9765 C 97.751,172.5938 97.568,172.3018 97.328,172.0991 C 97.0868,171.898 96.817,171.8039 96.5177,171.8186 C 96.0915,171.8396 95.7255,172.0632 95.4188,172.4909 C 95.1121,172.9171 94.9587,173.613 94.9587,174.5753 L 94.9587,174.5753 z M 100.3346,177.4141 L 100.3346,176.5188 L 100.9698,176.472 L 100.9698,177.3673 C 100.9698,177.6965 100.9286,177.9647 100.8461,178.1734 C 100.7627,178.3807 100.6316,178.5467 100.4531,178.6717 L 100.2977,178.3465 C 100.415,178.2648 100.5017,178.1511 100.5576,178.007 C 100.6137,177.8614 100.6443,177.6565 100.6506,177.3908 L 100.3346,177.4141 L 100.3346,177.4141 z M 104.4998,177.142 L 104.4998,170.7437 L 105.1004,170.6846 L 105.1004,176.3276 L 107.3335,176.1078 L 107.3335,176.8631 L 104.4998,177.142 z M 108.9583,176.7573 L 108.9583,170.359 L 109.5572,170.2852 L 109.5572,176.6835 L 108.9583,176.7573 z M 111.395,176.5049 L 111.395,170.1066 L 113.0945,169.8973 C 113.4403,169.8547 113.7175,169.8861 113.9263,169.9885 C 114.1361,170.0922 114.2996,170.2718 114.4177,170.5269 C 114.5357,170.7804 114.5958,171.0546 114.5958,171.3496 C 114.5958,171.6222 114.5431,171.8864 114.4377,172.1407 C 114.3333,172.3949 114.1741,172.6096 113.9621,172.7848 C 114.2363,172.8642 114.4461,173.0321 114.5937,173.2865 C 114.7413,173.5424 114.8151,173.8566 114.8151,174.229 C 114.8151,174.5284 114.7698,174.8126 114.6802,175.0813 C 114.5905,175.3502 114.4798,175.5619 114.348,175.7181 C 114.2163,175.8745 114.0507,175.999 113.8525,176.095 C 113.6543,176.1909 113.4108,176.2567 113.1219,176.2922 L 111.395,176.5049 z M 111.9948,172.7216 L 112.9743,172.601 C 113.2389,172.5684 113.4298,172.5196 113.5458,172.4561 C 113.6975,172.3734 113.8125,172.2535 113.8895,172.095 C 113.9664,171.9365 114.0054,171.7455 114.0054,171.5221 C 114.0054,171.3105 113.9696,171.1272 113.8979,170.9752 C 113.8251,170.8218 113.7218,170.7242 113.589,170.681 C 113.455,170.6379 113.2252,170.6365 112.8994,170.6766 L 111.9948,170.788 L 111.9948,172.7216 L 111.9948,172.7216 z M 111.9948,175.6757 L 113.1219,175.5369 C 113.3159,175.513 113.4519,175.4859 113.5299,175.4569 C 113.668,175.4042 113.783,175.3319 113.8758,175.2385 C 113.9685,175.1467 114.0444,175.0181 114.1045,174.8558 C 114.1635,174.6921 114.1942,174.5096 114.1942,174.3055 C 114.1942,174.0671 114.1509,173.8654 114.0644,173.6988 C 113.978,173.5336 113.8579,173.4248 113.7039,173.3723 C 113.551,173.321 113.3296,173.3126 113.0418,173.348 L 111.9948,173.4769 L 111.9948,175.6757 L 111.9948,175.6757 z M 116.4674,175.9516 L 116.4674,169.5533 L 119.7356,169.0698 L 119.7356,169.8251 L 117.0653,170.2202 L 117.0653,172.1791 L 119.566,171.8091 L 119.566,172.5599 L 117.0653,172.9299 L 117.0653,175.1079 L 119.8408,174.6973 L 119.8408,175.4526 L 116.4674,175.9516 L 116.4674,175.9516 z M 121.4986,175.2248 L 121.4986,168.8265 L 123.4987,168.4808 C 123.901,168.4113 124.2066,168.4166 124.4157,168.4951 C 124.6247,168.5737 124.7918,168.7474 124.9178,169.0162 C 125.0428,169.2865 125.1047,169.5975 125.1047,169.9491 C 125.1047,170.4035 125.0019,170.8026 124.7938,171.15 C 124.5869,171.497 124.2665,171.7506 123.8338,171.9103 C 123.9923,171.9902 124.1121,172.0752 124.1941,172.1668 C 124.3684,172.3631 124.5333,172.6192 124.6898,172.9318 L 125.4745,174.5376 L 124.7235,174.6674 L 124.1268,173.4388 C 123.9524,173.086 123.8085,172.816 123.695,172.633 C 123.5826,172.4483 123.4818,172.3227 123.3925,172.2577 C 123.3033,172.1912 123.2129,172.1502 123.1205,172.1334 C 123.0522,172.1258 122.9419,172.1345 122.7875,172.1611 L 122.0953,172.2808 L 122.0953,175.1217 L 121.4986,175.2248 L 121.4986,175.2248 z M 122.0953,171.5479 L 123.3789,171.326 C 123.651,171.279 123.8652,171.2017 124.0186,171.0948 C 124.1731,170.9877 124.2897,170.8393 124.3694,170.6498 C 124.4494,170.4602 124.4893,170.2626 124.4893,170.0555 C 124.4893,169.7531 124.4126,169.5176 124.257,169.3494 C 124.1027,169.1808 123.8579,169.1263 123.5228,169.1843 L 122.0953,169.431 L 122.0953,171.5479 L 122.0953,171.5479 z M 127.8414,174.1835 L 127.8414,168.5405 L 126.3585,168.8339 L 126.3585,168.0786 L 129.9259,167.3728 L 129.9259,168.1281 L 128.4367,168.4227 L 128.4367,174.0657 L 127.8414,174.1835 L 127.8414,174.1835 z M 130.409,173.7037 L 132.1337,166.9209 L 132.7735,166.7783 L 134.6111,172.7669 L 133.9337,172.9179 L 133.4101,171.0965 L 131.5327,171.5151 L 131.0404,173.5629 L 130.409,173.7037 L 130.409,173.7037 z M 131.7041,170.787 L 133.2272,170.4475 L 132.7578,168.7809 C 132.6156,168.2748 132.509,167.8561 132.44,167.5244 C 132.3825,167.9484 132.3021,168.3731 132.1975,168.8016 L 131.7041,170.787 L 131.7041,170.787 z M 135.8728,172.4198 L 135.8728,166.0215 L 137.4143,165.6389 C 137.7624,165.5525 138.0282,165.5179 138.2116,165.5333 C 138.468,165.5532 138.6869,165.6523 138.8683,165.8278 C 139.1039,166.0553 139.281,166.3748 139.3978,166.7897 C 139.5155,167.2045 139.5739,167.6965 139.5739,168.267 C 139.5739,168.7527 139.5342,169.1931 139.454,169.5884 C 139.3748,169.9834 139.2737,170.3199 139.1486,170.5968 C 139.0246,170.8734 138.8891,171.1006 138.741,171.2774 C 138.5941,171.4554 138.4159,171.6069 138.2074,171.7317 C 137.998,171.8566 137.7582,171.9519 137.4883,172.0189 L 135.8728,172.4198 L 135.8728,172.4198 z M 136.4648,171.5176 L 137.4206,171.2804 C 137.7155,171.2072 137.948,171.1108 138.1157,170.9901 C 138.2836,170.8696 138.4169,170.7262 138.517,170.5583 C 138.6578,170.3238 138.7672,170.0256 138.8453,169.668 C 138.9235,169.3089 138.9631,168.8894 138.9631,168.4052 C 138.9631,167.7363 138.886,167.2416 138.7327,166.9206 C 138.5785,166.5983 138.3919,166.4048 138.1721,166.3372 C 138.0136,166.2887 137.7572,166.3091 137.4059,166.3963 L 136.4648,166.6299 L 136.4648,171.5176 L 136.4648,171.5176 z"
       id="path49"
       style="fill:#000000;fill-rule:nonzero" />
    <g
       transform="matrix(1.0321696,0,0,0.8530707,-4.0173478,19.618091)"
       id="_38435536">
   <path
   id="path1048"
   class="fil7 str4"
   d="M 132.072,124.293 C 132.072,125.2616 132.6381,125.9409 133.8304,126.6308 M 132.072,124.293 L 132.072,124.293 L 132.072,124.293 z"
   nodetypes="cc"
   style="fill:#fcef3c;stroke:#000000;stroke-width:0.28773701;stroke-linejoin:round" />

   <path
   id="path48655"
   class="fil4 str4"
   d="M 137.762,125.21 C 137.2531,126.8572 137.6957,127.8523 136.7536,128.7186 C 135.7323,129.6577 133.1989,128.4076 132.0011,130.9478 L 131.5085,123.2142 L 137.762,125.21 L 137.762,125.21 z"
   nodetypes="csccc"
   style="fill:#e3e4e5;stroke:#000000;stroke-width:0.28773701;stroke-linejoin:round" />

   <path
   id="path51603"
   class="fil8 str5"
   d="M 139.616,112.813 C 139.9524,113.9238 139.3879,114.5789 138.7417,115.0804 C 138.0717,115.6005 137.3807,116.1182 136.6301,116.5233 C 135.0039,117.4007 133.0482,119.8309 134.8647,121.3587 C 135.2227,121.6598 135.8521,121.3732 136.242,121.149 C 136.6695,120.9032 136.1716,120.4397 136.0477,120.13 C 135.2691,118.1828 137.2866,117.5152 138.6549,116.4809 C 139.7796,115.6307 140.9371,114.0352 139.616,112.813 L 139.616,112.813 z"
   nodetypes="cssssssc"
   style="fill:#000000;stroke:#000000;stroke-width:0.19182467;stroke-linejoin:bevel" />

   <path
   id="path40783"
   class="fil4 str4"
   d="M 125.132,133.362 C 127.1248,133.4611 128.1649,133.2556 129.8002,132.6129 C 130.4718,132.3275 133.6969,130.1273 133.7733,127.5296 C 135.042,128.2579 134.4865,126.7811 135.3442,126.9235 C 135.9809,126.965 136.6267,126.9313 137.2654,126.9098 C 137.9817,126.8856 138.1759,127.3928 138.8453,127.4486 C 139.4995,127.503 140.1025,127.7017 140.6334,127.5841 C 141.2289,127.4522 141.7338,126.9711 142.1187,126.3988 C 142.4664,125.8816 141.7588,125.1886 141.4637,124.6126 L 140.3818,122.5012 C 139.9223,121.6043 140.0446,120.791 139.8183,119.7734 C 139.4847,118.2736 138.2512,118.1254 137.8902,117.6724 C 137.4598,117.1323 137.0365,116.8115 136.4533,116.4144 C 135.2907,115.6229 133.8947,115.6395 132.7429,116.3826 C 130.6024,117.6668 127.995,119.1436 125.0936,119.7142 L 125.132,133.362 L 125.132,133.362 z"
   nodetypes="csscccccccccssccssccscccccccsccccssccccccssssssssscc"
   style="fill:#e3e4e5;stroke:#000000;stroke-width:0.28773701;stroke-linejoin:round" />

   <path
   id="path50631"
   class="fil8 str5"
   d="M 136.927,110.561 C 137.3378,111.6464 136.8191,112.3382 136.2084,112.8824 C 135.575,113.4467 134.9207,114.01 134.1992,114.4649 C 132.6363,115.4506 130.8497,118.0077 132.7655,119.4089 C 133.143,119.685 133.7516,119.3564 134.1254,119.1064 C 134.5353,118.8322 134.0071,118.4035 133.8626,118.1029 C 132.9539,116.2129 134.9214,115.4102 136.2165,114.2856 C 137.2811,113.3612 138.3278,111.6909 136.927,110.561 L 136.927,110.561 z"
   nodetypes="cssssssc"
   style="fill:#000000;stroke:#000000;stroke-width:0.19182467;stroke-linejoin:bevel" />

   <path
   id="path52574"
   class="fil3 str4"
   d="M 129.951,126.927 C 130.3043,128.9823 130.0975,130.9649 129.3748,132.7749"
   nodetypes="cc"
   style="fill:none;stroke:#000000;stroke-width:0.28773701;stroke-linejoin:round" />

   <path
   id="path52576"
   class="fil3 str4"
   d="M 133.244,120.435 C 133.1096,121.2654 133.2848,122.302 133.9026,123.6338"
   nodetypes="cc"
   style="fill:none;stroke:#000000;stroke-width:0.28773701;stroke-linejoin:round" />

   <polygon
   id="path1049"
   class="fil4 str4"
   points="138.691,121.324 138.691,121.324 "
   nodetypes="cscsc"
   style="fill:#e3e4e5;stroke:#000000;stroke-width:0.28773701;stroke-linejoin:round" />

   <polygon
   id="path1050"
   class="fil4 str4"
   points="137.101,120.375 137.101,120.375 "
   nodetypes="cc"
   style="fill:#e3e4e5;stroke:#000000;stroke-width:0.28773701;stroke-linejoin:round" />

   <path
   id="path1050_0"
   class="fil3 str4"
   d="M 136.975,120.32 C 136.0838,120.1828 135.7378,120.3423 135.1669,119.8952"
   nodetypes="cc"
   style="fill:none;stroke:#000000;stroke-width:0.28773701;stroke-linejoin:round" />

   <path
   id="path1067"
   class="fil4 str4"
   d="M 134.433,118.842 C 134.3432,118.5235 134.0614,118.4105 133.5505,118.1722 C 132.9342,117.8849 131.9963,118.2116 131.1139,117.9723 C 130.2625,117.7414 129.4435,117.1605 128.8491,116.6935 C 128.9278,117.4732 130.2759,120.9511 132.9388,119.6826 C 133.3484,119.4875 133.8809,120.1761 134.3163,119.8931 M 134.433,118.842 L 134.433,118.842 L 134.433,118.842 z"
   nodetypes="csscsc"
   transform-center-y="-18.067532"
   transform-center-x="6.8305148"
   style="fill:#e3e4e5;stroke:#000000;stroke-width:0.28773701;stroke-linejoin:round" />

   <polygon
   id="path1054"
   class="fil7 str4"
   points="140.036,125.09 140.036,125.09 "
   style="fill:#fcef3c;stroke:#000000;stroke-width:0.28773701;stroke-linejoin:round" />

   <path
   id="path1054_1"
   class="fil3 str4"
   d="M 140.036,125.09 C 140.3674,125.7527 141.773,126.1502 140.0034,126.4812 C 139.9097,126.4988 139.5008,125.9711 139.5735,125.852"
   style="fill:none;stroke:#000000;stroke-width:0.28773701;stroke-linejoin:round" />

   <path
   id="path35202"
   class="fil3 str4"
   d="M 139.412,127.521 C 139.1205,127.4429 138.8466,127.4935 138.5854,127.379 C 137.77,127.0214 137.0801,126.2904 136.3746,125.1291"
   nodetypes="csc"
   style="fill:none;stroke:#000000;stroke-width:0.28773701;stroke-linejoin:round" />

   <path
   id="path49660"
   class="fil3 str4"
   d="M 133.836,119.821 C 133.6232,118.3372 131.0462,119.1748 128.9796,117.0269"
   nodetypes="cc"
   style="fill:none;stroke:#000000;stroke-width:0.28773701;stroke-linejoin:round" />

   <path
   id="_38466448"
   class="fil4 str4"
   d="M 136.178,120.975 L 136.178,120.975 z M 136.9574,120.7101 L 136.9574,120.7101 z M 137.2915,120.4732 C 137.4304,120.5773 137.4801,120.9756 137.8521,120.9679 C 137.1384,121.0615 136.6058,121.798 135.9819,121.2867 C 135.872,121.1967 135.7593,121.0679 135.6422,120.8902 C 135.7157,120.7318 135.9336,120.5353 136.2079,120.4114 C 136.3756,120.3357 136.5643,120.287 136.754,120.2907 C 136.8239,120.2987 136.8974,120.3084 136.975,120.3203 C 137.0842,120.3485 137.191,120.3978 137.2915,120.4732 L 137.2915,120.4732 z M 136.9574,120.7099 C 136.8676,120.4455 136.6202,120.2904 136.405,120.3635 C 136.342,120.3849 136.2887,120.4235 136.2471,120.4741 C 136.1467,120.5961 136.1144,120.7877 136.1781,120.9751 C 136.1986,121.0353 136.2272,121.0899 136.2617,121.1374 C 136.3789,121.2983 136.5643,121.378 136.7305,121.3215 C 136.9457,121.2484 137.0473,120.9747 136.9574,120.7099 L 136.9574,120.7099 z"
   style="fill:#e3e4e5;stroke:#000000;stroke-width:0.28773701;stroke-linejoin:round" />

   <path
   id="path11022"
   class="fil9 str4"
   d="M 136.957,120.71 C 136.957,120.7099 136.957,120.7099 136.957,120.7098 C 136.8671,120.4454 136.6198,120.2903 136.4046,120.3634 C 136.1894,120.4366 136.0877,120.7103 136.1776,120.9747 C 136.1776,120.9747 136.1776,120.9748 136.1776,120.9749 C 136.1776,120.975 136.1776,120.975 136.1777,120.975 C 136.2675,121.2394 136.5149,121.3945 136.7301,121.3214 C 136.9453,121.2483 137.0469,120.9746 136.9571,120.7102 C 136.9571,120.7101 136.9571,120.7101 136.9571,120.71 L 136.957,120.71 z"
   ry="5.1580896"
   rx="4.1984453"
   cy="121.99482"
   cx="67.055168"
   type="arc"
   style="fill:#191919;stroke:#000000;stroke-width:0.28773701;stroke-linejoin:round" />

   <path
   id="path1049_2"
   class="fil3 str4"
   d="M 138.691,121.324 C 138.3803,121.0168 138.4236,121.0151 138.1702,120.9725 C 137.1526,120.8017 136.5184,122.2217 135.6415,120.8899 C 135.8036,120.5404 136.6686,120.006 137.2908,120.4729 C 137.4394,120.5843 137.4859,121.0324 137.9343,120.9597"
   nodetypes="cscsc"
   style="fill:none;stroke:#000000;stroke-width:0.28773701;stroke-linejoin:round" />

  </g>
    <g
       id="_38880424">
   <path
   id="_38599392"
   class="fil8"
   d="M 119.466,128.685 L 120.0208,129.2484 C 120.0921,129.4275 120.1879,129.7587 120.1563,130.0251 L 120.5022,129.9194 L 120.4811,129.716 C 120.7529,129.5886 120.9251,129.3852 120.9566,129.2673 C 121.0048,127.5706 120.3696,127.4277 120.1417,127.0971 C 120.4545,126.2657 120.0236,124.8456 119.2451,124.4217 C 118.9684,124.2711 119.0858,124.0036 118.9753,123.5401 C 118.8649,123.0766 118.2745,122.5326 117.8749,122.389 C 117.8983,122.1068 117.3909,121.6798 117.2551,121.6336 C 117.118,121.587 116.6073,121.4595 116.4027,120.823 C 116.0996,120.2684 115.8963,119.7295 115.4517,119.5215 C 115.0795,119.371 114.7318,119.3949 114.3461,119.4312 C 113.9262,119.5822 114.0304,118.799 113.9248,118.6762 C 113.8128,118.546 113.546,118.3614 112.748,118.3727 C 112.7132,118.0402 112.1951,117.8918 111.9108,117.8526 C 111.4562,117.8005 110.7786,117.9409 110.2716,118.2387 C 109.9106,118.299 109.8436,118.277 109.677,118.3565 C 109.282,117.9802 108.4564,117.0481 108.0376,116.2602 C 107.8611,115.9281 107.9377,115.7929 107.768,115.7237 C 106.302,116.0878 107.3337,117.9085 106.7736,117.7127 C 106.3142,117.6649 106.5257,117.2877 106.631,117.0784 C 106.419,116.3987 105.9231,117.5926 105.8276,117.0492 C 105.7321,116.5058 105.2752,116.5819 105.0253,116.9143 C 104.6798,117.4575 104.8277,117.9827 104.8947,118.3413 C 104.2244,118.4617 103.4761,118.7505 103.3561,119.6316 C 103.2881,120.1315 103.461,121.0658 104.4488,119.9048 C 104.5033,119.8408 104.7521,119.9135 104.8293,119.8554 C 104.1643,120.5388 103.9904,121.0202 103.6445,121.2935 C 103.1047,121.7197 102.6326,121.8246 102.6976,122.2772 C 102.8504,122.673 102.6255,123.0173 102.1886,123.5722 C 101.7052,124.3155 101.4117,124.6407 101.1987,125.3472 C 101.0934,125.8278 100.4424,125.9407 100.3198,126.4413 C 100.1953,126.9773 99.7453,127.2413 99.8602,127.8534 C 100.0394,128.3939 100.2432,129.057 100.4125,129.5204 C 100.547,129.9822 100.896,130.3347 101.473,130.2409 C 102.0225,130.108 102.3335,129.9233 102.5279,129.7824 C 103.2518,130.92 104.0857,129.8133 104.1645,129.7846 C 105.1104,129.8779 105.2644,129.2195 105.2224,128.5774 C 105.2648,128.2712 105.4773,127.8532 105.7934,127.7331 C 106.3766,127.4418 106.8331,127.1971 107.3054,126.7881 C 107.5747,126.5491 107.9889,126.1136 108.337,126.2164 C 108.1373,126.6792 108.5557,127.1534 108.6297,127.7115 C 108.6742,128.0464 108.6347,128.5764 108.6262,128.8171 C 108.5563,129.1668 108.4259,129.7099 108.2909,130.1708 C 108.1559,130.6316 107.8577,131.1241 107.6895,131.5557 C 107.6033,131.777 107.3894,132.8574 107.456,133.9058 C 107.5369,133.8015 107.6414,133.6711 107.7603,133.5849 C 107.7157,133.2424 107.6944,133.4421 107.7293,133.0921 C 107.7643,132.742 107.7295,132.595 107.8535,132.0525 C 107.9774,131.5101 108.48,130.6413 108.7097,129.9047 C 108.7488,129.8332 108.8411,129.2678 108.9337,129.0358 C 109.0048,128.4116 109.0827,127.727 108.8109,127.1373 C 108.5675,126.839 108.4906,126.2774 108.6767,126.1376 C 108.9999,126.0552 109.2219,125.9467 109.7084,125.5522 C 109.8769,125.6251 109.561,126.1893 109.5706,126.3876 C 109.2724,127.118 109.7651,126.3055 109.897,125.9766 C 110.0289,125.6478 109.9233,125.3376 110.085,125.0524 C 110.2466,124.7672 110.1833,124.863 110.4054,124.366 C 110.5344,123.7516 110.4913,123.1532 110.3114,122.5766 C 110.1697,121.4811 109.9768,122.4972 110.2151,122.9971 C 110.2604,123.285 110.2999,123.5495 110.281,123.9012 C 110.2621,124.253 110.075,124.7196 109.8236,125.0379 C 109.5722,125.3562 109.2809,125.5704 108.9442,125.7515 C 108.5396,125.9934 108.0346,125.7838 107.6632,126.0982 C 107.1999,126.4398 106.8832,127.0224 106.293,127.1746 C 105.8849,127.6554 105.614,127.094 105.3205,127.191 C 105.5432,127.5132 105.2512,127.8181 105.0933,128.0765 C 104.7017,128.5158 105.2222,129.2336 104.6001,129.5247 C 104.2772,129.6374 104.1968,129.3827 103.8795,129.6882 C 103.7546,130.0327 102.8668,130.2748 103.3725,129.8787 C 103.8839,129.6215 103.9323,128.9896 104.132,128.5012 C 104.1397,128.2033 104.769,127.916 104.2736,127.7616 C 103.7232,127.8728 103.2146,128.2831 102.9912,128.8218 C 102.8266,129.3867 102.2806,129.7261 101.7734,129.9287 C 101.2662,130.1312 100.8483,130.0328 100.6555,129.5963 C 100.4611,129.1561 100.1921,128.2967 100.1146,127.8625 C 99.9193,127.4214 100.345,127.1175 100.4492,126.738 C 100.5196,126.1367 101.2007,126.0581 101.4144,125.5603 C 101.4589,125.0351 101.9038,124.5031 102.1637,124.0925 C 102.326,123.831 102.1237,124.0973 102.3992,123.7462 C 102.7125,123.3659 103.1388,122.9438 103.0109,122.385 C 102.9065,121.8487 103.5937,121.7022 103.8738,121.4392 C 104.2366,121.1208 104.4233,120.6727 104.7464,120.312 C 104.9606,120.0333 105.2738,119.967 105.5999,119.9744 C 105.8166,119.921 106.3095,119.8621 106.1881,119.5513 C 105.8866,119.6151 105.5767,119.6719 105.2674,119.662 C 104.9004,119.4455 104.4057,119.2701 104.1102,119.7128 C 103.9896,120.155 103.5353,120.3611 103.6673,119.6384 C 103.7403,119.1692 104.2113,118.8319 104.6393,118.7427 C 105.022,118.6986 105.4361,118.5104 105.7875,118.7691 C 106.1453,118.8012 105.6964,118.2217 105.9025,117.9572 C 106.107,117.0895 106.4249,118.5181 107.0081,118.1954 C 107.1308,118.7026 107.1538,119.2974 107.5679,119.6777 C 107.7148,120.0731 108.2255,119.946 107.8026,119.6223 C 107.3806,119.4266 107.4663,118.8454 107.3672,118.4485 C 107.3996,117.9451 107.2071,117.4645 107.2062,116.9633 C 107.1981,116.6381 107.2557,116.1466 107.5978,116.0941 C 107.7768,116.5562 108.0578,116.963 108.3491,117.3539 C 108.6536,117.6903 108.8862,118.1039 109.222,118.4021 C 109.5731,118.7996 109.7696,119.5472 109.3479,119.9514 C 108.7925,120.2391 109.2538,120.3997 109.6149,120.0698 C 110.0757,119.3368 109.6965,120.7825 110.1894,120.1415 C 110.263,120.2042 110.4006,120.2765 110.4346,120.3025 C 110.6673,120.4948 110.7971,120.7905 110.8377,121.091 C 111.099,121.8411 110.9544,120.3831 110.5937,120.228 C 110.5674,120.1939 110.611,120.0835 110.6255,120.0408 C 110.7308,120.0944 110.8324,120.0972 110.9323,120.0724 C 110.9671,120.1219 110.9768,120.1341 111.005,120.181 C 111.2012,120.6436 111.6953,121.0389 111.5348,121.5816 C 111.4757,122.0738 111.884,121.5359 111.744,121.2902 C 111.6936,120.9733 111.0349,120.05 111.6962,120.5195 C 112.076,120.7264 112.3727,121.0475 112.6433,121.4011 C 112.996,121.9919 113.5552,122.5912 113.5032,123.3407 C 113.5118,123.3579 113.6578,123.3876 113.6549,123.2773 C 113.6529,123.2011 113.653,122.9807 113.6336,122.8743 C 113.5946,122.6614 113.4979,122.4189 113.4187,122.2955 C 113.1111,121.8379 112.6899,121.44 112.5077,120.9157 C 112.8631,120.825 113.0813,121.2804 113.3107,121.5047 C 113.7226,122.0609 113.2464,121.32 113.4018,121.2404 C 113.6746,121.5866 114.1149,121.9284 114.3294,122.1957 C 114.544,122.463 114.7424,122.6965 114.787,122.7384 C 114.8315,122.7803 114.9839,123.014 115.2537,123.3919 C 115.5234,123.7698 116.091,124.8572 116.2728,125.2936 C 116.4549,125.7309 116.5835,126.125 116.616,126.2256 C 116.6622,126.4703 116.7891,127.0567 116.8287,127.6663 C 116.8683,128.2769 116.9724,129.0039 116.9093,129.6782 C 116.903,129.7986 116.9038,129.8078 116.898,129.8644 C 116.8923,129.9213 116.9024,129.8948 116.8794,130.0044 C 116.8696,130.0687 116.8901,130.1285 116.9189,130.1607 C 116.9477,130.1929 116.9846,130.1965 117.0089,130.1483 C 117.0332,130.1002 117.0189,130.0189 117.0135,129.8624 C 117.008,129.7059 117.0323,129.4954 117.0397,129.3316 C 117.242,128.7534 117.1952,129.6894 117.1993,129.7265 C 117.2034,129.7636 117.1474,130.7485 117.14,130.8445 C 117.1931,130.8561 117.1915,130.8388 117.2335,130.8357 C 117.3003,130.3062 117.3023,129.7357 117.3021,129.7041 C 117.2916,129.3312 117.1271,127.9512 117.063,127.4967 C 116.9998,127.0478 116.9634,126.7192 116.8431,126.2731 C 116.5646,125.5612 116.3009,124.8481 115.9125,124.1453 C 115.6692,123.5914 115.2037,122.9172 114.9778,122.6506 C 114.7519,122.3839 114.4404,121.9731 114.1751,121.7245 C 113.9098,121.4758 113.7147,121.3389 113.5209,121.08 C 113.363,120.8821 113.149,120.8029 112.9751,120.6389 C 112.7376,120.5012 112.5465,120.3212 112.312,120.2104 C 112.0806,120.0478 111.8403,119.9015 111.6034,119.7484 C 111.3248,119.6246 111.0896,119.412 110.7904,119.3511 C 110.5544,119.2209 110.2953,119.31 110.0681,119.177 C 109.6527,118.7695 109.9534,118.5822 110.4165,118.5602 C 110.7561,118.2908 111.1774,118.1983 111.5992,118.1379 C 111.8583,118.0555 112.5425,118.1856 112.1813,118.5638 C 111.8795,118.8356 111.4852,118.8654 111.1256,118.9498 C 111.3318,119.1242 111.6306,118.9789 111.8738,118.9548 C 112.3998,118.6011 113.3986,118.588 113.6209,118.8147 C 113.6914,118.9097 113.7996,119.7633 113.2034,119.4017 C 112.5518,119.4046 113.3364,119.5467 113.5339,119.7492 C 113.9387,120.0726 114.4066,119.6694 114.8441,119.7245 C 115.1367,119.6231 115.818,120.074 115.176,120.0659 C 114.8739,120.2426 114.3003,120.3282 114.1831,120.4773 C 114.5554,120.5359 114.853,120.2604 115.216,120.2496 C 115.4698,120.3089 115.9851,120.351 116.0118,120.6869 C 115.5924,120.7382 115.1185,120.6997 114.7291,120.9313 C 114.1602,120.918 114.3787,121.1867 114.8562,121.0078 C 115.3055,120.8701 115.9372,120.8185 116.2628,121.2701 C 116.3957,121.7333 115.6837,121.7653 115.374,121.6834 C 114.7355,121.4438 115.0857,121.8207 115.4572,121.8027 C 115.8351,121.9549 116.1432,121.8347 116.5205,121.8404 C 116.8979,121.8461 116.6882,121.8375 116.9707,121.8668 C 117.254,121.8962 117.6644,122.3453 117.3546,122.3908 C 117.0423,122.4366 116.3691,122.5334 116.0664,122.5598 C 116.3024,122.6919 116.5566,122.6932 116.8317,122.6565 C 117.107,122.6197 117.3944,122.5993 117.6701,122.6563 C 118.1487,122.6858 118.3921,123.111 118.6076,123.5067 C 118.8339,123.7475 118.6325,124.714 118.3402,124.2072 C 118.3718,123.7075 117.9297,123.2232 117.4596,123.2113 C 117.0752,123.3659 116.6392,123.3659 116.252,123.2875 C 116.581,123.5941 117.0262,123.4823 117.4246,123.4387 C 117.7359,123.554 118.162,123.7947 118.0527,124.2264 C 118.1143,124.692 117.4851,124.5306 117.2354,124.3738 C 116.7249,124.0583 117.2621,124.6455 117.5677,124.6415 C 117.8733,124.6374 118.1861,124.6939 118.4958,124.6593 C 118.8315,124.5621 119.3703,124.8606 119.4526,124.9321 C 119.5348,125.0036 119.6757,125.2377 119.7322,125.3667 C 119.7878,125.4936 120.0937,126.4142 119.8376,126.8408 C 119.5815,127.2675 119.6777,126.6102 119.5843,126.1279 C 119.4909,125.6456 118.7997,125.3466 118.623,125.3108 C 118.4451,125.2748 118.1644,125.3279 118.3923,125.4066 C 118.621,125.4855 118.7904,125.5 118.9507,125.5845 C 119.1488,125.7042 119.5589,125.9463 119.3881,126.1908 C 119.1016,126.1085 118.7941,126.032 118.5008,126.1293 C 118.2074,126.1642 117.8378,125.8461 117.7157,125.7255 C 117.5937,125.6049 117.6006,125.6085 117.5692,125.6132 C 117.565,125.6138 117.561,125.6154 117.5578,125.6171 C 117.5346,125.6295 117.5599,125.6858 117.624,125.7647 C 117.6881,125.8436 117.8678,126.0465 117.9516,126.1051 C 118.1191,126.2224 118.3377,126.3107 118.4971,126.3124 C 118.8654,126.2089 119.4795,126.3294 119.3096,126.895 C 118.9346,127.1981 118.3292,127.1366 117.9925,126.7751 C 117.6416,126.3321 117.8386,126.8904 118.0922,127.0514 C 118.3359,127.1534 118.5953,127.2831 118.8609,127.2762 C 119.2701,127.1947 119.7554,127.3387 120.046,127.5477 C 120.3365,127.7566 120.4854,127.9806 120.5147,128.0869 C 120.5455,128.1986 120.5738,128.5448 120.5813,128.7171 C 120.5888,128.8894 120.6108,128.9523 120.6096,129.1523 C 120.298,129.1243 120.2359,129.0201 120.1179,128.7803 C 119.9654,128.4228 119.9228,127.984 119.4821,127.857 C 119.1133,127.7122 118.979,127.8797 119.2952,127.9439 C 119.5162,127.975 119.9741,128.5585 119.466,128.4535 C 119.0884,128.3095 118.422,128.0709 118.3456,128.0218 C 118.2709,127.9738 118.2084,127.9561 118.1881,127.9621 C 118.1002,127.9879 118.5566,128.4346 118.7471,128.4697 C 118.9835,128.5292 119.3841,128.6295 119.466,128.685 L 119.466,128.685 z M 105.634,117.6193 C 105.6403,117.8376 105.6228,117.8821 105.6159,117.9936 C 105.6091,118.105 105.5966,118.2127 105.5067,118.2618 C 105.4205,118.311 105.2898,118.3016 105.2258,118.2303 C 105.1617,118.1591 105.1606,118.1096 105.1213,118.0072 C 105.0821,117.9048 105.0457,117.7481 105.0666,117.6242 C 105.0875,117.5003 105.1072,117.3812 105.1802,117.2754 C 105.2646,117.1452 105.3747,117.0145 105.4947,116.9351 C 105.5188,116.941 105.6278,117.401 105.634,117.6193 L 105.634,117.6193 z M 103.1927,129.7543 C 103.0985,129.8197 102.9783,129.8737 102.8637,129.8274 C 102.7946,129.8122 102.7543,129.6493 102.8092,129.6276 C 102.8644,129.5971 103.0104,129.3871 103.0623,129.349 C 103.3994,128.8062 103.2389,129.0028 103.4132,128.7065 C 103.466,128.5834 103.8787,128.2462 103.997,128.196 C 103.9279,128.348 103.7962,128.7687 103.7745,128.8944 C 103.72,129.041 103.6521,129.1808 103.5882,129.3226 C 103.4935,129.4984 103.3602,129.6535 103.1927,129.7543 L 103.1927,129.7543 z"
   style="fill:#000000" />

   <path
   id="_69139592"
   class="fil4"
   d="M 115.127,127.218 C 115.0673,127.2035 115.0694,127.085 115.083,126.9094 C 115.0999,126.7429 115.128,126.5191 115.1411,126.2805 C 115.1479,126.0552 115.1396,125.8154 115.1816,125.6584 C 115.209,125.5821 115.2482,125.5303 115.2845,125.5174 C 115.3207,125.5045 115.3538,125.5313 115.372,125.6126 C 115.4176,125.7711 115.3873,126.1753 115.378,126.4546 C 115.3781,126.7295 115.4025,126.8886 115.3474,127.0095 C 115.3082,127.1442 115.1775,127.2368 115.127,127.218 z M 115.7061,126.5467 C 115.7299,126.4761 115.7886,126.4147 115.8458,126.3991 C 115.8902,126.3869 115.9332,126.4024 115.9585,126.4599 C 116.0225,126.5783 115.9991,126.9068 115.9865,127.1771 C 115.9613,127.4426 115.9318,127.6354 115.9152,127.8334 C 115.8987,128.0314 115.8908,128.2257 115.8142,128.3776 C 115.7408,128.5388 115.6046,128.6449 115.5869,128.4733 C 115.56,128.3062 115.6394,127.857 115.6987,127.5652 C 115.7549,127.2641 115.7783,127.1155 115.7579,126.9665 C 115.7372,126.8174 115.673,126.6676 115.7061,126.5467 L 115.7061,126.5467 z M 116.9097,129.6782 C 116.9728,129.0039 116.8687,128.2769 116.8291,127.6663 C 116.7895,127.0567 116.6626,126.4703 116.6164,126.2256 C 116.5839,126.125 116.4553,125.7309 116.2732,125.2936 C 116.0914,124.8572 115.5238,123.7698 115.2541,123.3919 C 114.9843,123.014 114.8319,122.7803 114.7874,122.7384 C 114.7428,122.6965 114.5444,122.463 114.3298,122.1957 C 114.1153,121.9284 113.675,121.5866 113.4022,121.2404 C 113.2468,121.32 113.723,122.0609 113.3111,121.5047 C 113.0817,121.2804 112.8635,120.825 112.5081,120.9157 C 112.6903,121.44 113.1115,121.8379 113.4191,122.2955 C 113.4983,122.4189 113.595,122.6614 113.634,122.8743 C 113.6534,122.9807 113.6533,123.2011 113.6553,123.2773 C 113.6582,123.3876 113.5122,123.3579 113.5036,123.3407 C 113.5556,122.5912 112.9964,121.9919 112.6437,121.4011 C 112.3731,121.0475 112.0764,120.7264 111.6966,120.5195 C 111.0353,120.05 111.694,120.9733 111.7444,121.2902 C 111.8844,121.5359 111.4761,122.0738 111.5352,121.5816 C 111.6957,121.0389 111.2016,120.6436 111.0054,120.181 C 110.9772,120.1341 110.9675,120.1219 110.9327,120.0724 C 110.8328,120.0972 110.7312,120.0944 110.6259,120.0408 C 110.6114,120.0835 110.5678,120.1939 110.5941,120.228 C 110.9548,120.3831 111.0994,121.8411 110.8381,121.091 C 110.7975,120.7905 110.6677,120.4948 110.435,120.3025 C 110.401,120.2765 110.2634,120.2042 110.1898,120.1415 C 109.6969,120.7825 110.0761,119.3368 109.6153,120.0698 C 109.2542,120.3997 108.7929,120.2391 109.3483,119.9514 C 109.77,119.5472 109.5735,118.7996 109.2224,118.4021 C 108.8866,118.1039 108.654,117.6903 108.3495,117.3539 C 108.0582,116.963 107.7772,116.5562 107.5982,116.0941 C 107.2561,116.1466 107.1985,116.6381 107.2066,116.9633 C 107.2075,117.4645 107.4,117.9451 107.3676,118.4485 C 107.4667,118.8454 107.381,119.4266 107.803,119.6223 C 108.2259,119.946 107.7152,120.0731 107.5683,119.6777 C 107.1542,119.2974 107.1312,118.7026 107.0085,118.1954 C 106.4253,118.5181 106.1074,117.0895 105.9029,117.9572 C 105.6968,118.2217 106.1457,118.8012 105.7879,118.7691 C 105.4365,118.5104 105.0224,118.6986 104.6397,118.7427 C 104.2117,118.8319 103.7407,119.1692 103.6677,119.6384 C 103.5357,120.3611 103.99,120.155 104.1106,119.7128 C 104.4061,119.2701 104.9008,119.4455 105.2678,119.662 C 105.5771,119.6719 105.887,119.6151 106.1885,119.5513 C 106.3099,119.8621 105.817,119.921 105.6003,119.9744 C 105.2742,119.967 104.961,120.0333 104.7468,120.312 C 104.4237,120.6727 104.237,121.1208 103.8742,121.4392 C 103.5941,121.7022 102.9069,121.8487 103.0113,122.385 C 103.1392,122.9438 102.7129,123.3659 102.3996,123.7462 C 102.1241,124.0973 102.3264,123.831 102.1641,124.0925 C 101.9042,124.5031 101.4593,125.0351 101.4148,125.5603 C 101.2011,126.0581 100.52,126.1367 100.4496,126.738 C 100.3454,127.1175 99.9197,127.4214 100.115,127.8625 C 100.1925,128.2967 100.4615,129.1561 100.6559,129.5963 C 100.8487,130.0328 101.2666,130.1312 101.7738,129.9287 C 102.281,129.7261 102.827,129.3867 102.9916,128.8218 C 103.215,128.2831 103.7236,127.8728 104.274,127.7616 C 104.7694,127.916 104.1401,128.2033 104.1324,128.5012 C 103.9327,128.9896 103.8843,129.6215 103.3729,129.8787 C 102.8672,130.2748 103.755,130.0327 103.8799,129.6882 C 104.1972,129.3827 104.2776,129.6374 104.6005,129.5247 C 105.2226,129.2336 104.7021,128.5158 105.0937,128.0765 C 105.2516,127.8181 105.5436,127.5132 105.3209,127.191 C 105.6144,127.094 105.8853,127.6554 106.2934,127.1746 C 106.8836,127.0224 107.2003,126.4398 107.6636,126.0982 C 108.035,125.7838 108.54,125.9934 108.9446,125.7515 C 109.2813,125.5704 109.5726,125.3562 109.824,125.0379 C 110.0754,124.7196 110.2625,124.253 110.2814,123.9012 C 110.3003,123.5495 110.2608,123.285 110.2155,122.9971 C 109.9772,122.4972 110.1701,121.4811 110.3118,122.5766 C 110.4917,123.1532 110.5348,123.7516 110.4058,124.366 C 110.1837,124.863 110.247,124.7672 110.0854,125.0524 C 109.9237,125.3376 110.0293,125.6478 109.8974,125.9766 C 109.7655,126.3055 109.2728,127.118 109.571,126.3876 C 109.5614,126.1893 109.8773,125.6251 109.7088,125.5522 C 109.2223,125.9467 109.0003,126.0552 108.6771,126.1376 C 108.491,126.2774 108.5679,126.839 108.8113,127.1373 C 109.0831,127.727 109.0052,128.4116 108.9341,129.0358 C 108.8415,129.2678 108.7492,129.8332 108.7101,129.9047 C 108.4804,130.6413 107.9778,131.5101 107.8539,132.0525 C 107.7299,132.595 107.7647,132.742 107.7297,133.0921 C 107.6948,133.4421 107.7161,133.2424 107.7607,133.5849 C 107.6418,133.6711 107.5373,133.8015 107.4564,133.9058 L 120.1567,130.0251 C 120.1883,129.7587 120.0925,129.4275 120.0212,129.2484 L 119.4664,128.685 C 119.3845,128.6295 118.9839,128.5292 118.7475,128.4697 C 118.557,128.4346 118.1006,127.9879 118.1885,127.9621 C 118.2088,127.9561 118.2713,127.9738 118.346,128.0218 C 118.4224,128.0709 119.0888,128.3095 119.4664,128.4535 C 119.9745,128.5585 119.5166,127.975 119.2956,127.9439 C 118.9794,127.8797 119.1137,127.7122 119.4825,127.857 C 119.9232,127.984 119.9658,128.4228 120.1183,128.7803 C 120.2363,129.0201 120.2984,129.1243 120.61,129.1523 C 120.6112,128.9523 120.5892,128.8894 120.5817,128.7171 C 120.5742,128.5448 120.5459,128.1986 120.5151,128.0869 C 120.4858,127.9806 120.3369,127.7566 120.0464,127.5477 C 119.7558,127.3387 119.2705,127.1947 118.8613,127.2762 C 118.5957,127.2831 118.3363,127.1534 118.0926,127.0514 C 117.839,126.8904 117.642,126.3321 117.9929,126.7751 C 118.3296,127.1366 118.935,127.1981 119.31,126.895 C 119.4799,126.3294 118.8658,126.2089 118.4975,126.3124 C 118.3381,126.3107 118.1195,126.2224 117.952,126.1051 C 117.8682,126.0465 117.6885,125.8436 117.6244,125.7647 C 117.5603,125.6858 117.535,125.6295 117.5582,125.6171 C 117.5614,125.6154 117.5654,125.6138 117.5696,125.6132 C 117.601,125.6085 117.5941,125.6049 117.7161,125.7255 C 117.8382,125.8461 118.2078,126.1642 118.5012,126.1293 C 118.7945,126.032 119.102,126.1085 119.3885,126.1908 C 119.5593,125.9463 119.1492,125.7042 118.9511,125.5845 C 118.7908,125.5 118.6214,125.4855 118.3927,125.4066 C 118.1648,125.3279 118.4455,125.2748 118.6234,125.3108 C 118.8001,125.3466 119.4913,125.6456 119.5847,126.1279 C 119.6781,126.6102 119.5819,127.2675 119.838,126.8408 C 120.0941,126.4142 119.7882,125.4936 119.7326,125.3667 C 119.6761,125.2377 119.5352,125.0036 119.453,124.9321 C 119.3707,124.8606 118.8319,124.5621 118.4962,124.6593 C 118.1865,124.6939 117.8737,124.6374 117.5681,124.6415 C 117.2625,124.6455 116.7253,124.0583 117.2358,124.3738 C 117.4855,124.5306 118.1147,124.692 118.0531,124.2264 C 118.1624,123.7947 117.7363,123.554 117.425,123.4387 C 117.0266,123.4823 116.5814,123.5941 116.2524,123.2875 C 116.6396,123.3659 117.0756,123.3659 117.46,123.2113 C 117.9301,123.2232 118.3722,123.7075 118.3406,124.2072 C 118.6329,124.714 118.8343,123.7475 118.608,123.5067 C 118.3925,123.111 118.1491,122.6858 117.6705,122.6563 C 117.3948,122.5993 117.1074,122.6197 116.8321,122.6565 C 116.557,122.6932 116.3028,122.6919 116.0668,122.5598 C 116.3695,122.5334 117.0427,122.4366 117.355,122.3908 C 117.6648,122.3453 117.2544,121.8962 116.9711,121.8668 C 116.6886,121.8375 116.8983,121.8461 116.5209,121.8404 C 116.1436,121.8347 115.8355,121.9549 115.4576,121.8027 C 115.0861,121.8207 114.7359,121.4438 115.3744,121.6834 C 115.6841,121.7653 116.3961,121.7333 116.2632,121.2701 C 115.9376,120.8185 115.3059,120.8701 114.8566,121.0078 C 114.3791,121.1867 114.1606,120.918 114.7295,120.9313 C 115.1189,120.6997 115.5928,120.7382 116.0122,120.6869 C 115.9855,120.351 115.4702,120.3089 115.2164,120.2496 C 114.8534,120.2604 114.5558,120.5359 114.1835,120.4773 C 114.3007,120.3282 114.8743,120.2426 115.1764,120.0659 C 115.8184,120.074 115.1371,119.6231 114.8445,119.7245 C 114.407,119.6694 113.9391,120.0726 113.5343,119.7492 C 113.3368,119.5467 112.5522,119.4046 113.2038,119.4017 C 113.8,119.7633 113.6918,118.9097 113.6213,118.8147 C 113.399,118.588 112.4002,118.6011 111.8742,118.9548 C 111.631,118.9789 111.3322,119.1242 111.126,118.9498 C 111.4856,118.8654 111.8799,118.8356 112.1817,118.5638 C 112.5429,118.1856 111.8587,118.0555 111.5996,118.1379 C 111.1778,118.1983 110.7565,118.2908 110.4169,118.5602 C 109.9538,118.5822 109.6531,118.7695 110.0685,119.177 C 110.2957,119.31 110.5548,119.2209 110.7908,119.3511 C 111.09,119.412 111.3252,119.6246 111.6038,119.7484 C 111.8407,119.9015 112.081,120.0478 112.3124,120.2104 C 112.5469,120.3212 112.738,120.5012 112.9755,120.6389 C 113.1494,120.8029 113.3634,120.8821 113.5213,121.08 C 113.7151,121.3389 113.9102,121.4758 114.1755,121.7245 C 114.4408,121.9731 114.7523,122.3839 114.9782,122.6506 C 115.2041,122.9172 115.6696,123.5914 115.9129,124.1453 C 116.3013,124.8481 116.565,125.5612 116.8435,126.2731 C 116.9638,126.7192 117.0002,127.0478 117.0634,127.4967 C 117.1275,127.9512 117.292,129.3312 117.3025,129.7041 C 117.3027,129.7357 117.3007,130.3062 117.2339,130.8357 C 117.1919,130.8388 117.1935,130.8561 117.1404,130.8445 C 117.1478,130.7485 117.2038,129.7636 117.1997,129.7265 C 117.1956,129.6894 117.2424,128.7534 117.0401,129.3316 C 117.0327,129.4954 117.0084,129.7059 117.0139,129.8624 C 117.0193,130.0189 117.0336,130.1002 117.0093,130.1483 C 116.985,130.1965 116.9481,130.1929 116.9193,130.1607 C 116.8905,130.1285 116.87,130.0687 116.8798,130.0044 C 116.9028,129.8948 116.8927,129.9213 116.8984,129.8644 C 116.9042,129.8078 116.9034,129.7986 116.9097,129.6782 L 116.9097,129.6782 z M 114.6421,124.7893 C 114.6334,124.5818 114.5895,124.4002 114.6391,124.356 C 114.6424,124.3538 114.6462,124.3519 114.6502,124.3507 C 114.7107,124.3322 114.8465,124.4228 114.893,124.6392 C 114.952,124.8657 114.9126,125.2129 114.8286,125.5588 C 114.7541,125.9001 114.6461,126.2364 114.6024,126.2357 C 114.5551,126.2261 114.5847,125.883 114.6062,125.5768 C 114.6312,125.2796 114.654,125.0058 114.6421,124.7893 L 114.6421,124.7893 z M 108.8388,119.4649 C 108.8172,119.5412 108.7874,119.6159 108.7119,119.6458 C 108.6278,119.6871 108.5619,119.5577 108.5776,119.4798 C 108.5689,119.3828 108.6201,119.306 108.6221,119.2083 C 108.6256,119.0491 108.5154,118.8976 108.3749,118.8426 C 108.2912,118.8561 108.2357,118.9418 108.2709,119.0287 C 108.3044,119.1016 108.3614,119.1605 108.3912,119.2369 C 108.4116,119.3159 108.511,119.3694 108.4656,119.4535 C 108.4095,119.5391 108.3058,119.4637 108.2295,119.4586 C 108.1446,119.4115 108.084,119.3197 108.0264,119.2396 C 107.9181,118.9985 107.9462,118.7381 107.9534,118.4845 C 107.9292,118.3543 107.9189,118.2187 107.8573,118.0989 C 107.782,117.898 107.671,117.6915 107.7014,117.4704 C 107.7139,117.4168 107.7496,117.3704 107.7975,117.3482 C 107.8731,117.4485 107.8454,117.5859 107.9067,117.6933 C 107.9319,117.7782 107.9425,117.855 107.9874,117.9202 C 108.0249,117.9917 108.0732,118.0704 108.1421,118.1237 C 108.1815,118.2124 108.2585,118.2692 108.317,118.3388 C 108.3687,118.406 108.4438,118.438 108.511,118.4846 C 108.5738,118.5306 108.6353,118.5947 108.6876,118.6632 C 108.7354,118.7362 108.7867,118.8083 108.8428,118.8753 C 108.9282,118.9844 108.9128,119.1317 108.9049,119.261 C 108.8975,119.3333 108.8785,119.4058 108.8388,119.4649 L 108.8388,119.4649 z M 109.4703,125.0411 C 109.3328,125.0841 109.2346,124.9929 109.24,124.9162 C 109.242,124.8305 109.3226,124.7501 109.4251,124.6705 C 109.531,124.6 109.6586,124.5306 109.7165,124.3872 C 109.7743,124.2439 109.7589,124.0176 109.7218,123.7916 C 109.6879,123.5747 109.6454,123.3625 109.6532,123.2004 C 109.6605,123.0953 109.6955,123.0114 109.7409,122.9962 C 109.7616,122.9893 109.7851,122.9964 109.8079,123.0221 C 109.8715,123.1088 109.9374,123.3845 109.969,123.6871 C 109.9881,123.985 109.97,124.2997 109.8757,124.5551 C 109.7783,124.8016 109.592,124.9844 109.4703,125.0411 z M 106.5056,122.2552 C 106.4527,122.4291 106.258,122.497 106.0976,122.5103 C 105.9468,122.5561 105.7867,122.5324 105.6463,122.4596 C 105.4877,122.4446 105.4262,122.6212 105.3396,122.723 C 105.2518,122.8379 105.053,122.9067 104.9511,122.7671 C 104.8481,122.6293 105.0537,122.5457 105.0396,122.4093 C 105.0083,122.2343 104.7778,122.2803 104.7206,122.4093 C 104.5871,122.6293 104.6361,122.9253 104.4758,123.1323 C 104.4302,123.2292 104.2513,123.3209 104.2372,123.151 C 104.2345,122.9877 104.345,122.8533 104.3492,122.6883 C 104.3855,122.479 104.495,122.2922 104.6516,122.1611 C 104.699,122.117 104.7476,122.0744 104.7948,122.0301 C 104.8475,122.0006 104.9035,121.9782 104.9616,121.9634 C 105.2134,121.8994 105.5015,121.9733 105.6848,122.1792 C 105.828,122.2997 106.0237,122.3056 106.1925,122.2698 C 106.2877,122.2263 106.4535,122.0653 106.5056,122.2552 L 106.5056,122.2552 z M 105.5109,121.4302 C 105.2574,121.4449 105.0213,121.5642 104.8292,121.7305 C 104.6521,121.8581 104.4241,121.9447 104.3274,122.1622 C 104.2667,122.3043 104.2797,122.4699 104.215,122.6105 C 104.1247,122.7038 104.0482,122.5265 104.0752,122.4442 C 104.1046,122.2371 104.2413,122.0761 104.3814,121.9407 C 104.572,121.7493 104.8037,121.6146 105.0151,121.4513 C 105.1573,121.3892 105.3065,121.3238 105.4601,121.2908 C 105.5795,121.2652 105.7015,121.2595 105.8248,121.2881 C 105.9767,121.319 106.1499,121.3334 106.2631,121.4603 C 106.3469,121.5642 106.2357,121.7253 106.1211,121.6475 C 106.0197,121.5861 105.9467,121.4601 105.8208,121.451 C 105.7175,121.45 105.6149,121.4184 105.5109,121.4302 L 105.5109,121.4302 z M 110.2835,126.7359 C 110.2043,126.9419 110.1061,127.1245 110.0204,127.3124 C 109.9282,127.4822 109.8512,127.6663 109.7429,127.7909 C 109.6219,127.9107 109.4759,127.9884 109.4715,127.8846 C 109.4765,127.7764 109.617,127.5003 109.718,127.2944 C 109.8191,127.0888 109.8804,126.9542 109.9386,126.811 C 109.9997,126.6764 110.0616,126.5425 110.1574,126.4133 C 110.2221,126.3196 110.3098,126.2396 110.3592,126.232 C 110.3757,126.2294 110.3876,126.2347 110.3933,126.2506 C 110.4253,126.3097 110.3626,126.5296 110.2835,126.7359 z M 107.2459,125.5382 C 107.2489,125.7904 107.1172,126.063 106.9912,126.2908 C 106.856,126.5231 106.7197,126.693 106.5672,126.7852 C 106.4179,126.8865 106.2638,126.8835 106.2878,126.7983 C 106.3213,126.7087 106.5306,126.5273 106.7102,126.3274 C 106.8834,126.1093 107.0058,125.8721 107.0001,125.6423 C 106.9881,125.4258 106.834,125.2108 106.7162,125.0648 C 106.5986,124.9186 106.513,124.8322 106.4676,124.7052 C 106.422,124.5777 106.4289,124.4068 106.505,124.3947 C 106.5101,124.3939 106.5155,124.3934 106.5212,124.3941 C 106.6029,124.4089 106.7937,124.6064 106.9467,124.8208 C 107.1062,125.053 107.2398,125.2766 107.2459,125.5382 L 107.2459,125.5382 z M 103.2189,124.1595 C 103.4065,124.1576 103.224,124.359 103.1625,124.4205 C 103.0652,124.5374 103.0136,124.6907 102.9144,124.8087 C 102.6911,125.1267 102.4639,125.4562 102.3524,125.8408 C 102.2968,126.0528 102.4514,126.2355 102.5407,126.4117 C 102.6184,126.6007 102.5909,126.816 102.5152,126.9959 C 102.4677,127.1679 102.42,127.3508 102.2875,127.4721 C 102.1438,127.6522 102.047,127.9081 101.8146,127.9801 C 101.7509,127.8029 101.898,127.6548 101.9941,127.5331 C 102.2031,127.2752 102.3692,126.9343 102.306,126.58 C 102.2802,126.3794 102.1859,126.1914 102.1735,125.9897 C 102.1782,125.7211 102.3332,125.4981 102.4233,125.2584 C 102.5349,125.0504 102.6877,124.8728 102.8145,124.6757 C 102.9314,124.5122 103.0554,124.3545 103.1793,124.197 C 103.1891,124.1916 103.2327,124.184 103.2189,124.1595 L 103.2189,124.1595 z M 110.394,127.6882 C 110.3832,127.8411 110.3065,128.0243 110.1513,128.1707 C 110.0151,128.3083 109.8194,128.4002 109.8028,128.3232 C 109.7862,128.2462 109.9334,127.9868 110.0504,127.7948 C 110.1483,127.6106 110.2135,127.4691 110.273,127.4455 C 110.2769,127.4439 110.2808,127.4435 110.2847,127.443 C 110.3473,127.435 110.4079,127.5443 110.394,127.6882 L 110.394,127.6882 z M 101.9681,126.6998 C 101.996,126.897 101.9225,127.0922 101.8161,127.2478 C 101.716,127.3941 101.6207,127.5447 101.5082,127.6808 C 101.4522,127.7748 101.4003,127.8735 101.3643,127.9782 C 101.3428,128.0562 101.3363,128.2145 101.2274,128.1946 C 101.1554,128.1575 101.1581,128.0462 101.1985,127.9868 C 101.2425,127.8311 101.3234,127.6883 101.3626,127.5316 C 101.3626,127.5164 101.3356,127.4823 101.326,127.4702 C 101.2188,127.5533 101.0865,127.462 100.9863,127.5629 C 100.913,127.6386 100.9259,127.7671 100.849,127.8401 C 100.7387,127.866 100.6839,127.7175 100.6955,127.6233 C 100.7075,127.4285 100.8521,127.291 100.9245,127.1222 C 100.9871,127.0008 101.0348,126.8719 101.0911,126.7474 C 101.1757,126.6049 101.311,126.5088 101.434,126.4066 C 101.4675,126.3831 101.5056,126.3671 101.5451,126.3593 C 101.6108,126.3464 101.6798,126.3567 101.7403,126.3921 C 101.8564,126.4489 101.9541,126.5626 101.9681,126.6998 L 101.9681,126.6998 z M 109.4093,123.4517 C 109.4363,123.6442 109.4145,123.8406 109.378,124.0284 C 109.3436,124.1804 109.2807,124.3243 109.1993,124.4535 C 109.1708,124.4916 109.1461,124.5408 109.1005,124.5574 C 109.0902,124.5523 109.0898,124.5383 109.0887,124.5282 C 109.0901,124.4288 109.1184,124.3327 109.1355,124.2359 C 109.1558,124.1523 109.1627,124.0673 109.1645,123.9808 C 109.1701,123.8538 109.15,123.7251 109.1022,123.6067 C 109.0728,123.5212 109.0294,123.4271 109.0598,123.3368 C 109.0839,123.2839 109.1347,123.2451 109.1897,123.2319 C 109.2226,123.2239 109.2568,123.2247 109.2891,123.2377 C 109.3696,123.2722 109.3962,123.3703 109.4093,123.4517 L 109.4093,123.4517 z M 114.0555,124.036 C 114.044,123.851 113.9889,123.6651 114.0187,123.5349 C 114.025,123.4665 114.0571,123.4131 114.0966,123.3979 C 114.1274,123.386 114.163,123.3974 114.1937,123.4433 C 114.2607,123.5389 114.3099,123.8017 114.3216,123.9868 C 114.3272,124.1853 114.2996,124.2932 114.2727,124.401 C 114.2331,124.5041 114.1976,124.6152 114.171,124.7544 C 114.1319,124.8891 114.0958,125.0639 114.0378,125.2072 C 113.9797,125.3505 113.9059,125.481 113.9016,125.3772 C 113.8879,125.2779 113.9436,124.9449 113.9812,124.6843 C 114.0345,124.4057 114.0671,124.221 114.0555,124.036 L 114.0555,124.036 z M 105.6385,122.8562 C 105.6407,122.9151 105.6052,122.9663 105.5707,123.0083 C 105.546,123.0391 105.5127,123.061 105.4775,123.0749 C 105.3636,123.1585 105.2425,123.2452 105.1002,123.2641 C 105.0514,123.2711 105.0024,123.2657 104.9533,123.2657 C 104.895,123.2606 104.8271,123.2446 104.7932,123.1877 C 104.7814,123.1667 104.7774,123.1421 104.7795,123.1183 C 104.8537,123.0733 104.9427,123.0978 105.0231,123.1102 C 105.0866,123.1209 105.157,123.1202 105.2097,123.0782 C 105.3211,123.0497 105.3986,122.956 105.478,122.8766 C 105.5023,122.8568 105.5217,122.825 105.5523,122.8171 C 105.5567,122.8159 105.5621,122.8154 105.5669,122.8153 C 105.5952,122.8096 105.6359,122.8193 105.6385,122.8562 L 105.6385,122.8562 z M 107.241,120.6545 C 107.238,120.7175 107.2345,120.7809 107.2508,120.8433 C 107.284,120.994 107.3635,121.1438 107.3327,121.3013 C 107.3299,121.5326 107.2092,121.7419 107.0522,121.8918 C 107.0131,121.927 106.9748,121.9656 106.9293,121.9909 C 106.9088,121.9997 106.8873,122.0021 106.8652,122.0034 C 106.8223,121.9564 106.8154,121.8815 106.8475,121.8279 C 106.8997,121.7284 106.9989,121.661 107.0277,121.5471 C 107.1222,121.3218 107.1339,121.0646 107.0945,120.8209 C 107.0645,120.7416 107.098,120.6512 107.1484,120.5922 C 107.1592,120.5759 107.172,120.5675 107.1835,120.5657 C 107.2181,120.5602 107.2487,120.6105 107.241,120.6545 L 107.241,120.6545 z"
   style="fill:#e3e4e5" />

   <path
   id="_72578024"
   class="fil4"
   d="M 103.588,129.323 C 103.6519,129.1812 103.7198,129.0414 103.7743,128.8948 C 103.796,128.7691 103.9277,128.3484 103.9968,128.1964 C 103.8785,128.2466 103.4658,128.5838 103.413,128.7069 C 103.2387,129.0032 103.3992,128.8066 103.0621,129.3494 C 103.0102,129.3875 102.8642,129.5975 102.809,129.628 C 102.7541,129.6497 102.7944,129.8126 102.8635,129.8278 C 102.9781,129.8741 103.0983,129.8201 103.1925,129.7547 C 103.36,129.6539 103.4933,129.4988 103.588,129.323 L 103.588,129.323 z"
   style="fill:#e3e4e5" />

   <path
   id="path5574"
   class="fil4"
   d="M 105.495,116.935 C 105.5191,116.9409 105.6281,117.4009 105.6343,117.6192 C 105.6406,117.8375 105.6231,117.882 105.6162,117.9935 C 105.6094,118.1049 105.5969,118.2126 105.507,118.2617 C 105.4208,118.3109 105.2901,118.3015 105.2261,118.2302 C 105.162,118.159 105.1609,118.1095 105.1216,118.0071 C 105.0824,117.9047 105.046,117.748 105.0669,117.6241 C 105.0878,117.5002 105.1075,117.3811 105.1805,117.2753 C 105.2649,117.1451 105.375,117.0144 105.495,116.935 L 105.495,116.935 z"
   style="fill:#e3e4e5" />

   <path
   id="path5572"
   class="fil8"
   d="M 107.797,117.348 C 107.7491,117.3702 107.7134,117.4166 107.7009,117.4702 C 107.6705,117.6913 107.7815,117.8978 107.8568,118.0987 C 107.9184,118.2185 107.9287,118.3541 107.9529,118.4843 C 107.9457,118.7379 107.9176,118.9983 108.0259,119.2394 C 108.0835,119.3195 108.1441,119.4113 108.229,119.4584 C 108.3053,119.4635 108.409,119.5389 108.4651,119.4533 C 108.5105,119.3692 108.4111,119.3157 108.3907,119.2367 C 108.3609,119.1603 108.3039,119.1014 108.2704,119.0285 C 108.2352,118.9416 108.2907,118.8559 108.3744,118.8424 C 108.5149,118.8974 108.6251,119.0489 108.6216,119.2081 C 108.6196,119.3058 108.5684,119.3826 108.5771,119.4796 C 108.5614,119.5575 108.6273,119.6869 108.7114,119.6456 C 108.7869,119.6157 108.8167,119.541 108.8383,119.4647 C 108.878,119.4056 108.897,119.3331 108.9044,119.2608 C 108.9123,119.1315 108.9277,118.9842 108.8423,118.8751 C 108.7862,118.8081 108.7349,118.736 108.6871,118.663 C 108.6348,118.5945 108.5733,118.5304 108.5105,118.4844 C 108.4433,118.4378 108.3682,118.4058 108.3165,118.3386 C 108.258,118.269 108.181,118.2122 108.1416,118.1235 C 108.0727,118.0702 108.0244,117.9915 107.9869,117.92 C 107.942,117.8548 107.9314,117.778 107.9062,117.6931 C 107.8449,117.5857 107.8726,117.4483 107.797,117.348 L 107.797,117.348 z"
   style="fill:#000000" />

   <path
   id="path5570"
   class="fil8"
   d="M 107.183,120.566 C 107.1715,120.5678 107.1587,120.5762 107.1479,120.5925 C 107.0975,120.6515 107.064,120.7419 107.094,120.8212 C 107.1334,121.0649 107.1217,121.3221 107.0272,121.5474 C 106.9984,121.6613 106.8992,121.7287 106.847,121.8282 C 106.8149,121.8818 106.8218,121.9567 106.8647,122.0037 C 106.8868,122.0024 106.9083,122 106.9288,121.9912 C 106.9743,121.9659 107.0126,121.9273 107.0517,121.8921 C 107.2087,121.7422 107.3294,121.5329 107.3322,121.3016 C 107.363,121.1441 107.2835,120.9943 107.2503,120.8436 C 107.234,120.7812 107.2375,120.7178 107.2405,120.6548 C 107.2482,120.6108 107.2176,120.5605 107.183,120.566 L 107.183,120.566 z"
   style="fill:#000000" />

   <path
   id="path5568"
   class="fil8"
   d="M 105.46,121.291 C 105.3064,121.324 105.1572,121.3894 105.015,121.4515 C 104.8036,121.6148 104.5719,121.7495 104.3813,121.9409 C 104.2412,122.0763 104.1045,122.2373 104.0751,122.4444 C 104.0481,122.5267 104.1246,122.704 104.2149,122.6107 C 104.2796,122.4701 104.2666,122.3045 104.3273,122.1624 C 104.424,121.9449 104.652,121.8583 104.8291,121.7307 C 105.0212,121.5644 105.2573,121.4451 105.5108,121.4304 C 105.6148,121.4186 105.7174,121.4502 105.8207,121.4512 C 105.9466,121.4603 106.0196,121.5863 106.121,121.6477 C 106.2356,121.7255 106.3468,121.5644 106.263,121.4605 C 106.1498,121.3336 105.9766,121.3192 105.8247,121.2883 C 105.7014,121.2597 105.5794,121.2654 105.46,121.291 L 105.46,121.291 z"
   style="fill:#000000" />

   <path
   id="path5566"
   class="fil8"
   d="M 104.961,121.963 C 104.9029,121.9778 104.8469,122.0002 104.7942,122.0297 C 104.747,122.074 104.6984,122.1166 104.651,122.1607 C 104.4944,122.2918 104.3849,122.4786 104.3486,122.6879 C 104.3444,122.8529 104.2339,122.9873 104.2366,123.1506 C 104.2507,123.3205 104.4296,123.2288 104.4752,123.1319 C 104.6355,122.9249 104.5865,122.6289 104.72,122.4089 C 104.7772,122.2799 105.0077,122.2339 105.039,122.4089 C 105.0531,122.5453 104.8475,122.6289 104.9505,122.7667 C 105.0524,122.9063 105.2512,122.8375 105.339,122.7226 C 105.4256,122.6208 105.4871,122.4442 105.6457,122.4592 C 105.7861,122.532 105.9462,122.5557 106.097,122.5099 C 106.2574,122.4966 106.4521,122.4287 106.505,122.2548 C 106.4529,122.0649 106.2871,122.2259 106.1919,122.2694 C 106.0231,122.3052 105.8274,122.2993 105.6842,122.1788 C 105.5009,121.9729 105.2128,121.899 104.961,121.963 L 104.961,121.963 z"
   style="fill:#000000" />

   <path
   id="path5564"
   class="fil8"
   d="M 105.552,122.817 C 105.5214,122.8249 105.502,122.8567 105.4777,122.8765 C 105.3983,122.9559 105.3208,123.0496 105.2094,123.0781 C 105.1567,123.1201 105.0863,123.1208 105.0228,123.1101 C 104.9424,123.0977 104.8534,123.0732 104.7792,123.1182 C 104.7771,123.142 104.7811,123.1666 104.7929,123.1876 C 104.8268,123.2445 104.8947,123.2605 104.953,123.2656 C 105.0021,123.2656 105.0511,123.271 105.0999,123.264 C 105.2422,123.2451 105.3633,123.1584 105.4772,123.0748 C 105.5124,123.0609 105.5457,123.039 105.5704,123.0082 C 105.6049,122.9662 105.6404,122.915 105.6382,122.8561 C 105.6356,122.8192 105.5949,122.8095 105.5666,122.8152 C 105.5618,122.8153 105.5564,122.8158 105.552,122.817 L 105.552,122.817 z"
   style="fill:#000000" />

   <path
   id="path5562"
   class="fil8"
   d="M 103.218,124.16 C 103.2318,124.1845 103.1882,124.1921 103.1784,124.1975 C 103.0545,124.355 102.9305,124.5127 102.8136,124.6762 C 102.6868,124.8733 102.534,125.0509 102.4224,125.2589 C 102.3323,125.4986 102.1773,125.7216 102.1726,125.9902 C 102.185,126.1919 102.2793,126.3799 102.3051,126.5805 C 102.3683,126.9348 102.2022,127.2757 101.9932,127.5336 C 101.8971,127.6553 101.75,127.8034 101.8137,127.9806 C 102.0461,127.9086 102.1429,127.6527 102.2866,127.4726 C 102.4191,127.3513 102.4668,127.1684 102.5143,126.9964 C 102.59,126.8165 102.6175,126.6012 102.5398,126.4122 C 102.4505,126.236 102.2959,126.0533 102.3515,125.8413 C 102.463,125.4567 102.6902,125.1272 102.9135,124.8092 C 103.0127,124.6912 103.0643,124.5379 103.1616,124.421 C 103.2231,124.3595 103.4056,124.1581 103.218,124.16 L 103.218,124.16 z"
   style="fill:#000000" />

   <path
   id="path5560"
   class="fil8"
   d="M 109.74,122.996 C 109.6946,123.0112 109.6596,123.0951 109.6523,123.2002 C 109.6445,123.3623 109.687,123.5745 109.7209,123.7914 C 109.758,124.0174 109.7734,124.2437 109.7156,124.387 C 109.6577,124.5304 109.5301,124.5998 109.4242,124.6703 C 109.3217,124.7499 109.2411,124.8303 109.2391,124.916 C 109.2337,124.9927 109.3319,125.0839 109.4694,125.0409 C 109.5911,124.9842 109.7774,124.8014 109.8748,124.5549 C 109.9691,124.2995 109.9872,123.9848 109.9681,123.6869 C 109.9365,123.3843 109.8706,123.1086 109.807,123.0219 C 109.7842,122.9962 109.7607,122.9891 109.74,122.996 z"
   style="fill:#000000" />

   <path
   id="path5558"
   class="fil8"
   d="M 109.189,123.232 C 109.134,123.2452 109.0832,123.284 109.0591,123.3369 C 109.0287,123.4272 109.0721,123.5213 109.1015,123.6068 C 109.1493,123.7252 109.1694,123.8539 109.1638,123.9809 C 109.162,124.0674 109.1551,124.1524 109.1348,124.236 C 109.1177,124.3328 109.0894,124.4289 109.088,124.5283 C 109.0891,124.5384 109.0895,124.5524 109.0998,124.5575 C 109.1454,124.5409 109.1701,124.4917 109.1986,124.4536 C 109.28,124.3244 109.3429,124.1805 109.3773,124.0285 C 109.4138,123.8407 109.4356,123.6443 109.4086,123.4518 C 109.3955,123.3704 109.3689,123.2723 109.2884,123.2378 C 109.2561,123.2248 109.2219,123.224 109.189,123.232 L 109.189,123.232 z"
   style="fill:#000000" />

   <path
   id="path5556"
   class="fil8"
   d="M 106.505,124.395 C 106.4289,124.4071 106.422,124.578 106.4676,124.7055 C 106.513,124.8325 106.5986,124.9189 106.7162,125.0651 C 106.834,125.2111 106.9881,125.4261 107.0001,125.6426 C 107.0058,125.8724 106.8834,126.1096 106.7102,126.3277 C 106.5306,126.5276 106.3213,126.709 106.2878,126.7986 C 106.2638,126.8838 106.4179,126.8868 106.5672,126.7855 C 106.7197,126.6933 106.856,126.5234 106.9912,126.2911 C 107.1172,126.0633 107.2489,125.7907 107.2459,125.5385 C 107.2398,125.2769 107.1062,125.0533 106.9467,124.8211 C 106.7937,124.6067 106.6029,124.4092 106.5212,124.3944 C 106.5155,124.3937 106.5101,124.3942 106.505,124.395 L 106.505,124.395 z"
   style="fill:#000000" />

   <path
   id="path5554"
   class="fil8"
   d="M 114.096,123.398 C 114.0565,123.4132 114.0244,123.4666 114.0181,123.535 C 113.9883,123.6652 114.0434,123.8511 114.0549,124.0361 C 114.0665,124.2211 114.0339,124.4058 113.9806,124.6844 C 113.943,124.945 113.8873,125.278 113.901,125.3773 C 113.9053,125.4811 113.9791,125.3506 114.0372,125.2073 C 114.0952,125.064 114.1313,124.8892 114.1704,124.7545 C 114.197,124.6153 114.2325,124.5042 114.2721,124.4011 C 114.299,124.2933 114.3266,124.1854 114.321,123.9869 C 114.3093,123.8018 114.2601,123.539 114.1931,123.4434 C 114.1624,123.3975 114.1268,123.3861 114.096,123.398 L 114.096,123.398 z"
   style="fill:#000000" />

   <path
   id="path5552"
   class="fil8"
   d="M 101.545,126.359 C 101.5055,126.3668 101.4674,126.3828 101.4339,126.4063 C 101.3109,126.5085 101.1756,126.6046 101.091,126.7471 C 101.0347,126.8716 100.987,127.0005 100.9244,127.1219 C 100.852,127.2907 100.7074,127.4282 100.6954,127.623 C 100.6838,127.7172 100.7386,127.8657 100.8489,127.8398 C 100.9258,127.7668 100.9129,127.6383 100.9862,127.5626 C 101.0864,127.4617 101.2187,127.553 101.3259,127.4699 C 101.3355,127.482 101.3625,127.5161 101.3625,127.5313 C 101.3233,127.688 101.2424,127.8308 101.1984,127.9865 C 101.158,128.0459 101.1553,128.1572 101.2273,128.1943 C 101.3362,128.2142 101.3427,128.0559 101.3642,127.9779 C 101.4002,127.8732 101.4521,127.7745 101.5081,127.6805 C 101.6206,127.5444 101.7159,127.3938 101.816,127.2475 C 101.9224,127.0919 101.9959,126.8967 101.968,126.6995 C 101.954,126.5623 101.8563,126.4486 101.7402,126.3918 C 101.6797,126.3564 101.6107,126.3461 101.545,126.359 L 101.545,126.359 z"
   style="fill:#000000" />

   <path
   id="path5550"
   class="fil4"
   d="M 101.605,126.631 C 101.633,126.62 101.6675,126.6308 101.6939,126.645 C 101.7854,126.6979 101.8172,126.8347 101.7659,126.9258 C 101.7196,127.0456 101.683,127.175 101.5986,127.2718 C 101.562,127.3159 101.5182,127.3541 101.468,127.3797 C 101.4667,127.3007 101.5389,127.2452 101.5316,127.1648 C 101.5395,127.1209 101.5525,127.0764 101.5586,127.0317 C 101.5708,126.9549 101.5731,126.875 101.5515,126.7989 C 101.5563,126.7488 101.5501,126.6923 101.579,126.6497 C 101.5861,126.6407 101.5956,126.6347 101.605,126.631 L 101.605,126.631 z"
   style="fill:#e3e4e5" />

   <path
   id="path5548"
   class="fil8"
   d="M 114.65,124.351 C 114.646,124.3522 114.6422,124.3541 114.6389,124.3563 C 114.5893,124.4005 114.6332,124.5821 114.6419,124.7896 C 114.6538,125.0061 114.631,125.2799 114.606,125.5771 C 114.5845,125.8833 114.5549,126.2264 114.6022,126.236 C 114.6459,126.2367 114.7539,125.9004 114.8284,125.5591 C 114.9124,125.2132 114.9518,124.866 114.8928,124.6395 C 114.8463,124.4231 114.7105,124.3325 114.65,124.351 L 114.65,124.351 z"
   style="fill:#000000" />

   <path
   id="path5546"
   class="fil8"
   d="M 110.359,126.232 C 110.3096,126.2396 110.2219,126.3196 110.1572,126.4133 C 110.0614,126.5425 109.9995,126.6764 109.9384,126.811 C 109.8802,126.9542 109.8189,127.0888 109.7178,127.2944 C 109.6168,127.5003 109.4763,127.7764 109.4713,127.8846 C 109.4757,127.9884 109.6217,127.9107 109.7427,127.7909 C 109.851,127.6663 109.928,127.4822 110.0202,127.3124 C 110.1059,127.1245 110.2041,126.9419 110.2833,126.7359 C 110.3624,126.5296 110.4251,126.3097 110.3931,126.2506 C 110.3874,126.2347 110.3755,126.2294 110.359,126.232 z"
   style="fill:#000000" />

   <path
   id="path5544"
   class="fil8"
   d="M 115.284,125.517 C 115.2477,125.5299 115.2085,125.5817 115.1811,125.658 C 115.1391,125.815 115.1474,126.0548 115.1406,126.2801 C 115.1275,126.5187 115.0994,126.7425 115.0825,126.909 C 115.0689,127.0846 115.0668,127.2031 115.1265,127.2176 C 115.177,127.2364 115.3077,127.1438 115.3469,127.0091 C 115.402,126.8882 115.3776,126.7291 115.3775,126.4542 C 115.3868,126.1749 115.4171,125.7707 115.3715,125.6122 C 115.3533,125.5309 115.3202,125.5041 115.284,125.517 z"
   style="fill:#000000" />

   <path
   id="path5540"
   class="fil8"
   d="M 110.273,127.446 C 110.2135,127.4696 110.1483,127.6111 110.0504,127.7953 C 109.9334,127.9873 109.7862,128.2467 109.8028,128.3237 C 109.8194,128.4007 110.0151,128.3088 110.1513,128.1712 C 110.3065,128.0248 110.3832,127.8416 110.394,127.6887 C 110.4079,127.5448 110.3473,127.4355 110.2847,127.4435 C 110.2808,127.444 110.2769,127.4444 110.273,127.446 L 110.273,127.446 z"
   style="fill:#000000" />

   <path
   id="path52"
   class="fil8"
   d="M 115.845,126.399 C 115.7878,126.4146 115.7291,126.476 115.7053,126.5466 C 115.6722,126.6675 115.7364,126.8173 115.7571,126.9664 C 115.7775,127.1154 115.7541,127.264 115.6979,127.5651 C 115.6386,127.8569 115.5592,128.3061 115.5861,128.4732 C 115.6038,128.6448 115.74,128.5387 115.8134,128.3775 C 115.89,128.2256 115.8979,128.0313 115.9144,127.8333 C 115.931,127.6353 115.9605,127.4425 115.9857,127.177 C 115.9983,126.9067 116.0217,126.5782 115.9577,126.4598 C 115.9324,126.4023 115.8894,126.3868 115.845,126.399 L 115.845,126.399 z"
   style="fill:#000000" />

  </g>
    <g
       id="_40089440">
   <rect
   id="rect3066"
   class="fil2 str6"
   x="121.299"
   y="64.309601"
   width="1.39969"
   height="72.066902"
   style="fill:#eac102;stroke:#000000;stroke-width:0.25" />

   <path
   id="path2792"
   class="fil2 str6"
   d="M 121.326,52.1722 C 123.3152,61.6586 125.4676,62.9003 120.5392,72.7353 C 117.5422,65.2444 118.7436,61.2817 121.326,52.1722 z"
   style="fill:#eac102;stroke:#000000;stroke-width:0.25" />

   <path
   id="path2794"
   class="fil2 str6"
   d="M 128.079,57.5688 C 124.8424,61.7091 120.4941,63.2137 122.0608,76.8021 C 127.8236,70.8452 127.2112,69.9574 128.079,57.5688 L 128.079,57.5688 z"
   style="fill:#eac102;stroke:#000000;stroke-width:0.25" />

   <path
   id="path2796"
   class="fil2 str6"
   d="M 128.018,69.3045 C 123.8803,73.091 120.2306,73.3404 122.4123,85.6762 C 126.1554,79.7452 127.6183,80.61 128.018,69.3045 z"
   style="fill:#eac102;stroke:#000000;stroke-width:0.25" />

   <path
   id="path2798"
   class="fil2 str6"
   d="M 128.186,77.7673 C 125.0377,81.7089 120.8043,83.1345 122.3423,96.0982 C 127.9492,90.4294 127.352,89.5814 128.186,77.7673 z"
   style="fill:#eac102;stroke:#000000;stroke-width:0.25" />

   <path
   id="path2802"
   class="fil2 str6"
   d="M 128.771,88.9458 C 125.3695,92.586 120.3853,94.0102 122.1486,106.182 C 126.9857,100.8298 127.6222,99.9654 128.771,88.9458 z"
   style="fill:#eac102;stroke:#000000;stroke-width:0.25" />

   <path
   id="path2804"
   class="fil2 str6"
   d="M 114.927,58.809 C 117.046,62.5577 122.557,63.5641 121.6699,77.2513 C 115.4163,69.3899 115.3947,70.5935 114.927,58.809 z"
   style="fill:#eac102;stroke:#000000;stroke-width:0.25" />

   <path
   id="path2806"
   class="fil2 str6"
   d="M 115.117,69.65 C 117.2339,72.9295 122.6917,73.8766 121.8891,85.7343 C 115.6591,78.8324 115.6443,79.8759 115.117,69.65 z"
   style="fill:#eac102;stroke:#000000;stroke-width:0.25" />

   <path
   id="path2808"
   class="fil2 str6"
   d="M 115.678,78.6637 C 117.7355,82.2648 123.3374,83.4551 122.0387,96.2128 C 115.8746,88.5792 115.8181,89.7037 115.678,78.6637 z"
   style="fill:#eac102;stroke:#000000;stroke-width:0.25" />

   <path
   id="path2802_3"
   class="fil2 str6"
   d="M 115.307,88.9048 C 118.7085,92.545 123.6927,93.9692 121.9294,106.141 C 117.0923,100.7888 116.4558,99.9244 115.307,88.9048 z"
   style="fill:#eac102;stroke:#000000;stroke-width:0.25" />

   <line
   id="_39116792"
   class="fil3 str7"
   x1="115.205"
   y1="43.819"
   x2="115.205"
   y2="59.301998"
   style="fill:none;stroke:#000000;stroke-width:0.25;stroke-linejoin:round" />

   <line
   id="_37996488"
   class="fil3 str7"
   x1="127.787"
   y1="42.888401"
   x2="127.787"
   y2="57.9347"
   style="fill:none;stroke:#000000;stroke-width:0.25;stroke-linejoin:round" />

   <line
   id="_38467944"
   class="fil3 str7"
   x1="119.333"
   y1="41.1297"
   x2="119.333"
   y2="59.771301"
   style="fill:none;stroke:#000000;stroke-width:0.25;stroke-linejoin:round" />

   <line
   id="_38439432"
   class="fil3 str7"
   x1="123.505"
   y1="40.928398"
   x2="123.505"
   y2="62.0247"
   style="fill:none;stroke:#000000;stroke-width:0.25;stroke-linejoin:round" />

   <line
   id="_38746336"
   class="fil3 str7"
   x1="125.708"
   y1="41.717602"
   x2="125.708"
   y2="60.206299"
   style="fill:none;stroke:#000000;stroke-width:0.25;stroke-linejoin:round" />

   <line
   id="_38038048"
   class="fil3 str7"
   x1="117.164"
   y1="42.2211"
   x2="117.164"
   y2="61.508202"
   style="fill:none;stroke:#000000;stroke-width:0.25;stroke-linejoin:round" />

   <line
   id="_69109096"
   class="fil3 str7"
   x1="121.327"
   y1="40.424198"
   x2="121.327"
   y2="52.3578"
   style="fill:none;stroke:#000000;stroke-width:0.25;stroke-linejoin:round" />

  </g>
  </g>
</svg>
