<?xml version="1.0" encoding="UTF-8" standalone="no"?><!-- Created with Inkscape (http://www.inkscape.org/) -->
<svg
   xmlns:dc="http://purl.org/dc/elements/1.1/"
   xmlns:cc="http://creativecommons.org/ns#"
   xmlns:rdf="http://www.w3.org/1999/02/22-rdf-syntax-ns#"
   xmlns="http://www.w3.org/2000/svg"
   xmlns:xlink="http://www.w3.org/1999/xlink"
   xmlns:inkscape="http://www.inkscape.org/namespaces/inkscape"
   width="750"
   height="500"
   id="svg5298"
   inkscape:version="0.46"
   version="1.1">
 <metadata>
  <rdf:RDF>
   <cc:Work rdf:about="">
    <dc:format>image/svg+xml</dc:format>
    <dc:type rdf:resource="http://purl.org/dc/dcmitype/StillImage"/>
   </cc:Work>
  </rdf:RDF>
 </metadata>
<rect style="fill:#ffffff;stroke:#078930;stroke-width:5" width="750" height="500"/>
<path fill="#da121a" d="M 3,3 3,497 747,497"/>
 <g transform="translate(390,280)">
  <path style="fill:#078930" d="M -23.62,-21.55 C -35.41,2.83 -45.37,28.02 -16.41,70.09 C -23.50,71.3 -30.84,71.98 -33.2,82.93 C -67.93,24.8 -32.25,-6.82 -33.78,-31.04 C -47.12,-55.1 2.6,-16.42 -23.62,-21.55"/>
 </g>
 <g id="trebol" transform="translate(630,70)">
  <path style="fill:#078930" d="M -277.23,191.96 C -315.02,261.91 -364.2,244.1 -349.06,204.3 C -378.53,177.83 -353.25,137.63 -288.45,169.51 C -268.91,178.02 -263.28,174.18 -277.23,191.96"/>
 </g>
<use xlink:href="#trebol" transform="rotate(80) translate(-53,-567)"/>
<use xlink:href="#trebol" transform="rotate(170) translate(-678,-560)"/>
<use xlink:href="#trebol" transform="rotate(250) translate(-725,10)"/>
  <path
   d="M 117.3,160.5 L 106.5,137.6 C 106.1,136.8 105.7,136 105.3,135.1 C 105,134.2 104.6,133.4 104.3,132 C 104,131.9 103.6,131 103.3,130.2 C 103.5,131.2 103.6,132.1 103.7,133 C 103.9,133.8 104,134.7 104.1,135.6 C 104.2,136.5 104.3,137.3 104.4,138.1 L 106.5,165.5 L 103.2,167.1 L 83.3,148 C 83.1,147.8 82.8,147.5 82.6,147.3 C 82.3,147 82.1,146.7 81.8,146.4 C 81.5,146.1 81.2,145.8 80.9,145.5 C 80.6,145.1 80.3,144.8 80,144.5 C 79.3,143.7 78.6,143 77.9,142.2 C 78.4,143.1 78.8,144 79.3,144.8 C 79.7,145.6 80.1,146.4 80.5,147.2 C 80.9,148 81.2,148.8 81.5,149.4 L 92.3,172.2 L 88.1,174.2 L 72,139.9 L 78.1,137.1 L 98.4,156.5 C 98.7,156.8 99,157.2 99.4,157.6 C 99.8,158 100.2,158.5 100.6,158.9 C 101,159.4 101.4,159.8 101.7,160.3 C 102.1,160.7 102.3,161 102.5,161.2 C 102,161 102.3,160.6 102.3,160 C 102.2,159.5 102.1,158.9 102,158.3 C 101.9,157.6 101.8,157.1 101.7,156.5 C 101.7,155.9 101.6,155.4 101.6,155 L 99.4,127.1 L 105.3,124.3 L 121.4,158.5 L 117.3,160.5 M 144,149.8 C 142.1,150.6 140.2,151.1 138.2,151.2 C 136.3,151.4 134.5,151.2 132.7,150.7 C 131,150.1 129.4,149.1 128,147.8 C 126.5,146.4 125.3,144.6 124.4,142.3 L 115.5,119.9 L 120.2,118 L 129,140 C 129.7,141.8 130.6,143.2 131.5,144.2 C 132.5,145.3 133.6,146 134.7,146.5 C 135.9,146.9 137.1,147.1 138.4,147 C 139.7,146.9 141.1,146.5 142.4,146 C 143.8,145.4 145,144.7 146.1,143.9 C 147.2,143 148,142 148.6,140.8 C 149.2,139.7 149.5,138.4 149.5,136.9 C 149.5,135.4 149.1,133.7 148.4,131.8 L 139.7,110.2 L 144.4,108.3 L 153.2,130.2 C 154.2,132.6 154.6,134.7 154.5,136.8 C 154.4,138.8 154,140.6 153.1,142.3 C 152.2,144 151,145.4 149.4,146.7 C 147.8,148 146.1,149 144,149.8 M 190,132.6 L 160.6,108.5 C 160.9,109.3 161.2,110.1 161.6,110.9 C 161.8,111.6 162.1,112.3 162.4,113.1 C 162.7,113.8 162.9,114.5 163.1,115.1 L 171.1,138.9 L 166.8,140.4 L 154.7,104.5 L 160.4,102.6 L 190.1,126.9 C 190.1,126.9 189.8,126 189.1,124.4 C 188.9,123.7 188.6,123 188.2,122.1 C 187.9,121.3 187.6,120.5 187.4,119.7 L 179.5,96.2 L 183.9,94.7 L 195.9,130.6 L 190,132.6 M 205.1,128 L 194.6,91.7 L 199.6,90.2 L 210.1,126.6 L 205.1,128 M 227.5,86.7 C 225.4,87.2 223.6,88 222.2,89 C 220.7,90.1 219.6,91.4 218.8,93 C 218.1,94.5 217.6,96.3 217.5,98.2 C 217.4,100.2 217.6,102.3 218.1,104.5 C 218.7,106.7 219.5,108.6 220.5,110.3 C 221.5,112 222.8,113.4 224.2,114.4 C 225.7,115.5 227.3,116.2 229.1,116.5 C 230.9,116.9 232.8,116.8 234.9,116.3 C 236.3,115.9 237.5,115.4 238.6,114.8 C 239.7,114.1 240.6,113.3 241.4,112.4 C 242.2,111.5 242.9,110.5 243.4,109.4 C 243.9,108.3 244.3,107.1 244.6,105.8 L 249.2,106.9 C 248.9,108.4 248.4,109.9 247.7,111.3 C 247,112.7 246.1,114 245,115.2 C 243.9,116.4 242.6,117.4 241,118.4 C 239.5,119.2 237.7,119.9 235.6,120.4 C 232.6,121.2 229.9,121.3 227.4,120.9 C 225,120.5 222.8,119.6 220.9,118.3 C 219,117 217.4,115.2 216,113.1 C 214.7,110.9 213.7,108.5 213.1,105.7 C 212.4,102.8 212.1,100.1 212.4,97.6 C 212.6,95.1 213.3,92.9 214.4,90.9 C 215.5,88.9 217.1,87.2 219.1,85.8 C 221.1,84.3 223.6,83.3 226.4,82.6 C 230.3,81.6 233.8,81.6 236.8,82.5 C 239.8,83.4 242.3,85.2 244.2,87.9 L 239.9,90.6 C 239.3,89.8 238.7,89.1 237.9,88.5 C 237.1,87.8 236.2,87.3 235.2,86.9 C 234.1,86.5 233,86.3 231.7,86.2 C 230.4,86.1 229,86.3 227.5,86.7 M 258.5,114.8 L 251.3,77.7 L 256.3,76.7 L 263.6,113.9 L 258.5,114.8 M 298,81.5 C 298.2,83.1 298.2,84.7 297.8,86.2 C 297.5,87.7 296.9,89 296,90.2 C 295.1,91.4 293.8,92.4 292.3,93.3 C 290.8,94.1 289,94.7 286.8,95 L 275.8,96.7 L 278,111.2 L 272.9,112 L 267.3,74.6 L 283.1,72.2 C 285.3,71.9 287.3,71.9 289,72.2 C 290.7,72.5 292.2,73 293.5,73.8 C 294.7,74.7 295.7,75.7 296.5,77 C 297.2,78.3 297.7,79.8 298,81.5 M 292.9,82.3 C 292.5,79.9 291.5,78.3 289.9,77.3 C 288.3,76.2 286,75.9 283.1,76.4 L 273,77.9 L 275.2,92.6 L 285.5,91.1 C 288.4,90.7 290.5,89.7 291.6,88.2 C 292.8,86.7 293.2,84.7 292.9,82.3 M 309.9,106.9 L 306,69.3 L 311.1,68.8 L 315,106.4 L 309.9,106.9 M 359.1,84.3 C 359.2,87.3 358.9,90 358.2,92.4 C 357.5,94.9 356.4,97 354.9,98.8 C 353.3,100.6 351.5,102.1 349.2,103.1 C 346.9,104.2 344.3,104.8 341.3,104.9 C 338.2,105.1 335.5,104.8 333.1,103.9 C 330.7,103.1 328.7,101.8 327,100.1 C 325.4,98.5 324.1,96.5 323.2,94.1 C 322.3,91.8 321.7,89.2 321.6,86.3 C 321.4,83.4 321.7,80.7 322.4,78.3 C 323.1,75.8 324.2,73.8 325.7,72 C 327.2,70.2 329.1,68.9 331.3,67.8 C 333.6,66.8 336.3,66.2 339.3,66 C 342.3,65.9 345,66.2 347.4,67 C 349.8,67.8 351.8,69 353.5,70.6 C 355.1,72.1 356.5,74.1 357.4,76.4 C 358.4,78.8 358.9,81.4 359.1,84.3 M 353.8,84.6 C 353.7,82.3 353.3,80.3 352.6,78.5 C 351.9,76.6 351,75.1 349.8,73.8 C 348.6,72.6 347.1,71.6 345.4,71 C 343.7,70.4 341.7,70.1 339.5,70.2 C 337.3,70.3 335.3,70.8 333.7,71.6 C 332,72.4 330.6,73.5 329.6,74.9 C 328.5,76.3 327.7,77.9 327.3,79.8 C 326.8,81.7 326.7,83.8 326.8,86 C 326.9,88.3 327.3,90.4 328,92.2 C 328.7,94.1 329.6,95.7 330.8,97 C 332,98.3 333.5,99.3 335.2,100 C 337,100.6 338.9,100.9 341.1,100.8 C 343.5,100.6 345.5,100.1 347.1,99.3 C 348.8,98.4 350.2,97.3 351.2,95.9 C 352.2,94.4 352.9,92.8 353.4,90.8 C 353.8,88.9 354,86.8 353.8,84.6 M 415.9,85.7 C 415.8,88.8 415.2,91.6 414.1,94 C 413,96.3 411.6,98.3 409.9,99.8 C 408.2,101.3 406.2,102.5 403.9,103.2 C 401.6,103.9 399.2,104.2 396.6,104.1 L 382.5,103.5 L 384.2,65.7 L 396.7,66.2 C 399.6,66.4 402.3,66.9 404.7,67.7 C 407.1,68.5 409.2,69.8 410.9,71.4 C 412.6,72.9 413.9,74.9 414.8,77.3 C 415.7,79.7 416,82.5 415.9,85.7 M 410.7,85.4 C 410.9,82.9 410.6,80.7 409.9,78.8 C 409.3,77 408.3,75.4 407.1,74.2 C 405.8,73 404.3,72.1 402.4,71.5 C 400.6,70.8 398.6,70.4 396.4,70.3 L 389.1,70 L 387.8,99.6 L 396.2,100 C 398.2,100.1 400,99.8 401.8,99.3 C 403.5,98.7 405,97.8 406.3,96.6 C 407.6,95.4 408.6,93.9 409.4,92 C 410.2,90.1 410.6,87.9 410.7,85.4 M 422.2,105.6 L 426.4,68 L 454.9,71.3 L 454.5,75.4 L 431,72.8 L 429.7,84.8 L 451.5,87.3 L 451,91.4 L 429.2,89 L 427.7,102.1 L 452.3,104.8 L 451.8,109 L 422.2,105.6 M 493.8,82.3 L 487.3,115.3 L 482.3,114.3 L 488.8,81.3 L 476.1,78.8 L 476.9,74.7 L 507.4,80.7 L 506.6,84.8 L 493.8,82.3 M 506.2,119.5 L 515,82.7 L 520,83.9 L 511.2,120.7 L 506.2,119.5 M 551.6,120.6 C 551,122.5 550.2,123.9 549.1,125 C 548,126.1 546.8,126.9 545.3,127.4 C 543.8,127.8 542.3,128 540.5,128 C 538.8,127.9 537,127.6 535.3,127.1 L 520.5,122.9 L 530.8,86.5 L 544.1,90.2 C 546.1,90.8 547.8,91.5 549.3,92.3 C 550.8,93.1 552,94 552.9,95 C 553.8,96 554.4,97.2 554.6,98.5 C 554.9,99.7 554.8,101.2 554.4,102.7 C 554.1,103.7 553.7,104.6 553.1,105.4 C 552.6,106.3 551.9,107 551.1,107.5 C 550.3,108.1 549.4,108.5 548.4,108.8 C 547.4,109.1 546.3,109.2 545.1,109.1 C 546.5,109.7 547.7,110.4 548.6,111.2 C 549.6,112 550.4,112.9 550.9,113.9 C 551.5,114.9 551.8,116 551.9,117.1 C 552,118.3 551.9,119.4 551.6,120.6 M 549.2,101.9 C 549.8,99.9 549.5,98.3 548.4,97.1 C 547.3,95.9 545.5,94.9 542.9,94.2 L 534.6,91.8 L 531.4,103.3 L 539.7,105.7 C 541.1,106.1 542.4,106.3 543.4,106.3 C 544.5,106.3 545.4,106.1 546.2,105.8 C 547,105.5 547.6,104.9 548.1,104.3 C 548.6,103.6 549,102.8 549.2,101.9 M 546.7,118.8 C 547,117.7 547.1,116.6 546.9,115.7 C 546.7,114.8 546.3,113.9 545.6,113.21 C 545,112.4 544.1,111.8 543.1,111.2 C 542,110.7 540.8,110.2 539.5,109.8 L 530.3,107.2 L 526.5,120.3 L 536.1,123.0 C 537.4,123.4 538.6,123.6 539.7,123.7 C 540.8,123.8 541.8,123.7 542.7,123.4 C 543.6,123.1 544.4,122.6 545.1,121.9 C 545.8,121.1 546.3,120.1 546.7,118.8 M 581.1,141.9 L 580.6,130.1 L 564.3,124.4 L 556.6,133.5 L 551.6,131.7 L 578.5,101 L 584.1,102.9 L 586,143.7 L 581.1,141.9 M 580,112.4 C 579.9,111.6 579.9,110.9 579.9,110.1 C 579.9,109.3 579.9,108.6 579.9,108 C 579.9,107.3 579.9,106.8 579.9,106.4 C 579.9,106 580,105.7 580,105.6 C 579.9,105.7 579.8,105.9 579.5,106.2 C 579.2,106.6 578.9,107 578.5,107.5 C 578.1,108 577.7,108.6 577.2,109.2 C 576.7,109.8 576.2,110.4 575.7,111 L 567.1,121.2 L 580.5,125.8 L 580,112.4 M 613.1,154.7 L 606.6,117.2 C 606.3,118 606,118.8 605.7,119.6 C 605.5,120.3 605.2,121.1 604.9,121.8 C 604.6,122.6 604.4,123.3 604.1,123.8 L 594.6,147.1 L 590.4,145.4 L 604.7,110.4 L 610.2,112.6 L 616.9,150.4 C 616.9,150.4 617.2,149.6 617.7,147.9 C 618,147.2 618.3,146.4 618.6,145.6 C 618.9,144.7 619.2,144 619.5,143.2 L 628.9,120.2 L 633.1,122 L 618.8,157 L 613.1,154.7 M 651.4,172.1 L 652.2,160.2 L 636.6,152.9 L 627.9,161.1 L 623.1,158.8 L 653.2,131.1 L 658.4,133.6 L 656.1,174.3 L 651.4,172.1 M 653.4,142.6 C 653.4,141.8 653.5,141.1 653.6,140.3 C 653.6,139.5 653.7,138.8 653.8,138.2 C 653.9,137.6 653.9,137 654,136.6 C 654,136.2 654.1,135.9 654.1,135.8 C 654,135.9 653.8,136.1 653.6,136.4 C 653.3,136.7 652.9,137.1 652.4,137.6 C 652,138.1 651.5,138.6 651.0,139.1 C 650.4,139.7 649.9,140.2 649.3,140.8 L 639.7,150 L 652.5,156.0 L 653.4,142.6"/>
</svg>