<?xml version="1.0" encoding="UTF-8" standalone="no"?><!-- Created with Inkscape (http://www.inkscape.org/) -->
<svg
 xmlns="http://www.w3.org/2000/svg"
 version="1.0"
 width="750" height="500">
<rect fill="#078930" width="250" height="500"/>
<rect fill="#ffffff" width="250" height="500" x="250"/>
<rect fill="#fcdd09" width="250" height="500" x="500"/>
 <g style="fill:#078930;stroke:#000000;stroke-width:2" transform="translate(192.6,-112.7) scale(.5)">
  <path
   d="M 419.2,904.2 C 412.5,901 410.6,897 397.7,893 C 390,890.6 383,889 374.8,887.5 C 359,876.6 408,891 415.4,895 C 417.5,896.4 420.3,898 421.8,898.3 C 425,899.3 434.3,904.1 434.3,904.8 C 434.3,905 433.8,905.2 433,905.1 C 432.3,905 426,904.6 419.2,904.2"/>
  <path
   d="M 279.5,580.7 C 235.9,610.1 207,661.3 207,719.6 C 207,810.8 277.6,884.8 364.8,884.8 C 452,884.8 522.6,810.8 522.6,719.6 C 522.6,659.5 491.8,606.8 445.8,578 C 435.3,573 388,543.8 445.8,583.2 C 460.5,592.7 473.7,604.8 484.4,618.8 C 511.2,653 523,699.1 516.9,742.8 C 511,788 485.2,829.3 449,854.1 C 413.2,879.1 367.3,886.5 325.8,875.1 C 281.6,863.5 243.6,829.5 224.8,786.1 C 204.6,740.7 207,685.3 230.3,641.8 C 242,619.3 259.2,600.3 279.5,586.1 C 337,543.1 294.3,570.7 279.5,580.7"/>
  <path
   d="M 381.2,883.8 C 371.5,885.1 354.7,885.8 349,887 C 343.2,888.3 322,894.7 313,903.7 C 305.2,904.8 297.1,905.1 297.1,904.5 C 297.1,904 325.7,889.8 331.2,887.6 C 338.8,884.7 358,881 363.2,880.6"/>
  <path
   d="M 269.4,885.8 C 263.6,884 256.8,882 254.3,881.2 L 249.8,880 L 257.5,878.6 C 261.7,877.8 269.7,876.3 275.3,875.2 C 291,872 306.5,873 316.6,877.6 L 319.3,879 L 316,882 C 307.1,889.8 287.5,891.4 269.4,885.8"/>
  <path
   d="M 425,887 C 417.5,884.2 410.6,879.4 412.6,878.3 C 416.7,876 430.3,873.1 437.4,873.1 C 443.8,873.1 460.8,875.8 477,879.3 C 480.1,880 478.8,880.6 465.4,884.6 C 452.3,888.6 449.1,889.2 440.5,889.2 C 433.5,889.1 429,888.5 425,887"/>
  <path
   d="M 309.7,872.3 C 298.4,868.2 290.4,858.8 286.1,844.7 C 284.6,840 283.2,834 282.8,831.4 L 282.2,826.8 L 296.3,841.1 C 310.8,855.8 313.8,860.2 314.7,868.5 C 315.2,873.3 314.3,874 309.7,872.3"/>
  <path
   d="M 415.8,868.8 C 417,859.4 422.4,852.1 442.3,833 L 448.7,827 L 447.8,832.4 C 445.1,850.1 436.1,865.5 425.6,870.5 C 422.6,872 419.1,873.1 417.7,873.1 C 415.4,873.1 415.3,872.8 415.8,868.8"/>
  <path
   d="M 251.6,862.5 C 239.5,858.6 236.4,857 224.8,849 C 218.4,844.4 213.4,840.5 213.5,840.4 C 215.1,839.3 253,843.5 256.2,845.2 C 257.1,845.6 261,847.6 264.6,849.4 C 268.4,851.3 273.3,854.5 275.5,856.5 L 279.6,860.2 L 276,861.8 C 269.6,864.5 258.8,864.8 251.6,862.5"/>
  <path
   d="M 459.6,863.3 C 457.1,862.8 454.4,861.9 453.6,861.2 C 451.6,859.5 453.5,857.3 461.2,852.1 C 469.8,846.2 479.5,843.2 493.7,842 C 512,840.4 517,840.3 516.4,841.2 C 515.2,843.2 493.6,857.2 488.6,859.3 C 476.8,864.1 468.9,865.2 459.6,863.3"/>
  <path
   d="M 271.2,849.1 C 264.6,844.1 258.7,835.4 257.3,828.8 C 256.7,825.7 256.3,817 256.5,809.2 L 256.8,795.3 L 260.6,802.8 C 262.7,807 265.7,812.2 267.2,814.4 C 274.5,825.4 278.6,840.3 276.6,848.6 L 275.6,852.6 L 271.2,849.2"/>
  <path
   d="M 454.5,841.8 C 455,830.2 456.8,824.5 462.4,816.6 C 463.7,814.7 466.8,809.2 469.3,804.3 L 474,795.5 L 474.7,804.6 C 475.5,815.4 474.1,829.3 471.4,835.1 C 469.4,839.6 460.5,849.4 456.4,851.6 L 454,853 L 454.5,841.8"/>
  <path
   d="M 231.5,828.6 C 228,827.8 223.5,826.3 221.6,825.3 C 215.3,822 204.5,812.4 199.7,806 C 197.2,802.4 193.7,798 192,796.1 C 188.4,792.2 188.6,792 194.2,794.1 C 196.4,795 200.8,796.2 204,797 C 210.8,798.2 222.5,803.7 229.1,808.6 C 234.1,812.3 242,821.2 244.3,826 C 245.7,828.8 245.7,829.1 244,829.1 C 243,829.1 241.2,829.3 240,829.6 C 239,829.8 235,829.4 231.5,828.6"/>
  <path
   d="M 488.5,829.4 C 487,829.1 485.7,828.7 485.7,828.4 C 485.7,826.3 492,817.5 497,812.8 C 504,806.3 518.1,798.6 526.6,796.8 C 529.7,796.2 534.3,795 536.9,794.1 C 542.3,792.2 543.5,792.8 539.6,795.3 C 538.1,796.4 535.3,799.7 533.3,802.7 C 527.2,812 523.8,815.2 511,824 C 506.1,827.3 494,830.3 488.5,829.4"/>
  <path
   d="M 240.3,815.1 C 237.6,812 236.3,809 235,802.8 C 234,798.3 233.2,792.8 233.2,790.5 C 233.2,784.6 237,766.4 239.4,761.1 C 241.4,756.7 241.4,756.7 241.5,760 C 241.6,761.6 243.3,769.8 245.3,778.1 C 247.5,787.5 249,795.8 249,800.2 C 249,807.2 246.6,817.7 244.8,818.9 C 244.3,819.2 242.3,817.5 240.3,815.1"/>
  <path
   d="M 484.7,816.4 C 480.5,805.5 480.7,798.3 485.6,778.1 C 487.3,771 488.8,764 488.8,762.3 C 488.8,753 493.4,763.6 496.1,779.3 C 498.8,794.5 495.4,812.1 489,817 L 485.9,819.3 L 484.7,816.4"/>
  <path
   d="M 212.4,786.1 C 205,783.4 197.4,777.3 193,770.4 C 191,767.3 186.4,759 183,751.8 L 176.7,739 L 181.7,741.8 C 184.4,743.4 189.4,746.7 192.7,749.1 C 196.1,751.5 200.5,754.5 202.5,755.7 C 210.1,760.4 218.7,774.2 220.3,784 C 221,789 220.7,789.1 212.4,786.1"/>
  <path
   d="M 509.7,786.7 C 509.7,785.8 511.2,781.1 513,776.3 C 516.7,766.4 521.6,760.2 530.6,754.1 C 538.7,748.5 552.1,740 552.8,740 C 553.9,740 540.1,767.3 536.5,772.4 C 532.3,778.3 525.2,783.5 517.8,786.3 C 511.2,788.7 509.7,788.8 509.7,786.7"/>
  <path
   d="M 219.7,772.8 C 217,765 216.9,755.3 219.6,746.1 C 221.9,738.7 235.3,716.4 235.3,720.2 C 235.1,732.7 233,757.7 231.8,761.6 C 229.7,768.3 226.6,774.5 224,776.8 C 222,778.8 222,778.7 219.7,772.8"/>
  <path
   d="M 506.3,776.8 C 503.8,774 499.7,764.8 498.3,759 C 497.3,754.4 494.9,719.6 495.6,718.8 C 496.3,718 509,739.4 511,744.8 C 514.1,754 514.1,766.6 510.8,773.5 C 509.5,776.4 508.4,778.6 508.2,778.6 C 508.1,778.6 507.2,777.8 506.3,776.8"/>
  <path
   d="M 200.5,738.3 C 191,731.8 185.6,721 182.5,701.8 C 181.6,696.4 180.6,691.1 180.2,690 C 179.6,688.4 180.3,688.7 183.2,691.2 C 185.3,693 188.1,695.2 189.5,696.2 C 194,699.3 205.2,716.5 207.2,723.2 C 209.5,730.8 209.8,742.2 207.7,742.2 C 207,742.2 203.7,740.4 200.5,738.3"/>
  <path
   d="M 521.6,734.2 C 522.4,724.8 524.8,717.7 529.7,710.4 C 533.4,705 549.2,688.5 550.7,688.5 C 551.2,688.5 551.1,689.8 550.6,691.3 C 550,692.8 548.9,698.3 548,703.4 C 545.2,721.3 539.2,732.8 529.7,738.7 C 521.2,743.9 520.8,743.6 521.6,734.2"/>
  <path
   d="M 211.7,729 C 211.2,725 211.6,721 212.7,716.3 C 215.6,704.6 218.8,699.3 229,689.3 C 234.2,684.2 238.5,680.3 238.5,680.6 C 238.5,681 237.7,683.6 236.8,686.7 C 231.7,703.6 228.5,713 226.6,716.3 C 223.7,721.6 214.1,734.6 213.2,734.6 C 212.8,734.6 212.1,732.1 211.7,729"/>
  <path
   d="M 513.1,729.5 C 504.6,719.1 500.1,708.6 492.5,682.1 L 491.7,679.4 L 494.3,682.1 C 495.8,683.5 500.5,688.3 504.8,692.6 C 511.5,699.3 513.1,701.6 515.5,708.2 C 518.5,716.4 520,728.2 518.4,732.3 C 517.5,734.7 517.4,734.6 513.1,729.5"/>
  <path
   d="M 204.3,694 C 196,688.8 192.6,677.2 194,658 C 194.4,651.5 194.8,644.6 194.8,642.7 C 194.8,639.4 195,639.5 198.4,645.4 C 200.3,648.7 202.6,652.2 203.4,653.1 C 205.6,655.6 209.7,665.7 211.2,672.2 C 212.5,678 212.2,684 210.1,692 C 209,696.6 208.7,696.7 204.3,694"/>
  <path
   d="M 521,693.6 C 520.2,692.1 519.7,687.1 519.7,680 C 519.7,669.4 520,668.2 523.1,661.7 C 525,657.8 528.5,651.4 531,647.5 L 535.6,640.2 L 536.5,650.7 C 538.1,669.1 537,679.3 532.4,687.8 C 530.6,691.2 525.1,696 523,696 C 522.7,696 521.8,695 521,693.6"/>
  <path
   d="M 214.4,686.8 C 214.4,677.8 219.6,667.8 228.6,659.7 C 232.3,656.3 250.7,645.6 252.8,645.6 C 253.1,645.6 251.8,647.4 250,649.6 C 248.2,651.8 244,658 240.4,663.3 C 233.5,674 226.6,681.7 220,686.5 C 214.6,690.3 214.4,690.3 214.4,686.8"/>
  <path
   d="M 511.3,686.8 C 505.1,682.5 496.2,673.5 494,669 C 491,663 485.6,655.1 481.8,651 C 480,649 478.3,646.8 478.3,646.3 C 478.3,645.8 483.1,648 488.9,651.1 C 497.1,655.5 500.9,658.3 506.1,664 C 512.8,671.3 514.3,674.4 516.6,686.1 C 517.4,690.3 516.7,690.4 511.3,686.8"/>
  <path
   d="M 215.7,650.7 C 209,639 209.2,631.3 217.2,607 L 220.2,598 L 223.8,609 C 226.6,617.7 227.3,621.8 227.3,628.2 C 227.3,637.3 224.5,646.7 220.2,651.7 L 218,654.5 L 215.7,650.7"/>
  <path
   d="M 511.1,653 C 510.5,652.1 508.6,648.8 507,645.6 C 504.2,640.1 504,638.8 504,628 C 504.1,617.3 504.5,615.2 507.4,607.5 C 509.3,602.3 510.8,599.5 511.2,600.5 C 515.8,612.6 520.2,629 520.2,634 C 520.2,638.5 516.8,648.7 514.1,652.1 C 512.6,654 512.1,654.1 511.1,653"/>
  <path
   d="M 226.5,646.4 C 230.1,634.7 245,623.6 262.7,619.3 C 273.1,616.8 274,617.2 267.7,622 C 264.6,624.3 260.5,627.8 258.4,629.8 C 249.6,638.2 232.5,648.8 227.7,648.8 C 226.2,648.8 226,648.3 226.5,646.4"/>
  <path
   d="M 500,648 C 496.2,647 485.1,640.3 479.4,635.4 C 476.2,632.8 470.2,627.8 466.1,624.4 C 462,621 458.7,618.1 459,618 C 460,617 473.1,620.4 480.8,623.6 C 490.6,627.9 498.6,634.8 502.3,642 C 505.6,648.7 505.3,649.4 500,648"/>
  <path
   d="M 235.5,613.1 C 234,605.6 235,596.6 237.9,590.5 C 239.3,587.4 243.6,581.2 247.3,576.6 L 254,568.2 L 254.7,575.2 C 256.3,590.6 252.7,603.4 244.1,612 C 241.1,615.1 238.1,617.7 237.5,617.7 C 237,617.7 236,615.6 235.5,613.1"/>
  <path
   d="M 487.5,613 C 484.5,610.2 481.3,605.7 479.6,602 C 477.1,596.3 476.7,594.2 476.4,581.7 L 476,567.8 L 480.1,572.5 C 491.7,586.2 495,592.1 495.8,601.8 C 496.3,608.3 494.8,617.7 493.2,617.7 C 492.8,617.7 490.2,615.5 487.5,613"/>
  <path
   d="M 251.2,609 C 260.1,600.3 269.1,597.3 285.4,597.3 C 297,597.3 299,598.4 292.2,601 C 289.4,602.1 283.4,604.9 278.8,607.2 C 269.6,611.9 259.9,614.4 251.2,614.4 L 245.6,614.5 L 251.2,609"/>
  <path
   d="M 467.3,613 C 463.9,612.2 456.6,609.4 451.1,606.8 C 445.6,604.1 439.4,601.2 437.2,600.4 C 431.6,598.4 434.2,597.3 445.1,597.3 C 461.9,597.3 472.5,601.2 481.4,610.6 L 485,614.5 L 479.3,614.4 C 476.2,614.3 470.8,613.7 467.3,613"/>
  <path
   d="M 280.1,591 C 278,590.5 275.8,589.8 275.5,589.4 C 274.3,588.2 277.2,585.8 282.7,583.3 C 291.1,579.5 304.1,579.7 316.2,583.9 C 321.3,585.6 325.4,587.4 325.4,587.9 C 325.4,588.3 323.6,588.7 321.5,588.7 C 319.3,588.7 312.4,589.4 306,590.3 C 293.7,592 286.4,592.2 280.1,591"/>
  <path
   d="M 428.6,590.9 C 425.1,590.4 418.4,589.6 413.6,589.2 C 408.8,588.7 405.3,588 405.7,587.5 C 407.5,585.8 422.7,581.3 429.1,580.6 C 437,579.8 447.3,582 452.2,585.6 C 455.7,588.1 456,589.3 453.4,590.3 C 450.5,591.4 435.3,591.8 428.6,590.9"/>
  <path
   d="M 265.2,587 C 263,577.6 269.8,566 283.1,556.8 C 286.5,554.5 290.3,552 291.5,551.3 L 293.8,550.1 L 292,557.6 C 289.3,568 286.3,573.7 280.2,580 C 276,584.5 268.4,589.8 266.4,589.8 C 266.1,589.8 265.6,588.5 265.2,587"/>
  <path
   d="M 459.4,587.6 C 454.4,585 445,574.3 442.6,568.7 C 440.6,564.1 437,551.2 437.7,550.6 C 437.8,550.4 441.4,552.5 445.6,555.3 C 454,561 463.1,571.1 464.8,577 C 466.1,581.3 465.7,589 464.2,589.4 C 463.6,589.5 461.4,588.8 459.4,587.6"/>
  <path
   d="M 298.7,568 C 301,557.7 306.3,553.4 322.8,549 C 326.8,548 331,546.7 332,546.3 C 335.7,544.7 331,552 322.8,560.3 C 315,568.4 308.8,571.5 301,571.5 C 298.2,571.5 298,571.3 298.7,568"/>
  <path
   d="M 420.8,569.8 C 418.2,568.8 414.3,566.6 412,564.7 C 408.1,561.5 396.3,546.8 397.1,546 C 397.3,545.8 399.7,546.4 402.5,547.3 C 405.3,548.2 410.6,549.8 414.3,550.8 C 424.5,553.8 432.2,561.8 432.2,569.4 C 432.2,571.1 431.6,571.5 428.8,571.5 C 427,571.5 423.3,570.7 420.8,569.8"/>
 </g>
</svg>
