<?xml version="1.0" encoding="UTF-8" standalone="no"?>
<!-- Created with Inkscape (http://www.inkscape.org/) -->
<svg
   xmlns:dc="http://purl.org/dc/elements/1.1/"
   xmlns:cc="http://creativecommons.org/ns#"
   xmlns:rdf="http://www.w3.org/1999/02/22-rdf-syntax-ns#"
   xmlns:svg="http://www.w3.org/2000/svg"
   xmlns="http://www.w3.org/2000/svg"
   xmlns:sodipodi="http://sodipodi.sourceforge.net/DTD/sodipodi-0.dtd"
   xmlns:inkscape="http://www.inkscape.org/namespaces/inkscape"
   width="900"
   height="600"
   id="svg15629"
   version="1.0"
   inkscape:version="0.46"
   sodipodi:docname="Flag_piedecuesta.svg"
   sodipodi:version="0.32"
   inkscape:output_extension="org.inkscape.output.svg.inkscape">
  <sodipodi:namedview
     id="base"
     pagecolor="#ffffff"
     bordercolor="#666666"
     borderopacity="1.0"
     inkscape:pageopacity="0.0"
     inkscape:pageshadow="2"
     inkscape:zoom="0.90166667"
     inkscape:cx="450"
     inkscape:cy="300"
     inkscape:document-units="px"
     inkscape:current-layer="layer1"
     showgrid="false"
     borderlayer="true"
     showguides="true"
     inkscape:guide-bbox="true"
     inkscape:window-width="1024"
     inkscape:window-height="746"
     inkscape:window-x="0"
     inkscape:window-y="0"
     inkscape:window-maximized="1"
     inkscape:showpageshadow="false" />
  <defs
     id="defs15631" />
  <metadata
     id="metadata15634">
    <rdf:RDF>
      <cc:Work
         rdf:about="">
        <dc:format>image/svg+xml</dc:format>
        <dc:type
           rdf:resource="http://purl.org/dc/dcmitype/StillImage" />
        <dc:title />
      </cc:Work>
    </rdf:RDF>
  </metadata>
  <g
     inkscape:label="Capa 1"
     inkscape:groupmode="layer"
     id="layer1"
     transform="translate(0,-453.36218)">
    <g
       id="g3779"
       transform="matrix(1.0008367,0,0,-1.0011942,1.0473114,1506.6709)">
      <path
         style="fill:#fefefe"
         d="M 0.57375395,453.63589 L 899.28804,453.63589 L 899.28804,1051.7788 L 0.57375395,1051.7788 L 0.57375395,453.63589 z"
         id="path3795"
         sodipodi:nodetypes="ccccc" />
      <path
         style="fill:#fefcfc"
         d="M 0.81918846,951.07101 L 1.0741517,850.36325 L 448.9301,850.56552 C 695.25088,850.67676 897.349,850.76132 898.03705,850.75343 C 899.02968,850.74203 899.28804,871.49887 899.28804,951.25892 L 899.28804,1051.7788 L 449.92614,1051.7788 L 0.56422526,1051.7788 L 0.81918846,951.07101 L 0.81918846,951.07101 z M 0.57375395,554.65336 L 0.57375395,453.63589 L 449.9309,453.63589 L 899.28804,453.63589 L 899.28804,554.65336 L 899.28804,655.67084 L 449.9309,655.67084 L 0.57375395,655.67084 L 0.57375395,554.65336 L 0.57375395,554.65336 z"
         id="path3793" />
      <path
         style="fill:#fefafa"
         d="M 0.81918846,951.12494 L 1.0741517,850.4711 L 448.9301,850.61343 C 695.25088,850.69173 897.349,850.752 898.03705,850.74741 C 899.02964,850.74041 899.28804,871.50208 899.28804,951.25892 L 899.28804,1051.7788 L 449.92614,1051.7788 L 0.56422526,1051.7788 L 0.81918846,951.12494 L 0.81918846,951.12494 z M 0.57375395,554.65336 L 0.57375395,453.63589 L 449.9309,453.63589 L 899.28804,453.63589 L 899.28804,554.65336 L 899.28804,655.67084 L 449.9309,655.67084 L 0.57375395,655.67084 L 0.57375395,554.65336 L 0.57375395,554.65336 z"
         id="path3791" />
      <path
         style="fill:#fefaf9"
         d="M 0.57375395,951.25892 C 0.57375395,871.49033 0.8320085,850.74534 1.8247482,850.76945 C 2.5127951,850.78615 72.656044,850.74285 157.69864,850.67325 C 242.74123,850.60355 444.38899,850.58995 605.80479,850.64295 L 899.28804,850.73915 L 899.28804,951.259 L 899.28804,1051.7789 L 449.9309,1051.7789 L 0.57375395,1051.7789 L 0.57375395,951.259 L 0.57375395,951.25892 z M 0.57375395,554.65336 L 0.57375395,453.63589 L 449.9309,453.63589 L 899.28804,453.63589 L 899.28804,554.65336 L 899.28804,655.67084 L 449.9309,655.67084 L 0.57375395,655.67084 L 0.57375395,554.65336 L 0.57375395,554.65336 z"
         id="path3789" />
      <path
         style="fill:#fef8f8"
         d="M 0.57375395,951.25892 C 0.57375395,871.50076 0.83213821,850.74131 1.8247482,850.74991 C 2.5127951,850.75591 72.430865,850.74091 157.19824,850.71571 C 241.96561,850.69091 443.61338,850.68601 605.30439,850.70481 L 899.28804,850.73901 L 899.28804,951.25886 L 899.28804,1051.7787 L 449.9309,1051.7787 L 0.57375395,1051.7787 L 0.57375395,951.25886 L 0.57375395,951.25892 z M 0.57375395,554.65336 L 0.57375395,453.63589 L 449.9309,453.63589 L 899.28804,453.63589 L 899.28804,554.65336 L 899.28804,655.67084 L 449.9309,655.67084 L 0.57375395,655.67084 L 0.57375395,554.65336 L 0.57375395,554.65336 z"
         id="path3787" />
      <path
         style="fill:#fef7f7"
         d="M 0.57375395,951.25892 C 0.57375395,895.973 0.91152241,850.73827 1.3243505,850.7373 C 4.4540266,850.7303 349.30451,850.7271 597.29803,850.7323 L 899.28804,850.7393 L 899.28804,951.25915 L 899.28804,1051.779 L 449.9309,1051.779 L 0.57375395,1051.779 L 0.57375395,951.25915 L 0.57375395,951.25892 z M 0.57375395,554.65336 L 0.57375395,453.63589 L 449.9309,453.63589 L 899.28804,453.63589 L 899.28804,554.65336 L 899.28804,655.67084 L 449.9309,655.67084 L 0.57375395,655.67084 L 0.57375395,554.65336 L 0.57375395,554.65336 z"
         id="path3785" />
      <path
         style="fill:#da1200;fill-opacity:1"
         d="M 0.57375395,850.73907 L 899.28804,850.73907 L 899.28804,1051.7788 L 0.57375395,1051.7788 L 0.57375395,850.73907 z"
         id="path3783"
         sodipodi:nodetypes="ccccc" />
      <path
         style="fill:#078930;fill-opacity:1"
         d="M 0.57375395,453.63589 L 899.28804,453.63589 L 899.28804,655.67084 L 0.57375395,655.67084 L 0.57375395,453.63589 z"
         id="path3781"
         sodipodi:nodetypes="ccccc" />
    </g>
  </g>
</svg>
