<?xml version="1.0" encoding="UTF-8" standalone="no"?>
<!-- Created with Inkscape (http://www.inkscape.org/) -->

<svg
   xmlns:dc="http://purl.org/dc/elements/1.1/"
   xmlns:cc="http://creativecommons.org/ns#"
   xmlns:rdf="http://www.w3.org/1999/02/22-rdf-syntax-ns#"
   xmlns:svg="http://www.w3.org/2000/svg"
   xmlns="http://www.w3.org/2000/svg"
   xmlns:sodipodi="http://sodipodi.sourceforge.net/DTD/sodipodi-0.dtd"
   xmlns:inkscape="http://www.inkscape.org/namespaces/inkscape"
   width="750"
   height="500"
   id="svg2"
   version="1.1"
   inkscape:version="0.47 r22583"
   sodipodi:docname="Flag of Topaipí (Cundinamarca).svg">
  <defs
     id="defs4">
    <inkscape:perspective
       sodipodi:type="inkscape:persp3d"
       inkscape:vp_x="0 : 526.18109 : 1"
       inkscape:vp_y="0 : 1000 : 0"
       inkscape:vp_z="744.09448 : 526.18109 : 1"
       inkscape:persp3d-origin="372.04724 : 350.78739 : 1"
       id="perspective10" />
  </defs>
  <sodipodi:namedview
     id="base"
     pagecolor="#ffffff"
     bordercolor="#666666"
     borderopacity="1.0"
     inkscape:pageopacity="0.0"
     inkscape:pageshadow="2"
     inkscape:zoom="0.59"
     inkscape:cx="689.50767"
     inkscape:cy="235.59322"
     inkscape:document-units="px"
     inkscape:current-layer="layer1"
     showgrid="false"
     inkscape:window-width="1024"
     inkscape:window-height="538"
     inkscape:window-x="-8"
     inkscape:window-y="-8"
     inkscape:window-maximized="1" />
  <metadata
     id="metadata7">
    <rdf:RDF>
      <cc:Work
         rdf:about="">
        <dc:format>image/svg+xml</dc:format>
        <dc:type
           rdf:resource="http://purl.org/dc/dcmitype/StillImage" />
        <dc:title />
      </cc:Work>
    </rdf:RDF>
  </metadata>
  <g
     inkscape:label="Capa 1"
     inkscape:groupmode="layer"
     id="layer1"
     transform="translate(0,-552.36218)">
    <rect
       style="fill:#da121a;fill-opacity:1;stroke:none"
       id="rect3602"
       width="750"
       height="166.666"
       x="0"
       y="-1.1368684e-13"
       transform="translate(0,552.36218)"
       rx="8.8817842e-16"
       ry="8.8817805e-16" />
    <rect
       style="fill:#ffffff;fill-opacity:1;stroke:none"
       id="rect3606"
       width="750"
       height="166.666"
       x="0"
       y="719.03015"
       rx="8.8817842e-16"
       ry="8.8817794e-16" />
    <rect
       style="fill:#da121a;fill-opacity:1;stroke:none"
       id="rect3608"
       width="750"
       height="166.666"
       x="0"
       y="885.69617"
       rx="8.8817842e-16"
       ry="8.8817794e-16" />
    <rect
       style="fill:#fcdd09;fill-opacity:1;stroke:none"
       id="rect3610"
       width="600"
       height="130"
       x="0"
       y="737.36218"
       rx="8.8611092e-16"
       ry="8.8817794e-16" />
    <path
       sodipodi:type="star"
       style="fill:#fcdd09;fill-opacity:1;stroke:#fcdd09;stroke-width:0;stroke-linecap:butt;stroke-linejoin:miter;stroke-miterlimit:4;stroke-opacity:1;stroke-dasharray:none"
       id="path4816"
       sodipodi:sides="16"
       sodipodi:cx="608.47461"
       sodipodi:cy="198.30508"
       sodipodi:r1="74.494514"
       sodipodi:r2="100.05744"
       sodipodi:arg1="0.58724613"
       sodipodi:arg2="0.78359567"
       inkscape:flatsided="false"
       inkscape:rounded="0"
       inkscape:randomized="0"
       d="m 670.48903,239.58031 8.86429,29.34843 -29.3802,-8.75843 -3.04162,30.50663 -23.79206,-19.33505 -14.48448,27.02047 -14.58179,-26.96808 -23.7222,19.42069 -3.15158,-30.49546 -29.34843,8.86428 8.75842,-29.38019 -30.50662,-3.04163 19.33504,-23.79205 -27.02047,-14.48448 26.96808,-14.5818 -19.42069,-23.72219 30.49547,-3.15159 -8.86429,-29.34843 29.3802,8.75843 3.04162,-30.50663 23.79206,19.33505 14.48448,-27.020475 14.58179,26.968075 23.7222,-19.42069 3.15158,30.49547 29.34843,-8.86429 -8.75843,29.3802 30.50663,3.04163 -19.33504,23.79205 27.02047,14.48448 -26.96808,14.58179 19.42069,23.7222 -30.49547,3.15159 z"
       transform="matrix(0.74957065,0,0,0.74957065,218.90528,653.21851)" />
  </g>
</svg>
