<?xml version="1.0" encoding="UTF-8" standalone="no"?>
<!-- Created with Inkscape (http://www.inkscape.org/) -->
<svg
   xmlns:dc="http://purl.org/dc/elements/1.1/"
   xmlns:cc="http://creativecommons.org/ns#"
   xmlns:rdf="http://www.w3.org/1999/02/22-rdf-syntax-ns#"
   xmlns:svg="http://www.w3.org/2000/svg"
   xmlns="http://www.w3.org/2000/svg"
   xmlns:sodipodi="http://sodipodi.sourceforge.net/DTD/sodipodi-0.dtd"
   xmlns:inkscape="http://www.inkscape.org/namespaces/inkscape"
   width="750"
   height="500"
   id="svg2"
   version="1.1"
   inkscape:version="0.46"
   sodipodi:docname="Flag_of_Tubará_(Atlántico).svg"
   sodipodi:version="0.32"
   inkscape:output_extension="org.inkscape.output.svg.inkscape">
  <defs
     id="defs4" />
  <sodipodi:namedview
     id="base"
     pagecolor="#ffffff"
     bordercolor="#666666"
     borderopacity="1.0"
     inkscape:pageopacity="0.0"
     inkscape:pageshadow="2"
     inkscape:zoom="1.014"
     inkscape:cx="375"
     inkscape:cy="250"
     inkscape:document-units="px"
     inkscape:current-layer="layer1"
     showgrid="false"
     inkscape:window-width="1024"
     inkscape:window-height="712"
     inkscape:window-x="-4"
     inkscape:window-y="-4"
     inkscape:window-maximized="1" />
  <metadata
     id="metadata7">
    <rdf:RDF>
      <cc:Work
         rdf:about="">
        <dc:format>image/svg+xml</dc:format>
        <dc:type
           rdf:resource="http://purl.org/dc/dcmitype/StillImage" />
        <dc:title />
      </cc:Work>
    </rdf:RDF>
  </metadata>
  <g
     inkscape:label="Capa 1"
     inkscape:groupmode="layer"
     id="layer1"
     transform="translate(0,-552.36218)">
    <rect
       style="fill:#078930;fill-opacity:1;stroke:none"
       id="rect2816"
       width="375"
       height="250"
       x="-750"
       y="-1052.3622"
       transform="scale(-1,-1)" />
    <rect
       style="fill:#ffffff;fill-opacity:1;stroke:none"
       id="rect2818"
       width="375"
       height="250"
       x="-375"
       y="-1052.3622"
       transform="scale(-1,-1)" />
    <rect
       style="fill:#89c5e3;fill-opacity:1;stroke:none"
       id="rect2824"
       width="750"
       height="250"
       x="0"
       y="-802.36218"
       transform="scale(1,-1)" />
    <path
       sodipodi:type="arc"
       style="opacity:1;fill:#ffffff;fill-opacity:1;stroke:#000000;stroke-width:1;stroke-linejoin:round;stroke-miterlimit:4;stroke-dasharray:none;stroke-dashoffset:0;stroke-opacity:1"
       id="path3165"
       sodipodi:cx="340.8125"
       sodipodi:cy="260.86243"
       sodipodi:rx="126.56041"
       sodipodi:ry="103.57098"
       d="M 467.37291,260.86243 A 126.56041,103.57098 0 1 1 214.25209,260.86243 A 126.56041,103.57098 0 1 1 467.37291,260.86243 z"
       transform="translate(34.60266,539.56393)" />
    <path
       style="fill:none;fill-rule:evenodd;stroke:#000000;stroke-width:2;stroke-linecap:butt;stroke-linejoin:miter;stroke-opacity:1;stroke-miterlimit:4;stroke-dasharray:none"
       d="M 373.99313,183.6862 L 373.99313,245.24922"
       id="path3167"
       transform="translate(0,552.36218)"
       sodipodi:nodetypes="cc" />
    <path
       style="fill:none;fill-rule:evenodd;stroke:#000000;stroke-width:2;stroke-linecap:butt;stroke-linejoin:miter;stroke-miterlimit:4;stroke-dasharray:none;stroke-opacity:1"
       d="M 374.04628,736.56833 C 374.94224,732.73305 379.05107,727.65472 385.6714,727.37189 L 413.86733,727.47876 L 415.11041,730.97904"
       id="path3169"
       sodipodi:nodetypes="cccc" />
    <path
       style="fill:none;fill-rule:evenodd;stroke:#000000;stroke-width:2;stroke-linecap:butt;stroke-linejoin:miter;stroke-miterlimit:4;stroke-dasharray:none;stroke-opacity:1"
       d="M 374.65162,757.98783 L 414.2023,757.99505 L 414.2023,762.8391 L 407.59988,762.82699 L 407.59988,758.4918"
       id="path3171"
       sodipodi:nodetypes="ccc" />
    <path
       style="fill:none;fill-rule:evenodd;stroke:#000000;stroke-width:2;stroke-linecap:butt;stroke-linejoin:miter;stroke-miterlimit:4;stroke-dasharray:none;stroke-opacity:1"
       d="M 374.15544,796.84029 C 385.28835,797.0519 402.3341,799.40837 402.03125,806.20363 C 401.57964,816.0204 382.07403,815.59173 379.57191,815.66264 L 379.57191,820.40273 L 385.26002,820.40273"
       id="path3173"
       sodipodi:nodetypes="ccccc" />
    <path
       sodipodi:nodetypes="ccc"
       id="path3181"
       d="M 374.44774,748.45025 L 411.22631,748.44299 L 411.22631,745.5803 L 403.81812,745.57847"
       style="fill:none;fill-rule:evenodd;stroke:#000000;stroke-width:2;stroke-linecap:butt;stroke-linejoin:miter;stroke-miterlimit:4;stroke-dasharray:none;stroke-opacity:1" />
    <path
       style="font-size:40px;font-style:normal;font-weight:normal;text-align:start;line-height:125%;writing-mode:lr-tb;text-anchor:start;fill:#000000;fill-opacity:1;stroke:none;stroke-width:1px;stroke-linecap:butt;stroke-linejoin:miter;stroke-opacity:1;font-family:Bitstream Vera Sans"
       d="M 303.63834,868.66344 L 306.91737,843.62332 L 297.56364,842.39844 L 298.00236,839.04814 L 320.50555,841.99495 L 320.06682,845.34525 L 310.67436,844.1153 L 307.39533,869.15542 L 303.63834,868.66344 z M 341.40088,843.45462 L 345.18095,843.71547 L 344.04211,860.21919 C 343.84399,863.08997 343.36193,865.3473 342.59593,866.99117 C 341.82988,868.63504 340.56275,869.92783 338.79453,870.86953 C 337.02627,871.81124 334.76522,872.18707 332.01137,871.99705 C 329.33543,871.81239 327.17844,871.20021 325.54041,870.1605 C 323.90237,869.12079 322.77991,867.70227 322.17304,865.90492 C 321.56616,864.10758 321.36715,861.69559 321.57601,858.66892 L 322.71484,842.1652 L 326.49492,842.42604 L 325.35743,858.91028 C 325.18621,861.39137 325.29062,863.23561 325.67065,864.44301 C 326.05066,865.65043 326.78053,866.61116 327.86024,867.3252 C 328.93994,868.03924 330.29166,868.45228 331.91542,868.56433 C 334.69525,868.75615 336.71969,868.26284 337.98874,867.08438 C 339.25775,865.90593 340.01597,863.52409 340.26339,859.93886 L 341.40088,843.45462 z M 349.38342,872.49364 L 349.84026,843.86448 L 360.58108,844.03587 C 362.76828,844.0708 364.51799,844.38847 365.83021,844.98888 C 367.14239,845.58935 368.16319,846.49768 368.89259,847.71387 C 369.62196,848.93011 369.97616,850.19569 369.9552,851.5106 C 369.93565,852.73443 369.58527,853.88133 368.90407,854.9513 C 368.22283,856.02132 367.20644,856.8776 365.85489,857.52017 C 367.57831,858.05556 368.89571,858.94258 369.80707,860.18122 C 370.71839,861.41989 371.16077,862.87244 371.1342,864.53889 C 371.11278,865.87987 370.80972,867.12193 370.22502,868.26509 C 369.64028,869.40825 368.92632,870.28564 368.08314,870.89727 C 367.23992,871.50889 366.1876,871.96416 364.92618,872.26309 C 363.66473,872.56201 362.12266,872.69693 360.3,872.66784 L 349.38342,872.49364 z M 353.43688,855.95465 L 359.6275,856.05343 C 361.30695,856.08025 362.51299,855.9888 363.24561,855.7791 C 364.21359,855.50806 364.94699,855.04445 365.44582,854.38824 C 365.94461,853.73207 366.20202,852.90274 366.21804,851.90025 C 366.23318,850.94987 366.0187,850.10975 365.57457,849.37989 C 365.13041,848.65008 364.48735,848.14497 363.64538,847.86454 C 362.80338,847.58417 361.35387,847.42756 359.29685,847.39471 L 353.57493,847.30341 L 353.43688,855.95465 z M 353.22591,869.17562 L 360.35391,869.28937 C 361.57769,869.3089 362.43769,869.27704 362.93388,869.1938 C 363.80864,869.05149 364.54187,868.80274 365.13357,868.44755 C 365.72523,868.09237 366.21541,867.56952 366.6041,866.87902 C 366.99275,866.18852 367.19435,865.3876 367.20892,864.47625 C 367.22593,863.40869 366.96733,862.47671 366.43312,861.68031 C 365.89886,860.88394 365.14932,860.31852 364.1845,859.98406 C 363.21965,859.64963 361.82589,859.46786 360.00322,859.43877 L 353.38297,859.33313 L 353.22591,869.17562 z M 373.11575,872.86533 L 383.25717,843.91876 L 387.33741,843.79761 L 399.90082,872.06999 L 395.58631,872.1981 L 391.99056,863.62918 L 380.02318,863.98452 L 377.13741,872.74591 L 373.11575,872.86533 z M 381.02485,860.86748 L 390.72761,860.57938 L 387.50529,852.74188 C 386.52273,850.36116 385.7872,848.40296 385.29871,846.86728 C 384.98877,848.71325 384.52877,850.55063 383.91873,852.37942 L 381.02485,860.86748 z M 403.02407,871.86012 L 400.84395,843.31043 L 413.50241,842.3438 C 416.04706,842.14951 418.00112,842.2582 419.36456,842.66988 C 420.72797,843.08161 421.85524,843.90638 422.74637,845.14417 C 423.63745,846.38203 424.14299,847.78641 424.26297,849.35734 C 424.41761,851.38271 423.89234,853.14004 422.68716,854.62934 C 421.48193,856.11868 419.524,857.15618 416.81335,857.74187 C 417.8497,858.14591 418.6454,858.56179 419.20043,858.98951 C 420.3813,859.91793 421.52309,861.10397 422.62582,862.54762 L 428.1852,869.93875 L 423.43341,870.30161 L 419.20177,864.65038 C 417.96733,863.0209 416.95838,861.77901 416.17493,860.92471 C 415.39145,860.07044 414.70346,859.4831 414.11095,859.16269 C 413.51841,858.84231 412.92458,858.63301 412.32945,858.53479 C 411.89406,858.47664 411.18951,858.48474 410.21579,858.55908 L 405.83402,858.89368 L 406.80214,871.57162 L 403.02407,871.86012 z M 405.58418,855.62196 L 413.70507,855.00183 C 415.4318,854.86999 416.7684,854.58836 417.71488,854.15696 C 418.66132,853.72558 419.35773,853.09782 419.80411,852.27366 C 420.25045,851.44954 420.43843,850.57658 420.36806,849.65476 C 420.26493,848.30455 419.69006,847.23193 418.64343,846.43689 C 417.59677,845.64191 416.01534,845.3252 413.89912,845.48678 L 404.86292,846.1768 L 405.58418,855.62196 z M 428.65873,869.89996 L 435.96078,840.11016 L 440.0103,839.596 L 455.24219,866.52473 L 450.96016,867.06841 L 446.55464,858.88627 L 434.67734,860.3943 L 432.65013,869.39318 L 428.65873,869.89996 z M 435.37369,857.19517 L 445.00341,855.97252 L 441.04014,848.48237 C 439.83252,846.20753 438.91154,844.32941 438.2772,842.84801 C 438.14676,844.71527 437.86614,846.58845 437.43534,848.46755 L 435.37369,857.19517 z M 435.38569,838.37188 L 437.27384,832.61949 L 441.8465,832.03891 L 438.27267,838.00532 L 435.38569,838.37188 z"
       id="text3187" />
    <path
       style="fill:none;fill-rule:evenodd;stroke:#000000;stroke-width:2;stroke-linecap:butt;stroke-linejoin:miter;stroke-opacity:1;stroke-miterlimit:4;stroke-dasharray:none"
       d="M 410.92045,205.76067 L 410.92045,210.28033"
       id="path3204"
       transform="translate(0,552.36218)" />
    <path
       sodipodi:nodetypes="cccc"
       id="path3208"
       d="M 373.68856,736.56833 C 372.7926,732.73305 368.68377,727.65472 362.06344,727.37189 L 333.86751,727.47876 L 332.62443,730.97904"
       style="fill:none;fill-rule:evenodd;stroke:#000000;stroke-width:2;stroke-linecap:butt;stroke-linejoin:miter;stroke-miterlimit:4;stroke-dasharray:none;stroke-opacity:1" />
    <path
       sodipodi:nodetypes="ccc"
       id="path3210"
       d="M 372.87278,757.98783 L 333.3221,757.99505 L 333.3221,762.8391 L 339.92452,762.82699 L 339.92452,758.4918"
       style="fill:none;fill-rule:evenodd;stroke:#000000;stroke-width:2;stroke-linecap:butt;stroke-linejoin:miter;stroke-miterlimit:4;stroke-dasharray:none;stroke-opacity:1" />
    <path
       sodipodi:nodetypes="ccccc"
       id="path3212"
       d="M 373.36896,796.84029 C 362.23605,797.0519 345.1903,799.40837 345.49315,806.20363 C 345.94476,816.0204 365.45037,815.59173 367.95249,815.66264 L 367.95249,820.40273 L 362.26438,820.40273"
       style="fill:none;fill-rule:evenodd;stroke:#000000;stroke-width:2;stroke-linecap:butt;stroke-linejoin:miter;stroke-miterlimit:4;stroke-dasharray:none;stroke-opacity:1" />
    <path
       style="fill:none;fill-rule:evenodd;stroke:#000000;stroke-width:2;stroke-linecap:butt;stroke-linejoin:miter;stroke-miterlimit:4;stroke-dasharray:none;stroke-opacity:1"
       d="M 373.07666,748.45025 L 336.29809,748.44299 L 336.29809,745.5803 L 343.70628,745.57847"
       id="path3214"
       sodipodi:nodetypes="ccc" />
    <path
       id="path3216"
       d="M 336.60395,758.12285 L 336.60395,762.64251"
       style="fill:none;fill-rule:evenodd;stroke:#000000;stroke-width:2;stroke-linecap:butt;stroke-linejoin:miter;stroke-miterlimit:4;stroke-dasharray:none;stroke-opacity:1" />
  </g>
</svg>
