<?xml version="1.0" encoding="UTF-8" standalone="no"?>
<!-- Created with Inkscape (http://www.inkscape.org/) -->
<svg
   xmlns:dc="http://purl.org/dc/elements/1.1/"
   xmlns:cc="http://creativecommons.org/ns#"
   xmlns:rdf="http://www.w3.org/1999/02/22-rdf-syntax-ns#"
   xmlns:svg="http://www.w3.org/2000/svg"
   xmlns="http://www.w3.org/2000/svg"
   xmlns:sodipodi="http://sodipodi.sourceforge.net/DTD/sodipodi-0.dtd"
   xmlns:inkscape="http://www.inkscape.org/namespaces/inkscape"
   width="750"
   height="500"
   id="svg2842"
   version="1.1"
   inkscape:version="0.46"
   sodipodi:docname="Flag_of_Tununguá_(Boyacá).svg"
   sodipodi:version="0.32"
   inkscape:output_extension="org.inkscape.output.svg.inkscape">
  <defs
     id="defs2844">
    <inkscape:perspective
       sodipodi:type="inkscape:persp3d"
       inkscape:vp_x="0 : 526.18109 : 1"
       inkscape:vp_y="0 : 1000 : 0"
       inkscape:vp_z="744.09448 : 526.18109 : 1"
       inkscape:persp3d-origin="372.04724 : 350.78739 : 1"
       id="perspective2850" />
    <inkscape:perspective
       id="perspective3197"
       inkscape:persp3d-origin="151.52 : 96.393331 : 1"
       inkscape:vp_z="303.04001 : 144.59 : 1"
       inkscape:vp_y="0 : 1000 : 0"
       inkscape:vp_x="0 : 144.59 : 1"
       sodipodi:type="inkscape:persp3d" />
  </defs>
  <sodipodi:namedview
     id="base"
     pagecolor="#ffffff"
     bordercolor="#666666"
     borderopacity="1.0"
     inkscape:pageopacity="0.0"
     inkscape:pageshadow="2"
     inkscape:zoom="0.87681241"
     inkscape:cx="383.06859"
     inkscape:cy="165.53865"
     inkscape:document-units="px"
     inkscape:current-layer="layer1"
     showgrid="false"
     inkscape:window-width="1280"
     inkscape:window-height="962"
     inkscape:window-x="-8"
     inkscape:window-y="-8"
     inkscape:window-maximized="1" />
  <metadata
     id="metadata2847">
    <rdf:RDF>
      <cc:Work
         rdf:about="">
        <dc:format>image/svg+xml</dc:format>
        <dc:type
           rdf:resource="http://purl.org/dc/dcmitype/StillImage" />
        <dc:title />
      </cc:Work>
    </rdf:RDF>
  </metadata>
  <g
     inkscape:label="Capa 1"
     inkscape:groupmode="layer"
     id="layer1"
     transform="translate(0,-552.36218)">
    <rect
       style="fill:#ffffff;fill-opacity:1;stroke:none"
       id="rect2852"
       width="750"
       height="250"
       x="0"
       y="-5.6843419e-14"
       transform="translate(0,552.36218)" />
    <rect
       style="fill:#078930;fill-opacity:1;stroke:none"
       id="rect2854"
       width="750"
       height="250"
       x="0"
       y="250"
       transform="translate(0,552.36218)" />
    <path
       style="fill:#da121a;fill-opacity:1;stroke:none"
       d="M 204.52779,931.64469 L 375.73827,675.28514 L 546.52769,931.92542"
       id="path2840" />
    <path
       id="path3192"
       d="M 270.35673,871.53512 L 276.6298,889.58193 L 295.73184,889.97121 L 280.50677,901.51403 L 286.0394,919.80142 L 270.35673,908.88847 L 254.67405,919.80142 L 260.20669,901.51403 L 244.98161,889.97121 L 264.08366,889.58193 L 270.35673,871.53512 z"
       style="fill:#000000;fill-opacity:1;fill-rule:evenodd;stroke:none" />
    <path
       style="fill:#000000;fill-opacity:1;fill-rule:evenodd;stroke:none"
       d="M 342.17673,871.53512 L 348.4498,889.58193 L 367.55184,889.97121 L 352.32677,901.51403 L 357.8594,919.80142 L 342.17673,908.88847 L 326.49405,919.80142 L 332.02669,901.51403 L 316.80162,889.97121 L 335.90366,889.58193 L 342.17673,871.53512 z"
       id="path3201" />
    <path
       id="path3209"
       d="M 412.28673,871.53512 L 418.5598,889.58193 L 437.66184,889.97121 L 422.43677,901.51403 L 427.9694,919.80142 L 412.28673,908.88847 L 396.60405,919.80142 L 402.13669,901.51403 L 386.91162,889.97121 L 406.01366,889.58193 L 412.28673,871.53512 z"
       style="fill:#000000;fill-opacity:1;fill-rule:evenodd;stroke:none" />
    <path
       style="fill:#000000;fill-opacity:1;fill-rule:evenodd;stroke:none"
       d="M 484.10673,871.53512 L 490.3798,889.58193 L 509.48184,889.97121 L 494.25677,901.51403 L 499.7894,919.80142 L 484.10673,908.88847 L 468.42405,919.80142 L 473.95669,901.51403 L 458.73162,889.97121 L 477.83366,889.58193 L 484.10673,871.53512 z"
       id="path3213" />
    <path
       style="fill:#000000;fill-opacity:1;fill-rule:evenodd;stroke:none"
       d="M 326.07844,786.18353 L 332.35151,804.23035 L 351.45355,804.61962 L 336.22848,816.16245 L 341.76111,834.44984 L 326.07844,823.53689 L 310.39576,834.44984 L 315.9284,816.16245 L 300.70333,804.61962 L 319.80537,804.23035 L 326.07844,786.18353 z"
       id="path3217" />
    <path
       style="fill:#000000;fill-opacity:1;fill-rule:evenodd;stroke:none"
       d="M 375.70891,716.15787 L 381.98199,734.20468 L 401.08403,734.59396 L 385.85896,746.13677 L 391.39159,764.42417 L 375.70891,753.51121 L 360.02624,764.42417 L 365.55888,746.13677 L 350.33381,734.59396 L 369.43584,734.20468 L 375.70891,716.15787 z"
       id="path3219" />
    <path
       id="path3221"
       d="M 421.83844,786.18353 L 428.11151,804.23035 L 447.21355,804.61962 L 431.98848,816.16245 L 437.52111,834.44984 L 421.83844,823.53689 L 406.15576,834.44984 L 411.6884,816.16245 L 396.46333,804.61962 L 415.56537,804.23035 L 421.83844,786.18353 z"
       style="fill:#000000;fill-opacity:1;fill-rule:evenodd;stroke:none" />
  </g>
</svg>
