<?xml version="1.0" encoding="UTF-8" standalone="no"?>
<!-- Created with Inkscape (http://www.inkscape.org/) -->
<svg
   xmlns:dc="http://purl.org/dc/elements/1.1/"
   xmlns:cc="http://creativecommons.org/ns#"
   xmlns:rdf="http://www.w3.org/1999/02/22-rdf-syntax-ns#"
   xmlns:svg="http://www.w3.org/2000/svg"
   xmlns="http://www.w3.org/2000/svg"
   xmlns:sodipodi="http://sodipodi.sourceforge.net/DTD/sodipodi-0.dtd"
   xmlns:inkscape="http://www.inkscape.org/namespaces/inkscape"
   width="750"
   height="500"
   id="svg2822"
   version="1.1"
   inkscape:version="0.46"
   sodipodi:docname="Flag_of_ Turbaco_(Bolívar).svg"
   sodipodi:version="0.32"
   inkscape:output_extension="org.inkscape.output.svg.inkscape">
  <defs
     id="defs2824" />
  <sodipodi:namedview
     id="base"
     pagecolor="#ffffff"
     bordercolor="#666666"
     borderopacity="1.0"
     inkscape:pageopacity="0.0"
     inkscape:pageshadow="2"
     inkscape:zoom="1.014"
     inkscape:cx="375"
     inkscape:cy="250"
     inkscape:document-units="px"
     inkscape:current-layer="layer1"
     showgrid="false"
     inkscape:window-width="1024"
     inkscape:window-height="712"
     inkscape:window-x="-4"
     inkscape:window-y="-4"
     inkscape:window-maximized="1" />
  <metadata
     id="metadata2827">
    <rdf:RDF>
      <cc:Work
         rdf:about="">
        <dc:format>image/svg+xml</dc:format>
        <dc:type
           rdf:resource="http://purl.org/dc/dcmitype/StillImage" />
        <dc:title />
      </cc:Work>
    </rdf:RDF>
  </metadata>
  <g
     inkscape:label="Capa 1"
     inkscape:groupmode="layer"
     id="layer1"
     transform="translate(0,-552.36218)">
    <rect
       style="fill:#078930;fill-opacity:1;stroke:none"
       id="rect2832"
       width="750"
       height="255.91716"
       x="0"
       y="-1052.3622"
       transform="scale(1,-1)" />
    <rect
       style="fill:#da121a;fill-opacity:1;stroke:none"
       id="rect2834"
       width="750"
       height="250"
       x="0"
       y="-802.36218"
       transform="scale(1,-1)" />
    <g
       id="Elementos"
       transform="translate(777.14317,1015.4478)">
      <metadata
         id="CorelCorpID_1Corel-Layer" />
      <g
         id="layer6_12" />
      <g
         id="Capa_x0020_1"
         transform="translate(-216.7271,326.27794)">
        <metadata
           id="CorelCorpID_1Corel-Layer-1" />
        <sodipodi:namedview
           pagecolor="#ffffff"
           bordercolor="#666666"
           borderopacity="1.0"
           gridtolerance="10000"
           guidetolerance="10"
           objecttolerance="10"
           inkscape:pageopacity="0.0"
           inkscape:pageshadow="2"
           inkscape:zoom="0.45254834"
           inkscape:cx="529.77215"
           inkscape:cy="286.86274"
           inkscape:document-units="px"
           inkscape:current-layer="layer6"
           inkscape:window-width="1280"
           inkscape:window-height="753"
           inkscape:window-x="-4"
           inkscape:window-y="-4"
           showguides="true"
           showgrid="false"
           inkscape:guide-bbox="true"
           width="549.99969px"
           height="975px"
           id="base-5" />
        <g
           inkscape:groupmode="layer"
           inkscape:label="Timbre"
           id="layer3" />
        <g
           inkscape:groupmode="layer"
           inkscape:label="Escudo"
           id="layer1-2" />
        <g
           inkscape:groupmode="layer"
           inkscape:label="Piezas"
           id="layer4" />
        <g
           inkscape:groupmode="layer"
           inkscape:label="Muebles"
           id="layer5" />
        <g
           inkscape:groupmode="layer"
           inkscape:label="Ornamento"
           id="layer2" />
        <g
           inkscape:label="Piezas"
           id="g5818" />
        <g
           inkscape:label="Muebles"
           id="g5820" />
        <g
           inkscape:label="Ornamentos"
           id="g5822" />
        <g
           inkscape:label="Escudo"
           id="g5438" />
        <g
           inkscape:label="Piezas"
           id="g5440" />
        <g
           inkscape:label="Ornamento"
           id="g5559" />
        <g
           inkscape:label="Borde 3px"
           id="g5561" />
      </g>
    </g>
    <path
       style="fill:#ffffff;fill-opacity:1;stroke:none;stroke-width:0.5;stroke-linejoin:round;stroke-miterlimit:4;stroke-dashoffset:0;stroke-opacity:1"
       d="M 500.98619,802.36475 L 248.5207,802.36475 C 248.5207,732.68427 305.07297,676.132 374.75344,676.132 C 444.43392,676.132 500.98619,732.68427 500.98619,802.36475 z"
       id="path3358"
       sodipodi:nodetypes="ccsc" />
    <g
       transform="matrix(0.36,0,0,0.36,193.77516,477.01869)"
       id="g3192"
       inkscape:label="Capa 1">
      <path
         transform="matrix(1.6015043,0,0,1.5930656,-199.85739,467.45527)"
         d="M 472,425.99999 L 445.45682,353.97652 L 434.36767,429.93013 L 425.83213,353.64734 L 396.88832,424.74007 L 406.85648,348.63123 L 361.74011,410.73143 L 389.63266,339.2197 L 330.96574,388.71833 L 375.16165,325.95973 L 306.3537,359.98011 L 364.28447,309.62193 L 289.33434,326.18692 L 357.63325,291.1558 L 280.89677,289.3027 L 355.59454,271.63452 L 281.53136,251.47102 L 358.28681,252.19259 L 291.20121,214.89053 L 365.55361,233.95992 L 309.34437,181.68716 L 376.97262,217.99611 L 334.9064,153.79055 L 391.88019,205.22893 L 366.40175,132.82196 L 409.40997,196.40036 L 402,120.00001 L 428.54318,192.02348 L 439.63233,116.06987 L 448.16787,192.35266 L 477.11168,121.25993 L 467.14352,197.36877 L 512.25989,135.26857 L 484.36734,206.7803 L 543.03426,157.28167 L 498.83835,220.04027 L 567.6463,186.01989 L 509.71553,236.37807 L 584.66566,219.81308 L 516.36675,254.8442 L 593.10323,256.6973 L 518.40546,274.36548 L 592.46864,294.52898 L 515.71319,293.80741 L 582.79879,331.10947 L 508.44639,312.04008 L 564.65563,364.31284 L 497.02738,328.00389 L 539.0936,392.20945 L 482.11981,340.77107 L 507.59825,413.17804 L 464.59003,349.59964 L 472,425.99999 z"
         inkscape:randomized="0"
         inkscape:rounded="3.469447e-18"
         inkscape:flatsided="false"
         sodipodi:arg2="1.4667381"
         sodipodi:arg1="1.3459077"
         sodipodi:r2="81.416916"
         sodipodi:r1="156.95221"
         sodipodi:cy="273"
         sodipodi:cx="437"
         sodipodi:sides="26"
         id="path4545"
         style="fill:#fcdd09;fill-opacity:1;stroke:none"
         sodipodi:type="star" />
    </g>
    <path
       style="fill:#aa8800;fill-opacity:1;stroke:none;stroke-width:0.5;stroke-linejoin:round;stroke-miterlimit:4;stroke-dashoffset:0;stroke-opacity:1"
       d="M 500.98619,802.36475 C 500.98619,872.04522 444.43392,928.59749 374.75344,928.59749 C 305.07297,928.59749 248.5207,872.04522 248.5207,802.36475 L 310.12804,774.4219 L 370.6453,796.77604 L 436.55047,769.56432 L 500.98619,802.36475 z"
       id="path3354"
       sodipodi:nodetypes="csccccc" />
  </g>
</svg>
