<?xml version="1.0" encoding="UTF-8" standalone="no"?>
<!-- Created with Inkscape (http://www.inkscape.org/) -->
<svg
   xmlns:dc="http://purl.org/dc/elements/1.1/"
   xmlns:cc="http://creativecommons.org/ns#"
   xmlns:rdf="http://www.w3.org/1999/02/22-rdf-syntax-ns#"
   xmlns:svg="http://www.w3.org/2000/svg"
   xmlns="http://www.w3.org/2000/svg"
   xmlns:sodipodi="http://sodipodi.sourceforge.net/DTD/sodipodi-0.dtd"
   xmlns:inkscape="http://www.inkscape.org/namespaces/inkscape"
   width="750"
   height="500"
   id="svg2822"
   version="1.1"
   inkscape:version="0.46"
   sodipodi:docname="Flag_of_Usiacurí_(Atlántico).svg"
   sodipodi:version="0.32"
   inkscape:output_extension="org.inkscape.output.svg.inkscape">
  <defs
     id="defs2824" />
  <sodipodi:namedview
     id="base"
     pagecolor="#ffffff"
     bordercolor="#666666"
     borderopacity="1.0"
     inkscape:pageopacity="0.0"
     inkscape:pageshadow="2"
     inkscape:zoom="1.014"
     inkscape:cx="392.25838"
     inkscape:cy="250"
     inkscape:document-units="px"
     inkscape:current-layer="layer1"
     showgrid="false"
     inkscape:window-width="1024"
     inkscape:window-height="712"
     inkscape:window-x="-4"
     inkscape:window-y="-4"
     inkscape:window-maximized="1" />
  <metadata
     id="metadata2827">
    <rdf:RDF>
      <cc:Work
         rdf:about="">
        <dc:format>image/svg+xml</dc:format>
        <dc:type
           rdf:resource="http://purl.org/dc/dcmitype/StillImage" />
        <dc:title />
      </cc:Work>
    </rdf:RDF>
  </metadata>
  <g
     inkscape:label="Capa 1"
     inkscape:groupmode="layer"
     id="layer1"
     transform="translate(0,-552.36218)">
    <rect
       style="fill:#07893a;fill-opacity:1;stroke:none"
       id="rect2815"
       width="750.98621"
       height="500.04932"
       x="0"
       y="552.36218" />
    <rect
       style="fill:#fee97d;fill-opacity:1;stroke:none"
       id="rect2863"
       width="641.65503"
       height="374.29874"
       x="54.172501"
       y="615.21283" />
    <rect
       style="fill:#89c5e3;fill-opacity:1;stroke:none"
       id="rect2867"
       width="536.03821"
       height="268.0191"
       x="106.98088"
       y="668.3526" />
    <path
       id="path3163"
       style="fill:#fee97d;fill-rule:evenodd;stroke:#000000;stroke-width:1px;stroke-linecap:butt;stroke-linejoin:miter;stroke-opacity:1;fill-opacity:1"
       d="M 643.04306,802.92582 L 374.89831,936.43073 L 106.95677,802.86647 L 374.91974,668.28166 L 643.04306,802.92582 z"
       sodipodi:nodetypes="ccccc" />
    <path
       sodipodi:type="arc"
       style="opacity:1;fill:none;fill-opacity:1;stroke:#000000;stroke-width:0.8699629;stroke-linejoin:round;stroke-miterlimit:4;stroke-dasharray:none;stroke-dashoffset:0;stroke-opacity:1"
       id="path3181"
       sodipodi:cx="353.50653"
       sodipodi:cy="280.88031"
       sodipodi:rx="104.00157"
       sodipodi:ry="104.00157"
       d="M 457.5081,280.88031 A 104.00157,104.00157 0 1 1 249.50496,280.88031 A 104.00157,104.00157 0 1 1 457.5081,280.88031 z"
       transform="matrix(1.1494743,0,0,1.1494743,-30.606997,479.74553)" />
    <path
       transform="matrix(0.9310742,0,0,0.9310742,46.598872,541.08982)"
       d="M 457.5081,280.88031 A 104.00157,104.00157 0 1 1 249.50496,280.88031 A 104.00157,104.00157 0 1 1 457.5081,280.88031 z"
       sodipodi:ry="104.00157"
       sodipodi:rx="104.00157"
       sodipodi:cy="280.88031"
       sodipodi:cx="353.50653"
       id="path3183"
       style="opacity:1;fill:none;fill-opacity:1;stroke:#000000;stroke-width:1.07402826;stroke-linejoin:round;stroke-miterlimit:4;stroke-dasharray:none;stroke-dashoffset:0;stroke-opacity:1"
       sodipodi:type="arc" />
    <path
       sodipodi:type="arc"
       style="opacity:1;fill:none;fill-opacity:1;stroke:#000000;stroke-width:1.47328977;stroke-linejoin:round;stroke-miterlimit:4;stroke-dasharray:none;stroke-dashoffset:0;stroke-opacity:1"
       id="path3185"
       sodipodi:cx="353.50653"
       sodipodi:cy="280.88031"
       sodipodi:rx="104.00157"
       sodipodi:ry="104.00157"
       d="M 457.5081,280.88031 A 104.00157,104.00157 0 1 1 249.50496,280.88031 A 104.00157,104.00157 0 1 1 457.5081,280.88031 z"
       transform="matrix(0.6787531,0,0,0.6787531,135.79604,611.96185)" />
    <path
       transform="matrix(0.494811,0,0,0.494811,200.82078,663.62756)"
       d="M 457.5081,280.88031 A 104.00157,104.00157 0 1 1 249.50496,280.88031 A 104.00157,104.00157 0 1 1 457.5081,280.88031 z"
       sodipodi:ry="104.00157"
       sodipodi:rx="104.00157"
       sodipodi:cy="280.88031"
       sodipodi:cx="353.50653"
       id="path3187"
       style="opacity:1;fill:none;fill-opacity:1;stroke:#000000;stroke-width:2.02097366;stroke-linejoin:round;stroke-miterlimit:4;stroke-dasharray:none;stroke-dashoffset:0;stroke-opacity:1"
       sodipodi:type="arc" />
    <path
       sodipodi:type="arc"
       style="opacity:1;fill:none;fill-opacity:1;stroke:#000000;stroke-width:3.08028295;stroke-linejoin:round;stroke-miterlimit:4;stroke-dasharray:none;stroke-dashoffset:0;stroke-opacity:1"
       id="path3189"
       sodipodi:cx="353.50653"
       sodipodi:cy="280.88031"
       sodipodi:rx="104.00157"
       sodipodi:ry="104.00157"
       d="M 457.5081,280.88031 A 104.00157,104.00157 0 1 1 249.50496,280.88031 A 104.00157,104.00157 0 1 1 457.5081,280.88031 z"
       transform="matrix(0.3246455,0,0,0.3246455,260.97539,711.42371)" />
    <path
       style="fill:none;fill-rule:evenodd;stroke:#000000;stroke-width:1px;stroke-linecap:butt;stroke-linejoin:miter;stroke-opacity:1"
       d="M 374.50447,116.10821 L 374.99854,384.3878"
       id="path3191"
       transform="translate(0,552.36218)" />
    <path
       style="fill:none;fill-rule:evenodd;stroke:#000000;stroke-width:1px;stroke-linecap:butt;stroke-linejoin:miter;stroke-opacity:1"
       d="M 642.78406,250.98911 L 107.21302,250.98911"
       id="path3193"
       transform="translate(0,552.36218)" />
    <path
       style="fill:none;fill-rule:evenodd;stroke:#000000;stroke-width:1px;stroke-linecap:butt;stroke-linejoin:miter;stroke-opacity:1"
       d="M 340.56485,136.04244 L 407.96891,365.45658"
       id="path3195"
       transform="translate(0,552.36218)"
       sodipodi:nodetypes="cc" />
    <path
       style="fill:none;fill-rule:evenodd;stroke:#000000;stroke-width:1px;stroke-linecap:butt;stroke-linejoin:miter;stroke-opacity:1"
       d="M 439.38413,351.26085 L 309.7814,150.19899"
       id="path3197"
       transform="translate(0,552.36218)"
       sodipodi:nodetypes="cc" />
    <path
       style="fill:none;fill-rule:evenodd;stroke:#000000;stroke-width:1px;stroke-linecap:butt;stroke-linejoin:miter;stroke-opacity:1"
       d="M 283.13525,175.15788 L 467.4138,327.41325"
       id="path3199"
       transform="translate(0,552.36218)"
       sodipodi:nodetypes="cc" />
    <path
       style="fill:none;fill-rule:evenodd;stroke:#000000;stroke-width:1px;stroke-linecap:butt;stroke-linejoin:miter;stroke-opacity:1"
       d="M 487.51406,293.97313 L 263.83297,208.00509"
       id="path3201"
       transform="translate(0,552.36218)"
       sodipodi:nodetypes="cc" />
    <path
       sodipodi:nodetypes="cc"
       id="path3203"
       d="M 410.78218,688.40462 L 343.37812,917.81876"
       style="fill:none;fill-rule:evenodd;stroke:#000000;stroke-width:1px;stroke-linecap:butt;stroke-linejoin:miter;stroke-opacity:1" />
    <path
       sodipodi:nodetypes="cc"
       id="path3205"
       d="M 311.9629,903.62303 L 441.56563,702.56117"
       style="fill:none;fill-rule:evenodd;stroke:#000000;stroke-width:1px;stroke-linecap:butt;stroke-linejoin:miter;stroke-opacity:1" />
    <path
       sodipodi:nodetypes="cc"
       id="path3207"
       d="M 468.21178,727.52006 L 283.93323,879.77543"
       style="fill:none;fill-rule:evenodd;stroke:#000000;stroke-width:1px;stroke-linecap:butt;stroke-linejoin:miter;stroke-opacity:1" />
    <path
       sodipodi:nodetypes="cc"
       id="path3209"
       d="M 263.83297,846.33531 L 487.51406,760.36727"
       style="fill:none;fill-rule:evenodd;stroke:#000000;stroke-width:1px;stroke-linecap:butt;stroke-linejoin:miter;stroke-opacity:1" />
    <g
       id="g3297"
       transform="matrix(0.3565928,-0.3187624,0.3187624,0.3565928,16.870182,686.9336)">
      <g
         style="display:inline"
         id="layer3"
         transform="translate(-28.928569,76.640346)" />
      <path
         style="opacity:0.63999999;fill:#009900;fill-opacity:1"
         id="path1887"
         d="" />
      <path
         style="opacity:0.63999999;fill:#009900;fill-opacity:1"
         id="path1883"
         d="" />
      <path
         style="opacity:0.63999999;fill:#009900;fill-opacity:1"
         id="path1881"
         d="" />
      <g
         id="layer4"
         transform="translate(27.500153,-8.9406967e-8)" />
      <g
         id="layer5"
         transform="translate(27.500153,-8.9406967e-8)" />
      <g
         id="layer6"
         transform="translate(27.500153,-8.9406967e-8)" />
      <g
         style="display:inline"
         id="g4574"
         transform="translate(-653.71673,-33.956671)" />
      <g
         style="display:inline"
         id="g5358"
         transform="translate(276.51207,-78.583314)" />
      <path
         style="opacity:0.63999999;fill:#009900;fill-opacity:1"
         id="path5654"
         d="" />
      <path
         style="opacity:0.63999999;fill:#009900;fill-opacity:1"
         id="path5656"
         d="" />
      <path
         style="opacity:0.63999999;fill:#009900;fill-opacity:1"
         id="path5658"
         d="" />
      <g
         id="g5190"
         transform="translate(974.52642,-154.96558)" />
      <g
         id="g5192"
         transform="translate(974.52642,-154.96558)" />
      <g
         id="g5194"
         transform="translate(974.52642,-154.96558)" />
      <g
         style="display:inline"
         id="g4934"
         transform="translate(-22.63564,-150.91517)" />
      <path
         style="opacity:0.63999999;fill:#009900;fill-opacity:1"
         id="path5344"
         d="" />
      <path
         style="opacity:0.63999999;fill:#009900;fill-opacity:1"
         id="path5346"
         d="" />
      <path
         style="opacity:0.63999999;fill:#009900;fill-opacity:1"
         id="path5348"
         d="" />
      <g
         id="g5598"
         transform="translate(33.79308,-227.55551)" />
      <g
         id="g5600"
         transform="translate(33.79308,-227.55551)" />
      <g
         id="g5602"
         transform="translate(33.79308,-227.55551)" />
      <path
         style="opacity:0.63999999;fill:#009900;fill-opacity:1"
         id="path3467"
         d="" />
      <path
         style="opacity:0.63999999;fill:#009900;fill-opacity:1"
         id="path3469"
         d="" />
      <path
         style="opacity:0.63999999;fill:#009900;fill-opacity:1"
         id="path3471"
         d="" />
      <g
         id="g3473"
         transform="translate(347.38909,-684.48173)" />
      <g
         id="g3475"
         transform="translate(347.38909,-684.48173)" />
      <g
         id="g3477"
         transform="translate(347.38909,-684.48173)" />
      <g
         style="display:inline"
         id="g3479"
         transform="translate(-649.77297,-680.43131)" />
      <path
         style="opacity:0.63999999;fill:#009900;fill-opacity:1"
         id="path3481"
         d="" />
      <path
         style="opacity:0.63999999;fill:#009900;fill-opacity:1"
         id="path3483"
         d="" />
      <path
         style="opacity:0.63999999;fill:#009900;fill-opacity:1"
         id="path3485"
         d="" />
      <g
         id="g3732"
         transform="translate(-593.34425,-757.07166)" />
      <g
         id="g3734"
         transform="translate(-593.34425,-757.07166)" />
      <g
         id="g3736"
         transform="translate(-593.34425,-757.07166)" />
      <g
         id="g5698"
         transform="translate(332.94079,-155.22366)" />
      <g
         id="g5700"
         transform="translate(332.94079,-155.22366)" />
      <g
         id="g5702"
         transform="translate(332.94079,-155.22366)" />
      <g
         style="display:inline"
         id="g3944"
         transform="translate(-535.24419,233.73018)">
        <g
           style="display:inline"
           id="g3784"
           transform="translate(-492.32361,16.91623)" />
        <path
           style="opacity:0.63999999;fill:#009900;fill-opacity:1"
           id="path3947"
           d="" />
        <path
           style="opacity:0.63999999;fill:#009900;fill-opacity:1"
           id="path3949"
           d="" />
        <path
           style="opacity:0.63999999;fill:#009900;fill-opacity:1"
           id="path3951"
           d="" />
        <g
           id="g3789"
           transform="translate(-435.89488,-59.72412)" />
        <g
           id="g3791"
           transform="translate(-435.89488,-59.72412)" />
        <g
           id="g3793"
           transform="translate(-435.89488,-59.72412)" />
        <g
           style="display:inline"
           id="g3956"
           transform="translate(-1117.1118,-93.68079)" />
      </g>
      <g
         id="g3958"
         transform="translate(-535.24419,233.73018)" />
      <g
         id="g7999"
         transform="matrix(2.7409252,0,0,2.7409252,707.52529,-210.29899)">
        <g
           style="fill:#000000;stroke:#787878;stroke-width:0.3648403;stroke-opacity:1"
           id="g7923"
           transform="translate(-0.3603674,0)">
          <path
             style="fill:#000000;fill-rule:evenodd;stroke:#787878;stroke-width:0.3648403px;stroke-linecap:butt;stroke-linejoin:miter;stroke-opacity:1"
             id="path7919"
             d="M -112.13528,309.75303 C -120.42046,302.78166 -118.83994,295.81028 -118.5875,288.83891 C -121.07221,296.25526 -123.01667,303.67162 -115.02765,311.08797" />
          <path
             style="fill:#000000;fill-rule:evenodd;stroke:#787878;stroke-width:0.3648403px;stroke-linecap:butt;stroke-linejoin:miter;stroke-opacity:1"
             id="path7921"
             d="M -108.96715,309.75303 C -100.68197,302.78166 -102.26249,295.81028 -102.51493,288.83891 C -100.03022,296.25526 -98.085757,303.67162 -106.07478,311.08797" />
        </g>
        <g
           style="fill:#000000;stroke:#787878;stroke-width:0.3648403;stroke-opacity:1"
           id="g7939"
           transform="translate(-2.9149098e-2,1.3148339)">
          <path
             style="fill:#000000;fill-rule:evenodd;stroke:#787878;stroke-width:0.3648403px;stroke-linecap:butt;stroke-linejoin:miter;stroke-opacity:1"
             id="path7935"
             d="M -104.13484,317.97752 L -99.927373,317.58307 C -90.917035,314.64509 -87.426368,311.24715 -82.308599,307.98479 C -81.129648,299.88321 -81.139851,292.24087 -82.703049,284.05481 C -79.238697,291.1873 -78.089217,299.52305 -79.021514,307.98479 C -84.312672,314.75708 -96.359256,321.54306 -103.6089,321.79054" />
          <path
             style="fill:#000000;fill-rule:evenodd;stroke:#787878;stroke-width:0.3648403px;stroke-linecap:butt;stroke-linejoin:miter;stroke-opacity:1"
             id="path7937"
             d="M -117.63003,317.97752 L -121.83749,317.58307 C -130.84783,314.64509 -134.3385,311.24715 -139.45627,307.98479 C -140.63522,299.88321 -140.62501,292.24087 -139.06182,284.05481 C -142.52617,291.1873 -143.67565,299.52305 -142.74335,307.98479 C -137.45219,314.75708 -125.40561,321.54306 -118.15597,321.79054" />
        </g>
        <g
           style="fill:#000000;stroke:#787878;stroke-width:0.3648403;stroke-opacity:1"
           id="g7955"
           transform="translate(0.1499772,-0.3944502)">
          <path
             style="fill:#000000;fill-rule:evenodd;stroke:#787878;stroke-width:0.3648403px;stroke-linecap:butt;stroke-linejoin:miter;stroke-opacity:1"
             id="path7951"
             d="M -103.21446,325.20911 C -98.373877,324.54359 -92.798548,324.12299 -85.85865,324.15724 C -82.154392,323.89915 -80.711094,327.51699 -79.415965,331.38883 C -78.785512,338.40265 -79.594827,339.73104 -81.125248,340.72415 L -85.4642,350.5854 L -85.4642,352.55766 L -84.017883,354.13546 C -85.217874,356.14825 -86.675377,355.48717 -88.225351,351.90024 C -87.008589,345.28716 -84.46342,342.51876 -82.308599,338.09448 L -82.308599,331.25735 C -82.801549,328.81655 -83.963278,327.21172 -85.85865,326.52394 L -97.034738,327.04988 C -98.579407,329.30486 -101.33831,328.82781 -104.26632,327.97026" />
          <path
             style="fill:#000000;fill-rule:evenodd;stroke:#787878;stroke-width:0.3648403px;stroke-linecap:butt;stroke-linejoin:miter;stroke-opacity:1"
             id="path7953"
             d="M -118.90865,325.20911 C -123.74924,324.54359 -129.32456,324.12299 -136.26446,324.15724 C -139.96873,323.89915 -141.41202,327.51699 -142.70715,331.38883 C -143.33761,338.40265 -142.52829,339.73104 -140.99787,340.72415 L -136.65891,350.5854 L -136.65891,352.55766 L -138.10523,354.13546 C -136.90524,356.14825 -135.44774,355.48717 -133.89776,351.90024 C -135.11452,345.28716 -137.65969,342.51876 -139.81452,338.09448 L -139.81452,331.25735 C -139.32157,328.81655 -138.15983,327.21172 -136.26446,326.52394 L -125.08837,327.04988 C -123.54371,329.30486 -120.7848,328.82781 -117.85679,327.97026" />
        </g>
        <g
           style="fill:#000000;stroke:#787878;stroke-width:0.3648403;stroke-opacity:1"
           id="g7963">
          <path
             style="fill:#000000;fill-rule:evenodd;stroke:#787878;stroke-width:0.3648403px;stroke-linecap:butt;stroke-linejoin:miter;stroke-opacity:1"
             id="path7927"
             d="M -105.15927,314.20284 C -98.677599,307.82478 -95.026031,301.44671 -91.142352,295.06865 C -90.754788,293.4404 -90.751417,291.73531 -91.142352,289.95136 C -94.400159,284.47594 -98.478978,279.32892 -102.48938,274.15453 C -97.9676,278.56664 -93.283644,282.64215 -89.807408,288.83891 C -88.99564,291.29617 -89.036658,293.16402 -89.584917,295.95861 C -93.154913,304.19606 -97.822657,311.27399 -104.04681,317.76269" />
          <path
             style="fill:#000000;fill-rule:evenodd;stroke:#787878;stroke-width:0.3648403px;stroke-linecap:butt;stroke-linejoin:miter;stroke-opacity:1"
             id="path7961"
             d="M -116.6639,314.20284 C -123.14557,307.82478 -126.79714,301.44671 -130.68082,295.06865 C -131.06838,293.4404 -131.07175,291.73531 -130.68082,289.95136 C -127.42301,284.47594 -123.34419,279.32892 -119.33379,274.15453 C -123.85557,278.56664 -128.53953,282.64215 -132.01576,288.83891 C -132.82753,291.29617 -132.78651,293.16402 -132.23825,295.95861 C -128.66826,304.19606 -124.00051,311.27399 -117.77636,317.76269" />
        </g>
        <g
           id="g7995"
           transform="translate(0.105623,0)">
          <path
             style="fill:#000000;fill-rule:evenodd;stroke:#787878;stroke-width:0.3648403px;stroke-linecap:butt;stroke-linejoin:miter;stroke-opacity:1"
             id="path7967"
             d="M -118.20356,328.10175 C -119.82519,328.84682 -120.92089,329.94251 -121.49065,331.38883 C -125.1917,332.76573 -127.72269,335.02017 -130.03707,337.43707 C -130.92904,338.27413 -131.50779,339.32 -131.3519,340.85563 L -131.3519,346.37794 C -132.88827,349.40206 -131.69965,353.08359 -130.95745,355.45029 L -125.8296,363.60226 L -124.90922,368.20418 C -125.69042,368.60633 -126.42197,369.05813 -125.8296,370.83385 C -124.99687,372.14264 -124.16415,373.51693 -123.33142,373.46351 C -122.14116,370.5109 -122.8536,367.41442 -123.33142,364.1282 L -129.51113,354.52991 C -129.0915,351.88029 -128.95928,348.69007 -128.59075,345.98349 C -128.43991,343.77987 -128.78085,341.65906 -127.93333,339.80377 C -126.79138,338.82251 -126.94846,337.58145 -124.2518,336.91113 L -116.49428,331.12586" />
          <path
             style="fill:#000000;fill-rule:evenodd;stroke:#787878;stroke-width:0.3648403px;stroke-linecap:butt;stroke-linejoin:miter;stroke-opacity:1"
             id="path7969"
             d="M -103.83085,328.10175 C -102.20922,328.84682 -101.11352,329.94251 -100.54376,331.38883 C -96.842706,332.76573 -94.311716,335.02017 -91.997336,337.43707 C -91.105366,338.27413 -90.526616,339.32 -90.682506,340.85563 L -90.682506,346.37794 C -89.146136,349.40206 -90.334756,353.08359 -91.076956,355.45029 L -96.204806,363.60226 L -97.125186,368.20418 C -96.343986,368.60633 -95.612436,369.05813 -96.204806,370.83385 C -97.037536,372.14264 -97.870256,373.51693 -98.702986,373.46351 C -99.893246,370.5109 -99.180806,367.41442 -98.702986,364.1282 L -92.523276,354.52991 C -92.942906,351.88029 -93.075126,348.69007 -93.443656,345.98349 C -93.594496,343.77987 -93.253556,341.65906 -94.101076,339.80377 C -95.243026,338.82251 -95.085946,337.58145 -97.782606,336.91113 L -105.54013,331.12586" />
        </g>
        <path
           style="fill:#000000;fill-opacity:1;stroke:#787878;stroke-width:0.3648403;stroke-linecap:round;stroke-linejoin:round;stroke-miterlimit:4;stroke-opacity:1"
           id="path7908"
           d="M -103.01316,321.99002 C -103.01316,329.60454 -106.55165,335.78444 -110.91158,335.78444 C -115.27151,335.78444 -118.81,329.60454 -118.81,321.99002 C -116.87526,314.76946 -116.60645,308.1956 -110.91158,308.1956 C -105.4392,308.1956 -105.02721,314.47346 -103.01316,321.99002 z" />
        <path
           style="fill:#000000;fill-opacity:1;stroke:#787878;stroke-width:0.3648403;stroke-linecap:round;stroke-linejoin:round;stroke-miterlimit:4;stroke-opacity:1"
           id="path7135"
           transform="translate(-6.8972094,-1.3349438)"
           d="M -89.218747,350.3624 C -89.218747,361.72277 -95.847188,374.94278 -104.01437,374.94278 C -112.18156,374.94278 -118.81,361.72277 -118.81,350.3624 C -118.81,339.00202 -112.18156,333.78201 -104.01437,333.78201 C -95.847188,333.78201 -89.218747,339.00202 -89.218747,350.3624 z" />
        <g
           style="fill:#000000;stroke:#787878;stroke-width:0.3648403;stroke-opacity:1"
           id="g7947"
           transform="translate(5.2845009e-3,0)">
          <path
             style="fill:#000000;fill-opacity:1;stroke:#787878;stroke-width:0.42096958;stroke-linecap:round;stroke-linejoin:round;stroke-miterlimit:4;stroke-dasharray:none;stroke-opacity:1"
             id="path7913"
             transform="matrix(0.8666667,0,0,0.8666667,-69.700284,55.166219)"
             d="M -43.385672,294.51242 C -43.385672,295.43401 -44.132765,296.1811 -45.054352,296.1811 C -45.975939,296.1811 -46.723032,295.43401 -46.723032,294.51242 C -46.723032,293.59083 -45.975939,292.84374 -45.054352,292.84374 C -44.132765,292.84374 -43.385672,293.59083 -43.385672,294.51242 z" />
          <path
             style="fill:#000000;fill-opacity:1;stroke:#787878;stroke-width:0.42096958;stroke-linecap:round;stroke-linejoin:round;stroke-miterlimit:4;stroke-dasharray:none;stroke-opacity:1"
             id="path7945"
             transform="matrix(0.8666667,0,0,0.8666667,-74.039236,55.166219)"
             d="M -43.385672,294.51242 C -43.385672,295.43401 -44.132765,296.1811 -45.054352,296.1811 C -45.975939,296.1811 -46.723032,295.43401 -46.723032,294.51242 C -46.723032,293.59083 -45.975939,292.84374 -45.054352,292.84374 C -44.132765,292.84374 -43.385672,293.59083 -43.385672,294.51242 z" />
        </g>
        <path
           style="fill:#000000;fill-rule:evenodd;stroke:#787878;stroke-width:0.3648403px;stroke-linecap:butt;stroke-linejoin:miter;stroke-opacity:1"
           id="path7971"
           d="M -111.86452,338.23825 L -111.86452,349.41434 C -111.25851,350.34788 -110.5933,350.27566 -109.95864,349.41434 L -109.95864,338.23825 C -110.40038,337.2594 -111.44135,337.30735 -111.86452,338.23825 z" />
        <path
           style="fill:#000000;fill-rule:evenodd;stroke:#787878;stroke-width:0.3648403px;stroke-linecap:butt;stroke-linejoin:miter;stroke-opacity:1"
           id="path7973"
           d="M -111.86452,359.23233 L -111.86452,367.02228 C -111.25851,367.95582 -110.5933,367.8836 -109.95864,367.02228 L -109.95864,359.23233 C -110.40038,358.25348 -111.44135,358.30143 -111.86452,359.23233 z" />
        <path
           style="fill:#000000;fill-rule:evenodd;stroke:#787878;stroke-width:0.3648403px;stroke-linecap:butt;stroke-linejoin:miter;stroke-opacity:1"
           id="path7975"
           d="M -111.72907,352.86638 L -111.72907,355.91573 C -111.12306,356.84927 -110.45785,356.77705 -109.82319,355.91573 L -109.82319,352.86638 C -110.26493,351.88753 -111.3059,351.93548 -111.72907,352.86638 z" />
        <path
           style="fill:#000000;fill-rule:evenodd;stroke:#787878;stroke-width:0.3648403px;stroke-linecap:butt;stroke-linejoin:miter;stroke-opacity:1"
           id="path7977"
           d="M -111.86452,369.93254 L -111.86452,372.98189 C -111.25851,373.91543 -110.5933,373.84321 -109.95864,372.98189 L -109.95864,369.93254 C -110.40038,368.95369 -111.44135,369.00164 -111.86452,369.93254 z" />
        <g
           style="fill:#000000;stroke:#787878;stroke-width:0.3648403;stroke-opacity:1"
           id="g7983"
           transform="translate(-0.2776729,0)">
          <path
             style="fill:#000000;fill-rule:evenodd;stroke:#787878;stroke-width:0.3648403px;stroke-linecap:butt;stroke-linejoin:miter;stroke-opacity:1"
             id="path7979"
             d="M -102.66739,346.40285 L -107.58277,351.72965 C -107.77049,352.82669 -107.23264,353.22473 -106.18211,353.02213 L -101.26672,347.69533 C -100.92755,346.67639 -101.7251,346.00569 -102.66739,346.40285 z" />
          <path
             style="fill:#000000;fill-rule:evenodd;stroke:#787878;stroke-width:0.3648403px;stroke-linecap:butt;stroke-linejoin:miter;stroke-opacity:1"
             id="path7981"
             d="M -118.60043,346.40285 L -113.68505,351.72965 C -113.49733,352.82669 -114.03518,353.22473 -115.08571,353.02213 L -120.0011,347.69533 C -120.34027,346.67639 -119.54272,346.00569 -118.60043,346.40285 z" />
        </g>
        <g
           style="fill:#000000;stroke:#787878;stroke-width:0.3648403;stroke-opacity:1"
           id="g7989"
           transform="translate(-0.2776729,10)">
          <path
             style="fill:#000000;fill-rule:evenodd;stroke:#787878;stroke-width:0.3648403px;stroke-linecap:butt;stroke-linejoin:miter;stroke-opacity:1"
             id="path7991"
             d="M -104.66739,348.40285 L -107.58277,351.72965 C -107.77049,352.82669 -107.23264,353.22473 -106.18211,353.02213 L -103.26672,349.69533 C -102.92755,348.67639 -103.7251,348.00569 -104.66739,348.40285 z" />
          <path
             style="fill:#000000;fill-rule:evenodd;stroke:#787878;stroke-width:0.3648403px;stroke-linecap:butt;stroke-linejoin:miter;stroke-opacity:1"
             id="path7993"
             d="M -116.60043,348.40285 L -113.68505,351.72965 C -113.49733,352.82669 -114.03518,353.22473 -115.08571,353.02213 L -118.0011,349.69533 C -118.34027,348.67639 -117.54272,348.00569 -116.60043,348.40285 z" />
        </g>
      </g>
    </g>
    <path
       style="fill:none;fill-rule:evenodd;stroke:#000000;stroke-width:1px;stroke-linecap:butt;stroke-linejoin:miter;stroke-opacity:1"
       d="M 199.33164,204.63997 L 198.9679,296.66717"
       id="path3378"
       transform="translate(0,552.36218)" />
    <path
       style="fill:none;fill-rule:evenodd;stroke:#000000;stroke-width:1px;stroke-linecap:butt;stroke-linejoin:miter;stroke-opacity:1"
       d="M 212.42643,750.09102 L 188.78308,844.66443"
       id="path3380"
       sodipodi:nodetypes="cc" />
    <path
       style="fill:none;fill-rule:evenodd;stroke:#000000;stroke-width:1px;stroke-linecap:butt;stroke-linejoin:miter;stroke-opacity:1"
       d="M 227.70367,742.08866 L 181.87194,840.2995"
       id="path3382"
       sodipodi:nodetypes="cc" />
    <path
       style="fill:none;fill-rule:evenodd;stroke:#000000;stroke-width:1px;stroke-linecap:butt;stroke-linejoin:miter;stroke-opacity:1"
       d="M 252.07451,729.72137 L 174.59706,836.66206"
       id="path3384"
       sodipodi:nodetypes="cc" />
    <path
       style="fill:none;fill-rule:evenodd;stroke:#000000;stroke-width:1px;stroke-linecap:butt;stroke-linejoin:miter;stroke-opacity:1"
       d="M 305.9086,703.16806 L 166.95845,833.02462"
       id="path3386"
       sodipodi:nodetypes="cc" />
    <path
       style="fill:none;fill-rule:evenodd;stroke:#000000;stroke-width:1px;stroke-linecap:butt;stroke-linejoin:miter;stroke-opacity:1"
       d="M 264.80555,760.27585 L 159.31983,829.02344"
       id="path3388"
       sodipodi:nodetypes="cc" />
    <path
       style="fill:none;fill-rule:evenodd;stroke:#000000;stroke-width:1px;stroke-linecap:butt;stroke-linejoin:miter;stroke-opacity:1"
       d="M 258.98565,777.00807 L 149.135,823.93104"
       id="path3390"
       sodipodi:nodetypes="cc" />
    <path
       style="fill:none;fill-rule:evenodd;stroke:#000000;stroke-width:1px;stroke-linecap:butt;stroke-linejoin:miter;stroke-opacity:1"
       d="M 256.43944,791.55783 L 134.2215,816.65615"
       id="path3392"
       sodipodi:nodetypes="cc" />
    <path
       sodipodi:nodetypes="cc"
       id="path3394"
       d="M 211.69894,855.94049 L 188.05559,761.36708"
       style="fill:none;fill-rule:evenodd;stroke:#000000;stroke-width:1px;stroke-linecap:butt;stroke-linejoin:miter;stroke-opacity:1" />
    <path
       sodipodi:nodetypes="cc"
       id="path3396"
       d="M 226.97618,863.94285 L 181.14445,765.73201"
       style="fill:none;fill-rule:evenodd;stroke:#000000;stroke-width:1px;stroke-linecap:butt;stroke-linejoin:miter;stroke-opacity:1" />
    <path
       sodipodi:nodetypes="cc"
       id="path3398"
       d="M 251.34702,876.31014 L 173.86957,769.36945"
       style="fill:none;fill-rule:evenodd;stroke:#000000;stroke-width:1px;stroke-linecap:butt;stroke-linejoin:miter;stroke-opacity:1" />
    <path
       sodipodi:nodetypes="cc"
       id="path3400"
       d="M 305.18111,902.86345 L 166.23096,773.00689"
       style="fill:none;fill-rule:evenodd;stroke:#000000;stroke-width:1px;stroke-linecap:butt;stroke-linejoin:miter;stroke-opacity:1" />
    <path
       sodipodi:nodetypes="cc"
       id="path3402"
       d="M 264.07806,845.75566 L 158.59234,777.00807"
       style="fill:none;fill-rule:evenodd;stroke:#000000;stroke-width:1px;stroke-linecap:butt;stroke-linejoin:miter;stroke-opacity:1" />
    <path
       sodipodi:nodetypes="cc"
       id="path3404"
       d="M 258.25816,829.02344 L 148.40751,782.10047"
       style="fill:none;fill-rule:evenodd;stroke:#000000;stroke-width:1px;stroke-linecap:butt;stroke-linejoin:miter;stroke-opacity:1" />
    <path
       sodipodi:nodetypes="cc"
       id="path3406"
       d="M 255.71195,814.47368 L 133.49401,789.37536"
       style="fill:none;fill-rule:evenodd;stroke:#000000;stroke-width:1px;stroke-linecap:butt;stroke-linejoin:miter;stroke-opacity:1" />
    <path
       style="fill:none;fill-rule:evenodd;stroke:#000000;stroke-width:1px;stroke-linecap:butt;stroke-linejoin:miter;stroke-opacity:1"
       d="M 551.08697,756.8138 L 551.45071,848.841"
       id="path3408" />
    <path
       style="fill:none;fill-rule:evenodd;stroke:#000000;stroke-width:1px;stroke-linecap:butt;stroke-linejoin:miter;stroke-opacity:1"
       d="M 537.99218,749.90267 L 561.63553,844.47608"
       id="path3410"
       sodipodi:nodetypes="cc" />
    <path
       style="fill:none;fill-rule:evenodd;stroke:#000000;stroke-width:1px;stroke-linecap:butt;stroke-linejoin:miter;stroke-opacity:1"
       d="M 522.71494,741.90031 L 568.54667,840.11115"
       id="path3412"
       sodipodi:nodetypes="cc" />
    <path
       style="fill:none;fill-rule:evenodd;stroke:#000000;stroke-width:1px;stroke-linecap:butt;stroke-linejoin:miter;stroke-opacity:1"
       d="M 498.3441,729.53302 L 575.82155,836.47371"
       id="path3414"
       sodipodi:nodetypes="cc" />
    <path
       style="fill:none;fill-rule:evenodd;stroke:#000000;stroke-width:1px;stroke-linecap:butt;stroke-linejoin:miter;stroke-opacity:1"
       d="M 444.51001,702.97971 L 583.46016,832.83627"
       id="path3416"
       sodipodi:nodetypes="cc" />
    <path
       style="fill:none;fill-rule:evenodd;stroke:#000000;stroke-width:1px;stroke-linecap:butt;stroke-linejoin:miter;stroke-opacity:1"
       d="M 485.61306,760.0875 L 591.09878,828.83509"
       id="path3418"
       sodipodi:nodetypes="cc" />
    <path
       style="fill:none;fill-rule:evenodd;stroke:#000000;stroke-width:1px;stroke-linecap:butt;stroke-linejoin:miter;stroke-opacity:1"
       d="M 491.43296,776.81972 L 601.28361,823.74269"
       id="path3420"
       sodipodi:nodetypes="cc" />
    <path
       style="fill:none;fill-rule:evenodd;stroke:#000000;stroke-width:1px;stroke-linecap:butt;stroke-linejoin:miter;stroke-opacity:1"
       d="M 493.97917,791.36948 L 616.19711,816.4678"
       id="path3422"
       sodipodi:nodetypes="cc" />
    <path
       sodipodi:nodetypes="cc"
       id="path3424"
       d="M 538.71967,855.75214 L 562.36302,761.17873"
       style="fill:none;fill-rule:evenodd;stroke:#000000;stroke-width:1px;stroke-linecap:butt;stroke-linejoin:miter;stroke-opacity:1" />
    <path
       sodipodi:nodetypes="cc"
       id="path3426"
       d="M 523.44243,863.7545 L 569.27416,765.54366"
       style="fill:none;fill-rule:evenodd;stroke:#000000;stroke-width:1px;stroke-linecap:butt;stroke-linejoin:miter;stroke-opacity:1" />
    <path
       sodipodi:nodetypes="cc"
       id="path3428"
       d="M 499.07159,876.12179 L 576.54904,769.1811"
       style="fill:none;fill-rule:evenodd;stroke:#000000;stroke-width:1px;stroke-linecap:butt;stroke-linejoin:miter;stroke-opacity:1" />
    <path
       sodipodi:nodetypes="cc"
       id="path3430"
       d="M 445.2375,902.6751 L 584.18765,772.81854"
       style="fill:none;fill-rule:evenodd;stroke:#000000;stroke-width:1px;stroke-linecap:butt;stroke-linejoin:miter;stroke-opacity:1" />
    <path
       sodipodi:nodetypes="cc"
       id="path3432"
       d="M 486.34055,845.56731 L 591.82627,776.81972"
       style="fill:none;fill-rule:evenodd;stroke:#000000;stroke-width:1px;stroke-linecap:butt;stroke-linejoin:miter;stroke-opacity:1" />
    <path
       sodipodi:nodetypes="cc"
       id="path3434"
       d="M 492.16045,828.83509 L 602.0111,781.91212"
       style="fill:none;fill-rule:evenodd;stroke:#000000;stroke-width:1px;stroke-linecap:butt;stroke-linejoin:miter;stroke-opacity:1" />
    <path
       sodipodi:nodetypes="cc"
       id="path3436"
       d="M 494.70666,814.28533 L 616.9246,789.18701"
       style="fill:none;fill-rule:evenodd;stroke:#000000;stroke-width:1px;stroke-linecap:butt;stroke-linejoin:miter;stroke-opacity:1" />
  </g>
</svg>
