<?xml version="1.0" encoding="UTF-8" standalone="no"?>
<!-- Created with Inkscape (http://www.inkscape.org/) -->
<svg
   xmlns:dc="http://purl.org/dc/elements/1.1/"
   xmlns:cc="http://creativecommons.org/ns#"
   xmlns:rdf="http://www.w3.org/1999/02/22-rdf-syntax-ns#"
   xmlns:svg="http://www.w3.org/2000/svg"
   xmlns="http://www.w3.org/2000/svg"
   xmlns:sodipodi="http://sodipodi.sourceforge.net/DTD/sodipodi-0.dtd"
   xmlns:inkscape="http://www.inkscape.org/namespaces/inkscape"
   width="750"
   height="500"
   id="svg2822"
   version="1.1"
   inkscape:version="0.46"
   sodipodi:docname="Flag_of_Villanueva_(Santander).svg"
   sodipodi:version="0.32"
   inkscape:output_extension="org.inkscape.output.svg.inkscape">
  <defs
     id="defs2824" />
  <sodipodi:namedview
     id="base"
     pagecolor="#ffffff"
     bordercolor="#666666"
     borderopacity="1.0"
     inkscape:pageopacity="0.0"
     inkscape:pageshadow="2"
     inkscape:zoom="1.014"
     inkscape:cx="375"
     inkscape:cy="250"
     inkscape:document-units="px"
     inkscape:current-layer="layer1"
     showgrid="false"
     inkscape:window-width="1024"
     inkscape:window-height="712"
     inkscape:window-x="-4"
     inkscape:window-y="-4"
     inkscape:window-maximized="1" />
  <metadata
     id="metadata2827">
    <rdf:RDF>
      <cc:Work
         rdf:about="">
        <dc:format>image/svg+xml</dc:format>
        <dc:type
           rdf:resource="http://purl.org/dc/dcmitype/StillImage" />
        <dc:title />
      </cc:Work>
    </rdf:RDF>
  </metadata>
  <g
     inkscape:label="Capa 1"
     inkscape:groupmode="layer"
     id="layer1"
     transform="translate(0,-552.36218)">
    <path
       style="fill:#078930;fill-opacity:1;stroke:none"
       d="M 750.98619,1052.2725 L 0,1052.2725 L 750.98619,552.36218 L 750.98619,1052.2725 z"
       id="rect2832"
       sodipodi:nodetypes="cccc" />
    <path
       style="fill:#0f47af;fill-opacity:1;stroke:none"
       d="M 0,553.43811 L 750,553.43811 L 0,1052.3622 L 0,553.43811 z"
       id="rect2836"
       sodipodi:nodetypes="cccc" />
    <path
       style="fill:#999999;stroke:none;stroke-width:1px;stroke-linecap:butt;stroke-linejoin:miter;stroke-opacity:1"
       d="M 751.97239,662.36218 L 751.97239,552.36218 L 641.78839,552.36218 L -0.35948659,943.34839 L 0.00094494245,1052.3622 L 108.18495,1052.3622 L 751.97239,662.36218 z"
       id="path4433"
       sodipodi:nodetypes="ccccccc" />
    <path
       sodipodi:type="star"
       style="opacity:1;fill:#fcdd09;fill-opacity:1;stroke:none;stroke-width:0.69999999;stroke-linejoin:round;stroke-miterlimit:4;stroke-dasharray:none;stroke-dashoffset:0;stroke-opacity:1"
       id="path3178"
       sodipodi:sides="5"
       sodipodi:cx="44.378696"
       sodipodi:cy="71.992111"
       sodipodi:r1="23.274998"
       sodipodi:r2="8.7325525"
       sodipodi:arg1="0.93576959"
       sodipodi:arg2="1.5640881"
       inkscape:flatsided="false"
       inkscape:rounded="0"
       inkscape:randomized="0"
       d="M 58.185403,90.729784 L 44.437276,80.724467 L 30.824618,90.913328 L 36.091834,74.74627 L 22.195109,64.948394 L 39.198555,64.961919 L 44.222564,48.717637 L 49.464055,64.893055 L 66.465789,64.651413 L 52.701763,74.634845 L 58.185403,90.729784 z"
       transform="matrix(1.0118692,1.1178552e-2,-1.131194e-2,0.9999375,279.47776,870.02621)" />
    <path
       sodipodi:type="star"
       style="opacity:1;fill:#fcdd09;fill-opacity:1;stroke:none;stroke-width:0.69999999;stroke-linejoin:round;stroke-miterlimit:4;stroke-dasharray:none;stroke-dashoffset:0;stroke-opacity:1"
       id="path3180"
       sodipodi:sides="5"
       sodipodi:cx="44.378696"
       sodipodi:cy="71.992111"
       sodipodi:r1="23.274998"
       sodipodi:r2="8.7325525"
       sodipodi:arg1="0.93576959"
       sodipodi:arg2="1.5640881"
       inkscape:flatsided="false"
       inkscape:rounded="0"
       inkscape:randomized="0"
       d="M 58.185403,90.729784 L 44.437276,80.724467 L 30.824618,90.913328 L 36.091834,74.74627 L 22.195109,64.948394 L 39.198555,64.961919 L 44.222564,48.717637 L 49.464055,64.893055 L 66.465789,64.651413 L 52.701763,74.634845 L 58.185403,90.729784 z"
       transform="matrix(1.0118692,1.1178552e-2,-1.131194e-2,0.9999375,332.91996,938.95098)" />
    <path
       sodipodi:type="star"
       style="opacity:1;fill:#fcdd09;fill-opacity:1;stroke:none;stroke-width:0.69999999;stroke-linejoin:round;stroke-miterlimit:4;stroke-dasharray:none;stroke-dashoffset:0;stroke-opacity:1"
       id="path3212"
       sodipodi:sides="5"
       sodipodi:cx="44.378696"
       sodipodi:cy="71.992111"
       sodipodi:r1="23.274998"
       sodipodi:r2="8.7325525"
       sodipodi:arg1="0.93576959"
       sodipodi:arg2="1.5640881"
       inkscape:flatsided="false"
       inkscape:rounded="0"
       inkscape:randomized="0"
       d="M 58.185403,90.729784 L 44.437276,80.724467 L 30.824618,90.913328 L 36.091834,74.74627 L 22.195109,64.948394 L 39.198555,64.961919 L 44.222564,48.717637 L 49.464055,64.893055 L 66.465789,64.651413 L 52.701763,74.634845 L 58.185403,90.729784 z"
       transform="matrix(1.0118692,1.1178552e-2,-1.131194e-2,0.9999375,225.41991,801.65145)" />
    <path
       sodipodi:type="star"
       style="opacity:1;fill:#fcdd09;fill-opacity:1;stroke:none;stroke-width:0.69999999;stroke-linejoin:round;stroke-miterlimit:4;stroke-dasharray:none;stroke-dashoffset:0;stroke-opacity:1"
       id="path3216"
       sodipodi:sides="5"
       sodipodi:cx="44.378696"
       sodipodi:cy="71.992111"
       sodipodi:r1="23.274998"
       sodipodi:r2="8.7325525"
       sodipodi:arg1="0.93576959"
       sodipodi:arg2="1.5640881"
       inkscape:flatsided="false"
       inkscape:rounded="0"
       inkscape:randomized="0"
       d="M 58.185403,90.729784 L 44.437276,80.724467 L 30.824618,90.913328 L 36.091834,74.74627 L 22.195109,64.948394 L 39.198555,64.961919 L 44.222564,48.717637 L 49.464055,64.893055 L 66.465789,64.651413 L 52.701763,74.634845 L 58.185403,90.729784 z"
       transform="matrix(1.0118692,1.1178552e-2,-1.131194e-2,0.9999375,172.61196,733.27472)" />
    <path
       sodipodi:type="star"
       style="opacity:1;fill:#fcdd09;fill-opacity:1;stroke:none;stroke-width:0.69999999;stroke-linejoin:round;stroke-miterlimit:4;stroke-dasharray:none;stroke-dashoffset:0;stroke-opacity:1"
       id="path3220"
       sodipodi:sides="5"
       sodipodi:cx="44.378696"
       sodipodi:cy="71.992111"
       sodipodi:r1="23.274998"
       sodipodi:r2="8.7325525"
       sodipodi:arg1="0.93576959"
       sodipodi:arg2="1.5640881"
       inkscape:flatsided="false"
       inkscape:rounded="0"
       inkscape:randomized="0"
       d="M 58.185403,90.729784 L 44.437276,80.724467 L 30.824618,90.913328 L 36.091834,74.74627 L 22.195109,64.948394 L 39.198555,64.961919 L 44.222564,48.717637 L 49.464055,64.893055 L 66.465789,64.651413 L 52.701763,74.634845 L 58.185403,90.729784 z"
       transform="matrix(1.0118692,1.1178552e-2,-1.131194e-2,0.9999375,118.5541,664.89996)" />
    <path
       sodipodi:type="star"
       style="opacity:1;fill:#fcdd09;fill-opacity:1;stroke:none;stroke-width:0.69999999;stroke-linejoin:round;stroke-miterlimit:4;stroke-dasharray:none;stroke-dashoffset:0;stroke-opacity:1"
       id="path3222"
       sodipodi:sides="5"
       sodipodi:cx="44.378696"
       sodipodi:cy="71.992111"
       sodipodi:r1="23.274998"
       sodipodi:r2="8.7325525"
       sodipodi:arg1="0.93576959"
       sodipodi:arg2="1.5640881"
       inkscape:flatsided="false"
       inkscape:rounded="0"
       inkscape:randomized="0"
       d="M 58.185403,90.729784 L 44.437276,80.724467 L 30.824618,90.913328 L 36.091834,74.74627 L 22.195109,64.948394 L 39.198555,64.961919 L 44.222564,48.717637 L 49.464055,64.893055 L 66.465789,64.651413 L 52.701763,74.634845 L 58.185403,90.729784 z"
       transform="matrix(1.0118692,1.1178552e-2,-1.131194e-2,0.9999375,64.411975,595.20766)" />
    <path
       sodipodi:type="star"
       style="opacity:1;fill:#fcdd09;fill-opacity:1;stroke:none;stroke-width:0.69999999;stroke-linejoin:round;stroke-miterlimit:4;stroke-dasharray:none;stroke-dashoffset:0;stroke-opacity:1"
       id="path3226"
       sodipodi:sides="5"
       sodipodi:cx="44.378696"
       sodipodi:cy="71.992111"
       sodipodi:r1="23.274998"
       sodipodi:r2="8.7325525"
       sodipodi:arg1="0.93576959"
       sodipodi:arg2="1.5640881"
       inkscape:flatsided="false"
       inkscape:rounded="0"
       inkscape:randomized="0"
       d="M 58.185403,90.729784 L 44.437276,80.724467 L 30.824618,90.913328 L 36.091834,74.74627 L 22.195109,64.948394 L 39.198555,64.961919 L 44.222564,48.717637 L 49.464055,64.893055 L 66.465789,64.651413 L 52.701763,74.634845 L 58.185403,90.729784 z"
       transform="matrix(1.0118692,1.1178552e-2,-1.131194e-2,0.9999375,10.354121,526.8329)" />
    <path
       sodipodi:type="star"
       style="opacity:1;fill:#fcdd09;fill-opacity:1;stroke:none;stroke-width:0.69999999;stroke-linejoin:round;stroke-miterlimit:4;stroke-dasharray:none;stroke-dashoffset:0;stroke-opacity:1"
       id="path3228"
       sodipodi:sides="5"
       sodipodi:cx="44.378696"
       sodipodi:cy="71.992111"
       sodipodi:r1="23.274998"
       sodipodi:r2="8.7325525"
       sodipodi:arg1="0.93576959"
       sodipodi:arg2="1.5640881"
       inkscape:flatsided="false"
       inkscape:rounded="0"
       inkscape:randomized="0"
       d="M 58.185403,90.729784 L 44.437276,80.724467 L 30.824618,90.913328 L 36.091834,74.74627 L 22.195109,64.948394 L 39.198555,64.961919 L 44.222564,48.717637 L 49.464055,64.893055 L 66.465789,64.651413 L 52.701763,74.634845 L 58.185403,90.729784 z"
       transform="matrix(-1.0118692,1.1178552e-2,1.131194e-2,0.9999375,475.20959,870.68396)" />
    <path
       sodipodi:type="star"
       style="opacity:1;fill:#fcdd09;fill-opacity:1;stroke:none;stroke-width:0.69999999;stroke-linejoin:round;stroke-miterlimit:4;stroke-dasharray:none;stroke-dashoffset:0;stroke-opacity:1"
       id="path3232"
       sodipodi:sides="5"
       sodipodi:cx="44.378696"
       sodipodi:cy="71.992111"
       sodipodi:r1="23.274998"
       sodipodi:r2="8.7325525"
       sodipodi:arg1="0.93576959"
       sodipodi:arg2="1.5640881"
       inkscape:flatsided="false"
       inkscape:rounded="0"
       inkscape:randomized="0"
       d="M 58.185403,90.729784 L 44.437276,80.724467 L 30.824618,90.913328 L 36.091834,74.74627 L 22.195109,64.948394 L 39.198555,64.961919 L 44.222564,48.717637 L 49.464055,64.893055 L 66.465789,64.651413 L 52.701763,74.634845 L 58.185403,90.729784 z"
       transform="matrix(-1.0118692,1.1178552e-2,1.131194e-2,0.9999375,529.26745,802.30925)" />
    <path
       sodipodi:type="star"
       style="opacity:1;fill:#fcdd09;fill-opacity:1;stroke:none;stroke-width:0.69999999;stroke-linejoin:round;stroke-miterlimit:4;stroke-dasharray:none;stroke-dashoffset:0;stroke-opacity:1"
       id="path3234"
       sodipodi:sides="5"
       sodipodi:cx="44.378696"
       sodipodi:cy="71.992111"
       sodipodi:r1="23.274998"
       sodipodi:r2="8.7325525"
       sodipodi:arg1="0.93576959"
       sodipodi:arg2="1.5640881"
       inkscape:flatsided="false"
       inkscape:rounded="0"
       inkscape:randomized="0"
       d="M 58.185403,90.729784 L 44.437276,80.724467 L 30.824618,90.913328 L 36.091834,74.74627 L 22.195109,64.948394 L 39.198555,64.961919 L 44.222564,48.717637 L 49.464055,64.893055 L 66.465789,64.651413 L 52.701763,74.634845 L 58.185403,90.729784 z"
       transform="matrix(-1.0118692,1.1178552e-2,1.131194e-2,0.9999375,582.0754,733.93252)" />
    <path
       sodipodi:type="star"
       style="opacity:1;fill:#fcdd09;fill-opacity:1;stroke:none;stroke-width:0.69999999;stroke-linejoin:round;stroke-miterlimit:4;stroke-dasharray:none;stroke-dashoffset:0;stroke-opacity:1"
       id="path3236"
       sodipodi:sides="5"
       sodipodi:cx="44.378696"
       sodipodi:cy="71.992111"
       sodipodi:r1="23.274998"
       sodipodi:r2="8.7325525"
       sodipodi:arg1="0.93576959"
       sodipodi:arg2="1.5640881"
       inkscape:flatsided="false"
       inkscape:rounded="0"
       inkscape:randomized="0"
       d="M 58.185403,90.729784 L 44.437276,80.724467 L 30.824618,90.913328 L 36.091834,74.74627 L 22.195109,64.948394 L 39.198555,64.961919 L 44.222564,48.717637 L 49.464055,64.893055 L 66.465789,64.651413 L 52.701763,74.634845 L 58.185403,90.729784 z"
       transform="matrix(-1.0118692,1.1178552e-2,1.131194e-2,0.9999375,636.13325,665.55776)" />
    <path
       sodipodi:type="star"
       style="opacity:1;fill:#fcdd09;fill-opacity:1;stroke:none;stroke-width:0.69999999;stroke-linejoin:round;stroke-miterlimit:4;stroke-dasharray:none;stroke-dashoffset:0;stroke-opacity:1"
       id="path3238"
       sodipodi:sides="5"
       sodipodi:cx="44.378696"
       sodipodi:cy="71.992111"
       sodipodi:r1="23.274998"
       sodipodi:r2="8.7325525"
       sodipodi:arg1="0.93576959"
       sodipodi:arg2="1.5640881"
       inkscape:flatsided="false"
       inkscape:rounded="0"
       inkscape:randomized="0"
       d="M 58.185403,90.729784 L 44.437276,80.724467 L 30.824618,90.913328 L 36.091834,74.74627 L 22.195109,64.948394 L 39.198555,64.961919 L 44.222564,48.717637 L 49.464055,64.893055 L 66.465789,64.651413 L 52.701763,74.634845 L 58.185403,90.729784 z"
       transform="matrix(-1.0118692,1.1178552e-2,1.131194e-2,0.9999375,690.27539,595.86546)" />
    <path
       sodipodi:type="star"
       style="opacity:1;fill:#fcdd09;fill-opacity:1;stroke:none;stroke-width:0.69999999;stroke-linejoin:round;stroke-miterlimit:4;stroke-dasharray:none;stroke-dashoffset:0;stroke-opacity:1"
       id="path3240"
       sodipodi:sides="5"
       sodipodi:cx="44.378696"
       sodipodi:cy="71.992111"
       sodipodi:r1="23.274998"
       sodipodi:r2="8.7325525"
       sodipodi:arg1="0.93576959"
       sodipodi:arg2="1.5640881"
       inkscape:flatsided="false"
       inkscape:rounded="0"
       inkscape:randomized="0"
       d="M 58.185403,90.729784 L 44.437276,80.724467 L 30.824618,90.913328 L 36.091834,74.74627 L 22.195109,64.948394 L 39.198555,64.961919 L 44.222564,48.717637 L 49.464055,64.893055 L 66.465789,64.651413 L 52.701763,74.634845 L 58.185403,90.729784 z"
       transform="matrix(-1.0118692,1.1178552e-2,1.131194e-2,0.9999375,744.33323,527.4907)" />
    <path
       style="fill:#fcdd09;fill-opacity:1;stroke:none;stroke-width:0.69999999;stroke-linejoin:round;stroke-miterlimit:4;stroke-dashoffset:0;stroke-opacity:1"
       d="M 439.26409,793.60564 L 314.2811,793.60564 C 314.2811,759.11033 342.27729,731.11414 376.7726,731.11414 C 411.2679,731.11414 439.26409,759.11033 439.26409,793.60564 z"
       id="path3270"
       sodipodi:nodetypes="ccsc" />
    <path
       style="fill:#fcdd09;fill-opacity:1;fill-rule:evenodd;stroke:none;stroke-width:1.13158762px;stroke-linecap:butt;stroke-linejoin:miter;stroke-opacity:1"
       d="M 357.56572,724.86189 L 376.56996,676.0638 L 395.57163,725.07092 L 357.56572,724.86189 z"
       id="path3272"
       sodipodi:nodetypes="cccc" />
    <path
       style="fill:#fcdd09;fill-opacity:1;fill-rule:evenodd;stroke:none;stroke-width:1.13158762px;stroke-linecap:butt;stroke-linejoin:miter;stroke-opacity:1"
       d="M 311.77811,759.07225 L 287.38519,712.73221 L 336.85001,730.5084 L 311.77811,759.07225 z"
       id="path3278"
       sodipodi:nodetypes="cccc" />
    <path
       style="fill:#fcdd09;fill-opacity:1;fill-rule:evenodd;stroke:none;stroke-width:1.13158762px;stroke-linecap:butt;stroke-linejoin:miter;stroke-opacity:1"
       d="M 257.09219,794.16034 L 305.74147,774.26038 L 305.98654,793.26204 L 257.09219,794.16034 z"
       id="path3280"
       sodipodi:nodetypes="cccc" />
    <path
       sodipodi:nodetypes="cccc"
       id="path3287"
       d="M 442.01237,759.07225 L 466.40529,712.73221 L 416.94047,730.5084 L 442.01237,759.07225 z"
       style="fill:#fcdd09;fill-opacity:1;fill-rule:evenodd;stroke:none;stroke-width:1.13158762px;stroke-linecap:butt;stroke-linejoin:miter;stroke-opacity:1" />
    <path
       sodipodi:nodetypes="cccc"
       id="path3289"
       d="M 496.69829,794.16034 L 448.04901,774.26038 L 447.80394,793.26204 L 496.69829,794.16034 z"
       style="fill:#fcdd09;fill-opacity:1;fill-rule:evenodd;stroke:none;stroke-width:1.13158762px;stroke-linecap:butt;stroke-linejoin:miter;stroke-opacity:1" />
  </g>
</svg>
