<?xml version="1.0" encoding="UTF-8" standalone="no"?>
<!-- Created with Inkscape (http://www.inkscape.org/) -->
<svg
   xmlns:dc="http://purl.org/dc/elements/1.1/"
   xmlns:cc="http://creativecommons.org/ns#"
   xmlns:rdf="http://www.w3.org/1999/02/22-rdf-syntax-ns#"
   xmlns:svg="http://www.w3.org/2000/svg"
   xmlns="http://www.w3.org/2000/svg"
   xmlns:sodipodi="http://sodipodi.sourceforge.net/DTD/sodipodi-0.dtd"
   xmlns:inkscape="http://www.inkscape.org/namespaces/inkscape"
   id="svg1306"
   sodipodi:version="0.32"
   inkscape:version="0.46"
   width="750"
   height="500"
   version="1.0"
   sodipodi:docbase="D:\MIS DOCUMENTOS\Mis imágenes\Encyclopédie\Banderas antioqueñas"
   sodipodi:docname="Flag.svg"
   inkscape:output_extension="org.inkscape.output.svg.inkscape">
  <metadata
     id="metadata1311">
    <rdf:RDF>
      <cc:Work
         rdf:about="">
        <dc:format>image/svg+xml</dc:format>
        <dc:type
           rdf:resource="http://purl.org/dc/dcmitype/StillImage" />
      </cc:Work>
    </rdf:RDF>
  </metadata>
  <defs
     id="defs1309" />
  <sodipodi:namedview
     inkscape:window-height="712"
     inkscape:window-width="1024"
     inkscape:pageshadow="2"
     inkscape:pageopacity="0.0"
     borderopacity="1.0"
     bordercolor="#666666"
     pagecolor="#ffffff"
     id="base"
     inkscape:zoom="1.014"
     inkscape:cx="375"
     inkscape:cy="250"
     inkscape:window-x="-4"
     inkscape:window-y="-4"
     inkscape:current-layer="svg1306"
     fill="#ffff00"
     showgrid="true" />
  <rect
     style="fill:#078930;fill-opacity:1;fill-rule:nonzero;stroke:none;stroke-width:0.96600002;stroke-miterlimit:4;stroke-dasharray:none;stroke-opacity:1"
     id="rect7467"
     width="754.75128"
     height="251.07053"
     x="-3.8622725"
     y="250.33588" />
  <rect
     style="fill:#ffffff;fill-opacity:1;fill-rule:nonzero;stroke:none;stroke-width:0.96600002;stroke-miterlimit:4;stroke-dasharray:none;stroke-opacity:1"
     id="rect7469"
     width="753.76508"
     height="251.07053"
     x="-4.5169983"
     y="-0.38851762" />
  <path
     sodipodi:type="arc"
     style="opacity:1;fill:#fcdd09;fill-opacity:1;stroke:none;stroke-width:4.5;stroke-linejoin:round;stroke-miterlimit:4;stroke-dasharray:none;stroke-dashoffset:0;stroke-opacity:1"
     id="path3152"
     sodipodi:cx="296.84418"
     sodipodi:cy="335.30573"
     sodipodi:rx="95.660751"
     sodipodi:ry="95.660751"
     d="M 392.50493,335.30573 A 95.660751,95.660751 0 1 1 201.18343,335.30573 A 95.660751,95.660751 0 1 1 392.50493,335.30573 z"
     transform="matrix(1.21,0,0,1.21,14.5858,-154.55227)" />
  <path
     style="fill:#ffffff;fill-rule:evenodd;stroke:#000000;stroke-width:1;stroke-linecap:butt;stroke-linejoin:miter;stroke-opacity:1;stroke-miterlimit:4;stroke-dasharray:none"
     d="M 349.7477,364.27568 C 347.96149,356.2817 348.64224,348.88461 350.23709,340.89066 C 342.53821,331.54202 340.9927,319.88591 338.49085,308.58841 C 337.97298,296.99816 335.02801,284.80115 337.02257,273.83903 L 353.17369,236.64251 C 349.58811,235.61661 347.6818,231.652 346.81113,225.87511 L 280.32833,240.61652 C 275.64857,240.56686 273.9096,230.96955 277.31236,229.30109 L 345.34285,212.17112 C 345.56601,208.30796 349.29464,205.91141 352.66397,209.19397 C 354.71513,203.58341 358.60275,207.01584 359.53626,207.27683 C 362.32228,201.44579 367.54733,203.74464 372.26138,204.34028 L 420.79237,191.61516 C 417.94837,174.86695 406.46592,152.96652 399.82275,139.20767 C 415.9765,153.25034 429.6459,170.90729 435.12219,186.79543 C 444.11549,189.89582 446.24283,202.36671 441.48258,208.15626 C 448.39773,222.67593 450.19915,235.49987 453.95471,250.01955 C 445.25278,257.57068 435.91478,260.03311 426.54674,262.25528 C 429.30009,243.82015 429.26569,230.27587 427.28918,211.84075 C 424.15193,211.22574 422.12502,208.94093 421.77639,206.29798 L 384.98649,216.08654 C 384.70198,220.96864 381.41663,223.2071 378.1345,224.89624 C 380.36223,234.28805 372.38682,241.78184 369.81422,243.61967 C 371.2627,259.93393 370.37413,277.59132 366.38824,293.90558 C 378.93781,306.25417 379.22982,322.68861 384.49706,337.46464 C 393.65033,344.30801 400.55906,353.31828 405.64999,362.19281 C 387.12208,368.3299 366.15245,367.26484 349.7477,364.27568 z"
     id="path3167"
     sodipodi:nodetypes="ccccccccccccccccccccccccccc" />
  <path
     style="fill:none;fill-rule:evenodd;stroke:#000000;stroke-width:1;stroke-linecap:butt;stroke-linejoin:miter;stroke-opacity:1;stroke-miterlimit:4;stroke-dasharray:none"
     d="M 350.37419,340.71499 C 356.43851,335.19931 361.91976,329.10056 366.79022,322.39101 C 375.83827,325.38889 379.97926,331.75778 384.50574,337.38354"
     id="path3169"
     sodipodi:nodetypes="ccc" />
  <path
     style="fill:none;fill-rule:evenodd;stroke:#000000;stroke-width:1;stroke-linecap:butt;stroke-linejoin:miter;stroke-opacity:1;stroke-miterlimit:4;stroke-dasharray:none"
     d="M 369.21474,339.42235 C 373.50455,348.33681 377.17942,357.99971 386.63179,366.26883"
     id="path3171"
     sodipodi:nodetypes="cc" />
  <path
     style="fill:none;fill-rule:evenodd;stroke:#000000;stroke-width:1;stroke-linecap:butt;stroke-linejoin:miter;stroke-opacity:1;stroke-miterlimit:4;stroke-dasharray:none"
     d="M 362.58865,342.99027 C 363.13864,350.80565 363.57559,358.62106 367.43079,366.43646"
     id="path3173"
     sodipodi:nodetypes="cc" />
  <path
     style="fill:none;fill-rule:evenodd;stroke:#000000;stroke-width:1;stroke-linecap:butt;stroke-linejoin:miter;stroke-opacity:1;stroke-miterlimit:4;stroke-dasharray:none"
     d="M 355.198,347.06785 C 354.48812,353.43911 354.85066,359.06417 356.17376,365.43544"
     id="path3175"
     sodipodi:nodetypes="cc" />
  <path
     style="fill:none;fill-rule:evenodd;stroke:#000000;stroke-width:1;stroke-linecap:butt;stroke-linejoin:miter;stroke-opacity:1;stroke-miterlimit:4;stroke-dasharray:none"
     d="M 352.90436,236.71782 C 357.82025,237.40393 361.87496,232.06166 366.15653,228.30775"
     id="path3177"
     sodipodi:nodetypes="cc" />
  <path
     style="fill:none;fill-rule:evenodd;stroke:#000000;stroke-width:1;stroke-linecap:butt;stroke-linejoin:miter;stroke-opacity:1;stroke-miterlimit:4;stroke-dasharray:none"
     d="M 362.07896,243.34392 L 357.74652,269.59344"
     id="path3179" />
  <path
     style="fill:none;fill-rule:evenodd;stroke:#000000;stroke-width:1;stroke-linecap:butt;stroke-linejoin:miter;stroke-opacity:1;stroke-miterlimit:4;stroke-dasharray:none"
     d="M 355.198,245.12787 C 352.16569,261.88428 335.69147,271.11326 347.80736,296.35269"
     id="path3181"
     sodipodi:nodetypes="cc" />
  <path
     style="fill:none;fill-rule:evenodd;stroke:#000000;stroke-width:1;stroke-linecap:butt;stroke-linejoin:miter;stroke-opacity:1;stroke-miterlimit:4;stroke-dasharray:none"
     d="M 357.49166,291.2557 C 359.38174,301.95944 361.29443,311.91691 366.51703,322.62063"
     id="path3183"
     sodipodi:nodetypes="cc" />
  <path
     style="fill:none;fill-rule:evenodd;stroke:#000000;stroke-width:1;stroke-linecap:butt;stroke-linejoin:miter;stroke-opacity:1;stroke-miterlimit:4;stroke-dasharray:none"
     d="M 355.70773,313.93735 C 355.84097,320.30861 356.00325,326.08292 358.82789,332.45417"
     id="path3185"
     sodipodi:nodetypes="cc" />
  <path
     style="fill:none;fill-rule:evenodd;stroke:#000000;stroke-width:1;stroke-linecap:butt;stroke-linejoin:miter;stroke-opacity:1;stroke-miterlimit:4;stroke-dasharray:none"
     d="M 347.04279,226.01411 C 349.84613,226.77716 352.64952,228.00629 355.45285,225.50442 C 358.72434,226.03765 361.6863,225.79703 363.60804,222.95592 C 367.65396,223.34898 368.74606,220.78823 370.16658,218.55589 C 375.2103,217.70325 373.50468,222.84078 378.14055,224.77061"
     id="path3187"
     sodipodi:nodetypes="ccccc" />
  <path
     style="fill:none;fill-rule:evenodd;stroke:#000000;stroke-width:1;stroke-linecap:butt;stroke-linejoin:miter;stroke-opacity:1;stroke-miterlimit:4;stroke-dasharray:none"
     d="M 355.73845,225.54122 C 349.91392,222.56637 351.52141,214.24936 352.56658,208.93919"
     id="path3189"
     sodipodi:nodetypes="cc" />
  <path
     style="fill:none;fill-rule:evenodd;stroke:#000000;stroke-width:1;stroke-linecap:butt;stroke-linejoin:miter;stroke-opacity:1;stroke-miterlimit:4;stroke-dasharray:none"
     d="M 363.59266,223.04489 C 357.56686,220.59649 358.24048,213.15481 359.46289,207.37324"
     id="path3191"
     sodipodi:nodetypes="cc" />
  <path
     style="fill:none;fill-rule:evenodd;stroke:#000000;stroke-width:1;stroke-linecap:butt;stroke-linejoin:miter;stroke-opacity:1;stroke-miterlimit:4;stroke-dasharray:none"
     d="M 370.48901,218.45153 C 361.8636,219.04488 362.19241,209.58498 368.19534,209.19399 C 375.21731,208.91194 382.82714,207.45428 385.2703,216.3298"
     id="path3193"
     sodipodi:nodetypes="ccc" />
  <path
     style="fill:none;fill-rule:evenodd;stroke:#000000;stroke-width:1;stroke-linecap:butt;stroke-linejoin:miter;stroke-opacity:1;stroke-miterlimit:4;stroke-dasharray:none"
     d="M 419.8059,198.82553 L 378.38935,209.19399"
     id="path3195"
     sodipodi:nodetypes="cc" />
  <path
     style="fill:none;fill-rule:evenodd;stroke:#000000;stroke-width:1;stroke-linecap:butt;stroke-linejoin:miter;stroke-opacity:1;stroke-miterlimit:4;stroke-dasharray:none"
     d="M 275.93443,234.65847 L 344.74914,217.60406"
     id="path3197"
     sodipodi:nodetypes="cc" />
  <path
     style="fill:none;fill-rule:evenodd;stroke:#000000;stroke-width:1px;stroke-linecap:butt;stroke-linejoin:miter;stroke-opacity:1"
     d="M 372.09716,204.30841 C 372.79777,204.65123 375.06397,205.73538 374.9345,208.63198"
     id="path3199"
     sodipodi:nodetypes="cc" />
  <path
     style="fill:none;fill-rule:evenodd;stroke:#000000;stroke-width:1px;stroke-linecap:butt;stroke-linejoin:miter;stroke-opacity:1"
     d="M 346.96641,225.92626 C 344.49278,222.37682 344.85512,216.88358 345.27752,212.07733"
     id="path3201"
     sodipodi:nodetypes="cc" />
  <path
     style="fill:none;fill-rule:evenodd;stroke:#000000;stroke-width:1px;stroke-linecap:butt;stroke-linejoin:miter;stroke-opacity:1"
     d="M 432.10028,211.19071 C 435.301,227.77188 436.35525,243.66225 435.00118,260.24342"
     id="path3203"
     sodipodi:nodetypes="cc" />
</svg>
