<?xml version="1.0" encoding="UTF-8"?>
<svg id="Capa_2" xmlns="http://www.w3.org/2000/svg" xmlns:xlink="http://www.w3.org/1999/xlink" viewBox="0 0 128.8999784 128.8999784">
  <defs>
    <style>
      .cls-1 {
        fill: none;
      }

      .cls-2 {
        fill: url(#Degradado_sin_nombre_115);
      }
    </style>
    <linearGradient id="Degradado_sin_nombre_115" data-name="Degradado sin nombre 115" x1="552.9901153" y1="-141.1400253" x2="658.1651085" y2="-141.1400253" gradientTransform="translate(-541.1276227 205.5900145)" gradientUnits="userSpaceOnUse">
      <stop offset="0" stop-color="#009fe3"/>
      <stop offset=".562286" stop-color="#0d67b4"/>
      <stop offset=".9911113" stop-color="#164194"/>
    </linearGradient>
  </defs>
  <g id="Capa_1-2" data-name="Capa_1">
    <g>
      <rect class="cls-1" y="0" width="128.8999784" height="128.8999784"/>
      <g>
        <path class="cls-2" d="M64.3657267,128.8993551c-14.6082558.0001265-29.2165179.0017711-43.8247737-.0008603-4.536284-.0008096-8.3767826-3.5412385-8.5316532-8.0904517-.1360842-3.9974755-.2606309-8.020746.0306591-12.0018135.530168-7.245849,3.0754882-13.8139842,7.5766727-19.5587067,5.6277093-7.182494,12.9674713-11.6619888,21.8751873-13.5207396,2.0747562-.4329216,4.2274347-.6721475,6.346127-.6846971,11.1543771-.0661129,22.3109996-.1486844,33.4635929.0071856,8.4982615.1187653,16.0231863,3.1341371,22.5386184,8.5942555,6.4126826,5.3740173,10.5114781,12.1900568,12.2487563,20.3545154.5543689,2.6053354.7928737,5.3041092.9006329,7.9712436.120878,2.9924486-.0095134,6.000154-.1406132,8.9963852-.1662183,3.7989851-2.9377088,6.9331349-6.7139605,7.712447-.7356417.1518091-1.5026572.211546-2.2552888.2121785-14.5046397.0120309-29.0093048.0089188-43.5139572.0090579ZM64.4691973,123.097603c14.4369708,0,28.8740302-.0262377,43.3107986.0283377,2.1611545.0081597,3.4753281-1.3959734,3.4455988-3.4398174-.0401662-2.7624704.0744244-5.5294193-.038939-8.2878162-.0844185-2.05399-.2505356-4.1351411-.683179-6.1387937-1.5572832-7.2122359-5.2644238-13.1398885-11.059547-17.7232333-5.4894176-4.3415635-11.7850048-6.6133869-18.7513605-6.691265-10.8781857-.1216118-21.7589394-.0674792-32.6380486.0001645-1.9776173.0122965-3.9868805.2887789-5.9226934.7122757-7.1615823,1.5667333-13.0985711,5.1925169-17.6846358,10.942363-4.0354911,5.0595574-6.3270307,10.827279-6.6344947,17.2987497-.157173,3.3081483-.0404571,6.6296811-.0329363,9.9451542.0050287,2.2170076,1.1608463,3.3537163,3.3785245,3.3537922,14.4369708.000506,28.8739416.0002657,43.3109125.0000886Z"/>
        <path class="cls-2" d="M29.7303003,35.2370157C29.2079188,15.7260909,44.9474624.4338528,63.3412682.0101441c20.4387947-.4708138,35.5001438,15.5156726,35.901097,33.6701261.4393482,19.8931865-15.1264119,35.5401265-34.1869823,35.8261855-19.817769.2974194-35.1195141-15.6618237-35.3250826-34.26944ZM93.4330732,34.6265533c-.1149195-16.501423-13.1939958-28.3873586-28.2229336-28.7399448-16.9304608-.3971959-29.3863101,12.6386907-29.7226432,27.9195114-.3791433,17.2255841,13.3999564,29.7807481,28.5811904,29.9839762,15.8294652.2119318,29.3011704-12.6358695,29.3643863-29.1635428Z"/>
      </g>
    </g>
  </g>
</svg>