<?xml version="1.0" encoding="UTF-8"?>
<svg id="Capa_2" data-name="Capa 2" xmlns="http://www.w3.org/2000/svg" viewBox="0 0 688.82 623.49">
  <g id="Capa_1-2" data-name="Capa 1">
    <path d="M685.95,441.31c-64.93,35-135.19,33.88-205.51,17.79-120.16-27.5-221.67-86.27-348.59-35.73-5.28,2.1-16.08,9.64-20.85,6.63l-1.22-309.76c1.33-2.97,24.05-12.14,28.6-13.83,39.07-14.43,84.72-18.77,126.28-17,133.04,5.66,265.84,100.06,399.26,41.93,5.08-2.21,16.9-10.64,21.23-8.49,1.28.63,1.84,1.89,2.09,3.23,1.1,5.83-.28,15.76-.01,22.29,3.79,94.72-.64,190.18,1.16,285.32l-2.44,7.63ZM651.06,168.51c-64.34,30.64-121.19,16.04-197.62-4.6-86.41-23.33-106.82-37.9-200.68-41.36-45.96-1.69-82.68,5.74-108.77,18.38l3.06,235.91c42.72-19.64,94.98-13.79,137.87-7.43,116.31,17.25,157.79,64.91,278.81,62.57,26.94-.52,69.44-9.92,92.91-23.07l-5.59-240.42Z"/>
    <path d="M27.57,623.49h48.45V115.36H27.57v508.13Z"/>
    <path d="M50.38,0L0,89.09s35.31,1.53,36.92,18.55c1.69,17.77-1.42,23.39-1.42,23.39h29.11s-2.22-8.42-.09-23.42c2.13-15,34.79-18.53,34.79-18.53L50.38,0Z"/>
  </g>
</svg>