<?xml version="1.0" encoding="UTF-8"?>
<svg id="Capa_2" xmlns="http://www.w3.org/2000/svg" xmlns:xlink="http://www.w3.org/1999/xlink" viewBox="0 0 129.8999784 128.8999784">
  <defs>
    <style>
      .cls-1 {
        fill: url(#Degradado_sin_nombre_115-10);
      }

      .cls-2 {
        stroke: url(#Degradado_sin_nombre_115-2);
      }

      .cls-2, .cls-3, .cls-4, .cls-5, .cls-6, .cls-7, .cls-8, .cls-9 {
        fill: none;
      }

      .cls-2, .cls-3, .cls-5, .cls-6, .cls-7, .cls-8, .cls-9 {
        stroke-miterlimit: 10;
      }

      .cls-10 {
        fill: url(#Degradado_sin_nombre_115-11);
      }

      .cls-11 {
        fill: url(#Degradado_sin_nombre_115-9);
      }

      .cls-3 {
        stroke: url(#Degradado_sin_nombre_115);
      }

      .cls-12 {
        fill: url(#Degradado_sin_nombre_115-8);
      }

      .cls-13 {
        fill: url(#Degradado_sin_nombre_115-14);
      }

      .cls-5 {
        stroke: url(#Degradado_sin_nombre_115-5);
      }

      .cls-6 {
        stroke: url(#Degradado_sin_nombre_115-4);
      }

      .cls-7 {
        stroke: url(#Degradado_sin_nombre_115-7);
      }

      .cls-14 {
        fill: url(#Degradado_sin_nombre_115-12);
      }

      .cls-8 {
        stroke: url(#Degradado_sin_nombre_115-6);
      }

      .cls-9 {
        stroke: url(#Degradado_sin_nombre_115-3);
      }

      .cls-15 {
        fill: url(#Degradado_sin_nombre_115-13);
      }
    </style>
    <linearGradient id="Degradado_sin_nombre_115" data-name="Degradado sin nombre 115" x1="0" y1="64.4499892" x2="129.8999784" y2="64.4499892" gradientUnits="userSpaceOnUse">
      <stop offset="0" stop-color="#009fe3"/>
      <stop offset=".562286" stop-color="#0d67b4"/>
      <stop offset=".9911113" stop-color="#164194"/>
    </linearGradient>
    <linearGradient id="Degradado_sin_nombre_115-2" data-name="Degradado sin nombre 115" x1="82.8073088" y1="70.8696862" x2="110.5580526" y2="70.8696862" xlink:href="#Degradado_sin_nombre_115"/>
    <linearGradient id="Degradado_sin_nombre_115-3" data-name="Degradado sin nombre 115" x1="19.637379" y1="70.857511" x2="47.2012351" y2="70.857511" xlink:href="#Degradado_sin_nombre_115"/>
    <linearGradient id="Degradado_sin_nombre_115-4" data-name="Degradado sin nombre 115" x1="51.3247305" y1="70.8582922" x2="78.7188806" y2="70.8582922" xlink:href="#Degradado_sin_nombre_115"/>
    <linearGradient id="Degradado_sin_nombre_115-5" data-name="Degradado sin nombre 115" x1="19.618512" y1="98.9537604" x2="47.2168071" y2="98.9537604" xlink:href="#Degradado_sin_nombre_115"/>
    <linearGradient id="Degradado_sin_nombre_115-6" data-name="Degradado sin nombre 115" x1="51.3256826" y1="98.9666498" x2="78.6887015" y2="98.9666498" xlink:href="#Degradado_sin_nombre_115"/>
    <linearGradient id="Degradado_sin_nombre_115-7" data-name="Degradado sin nombre 115" x1="83.6628426" y1="99.2312433" x2="109.1859188" y2="99.2312433" xlink:href="#Degradado_sin_nombre_115"/>
    <linearGradient id="Degradado_sin_nombre_115-8" data-name="Degradado sin nombre 115" x1="541.6276227" y1="-141.1400253" x2="670.5276011" y2="-141.1400253" gradientTransform="translate(-541.1276227 205.5900145)" xlink:href="#Degradado_sin_nombre_115"/>
    <linearGradient id="Degradado_sin_nombre_115-9" data-name="Degradado sin nombre 115" x1="541.6276227" y1="-141.1400253" x2="670.5276011" y2="-141.1400253" gradientTransform="translate(-541.1276227 205.5900145)" xlink:href="#Degradado_sin_nombre_115"/>
    <linearGradient id="Degradado_sin_nombre_115-10" data-name="Degradado sin nombre 115" x1="541.6276227" y1="-141.1400253" x2="670.5276011" y2="-141.1400253" gradientTransform="translate(-541.1276227 205.5900145)" xlink:href="#Degradado_sin_nombre_115"/>
    <linearGradient id="Degradado_sin_nombre_115-11" data-name="Degradado sin nombre 115" x1="541.6276227" y1="-141.1400253" x2="670.5276011" y2="-141.1400253" gradientTransform="translate(-541.1276227 205.5900145)" xlink:href="#Degradado_sin_nombre_115"/>
    <linearGradient id="Degradado_sin_nombre_115-12" data-name="Degradado sin nombre 115" x1="541.6276227" y1="-141.1400253" x2="670.5276011" y2="-141.1400253" gradientTransform="translate(-541.1276227 205.5900145)" xlink:href="#Degradado_sin_nombre_115"/>
    <linearGradient id="Degradado_sin_nombre_115-13" data-name="Degradado sin nombre 115" x1="541.6276227" y1="-141.1400253" x2="670.5276011" y2="-141.1400253" gradientTransform="translate(-541.1276227 205.5900145)" xlink:href="#Degradado_sin_nombre_115"/>
    <linearGradient id="Degradado_sin_nombre_115-14" data-name="Degradado sin nombre 115" x1="541.6276227" y1="-141.1400253" x2="670.5276011" y2="-141.1400253" gradientTransform="translate(-541.1276227 205.5900145)" xlink:href="#Degradado_sin_nombre_115"/>
  </defs>
  <g id="Capa_1-2" data-name="Capa_1">
    <g>
      <rect class="cls-4" x=".5" width="128.8999784" height="128.8999784"/>
      <g>
        <g>
          <path class="cls-3" d="M28.2610035,17.2658276c.1797145-2.1128727.2620679-4.0912578.5322989-6.0436338.5298626-3.8281663,3.8432524-7.3278388,7.7010289-8.106589,3.5713322-.7209207,6.9154406-.2249853,9.7849947,2.2438533,2.6315863,2.264101,3.7526165,5.1806465,3.7473733,8.5919091-.0016263,1.0579544-.0002575,2.1159119-.0002575,3.2439687h29.7869895c0-1.1882222.0487904-2.4091253-.0087534-3.6249891-.2094659-4.4261753,2.6156054-8.3219481,6.1171994-9.8056505,4.435318-1.8793412,9.1819779-1.0064073,12.3640795,2.2714478,1.8737903,1.9301724,2.8294543,4.2930064,2.9169756,6.9818225.0444702,1.366436.0077738,2.7355155.0077738,4.2478894.4148378,0,.7764519-.0000126,1.1380535,0,5.8290785.0001947,11.659752.0851352,17.4867332-.0251079,5.037845-.0953077,9.1598621,4.0354408,9.3925867,8.2852422.0389319.7110904.164192,1.420209.1644055,2.1302633.0085776,29.5911183.0078115,59.1822366.0070705,88.7733612-.000113,4.5292945-2.5306586,8.0046158-6.8349395,9.3151751-.73698.2243982-1.5344552.3522956-2.3040752.3526473-36.9974582.0167407-73.9949289.016163-110.9923997.0124456-4.6189288-.0004647-8.7088271-4.2341785-8.7174832-9.0326679-.0142855-7.920636-.0074316-15.8413222-.007306-23.7619833.0003422-22.1161579.0569064-44.2325607-.043252-66.3482539-.0202571-4.473308,3.0372908-8.7899718,7.6582855-9.5725743.4013874-.06798.811095-.1221644,1.2170161-.1227107,5.9319245-.0079591,11.863871-.0056985,17.7958113-.005868.3716548-.0000094.7433096.0000031,1.0897906.0000031ZM6.475286,50.8368209c0,13.1217876-.0002229,26.1521983.0000848,39.1826028.0002041,8.7099605-.0052621,17.4199336.0056985,26.1298816.0032966,2.6214326,1.5007352,4.2015636,3.9557718,4.201752,36.4515802.0027378,72.9031509.0024364,109.3547342-.0002512,2.060098-.0001507,3.6657985-1.6342714,3.6657985-3.706589-.0000251-21.5004945-.0009545-43.0009891-.0016201-64.5014899-.0000126-.4284953,0-.8569969,0-1.3059063H6.475286ZM123.3730173,44.8435504c.0343354-.1517463.0748245-.2472361.0748622-.3427448.0019215-6.1037239.0108256-12.2075043-.0203325-18.3110775-.0024489-.4794333-.1939309-1.0168687-.45652-1.4251006-.8244637-1.2817058-2.0591812-1.7871543-3.5739947-1.7815783-5.7609101.0212053-11.5219583.0101034-17.2829437.0110705-.2652515.000044-.5304905,0-.7991078,0-.1013484,1.9547748-.0577699,3.8379589-.3201078,5.6775143-.8892915,6.2358159-6.9491355,9.9051811-12.6111837,8.6078523-5.375447-1.2316595-8.5690523-5.4554897-8.5699314-10.9632422-.0001758-1.0851753-.0000251-2.1703505-.0000251-3.2555007h-29.6017115c-.180895,2.2475424-.0438674,4.5021301-.5895727,6.5771792-1.5865548,6.0329182-7.6099598,9.0899355-13.3069337,7.4944891-5.7431898-1.608388-8.3397814-6.8757866-7.7831563-12.1245167.0671575-.6332455.009149-1.2797655.009149-1.9486085-.1957833-.0261848-.325891-.0587557-.4560113-.0588122-6.0352415-.0026373-12.0706023-.0247468-18.1056492.0096827-2.0759125.0118365-3.4743166,1.4949519-3.4878517,3.608757-.0258991,4.0462318-.0146717,8.0927085-.0176386,12.1390847-.0014756,2.012507-.0002606,4.0250139-.0002606,6.0855515h116.8989212ZM44.0106475,20.1063366c0-2.2289744-.1434827-4.4697664.038913-6.6837144.1965305-2.3855213-1.9783097-4.6709217-4.696444-4.7949448-2.7196476-.1240827-4.9792275,2.112587-4.9975568,4.9782291-.0280749,4.3891869-.0276416,8.7787789-.0014442,13.1679689.0089983,1.508622.6179114,2.7962618,1.8207173,3.7299544,1.5919299,1.2357474,3.3625821,1.4469401,5.1791363.5944581,1.7020254-.7987247,2.6926967-2.1168757,2.6646344-4.0993863-.0325207-2.2970988-.0075666-4.5950077-.0079559-6.892565ZM85.7785956,19.9624458c0,2.3631135-.0017833,4.7262269.0004772,7.0893404.0024238,2.51999,1.9728404,4.4135539,4.6035539,4.4282098,2.6675229.0148569,4.8601651-1.9898386,4.8623126-4.4580743.0041569-4.7604744.0039057-9.5209551.0001884-14.2814295-.0018461-2.3629376-2.2123593-4.4193371-4.8011017-4.4782122-2.3474277-.05339-4.6623912,2.1816282-4.6647774,4.5080735-.0024615,2.3973609-.0005275,4.7947313-.0006531,7.1920922Z"/>
          <path class="cls-2" d="M96.7685438,58.8297194c3.3935016-.0000879,6.7870031-.0027127,10.1805047.0010549,1.6124319.0017896,2.4081865.5826655,2.7777503,2.1284046.1797396.7517616.3041708,1.5365587.3085412,2.3072148.0279179,4.9358561.0320497,9.8720388.0014066,14.8078572-.0056514.908883-.1462582,1.8288554-.3301547,2.7219773-.2817662,1.3684422-1.1092816,2.088669-2.49297,2.0935543-6.9925884.0246903-13.9854406.0344861-20.9779034-.0033783-1.8492883-.0100093-2.9158579-1.3476074-2.9203414-3.4723323-.0110014-5.2102001-.0118051-10.420463.0041946-15.6306381.0024992-.8132865.0752641-1.6315462.1842105-2.4382331.2326367-1.7225714,1.14265-2.508593,2.8785712-2.512863,3.4620467-.0085148,6.9241312-.0025243,10.3861905-.0026185ZM89.3457709,64.7998442v12.295798h14.7547215v-12.295798h-14.7547215Z"/>
          <path class="cls-9" d="M32.9950105,82.9017761c-3.425928.0001005-6.8521323-.024502-10.2776271.0140029-1.1328291.0127345-1.8347014-.4825164-2.1219055-1.5135827-.225001-.8076853-.4279113-1.6543151-.4335565-2.4850455-.0375002-5.5154887-.0220405-11.0313604-.0176324-16.5471065.0018712-2.3348627.8997152-3.6066032,3.5813164-3.5702836,6.6793377.0904726,13.3607224.028527,20.0412846.0301596,1.9885136.0004898,2.9221498.8655054,2.9268907,2.8323616.0149511,6.200143.0063861,12.4004054-.016546,18.6005422-.0061914,1.6741577-1.1367223,2.6247732-3.0961312,2.6341169-3.5286265.0168161-7.0573849.0047346-10.586093.0048351ZM25.8695389,64.8143244v12.2499966h14.9549945v-12.2499966h-14.9549945Z"/>
          <path class="cls-6" d="M64.8558121,82.9017635c-3.3240835.000113-6.6481671.0023861-9.9722506-.0007158-2.0620886-.0019215-3.0511461-.9983384-3.0523643-3.0818709-.0033406-5.688635-.0017582-11.3772762-.0003705-17.0659175.0000691-.2736847-.0271016-.5574226.0327279-.8195093.5902383-2.5855525,1.3032313-3.1440237,3.7957304-3.1223726,6.3050016.0547746,12.6111147.0547118,18.9161288.0005275,2.5806923-.0221786,3.464345.6623941,3.5729146,3.6875815.1351187,3.764767.0344359,7.5379923.0353401,11.3075694.0004898,1.9875969.004923,3.9752063-.0005651,5.9627906-.0058649,2.1185837-.9962662,3.117437-3.149449,3.1275593-3.3925471.0159621-6.7852198.0042448-10.1778422.0043579ZM72.3715945,64.8071031h-14.724901v12.2702035h14.724901v-12.2702035Z"/>
          <path class="cls-5" d="M33.7616479,87.0182171c3.3938658.000113,6.7895651.0671763,10.180894-.0256825,1.9538957-.0534999,2.7577569,1.2566827,2.762479,2.5768619.0225868,6.3074003.0129103,12.6151146-.0307562,18.9224019-.0091301,1.3178308-1.153419,2.4084879-2.4634823,2.4117783-7.0961848.0178082-14.1925204.0204078-21.2886236-.0120438-1.6164318-.0073971-2.7475153-1.341416-2.7633141-3.3319641-.0448972-5.6560829-.0648592-11.3133966.0075792-16.9689143.0321816-2.5126746,1.2855613-3.5719602,3.8250047-3.5724123,3.2567377-.0005651,6.5134817-.0001381,9.7702194-.0000251ZM40.8485832,105.2875308v-12.4254411h-14.8902169v12.4254411h14.8902169Z"/>
          <path class="cls-8" d="M65.2434604,110.9114007c-3.2906461.0013689-6.5812985.0058649-9.8719383-.0002135-2.1589473-.0039937-3.5337128-1.3509103-3.5378571-3.5010163-.0111647-5.7928844-.0099339-11.5858065-.0005463-17.3787035.0031145-1.9231584,1.1321196-3.011354,3.0801378-3.0117684,6.8555106-.0014568,13.7110212-.0013187,20.5665319-.0001381,1.7151743.0002888,2.6801318.879119,2.6878177,2.6045412.0277798,6.2382021.0265616,12.4766428.005463,18.7148825-.0049858,1.4768486-1.186957,2.5560648-2.7492421,2.5650316-3.3933509.0194534-6.7869026.0060156-10.1803665.0073845ZM57.6343797,105.2579677h14.8928794v-12.4232308h-14.8928794v12.4232308Z"/>
          <path class="cls-7" d="M96.4236326,87.17299c6.181776-.1539315,11.5484696,4.5055335,12.1704751,10.3445334.9124874,8.5657494-5.1368575,13.3030531-11.0305252,13.7355483-7.4580878.5473317-13.0265866-4.5655137-13.3843076-11.5654238-.3313101-6.4828072,4.3677524-12.4971762,12.2443577-12.5146578ZM102.8583276,99.1530382c.0385174-3.4224367-2.787546-6.4470401-6.0769488-6.4584936-3.9349432-.0136889-6.6737365,2.6656391-6.6260262,6.3813834.0487025,3.7919377,2.6136462,6.348869,6.4514607,6.3478518,3.3599322-.0008917,6.0345006-2.4104596,6.2515143-6.2707416Z"/>
        </g>
        <g>
          <path class="cls-12" d="M28.2610035,17.2658276c.1797145-2.1128727.2620679-4.0912578.5322989-6.0436338.5298626-3.8281663,3.8432524-7.3278388,7.7010289-8.106589,3.5713322-.7209207,6.9154406-.2249853,9.7849947,2.2438533,2.6315863,2.264101,3.7526165,5.1806465,3.7473733,8.5919091-.0016263,1.0579544-.0002575,2.1159119-.0002575,3.2439687h29.7869895c0-1.1882222.0487904-2.4091253-.0087534-3.6249891-.2094659-4.4261753,2.6156054-8.3219481,6.1171994-9.8056505,4.435318-1.8793412,9.1819779-1.0064073,12.3640795,2.2714478,1.8737903,1.9301724,2.8294543,4.2930064,2.9169756,6.9818225.0444702,1.366436.0077738,2.7355155.0077738,4.2478894.4148378,0,.7764519-.0000126,1.1380535,0,5.8290785.0001947,11.659752.0851352,17.4867332-.0251079,5.037845-.0953077,9.1598621,4.0354408,9.3925867,8.2852422.0389319.7110904.164192,1.420209.1644055,2.1302633.0085776,29.5911183.0078115,59.1822366.0070705,88.7733612-.000113,4.5292945-2.5306586,8.0046158-6.8349395,9.3151751-.73698.2243982-1.5344552.3522956-2.3040752.3526473-36.9974582.0167407-73.9949289.016163-110.9923997.0124456-4.6189288-.0004647-8.7088271-4.2341785-8.7174832-9.0326679-.0142855-7.920636-.0074316-15.8413222-.007306-23.7619833.0003422-22.1161579.0569064-44.2325607-.043252-66.3482539-.0202571-4.473308,3.0372908-8.7899718,7.6582855-9.5725743.4013874-.06798.811095-.1221644,1.2170161-.1227107,5.9319245-.0079591,11.863871-.0056985,17.7958113-.005868.3716548-.0000094.7433096.0000031,1.0897906.0000031ZM6.475286,50.8368209c0,13.1217876-.0002229,26.1521983.0000848,39.1826028.0002041,8.7099605-.0052621,17.4199336.0056985,26.1298816.0032966,2.6214326,1.5007352,4.2015636,3.9557718,4.201752,36.4515802.0027378,72.9031509.0024364,109.3547342-.0002512,2.060098-.0001507,3.6657985-1.6342714,3.6657985-3.706589-.0000251-21.5004945-.0009545-43.0009891-.0016201-64.5014899-.0000126-.4284953,0-.8569969,0-1.3059063H6.475286ZM123.3730173,44.8435504c.0343354-.1517463.0748245-.2472361.0748622-.3427448.0019215-6.1037239.0108256-12.2075043-.0203325-18.3110775-.0024489-.4794333-.1939309-1.0168687-.45652-1.4251006-.8244637-1.2817058-2.0591812-1.7871543-3.5739947-1.7815783-5.7609101.0212053-11.5219583.0101034-17.2829437.0110705-.2652515.000044-.5304905,0-.7991078,0-.1013484,1.9547748-.0577699,3.8379589-.3201078,5.6775143-.8892915,6.2358159-6.9491355,9.9051811-12.6111837,8.6078523-5.375447-1.2316595-8.5690523-5.4554897-8.5699314-10.9632422-.0001758-1.0851753-.0000251-2.1703505-.0000251-3.2555007h-29.6017115c-.180895,2.2475424-.0438674,4.5021301-.5895727,6.5771792-1.5865548,6.0329182-7.6099598,9.0899355-13.3069337,7.4944891-5.7431898-1.608388-8.3397814-6.8757866-7.7831563-12.1245167.0671575-.6332455.009149-1.2797655.009149-1.9486085-.1957833-.0261848-.325891-.0587557-.4560113-.0588122-6.0352415-.0026373-12.0706023-.0247468-18.1056492.0096827-2.0759125.0118365-3.4743166,1.4949519-3.4878517,3.608757-.0258991,4.0462318-.0146717,8.0927085-.0176386,12.1390847-.0014756,2.012507-.0002606,4.0250139-.0002606,6.0855515h116.8989212ZM44.0106475,20.1063366c0-2.2289744-.1434827-4.4697664.038913-6.6837144.1965305-2.3855213-1.9783097-4.6709217-4.696444-4.7949448-2.7196476-.1240827-4.9792275,2.112587-4.9975568,4.9782291-.0280749,4.3891869-.0276416,8.7787789-.0014442,13.1679689.0089983,1.508622.6179114,2.7962618,1.8207173,3.7299544,1.5919299,1.2357474,3.3625821,1.4469401,5.1791363.5944581,1.7020254-.7987247,2.6926967-2.1168757,2.6646344-4.0993863-.0325207-2.2970988-.0075666-4.5950077-.0079559-6.892565ZM85.7785956,19.9624458c0,2.3631135-.0017833,4.7262269.0004772,7.0893404.0024238,2.51999,1.9728404,4.4135539,4.6035539,4.4282098,2.6675229.0148569,4.8601651-1.9898386,4.8623126-4.4580743.0041569-4.7604744.0039057-9.5209551.0001884-14.2814295-.0018461-2.3629376-2.2123593-4.4193371-4.8011017-4.4782122-2.3474277-.05339-4.6623912,2.1816282-4.6647774,4.5080735-.0024615,2.3973609-.0005275,4.7947313-.0006531,7.1920922Z"/>
          <path class="cls-11" d="M96.7685438,58.8297194c3.3935016-.0000879,6.7870031-.0027127,10.1805047.0010549,1.6124319.0017896,2.4081865.5826655,2.7777503,2.1284046.1797396.7517616.3041708,1.5365587.3085412,2.3072148.0279179,4.9358561.0320497,9.8720388.0014066,14.8078572-.0056514.908883-.1462582,1.8288554-.3301547,2.7219773-.2817662,1.3684422-1.1092816,2.088669-2.49297,2.0935543-6.9925884.0246903-13.9854406.0344861-20.9779034-.0033783-1.8492883-.0100093-2.9158579-1.3476074-2.9203414-3.4723323-.0110014-5.2102001-.0118051-10.420463.0041946-15.6306381.0024992-.8132865.0752641-1.6315462.1842105-2.4382331.2326367-1.7225714,1.14265-2.508593,2.8785712-2.512863,3.4620467-.0085148,6.9241312-.0025243,10.3861905-.0026185ZM89.3457709,64.7998442v12.295798h14.7547215v-12.295798h-14.7547215Z"/>
          <path class="cls-1" d="M32.9950105,82.9017761c-3.425928.0001005-6.8521323-.024502-10.2776271.0140029-1.1328291.0127345-1.8347014-.4825164-2.1219055-1.5135827-.225001-.8076853-.4279113-1.6543151-.4335565-2.4850455-.0375002-5.5154887-.0220405-11.0313604-.0176324-16.5471065.0018712-2.3348627.8997152-3.6066032,3.5813164-3.5702836,6.6793377.0904726,13.3607224.028527,20.0412846.0301596,1.9885136.0004898,2.9221498.8655054,2.9268907,2.8323616.0149511,6.200143.0063861,12.4004054-.016546,18.6005422-.0061914,1.6741577-1.1367223,2.6247732-3.0961312,2.6341169-3.5286265.0168161-7.0573849.0047346-10.586093.0048351ZM25.8695389,64.8143244v12.2499966h14.9549945v-12.2499966h-14.9549945Z"/>
          <path class="cls-10" d="M64.8558121,82.9017635c-3.3240835.000113-6.6481671.0023861-9.9722506-.0007158-2.0620886-.0019215-3.0511461-.9983384-3.0523643-3.0818709-.0033406-5.688635-.0017582-11.3772762-.0003705-17.0659175.0000691-.2736847-.0271016-.5574226.0327279-.8195093.5902383-2.5855525,1.3032313-3.1440237,3.7957304-3.1223726,6.3050016.0547746,12.6111147.0547118,18.9161288.0005275,2.5806923-.0221786,3.464345.6623941,3.5729146,3.6875815.1351187,3.764767.0344359,7.5379923.0353401,11.3075694.0004898,1.9875969.004923,3.9752063-.0005651,5.9627906-.0058649,2.1185837-.9962662,3.117437-3.149449,3.1275593-3.3925471.0159621-6.7852198.0042448-10.1778422.0043579ZM72.3715945,64.8071031h-14.724901v12.2702035h14.724901v-12.2702035Z"/>
          <path class="cls-14" d="M33.7616479,87.0182171c3.3938658.000113,6.7895651.0671763,10.180894-.0256825,1.9538957-.0534999,2.7577569,1.2566827,2.762479,2.5768619.0225868,6.3074003.0129103,12.6151146-.0307562,18.9224019-.0091301,1.3178308-1.153419,2.4084879-2.4634823,2.4117783-7.0961848.0178082-14.1925204.0204078-21.2886236-.0120438-1.6164318-.0073971-2.7475153-1.341416-2.7633141-3.3319641-.0448972-5.6560829-.0648592-11.3133966.0075792-16.9689143.0321816-2.5126746,1.2855613-3.5719602,3.8250047-3.5724123,3.2567377-.0005651,6.5134817-.0001381,9.7702194-.0000251ZM40.8485832,105.2875308v-12.4254411h-14.8902169v12.4254411h14.8902169Z"/>
          <path class="cls-15" d="M65.2434604,110.9114007c-3.2906461.0013689-6.5812985.0058649-9.8719383-.0002135-2.1589473-.0039937-3.5337128-1.3509103-3.5378571-3.5010163-.0111647-5.7928844-.0099339-11.5858065-.0005463-17.3787035.0031145-1.9231584,1.1321196-3.011354,3.0801378-3.0117684,6.8555106-.0014568,13.7110212-.0013187,20.5665319-.0001381,1.7151743.0002888,2.6801318.879119,2.6878177,2.6045412.0277798,6.2382021.0265616,12.4766428.005463,18.7148825-.0049858,1.4768486-1.186957,2.5560648-2.7492421,2.5650316-3.3933509.0194534-6.7869026.0060156-10.1803665.0073845ZM57.6343797,105.2579677h14.8928794v-12.4232308h-14.8928794v12.4232308Z"/>
          <path class="cls-13" d="M96.4236326,87.17299c6.181776-.1539315,11.5484696,4.5055335,12.1704751,10.3445334.9124874,8.5657494-5.1368575,13.3030531-11.0305252,13.7355483-7.4580878.5473317-13.0265866-4.5655137-13.3843076-11.5654238-.3313101-6.4828072,4.3677524-12.4971762,12.2443577-12.5146578ZM102.8583276,99.1530382c.0385174-3.4224367-2.787546-6.4470401-6.0769488-6.4584936-3.9349432-.0136889-6.6737365,2.6656391-6.6260262,6.3813834.0487025,3.7919377,2.6136462,6.348869,6.4514607,6.3478518,3.3599322-.0008917,6.0345006-2.4104596,6.2515143-6.2707416Z"/>
        </g>
      </g>
    </g>
  </g>
</svg>