<?xml version="1.0" encoding="UTF-8"?>
<svg xmlns="http://www.w3.org/2000/svg" version="1.1" viewBox="0 0 174.6 116.4">
  <defs>
    <style>
      .cls-1 {
        fill: #e5262a;
      }

      .cls-2 {
        fill: #f4e600;
      }
    </style>
  </defs>
  <!-- Generator: Adobe Illustrator 28.7.6, SVG Export Plug-In . SVG Version: 1.2.0 Build 188)  -->
  <g>
    <g id="Capa_2">
      <path class="cls-1" d="M0,0h174.6v116.4H0"/>
      <path id="a" class="cls-2" d="M32,12.6l12,37.1L12.5,26.7h39l-31.5,22.9S32,12.6,32,12.6Z"/>
      <path id="a-2" class="cls-2" d="M68.8,6.3l-1.1,12.9-6.7-11.1,12,5.1-12.7,2.9s8.5-9.8,8.5-9.8Z"/>
      <path id="a-3" class="cls-2" d="M84.7,21.5l-6.1,11.5-1.8-12.9,9.1,9.3-12.8-2.2s11.7-5.7,11.7-5.7Z"/>
      <path id="a-4" class="cls-2" d="M86.2,44.4l-10.2,8,3.6-12.5,4.5,12.2-10.8-7.3,13-.5Z"/>
      <path id="a-5" class="cls-2" d="M68.6,54l-.6,13-7.1-10.9,12.2,4.6-12.5,3.4s8.1-10.1,8.1-10.1Z"/>
    </g>
  </g>
</svg>