<?xml version="1.0" encoding="UTF-8"?>
<svg id="Capa_2" xmlns="http://www.w3.org/2000/svg" xmlns:xlink="http://www.w3.org/1999/xlink" viewBox="0 0 128.8999784 128.8999784">
  <defs>
    <style>
      .cls-1 {
        fill: none;
      }

      .cls-2 {
        fill: url(#Degradado_sin_nombre_115);
      }
    </style>
    <linearGradient id="Degradado_sin_nombre_115" data-name="Degradado sin nombre 115" x1="0" y1="64.4499892" x2="128.8999784" y2="64.4499892" gradientUnits="userSpaceOnUse">
      <stop offset="0" stop-color="#009fe3"/>
      <stop offset=".562286" stop-color="#0d67b4"/>
      <stop offset=".9911113" stop-color="#164194"/>
    </linearGradient>
  </defs>
  <g id="Capa_1-2" data-name="Capa_1">
    <g>
      <rect class="cls-1" x="0" width="128.8999784" height="128.8999784"/>
      <path class="cls-2" d="M64.5784546,20.2138692c19.1903462.0002371,38.3807289.0151562,57.5710264-.0135877,3.434476-.0051493,6.7604938,2.7996249,6.7504748,6.6868347-.0635915,24.6679818-.0178251,49.3362372-.0177156,74.0044014.0000243,4.8743918-2.9606038,7.7947129-7.8895652,7.7953087-37.6169864.0045475-75.2339789-.0025291-112.8509684.0128764-3.3654433.001374-6.0510474-1.1093738-7.4750927-4.324757-.4029914-.9099542-.6343556-1.9766257-.6357813-2.9718752C-.0044436,76.8011241-.0054436,52.199117.0079434,27.5971402c.0022038-4.0528273,1.8167471-6.3905445,5.5220281-7.2663867.4122717-.0974543.8514999-.1124706,1.2782408-.1125861,19.2567495-.0052466,38.5134959-.0045414,57.7702423-.0042982ZM10.9998314,25.775718c-.0978464.1339616-.1956928.2679233-.2935362.4018849.3251617.2104903.6828639.3840051.970509.6371309,3.2622591,2.8707307,6.5150738,5.7522038,9.7679249,8.63361,5.5621041,4.9269551,11.1194905,9.8592298,16.6843486,14.7830722,5.4392679,4.8127214,10.8705596,9.6346351,16.3350574,14.4185884,2.5435445,2.2267725,5.113626,4.4281084,7.7556461,6.5357228,1.5998734,1.2762802,3.3293251,1.2044084,4.8960348-.1160818,3.4727768-2.9270085,6.9074352-5.8999719,10.3264571-8.8898546,5.867088-5.1306911,11.7427237-10.2523967,17.55523-15.4445333,6.9281055-6.1886506,13.7940177-12.4469479,20.6853787-18.6767263.7711229-.6970869,1.5325065-1.4049527,2.4890783-2.2828133H10.9998314ZM118.3578712,103.0532152c-.1636235-.2139982-.2268624-.3199759-.3116591-.4042985-4.7081785-4.6813193-9.4161867-9.3627966-14.1283898-14.0400426-7.185876-7.132571-14.3744026-14.2624305-21.5627712-21.3924724q-1.0268264-1.0184975-2.1382064-.0478699c-2.8436465,2.4930543-5.816689,4.8559466-8.4962135,7.5145577-3.7751586,3.7456974-10.4784019,3.5739031-14.0349845.0857817-2.8812482-2.8257728-6.1303361-5.274994-9.1881875-7.923659-.5220582-.4521927-.8244218-.4324952-1.3098451.0402949-3.2338406,3.1496639-6.5226944,6.2430682-9.7440477,9.4052923-8.836276,8.6740751-17.6484165,17.3727479-26.4671562,26.0646724-.1739343.1714296-.3116774.3795792-.5692382.6977434h107.9506992ZM5.7062738,28.946581v70.9053432c12.7613276-12.5408153,25.3094322-24.8720947,37.9297429-37.2743462-12.5807089-11.1548853-25.1399937-22.2907662-37.9297429-33.630997ZM123.203653,28.9856722c-.4754529.3626783-.7953072.5731017-1.0766661.8262943-4.2409086,3.8165843-8.4617184,7.6556263-12.7170476,11.4560148-7.6188696,6.8043148-15.2586406,13.5852053-22.8872982,20.3785528-.9593076.8542722-.9570825.8662852-.0717502,1.7443708,11.4733049,11.379474,22.9480324,22.7575375,34.4222492,34.1360874.7564714.7501608,1.511666,1.5016105,2.330513,2.3151075V28.9856722Z"/>
    </g>
  </g>
</svg>