<?xml version="1.0" encoding="UTF-8" standalone="no"?>
<!-- Created with Inkscape (http://www.inkscape.org/) -->

<svg
   width="34.104786mm"
   height="34.104786mm"
   viewBox="0 0 34.104786 34.104786"
   version="1.1"
   id="svg1"
   xml:space="preserve"
   xmlns="http://www.w3.org/2000/svg"
   xmlns:svg="http://www.w3.org/2000/svg"><defs
     id="defs1"><style
       id="style1">
      .st0 {
        fill: url(#Degradado_sin_nombre_6);
      }

      .st1 {
        fill: url(#Degradado_sin_nombre_5);
      }

      .st2 {
        fill: none;
      }

      .st3 {
        fill: url(#Degradado_sin_nombre_7);
      }

      .st4 {
        fill: url(#Degradado_sin_nombre);
      }

      .st5 {
        fill: url(#Degradado_sin_nombre_8);
      }
    </style><linearGradient
       id="Degradado_sin_nombre"
       data-name="Degradado sin nombre"
       x1="14.1"
       y1="776.40002"
       x2="114.8"
       y2="776.40002"
       gradientTransform="translate(0,-712)"
       gradientUnits="userSpaceOnUse"><stop
         offset="0"
         stop-color="#e42c37"
         id="stop1"
         style="stop-color:#009fe3;stop-opacity:1;" /><stop
         offset="0.69999999"
         stop-color="#de8218"
         id="stop2"
         style="stop-color:#0d67b4;stop-opacity:1;" /><stop
         offset="1"
         stop-color="#dca90b"
         id="stop3"
         style="stop-color:#164194;stop-opacity:1;" /></linearGradient><linearGradient
       id="Degradado_sin_nombre_5"
       data-name="Degradado sin nombre 5"
       x1="29.5"
       y1="84.199997"
       x2="99.300003"
       y2="84.199997"
       gradientTransform="matrix(1,0,0,-1.5429171,0,176.91662)"
       gradientUnits="userSpaceOnUse"><stop
         offset="0"
         stop-color="#e42c37"
         id="stop4"
         style="stop-color:#009fe3;stop-opacity:1;" /><stop
         offset="0.69999999"
         stop-color="#de8218"
         id="stop5"
         style="stop-color:#0d67b4;stop-opacity:1;" /><stop
         offset="1"
         stop-color="#dca90b"
         id="stop6"
         style="stop-color:#164194;stop-opacity:1;" /></linearGradient><linearGradient
       id="Degradado_sin_nombre_6"
       data-name="Degradado sin nombre 6"
       x1="29.5"
       y1="64.5"
       x2="99.300003"
       y2="64.5"
       gradientTransform="matrix(1,0,0,-1.4715117,0,161.44413)"
       gradientUnits="userSpaceOnUse"><stop
         offset="0"
         stop-color="#e42c37"
         id="stop7"
         style="stop-color:#009fe3;stop-opacity:1;" /><stop
         offset="0.69999999"
         stop-color="#de8218"
         id="stop8"
         style="stop-color:#0d67b4;stop-opacity:1;" /><stop
         offset="1"
         stop-color="#dca90b"
         id="stop9"
         style="stop-color:#164194;stop-opacity:1;" /></linearGradient><linearGradient
       id="Degradado_sin_nombre_7"
       data-name="Degradado sin nombre 7"
       x1="29.5"
       y1="44.799999"
       x2="99.300003"
       y2="44.799999"
       gradientTransform="matrix(1,0,0,-1.5269837,0,154.77363)"
       gradientUnits="userSpaceOnUse"><stop
         offset="0"
         stop-color="#e42c37"
         id="stop10"
         style="stop-color:#009fe3;stop-opacity:1;" /><stop
         offset="0.69999999"
         stop-color="#de8218"
         id="stop11"
         style="stop-color:#0d67b4;stop-opacity:1;" /><stop
         offset="1"
         stop-color="#dca90b"
         id="stop12"
         style="stop-color:#164194;stop-opacity:1;" /></linearGradient><linearGradient
       id="Degradado_sin_nombre_8"
       data-name="Degradado sin nombre 8"
       x1="29.5"
       y1="25.1"
       x2="99.300003"
       y2="25.1"
       gradientTransform="matrix(1,0,0,-1.3883038,0,140.57836)"
       gradientUnits="userSpaceOnUse"><stop
         offset="0"
         stop-color="#e42c37"
         id="stop13"
         style="stop-color:#009fe3;stop-opacity:1;" /><stop
         offset="0.69999999"
         stop-color="#de8218"
         id="stop14"
         style="stop-color:#0d67b4;stop-opacity:1;" /><stop
         offset="1"
         stop-color="#dca90b"
         id="stop15"
         style="stop-color:#164194;stop-opacity:1;" /></linearGradient><style
       id="style1-0">
      .cls-1 {
        fill: none;
      }

      .cls-2 {
        fill: url(#Degradado_sin_nombre_115);
      }
    </style><style
       id="style1-8">
      .cls-1 {
        fill: none;
      }

      .cls-2 {
        fill: url(#Degradado_sin_nombre_115);
      }
    </style></defs><g
     id="layer1"
     transform="translate(-220.00001)"><g
       id="g1"
       transform="matrix(0.25479526,0,0,0.24353406,220.54273,1.5009858)"><path
         class="st4"
         d="M 64.5,3 H 108 c 2.9,0 4.8,1.7 6.2,4.8 0.5,1.4 0.7,2.9 0.7,4.5 v 103 c 0,1.3 0,2.7 -0.2,4 -0.7,3.7 -3.3,6.4 -6.2,6.5 H 95.1 21.3 c -4.1,0 -7.1,-3.8 -7.1,-9.1 V 49.6 12.2 C 14.2,9.9 14.7,7.9 15.8,6.1 17.2,4 18.9,3 21.1,3 H 64.6 Z M 19.554788,28.220955 19.72592,115.58674 c 0.0076,3.89999 0.331015,4.73872 2.731015,4.63872 l 6.443065,0.0264 76.8471,0.0902 c 2.8,0.003 3.91305,-0.0404 3.91245,-3.64039 l -0.0148,-88.96487 -90.040787,0.435604 z m 90.026712,-5.842756 0.02,-9.737279 -0.0105,-2.365356 c -1.23168,-2.4000003 -2.86931,-1.8345655 -5.06932,-1.8331471 l -81.969613,0.052848 c -2.299999,0.00148 -2.603765,0.6800914 -2.916049,3.7628251 l -0.03705,9.996158 86.920032,0.114883 z"
         id="path15"
         style="fill:url(#Degradado_sin_nombre)" /><rect
         class="st2"
         x="14.1"
         width="100.8"
         height="128.89999"
         id="rect15"
         y="0" /><path
         class="st1"
         d="m 31.1,43.3 h 66.6 c 0.9,0 1.6,1.697209 1.6,3.548709 v 0 c 0,2.005793 -0.7,3.703001 -1.6,3.703001 H 31.1 c -0.9,0 -1.6,-1.697208 -1.6,-3.548709 v 0 C 29.5,44.997209 30.2,43.3 31.1,43.3 Z"
         id="path16"
         style="fill:url(#Degradado_sin_nombre_5);stroke-width:1.24214" /><path
         class="st0"
         d="m 31.1,63 h 66.6 c 0.9,0 1.6,1.618663 1.6,3.384477 v 0 c 0,1.912965 -0.7,3.384477 -1.6,3.384477 H 31.1 c -0.9,0 -1.6,-1.618663 -1.6,-3.384477 v 0 C 29.5,64.471512 30.2,63 31.1,63 Z"
         id="path17"
         style="fill:url(#Degradado_sin_nombre_6);stroke-width:1.21306" /><path
         class="st3"
         d="m 31.1,82.7 h 66.6 c 0.9,0 1.6,1.679682 1.6,3.512062 v 0 c 0,1.985079 -0.7,3.512063 -1.6,3.512063 H 31.1 c -0.9,0 -1.6,-1.679682 -1.6,-3.512063 v 0 C 29.5,84.226984 30.2,82.7 31.1,82.7 Z"
         id="path18"
         style="fill:url(#Degradado_sin_nombre_7);stroke-width:1.23571" /><path
         class="st5"
         d="m 31.1,102.4 h 66.6 c 0.9,0 1.6,1.52713 1.6,3.1931 v 0 c 0,1.80479 -0.7,3.1931 -1.6,3.1931 H 31.1 c -0.9,0 -1.6,-1.52714 -1.6,-3.1931 v 0 c 0,-1.8048 0.7,-3.1931 1.6,-3.1931 z"
         id="path19"
         style="fill:url(#Degradado_sin_nombre_8);stroke-width:1.17826" /></g></g><rect
     class="cls-1"
     x="1.5164886e-05"
     width="34.104786"
     height="34.104786"
     id="rect3"
     y="0"
     style="stroke-width:0.264583" /></svg>
