<?xml version="1.0" encoding="UTF-8"?>
<svg id="Capa_2" xmlns="http://www.w3.org/2000/svg" xmlns:xlink="http://www.w3.org/1999/xlink" viewBox="0 0 128.8999784 128.8999784">
  <defs>
    <style>
      .cls-1 {
        fill: url(#Degradado_sin_nombre_124-3);
      }

      .cls-2 {
        fill: none;
      }

      .cls-3 {
        fill: url(#Degradado_sin_nombre_124-2);
      }

      .cls-4 {
        fill: url(#Degradado_sin_nombre_124);
      }

      .cls-5 {
        fill: url(#Degradado_sin_nombre_124-4);
      }
    </style>
    <linearGradient id="Degradado_sin_nombre_124" data-name="Degradado sin nombre 124" x1="0" y1="64.4499892" x2="128.8999784" y2="64.4499892" gradientUnits="userSpaceOnUse">
      <stop offset="0" stop-color="#009fe3"/>
      <stop offset=".562286" stop-color="#0d67b4"/>
      <stop offset=".9911114" stop-color="#164194"/>
    </linearGradient>
    <linearGradient id="Degradado_sin_nombre_124-2" data-name="Degradado sin nombre 124" x1="76.1836189" y1="77.3492591" x2="114.2132044" y2="77.3492591" xlink:href="#Degradado_sin_nombre_124"/>
    <linearGradient id="Degradado_sin_nombre_124-3" data-name="Degradado sin nombre 124" x1="76.2093972" y1="65.2195591" x2="114.2533914" y2="65.2195591" xlink:href="#Degradado_sin_nombre_124"/>
    <linearGradient id="Degradado_sin_nombre_124-4" data-name="Degradado sin nombre 124" x1="76.2024396" y1="89.4362023" x2="99.7143635" y2="89.4362023" xlink:href="#Degradado_sin_nombre_124"/>
  </defs>
  <g id="Capa_1-2" data-name="Capa_1">
    <g>
      <rect class="cls-2" width="128.8999784" height="128.8999784"/>
      <g>
        <path class="cls-4" d="M63.8017662,40.9478107c.0204011-.4467698.0456593-.746098.0460083-1.0454434.0055551-4.780167-.0050173-9.5604198.0260019-14.3404037.0043022-.6618335-.2116197-.9723634-.8115062-1.2595059-2.7670228-1.3244678-5.4966875-2.7267184-8.2517648-4.0765474-.9791886-.4797456-1.795918-1.1142613-1.8093452-2.2708122-.0140164-1.2082344.8317013-1.8776195,1.8428016-2.3566958,8.0771886-3.8271148,16.1553726-7.6521357,24.2297236-11.485229,1.9074946-.9055422,3.8107671-1.821016,5.6987302-2.7663792,1.2594888-.6306712,2.4823403-.648083,3.7544152-.0388398,9.8809501,4.7322708,19.7673923,9.4530796,29.6519466,14.177833.1405992.0672074.2803403.1365745.4178272.2099005.8978188.4788388,1.6221198,1.1499346,1.6357015,2.2133962.0138448,1.0842375-.6977556,1.8055521-1.6567891,2.166261-1.2019241.4520674-1.5527356,1.2068098-1.5194508,2.4877409.0973714,3.7466347.017163,7.4976116.0581711,11.2463288.0047027.4313688.2327072.9584728.5342037,1.2696779.8441101.8712734,1.3592629,1.8459138,1.3581073,3.0674552-.0028834,3.0588165.0293945,6.1185369-.0378616,9.1760089-.026328,1.1973702-.7480431,1.7636516-1.9450815,1.7743269-1.3433471.0119798-2.6869231.0099717-4.030316.0016248-1.1700582-.0072714-1.9697276-.6254594-2.0777285-1.8173317-.1348324-1.4878709-.1430707-2.9900329-.1471097-4.4861822-.0043708-1.6225947-.0000114-3.2498119.1215941-4.8659018.0490289-.6516215.3052495-1.3553498.6694481-1.9001259.5848918-.8748891.7990973-1.766369.7855729-2.8045811-.0422324-3.2407499-.0155039-6.4824037-.0155039-9.928543-1.224339.6373876-2.3305165,1.1729358-3.383935,1.7974684-.1983584.1175951-.2595616.5895601-.2606715.8984481-.0169799,4.7488731-.190143,9.5064823.0423239,14.243942.1788841,3.6455733-1.5360188,5.9558603-4.3333686,7.7790274-2.9944381,1.9516149-6.3501686,3.0044842-9.8441069,3.4685542-2.8958768.3846283-5.8391463.5990341-8.7591199.5775575-6.3537385-.0467119-12.5099881-1.0608215-18.0153601-4.5533181-.0719015-.0456135-.1645816-.0584571-.3252958-.1129496v71.5705502c1.183411-.5541815,2.3657121-1.1161778,3.554844-1.6632538,4.4327538-2.0392834,9.1173344-3.1678072,13.9187491-3.9142256,4.9154686-.7641306,9.8557319-1.0317702,14.8212706-.922442,6.6773981.1470067,13.2565095,1.0214381,19.7228143,2.7104364.2367234.061844.4729319.1256674.7881473.2095143v4.1408228h3.7538889c0-.3110735.0000114-.6388522,0-.9666195-.0007666-24.4944913-.0127921-48.9890055.0300123-73.4834168.0022083-1.2608332-.7088772-1.0300139-1.4652959-1.0591109v-4.8411414c1.2433441,0,2.4919859-.1101749,3.712755.027312,1.6010551.1803086,2.6121382,1.5790636,2.6122069,3.348911.0008581,21.6513965.0003433,43.3027872.000206,64.9541837-.0000343,4.7176937.0010641,9.4353874-.0004577,14.1530812-.0006064,1.9082955-.8814568,2.8024987-2.7950843,2.8028877-17.2461378.0035356-34.4922641.0046683-51.7383905-.0075403-.6504658-.0004577-1.1572889.1456337-1.6912981.5641246-2.3260083,1.8228582-4.9044499,2.99366-7.9453425,3.018718-3.065613.0252754-5.7260021-1.0222276-8.1045063-2.8582555-.6507633-.5023264-1.2789001-.7335233-2.1127067-.7323562-17.121134.0240396-34.2423024.0184445-51.363465.0182614-2.3207221-.0000229-3.1388704-.8254368-3.139125-3.1586307C.006419,95.1876324.0034098,69.0688816,0,42.9501365c-.0003089-2.378098,1.3656876-3.7816472,3.7440774-3.8141367,1.4681478-.0200521,2.9374799-.0356304,4.4048153.0028033.7187516.0188335,1.0000073-.1908524.9764711-.9568881-.0527447-1.7167451-.0190423-3.4362249-.0157385-5.1545833.0024343-1.2662624.4869083-2.0324411,1.7420519-2.2896171,1.6712947-.3424474,3.3714203-.643818,5.0708108-.7282256,3.2680076-.1623275,6.5555781-.3602969,9.8141717-.1754916,4.1841708.2372898,8.3790856.6466213,12.5127399,1.3262642,5.8575164.9630668,11.527161,2.705791,16.914177,5.230438,2.639948,1.2372284,5.1689545,2.7112259,7.7479395,4.0784982.2613065.1385339.5210569.2800142.89025.4786128ZM14.1821982,107.8918942c17.359425-2.9940605,33.2570324.8958622,48.115644,9.903342.0258475-.1479793.0459167-.209274.0459224-.2705574.002563-23.584235.0067508-47.1684815-.0225636-70.7526823-.0004577-.366241-.3254732-.8687619-.6480058-1.0778128-7.0281638-4.5550858-14.6401725-7.7528138-22.8676231-9.3041993-4.2072722-.793342-8.4858966-1.2905767-12.7551672-1.6488312-3.9418751-.3307651-7.9013023-.0602135-11.8682068.5652344v72.5855064ZM61.7314178,17.9068872c.0821936.1073431.108779.1771793.1577622.2010587,7.8413291,3.8229356,15.6879043,7.6351387,23.5227744,11.4712497,1.0407064.5095463,1.9748078.4771769,3.0107773-.0415688,4.1645191-2.0853375,8.3589591-4.1108104,12.5345312-6.1742193,3.5473266-1.7529476,7.0839321-3.5276235,10.6537308-5.3068648-.0954491-.0890244-.1338599-.1460656-.1873169-.1717243-7.7223266-3.7062502-15.4556147-7.3899053-23.1583984-11.1362997-1.1492223-.5589556-2.1111392-.540514-3.237466.0030579-7.7414119,3.7360194-15.5032019,7.4297949-23.2963946,11.1553106ZM4.9828963,119.5302427h50.0422095c-.2183475-.1596044-.3017597-.2464491-.4036506-.2913017-2.6686159-1.1747723-5.2962752-2.4579116-8.0181079-3.4933662-6.0209424-2.2904924-12.2895467-3.5100829-18.7165311-3.8275753-5.2219881-.2579483-10.3755474.3402963-15.4647712,1.5344856-2.2170291.5202216-3.3134237-.3933643-3.3134437-2.6873808-.0001888-21.8333928-.000083-43.666797-.0000601-65.5001955,0-.3927292.0000029-.7854642.0000029-1.233853-1.0601235,0-1.9933124-.0004577-2.9265041.0001087q-1.1988691.0007266-1.1992495,1.2235895c-.0000229,24.3946828.0000515,48.7893656.0001058,73.1840485.0000029.3396327,0,.6792653,0,1.0914402ZM103.7792243,27.6170541c-.1742272.0509912-.2641384.0640179-.3418982.1019596-4.798806,2.3414207-9.6099694,4.6581324-14.3867152,7.0437421-1.5158924.7570652-2.8877758.7852926-4.4224789.0156755-5.0734596-2.5441957-10.1893461-5.0038236-15.2906669-7.4923769-.1565608-.0763753-.3321038-.1138364-.5723056-.1939704,0,.2279073-.0000458.3767677.0000114.525628.0015447,4.2480686.0776797,8.4980422-.030962,12.7432904-.0453103,1.7702307.703591,2.7539331,2.1684063,3.5320802,3.358591,1.7841385,6.9991698,2.542056,10.7103458,2.9250081,4.2871544.4423932,8.5925588.4688414,12.8564517-.3476478,2.8762538-.5507718,5.6662921-1.355304,8.1574885-2.9749238.79769-.518614,1.1711451-1.2140927,1.1629984-2.1873428-.0279986-3.342023-.0107097-6.6844178-.0106754-10.0266753.0000114-1.2054597,0-2.4109194,0-3.6644469ZM80.2652775,119.5220159h34.6823957c-.0001945-.0908265-.000389-.1816531-.000595-.2724796-11.5728432-2.4907959-23.1427572-2.4422361-34.6818007.2724796Z"/>
        <path class="cls-3" d="M95.1553946,74.9357862c5.5587603.0001373,11.117532-.0063045,16.6762693.0052633,1.1929994.0024829,1.9411912.593519,2.271533,1.6980603.3038879,1.0160947-.0232616,2.195993-.9636103,2.6734673-.6289206.319346-1.4252375.4207221-2.1479824.4257108-5.2774818.0364313-10.5552953.0248291-15.8330059.0262708-5.2151572.0014074-10.4303259.0019223-15.6454831-.0025744-.4357225-.0003776-.8760905-.0091765-1.3062522-.0705513-1.3549608-.1932896-2.0894223-1.1407667-2.0185506-2.5629262.0662148-1.3286442.9183458-2.1822511,2.29087-2.1861986,5.5587031-.0159845,11.1174633-.0066478,16.6762121-.0065219Z"/>
        <path class="cls-1" d="M95.153621,62.7879886c5.4360449-.0001373,10.8720898-.0007495,16.3081347.0002403,1.5932517.0002918,2.8049129,1.089272,2.7915258,2.5037082-.0133757,1.413601-1.1303659,2.3581718-2.8053134,2.3584006-10.8096051.0014646-21.6192101.0019566-32.4288152-.0011328-1.8518979-.0005263-2.8375798-.8817543-2.8091579-2.485401.0256415-1.4472919,1.0109687-2.3739274,2.5417471-2.3746597,5.467293-.0026145,10.934586-.0010183,16.4018789-.0011556Z"/>
        <path class="cls-5" d="M87.9179109,91.8409297c-3.0605614-.0000687-6.1211228.0032724-9.1816841-.001476-1.543582-.0023914-2.5218266-.9229683-2.5336691-2.3656663-.0120942-1.4747699.9050616-2.4342496,2.4584723-2.4386204,6.1209511-.0172202,12.2420396-.0120599,18.3629907.007403,1.3791034.0043823,2.1933956.5702117,2.5581664,1.6383446.3176412.9301081.0630683,2.0257018-.7668881,2.5990028-.4534805.3132474-1.0734649.5279907-1.6224059.5368926-3.0909742.0501045-6.1831956.0241884-9.2749821.0241197Z"/>
      </g>
    </g>
  </g>
</svg>