<?xml version="1.0" encoding="UTF-8"?>
<svg id="Capa_2" data-name="Capa 2" xmlns="http://www.w3.org/2000/svg" xmlns:xlink="http://www.w3.org/1999/xlink" viewBox="0 0 366.32 366.32">
  <defs>
    <style>
      .cls-1 {
        fill: none;
      }

      .cls-2 {
        fill: url(#Degradado_sin_nombre_4);
      }
    </style>
    <linearGradient id="Degradado_sin_nombre_4" data-name="Degradado sin nombre 4" x1="0" y1="183.16" x2="366.32" y2="183.16" gradientUnits="userSpaceOnUse">
      <stop offset="0" stop-color="#009fe3"/>
      <stop offset=".56" stop-color="#0d67b4"/>
      <stop offset=".99" stop-color="#164194"/>
    </linearGradient>
  </defs>
  <g id="Capa_1-2" data-name="Capa 1">
    <g>
      <path class="cls-2" d="M48.19,31.5l269.11-.16c26.09,1.48,47.33,16.74,49.02,44.22l-.03,211.35c-2.24,28.73-22,46.46-50.43,48.08H48.51C21.58,333.07,1.88,314.66,0,287.38V74.16c2.64-26.67,22.52-41,48.19-42.66ZM83.68,312.01l223.58.02c18.24-.97,34.58-9.56,37.46-29,.89-69.04.89-138.35,0-207.39-2.74-18.52-18.69-26.89-36.03-28.05H55.69c-18.5,1.43-33.42,11.74-34.67,31.32.44,68.8-.78,137.72.62,206.45,1.93,10.6,8.76,19.3,18.76,23.32,1.69.68,8.15,2.86,9.58,2.86h6.93V71.28c.3-.49.66-.61,1.2-.71,2.61-.47,6.34-.71,9.09-.96,5.46-.5,11.03-.54,16.49-.96v8.13c7.17-2.76,14.83-4.19,22.39-5.59,29.65-5.48,63.51-8.42,93.52-4.87,4.6.54,9.14,1.47,13.67,2.35l-6.68,31.06c5.68,1.07,11.3,2.48,17.05,3.28,26.7,3.72,60.36,3.82,87.46,2.96.86-.03,5-1.2,5,.22v111.88c-5,3.36-11.29,5.81-16.97,7.9-38.43,14.12-84.17,15.01-124.12,6.94-11.31-2.28-23.41-5.49-33.41-11.09l7.11-24.05c-.54-.78-16.51-.62-18.89-.52-4.06.17-8.79.6-12.89.98-11.19,1.02-22.26,3.04-33.24,5.26v108.53ZM83.68,97.34v82.24c29.21-4.93,59.6-8.56,88.93-2.37l-6.2,29.62c40.12,11.6,83.49,15.04,123.75,2.05,2.41-.78,5.11-1.47,7.28-2.76v-82c-4.46-.04-9.19.81-13.61.98-25.66.97-56.48,1.67-81.38-4.74-2.58-.66-16.38-4.82-16.81-7.05l6.59-26.96c-36.51-3.45-73.31,1.78-108.55,10.99Z"/>
      <rect class="cls-1" width="366.32" height="366.32"/>
    </g>
  </g>
</svg>