<?xml version="1.0" encoding="UTF-8"?>
<svg id="Capa_2" xmlns="http://www.w3.org/2000/svg" xmlns:xlink="http://www.w3.org/1999/xlink" viewBox="0 0 75.1040595 78.0638173">
  <defs>
    <style>
      .cls-1 {
        fill: #fff;
      }

      .cls-2 {
        fill: url(#Degradado_sin_nombre_110);
      }
    </style>
    <linearGradient id="Degradado_sin_nombre_110" data-name="Degradado sin nombre 110" x1="0" y1="36.5451966" x2="75.1040595" y2="36.5451966" gradientUnits="userSpaceOnUse">
      <stop offset="0" stop-color="#009fe3"/>
      <stop offset=".4954671" stop-color="#0075bf"/>
      <stop offset=".9911114" stop-color="#004f9f"/>
    </linearGradient>
  </defs>
  <g id="Capa_1-2" data-name="Capa_1">
    <g>
      <path class="cls-2" d="M65.332313,38.0717162c-.013935.1586905-.0908951,18.0839128-.1149735,30.3640881-.0017305.8839391.0700768,1.7677745.0855674,2.6520506.0217969,1.2437667-.5519685,1.8995996-1.7891371,1.9143058-4.1931641.049816-8.3867624.0821193-12.5802117.0847313-13.1476966.008173-26.2954095-.0001491-39.4431126-.002962-.3892304-.0000778-.7796243.0074277-1.1674741-.0185044-1.1120874-.0743416-1.6274166-.6238796-1.6210097-1.7303898.0312549-5.3968305.0853794-10.7936026.0962017-16.1904655.0149396-7.4496632-.0376972-16.8539162-.0587099-17.1007017-1.0138805,0-2.8279729-.0134645-5.3103932.0531039-.9332538.0250261-1.9060152.0254176-2.3504435-.115401-.8022632-.2541998-1.1694412-.9748731-1.0595751-1.8753235.040768-.3341224.2392007-.7109409.4825463-.9487563,2.2393931-2.188511,4.5021727-4.353138,6.7626076-6.5200627,2.5158197-2.4117399,5.0394705-4.81531,7.5540734-7.2283171,4.467528-4.287044,8.9372921-8.5717968,13.393416-12.8706806,2.6483043-2.5548588,5.2631192-5.1444758,7.9179729-7.69244.3641798-.3495141.8445905-.6334413,1.3228072-.7935739.5161653-.1728377.9796498.1053194,1.3738158.4897309,3.5970249,3.50799,7.1977117,7.0122403,10.8048216,10.5098569,4.3184948,4.187412,8.6416238,8.3700601,12.9678055,12.5495291,3.982428,3.8473559,7.9568774,7.7032153,11.9691328,11.5192661.8928899.8492247.5533944,2.0797888-.1667728,2.614627-.6748622.5011998-1.4038993.3362886-2.2781.3362886-2.760252,0-6.6201935.147361-6.7908551,0Z"/>
      <rect class="cls-1" x="29.1203202" y="51.3621821" width="16.8634192" height="26.7016352" rx="6.0785057" ry="6.0785057"/>
    </g>
  </g>
</svg>