<?xml version="1.0" encoding="UTF-8"?>
<svg id="Capa_2" xmlns="http://www.w3.org/2000/svg" xmlns:xlink="http://www.w3.org/1999/xlink" viewBox="0 0 128.8999784 128.8999784">
  <defs>
    <style>
      .cls-1 {
        fill: none;
      }

      .cls-2 {
        fill: url(#Degradado_sin_nombre_115);
      }
    </style>
    <linearGradient id="Degradado_sin_nombre_115" data-name="Degradado sin nombre 115" x1="0" y1="64.4499892" x2="128.8999784" y2="64.4499892" gradientUnits="userSpaceOnUse">
      <stop offset="0" stop-color="#009fe3"/>
      <stop offset=".562286" stop-color="#0d67b4"/>
      <stop offset=".9911113" stop-color="#164194"/>
    </linearGradient>
  </defs>
  <g id="Capa_1-2" data-name="Capa_1">
    <g>
      <rect class="cls-1" x="0" width="128.8999784" height="128.8999784"/>
      <path class="cls-2" d="M112.1286281,55.3973331c-.0239168.2726281-.0463207.4106847-.0466767.5488082-.0537071,21.0971525-.1093275,42.1943051-.1506535,63.2914798-.0029701,1.5185954.1202736,3.0370126.1468602,4.556187.0374103,2.1367743-.9473493,3.2634863-3.0707146,3.2887515-7.1967712.0855832-14.3942877.1410798-21.5915483.1455672-22.5655287.0140412-45.1310852-.0002561-67.696625-.0050887-.6680402-.0001336-1.3380772.0127607-2.003748-.0317903-1.9086872-.1277179-2.793152-1.0718167-2.7821559-2.9727862.0536431-9.2716816.1465376-18.5432631.165112-27.8150004.025641-12.7984204-.0025085-25.5969521-.0106179-38.3954337-.0001502-.2359106-.0376356-.4717989-.0736998-.8957732-.851685.7752819-1.6026636,1.4410683-2.3339581,2.1278552-2.435585,2.2873355-4.8700659,4.5759237-7.2927359,6.8769384-1.1623473,1.1039856-2.257405,1.3687412-3.5381264.8006139-1.3205345-.5857874-2.0071242-1.6748187-1.8185598-3.2217803.0699705-.5740177.4105427-1.2213869.8281992-1.6299504,3.8434937-3.7598322,7.7271258-7.4786321,11.6067339-11.2013793,4.3179276-4.1433365,8.6492958-8.2726374,12.9651348-12.4181508,7.6676648-7.3650834,15.3391674-14.7262307,22.9872594-22.1116549,4.5453122-4.3892129,9.0331462-8.8381397,13.5896993-13.2155077.6250456-.6004604,1.4495795-1.0882435,2.2703478-1.3633491.8858999-.2969329,1.6813832.1809373,2.3578944.8413511,6.1736112,6.0266794,12.3535076,12.0469339,18.5444279,18.0557917,7.4118776,7.193917,14.8317089,14.3796498,22.2567797,21.559921,6.8350827,6.6097053,13.6564716,13.2340196,20.5427474,19.789943,1.5324762,1.4589566.9497966,3.573049-.2862338,4.4918938-1.1582731.8610544-2.8134145.7961599-3.9099267-.2289791-3.660369-3.4221148-7.3142193-6.8512445-10.9719741-10.2761765-.1885977-.1766003-.390333-.3391371-.6832413-.5923013ZM20.8293314,121.2553517h85.2528782c0-.5673033-.0008009-.9592535.0001112-1.3512037.0363201-15.4723112.0907058-30.9446001.101752-46.4169224.0055732-7.8113109-.0592691-15.6227332-.1285054-23.4337824-.0034485-.3878302-.2668334-.8610321-.555648-1.1455022-4.4579881-4.3910279-8.9307713-8.7671349-13.4189947-13.1272354-7.8002417-7.5775494-15.6105284-15.1447377-23.4241078-22.7084853-1.3481612-1.3050466-2.7334769-2.5716246-4.1252667-3.8781716-.1885588.1642989-.3272761.2747159-.454252.3973256-7.298818,7.0472809-14.5857443,14.1069327-21.8977499,21.140473-6.8739113,6.6121438-13.7694701,13.2017727-20.6722762,19.7836907-.5222813.498005-.742249.9922297-.7408307,1.7267298.0366705,19.1203652.0480672,38.2407749.0624617,57.3611846.0029256,3.8874443.0004283,7.7748996.0004283,11.6518993Z"/>
    </g>
  </g>
</svg>