<?xml version="1.0" encoding="UTF-8"?>
<svg id="Capa_2" data-name="Capa 2" xmlns="http://www.w3.org/2000/svg" xmlns:xlink="http://www.w3.org/1999/xlink" viewBox="0 0 1054.75 178.05">
  <defs>
    <style>
      .cls-1 {
        fill: url(#Degradado_sin_nombre_73-10);
      }

      .cls-2 {
        fill: url(#Degradado_sin_nombre_73-17);
      }

      .cls-3 {
        fill: url(#Degradado_sin_nombre_73-2);
      }

      .cls-4 {
        fill: url(#Degradado_sin_nombre_73-4);
      }

      .cls-5 {
        fill: url(#Degradado_sin_nombre_73-12);
      }

      .cls-6 {
        fill: url(#Degradado_sin_nombre_73);
      }

      .cls-7 {
        fill: url(#Degradado_sin_nombre_73-13);
      }

      .cls-8 {
        fill: url(#Degradado_sin_nombre_73-6);
      }

      .cls-9 {
        fill: url(#Degradado_sin_nombre_73-15);
      }

      .cls-10 {
        fill: url(#Degradado_sin_nombre_73-14);
      }

      .cls-11 {
        fill: url(#Degradado_sin_nombre_73-11);
      }

      .cls-12 {
        fill: url(#Degradado_sin_nombre_73-8);
      }

      .cls-13 {
        fill: url(#Degradado_sin_nombre_73-16);
      }

      .cls-14 {
        fill: url(#Degradado_sin_nombre_73-7);
      }

      .cls-15 {
        fill: url(#Degradado_sin_nombre_73-18);
      }

      .cls-16 {
        fill: url(#Degradado_sin_nombre_73-3);
      }

      .cls-17 {
        fill: url(#Degradado_sin_nombre_73-9);
      }

      .cls-18 {
        fill: url(#Degradado_sin_nombre_73-19);
      }

      .cls-19 {
        fill: url(#Degradado_sin_nombre_73-5);
      }
    </style>
    <linearGradient id="Degradado_sin_nombre_73" data-name="Degradado sin nombre 73" x1="-4.35" y1="45.79" x2="1043.65" y2="33.79" gradientUnits="userSpaceOnUse">
      <stop offset="0" stop-color="#282e68"/>
      <stop offset="1" stop-color="#42ace2"/>
    </linearGradient>
    <linearGradient id="Degradado_sin_nombre_73-2" data-name="Degradado sin nombre 73" x1="-4.33" y1="47.74" x2="1043.67" y2="35.74" xlink:href="#Degradado_sin_nombre_73"/>
    <linearGradient id="Degradado_sin_nombre_73-3" data-name="Degradado sin nombre 73" x1="-4.31" y1="49.15" x2="1043.69" y2="37.15" xlink:href="#Degradado_sin_nombre_73"/>
    <linearGradient id="Degradado_sin_nombre_73-4" data-name="Degradado sin nombre 73" x1="-4.3" y1="50.54" x2="1043.7" y2="38.54" xlink:href="#Degradado_sin_nombre_73"/>
    <linearGradient id="Degradado_sin_nombre_73-5" data-name="Degradado sin nombre 73" x1="-4.27" y1="52.82" x2="1043.73" y2="40.82" xlink:href="#Degradado_sin_nombre_73"/>
    <linearGradient id="Degradado_sin_nombre_73-6" data-name="Degradado sin nombre 73" x1="-4.26" y1="53.91" x2="1043.74" y2="41.91" xlink:href="#Degradado_sin_nombre_73"/>
    <linearGradient id="Degradado_sin_nombre_73-7" data-name="Degradado sin nombre 73" x1="-4.24" y1="55.66" x2="1043.76" y2="43.66" xlink:href="#Degradado_sin_nombre_73"/>
    <linearGradient id="Degradado_sin_nombre_73-8" data-name="Degradado sin nombre 73" x1="-4.22" y1="56.96" x2="1043.78" y2="44.96" xlink:href="#Degradado_sin_nombre_73"/>
    <linearGradient id="Degradado_sin_nombre_73-9" data-name="Degradado sin nombre 73" x1="-2.08" y1="148.65" x2="1053.92" y2="150.65" xlink:href="#Degradado_sin_nombre_73"/>
    <linearGradient id="Degradado_sin_nombre_73-10" data-name="Degradado sin nombre 73" x1="-2.08" y1="148.55" x2="1053.92" y2="150.55" xlink:href="#Degradado_sin_nombre_73"/>
    <linearGradient id="Degradado_sin_nombre_73-11" data-name="Degradado sin nombre 73" x1="-2.08" y1="149.69" x2="1053.92" y2="151.69" xlink:href="#Degradado_sin_nombre_73"/>
    <linearGradient id="Degradado_sin_nombre_73-12" data-name="Degradado sin nombre 73" x1="-2.08" y1="148.37" x2="1053.92" y2="150.37" xlink:href="#Degradado_sin_nombre_73"/>
    <linearGradient id="Degradado_sin_nombre_73-13" data-name="Degradado sin nombre 73" x1="-2.08" y1="149.37" x2="1053.92" y2="151.37" xlink:href="#Degradado_sin_nombre_73"/>
    <linearGradient id="Degradado_sin_nombre_73-14" data-name="Degradado sin nombre 73" x1="-2.06" y1="140.74" x2="1053.94" y2="142.74" xlink:href="#Degradado_sin_nombre_73"/>
    <linearGradient id="Degradado_sin_nombre_73-15" data-name="Degradado sin nombre 73" x1="-2.08" y1="147.92" x2="1053.92" y2="149.92" xlink:href="#Degradado_sin_nombre_73"/>
    <linearGradient id="Degradado_sin_nombre_73-16" data-name="Degradado sin nombre 73" x1="-2.08" y1="147.73" x2="1053.92" y2="149.73" xlink:href="#Degradado_sin_nombre_73"/>
    <linearGradient id="Degradado_sin_nombre_73-17" data-name="Degradado sin nombre 73" x1="-2.08" y1="147.66" x2="1053.92" y2="149.66" xlink:href="#Degradado_sin_nombre_73"/>
    <linearGradient id="Degradado_sin_nombre_73-18" data-name="Degradado sin nombre 73" x1="-2.09" y1="155.19" x2="1053.91" y2="157.19" xlink:href="#Degradado_sin_nombre_73"/>
    <linearGradient id="Degradado_sin_nombre_73-19" data-name="Degradado sin nombre 73" x1="-2.08" y1="150.18" x2="1053.92" y2="152.18" xlink:href="#Degradado_sin_nombre_73"/>
  </defs>
  <g id="Capa_1-2" data-name="Capa 1">
    <g>
      <path class="cls-6" d="M80.05,43.39c9.69,3.52,14.54,10.05,14.54,19.57,0,7.58-2.82,13.51-8.47,17.81-2.87,2.15-6.19,3.7-9.96,4.65-3.77.95-8.44,1.43-14,1.43H3.17v-1.94c1.52-.4,2.57-.93,3.16-1.58.59-.65.89-1.6.89-2.86V10.27c0-1.26-.3-2.21-.89-2.86-.59-.65-1.64-1.17-3.16-1.58v-1.94h58.42c5.6,0,10.12.41,13.53,1.22,3.41.81,6.41,2.19,8.98,4.13,5.1,3.85,7.65,9.4,7.65,16.65,0,8.1-3.9,13.94-11.7,17.5ZM26.06,36.89h33.07c5.02,0,8.51-.71,10.5-2.13,2.23-1.62,3.35-4.13,3.35-7.54s-1.05-5.96-3.16-7.44c-2.11-1.48-5.67-2.22-10.68-2.22H26.06v19.32ZM26.06,73.17h31.99c5.94,0,10.22-.79,12.83-2.37,2.99-1.82,4.49-4.8,4.49-8.93s-1.5-7.07-4.49-8.93c-2.57-1.58-6.85-2.37-12.83-2.37h-31.99v22.61Z"/>
      <path class="cls-3" d="M203.14,65.69h-39.22l-5.81,11.67c-.8,1.62-1.2,2.9-1.2,3.83,0,1.78,1.41,3.02,4.23,3.71v1.94h-28.55v-1.94c1.69-.32,2.97-.89,3.86-1.7.88-.81,1.9-2.39,3.03-4.74l31.74-63.75c1.01-2.03,1.52-3.65,1.52-4.86,0-1.86-1.22-3.2-3.67-4.01v-1.94h30.6v1.94c-2.49.69-3.73,1.88-3.73,3.59,0,1.18.4,2.51,1.2,4.01l32.88,63.93c1.39,2.71,2.61,4.57,3.67,5.56,1.05.99,2.47,1.65,4.24,1.97v1.94h-31.77v-1.94c2.79-.45,4.19-1.7,4.19-3.77,0-.85-.42-2.11-1.26-3.77l-5.93-11.67ZM197.72,54.33l-13.99-29.55-14.22,29.55h28.21Z"/>
      <path class="cls-16" d="M298.93,30.02v50.44c0,1.26.29,2.21.89,2.86.59.65,1.64,1.18,3.16,1.58v1.94h-25.35v-1.94c1.52-.4,2.57-.93,3.16-1.58.59-.65.89-1.6.89-2.86V10.21c0-1.22-.3-2.15-.89-2.8-.59-.65-1.64-1.17-3.16-1.58v-1.94h29.34v1.94c-1.81.45-2.72,1.38-2.72,2.8,0,.97.59,2.05,1.77,3.22l47.61,47.58V10.21c0-1.22-.3-2.15-.89-2.8-.59-.65-1.64-1.17-3.16-1.58v-1.94h25.35v1.94c-1.52.41-2.57.93-3.16,1.58-.59.65-.88,1.58-.88,2.8v70.25c0,1.26.29,2.21.88,2.86.59.65,1.64,1.18,3.16,1.58v1.94h-27.19v-1.94c1.77-.36,2.66-1.24,2.66-2.61,0-.81-1.03-2.23-3.1-4.25l-48.37-48.01Z"/>
      <path class="cls-4" d="M426.89,80.46V10.27c0-1.26-.3-2.21-.89-2.86-.59-.65-1.64-1.17-3.16-1.58v-1.94h48.14c10.54,0,18.64,1.15,24.29,3.46,8.1,3.36,14.09,8.91,17.97,16.65,3.08,6.08,4.62,13.19,4.62,21.33,0,14.3-4.58,25.2-13.73,32.69-3.84,3.16-8.33,5.42-13.48,6.78-5.15,1.36-11.7,2.04-19.68,2.04h-48.14v-1.94c1.52-.4,2.57-.93,3.16-1.58.59-.65.89-1.6.89-2.86ZM445.73,73.17h23.67c7.55,0,13.23-.99,17.03-2.98,8.14-4.25,12.22-12.54,12.22-24.85,0-8.91-2.19-15.74-6.58-20.48-2.45-2.63-5.4-4.51-8.86-5.62-3.46-1.11-8.06-1.67-13.8-1.67h-23.67v55.6Z"/>
      <path class="cls-19" d="M586.65,50.44v22.73h55.51c1.26,0,2.23-.28,2.91-.85.67-.57,1.22-1.58,1.64-3.04h2.02v21.45h-2.02c-.42-1.46-.97-2.47-1.64-3.04-.67-.57-1.64-.85-2.91-.85h-78.4v-1.94c1.52-.4,2.57-.93,3.16-1.58.59-.65.88-1.6.88-2.86V10.27c0-1.26-.29-2.21-.88-2.86-.59-.65-1.64-1.17-3.16-1.58v-1.94h76.88c1.26,0,2.23-.29,2.91-.87.67-.58,1.22-1.59,1.64-3.02h2.02v21.45h-2.02c-.42-1.44-.97-2.45-1.64-3.03-.67-.58-1.64-.86-2.91-.86h-53.99v19.69h35.03c1.26,0,2.23-.28,2.91-.85.67-.57,1.22-1.58,1.64-3.04h2.02v20.97h-2.02c-.42-1.42-.97-2.42-1.64-3.01-.67-.59-1.64-.88-2.91-.88h-35.03Z"/>
      <path class="cls-8" d="M717.4,52.99v27.53c0,1.22.31,2.16.92,2.83.61.67,1.65,1.19,3.13,1.55v1.94h-26.93v-1.94c1.52-.4,2.57-.93,3.16-1.58.59-.65.88-1.58.88-2.8V10.27c0-1.26-.29-2.21-.88-2.86-.59-.65-1.64-1.17-3.16-1.58v-1.94h53.99c6.58,0,11.79.36,15.65,1.09,3.86.73,7.22,2.01,10.08,3.83,3.33,2.11,5.82,4.96,7.46,8.57,1.56,3.48,2.34,7.21,2.34,11.18,0,13.53-7.82,21.45-23.46,23.76l16.75,22.91c2.95,4.01,5.11,6.59,6.48,7.75,1.37,1.15,3.04,1.79,5.03,1.91v1.94h-31.18v-1.94c2.15-.32,3.22-1.05,3.22-2.19,0-.73-.99-2.49-2.97-5.29l-17.48-24.43h-23.04ZM717.4,39.32h29.08c4.3,0,7.33-.12,9.1-.36,1.77-.24,3.39-.75,4.87-1.52,3.2-1.66,4.8-4.66,4.8-8.99s-1.6-7.33-4.8-8.99c-1.52-.81-3.13-1.33-4.84-1.55-1.71-.22-4.75-.33-9.13-.33h-29.08v21.76Z"/>
      <path class="cls-14" d="M894.8,65.69h-39.22l-5.81,11.67c-.8,1.62-1.2,2.9-1.2,3.83,0,1.78,1.41,3.02,4.23,3.71v1.94h-28.54v-1.94c1.69-.32,2.97-.89,3.86-1.7.89-.81,1.9-2.39,3.04-4.74l31.74-63.75c1.01-2.03,1.52-3.65,1.52-4.86,0-1.86-1.22-3.2-3.67-4.01v-1.94h30.6v1.94c-2.49.69-3.73,1.88-3.73,3.59,0,1.18.4,2.51,1.2,4.01l32.88,63.93c1.39,2.71,2.61,4.57,3.67,5.56,1.05.99,2.47,1.65,4.24,1.97v1.94h-31.77v-1.94c2.79-.45,4.19-1.7,4.19-3.77,0-.85-.42-2.11-1.26-3.77l-5.93-11.67ZM889.38,54.33l-14-29.55-14.22,29.55h28.22Z"/>
      <path class="cls-12" d="M1049.57,10.92l-10.31,19.53-1.77-.97c.04-.4.06-.73.06-.97,0-1.38-1.22-2.86-3.67-4.44-7.5-5.02-16.31-7.54-26.43-7.54-4.47,0-8.41.53-11.82,1.58-2.49.81-4.5,2.02-6.04,3.64-1.54,1.62-2.31,3.38-2.31,5.28,0,3.12,1.96,5.24,5.88,6.37,2.02.57,6.36,1.17,13.02,1.82l9.93.97c5.9.61,10.67,1.44,14.32,2.49,3.65,1.05,6.88,2.53,9.71,4.43,2.87,1.98,5.13,4.59,6.8,7.83,1.67,3.24,2.5,6.7,2.5,10.38,0,5.83-1.96,11.01-5.88,15.54-3.54,4.13-9.04,7.19-16.5,9.17-5.56,1.5-11.53,2.25-17.89,2.25-11.42,0-22.7-2.63-33.82-7.9-2.36-1.05-3.77-1.58-4.24-1.58-.55,0-1.41.45-2.59,1.34l-1.83-.91,9.36-20.36,1.83.85v.79c0,1.82.91,3.5,2.72,5.04,2.74,2.35,6.97,4.38,12.71,6.08,5.73,1.7,11.17,2.55,16.31,2.55,5.61,0,10.39-.91,14.35-2.73,2.19-1.01,3.94-2.35,5.25-4.03,1.31-1.68,1.96-3.43,1.96-5.25,0-2.75-1.54-4.71-4.62-5.88-2.15-.81-6.49-1.56-13.02-2.24l-9.74-.97c-6.53-.65-11.15-1.27-13.85-1.85-2.7-.59-5.4-1.53-8.09-2.83-3.84-1.82-6.85-4.56-9.04-8.21-1.98-3.28-2.97-7.06-2.97-11.31,0-7.01,2.51-12.81,7.52-17.39,6.58-6.04,16.44-9.06,29.59-9.06,5.52,0,10.66.54,15.43,1.62,4.76,1.08,10.71,3.06,17.83,5.95,2.44.94,3.94,1.4,4.49,1.4.88,0,1.92-.47,3.1-1.4l1.77.92Z"/>
    </g>
    <g>
      <path class="cls-17" d="M251.91,139.39v32.12c0,.8.19,1.41.57,1.82.38.41,1.06.75,2.03,1.01v1.24h-16.28v-1.24c.97-.26,1.65-.59,2.03-1.01.38-.41.57-1.02.57-1.82v-44.73c0-.77-.19-1.37-.57-1.78-.38-.41-1.06-.75-2.03-1.01v-1.24h18.84v1.24c-1.16.28-1.75.88-1.75,1.78,0,.62.38,1.3,1.14,2.05l30.58,30.3v-31.34c0-.77-.19-1.37-.57-1.78-.38-.41-1.06-.75-2.03-1.01v-1.24h16.28v1.24c-.97.26-1.65.59-2.03,1.01-.38.41-.57,1.01-.57,1.78v44.73c0,.8.19,1.41.57,1.82.38.41,1.06.75,2.03,1.01v1.24h-17.46v-1.24c1.14-.23,1.71-.79,1.71-1.66,0-.52-.66-1.42-1.99-2.71l-31.06-30.57Z"/>
      <path class="cls-1" d="M313.3,171.51v-44.73c0-.77-.19-1.37-.57-1.78-.38-.41-1.06-.75-2.03-1.01v-1.24h17.3v1.24c-.97.23-1.65.56-2.03.99-.38.43-.57,1.03-.57,1.8v44.73c0,.8.2,1.41.59,1.84.39.42,1.06.75,2.01.99v1.24h-17.3v-1.24c.97-.26,1.65-.59,2.03-1.01.38-.41.57-1.02.57-1.82Z"/>
      <path class="cls-11" d="M352.65,166.87h34.07c.84,0,1.48-.18,1.91-.54.43-.36.79-1.01,1.06-1.93h1.3v13.66h-1.3c-.27-.93-.62-1.57-1.06-1.93-.43-.36-1.07-.54-1.91-.54h-48.77v-1.24c.97-.26,1.65-.59,2.03-1.01.38-.41.57-1.02.57-1.82v-44.69c0-.8-.19-1.41-.57-1.82-.38-.41-1.06-.75-2.03-1.01v-1.24h17.3v1.24c-.97.23-1.65.56-2.03.99-.38.43-.57,1.04-.57,1.84v40.05Z"/>
      <path class="cls-5" d="M440.43,162.11h-25.19l-3.73,7.43c-.51,1.03-.77,1.84-.77,2.44,0,1.14.9,1.92,2.71,2.36v1.24h-18.33v-1.24c1.08-.21,1.91-.57,2.48-1.08.57-.52,1.22-1.52,1.95-3.02l20.38-40.59c.65-1.29.97-2.32.97-3.1,0-1.19-.79-2.04-2.35-2.55v-1.24h19.65v1.24c-1.6.44-2.4,1.2-2.4,2.28,0,.75.26,1.6.77,2.55l21.11,40.71c.89,1.73,1.68,2.91,2.35,3.54.68.63,1.58,1.05,2.72,1.26v1.24h-20.4v-1.24c1.79-.28,2.69-1.08,2.69-2.4,0-.54-.27-1.34-.81-2.4l-3.81-7.43ZM436.95,154.87l-8.99-18.82-9.13,18.82h18.12Z"/>
      <path class="cls-7" d="M523.76,166.87h34.07c.84,0,1.48-.18,1.91-.54.43-.36.78-1.01,1.06-1.93h1.3v13.66h-1.3c-.27-.93-.62-1.57-1.06-1.93-.43-.36-1.07-.54-1.91-.54h-48.77v-1.24c.97-.26,1.65-.59,2.03-1.01.38-.41.57-1.02.57-1.82v-44.69c0-.8-.19-1.41-.57-1.82-.38-.41-1.06-.75-2.03-1.01v-1.24h17.3v1.24c-.97.23-1.65.56-2.03.99-.38.43-.57,1.04-.57,1.84v40.05Z"/>
      <path class="cls-10" d="M597.47,121.82c9.67,0,17.33,2.49,23,7.47,5.99,5.21,8.98,11.94,8.98,20.2,0,5.06-1.44,9.78-4.31,14.16-5.61,8.56-14.8,12.85-27.59,12.85-9.59,0-17.21-2.49-22.88-7.47-3.03-2.66-5.34-5.84-6.91-9.56-1.38-3.28-2.07-6.72-2.07-10.33,0-5.29,1.42-10.12,4.27-14.51,5.44-8.38,14.61-12.65,27.51-12.81ZM597.51,130.8c-5.28,0-9.69,1.49-13.21,4.48-4.17,3.53-6.26,8.16-6.26,13.88s2.09,10.35,6.26,13.88c3.52,2.99,7.95,4.48,13.29,4.48s9.75-1.49,13.25-4.48c2.09-1.78,3.68-3.96,4.8-6.53.98-2.29,1.46-4.66,1.46-7.11,0-5.98-2.09-10.68-6.26-14.11-3.55-2.94-7.99-4.43-13.33-4.48ZM608.7,107.27v1.04c-1.06.03-1.85.39-2.4,1.08l-5.77,6.69c-.16.18-.24.39-.24.62,0,.41.28.62.85.62h.16v1.04h-8.81v-1.04c.65,0,1.11-.09,1.38-.27.27-.18.53-.55.77-1.12l2.68-6.31c.11-.23.16-.43.16-.58,0-.41-.38-.66-1.14-.74v-1.04h12.34Z"/>
      <path class="cls-9" d="M652.84,154.13v17.41c0,.77.2,1.37.59,1.8.39.42,1.06.75,2.01.99v1.24h-17.3v-1.24c.97-.26,1.65-.59,2.03-1.01.38-.41.57-1.01.57-1.78v-44.73c0-.8-.19-1.41-.57-1.82-.38-.41-1.06-.75-2.03-1.01v-1.24h34.59c4.03,0,7.23.26,9.6.77,2.37.52,4.46,1.41,6.27,2.67,1.87,1.32,3.33,3.04,4.38,5.19,1.06,2.22,1.58,4.57,1.58,7.04,0,3.56-1,6.68-3,9.36-1.73,2.3-4.03,3.93-6.88,4.89-2.86.97-6.84,1.45-11.96,1.45h-19.9ZM652.84,145.43h18.47c3.68,0,6.27-.37,7.76-1.12.95-.49,1.71-1.27,2.29-2.34.58-1.07.87-2.25.87-3.54s-.29-2.43-.87-3.5-1.35-1.85-2.29-2.34c-1.46-.75-4.05-1.12-7.76-1.12h-18.47v13.97Z"/>
      <path class="cls-13" d="M716.47,152.39v14.47h35.65c.81,0,1.43-.18,1.87-.54.43-.36.78-1.01,1.06-1.93h1.3v13.66h-1.3c-.27-.93-.62-1.57-1.06-1.93-.43-.36-1.06-.54-1.87-.54h-50.35v-1.24c.97-.26,1.65-.59,2.03-1.01.38-.41.57-1.02.57-1.82v-44.69c0-.8-.19-1.41-.57-1.82-.38-.41-1.06-.75-2.03-1.01v-1.24h49.38c.81,0,1.43-.18,1.87-.55.43-.37.78-1.01,1.06-1.92h1.3v13.66h-1.3c-.27-.92-.62-1.56-1.06-1.93-.43-.37-1.06-.55-1.87-.55h-34.68v12.54h22.49c.81,0,1.43-.18,1.87-.54.43-.36.79-1.01,1.06-1.93h1.3v13.35h-1.3c-.27-.9-.62-1.54-1.06-1.92-.43-.37-1.06-.56-1.87-.56h-22.49Z"/>
      <path class="cls-2" d="M782.92,166.87h28.84c.81,0,1.44-.18,1.87-.54.43-.36.79-1.01,1.06-1.93h1.3v13.66h-1.3c-.27-.93-.62-1.57-1.06-1.93-.43-.36-1.06-.54-1.87-.54h-48.48v-2.71l32.23-41.4h-27.73c-.84,0-1.48.18-1.91.53s-.79,1-1.06,1.95h-1.3v-13.66h1.3c.3.94.66,1.59,1.08,1.94s1.05.53,1.89.53h47.75v2.21l-32.62,41.91Z"/>
    </g>
    <rect class="cls-15" y="150.28" width="222.72" height="10.25"/>
    <rect class="cls-18" x="833.43" y="146.85" width="221.32" height="10.25"/>
  </g>
</svg>