<?xml version="1.0" encoding="UTF-8"?>
<svg id="Capa_2" data-name="Capa 2" xmlns="http://www.w3.org/2000/svg" xmlns:xlink="http://www.w3.org/1999/xlink" viewBox="0 0 150.75 128.9">
  <defs>
    <style>
      .cls-1 {
        fill: url(#Degradado_sin_nombre-2);
      }

      .cls-2 {
        fill: #fff;
      }

      .cls-3 {
        fill: url(#Degradado_sin_nombre-3);
      }

      .cls-4 {
        fill: url(#Degradado_sin_nombre);
      }
    </style>
    <linearGradient id="Degradado_sin_nombre" data-name="Degradado sin nombre" x1="32.77" y1="45.05" x2="150.75" y2="45.05" gradientUnits="userSpaceOnUse">
      <stop offset="0" stop-color="#009fe3"/>
      <stop offset=".56" stop-color="#0d67b4"/>
      <stop offset=".99" stop-color="#164194"/>
    </linearGradient>
    <linearGradient id="Degradado_sin_nombre-2" data-name="Degradado sin nombre" x1="15.61" y1="63.47" x2="133.58" y2="63.47" xlink:href="#Degradado_sin_nombre"/>
    <linearGradient id="Degradado_sin_nombre-3" data-name="Degradado sin nombre" x1="0" y1="83.85" x2="117.98" y2="83.85" xlink:href="#Degradado_sin_nombre"/>
  </defs>
  <g id="Capa_2-2" data-name="Capa 2">
    <rect class="cls-2" x="0" width="150.75" height="128.9"/>
    <path class="cls-4" d="M150.16,78.03c-13.23,7.13-27.54,6.9-41.87,3.62-24.48-5.6-45.16-17.58-71.02-7.28-1.08.43-3.28,1.96-4.25,1.35l-.25-63.11c.27-.6,4.9-2.47,5.83-2.82,7.96-2.94,17.26-3.82,25.73-3.46,27.11,1.15,54.16,20.39,81.35,8.54,1.04-.45,3.44-2.17,4.33-1.73.26.13.37.38.43.66.22,1.19-.06,3.21,0,4.54.77,19.3-.13,38.75.24,58.13l-.5,1.55ZM143.06,22.45c-13.11,6.24-24.69,3.27-40.26-.94-17.61-4.75-21.76-7.72-40.89-8.43-9.36-.34-16.85,1.17-22.16,3.75l.62,48.07c8.7-4,19.35-2.81,28.09-1.51,23.7,3.51,32.15,13.22,56.81,12.75,5.49-.11,14.15-2.02,18.93-4.7l-1.14-48.98Z"/>
    <path class="cls-2" d="M144.2,71.43c-11.87,5.51-21.9,6.15-34.76,3.62-21.97-4.33-23.71-8.67-40.26-11.28-1.01-.16-24.89-1.37-28.81,1.13l-.62-48.07c.24-.47,9.06-4.33,19.54-4.33,7.83,0,19.89,1.36,29.59,4.68,9.63,3.29,17.42,4.19,30.85,7.11,12.18,2.64,21.13-1.28,23.33-1.83.25-.06.48,18.81.72,26.93.21,7.29.42,22.06.42,22.06Z"/>
    <path class="cls-1" d="M133,96.44c-13.23,7.13-27.54,6.9-41.87,3.62-24.48-5.6-45.16-17.58-71.02-7.28-1.08.43-3.28,1.96-4.25,1.35l-.25-63.11c.27-.6,4.9-2.47,5.83-2.82,7.96-2.94,17.26-3.82,25.73-3.46,27.11,1.15,54.16,20.39,81.35,8.54,1.04-.45,3.44-2.17,4.33-1.73.26.13.37.38.43.66.22,1.19-.06,3.21,0,4.54.77,19.3-.13,38.75.24,58.13l-.5,1.55ZM125.89,40.86c-13.11,6.24-24.69,3.27-40.26-.94-17.61-4.75-21.76-7.72-40.89-8.43-9.36-.34-16.85,1.17-22.16,3.75l.62,48.07c8.7-4,19.35-2.81,28.09-1.51,23.7,3.51,32.15,13.22,56.81,12.75,5.49-.11,14.15-2.02,18.93-4.7l-1.14-48.98Z"/>
    <path class="cls-2" d="M127.03,89.84c-11.87,5.51-21.9,6.15-34.76,3.62-21.97-4.33-23.71-8.67-40.26-11.28-1.01-.16-24.89-1.37-28.81,1.13l-.62-48.07c.24-.47,9.06-4.33,19.54-4.33,7.83,0,19.89,1.36,29.59,4.68,9.63,3.29,17.42,4.19,30.85,7.11,12.18,2.64,21.13-1.28,23.33-1.83.25-.06.48,18.81.72,26.93.21,7.29.42,22.06.42,22.06Z"/>
    <path class="cls-3" d="M117.39,116.83c-13.23,7.13-27.54,6.9-41.87,3.62-24.48-5.6-45.16-17.58-71.02-7.28-1.08.43-3.28,1.96-4.25,1.35l-.25-63.11c.27-.6,4.9-2.47,5.83-2.82,7.96-2.94,17.26-3.82,25.73-3.46,27.11,1.15,54.16,20.39,81.35,8.54,1.04-.45,3.44-2.17,4.33-1.73.26.13.37.38.43.66.22,1.19-.06,3.21,0,4.54.77,19.3-.13,38.75.24,58.13l-.5,1.55ZM110.28,61.24c-13.11,6.24-24.69,3.27-40.26-.94-17.61-4.75-21.76-7.72-40.89-8.43-9.36-.34-16.85,1.17-22.16,3.75l.62,48.07c8.7-4,19.35-2.81,28.09-1.51,23.7,3.51,32.15,13.22,56.81,12.75,5.49-.11,14.15-2.02,18.93-4.7l-1.14-48.98Z"/>
    <path class="cls-2" d="M111.42,110.23c-11.87,5.51-21.9,6.15-34.76,3.62-21.97-4.33-23.71-8.67-40.26-11.28-1.01-.16-24.89-1.37-28.81,1.13l-.62-48.07c.24-.47,9.06-4.33,19.54-4.33,7.83,0,19.89,1.36,29.59,4.68,9.63,3.29,17.42,4.19,30.85,7.11,12.18,2.64,21.13-1.28,23.33-1.83.25-.06.48,18.81.72,26.93.21,7.29.42,22.06.42,22.06Z"/>
  </g>
</svg>