<?xml version="1.0" encoding="UTF-8" standalone="no"?>
<svg
   id="Capa_2"
   data-name="Capa 2"
   viewBox="0 0 150.75 128.9"
   version="1.1"
   sodipodi:docname="productos.svg"
   inkscape:version="1.4.2 (f4327f4, 2025-05-13)"
   xmlns:inkscape="http://www.inkscape.org/namespaces/inkscape"
   xmlns:sodipodi="http://sodipodi.sourceforge.net/DTD/sodipodi-0.dtd"
   xmlns:xlink="http://www.w3.org/1999/xlink"
   xmlns="http://www.w3.org/2000/svg"
   xmlns:svg="http://www.w3.org/2000/svg">
  <sodipodi:namedview
     id="namedview8"
     pagecolor="#505050"
     bordercolor="#eeeeee"
     borderopacity="1"
     inkscape:showpageshadow="0"
     inkscape:pageopacity="0"
     inkscape:pagecheckerboard="0"
     inkscape:deskcolor="#505050"
     inkscape:zoom="5.9968971"
     inkscape:cx="75.372312"
     inkscape:cy="64.449997"
     inkscape:window-width="1920"
     inkscape:window-height="991"
     inkscape:window-x="-9"
     inkscape:window-y="-9"
     inkscape:window-maximized="1"
     inkscape:current-layer="Capa_2" />
  <defs
     id="defs3">
    <style
       id="style1">
      .cls-1 {
        fill: url(#Degradado_sin_nombre-2);
      }

      .cls-2 {
        fill: #fff;
      }

      .cls-3 {
        fill: url(#Degradado_sin_nombre-3);
      }

      .cls-4 {
        fill: url(#Degradado_sin_nombre);
      }
    </style>
    <linearGradient
       id="Degradado_sin_nombre"
       data-name="Degradado sin nombre"
       x1="32.77"
       y1="45.05"
       x2="150.75"
       y2="45.05"
       gradientUnits="userSpaceOnUse">
      <stop
         offset="0"
         stop-color="#009fe3"
         id="stop1" />
      <stop
         offset=".56"
         stop-color="#0d67b4"
         id="stop2" />
      <stop
         offset=".99"
         stop-color="#164194"
         id="stop3" />
    </linearGradient>
    <linearGradient
       id="Degradado_sin_nombre-2"
       data-name="Degradado sin nombre"
       x1="15.61"
       y1="63.47"
       x2="133.58"
       y2="63.47"
       xlink:href="#Degradado_sin_nombre" />
    <linearGradient
       id="Degradado_sin_nombre-3"
       data-name="Degradado sin nombre"
       x1="0"
       y1="83.85"
       x2="117.98"
       y2="83.85"
       xlink:href="#Degradado_sin_nombre" />
    <linearGradient
       inkscape:collect="always"
       xlink:href="#Degradado_sin_nombre"
       id="linearGradient8"
       gradientUnits="userSpaceOnUse"
       x1="32.77"
       y1="45.05"
       x2="150.75"
       y2="45.05" />
  </defs>
  <path
     class="cls-4"
     d="m 150.16,78.03 c -13.23,7.13 -27.54,6.9 -41.87,3.62 -24.48,-5.6 -45.16,-17.58 -71.02,-7.28 -1.08,0.43 -3.28,1.96 -4.25,1.35 L 32.77,12.61 c 0.27,-0.6 4.9,-2.47 5.83,-2.82 7.96,-2.94 17.26,-3.82 25.73,-3.46 27.11,1.15 54.16,20.39 81.35,8.54 1.04,-0.45 3.44,-2.17 4.33,-1.73 0.26,0.13 0.37,0.38 0.43,0.66 0.22,1.19 -0.06,3.21 0,4.54 0.77,19.3 -0.13,38.75 0.24,58.13 l -0.5,1.55 z m -7.1,-55.58 C 129.95,28.69 118.37,25.72 102.8,21.51 85.19,16.76 81.04,13.79 61.91,13.08 52.55,12.74 45.06,14.25 39.75,16.83 l 0.62,48.07 c 8.7,-4 19.35,-2.81 28.09,-1.51 23.7,3.51 32.15,13.22 56.81,12.75 5.49,-0.11 14.15,-2.02 18.93,-4.7 l -1.14,-48.98 z"
     id="path3"
     style="fill:url(#linearGradient8)" />
  <path
     class="cls-2"
     d="m 144.2,71.43 c -11.87,5.51 -21.9,6.15 -34.76,3.62 C 87.47,70.72 85.73,66.38 69.18,63.77 68.17,63.61 44.29,62.4 40.37,64.9 L 39.75,16.83 c 0.24,-0.47 9.06,-4.33 19.54,-4.33 7.83,0 19.89,1.36 29.59,4.68 9.63,3.29 17.42,4.19 30.85,7.11 12.18,2.64 21.13,-1.28 23.33,-1.83 0.25,-0.06 0.48,18.81 0.72,26.93 0.21,7.29 0.42,22.06 0.42,22.06 z"
     id="path4" />
  <path
     class="cls-1"
     d="m 133,96.44 c -13.23,7.13 -27.54,6.9 -41.87,3.62 -24.48,-5.6 -45.16,-17.58 -71.02,-7.28 -1.08,0.43 -3.28,1.96 -4.25,1.35 L 15.61,31.02 c 0.27,-0.6 4.9,-2.47 5.83,-2.82 7.96,-2.94 17.26,-3.82 25.73,-3.46 27.11,1.15 54.16,20.39 81.35,8.54 1.04,-0.45 3.44,-2.17 4.33,-1.73 0.26,0.13 0.37,0.38 0.43,0.66 0.22,1.19 -0.06,3.21 0,4.54 0.77,19.3 -0.13,38.75 0.24,58.13 l -0.5,1.55 z M 125.89,40.86 C 112.78,47.1 101.2,44.13 85.63,39.92 68.02,35.17 63.87,32.2 44.74,31.49 35.38,31.15 27.89,32.66 22.58,35.24 l 0.62,48.07 c 8.7,-4 19.35,-2.81 28.09,-1.51 23.7,3.51 32.15,13.22 56.81,12.75 5.49,-0.11 14.15,-2.02 18.93,-4.7 l -1.14,-48.98 z"
     id="path5"
     style="fill:url(#Degradado_sin_nombre-2)" />
  <path
     class="cls-2"
     d="m 127.03,89.84 c -11.87,5.51 -21.9,6.15 -34.76,3.62 C 70.3,89.13 68.56,84.79 52.01,82.18 51,82.02 27.12,80.81 23.2,83.31 L 22.58,35.24 c 0.24,-0.47 9.06,-4.33 19.54,-4.33 7.83,0 19.89,1.36 29.59,4.68 9.63,3.29 17.42,4.19 30.85,7.11 12.18,2.64 21.13,-1.28 23.33,-1.83 0.25,-0.06 0.48,18.81 0.72,26.93 0.21,7.29 0.42,22.06 0.42,22.06 z"
     id="path6" />
  <path
     class="cls-3"
     d="m 117.39,116.83 c -13.23,7.13 -27.54,6.9 -41.87,3.62 -24.48,-5.6 -45.16,-17.58 -71.02,-7.28 -1.08,0.43 -3.28,1.96 -4.25,1.35 L 0,51.41 c 0.27,-0.6 4.9,-2.47 5.83,-2.82 7.96,-2.94 17.26,-3.82 25.73,-3.46 27.11,1.15 54.16,20.39 81.35,8.54 1.04,-0.45 3.44,-2.17 4.33,-1.73 0.26,0.13 0.37,0.38 0.43,0.66 0.22,1.19 -0.06,3.21 0,4.54 0.77,19.3 -0.13,38.75 0.24,58.13 l -0.5,1.55 z M 110.28,61.24 C 97.17,67.48 85.59,64.51 70.02,60.3 52.41,55.55 48.26,52.58 29.13,51.87 19.77,51.53 12.28,53.04 6.97,55.62 l 0.62,48.07 c 8.7,-4 19.35,-2.81 28.09,-1.51 23.7,3.51 32.15,13.22 56.81,12.75 5.49,-0.11 14.15,-2.02 18.93,-4.7 l -1.14,-48.98 z"
     id="path7"
     style="fill:url(#Degradado_sin_nombre-3)" />
  <path
     class="cls-2"
     d="m 111.42,110.23 c -11.87,5.51 -21.9,6.15 -34.76,3.62 C 54.69,109.52 52.95,105.18 36.4,102.57 35.39,102.41 11.51,101.2 7.59,103.7 L 6.97,55.63 c 0.24,-0.47 9.06,-4.33 19.54,-4.33 7.83,0 19.89,1.36 29.59,4.68 9.63,3.29 17.42,4.19 30.85,7.11 12.18,2.64 21.13,-1.28 23.33,-1.83 0.25,-0.06 0.48,18.81 0.72,26.93 0.21,7.29 0.42,22.06 0.42,22.06 z"
     id="path8" />
</svg>
