<?xml version="1.0" encoding="UTF-8"?>
<svg id="Capa_2" xmlns="http://www.w3.org/2000/svg" xmlns:xlink="http://www.w3.org/1999/xlink" viewBox="0 0 128.8999784 128.8999784">
  <defs>
    <style>
      .cls-1 {
        fill: url(#Degradado_sin_nombre_120);
      }

      .cls-2 {
        fill: none;
      }
    </style>
    <linearGradient id="Degradado_sin_nombre_120" data-name="Degradado sin nombre 120" x1="7.9743788" y1="64.4499892" x2="120.9255996" y2="64.4499892" gradientUnits="userSpaceOnUse">
      <stop offset="0" stop-color="#009fe3"/>
      <stop offset=".5622863" stop-color="#0d67b4"/>
      <stop offset=".9911119" stop-color="#164194"/>
    </linearGradient>
  </defs>
  <g id="Capa_1-2" data-name="Capa_1">
    <g>
      <rect class="cls-2" y="0" width="128.8999784" height="128.8999784"/>
      <g>
        <path class="cls-1" d="M103.5595275,32.391248c-.4094051-.0217429-.6684015-.0474905-.9273979-.0475146-7.4761425-.0006996-14.952285-.0031001-22.4284275.0054825-2.0110427.002304-3.1001399-1.0460397-3.1010446-3.0554118-.0033534-7.4761787-.001351-14.9523544-.001351-22.4285301v-1.121802H13.7174712c0,.3927406.000006.7440341-.000006,1.0953275-.0012967,36.9855805.001152,73.971158-.024855,110.9567235-.0006695.9583385.2507395,1.4100592,1.2286496,1.3833405.4920039-.0134378.9855035.0419779,1.4783336.0422191,9.2546241.0046682,18.5092964-.0068757,27.7637939.0277923.890052.0033293,1.8438368.1372243,2.6525386.4816602,1.0709972.4561719,1.5218676,1.9029859,1.2130225,3.1526123-.2497202,1.0104007-1.2461162,1.8590176-2.3292967,1.9562061-.4253398.0381299-.8552152.0347162-1.2830339.034861-10.9343068.0038359-21.8686197.0036791-32.8029266.0091676-2.6487177.001339-3.6142757-.9235981-3.621468-3.6174089-.0197797-7.409774-.014644-14.8196083-.0152803-22.2294185-.0027171-31.7160851-.0096682-63.4321702.0224063-95.1482191.0009439-.9331065.2417348-1.9633924.6882565-2.7732853C9.2127515.1625531,10.3242671-.0002891,11.3806897.0000004c22.8563306.0062635,45.7126553.016945,68.5689859.0092309,1.1583125-.000392,2.0736477.3627168,2.8942191,1.1856976,8.4178104,8.4426443,16.8489139,16.8720681,25.2906445,25.2908073.7429484.7409219,1.1488192,1.5836764,1.1493379,2.614674.004041,8.0031159.0048612,16.0062378-.0058262,24.0093416-.0018576,1.3875082-.7692087,2.4619855-1.9745895,2.8735196-1.0939705.3735068-2.4736319.0810306-3.113059-.867314-.3734223-.5538247-.5978231-1.3204099-.6023949-1.9932142-.0442457-6.5207654-.0276837-13.041953-.0284678-19.563014-.0000483-.356022-.0000121-.712044-.0000121-1.1684813ZM82.8417233,9.8792899c0,5.3524018.0011218,10.641508-.0012907,15.9306142-.0003257.7231537.4227222.8070431,1.0318601.8047874,5.0037289-.0184679,10.0075423-.0095114,15.0113315-.0121832.2097568-.0001146.4194774-.0327379.6749394-.0540224-5.5882108-5.5722881-11.1074596-11.0757983-16.7168403-16.669196Z"/>
        <path class="cls-1" d="M82.0912117,107.0130544c-1.0467936,1.0198699-2.1145038,2.0337446-3.1523349,3.0773537-1.6013723,1.6102986-3.3070138,3.1398259-4.7310777,4.896058-1.0731745,1.32351-1.8805373,2.899032-2.6069359,4.4553987-.5528055,1.184416-1.265537,2.0621882-2.3820767,2.7493591-2.3683615,1.4576342-4.6994012,2.9818057-6.9845126,4.5669537-1.7594106,1.2204591-2.9507324,1.3143062-4.597436-.0679487-1.1056531-.9281337-2.1367352-1.9580758-3.1146694-3.0219863-1.1204238-1.2189271-.9479706-2.5773583.0270082-3.8970444,1.7305749-2.3424631,3.4243951-4.7274468,4.9169987-7.2241183.7820434-1.3081181,1.6910397-2.3163354,3.0419016-2.9186217,1.8344702-.8179417,3.3358313-2.0485695,4.7252152-3.4756612,2.2046839-2.2645506,4.4682574-4.4718038,6.7794663-6.7756183-1.2285531-1.3569234-2.4332704-2.6848965-3.6348756-4.0157044-.6834074-.7568928-1.3097586-1.5761614-2.0635031-2.2542974-.3959794-.3562331-1.0063959-.6482328-1.52773-.661369-2.4875884-.0626291-4.9754602.1635932-7.4246834-.5974009-7.038734-2.186988-11.7123032-8.727132-11.3798998-16.0843372.049891-1.1042116.0422553-2.2852501.4331865-3.2853614,1.0098217-2.5833534,4.6455779-2.9384044,6.4623643-.80027,1.2110623,1.4252822,2.5328232,2.7656798,3.8889987,4.0558246,1.2916647,1.2287702,2.2245872,1.0963106,3.4327183-.2374646.2691652-.2971504.659638-.5198745,1.03569-.678896,2.1037379-.8896057,2.3854482-2.7850283.7013264-4.3109248-1.8280167-1.6562692-3.5958772-3.3808611-5.3498294-5.1162249-1.0009135-.9902923-.9472589-2.5960795.0630513-3.6307864,1.2933233-1.3245473,3.0150442-1.7646096,4.7345336-1.9170388,5.0775099-.4501104,9.4764435,1.1837043,12.9727558,4.8887119,3.2058084,3.3971697,4.6772543,7.5219322,4.4961221,12.2108028-.0038118.0985274.0135946.2094673-.025042.2933748-.8554323,1.8577631-.03468,3.1225161,1.336224,4.3632283,1.53042,1.3850896,2.8927233,2.9559073,4.3541331,4.4728171,1.2150188-1.9332148,1.8971475-4.0091785,2.2549367-6.2315341.1279361-.7945885.4236631-1.7150021.9618366-2.2669511,5.056527-5.1859226,10.1728604-10.3138,15.2981563-15.4321659.7608494-.759824,1.5861131-1.5068074,2.5076002-2.043274,1.8590418-1.0823059,4.0783696-.7946609,5.6218896.6989621,2.2479887,2.1753416,4.4624071,4.3882099,6.6228694,6.6502877,1.5913,1.6661244,1.511554,4.7373623-.2071151,6.4762001-5.4619755,5.5261245-10.9443731,11.0331901-16.5044659,16.4599428-.7892568.7703426-2.00974,1.1965992-3.1071483,1.5309145-1.7127826.5218166-3.2811998,1.2374311-4.9373484,2.6496254.5181858.3825537,1.0453823.6845654,1.4661383,1.0955748,5.7710197,5.6372815,11.5416775,11.27513,17.2779087,16.9477429,1.5608419,1.5435441,2.7326886,3.3211873,2.8982842,5.633711.3479943,4.8598581-2.9782472,11.1473748-10.5586228,10.6289961-2.1654804-.1480806-3.9901799-1.0357684-5.4766799-2.5641256-3.9464047-4.0575496-7.8556806-8.1512026-11.7772483-12.2328894-2.2336703-2.3248999-4.4624794-4.6545042-6.7680792-7.0598255ZM60.4403885,122.1250243c.1915603-.1219048.3011793-.188418.4075294-.2597925,1.9318637-1.2966465,3.887328-2.5603983,5.7779979-3.9146076.4710571-.3373792.844009-.9209926,1.0714978-1.4703482,1.0050208-2.4269617,2.3997363-4.5674724,4.2904666-6.4022804,1.8906337-1.8347115,3.6924504-3.7614486,5.5959188-5.5822881,4.610729-4.4106223,8.7463116-9.3161253,13.8185441-13.2468003,2.020922-1.5660891,3.9577556-3.2309349,6.5427495-3.879614.749221-.1879958,1.4991296-.6658442,2.0756863-1.1982277,2.3451048-2.1654201,4.6453245-4.3809965,6.9199233-6.6208791,2.7678149-2.7255596,5.485172-5.5022767,8.2434454-8.237595.5751816-.5703807.421914-.9578921-.0955721-1.457984-1.4653542-1.4161388-2.9153045-2.8502267-4.3220344-4.3242781-.9435979-.9887543-.9264449-1.0208952-1.8924552-.0535942-5.0268529,5.0334994-10.0615225,10.0592065-15.0722115,15.1087251-.3233142.3258233-.5322266.806627-.6860732,1.2526783-1.3360792,3.8734258-2.6551381,7.763667-5.635448,10.7611179-6.0609084,6.0958056-12.1402244,12.173481-18.2437983,18.2265247-1.106214,1.0970585-2.2809075,2.1011505-3.8174433,2.6905418-.8854923.339647-1.7024328,1.1182767-2.3007023,1.8922139-1.2392707,1.6031575-2.3200809,3.3296794-3.443659,5.0203512-.1551312.2334236-.340606.6620204-.2380617.8086173.2492498.3563175.6597224.5998496,1.0036999.8875189ZM83.348522,89.8662543c-.5945542-.520731-1.173439-.9652141-1.6786574-1.4817353-1.6324214-1.6689591-3.2759405-3.3298362-4.842307-5.0598321-1.4242931-1.5730613-2.0146977-3.4095339-1.4182859-5.5404067.1661263-.5935771.2748466-1.2215326.2888634-1.8364605.1021703-4.4856276-3.8607118-9.7746253-8.1978728-10.9258329-.7493657-.1989004-1.5448469-.2240751-2.3190254-.3294903.8669642,1.0737837,1.7823235,1.9182571,2.6853067,2.7757763,3.0297425,2.8771987,2.3703036,7.538663.0690826,10.0387362-1.0135008,1.1010995-2.4542594,1.8172448-3.7294465,2.6654516-.5864481.3900808-1.207341.7874836-1.871026.9921017-2.8328324.8733332-6.0649735-.2523499-7.8279969-2.6346316-.2838152-.3834946-.6352474-.7169414-.9554253-1.0735123-.0812598.0295775-.1625196.0591551-.2437794.0887446.1286719.8144918.1889608,1.6469086.396854,2.4406527,1.6329462,6.2347186,8.7967997,8.2105265,13.3821187,6.9560267,1.4442808-.395135,2.4400737-.1997689,3.3867356.9102569,1.4508912,1.7012748,2.9353526,3.3759516,4.4575579,5.0135841.8826094.9495328,1.866991,1.8044946,2.6789014,2.5808806,1.8662673-1.8148564,3.7030535-3.60104,5.7384024-5.5803098ZM85.7724801,103.0781575c.1497453.2674281.1714821.3339414.2149437.3799241,5.0372992,5.329709,10.0644657,10.6690681,15.1236344,15.9779449,1.1970817,1.2561885,2.4689275,2.4467082,3.7651518,3.6014863,1.8155922,1.6174638,4.3520221.6172198,5.6495974-.9019819,1.5290086-1.7901522,1.4877666-3.9871401-.1514461-5.6345795-1.9260134-1.9357117-3.8506396-3.8730881-5.7983295-5.786882-4.4078358-4.33119-8.8294833-8.6483511-13.2487545-12.9743783-.2272717.1871997-.3601052.2817827-.4756892.3941218-1.6980782,1.6503103-3.3938525,3.303009-5.0791082,4.9443447Z"/>
        <path class="cls-1" d="M54.528966,45.7479689c8.4261336,0,16.8522612-.0031725,25.2783949.0026055,1.7390911.0011882,2.6277318.6049159,3.0734816,2.032279.5371361,1.7199116-.5276911,3.4673681-2.3346585,3.5245449-3.5178321.1113138-7.0404409.0897338-10.5610836.0914045-13.3962079.006351-26.7924097.0004282-40.1886176-.0034921-.3942062-.0001206-.7904389-.0087032-1.1822507-.0479851-1.6120477-.1616089-2.7199806-1.3762537-2.62585-2.8618671.1056323-1.6671738,1.1976306-2.7357465,2.8672712-2.7374775,8.5577609-.008866,17.1155398-.0041073,25.6733128-.0041073v.0040953Z"/>
        <path class="cls-1" d="M45.7757606,34.7346942c-5.66397-.0006755-11.3279521-.0075572-16.991892.0049276-1.1809962.0026055-2.0339316-.5473532-2.5632632-1.53004-.5357188-.9945323-.4511719-2.0342995.2007581-2.9746586.607811-.8767228,1.5224345-1.2487278,2.5428231-1.2500788,11.2291774-.014831,22.458379-.0138298,33.6875625-.0042762,1.7320405.0014716,2.9630785,1.2206943,2.9851772,2.8789659.0215197,1.6146532-1.2165749,2.8603352-2.9680061,2.8673918-5.6309667.0227079-11.2620963.0084499-16.8931595.0077683Z"/>
        <path class="cls-1" d="M36.7794332,68.1059991c-2.5669905.0002171-5.1339931.0042822-7.7009776-.001158-1.8093679-.0038359-2.9905028-1.1112803-3.0024629-2.7990933-.0126235-1.7817144,1.1263104-2.9249305,2.9513114-2.9272405,5.2656143-.0066586,10.5312467-.0069541,15.796861.0008263,1.5958416.0023582,2.8208241,1.2731305,2.8278747,2.8942372.0067732,1.5576634-1.1897356,2.810028-2.7767714,2.8251304-2.6983946.0256813-5.3971993.0070687-8.0958352.0072979Z"/>
        <path class="cls-1" d="M108.9514916,118.8758749c-.0020868,1.6287906-1.2452236,2.9690314-2.765523,2.9815162-1.5748225.0129311-2.9940131-1.4256682-2.9966186-3.0375712-.0026417-1.6353888,1.3100843-2.9099849,2.9706719-2.8844001,1.5626995.024077,2.7935445,1.3206149,2.7914697,2.9404551Z"/>
      </g>
    </g>
  </g>
</svg>