<?xml version="1.0" encoding="UTF-8"?>
<svg id="Capa_2" xmlns="http://www.w3.org/2000/svg" viewBox="0 0 174.6161437 116.4107625">
  <defs>
    <style>
      .cls-1 {
        fill: #fff;
      }

      .cls-2 {
        fill: #cf172c;
      }

      .cls-3 {
        fill: #25346d;
      }
    </style>
  </defs>
  <g id="Capa_1-2" data-name="Capa_1">
    <g>
      <rect class="cls-3" width="174.6161437" height="116.4107625"/>
      <path class="cls-1" d="M153.5651975,0L0,102.3747299v14.0360325h21.0509462L174.6161437,14.036034V0h-21.0509462ZM0,0v14.036034l153.5651975,102.3747284h21.0509462v-14.0360325L21.0509462,0H0Z"/>
      <path class="cls-2" d="M0,0v9.3068468l73.3510012,48.8985344h13.9570706L0,116.4107625h13.9570677l73.3510042-48.8985359v-9.3068453l87.3080718,58.2053812v-9.3068453l-73.3508117-48.8985359h-13.9572601L174.6161437,0h-13.9570706l-73.3510012,48.8985359v9.3068453L0,0Z"/>
      <path class="cls-1" d="M0,38.8035875v38.8035875h174.6161437v-38.8035875H0ZM67.9062781,0v116.4107625h38.8035875V0h-38.8035875Z"/>
      <g>
        <rect class="cls-2" y="46.564305" width="174.6161437" height="23.2821525"/>
        <rect class="cls-2" x="75.6669956" width="23.2821525" height="116.4107625"/>
      </g>
    </g>
  </g>
</svg>